%TF.GenerationSoftware,KiCad,Pcbnew,7.0.7*%
%TF.CreationDate,2023-10-17T16:06:01-04:00*%
%TF.ProjectId,MicAmp,4d696341-6d70-42e6-9b69-6361645f7063,rev?*%
%TF.SameCoordinates,PX42c1d80PY2625a00*%
%TF.FileFunction,Copper,L1,Top*%
%TF.FilePolarity,Positive*%
%FSLAX46Y46*%
G04 Gerber Fmt 4.6, Leading zero omitted, Abs format (unit mm)*
G04 Created by KiCad (PCBNEW 7.0.7) date 2023-10-17 16:06:01*
%MOMM*%
%LPD*%
G01*
G04 APERTURE LIST*
G04 Aperture macros list*
%AMRoundRect*
0 Rectangle with rounded corners*
0 $1 Rounding radius*
0 $2 $3 $4 $5 $6 $7 $8 $9 X,Y pos of 4 corners*
0 Add a 4 corners polygon primitive as box body*
4,1,4,$2,$3,$4,$5,$6,$7,$8,$9,$2,$3,0*
0 Add four circle primitives for the rounded corners*
1,1,$1+$1,$2,$3*
1,1,$1+$1,$4,$5*
1,1,$1+$1,$6,$7*
1,1,$1+$1,$8,$9*
0 Add four rect primitives between the rounded corners*
20,1,$1+$1,$2,$3,$4,$5,0*
20,1,$1+$1,$4,$5,$6,$7,0*
20,1,$1+$1,$6,$7,$8,$9,0*
20,1,$1+$1,$8,$9,$2,$3,0*%
%AMFreePoly0*
4,1,19,0.550000,-0.750000,0.000000,-0.750000,0.000000,-0.744911,-0.071157,-0.744911,-0.207708,-0.704816,-0.327430,-0.627875,-0.420627,-0.520320,-0.479746,-0.390866,-0.500000,-0.250000,-0.500000,0.250000,-0.479746,0.390866,-0.420627,0.520320,-0.327430,0.627875,-0.207708,0.704816,-0.071157,0.744911,0.000000,0.744911,0.000000,0.750000,0.550000,0.750000,0.550000,-0.750000,0.550000,-0.750000,
$1*%
%AMFreePoly1*
4,1,19,0.000000,0.744911,0.071157,0.744911,0.207708,0.704816,0.327430,0.627875,0.420627,0.520320,0.479746,0.390866,0.500000,0.250000,0.500000,-0.250000,0.479746,-0.390866,0.420627,-0.520320,0.327430,-0.627875,0.207708,-0.704816,0.071157,-0.744911,0.000000,-0.744911,0.000000,-0.750000,-0.550000,-0.750000,-0.550000,0.750000,0.000000,0.750000,0.000000,0.744911,0.000000,0.744911,
$1*%
G04 Aperture macros list end*
%TA.AperFunction,SMDPad,CuDef*%
%ADD10RoundRect,0.250000X-0.262500X-0.450000X0.262500X-0.450000X0.262500X0.450000X-0.262500X0.450000X0*%
%TD*%
%TA.AperFunction,ComponentPad*%
%ADD11C,6.400000*%
%TD*%
%TA.AperFunction,SMDPad,CuDef*%
%ADD12RoundRect,0.250000X1.950000X1.000000X-1.950000X1.000000X-1.950000X-1.000000X1.950000X-1.000000X0*%
%TD*%
%TA.AperFunction,ComponentPad*%
%ADD13C,1.524000*%
%TD*%
%TA.AperFunction,SMDPad,CuDef*%
%ADD14RoundRect,0.250000X-0.250000X-1.500000X0.250000X-1.500000X0.250000X1.500000X-0.250000X1.500000X0*%
%TD*%
%TA.AperFunction,SMDPad,CuDef*%
%ADD15RoundRect,0.250001X-0.499999X-1.449999X0.499999X-1.449999X0.499999X1.449999X-0.499999X1.449999X0*%
%TD*%
%TA.AperFunction,SMDPad,CuDef*%
%ADD16RoundRect,0.225000X-0.225000X-0.375000X0.225000X-0.375000X0.225000X0.375000X-0.225000X0.375000X0*%
%TD*%
%TA.AperFunction,SMDPad,CuDef*%
%ADD17RoundRect,0.250000X0.550000X-1.500000X0.550000X1.500000X-0.550000X1.500000X-0.550000X-1.500000X0*%
%TD*%
%TA.AperFunction,SMDPad,CuDef*%
%ADD18RoundRect,0.250000X0.262500X0.450000X-0.262500X0.450000X-0.262500X-0.450000X0.262500X-0.450000X0*%
%TD*%
%TA.AperFunction,SMDPad,CuDef*%
%ADD19RoundRect,0.250000X1.950000X0.700000X-1.950000X0.700000X-1.950000X-0.700000X1.950000X-0.700000X0*%
%TD*%
%TA.AperFunction,SMDPad,CuDef*%
%ADD20RoundRect,0.250000X-0.250000X-0.475000X0.250000X-0.475000X0.250000X0.475000X-0.250000X0.475000X0*%
%TD*%
%TA.AperFunction,SMDPad,CuDef*%
%ADD21RoundRect,0.250000X-0.475000X0.250000X-0.475000X-0.250000X0.475000X-0.250000X0.475000X0.250000X0*%
%TD*%
%TA.AperFunction,SMDPad,CuDef*%
%ADD22RoundRect,0.150000X0.150000X0.200000X-0.150000X0.200000X-0.150000X-0.200000X0.150000X-0.200000X0*%
%TD*%
%TA.AperFunction,SMDPad,CuDef*%
%ADD23RoundRect,0.250000X-0.450000X0.262500X-0.450000X-0.262500X0.450000X-0.262500X0.450000X0.262500X0*%
%TD*%
%TA.AperFunction,SMDPad,CuDef*%
%ADD24RoundRect,0.150000X-0.587500X-0.150000X0.587500X-0.150000X0.587500X0.150000X-0.587500X0.150000X0*%
%TD*%
%TA.AperFunction,SMDPad,CuDef*%
%ADD25RoundRect,0.250000X1.500000X-0.250000X1.500000X0.250000X-1.500000X0.250000X-1.500000X-0.250000X0*%
%TD*%
%TA.AperFunction,SMDPad,CuDef*%
%ADD26RoundRect,0.250001X1.449999X-0.499999X1.449999X0.499999X-1.449999X0.499999X-1.449999X-0.499999X0*%
%TD*%
%TA.AperFunction,SMDPad,CuDef*%
%ADD27RoundRect,0.250000X0.475000X-0.250000X0.475000X0.250000X-0.475000X0.250000X-0.475000X-0.250000X0*%
%TD*%
%TA.AperFunction,SMDPad,CuDef*%
%ADD28RoundRect,0.250000X0.450000X-0.262500X0.450000X0.262500X-0.450000X0.262500X-0.450000X-0.262500X0*%
%TD*%
%TA.AperFunction,SMDPad,CuDef*%
%ADD29RoundRect,0.250000X0.250000X1.500000X-0.250000X1.500000X-0.250000X-1.500000X0.250000X-1.500000X0*%
%TD*%
%TA.AperFunction,SMDPad,CuDef*%
%ADD30RoundRect,0.250001X0.499999X1.449999X-0.499999X1.449999X-0.499999X-1.449999X0.499999X-1.449999X0*%
%TD*%
%TA.AperFunction,SMDPad,CuDef*%
%ADD31FreePoly0,270.000000*%
%TD*%
%TA.AperFunction,SMDPad,CuDef*%
%ADD32R,1.500000X1.000000*%
%TD*%
%TA.AperFunction,SMDPad,CuDef*%
%ADD33FreePoly1,270.000000*%
%TD*%
%TA.AperFunction,SMDPad,CuDef*%
%ADD34RoundRect,0.250000X0.250000X0.475000X-0.250000X0.475000X-0.250000X-0.475000X0.250000X-0.475000X0*%
%TD*%
%TA.AperFunction,SMDPad,CuDef*%
%ADD35RoundRect,0.225000X0.225000X0.375000X-0.225000X0.375000X-0.225000X-0.375000X0.225000X-0.375000X0*%
%TD*%
%TA.AperFunction,SMDPad,CuDef*%
%ADD36RoundRect,0.225000X-0.375000X0.225000X-0.375000X-0.225000X0.375000X-0.225000X0.375000X0.225000X0*%
%TD*%
%TA.AperFunction,SMDPad,CuDef*%
%ADD37R,2.000000X1.500000*%
%TD*%
%TA.AperFunction,SMDPad,CuDef*%
%ADD38R,2.000000X0.600000*%
%TD*%
%TA.AperFunction,SMDPad,CuDef*%
%ADD39RoundRect,0.150000X0.725000X0.150000X-0.725000X0.150000X-0.725000X-0.150000X0.725000X-0.150000X0*%
%TD*%
%TA.AperFunction,SMDPad,CuDef*%
%ADD40R,0.300000X1.400000*%
%TD*%
%TA.AperFunction,SMDPad,CuDef*%
%ADD41R,1.600000X1.300000*%
%TD*%
%TA.AperFunction,SMDPad,CuDef*%
%ADD42R,1.600000X2.000000*%
%TD*%
%TA.AperFunction,SMDPad,CuDef*%
%ADD43R,2.600000X4.500000*%
%TD*%
%TA.AperFunction,ViaPad*%
%ADD44C,0.800000*%
%TD*%
%TA.AperFunction,Conductor*%
%ADD45C,0.600000*%
%TD*%
%TA.AperFunction,Conductor*%
%ADD46C,0.500000*%
%TD*%
%TA.AperFunction,Conductor*%
%ADD47C,1.000000*%
%TD*%
%TA.AperFunction,Conductor*%
%ADD48C,0.300000*%
%TD*%
G04 APERTURE END LIST*
D10*
%TO.P,R3,1*%
%TO.N,Net-(L1-Pad1)*%
X84287500Y-20900000D03*
%TO.P,R3,2*%
%TO.N,Net-(C14-Pad1)*%
X86112500Y-20900000D03*
%TD*%
D11*
%TO.P,H1,1,1*%
%TO.N,Earth*%
X4000000Y-4000000D03*
%TD*%
D12*
%TO.P,C6,1*%
%TO.N,/+5V_MIC_COMP*%
X10611200Y-17150000D03*
%TO.P,C6,2*%
%TO.N,Earth*%
X3211200Y-17150000D03*
%TD*%
D13*
%TO.P,RV1,1,1*%
%TO.N,Earth*%
X83000000Y-51200000D03*
%TO.P,RV1,2,2*%
%TO.N,Net-(R1-Pad1)*%
X85000000Y-51200000D03*
%TO.P,RV1,3,3*%
%TO.N,Net-(Q1-D)*%
X87000000Y-51200000D03*
%TO.P,RV1,4,S2*%
%TO.N,Net-(J5-Pin_1)*%
X87000000Y-46200000D03*
%TO.P,RV1,5,S1*%
%TO.N,+12V*%
X83000000Y-46200000D03*
%TD*%
D14*
%TO.P,J8,1,Pin_1*%
%TO.N,AF_IN*%
X64000000Y-47050000D03*
%TO.P,J8,2,Pin_2*%
%TO.N,Earth*%
X66000000Y-47050000D03*
D15*
%TO.P,J8,MP,MountPin*%
X61650000Y-52800000D03*
X68350000Y-52800000D03*
%TD*%
D16*
%TO.P,D3,1,K*%
%TO.N,Net-(D3-K)*%
X52429000Y-10419000D03*
%TO.P,D3,2,A*%
%TO.N,Net-(D3-A)*%
X55729000Y-10419000D03*
%TD*%
D17*
%TO.P,C15,1*%
%TO.N,Net-(C14-Pad1)*%
X95989000Y-27183000D03*
%TO.P,C15,2*%
%TO.N,/SPK*%
X95989000Y-21783000D03*
%TD*%
D18*
%TO.P,R13,1*%
%TO.N,Net-(J4-PadR)*%
X21412700Y-41153000D03*
%TO.P,R13,2*%
%TO.N,Net-(JP1-A)*%
X19587700Y-41153000D03*
%TD*%
D11*
%TO.P,H3,1,1*%
%TO.N,Earth*%
X4000000Y-51000000D03*
%TD*%
D19*
%TO.P,C4,1*%
%TO.N,+12V*%
X78336000Y-34295000D03*
%TO.P,C4,2*%
%TO.N,Earth*%
X69636000Y-34295000D03*
%TD*%
D20*
%TO.P,C13,1*%
%TO.N,Net-(C13-Pad1)*%
X74465000Y-21849000D03*
%TO.P,C13,2*%
%TO.N,Net-(C13-Pad2)*%
X76365000Y-21849000D03*
%TD*%
%TO.P,C8,1*%
%TO.N,TX+5V*%
X54018000Y-42499200D03*
%TO.P,C8,2*%
%TO.N,Earth*%
X55918000Y-42499200D03*
%TD*%
D21*
%TO.P,C7,1*%
%TO.N,Net-(U1-IN+)*%
X11915000Y-38110000D03*
%TO.P,C7,2*%
%TO.N,/MIC*%
X11915000Y-40010000D03*
%TD*%
D22*
%TO.P,D1,1,K*%
%TO.N,Net-(D1-K)*%
X85100000Y-17100000D03*
%TO.P,D1,2,A*%
%TO.N,Earth*%
X86500000Y-17100000D03*
%TD*%
D23*
%TO.P,R16,1*%
%TO.N,/+5V_MIC_COMP*%
X7978000Y-29445500D03*
%TO.P,R16,2*%
%TO.N,Net-(U1-GATE)*%
X7978000Y-31270500D03*
%TD*%
D21*
%TO.P,R15,1*%
%TO.N,Net-(U3B--)*%
X56009400Y-33715800D03*
%TO.P,R15,2*%
%TO.N,AGC_OUT*%
X56009400Y-35615800D03*
%TD*%
D24*
%TO.P,Q1,1,G*%
%TO.N,AGC_OUT*%
X57967500Y-37300000D03*
%TO.P,Q1,2,S*%
%TO.N,Earth*%
X57967500Y-39200000D03*
%TO.P,Q1,3,D*%
%TO.N,Net-(Q1-D)*%
X59842500Y-38250000D03*
%TD*%
D20*
%TO.P,C17,1*%
%TO.N,+5V*%
X15968800Y-11765200D03*
%TO.P,C17,2*%
%TO.N,Earth*%
X17868800Y-11765200D03*
%TD*%
D21*
%TO.P,C2,1*%
%TO.N,Earth*%
X77701000Y-41727000D03*
%TO.P,C2,2*%
%TO.N,+12V*%
X77701000Y-43627000D03*
%TD*%
D11*
%TO.P,H2,1,1*%
%TO.N,Earth*%
X96000000Y-4000000D03*
%TD*%
D25*
%TO.P,J5,1,Pin_1*%
%TO.N,Net-(J5-Pin_1)*%
X92150000Y-41000000D03*
%TO.P,J5,2,Pin_2*%
%TO.N,Earth*%
X92150000Y-39000000D03*
D26*
%TO.P,J5,MP,MountPin*%
X97900000Y-43350000D03*
X97900000Y-36650000D03*
%TD*%
D27*
%TO.P,R11,1*%
%TO.N,Net-(R11-Pad1)*%
X55730000Y-16896000D03*
%TO.P,R11,2*%
%TO.N,Net-(D3-A)*%
X55730000Y-14996000D03*
%TD*%
D20*
%TO.P,C18,1*%
%TO.N,Earth*%
X42908000Y-18801000D03*
%TO.P,C18,2*%
%TO.N,+5V*%
X44808000Y-18801000D03*
%TD*%
D28*
%TO.P,R5,1*%
%TO.N,TX+5V*%
X54000000Y-39162500D03*
%TO.P,R5,2*%
%TO.N,AGC_OUT*%
X54000000Y-37337500D03*
%TD*%
D29*
%TO.P,J10,1,Pin_1*%
%TO.N,Net-(D2-K)*%
X85051000Y-7935000D03*
%TO.P,J10,2,Pin_2*%
%TO.N,Earth*%
X83051000Y-7935000D03*
D30*
%TO.P,J10,MP,MountPin*%
X87401000Y-2185000D03*
X80701000Y-2185000D03*
%TD*%
D10*
%TO.P,R14,1*%
%TO.N,Net-(D5-A)*%
X16004400Y-33863200D03*
%TO.P,R14,2*%
%TO.N,TX+5V*%
X17829400Y-33863200D03*
%TD*%
D20*
%TO.P,C5,1*%
%TO.N,Earth*%
X78402000Y-21849000D03*
%TO.P,C5,2*%
%TO.N,Net-(U2-BYPASS)*%
X80302000Y-21849000D03*
%TD*%
D10*
%TO.P,R7,1*%
%TO.N,Net-(C3-Pad2)*%
X14380700Y-24516000D03*
%TO.P,R7,2*%
%TO.N,Net-(J2-Pin_1)*%
X16205700Y-24516000D03*
%TD*%
%TO.P,R2,1*%
%TO.N,/+5V_MIC_COMP*%
X10113500Y-42423000D03*
%TO.P,R2,2*%
%TO.N,/MIC*%
X11938500Y-42423000D03*
%TD*%
D31*
%TO.P,JP1,1,A*%
%TO.N,Net-(JP1-A)*%
X15000000Y-41200000D03*
D32*
%TO.P,JP1,2,C*%
%TO.N,/MIC*%
X15000000Y-42500000D03*
D33*
%TO.P,JP1,3,B*%
%TO.N,Net-(JP1-B)*%
X15000000Y-43800000D03*
%TD*%
D21*
%TO.P,R12,1*%
%TO.N,Net-(D3-K)*%
X44808000Y-14996000D03*
%TO.P,R12,2*%
%TO.N,+5V*%
X44808000Y-16896000D03*
%TD*%
D10*
%TO.P,R8,1*%
%TO.N,Earth*%
X24210500Y-12197000D03*
%TO.P,R8,2*%
%TO.N,Net-(J2-Pin_1)*%
X26035500Y-12197000D03*
%TD*%
D34*
%TO.P,C11,1*%
%TO.N,/+5V_MIC_COMP*%
X7851000Y-26675000D03*
%TO.P,C11,2*%
%TO.N,Earth*%
X5951000Y-26675000D03*
%TD*%
D21*
%TO.P,C21,1*%
%TO.N,Earth*%
X50269000Y-8519000D03*
%TO.P,C21,2*%
%TO.N,Net-(D3-K)*%
X50269000Y-10419000D03*
%TD*%
D10*
%TO.P,R6,1*%
%TO.N,Net-(D1-K)*%
X85170500Y-41026000D03*
%TO.P,R6,2*%
%TO.N,Net-(J5-Pin_1)*%
X86995500Y-41026000D03*
%TD*%
D29*
%TO.P,J2,1,Pin_1*%
%TO.N,Net-(J2-Pin_1)*%
X26000000Y-7950000D03*
%TO.P,J2,2,Pin_2*%
%TO.N,Earth*%
X24000000Y-7950000D03*
D30*
%TO.P,J2,MP,MountPin*%
X28350000Y-2200000D03*
X21650000Y-2200000D03*
%TD*%
D27*
%TO.P,C19,1*%
%TO.N,AF_IN*%
X61953000Y-42865000D03*
%TO.P,C19,2*%
%TO.N,Net-(U3A--)*%
X61953000Y-40965000D03*
%TD*%
D34*
%TO.P,C20,1*%
%TO.N,Earth*%
X56669800Y-13086000D03*
%TO.P,C20,2*%
%TO.N,Net-(U3A-+)*%
X54769800Y-13086000D03*
%TD*%
D23*
%TO.P,R10,1*%
%TO.N,+5V*%
X15979000Y-13750200D03*
%TO.P,R10,2*%
%TO.N,/+5V_MIC_COMP*%
X15979000Y-15575200D03*
%TD*%
D20*
%TO.P,C12,1*%
%TO.N,Net-(U1-AVG)*%
X13632000Y-28199000D03*
%TO.P,C12,2*%
%TO.N,Earth*%
X15532000Y-28199000D03*
%TD*%
D21*
%TO.P,R18,1*%
%TO.N,Earth*%
X47856000Y-8519000D03*
%TO.P,R18,2*%
%TO.N,Net-(D3-K)*%
X47856000Y-10419000D03*
%TD*%
D35*
%TO.P,D5,1,K*%
%TO.N,TX+5V*%
X19304400Y-36098400D03*
%TO.P,D5,2,A*%
%TO.N,Net-(D5-A)*%
X16004400Y-36098400D03*
%TD*%
D36*
%TO.P,D2,1,K*%
%TO.N,Net-(D2-K)*%
X85100000Y-11700000D03*
%TO.P,D2,2,A*%
%TO.N,Net-(D1-K)*%
X85100000Y-15000000D03*
%TD*%
D14*
%TO.P,J3,1,Pin_1*%
%TO.N,/MIC*%
X13000000Y-47050000D03*
%TO.P,J3,2,Pin_2*%
%TO.N,Earth*%
X15000000Y-47050000D03*
D15*
%TO.P,J3,MP,MountPin*%
X10650000Y-52800000D03*
X17350000Y-52800000D03*
%TD*%
D20*
%TO.P,C14,1*%
%TO.N,Net-(C14-Pad1)*%
X96055000Y-30866000D03*
%TO.P,C14,2*%
%TO.N,Earth*%
X97955000Y-30866000D03*
%TD*%
%TO.P,C3,1*%
%TO.N,Net-(U1-VOUT)*%
X10391000Y-24516000D03*
%TO.P,C3,2*%
%TO.N,Net-(C3-Pad2)*%
X12291000Y-24516000D03*
%TD*%
D21*
%TO.P,C1,1*%
%TO.N,Net-(U2--)*%
X69954000Y-25217000D03*
%TO.P,C1,2*%
%TO.N,Earth*%
X69954000Y-27117000D03*
%TD*%
D34*
%TO.P,C9,1*%
%TO.N,Net-(U1-BUFOUT)*%
X11087000Y-36073000D03*
%TO.P,C9,2*%
%TO.N,Net-(U1-VCAIN)*%
X9187000Y-36073000D03*
%TD*%
D27*
%TO.P,C10,1*%
%TO.N,Earth*%
X14074000Y-35753000D03*
%TO.P,C10,2*%
%TO.N,Net-(D5-A)*%
X14074000Y-33853000D03*
%TD*%
%TO.P,C16,1*%
%TO.N,AGC_OUT*%
X53952000Y-35626000D03*
%TO.P,C16,2*%
%TO.N,Earth*%
X53952000Y-33726000D03*
%TD*%
D29*
%TO.P,J1,1,Pin_1*%
%TO.N,+5V*%
X16000000Y-7950000D03*
%TO.P,J1,2,Pin_2*%
%TO.N,Earth*%
X14000000Y-7950000D03*
D30*
%TO.P,J1,MP,MountPin*%
X18350000Y-2200000D03*
X11650000Y-2200000D03*
%TD*%
D37*
%TO.P,J4,G*%
%TO.N,Earth*%
X28500000Y-52800000D03*
%TO.P,J4,R*%
%TO.N,Net-(J4-PadR)*%
X28500000Y-49400000D03*
%TO.P,J4,RN*%
%TO.N,unconnected-(J4-PadRN)*%
X21500000Y-43400000D03*
%TO.P,J4,S*%
%TO.N,Net-(JP1-B)*%
X21500000Y-52800000D03*
%TO.P,J4,T*%
%TO.N,Net-(JP1-A)*%
X21500000Y-45600000D03*
%TO.P,J4,TN*%
%TO.N,unconnected-(J4-PadTN)*%
X28500000Y-43900000D03*
%TD*%
D14*
%TO.P,J6,1,Pin_1*%
%TO.N,+12V*%
X74000000Y-47050000D03*
%TO.P,J6,2,Pin_2*%
%TO.N,Earth*%
X76000000Y-47050000D03*
D15*
%TO.P,J6,MP,MountPin*%
X71650000Y-52800000D03*
X78350000Y-52800000D03*
%TD*%
D28*
%TO.P,R1,1*%
%TO.N,Net-(R1-Pad1)*%
X67033000Y-27079500D03*
%TO.P,R1,2*%
%TO.N,Net-(U2--)*%
X67033000Y-25254500D03*
%TD*%
D38*
%TO.P,U2,1,GAIN*%
%TO.N,Net-(C13-Pad1)*%
X72817000Y-23881000D03*
%TO.P,U2,2,-*%
%TO.N,Net-(U2--)*%
X72817000Y-25151000D03*
%TO.P,U2,3,+*%
%TO.N,Earth*%
X72817000Y-26421000D03*
%TO.P,U2,4,GND*%
X72817000Y-27691000D03*
%TO.P,U2,5*%
%TO.N,Net-(L1-Pad1)*%
X78267000Y-27691000D03*
%TO.P,U2,6,V+*%
%TO.N,+12V*%
X78267000Y-26421000D03*
%TO.P,U2,7,BYPASS*%
%TO.N,Net-(U2-BYPASS)*%
X78267000Y-25151000D03*
%TO.P,U2,8,GAIN*%
%TO.N,Net-(C13-Pad2)*%
X78267000Y-23881000D03*
%TD*%
D28*
%TO.P,R4,1*%
%TO.N,AF_IN*%
X64000000Y-42812500D03*
%TO.P,R4,2*%
%TO.N,Net-(Q1-D)*%
X64000000Y-40987500D03*
%TD*%
D11*
%TO.P,H4,1,1*%
%TO.N,Earth*%
X96000000Y-51000000D03*
%TD*%
D21*
%TO.P,R9,1*%
%TO.N,Net-(U3A--)*%
X57889000Y-16007000D03*
%TO.P,R9,2*%
%TO.N,Net-(R11-Pad1)*%
X57889000Y-17907000D03*
%TD*%
D39*
%TO.P,U3,1*%
%TO.N,Net-(R11-Pad1)*%
X52590000Y-16896000D03*
%TO.P,U3,2,-*%
%TO.N,Net-(U3A--)*%
X52590000Y-15626000D03*
%TO.P,U3,3,+*%
%TO.N,Net-(U3A-+)*%
X52590000Y-14356000D03*
%TO.P,U3,4,V-*%
%TO.N,Earth*%
X52590000Y-13086000D03*
%TO.P,U3,5,+*%
%TO.N,Net-(D3-K)*%
X47440000Y-13086000D03*
%TO.P,U3,6,-*%
%TO.N,Net-(U3B--)*%
X47440000Y-14356000D03*
%TO.P,U3,7*%
X47440000Y-15626000D03*
%TO.P,U3,8,V+*%
%TO.N,+5V*%
X47440000Y-16896000D03*
%TD*%
D14*
%TO.P,J9,1,Pin_1*%
%TO.N,TX+5V*%
X54000000Y-47050000D03*
%TO.P,J9,2,Pin_2*%
%TO.N,Earth*%
X56000000Y-47050000D03*
D15*
%TO.P,J9,MP,MountPin*%
X51650000Y-52800000D03*
X58350000Y-52800000D03*
%TD*%
D40*
%TO.P,U1,1,GND*%
%TO.N,Earth*%
X9899000Y-33828000D03*
%TO.P,U1,2,VCAIN*%
%TO.N,Net-(U1-VCAIN)*%
X10399000Y-33828000D03*
%TO.P,U1,3,~{SD}*%
%TO.N,Net-(D5-A)*%
X10899000Y-33828000D03*
%TO.P,U1,4,BUFOUT*%
%TO.N,Net-(U1-BUFOUT)*%
X11399000Y-33828000D03*
%TO.P,U1,5,IN+*%
%TO.N,Net-(U1-IN+)*%
X11899000Y-33828000D03*
%TO.P,U1,6,AVG*%
%TO.N,Net-(U1-AVG)*%
X11899000Y-29428000D03*
%TO.P,U1,7,GATE*%
%TO.N,Net-(U1-GATE)*%
X11399000Y-29428000D03*
%TO.P,U1,8,COMP*%
%TO.N,Net-(U1-COMP)*%
X10899000Y-29428000D03*
%TO.P,U1,9,VOUT*%
%TO.N,Net-(U1-VOUT)*%
X10399000Y-29428000D03*
%TO.P,U1,10,V+*%
%TO.N,/+5V_MIC_COMP*%
X9899000Y-29428000D03*
%TD*%
D25*
%TO.P,J7,1,Pin_1*%
%TO.N,/SPK*%
X92150000Y-16000000D03*
%TO.P,J7,2,Pin_2*%
%TO.N,Earth*%
X92150000Y-14000000D03*
D26*
%TO.P,J7,MP,MountPin*%
X97900000Y-18350000D03*
X97900000Y-11650000D03*
%TD*%
D41*
%TO.P,RV2,1,1*%
%TO.N,+5V*%
X47853800Y-3454000D03*
D42*
%TO.P,RV2,2,2*%
%TO.N,Net-(U3A-+)*%
X50753800Y-4704000D03*
D41*
%TO.P,RV2,3,3*%
%TO.N,Earth*%
X47853800Y-5954000D03*
%TD*%
D10*
%TO.P,R17,1*%
%TO.N,/+5V_MIC_COMP*%
X9478500Y-26675000D03*
%TO.P,R17,2*%
%TO.N,Net-(U1-COMP)*%
X11303500Y-26675000D03*
%TD*%
D11*
%TO.P,H5,1,1*%
%TO.N,Earth*%
X50000000Y-27000000D03*
%TD*%
D43*
%TO.P,L1,1,1*%
%TO.N,Net-(L1-Pad1)*%
X82718000Y-27183000D03*
%TO.P,L1,2,2*%
%TO.N,Net-(C14-Pad1)*%
X90718000Y-27183000D03*
%TD*%
D44*
%TO.N,Earth*%
X55000000Y-53000000D03*
X1247000Y-41280000D03*
X14000000Y-53000000D03*
X14531200Y-38282800D03*
X64239000Y-9149000D03*
X98000000Y-9000000D03*
X17198200Y-39349600D03*
X85000000Y-43000000D03*
X98000000Y-15000000D03*
X82247600Y-20731400D03*
X31000000Y-46000000D03*
X52000000Y-35000000D03*
X80000000Y-46000000D03*
X82000000Y-41000000D03*
X59000000Y-35000000D03*
X80000000Y-54000000D03*
X80291800Y-47350600D03*
X72000000Y-31000000D03*
X9000000Y-2000000D03*
X89000000Y-43000000D03*
X8000000Y-39000000D03*
X77000000Y-2000000D03*
X3000000Y-27000000D03*
X98000000Y-24000000D03*
X20000000Y-22000000D03*
X11000000Y-45000000D03*
X98000000Y-34000000D03*
X59000000Y-41000000D03*
X72544800Y-21798200D03*
X64000000Y-31000000D03*
X31000000Y-53000000D03*
X7825600Y-33558400D03*
X91000000Y-2000000D03*
X70000000Y-22000000D03*
X90000000Y-53000000D03*
X80215600Y-29367400D03*
X14785200Y-31323200D03*
X9248000Y-22738000D03*
X89000000Y-39000000D03*
X2000000Y-23000000D03*
X72000000Y-43000000D03*
X84000000Y-2000000D03*
X20000000Y-27000000D03*
X71097000Y-28376800D03*
X25000000Y-2000000D03*
X89000000Y-14000000D03*
X1501000Y-35184000D03*
X98000000Y-40000000D03*
X15000000Y-2000000D03*
X75000000Y-53000000D03*
X65000000Y-53000000D03*
X88165800Y-38943200D03*
X64000000Y-35000000D03*
X52000000Y-41000000D03*
%TD*%
D45*
%TO.N,Net-(D2-K)*%
X85051000Y-7935000D02*
X85051000Y-11651000D01*
X85051000Y-11651000D02*
X85100000Y-11700000D01*
D46*
%TO.N,Net-(D3-A)*%
X55730000Y-14996000D02*
X55719800Y-14985800D01*
X55719800Y-14985800D02*
X55719800Y-10430200D01*
X55719800Y-10430200D02*
X55730000Y-10420000D01*
D45*
%TO.N,Net-(JP1-A)*%
X15000000Y-41200000D02*
X19634700Y-41200000D01*
X19634700Y-41200000D02*
X19636600Y-41201900D01*
X19636600Y-41201900D02*
X19636600Y-44286600D01*
X19636600Y-44286600D02*
X20950000Y-45600000D01*
X20950000Y-45600000D02*
X21500000Y-45600000D01*
%TO.N,Net-(J4-PadR)*%
X21414600Y-41305400D02*
X22155400Y-41305400D01*
X22155400Y-41305400D02*
X23000000Y-42150000D01*
X27161522Y-49400000D02*
X28500000Y-49400000D01*
X23000000Y-42150000D02*
X23000000Y-45238478D01*
X23000000Y-45238478D02*
X27161522Y-49400000D01*
%TO.N,Net-(U3A--)*%
X61953000Y-40965000D02*
X61953000Y-18089800D01*
X61953000Y-18089800D02*
X59870200Y-16007000D01*
X59870200Y-16007000D02*
X57889000Y-16007000D01*
%TO.N,Net-(U3B--)*%
X56009400Y-33715800D02*
X56009400Y-23881000D01*
X56009400Y-23881000D02*
X52809000Y-20680600D01*
X49278400Y-16235600D02*
X48668800Y-15626000D01*
X52809000Y-20680600D02*
X49278400Y-20680600D01*
X48668800Y-15626000D02*
X47440000Y-15626000D01*
X49278400Y-20680600D02*
X49278400Y-16235600D01*
%TO.N,Net-(U3A-+)*%
X54769800Y-13086000D02*
X54769800Y-6563200D01*
X54769800Y-6563200D02*
X52910600Y-4704000D01*
X52910600Y-4704000D02*
X50753800Y-4704000D01*
%TO.N,AGC_OUT*%
X53952000Y-35626000D02*
X55999200Y-35626000D01*
X55999200Y-35626000D02*
X56009400Y-35615800D01*
X54000000Y-37337500D02*
X54000000Y-35674000D01*
X54000000Y-35674000D02*
X53952000Y-35626000D01*
X57967500Y-37300000D02*
X54037500Y-37300000D01*
X54037500Y-37300000D02*
X54000000Y-37337500D01*
D47*
%TO.N,+5V*%
X33158000Y-5500000D02*
X41582200Y-13924200D01*
X41582200Y-13924200D02*
X44554000Y-16896000D01*
D45*
X47853800Y-3454000D02*
X41582200Y-9725600D01*
X41582200Y-9725600D02*
X41582200Y-13924200D01*
D48*
%TO.N,Net-(U3A--)*%
X52590000Y-15626000D02*
X52971000Y-16007000D01*
X52971000Y-16007000D02*
X57889000Y-16007000D01*
D47*
%TO.N,+5V*%
X16000000Y-7950000D02*
X18450000Y-5500000D01*
X18450000Y-5500000D02*
X33158000Y-5500000D01*
X44554000Y-16896000D02*
X44808000Y-16896000D01*
D45*
%TO.N,Net-(D3-K)*%
X47440000Y-13086000D02*
X47440000Y-10835000D01*
X47440000Y-10835000D02*
X47856000Y-10419000D01*
%TO.N,AF_IN*%
X61953000Y-42865000D02*
X63947500Y-42865000D01*
X63947500Y-42865000D02*
X64000000Y-42812500D01*
%TO.N,/MIC*%
X12015500Y-42500000D02*
X11938500Y-42423000D01*
X11915000Y-42399500D02*
X11938500Y-42423000D01*
X13000000Y-45997200D02*
X11938500Y-44935700D01*
X15000000Y-42500000D02*
X12015500Y-42500000D01*
X11938500Y-44935700D02*
X11938500Y-42423000D01*
X11915000Y-40010000D02*
X11915000Y-42399500D01*
X13000000Y-47050000D02*
X13000000Y-45997200D01*
%TO.N,Net-(C3-Pad2)*%
X12291000Y-24516000D02*
X14380700Y-24516000D01*
D48*
%TO.N,Net-(D1-K)*%
X85150000Y-15050000D02*
X85150000Y-41009000D01*
X85150000Y-41009000D02*
X85133000Y-41026000D01*
X85100000Y-15000000D02*
X85150000Y-15050000D01*
D45*
%TO.N,Net-(U2--)*%
X69954000Y-25217000D02*
X67033000Y-25217000D01*
X72817000Y-25151000D02*
X70020000Y-25151000D01*
X70020000Y-25151000D02*
X69954000Y-25217000D01*
D47*
%TO.N,+5V*%
X16000000Y-7950000D02*
X16000000Y-13729200D01*
D45*
X44808000Y-18801000D02*
X44808000Y-16896000D01*
X47440000Y-16896000D02*
X44808000Y-16896000D01*
D47*
X16000000Y-13729200D02*
X15979000Y-13750200D01*
D45*
%TO.N,Net-(J2-Pin_1)*%
X26062800Y-21315600D02*
X26035500Y-21288300D01*
X16205700Y-24516000D02*
X22862400Y-24516000D01*
X26000000Y-12161500D02*
X26035500Y-12197000D01*
X22862400Y-24516000D02*
X26062800Y-21315600D01*
X26035500Y-21288300D02*
X26035500Y-12197000D01*
X26000000Y-7950000D02*
X26000000Y-12161500D01*
%TO.N,Net-(JP1-B)*%
X15000000Y-43800000D02*
X16000000Y-44800000D01*
X16000000Y-44800000D02*
X16000000Y-47300000D01*
X16000000Y-47300000D02*
X21500000Y-52800000D01*
D47*
%TO.N,+12V*%
X76050000Y-29050000D02*
X78336000Y-31336000D01*
X78267000Y-26421000D02*
X76304000Y-26421000D01*
X83000000Y-46200000D02*
X83000000Y-44420000D01*
X74000000Y-42000000D02*
X78336000Y-37664000D01*
X82273000Y-43693000D02*
X74000000Y-43693000D01*
X76304000Y-26421000D02*
X76050000Y-26675000D01*
X74000000Y-43693000D02*
X74000000Y-42000000D01*
X78336000Y-31336000D02*
X78336000Y-34295000D01*
X78336000Y-37664000D02*
X78336000Y-34295000D01*
X76050000Y-26675000D02*
X76050000Y-29050000D01*
X83000000Y-44420000D02*
X82273000Y-43693000D01*
X74000000Y-47050000D02*
X74000000Y-43693000D01*
D48*
%TO.N,Net-(U1-VOUT)*%
X10399000Y-24524000D02*
X10391000Y-24516000D01*
X10399000Y-29428000D02*
X10399000Y-24524000D01*
D45*
%TO.N,Net-(U2-BYPASS)*%
X80302000Y-24716000D02*
X80302000Y-21849000D01*
X78267000Y-25151000D02*
X79867000Y-25151000D01*
X79867000Y-25151000D02*
X80302000Y-24716000D01*
D48*
%TO.N,/+5V_MIC_COMP*%
X9899000Y-29428000D02*
X9899000Y-28723000D01*
X7851000Y-26675000D02*
X9478500Y-26675000D01*
D45*
X16004400Y-15524400D02*
X16004400Y-15727600D01*
X10611200Y-17150000D02*
X7851000Y-19910200D01*
X6047600Y-30358000D02*
X6960100Y-29445500D01*
X16004400Y-15727600D02*
X14582000Y-17150000D01*
D48*
X9899000Y-28723000D02*
X7851000Y-26675000D01*
D45*
X10113500Y-42423000D02*
X8359000Y-42423000D01*
X7978000Y-26802000D02*
X7851000Y-26675000D01*
X6960100Y-29445500D02*
X7978000Y-29445500D01*
X7851000Y-19910200D02*
X7851000Y-26675000D01*
X6047600Y-40111600D02*
X6047600Y-30358000D01*
X8359000Y-42423000D02*
X6047600Y-40111600D01*
X7978000Y-29445500D02*
X7978000Y-26802000D01*
X14582000Y-17150000D02*
X10611200Y-17150000D01*
D48*
%TO.N,Net-(U1-IN+)*%
X11899000Y-33828000D02*
X11937000Y-33866000D01*
X11937000Y-38088000D02*
X11915000Y-38110000D01*
X11937000Y-33866000D02*
X11937000Y-38088000D01*
D45*
%TO.N,TX+5V*%
X37648000Y-39200000D02*
X34495600Y-36047600D01*
X54000000Y-47050000D02*
X54000000Y-39200000D01*
X54000000Y-39200000D02*
X37648000Y-39200000D01*
X19304400Y-35338200D02*
X17829400Y-33863200D01*
X19304400Y-36098400D02*
X19304400Y-35338200D01*
X34495600Y-36047600D02*
X34444800Y-36098400D01*
X34444800Y-36098400D02*
X19304400Y-36098400D01*
D48*
%TO.N,Net-(U1-BUFOUT)*%
X11399000Y-33828000D02*
X11399000Y-35761000D01*
X11399000Y-35761000D02*
X11087000Y-36073000D01*
%TO.N,Net-(U1-VCAIN)*%
X10399000Y-34861000D02*
X9187000Y-36073000D01*
X10399000Y-33828000D02*
X10399000Y-34861000D01*
%TO.N,Net-(D5-A)*%
X10899000Y-33828000D02*
X10899000Y-32778000D01*
X12992000Y-32771000D02*
X14074000Y-33853000D01*
X15994200Y-33853000D02*
X16004400Y-33863200D01*
X10899000Y-32778000D02*
X10906000Y-32771000D01*
X14074000Y-33853000D02*
X15994200Y-33853000D01*
D45*
X16004400Y-36098400D02*
X16004400Y-33863200D01*
D48*
X10906000Y-32771000D02*
X12992000Y-32771000D01*
%TO.N,Net-(U1-AVG)*%
X13606600Y-28173600D02*
X13632000Y-28199000D01*
X12042000Y-28173600D02*
X13606600Y-28173600D01*
X11899000Y-29428000D02*
X11899000Y-28316600D01*
X11899000Y-28316600D02*
X12042000Y-28173600D01*
D45*
%TO.N,Net-(C13-Pad1)*%
X72817000Y-23881000D02*
X73764000Y-23881000D01*
X74465000Y-23180000D02*
X74465000Y-21849000D01*
X73764000Y-23881000D02*
X74465000Y-23180000D01*
%TO.N,Net-(C13-Pad2)*%
X78267000Y-23881000D02*
X77066000Y-23881000D01*
X77066000Y-23881000D02*
X76365000Y-23180000D01*
X76365000Y-23180000D02*
X76365000Y-21849000D01*
%TO.N,Net-(C14-Pad1)*%
X90718000Y-30018000D02*
X91600000Y-30900000D01*
X91600000Y-30900000D02*
X96021000Y-30900000D01*
X96055000Y-30866000D02*
X96055000Y-27249000D01*
X96021000Y-30900000D02*
X96055000Y-30866000D01*
X86112500Y-20900000D02*
X90718000Y-25505500D01*
X96055000Y-27249000D02*
X95989000Y-27183000D01*
X90718000Y-25505500D02*
X90718000Y-27183000D01*
X90718000Y-27183000D02*
X90718000Y-30018000D01*
%TO.N,/SPK*%
X95000000Y-18460660D02*
X95989000Y-19449660D01*
X94000000Y-16000000D02*
X95000000Y-17000000D01*
X95000000Y-17000000D02*
X95000000Y-18460660D01*
X92150000Y-16000000D02*
X94000000Y-16000000D01*
X95989000Y-19449660D02*
X95989000Y-21783000D01*
D47*
%TO.N,Net-(J5-Pin_1)*%
X87000000Y-41059000D02*
X87033000Y-41026000D01*
X92150000Y-41000000D02*
X87059000Y-41000000D01*
X87000000Y-46200000D02*
X87000000Y-41059000D01*
X87059000Y-41000000D02*
X87033000Y-41026000D01*
D45*
%TO.N,Net-(L1-Pad1)*%
X82210000Y-27691000D02*
X82718000Y-27183000D01*
X84287500Y-20900000D02*
X82718000Y-22469500D01*
X82718000Y-22469500D02*
X82718000Y-27183000D01*
X78267000Y-27691000D02*
X82210000Y-27691000D01*
%TO.N,Net-(Q1-D)*%
X72460660Y-50600000D02*
X73326060Y-51465400D01*
X82591460Y-54030800D02*
X84969200Y-54030800D01*
X77539340Y-50600000D02*
X79160660Y-50600000D01*
X63072500Y-41915000D02*
X62715000Y-41915000D01*
X76673940Y-51465400D02*
X77539340Y-50600000D01*
X68700000Y-45687500D02*
X68700000Y-48509600D01*
X87000000Y-52000000D02*
X87000000Y-51200000D01*
D48*
X59842500Y-38250000D02*
X59842500Y-40428028D01*
D45*
X73326060Y-51465400D02*
X76673940Y-51465400D01*
X64000000Y-40987500D02*
X63072500Y-41915000D01*
X64000000Y-40987500D02*
X68700000Y-45687500D01*
X84969200Y-54030800D02*
X87000000Y-52000000D01*
X68700000Y-48509600D02*
X70790400Y-50600000D01*
D48*
X61329472Y-41915000D02*
X62715000Y-41915000D01*
D45*
X79160660Y-50600000D02*
X82591460Y-54030800D01*
X70790400Y-50600000D02*
X72460660Y-50600000D01*
D48*
X59842500Y-40428028D02*
X61329472Y-41915000D01*
D45*
%TO.N,Net-(R1-Pad1)*%
X69500000Y-42200000D02*
X69500000Y-48115800D01*
X79492030Y-49800000D02*
X82884630Y-53192600D01*
X66936000Y-39636000D02*
X69500000Y-42200000D01*
X84101800Y-53192600D02*
X85000000Y-52294400D01*
X77207970Y-49800000D02*
X79492030Y-49800000D01*
X76355370Y-50652600D02*
X77207970Y-49800000D01*
X73644630Y-50652600D02*
X76355370Y-50652600D01*
X82884630Y-53192600D02*
X84101800Y-53192600D01*
X71184200Y-49800000D02*
X72792030Y-49800000D01*
X66936000Y-27214000D02*
X66936000Y-39636000D01*
X72792030Y-49800000D02*
X73644630Y-50652600D01*
X85000000Y-52294400D02*
X85000000Y-51200000D01*
X67033000Y-27117000D02*
X66936000Y-27214000D01*
X69500000Y-48115800D02*
X71184200Y-49800000D01*
D48*
%TO.N,Net-(U1-GATE)*%
X11399000Y-30478000D02*
X10606500Y-31270500D01*
X11399000Y-29428000D02*
X11399000Y-30478000D01*
X10606500Y-31270500D02*
X7978000Y-31270500D01*
%TO.N,Net-(U1-COMP)*%
X10899000Y-29428000D02*
X10899000Y-28097400D01*
X11303500Y-27692900D02*
X11303500Y-26675000D01*
X10899000Y-28097400D02*
X11303500Y-27692900D01*
D45*
%TO.N,AF_IN*%
X64000000Y-42850000D02*
X64000000Y-47050000D01*
D48*
%TO.N,Net-(U3A--)*%
X57728000Y-15846000D02*
X57889000Y-16007000D01*
D45*
%TO.N,Net-(U3A-+)*%
X52590000Y-14356000D02*
X53444000Y-14356000D01*
X53444000Y-14356000D02*
X54714000Y-13086000D01*
%TO.N,Net-(D3-K)*%
X52429000Y-10419000D02*
X47856000Y-10419000D01*
X47440000Y-13086000D02*
X46718000Y-13086000D01*
X46718000Y-13086000D02*
X44808000Y-14996000D01*
D48*
%TO.N,Net-(D3-A)*%
X55730000Y-10420000D02*
X55729000Y-10419000D01*
D45*
%TO.N,Net-(R11-Pad1)*%
X52590000Y-16896000D02*
X55730000Y-16896000D01*
X56878000Y-16896000D02*
X57889000Y-17907000D01*
X55730000Y-16896000D02*
X56878000Y-16896000D01*
%TO.N,Net-(U3B--)*%
X47440000Y-14356000D02*
X47440000Y-15626000D01*
%TD*%
%TA.AperFunction,Conductor*%
%TO.N,Earth*%
G36*
X99942539Y-20185D02*
G01*
X99988294Y-72989D01*
X99999500Y-124500D01*
X99999500Y-54875500D01*
X99979815Y-54942539D01*
X99927011Y-54988294D01*
X99875500Y-54999500D01*
X124500Y-54999500D01*
X57461Y-54979815D01*
X11706Y-54927011D01*
X500Y-54875500D01*
X500Y-30376975D01*
X5492248Y-30376975D01*
X5495297Y-30394656D01*
X5497100Y-30415724D01*
X5497100Y-40102202D01*
X5494838Y-40168429D01*
X5505315Y-40211419D01*
X5506501Y-40217661D01*
X5512529Y-40261520D01*
X5519679Y-40277979D01*
X5526418Y-40298019D01*
X5530667Y-40315452D01*
X5547536Y-40345455D01*
X5552363Y-40354039D01*
X5555182Y-40359715D01*
X5569403Y-40392454D01*
X5572821Y-40400322D01*
X5584141Y-40414236D01*
X5596039Y-40431717D01*
X5604834Y-40447360D01*
X5604836Y-40447361D01*
X5636132Y-40478657D01*
X5640383Y-40483366D01*
X5668322Y-40517708D01*
X5682981Y-40528055D01*
X5699152Y-40541677D01*
X7963079Y-42805603D01*
X8008320Y-42854044D01*
X8034578Y-42870011D01*
X8046140Y-42877042D01*
X8051379Y-42880607D01*
X8086658Y-42907361D01*
X8103353Y-42913944D01*
X8122290Y-42923351D01*
X8137618Y-42932672D01*
X8180247Y-42944616D01*
X8186261Y-42946639D01*
X8192086Y-42948935D01*
X8227436Y-42962876D01*
X8245287Y-42964711D01*
X8266052Y-42968657D01*
X8283335Y-42973500D01*
X8327594Y-42973500D01*
X8333935Y-42973824D01*
X8377972Y-42978352D01*
X8395655Y-42975303D01*
X8416724Y-42973500D01*
X9268209Y-42973500D01*
X9335248Y-42993185D01*
X9381003Y-43045989D01*
X9384391Y-43054167D01*
X9407202Y-43115328D01*
X9407206Y-43115335D01*
X9493452Y-43230544D01*
X9493455Y-43230547D01*
X9608664Y-43316793D01*
X9608671Y-43316797D01*
X9648744Y-43331743D01*
X9743517Y-43367091D01*
X9803127Y-43373500D01*
X10423872Y-43373499D01*
X10483483Y-43367091D01*
X10618331Y-43316796D01*
X10733546Y-43230546D01*
X10819796Y-43115331D01*
X10870091Y-42980483D01*
X10876500Y-42920873D01*
X10876499Y-41925128D01*
X10870670Y-41870899D01*
X10870091Y-41865516D01*
X10819797Y-41730671D01*
X10819793Y-41730664D01*
X10733547Y-41615455D01*
X10733544Y-41615452D01*
X10618335Y-41529206D01*
X10618328Y-41529202D01*
X10483486Y-41478910D01*
X10483485Y-41478909D01*
X10483483Y-41478909D01*
X10423873Y-41472500D01*
X10423863Y-41472500D01*
X9803129Y-41472500D01*
X9803123Y-41472501D01*
X9743516Y-41478908D01*
X9608671Y-41529202D01*
X9608664Y-41529206D01*
X9493455Y-41615452D01*
X9493452Y-41615455D01*
X9407206Y-41730664D01*
X9407202Y-41730671D01*
X9384391Y-41791833D01*
X9342520Y-41847767D01*
X9277056Y-41872184D01*
X9268209Y-41872500D01*
X8638386Y-41872500D01*
X8571347Y-41852815D01*
X8550705Y-41836181D01*
X7022395Y-40307870D01*
X10939500Y-40307870D01*
X10939501Y-40307876D01*
X10945908Y-40367483D01*
X10996202Y-40502328D01*
X10996206Y-40502335D01*
X11082452Y-40617544D01*
X11082455Y-40617547D01*
X11197664Y-40703793D01*
X11197671Y-40703797D01*
X11283833Y-40735933D01*
X11339766Y-40777804D01*
X11364184Y-40843268D01*
X11364500Y-40852115D01*
X11364500Y-41518914D01*
X11344815Y-41585953D01*
X11323930Y-41608390D01*
X11324724Y-41609184D01*
X11318452Y-41615455D01*
X11232206Y-41730664D01*
X11232202Y-41730671D01*
X11181908Y-41865517D01*
X11176110Y-41919454D01*
X11175501Y-41925123D01*
X11175500Y-41925135D01*
X11175500Y-42920870D01*
X11175501Y-42920876D01*
X11181908Y-42980483D01*
X11232202Y-43115328D01*
X11232206Y-43115335D01*
X11318452Y-43230544D01*
X11318453Y-43230545D01*
X11318454Y-43230546D01*
X11338310Y-43245410D01*
X11380182Y-43301343D01*
X11388000Y-43344677D01*
X11388000Y-44926302D01*
X11385738Y-44992529D01*
X11396215Y-45035519D01*
X11397401Y-45041761D01*
X11403429Y-45085620D01*
X11410579Y-45102079D01*
X11417319Y-45122120D01*
X11421567Y-45139552D01*
X11443263Y-45178139D01*
X11446082Y-45183815D01*
X11457916Y-45211058D01*
X11463721Y-45224422D01*
X11475041Y-45238336D01*
X11486939Y-45255817D01*
X11495734Y-45271460D01*
X11495736Y-45271461D01*
X11527032Y-45302757D01*
X11531283Y-45307466D01*
X11559222Y-45341808D01*
X11573881Y-45352155D01*
X11590052Y-45365777D01*
X12213181Y-45988906D01*
X12246666Y-46050229D01*
X12249500Y-46076587D01*
X12249500Y-48597870D01*
X12249501Y-48597876D01*
X12255908Y-48657483D01*
X12306202Y-48792328D01*
X12306206Y-48792335D01*
X12392452Y-48907544D01*
X12392455Y-48907547D01*
X12507664Y-48993793D01*
X12507671Y-48993797D01*
X12552618Y-49010560D01*
X12642517Y-49044091D01*
X12702127Y-49050500D01*
X13297872Y-49050499D01*
X13357483Y-49044091D01*
X13492331Y-48993796D01*
X13607546Y-48907546D01*
X13693796Y-48792331D01*
X13744091Y-48657483D01*
X13750500Y-48597873D01*
X13750499Y-45502128D01*
X13744091Y-45442517D01*
X13712670Y-45358274D01*
X13693797Y-45307671D01*
X13693793Y-45307664D01*
X13607547Y-45192455D01*
X13607544Y-45192452D01*
X13492335Y-45106206D01*
X13492328Y-45106202D01*
X13357482Y-45055908D01*
X13357483Y-45055908D01*
X13297883Y-45049501D01*
X13297881Y-45049500D01*
X13297873Y-45049500D01*
X13297865Y-45049500D01*
X12882187Y-45049500D01*
X12815148Y-45029815D01*
X12794506Y-45013181D01*
X12525319Y-44743994D01*
X12491834Y-44682671D01*
X12489000Y-44656313D01*
X12489000Y-43344677D01*
X12508685Y-43277638D01*
X12538690Y-43245410D01*
X12558546Y-43230546D01*
X12644796Y-43115331D01*
X12644798Y-43115323D01*
X12644935Y-43115076D01*
X12645145Y-43114865D01*
X12650112Y-43108231D01*
X12651065Y-43108944D01*
X12694339Y-43065669D01*
X12753769Y-43050500D01*
X13883181Y-43050500D01*
X13950220Y-43070185D01*
X13995975Y-43122989D01*
X14005919Y-43192147D01*
X14004799Y-43198684D01*
X14003286Y-43206289D01*
X13994591Y-43249998D01*
X13994592Y-43871887D01*
X13994592Y-43871888D01*
X14004936Y-43943840D01*
X14004939Y-43943850D01*
X14018480Y-43989966D01*
X14045445Y-44081800D01*
X14054063Y-44100670D01*
X14075644Y-44147927D01*
X14075646Y-44147932D01*
X14092122Y-44173568D01*
X14147755Y-44260135D01*
X14153372Y-44268874D01*
X14153379Y-44268885D01*
X14200980Y-44323821D01*
X14200981Y-44323822D01*
X14309633Y-44417969D01*
X14309640Y-44417974D01*
X14309645Y-44417978D01*
X14349358Y-44443500D01*
X14370794Y-44457276D01*
X14370810Y-44457285D01*
X14501577Y-44517004D01*
X14501584Y-44517007D01*
X14571336Y-44537488D01*
X14571337Y-44537488D01*
X14571340Y-44537489D01*
X14613775Y-44543589D01*
X14713651Y-44557950D01*
X14713652Y-44557950D01*
X14786345Y-44557950D01*
X14786348Y-44557950D01*
X14792920Y-44557005D01*
X14795252Y-44556670D01*
X14812897Y-44555408D01*
X14925521Y-44555408D01*
X14992560Y-44575093D01*
X15013202Y-44591727D01*
X15413181Y-44991706D01*
X15446666Y-45053029D01*
X15449500Y-45079387D01*
X15449500Y-47290602D01*
X15447238Y-47356829D01*
X15457715Y-47399819D01*
X15458901Y-47406061D01*
X15464929Y-47449920D01*
X15472079Y-47466379D01*
X15478819Y-47486420D01*
X15483067Y-47503852D01*
X15504763Y-47542439D01*
X15507582Y-47548115D01*
X15525220Y-47588720D01*
X15525221Y-47588722D01*
X15536541Y-47602636D01*
X15548439Y-47620117D01*
X15557234Y-47635760D01*
X15557236Y-47635761D01*
X15588532Y-47667057D01*
X15592783Y-47671766D01*
X15620722Y-47706108D01*
X15635381Y-47716455D01*
X15651552Y-47730077D01*
X20213181Y-52291706D01*
X20246666Y-52353029D01*
X20249500Y-52379387D01*
X20249500Y-53574678D01*
X20264032Y-53647735D01*
X20264033Y-53647739D01*
X20264034Y-53647740D01*
X20319399Y-53730601D01*
X20402259Y-53785965D01*
X20402260Y-53785966D01*
X20402264Y-53785967D01*
X20475321Y-53800499D01*
X20475324Y-53800500D01*
X20475326Y-53800500D01*
X22524676Y-53800500D01*
X22524677Y-53800499D01*
X22597740Y-53785966D01*
X22680601Y-53730601D01*
X22735966Y-53647740D01*
X22750500Y-53574674D01*
X22750500Y-52450936D01*
X23995631Y-52450936D01*
X24026442Y-52652063D01*
X24026445Y-52652075D01*
X24097111Y-52842881D01*
X24097115Y-52842888D01*
X24204745Y-53015567D01*
X24204747Y-53015569D01*
X24204748Y-53015571D01*
X24344941Y-53163053D01*
X24473344Y-53252424D01*
X24511949Y-53279294D01*
X24511950Y-53279294D01*
X24511951Y-53279295D01*
X24698942Y-53359540D01*
X24898259Y-53400500D01*
X25050743Y-53400500D01*
X25202439Y-53385074D01*
X25396579Y-53324162D01*
X25396580Y-53324161D01*
X25396588Y-53324159D01*
X25574502Y-53225409D01*
X25728895Y-53092866D01*
X25853448Y-52931958D01*
X25943060Y-52749271D01*
X25994063Y-52552285D01*
X26004369Y-52349064D01*
X25973556Y-52147929D01*
X25921175Y-52006495D01*
X25902888Y-51957118D01*
X25902887Y-51957117D01*
X25902886Y-51957113D01*
X25795252Y-51784429D01*
X25655059Y-51636947D01*
X25556587Y-51568409D01*
X25488050Y-51520705D01*
X25301056Y-51440459D01*
X25101741Y-51399500D01*
X24949258Y-51399500D01*
X24949257Y-51399500D01*
X24797560Y-51414925D01*
X24603420Y-51475837D01*
X24603405Y-51475844D01*
X24425500Y-51574589D01*
X24425495Y-51574592D01*
X24271106Y-51707132D01*
X24271104Y-51707134D01*
X24146554Y-51868037D01*
X24146553Y-51868040D01*
X24056940Y-52050728D01*
X24005937Y-52247714D01*
X23995631Y-52450936D01*
X22750500Y-52450936D01*
X22750500Y-52025326D01*
X22750500Y-52025325D01*
X22750500Y-52025323D01*
X22750499Y-52025321D01*
X22735967Y-51952264D01*
X22735966Y-51952260D01*
X22734296Y-51949760D01*
X22680601Y-51869399D01*
X22621667Y-51830021D01*
X22597739Y-51814033D01*
X22597735Y-51814032D01*
X22524677Y-51799500D01*
X22524674Y-51799500D01*
X21329387Y-51799500D01*
X21262348Y-51779815D01*
X21241706Y-51763181D01*
X16586819Y-47108293D01*
X16553334Y-47046970D01*
X16550500Y-47020612D01*
X16550500Y-44809426D01*
X16552763Y-44743174D01*
X16542278Y-44700151D01*
X16541099Y-44693948D01*
X16535070Y-44650080D01*
X16527921Y-44633622D01*
X16521183Y-44613584D01*
X16516934Y-44596148D01*
X16495231Y-44557550D01*
X16492414Y-44551878D01*
X16474780Y-44511280D01*
X16463455Y-44497360D01*
X16451559Y-44479880D01*
X16442765Y-44464239D01*
X16442764Y-44464238D01*
X16420499Y-44441974D01*
X16411456Y-44432931D01*
X16407209Y-44428224D01*
X16396389Y-44414925D01*
X16379278Y-44393892D01*
X16364612Y-44383539D01*
X16348445Y-44369920D01*
X16029814Y-44051289D01*
X15996329Y-43989966D01*
X15994757Y-43945960D01*
X15995060Y-43943851D01*
X15995062Y-43943845D01*
X16005408Y-43871889D01*
X16005408Y-43250000D01*
X16005408Y-43249998D01*
X16005408Y-43249997D01*
X15985356Y-43149192D01*
X15985356Y-43100808D01*
X16000500Y-43024676D01*
X16000500Y-41975323D01*
X15985355Y-41899189D01*
X15985408Y-41850538D01*
X15985508Y-41850041D01*
X16018030Y-41788201D01*
X16078822Y-41753761D01*
X16107072Y-41750500D01*
X18759940Y-41750500D01*
X18826979Y-41770185D01*
X18872734Y-41822989D01*
X18876116Y-41831155D01*
X18879092Y-41839132D01*
X18881405Y-41845333D01*
X18881405Y-41845334D01*
X18941131Y-41925116D01*
X18967654Y-41960546D01*
X19036411Y-42012018D01*
X19078282Y-42067951D01*
X19086100Y-42111284D01*
X19086100Y-44277202D01*
X19083838Y-44343429D01*
X19094315Y-44386419D01*
X19095501Y-44392661D01*
X19101529Y-44436520D01*
X19108679Y-44452979D01*
X19115419Y-44473020D01*
X19119667Y-44490452D01*
X19141363Y-44529039D01*
X19144182Y-44534715D01*
X19161820Y-44575320D01*
X19161821Y-44575322D01*
X19173141Y-44589236D01*
X19185039Y-44606717D01*
X19193834Y-44622360D01*
X19193836Y-44622361D01*
X19225132Y-44653657D01*
X19229383Y-44658366D01*
X19257322Y-44692708D01*
X19271981Y-44703055D01*
X19288152Y-44716677D01*
X19763932Y-45192457D01*
X20213181Y-45641705D01*
X20246666Y-45703028D01*
X20249500Y-45729386D01*
X20249500Y-46374678D01*
X20264032Y-46447735D01*
X20264033Y-46447739D01*
X20264034Y-46447740D01*
X20319399Y-46530601D01*
X20402259Y-46585966D01*
X20402260Y-46585966D01*
X20402264Y-46585967D01*
X20475321Y-46600499D01*
X20475324Y-46600500D01*
X20475326Y-46600500D01*
X22524676Y-46600500D01*
X22524677Y-46600499D01*
X22597740Y-46585966D01*
X22680601Y-46530601D01*
X22735966Y-46447740D01*
X22750500Y-46374674D01*
X22750500Y-46066865D01*
X22770185Y-45999826D01*
X22822989Y-45954071D01*
X22892147Y-45944127D01*
X22955703Y-45973152D01*
X22962180Y-45979184D01*
X26765615Y-49782618D01*
X26810842Y-49831044D01*
X26848666Y-49854045D01*
X26853896Y-49857604D01*
X26889180Y-49884361D01*
X26897452Y-49887623D01*
X26905875Y-49890945D01*
X26924812Y-49900351D01*
X26940140Y-49909672D01*
X26982769Y-49921616D01*
X26988785Y-49923639D01*
X27029958Y-49939876D01*
X27047809Y-49941711D01*
X27068574Y-49945657D01*
X27085857Y-49950500D01*
X27125500Y-49950500D01*
X27192539Y-49970185D01*
X27238294Y-50022989D01*
X27249500Y-50074500D01*
X27249500Y-50174678D01*
X27264032Y-50247735D01*
X27264033Y-50247739D01*
X27264034Y-50247740D01*
X27319399Y-50330601D01*
X27402259Y-50385966D01*
X27402260Y-50385966D01*
X27402264Y-50385967D01*
X27475321Y-50400499D01*
X27475324Y-50400500D01*
X27475326Y-50400500D01*
X29524676Y-50400500D01*
X29524677Y-50400499D01*
X29597740Y-50385966D01*
X29680601Y-50330601D01*
X29735966Y-50247740D01*
X29750500Y-50174674D01*
X29750500Y-48625326D01*
X29750500Y-48625323D01*
X29750499Y-48625321D01*
X29735967Y-48552264D01*
X29735966Y-48552260D01*
X29720807Y-48529573D01*
X29680601Y-48469399D01*
X29597740Y-48414034D01*
X29597739Y-48414033D01*
X29597735Y-48414032D01*
X29524677Y-48399500D01*
X29524674Y-48399500D01*
X27475326Y-48399500D01*
X27475323Y-48399500D01*
X27402264Y-48414032D01*
X27402260Y-48414033D01*
X27319399Y-48469399D01*
X27279192Y-48529573D01*
X27225579Y-48574377D01*
X27156254Y-48583084D01*
X27093227Y-48552929D01*
X27088409Y-48548362D01*
X25135193Y-46595146D01*
X25101708Y-46533823D01*
X25106692Y-46464131D01*
X25148564Y-46408198D01*
X25197922Y-46386001D01*
X25202430Y-46385074D01*
X25202438Y-46385074D01*
X25202444Y-46385071D01*
X25202449Y-46385071D01*
X25396579Y-46324162D01*
X25396580Y-46324161D01*
X25396588Y-46324159D01*
X25574502Y-46225409D01*
X25728895Y-46092866D01*
X25853448Y-45931958D01*
X25943060Y-45749271D01*
X25994063Y-45552285D01*
X26004369Y-45349064D01*
X25973556Y-45147929D01*
X25916003Y-44992529D01*
X25902888Y-44957118D01*
X25902887Y-44957117D01*
X25902886Y-44957113D01*
X25795252Y-44784429D01*
X25690925Y-44674678D01*
X27249500Y-44674678D01*
X27264032Y-44747735D01*
X27264033Y-44747739D01*
X27264034Y-44747740D01*
X27319399Y-44830601D01*
X27402260Y-44885966D01*
X27402264Y-44885967D01*
X27475321Y-44900499D01*
X27475324Y-44900500D01*
X27475326Y-44900500D01*
X29524676Y-44900500D01*
X29524677Y-44900499D01*
X29597740Y-44885966D01*
X29680601Y-44830601D01*
X29735966Y-44747740D01*
X29750500Y-44674674D01*
X29750500Y-43125326D01*
X29750500Y-43125325D01*
X29750500Y-43125323D01*
X29750499Y-43125321D01*
X29735967Y-43052264D01*
X29735966Y-43052260D01*
X29717534Y-43024674D01*
X29680601Y-42969399D01*
X29609920Y-42922172D01*
X29597739Y-42914033D01*
X29597735Y-42914032D01*
X29524677Y-42899500D01*
X29524674Y-42899500D01*
X27475326Y-42899500D01*
X27475323Y-42899500D01*
X27402264Y-42914032D01*
X27402260Y-42914033D01*
X27319399Y-42969399D01*
X27264033Y-43052260D01*
X27264032Y-43052264D01*
X27249500Y-43125321D01*
X27249500Y-44674678D01*
X25690925Y-44674678D01*
X25655059Y-44636947D01*
X25541559Y-44557949D01*
X25488050Y-44520705D01*
X25301056Y-44440459D01*
X25101741Y-44399500D01*
X24949258Y-44399500D01*
X24949257Y-44399500D01*
X24797560Y-44414925D01*
X24603420Y-44475837D01*
X24603405Y-44475844D01*
X24425500Y-44574589D01*
X24425495Y-44574592D01*
X24271106Y-44707132D01*
X24271104Y-44707134D01*
X24146554Y-44868037D01*
X24146553Y-44868040D01*
X24056938Y-45050732D01*
X24015427Y-45211058D01*
X23979567Y-45271024D01*
X23916980Y-45302082D01*
X23847537Y-45294373D01*
X23807705Y-45267658D01*
X23586819Y-45046772D01*
X23553334Y-44985449D01*
X23550500Y-44959091D01*
X23550500Y-42159414D01*
X23552144Y-42111284D01*
X23552763Y-42093174D01*
X23546616Y-42067951D01*
X23542281Y-42050163D01*
X23541094Y-42043918D01*
X23540120Y-42036832D01*
X23535070Y-42000080D01*
X23527919Y-41983617D01*
X23521181Y-41963583D01*
X23516933Y-41946148D01*
X23495234Y-41907556D01*
X23492414Y-41901878D01*
X23490453Y-41897364D01*
X23474780Y-41861280D01*
X23474780Y-41861279D01*
X23463458Y-41847363D01*
X23451557Y-41829876D01*
X23442768Y-41814244D01*
X23442767Y-41814243D01*
X23442766Y-41814241D01*
X23411456Y-41782931D01*
X23407210Y-41778225D01*
X23394276Y-41762327D01*
X23379278Y-41743892D01*
X23364612Y-41733539D01*
X23348445Y-41719920D01*
X22551306Y-40922781D01*
X22547028Y-40918200D01*
X22506080Y-40874356D01*
X22469438Y-40852073D01*
X22468261Y-40851357D01*
X22463010Y-40847783D01*
X22427741Y-40821038D01*
X22427742Y-40821038D01*
X22411042Y-40814452D01*
X22392116Y-40805052D01*
X22376780Y-40795727D01*
X22334158Y-40783784D01*
X22328140Y-40781760D01*
X22286965Y-40765524D01*
X22286957Y-40765522D01*
X22286327Y-40765458D01*
X22285789Y-40765238D01*
X22278723Y-40763516D01*
X22278981Y-40762455D01*
X22221653Y-40739018D01*
X22181541Y-40681810D01*
X22175724Y-40655362D01*
X22169291Y-40595516D01*
X22118997Y-40460671D01*
X22118993Y-40460664D01*
X22032747Y-40345455D01*
X22032744Y-40345452D01*
X21917535Y-40259206D01*
X21917528Y-40259202D01*
X21782686Y-40208910D01*
X21782685Y-40208909D01*
X21782683Y-40208909D01*
X21723073Y-40202500D01*
X21723063Y-40202500D01*
X21102329Y-40202500D01*
X21102323Y-40202501D01*
X21042716Y-40208908D01*
X20907871Y-40259202D01*
X20907864Y-40259206D01*
X20792655Y-40345452D01*
X20792652Y-40345455D01*
X20706406Y-40460664D01*
X20706402Y-40460671D01*
X20656108Y-40595517D01*
X20650339Y-40649184D01*
X20649701Y-40655123D01*
X20649700Y-40655135D01*
X20649700Y-41650870D01*
X20649701Y-41650876D01*
X20656108Y-41710483D01*
X20706402Y-41845328D01*
X20706406Y-41845335D01*
X20792652Y-41960544D01*
X20792655Y-41960547D01*
X20907864Y-42046793D01*
X20907871Y-42046797D01*
X20916896Y-42050163D01*
X21042717Y-42097091D01*
X21102327Y-42103500D01*
X21723072Y-42103499D01*
X21782683Y-42097091D01*
X21917531Y-42046796D01*
X21946317Y-42025246D01*
X22011776Y-42000829D01*
X22080050Y-42015679D01*
X22108307Y-42036832D01*
X22259294Y-42187819D01*
X22292779Y-42249142D01*
X22287795Y-42318834D01*
X22245923Y-42374767D01*
X22180459Y-42399184D01*
X22171613Y-42399500D01*
X20475323Y-42399500D01*
X20402264Y-42414032D01*
X20402257Y-42414035D01*
X20379989Y-42428914D01*
X20313311Y-42449791D01*
X20245932Y-42431305D01*
X20199242Y-42379326D01*
X20187100Y-42325811D01*
X20187100Y-42029397D01*
X20206785Y-41962358D01*
X20211833Y-41955086D01*
X20212056Y-41954788D01*
X20293996Y-41845331D01*
X20344291Y-41710483D01*
X20350700Y-41650873D01*
X20350699Y-40655128D01*
X20344291Y-40595517D01*
X20342623Y-40591046D01*
X20293997Y-40460671D01*
X20293993Y-40460664D01*
X20207747Y-40345455D01*
X20207744Y-40345452D01*
X20092535Y-40259206D01*
X20092528Y-40259202D01*
X19957686Y-40208910D01*
X19957685Y-40208909D01*
X19957683Y-40208909D01*
X19898073Y-40202500D01*
X19898063Y-40202500D01*
X19277329Y-40202500D01*
X19277323Y-40202501D01*
X19217716Y-40208908D01*
X19082871Y-40259202D01*
X19082864Y-40259206D01*
X18967655Y-40345452D01*
X18967652Y-40345455D01*
X18881406Y-40460664D01*
X18881402Y-40460671D01*
X18841061Y-40568833D01*
X18799190Y-40624767D01*
X18733726Y-40649184D01*
X18724879Y-40649500D01*
X15814479Y-40649500D01*
X15747440Y-40629815D01*
X15733277Y-40619213D01*
X15690366Y-40582030D01*
X15690357Y-40582024D01*
X15690355Y-40582022D01*
X15669832Y-40568833D01*
X15629205Y-40542723D01*
X15629189Y-40542714D01*
X15498422Y-40482995D01*
X15498417Y-40482993D01*
X15498416Y-40482993D01*
X15467175Y-40473819D01*
X15428665Y-40462512D01*
X15428659Y-40462510D01*
X15300708Y-40444114D01*
X15286349Y-40442050D01*
X15213652Y-40442050D01*
X15213648Y-40442050D01*
X15204748Y-40443330D01*
X15187103Y-40444592D01*
X14812897Y-40444592D01*
X14795252Y-40443330D01*
X14786351Y-40442050D01*
X14786348Y-40442050D01*
X14713651Y-40442050D01*
X14571340Y-40462510D01*
X14571334Y-40462512D01*
X14501577Y-40482995D01*
X14370810Y-40542714D01*
X14370794Y-40542723D01*
X14309649Y-40582019D01*
X14309633Y-40582030D01*
X14200981Y-40676177D01*
X14200980Y-40676178D01*
X14153379Y-40731114D01*
X14153372Y-40731125D01*
X14075646Y-40852067D01*
X14075644Y-40852072D01*
X14045445Y-40918200D01*
X14004939Y-41056149D01*
X14004936Y-41056159D01*
X13994592Y-41128111D01*
X13994592Y-41128112D01*
X13994591Y-41750001D01*
X14004798Y-41801307D01*
X13998571Y-41870899D01*
X13955709Y-41926077D01*
X13889819Y-41949322D01*
X13883181Y-41949500D01*
X12812510Y-41949500D01*
X12745471Y-41929815D01*
X12699716Y-41877011D01*
X12696328Y-41868833D01*
X12644797Y-41730671D01*
X12644793Y-41730664D01*
X12558548Y-41615457D01*
X12558546Y-41615454D01*
X12558544Y-41615452D01*
X12558542Y-41615450D01*
X12515188Y-41582995D01*
X12473317Y-41527061D01*
X12465500Y-41483729D01*
X12465500Y-40852115D01*
X12485185Y-40785076D01*
X12537989Y-40739321D01*
X12546167Y-40735933D01*
X12559074Y-40731119D01*
X12632331Y-40703796D01*
X12747546Y-40617546D01*
X12833796Y-40502331D01*
X12884091Y-40367483D01*
X12890500Y-40307873D01*
X12890499Y-39712128D01*
X12884091Y-39652517D01*
X12876081Y-39631042D01*
X12833797Y-39517671D01*
X12833793Y-39517664D01*
X12747547Y-39402455D01*
X12747544Y-39402452D01*
X12632335Y-39316206D01*
X12632328Y-39316202D01*
X12497482Y-39265908D01*
X12497483Y-39265908D01*
X12437883Y-39259501D01*
X12437881Y-39259500D01*
X12437873Y-39259500D01*
X12437864Y-39259500D01*
X11392129Y-39259500D01*
X11392123Y-39259501D01*
X11332516Y-39265908D01*
X11197671Y-39316202D01*
X11197664Y-39316206D01*
X11082455Y-39402452D01*
X11082452Y-39402455D01*
X10996206Y-39517664D01*
X10996202Y-39517671D01*
X10945910Y-39652513D01*
X10945909Y-39652517D01*
X10939500Y-39712127D01*
X10939500Y-39712134D01*
X10939500Y-39712135D01*
X10939500Y-40307870D01*
X7022395Y-40307870D01*
X6634419Y-39919894D01*
X6600934Y-39858571D01*
X6598100Y-39832213D01*
X6598100Y-36595870D01*
X8436500Y-36595870D01*
X8436501Y-36595876D01*
X8442908Y-36655483D01*
X8493202Y-36790328D01*
X8493206Y-36790335D01*
X8579452Y-36905544D01*
X8579455Y-36905547D01*
X8694664Y-36991793D01*
X8694671Y-36991797D01*
X8737498Y-37007770D01*
X8829517Y-37042091D01*
X8889127Y-37048500D01*
X9484872Y-37048499D01*
X9544483Y-37042091D01*
X9679331Y-36991796D01*
X9794546Y-36905546D01*
X9880796Y-36790331D01*
X9931091Y-36655483D01*
X9937500Y-36595873D01*
X9937499Y-35940253D01*
X9957183Y-35873215D01*
X9973813Y-35852578D01*
X10124821Y-35701570D01*
X10186142Y-35668087D01*
X10255834Y-35673071D01*
X10311767Y-35714943D01*
X10336184Y-35780407D01*
X10336500Y-35789253D01*
X10336500Y-36595870D01*
X10336501Y-36595876D01*
X10342908Y-36655483D01*
X10393202Y-36790328D01*
X10393206Y-36790335D01*
X10479452Y-36905544D01*
X10479455Y-36905547D01*
X10594664Y-36991793D01*
X10594671Y-36991797D01*
X10637498Y-37007770D01*
X10729517Y-37042091D01*
X10789127Y-37048500D01*
X11384872Y-37048499D01*
X11399242Y-37046954D01*
X11468001Y-37059357D01*
X11519140Y-37106966D01*
X11536500Y-37170243D01*
X11536500Y-37235500D01*
X11516815Y-37302539D01*
X11464011Y-37348294D01*
X11412505Y-37359500D01*
X11392132Y-37359500D01*
X11392123Y-37359501D01*
X11332516Y-37365908D01*
X11197671Y-37416202D01*
X11197664Y-37416206D01*
X11082455Y-37502452D01*
X11082452Y-37502455D01*
X10996206Y-37617664D01*
X10996202Y-37617671D01*
X10946203Y-37751728D01*
X10945909Y-37752517D01*
X10939500Y-37812127D01*
X10939500Y-37812134D01*
X10939500Y-37812135D01*
X10939500Y-38407870D01*
X10939501Y-38407876D01*
X10945908Y-38467483D01*
X10996202Y-38602328D01*
X10996206Y-38602335D01*
X11082452Y-38717544D01*
X11082455Y-38717547D01*
X11197664Y-38803793D01*
X11197671Y-38803797D01*
X11332517Y-38854091D01*
X11332516Y-38854091D01*
X11339444Y-38854835D01*
X11392127Y-38860500D01*
X12437872Y-38860499D01*
X12497483Y-38854091D01*
X12632331Y-38803796D01*
X12747546Y-38717546D01*
X12833796Y-38602331D01*
X12884091Y-38467483D01*
X12890500Y-38407873D01*
X12890499Y-37812128D01*
X12884091Y-37752517D01*
X12881121Y-37744555D01*
X12833797Y-37617671D01*
X12833793Y-37617664D01*
X12747547Y-37502455D01*
X12747544Y-37502452D01*
X12632335Y-37416206D01*
X12632328Y-37416202D01*
X12497482Y-37365908D01*
X12497483Y-37365908D01*
X12448245Y-37360615D01*
X12383694Y-37333877D01*
X12343845Y-37276485D01*
X12337500Y-37237326D01*
X12337500Y-33809816D01*
X12337499Y-33809814D01*
X12337500Y-33802567D01*
X12330653Y-33781494D01*
X12326111Y-33762578D01*
X12322646Y-33740696D01*
X12313015Y-33721794D01*
X12299500Y-33665499D01*
X12299500Y-33295500D01*
X12319185Y-33228461D01*
X12371989Y-33182706D01*
X12423500Y-33171500D01*
X12774745Y-33171500D01*
X12841784Y-33191185D01*
X12862426Y-33207819D01*
X13067348Y-33412741D01*
X13100833Y-33474064D01*
X13102956Y-33513673D01*
X13098500Y-33555127D01*
X13098500Y-33555132D01*
X13098500Y-33555133D01*
X13098500Y-34150870D01*
X13098501Y-34150876D01*
X13104908Y-34210483D01*
X13155202Y-34345328D01*
X13155206Y-34345335D01*
X13241452Y-34460544D01*
X13241455Y-34460547D01*
X13356664Y-34546793D01*
X13356671Y-34546797D01*
X13491517Y-34597091D01*
X13491516Y-34597091D01*
X13498444Y-34597835D01*
X13551127Y-34603500D01*
X14596872Y-34603499D01*
X14656483Y-34597091D01*
X14791331Y-34546796D01*
X14906546Y-34460546D01*
X14992796Y-34345331D01*
X14996960Y-34334165D01*
X15038829Y-34278234D01*
X15104293Y-34253816D01*
X15113141Y-34253500D01*
X15118452Y-34253500D01*
X15185491Y-34273185D01*
X15231246Y-34325989D01*
X15241742Y-34364246D01*
X15247809Y-34420683D01*
X15298102Y-34555528D01*
X15298106Y-34555535D01*
X15384352Y-34670744D01*
X15384353Y-34670745D01*
X15384354Y-34670746D01*
X15404210Y-34685610D01*
X15446082Y-34741543D01*
X15453900Y-34784877D01*
X15453900Y-35323490D01*
X15434215Y-35390529D01*
X15429167Y-35397800D01*
X15357774Y-35493169D01*
X15357772Y-35493173D01*
X15357772Y-35493174D01*
X15336529Y-35550127D01*
X15309987Y-35621289D01*
X15303900Y-35677898D01*
X15303900Y-36518881D01*
X15303901Y-36518890D01*
X15309987Y-36575514D01*
X15330760Y-36631206D01*
X15357772Y-36703626D01*
X15439713Y-36813087D01*
X15549174Y-36895028D01*
X15677286Y-36942812D01*
X15733915Y-36948900D01*
X16274884Y-36948899D01*
X16331514Y-36942812D01*
X16459626Y-36895028D01*
X16569087Y-36813087D01*
X16651028Y-36703626D01*
X16698812Y-36575514D01*
X16701087Y-36554344D01*
X16704899Y-36518901D01*
X16704899Y-36518890D01*
X16704900Y-36518885D01*
X16704899Y-35677916D01*
X16698812Y-35621286D01*
X16698145Y-35619499D01*
X16672607Y-35551030D01*
X16651028Y-35493174D01*
X16651026Y-35493171D01*
X16579633Y-35397800D01*
X16555216Y-35332336D01*
X16554900Y-35323490D01*
X16554900Y-34784877D01*
X16574585Y-34717838D01*
X16604590Y-34685610D01*
X16624446Y-34670746D01*
X16710696Y-34555531D01*
X16760991Y-34420683D01*
X16767400Y-34361073D01*
X16767400Y-34361070D01*
X17066400Y-34361070D01*
X17066401Y-34361076D01*
X17072808Y-34420683D01*
X17123102Y-34555528D01*
X17123106Y-34555535D01*
X17209352Y-34670744D01*
X17209355Y-34670747D01*
X17324564Y-34756993D01*
X17324571Y-34756997D01*
X17369518Y-34773760D01*
X17459417Y-34807291D01*
X17519027Y-34813700D01*
X17950012Y-34813699D01*
X18017051Y-34833383D01*
X18037693Y-34850018D01*
X18607691Y-35420016D01*
X18641176Y-35481339D01*
X18636192Y-35551030D01*
X18609987Y-35621287D01*
X18603900Y-35677898D01*
X18603900Y-36518881D01*
X18603901Y-36518890D01*
X18609987Y-36575514D01*
X18630760Y-36631206D01*
X18657772Y-36703626D01*
X18739713Y-36813087D01*
X18849174Y-36895028D01*
X18977286Y-36942812D01*
X19033915Y-36948900D01*
X19574884Y-36948899D01*
X19631514Y-36942812D01*
X19759626Y-36895028D01*
X19869087Y-36813087D01*
X19951028Y-36703626D01*
X19951027Y-36703626D01*
X19954799Y-36698589D01*
X20010733Y-36656718D01*
X20054066Y-36648900D01*
X34267013Y-36648900D01*
X34334052Y-36668585D01*
X34354694Y-36685219D01*
X37252093Y-39582618D01*
X37297320Y-39631044D01*
X37335144Y-39654045D01*
X37340374Y-39657604D01*
X37375658Y-39684361D01*
X37383930Y-39687623D01*
X37392353Y-39690945D01*
X37411290Y-39700351D01*
X37426618Y-39709672D01*
X37469247Y-39721616D01*
X37475263Y-39723639D01*
X37516436Y-39739876D01*
X37534287Y-39741711D01*
X37555052Y-39745657D01*
X37572335Y-39750500D01*
X37616594Y-39750500D01*
X37622935Y-39750824D01*
X37666972Y-39755352D01*
X37684655Y-39752303D01*
X37705724Y-39750500D01*
X53109046Y-39750500D01*
X53176085Y-39770185D01*
X53185157Y-39777495D01*
X53185355Y-39777232D01*
X53307664Y-39868793D01*
X53307669Y-39868796D01*
X53368833Y-39891608D01*
X53424766Y-39933478D01*
X53449184Y-39998942D01*
X53449500Y-40007790D01*
X53449500Y-41576245D01*
X53429815Y-41643284D01*
X53413186Y-41663921D01*
X53410454Y-41666652D01*
X53324206Y-41781864D01*
X53324202Y-41781871D01*
X53273908Y-41916717D01*
X53267501Y-41976316D01*
X53267500Y-41976335D01*
X53267500Y-43022070D01*
X53267501Y-43022076D01*
X53273908Y-43081683D01*
X53324202Y-43216528D01*
X53324203Y-43216529D01*
X53324204Y-43216531D01*
X53399263Y-43316797D01*
X53410454Y-43331746D01*
X53413176Y-43334468D01*
X53415021Y-43337848D01*
X53415769Y-43338846D01*
X53415625Y-43338953D01*
X53446665Y-43395789D01*
X53449500Y-43422154D01*
X53449500Y-45087679D01*
X53429815Y-45154718D01*
X53399813Y-45186944D01*
X53392459Y-45192449D01*
X53392451Y-45192457D01*
X53306206Y-45307664D01*
X53306202Y-45307671D01*
X53255908Y-45442517D01*
X53249501Y-45502116D01*
X53249501Y-45502123D01*
X53249500Y-45502135D01*
X53249500Y-48597870D01*
X53249501Y-48597876D01*
X53255908Y-48657483D01*
X53306202Y-48792328D01*
X53306206Y-48792335D01*
X53392452Y-48907544D01*
X53392455Y-48907547D01*
X53507664Y-48993793D01*
X53507671Y-48993797D01*
X53552618Y-49010560D01*
X53642517Y-49044091D01*
X53702127Y-49050500D01*
X54297872Y-49050499D01*
X54357483Y-49044091D01*
X54492331Y-48993796D01*
X54607546Y-48907546D01*
X54693796Y-48792331D01*
X54744091Y-48657483D01*
X54750500Y-48597873D01*
X54750499Y-45502128D01*
X54744091Y-45442517D01*
X54712670Y-45358274D01*
X54693797Y-45307671D01*
X54693793Y-45307664D01*
X54607548Y-45192457D01*
X54607546Y-45192454D01*
X54607542Y-45192451D01*
X54607540Y-45192449D01*
X54600187Y-45186944D01*
X54558317Y-45131009D01*
X54550500Y-45087679D01*
X54550500Y-43449994D01*
X54570185Y-43382955D01*
X54600190Y-43350727D01*
X54608272Y-43344677D01*
X54625546Y-43331746D01*
X54711796Y-43216531D01*
X54762091Y-43081683D01*
X54768500Y-43022073D01*
X54768499Y-41976328D01*
X54768499Y-41976327D01*
X54768499Y-41976322D01*
X54762091Y-41916716D01*
X54711797Y-41781871D01*
X54711793Y-41781864D01*
X54625548Y-41666657D01*
X54625546Y-41666654D01*
X54625544Y-41666652D01*
X54625542Y-41666650D01*
X54600188Y-41647670D01*
X54558317Y-41591735D01*
X54550500Y-41548404D01*
X54550500Y-40007790D01*
X54570185Y-39940751D01*
X54622989Y-39894996D01*
X54631146Y-39891616D01*
X54692331Y-39868796D01*
X54807546Y-39782546D01*
X54893796Y-39667331D01*
X54944091Y-39532483D01*
X54950500Y-39472873D01*
X54950499Y-38852128D01*
X54944091Y-38792517D01*
X54941528Y-38785646D01*
X54893797Y-38657671D01*
X54893793Y-38657664D01*
X54807547Y-38542455D01*
X54807544Y-38542452D01*
X54692335Y-38456206D01*
X54692328Y-38456202D01*
X54557482Y-38405908D01*
X54557483Y-38405908D01*
X54497883Y-38399501D01*
X54497881Y-38399500D01*
X54497873Y-38399500D01*
X54497864Y-38399500D01*
X53502129Y-38399500D01*
X53502123Y-38399501D01*
X53442516Y-38405908D01*
X53307671Y-38456202D01*
X53307664Y-38456206D01*
X53192457Y-38542451D01*
X53192451Y-38542457D01*
X53149515Y-38599812D01*
X53093581Y-38641682D01*
X53050249Y-38649500D01*
X37927387Y-38649500D01*
X37860348Y-38629815D01*
X37839706Y-38613181D01*
X36396768Y-37170243D01*
X34899645Y-35673120D01*
X34896781Y-35670052D01*
X34860792Y-35628779D01*
X34860791Y-35628778D01*
X34860786Y-35628774D01*
X34815026Y-35598761D01*
X34811566Y-35596319D01*
X34767941Y-35563238D01*
X34767942Y-35563238D01*
X34762055Y-35560917D01*
X34739542Y-35549252D01*
X34734253Y-35545783D01*
X34682078Y-35529223D01*
X34678088Y-35527805D01*
X34627162Y-35507723D01*
X34620869Y-35507076D01*
X34596046Y-35501917D01*
X34590019Y-35500004D01*
X34590020Y-35500004D01*
X34535304Y-35498134D01*
X34531081Y-35497845D01*
X34476627Y-35492247D01*
X34476625Y-35492247D01*
X34470381Y-35493324D01*
X34445102Y-35495053D01*
X34438775Y-35494837D01*
X34385593Y-35507796D01*
X34381450Y-35508657D01*
X34327502Y-35517959D01*
X34327494Y-35517962D01*
X34321772Y-35520683D01*
X34297896Y-35529168D01*
X34291751Y-35530665D01*
X34291746Y-35530667D01*
X34289402Y-35531986D01*
X34286429Y-35532764D01*
X34283854Y-35533780D01*
X34283732Y-35533470D01*
X34228628Y-35547900D01*
X20054066Y-35547900D01*
X19987027Y-35528215D01*
X19954799Y-35498211D01*
X19880489Y-35398945D01*
X19856072Y-35333480D01*
X19855828Y-35320418D01*
X19857162Y-35281374D01*
X19847190Y-35240455D01*
X19846683Y-35238374D01*
X19845496Y-35232131D01*
X19839470Y-35188282D01*
X19839470Y-35188280D01*
X19832321Y-35171822D01*
X19825580Y-35151778D01*
X19821333Y-35134348D01*
X19799638Y-35095764D01*
X19796814Y-35090078D01*
X19779180Y-35049480D01*
X19779180Y-35049479D01*
X19767858Y-35035563D01*
X19755957Y-35018076D01*
X19747168Y-35002444D01*
X19747167Y-35002443D01*
X19747166Y-35002441D01*
X19715856Y-34971131D01*
X19711610Y-34966425D01*
X19702138Y-34954783D01*
X19683678Y-34932092D01*
X19669012Y-34921739D01*
X19652845Y-34908120D01*
X18628718Y-33883993D01*
X18595233Y-33822670D01*
X18592399Y-33796312D01*
X18592399Y-33365329D01*
X18592398Y-33365323D01*
X18592397Y-33365316D01*
X18585991Y-33305717D01*
X18582180Y-33295500D01*
X18535697Y-33170871D01*
X18535693Y-33170864D01*
X18449447Y-33055655D01*
X18449444Y-33055652D01*
X18334235Y-32969406D01*
X18334228Y-32969402D01*
X18199386Y-32919110D01*
X18199385Y-32919109D01*
X18199383Y-32919109D01*
X18139773Y-32912700D01*
X18139763Y-32912700D01*
X17519029Y-32912700D01*
X17519023Y-32912701D01*
X17459416Y-32919108D01*
X17324571Y-32969402D01*
X17324564Y-32969406D01*
X17209355Y-33055652D01*
X17209352Y-33055655D01*
X17123106Y-33170864D01*
X17123102Y-33170871D01*
X17072808Y-33305717D01*
X17066901Y-33360664D01*
X17066401Y-33365323D01*
X17066400Y-33365335D01*
X17066400Y-34361070D01*
X16767400Y-34361070D01*
X16767399Y-33365328D01*
X16760991Y-33305717D01*
X16757180Y-33295500D01*
X16710697Y-33170871D01*
X16710693Y-33170864D01*
X16624447Y-33055655D01*
X16624444Y-33055652D01*
X16509235Y-32969406D01*
X16509228Y-32969402D01*
X16374386Y-32919110D01*
X16374385Y-32919109D01*
X16374383Y-32919109D01*
X16314773Y-32912700D01*
X16314763Y-32912700D01*
X15694029Y-32912700D01*
X15694023Y-32912701D01*
X15634416Y-32919108D01*
X15499571Y-32969402D01*
X15499564Y-32969406D01*
X15384355Y-33055652D01*
X15384352Y-33055655D01*
X15298106Y-33170864D01*
X15298102Y-33170871D01*
X15247808Y-33305716D01*
X15243934Y-33341756D01*
X15217196Y-33406307D01*
X15159803Y-33446155D01*
X15120645Y-33452500D01*
X15113141Y-33452500D01*
X15046102Y-33432815D01*
X15000347Y-33380011D01*
X14996969Y-33371859D01*
X14992796Y-33360669D01*
X14992793Y-33360665D01*
X14992793Y-33360664D01*
X14906547Y-33245455D01*
X14906544Y-33245452D01*
X14791335Y-33159206D01*
X14791328Y-33159202D01*
X14656482Y-33108908D01*
X14656483Y-33108908D01*
X14596883Y-33102501D01*
X14596881Y-33102500D01*
X14596873Y-33102500D01*
X14596865Y-33102500D01*
X13941255Y-33102500D01*
X13874216Y-33082815D01*
X13853574Y-33066181D01*
X13251287Y-32463893D01*
X13251256Y-32463864D01*
X13230342Y-32442950D01*
X13230341Y-32442949D01*
X13210600Y-32432890D01*
X13194014Y-32422726D01*
X13176090Y-32409704D01*
X13176091Y-32409704D01*
X13155018Y-32402857D01*
X13137045Y-32395412D01*
X13117307Y-32385355D01*
X13117304Y-32385354D01*
X13095418Y-32381887D01*
X13076507Y-32377346D01*
X13055439Y-32370501D01*
X13055434Y-32370500D01*
X13055433Y-32370500D01*
X13023519Y-32370500D01*
X10874481Y-32370500D01*
X10871948Y-32370500D01*
X10871924Y-32370501D01*
X10842564Y-32370501D01*
X10821499Y-32377346D01*
X10802582Y-32381887D01*
X10780700Y-32385352D01*
X10780695Y-32385354D01*
X10760950Y-32395414D01*
X10742986Y-32402855D01*
X10721907Y-32409705D01*
X10703984Y-32422727D01*
X10687399Y-32432890D01*
X10667664Y-32442946D01*
X10667659Y-32442949D01*
X10602329Y-32508269D01*
X10602077Y-32508528D01*
X10595959Y-32514646D01*
X10595946Y-32514661D01*
X10593516Y-32517091D01*
X10593513Y-32517094D01*
X10570950Y-32539658D01*
X10570948Y-32539660D01*
X10560891Y-32559397D01*
X10550731Y-32575977D01*
X10537706Y-32593905D01*
X10537703Y-32593910D01*
X10530854Y-32614988D01*
X10523413Y-32632952D01*
X10513354Y-32652695D01*
X10509887Y-32674582D01*
X10505347Y-32693491D01*
X10498500Y-32714567D01*
X10498500Y-32753500D01*
X10478815Y-32820539D01*
X10426011Y-32866294D01*
X10374500Y-32877500D01*
X10224323Y-32877500D01*
X10151264Y-32892032D01*
X10151260Y-32892033D01*
X10068399Y-32947399D01*
X10013033Y-33030260D01*
X10013032Y-33030264D01*
X9998500Y-33103321D01*
X9998500Y-34643744D01*
X9978815Y-34710783D01*
X9962181Y-34731425D01*
X9627257Y-35066348D01*
X9565934Y-35099833D01*
X9526325Y-35101956D01*
X9484873Y-35097500D01*
X9484863Y-35097500D01*
X8889129Y-35097500D01*
X8889123Y-35097501D01*
X8829516Y-35103908D01*
X8694671Y-35154202D01*
X8694664Y-35154206D01*
X8579455Y-35240452D01*
X8579452Y-35240455D01*
X8493206Y-35355664D01*
X8493202Y-35355671D01*
X8442908Y-35490517D01*
X8436501Y-35550116D01*
X8436500Y-35550135D01*
X8436500Y-36595870D01*
X6598100Y-36595870D01*
X6598100Y-30637386D01*
X6617785Y-30570347D01*
X6634415Y-30549709D01*
X7064812Y-30119311D01*
X7126133Y-30085828D01*
X7195824Y-30090812D01*
X7226798Y-30107725D01*
X7281492Y-30148669D01*
X7285668Y-30151795D01*
X7285671Y-30151797D01*
X7420517Y-30202091D01*
X7420516Y-30202091D01*
X7427444Y-30202835D01*
X7480127Y-30208500D01*
X8475872Y-30208499D01*
X8535483Y-30202091D01*
X8670331Y-30151796D01*
X8785546Y-30065546D01*
X8871796Y-29950331D01*
X8922091Y-29815483D01*
X8928500Y-29755873D01*
X8928499Y-29135128D01*
X8922091Y-29075517D01*
X8918624Y-29066222D01*
X8871797Y-28940671D01*
X8871793Y-28940664D01*
X8785547Y-28825455D01*
X8785544Y-28825452D01*
X8670335Y-28739206D01*
X8670328Y-28739202D01*
X8609167Y-28716391D01*
X8553233Y-28674520D01*
X8528816Y-28609056D01*
X8528500Y-28600209D01*
X8528500Y-28218254D01*
X8548185Y-28151215D01*
X8600989Y-28105460D01*
X8670147Y-28095516D01*
X8733703Y-28124541D01*
X8740181Y-28130573D01*
X9462181Y-28852573D01*
X9495666Y-28913896D01*
X9498500Y-28940254D01*
X9498500Y-30152678D01*
X9513032Y-30225735D01*
X9513033Y-30225739D01*
X9525424Y-30244284D01*
X9568399Y-30308601D01*
X9635987Y-30353761D01*
X9651260Y-30363966D01*
X9651264Y-30363967D01*
X9724321Y-30378499D01*
X9724324Y-30378500D01*
X9724326Y-30378500D01*
X10073674Y-30378500D01*
X10124811Y-30368328D01*
X10173189Y-30368328D01*
X10224326Y-30378500D01*
X10573674Y-30378500D01*
X10620189Y-30369247D01*
X10689778Y-30375473D01*
X10744956Y-30418335D01*
X10768202Y-30484224D01*
X10752136Y-30552221D01*
X10732061Y-30578545D01*
X10476926Y-30833681D01*
X10415603Y-30867166D01*
X10389245Y-30870000D01*
X8996804Y-30870000D01*
X8929765Y-30850315D01*
X8884010Y-30797511D01*
X8880621Y-30789331D01*
X8871796Y-30765669D01*
X8871793Y-30765664D01*
X8785547Y-30650455D01*
X8785544Y-30650452D01*
X8670335Y-30564206D01*
X8670328Y-30564202D01*
X8535482Y-30513908D01*
X8535483Y-30513908D01*
X8475883Y-30507501D01*
X8475881Y-30507500D01*
X8475873Y-30507500D01*
X8475864Y-30507500D01*
X7480129Y-30507500D01*
X7480123Y-30507501D01*
X7420516Y-30513908D01*
X7285671Y-30564202D01*
X7285664Y-30564206D01*
X7170455Y-30650452D01*
X7170452Y-30650455D01*
X7084206Y-30765664D01*
X7084202Y-30765671D01*
X7033910Y-30900513D01*
X7033909Y-30900517D01*
X7027500Y-30960127D01*
X7027500Y-30960134D01*
X7027500Y-30960135D01*
X7027500Y-31580870D01*
X7027501Y-31580876D01*
X7033908Y-31640483D01*
X7084202Y-31775328D01*
X7084206Y-31775335D01*
X7170452Y-31890544D01*
X7170455Y-31890547D01*
X7285664Y-31976793D01*
X7285671Y-31976797D01*
X7420517Y-32027091D01*
X7420516Y-32027091D01*
X7427444Y-32027835D01*
X7480127Y-32033500D01*
X8475872Y-32033499D01*
X8535483Y-32027091D01*
X8670331Y-31976796D01*
X8785546Y-31890546D01*
X8871796Y-31775331D01*
X8880621Y-31751668D01*
X8922492Y-31695734D01*
X8987956Y-31671316D01*
X8996804Y-31671000D01*
X10669931Y-31671000D01*
X10669933Y-31671000D01*
X10691001Y-31664154D01*
X10709917Y-31659612D01*
X10731804Y-31656146D01*
X10751544Y-31646086D01*
X10769511Y-31638644D01*
X10790590Y-31631796D01*
X10808526Y-31618763D01*
X10825088Y-31608614D01*
X10844842Y-31598550D01*
X10860334Y-31583057D01*
X10860341Y-31583052D01*
X11061658Y-31381735D01*
X11704483Y-30738909D01*
X11704482Y-30738909D01*
X11727050Y-30716342D01*
X11727051Y-30716339D01*
X11731314Y-30712077D01*
X11735392Y-30699968D01*
X11737101Y-30696613D01*
X11747271Y-30680014D01*
X11760296Y-30662090D01*
X11767140Y-30641022D01*
X11774586Y-30623045D01*
X11784646Y-30603304D01*
X11788112Y-30581415D01*
X11792652Y-30562501D01*
X11799499Y-30541433D01*
X11799499Y-30512076D01*
X11799500Y-30512051D01*
X11799500Y-30502500D01*
X11819185Y-30435461D01*
X11871989Y-30389706D01*
X11923500Y-30378500D01*
X12073676Y-30378500D01*
X12073677Y-30378499D01*
X12146740Y-30363966D01*
X12229601Y-30308601D01*
X12284966Y-30225740D01*
X12299500Y-30152674D01*
X12299500Y-28703326D01*
X12299500Y-28703325D01*
X12299500Y-28698100D01*
X12319185Y-28631061D01*
X12371989Y-28585306D01*
X12423500Y-28574100D01*
X12757501Y-28574100D01*
X12824540Y-28593785D01*
X12870295Y-28646589D01*
X12881501Y-28698100D01*
X12881501Y-28721876D01*
X12887908Y-28781483D01*
X12938202Y-28916328D01*
X12938206Y-28916335D01*
X13024452Y-29031544D01*
X13024455Y-29031547D01*
X13139664Y-29117793D01*
X13139671Y-29117797D01*
X13184618Y-29134561D01*
X13274517Y-29168091D01*
X13334127Y-29174500D01*
X13929872Y-29174499D01*
X13989483Y-29168091D01*
X14124331Y-29117796D01*
X14239546Y-29031546D01*
X14325796Y-28916331D01*
X14376091Y-28781483D01*
X14382500Y-28721873D01*
X14382499Y-27676128D01*
X14376091Y-27616517D01*
X14372805Y-27607708D01*
X14325797Y-27481671D01*
X14325793Y-27481664D01*
X14239547Y-27366455D01*
X14239544Y-27366452D01*
X14124335Y-27280206D01*
X14124328Y-27280202D01*
X13989486Y-27229910D01*
X13989485Y-27229909D01*
X13989483Y-27229909D01*
X13929873Y-27223500D01*
X13929863Y-27223500D01*
X13334129Y-27223500D01*
X13334123Y-27223501D01*
X13274516Y-27229908D01*
X13139671Y-27280202D01*
X13139664Y-27280206D01*
X13024455Y-27366452D01*
X13024452Y-27366455D01*
X12938206Y-27481664D01*
X12938202Y-27481671D01*
X12887910Y-27616513D01*
X12887909Y-27616517D01*
X12882980Y-27662357D01*
X12856244Y-27726906D01*
X12798852Y-27766754D01*
X12759692Y-27773100D01*
X12105433Y-27773100D01*
X11978567Y-27773100D01*
X11960625Y-27778928D01*
X11957491Y-27779947D01*
X11938587Y-27784485D01*
X11907063Y-27789480D01*
X11906730Y-27787379D01*
X11849745Y-27788998D01*
X11789917Y-27752909D01*
X11759099Y-27690203D01*
X11767074Y-27620790D01*
X11806975Y-27569810D01*
X11808328Y-27568797D01*
X11808331Y-27568796D01*
X11923546Y-27482546D01*
X12009796Y-27367331D01*
X12060091Y-27232483D01*
X12066500Y-27172873D01*
X12066499Y-26177128D01*
X12060091Y-26117517D01*
X12057679Y-26111051D01*
X12009797Y-25982671D01*
X12009793Y-25982664D01*
X11923547Y-25867455D01*
X11923544Y-25867452D01*
X11808335Y-25781206D01*
X11808328Y-25781202D01*
X11673486Y-25730910D01*
X11673485Y-25730909D01*
X11673483Y-25730909D01*
X11613873Y-25724500D01*
X11613863Y-25724500D01*
X10993129Y-25724500D01*
X10993123Y-25724501D01*
X10936753Y-25730561D01*
X10867994Y-25718154D01*
X10816857Y-25670543D01*
X10799500Y-25607271D01*
X10799500Y-25552157D01*
X10819185Y-25485118D01*
X10871989Y-25439363D01*
X10880144Y-25435984D01*
X10883331Y-25434796D01*
X10883334Y-25434793D01*
X10883336Y-25434793D01*
X10952356Y-25383123D01*
X10998546Y-25348546D01*
X11084796Y-25233331D01*
X11135091Y-25098483D01*
X11141500Y-25038873D01*
X11141500Y-25038870D01*
X11540500Y-25038870D01*
X11540501Y-25038876D01*
X11546908Y-25098483D01*
X11597202Y-25233328D01*
X11597206Y-25233335D01*
X11683452Y-25348544D01*
X11683455Y-25348547D01*
X11798664Y-25434793D01*
X11798671Y-25434797D01*
X11817828Y-25441942D01*
X11933517Y-25485091D01*
X11993127Y-25491500D01*
X12588872Y-25491499D01*
X12648483Y-25485091D01*
X12783331Y-25434796D01*
X12898546Y-25348546D01*
X12984796Y-25233331D01*
X13001365Y-25188908D01*
X13016934Y-25147166D01*
X13058806Y-25091233D01*
X13124270Y-25066816D01*
X13133116Y-25066500D01*
X13535409Y-25066500D01*
X13602448Y-25086185D01*
X13648203Y-25138989D01*
X13651591Y-25147167D01*
X13674402Y-25208328D01*
X13674406Y-25208335D01*
X13760652Y-25323544D01*
X13760655Y-25323547D01*
X13875864Y-25409793D01*
X13875871Y-25409797D01*
X13920818Y-25426561D01*
X14010717Y-25460091D01*
X14070327Y-25466500D01*
X14691072Y-25466499D01*
X14750683Y-25460091D01*
X14885531Y-25409796D01*
X15000746Y-25323546D01*
X15086996Y-25208331D01*
X15137291Y-25073483D01*
X15143700Y-25013873D01*
X15143699Y-24018128D01*
X15137291Y-23958517D01*
X15132553Y-23945815D01*
X15086997Y-23823671D01*
X15086993Y-23823664D01*
X15000747Y-23708455D01*
X15000744Y-23708452D01*
X14885535Y-23622206D01*
X14885528Y-23622202D01*
X14750686Y-23571910D01*
X14750685Y-23571909D01*
X14750683Y-23571909D01*
X14691073Y-23565500D01*
X14691063Y-23565500D01*
X14070329Y-23565500D01*
X14070323Y-23565501D01*
X14010716Y-23571908D01*
X13875871Y-23622202D01*
X13875864Y-23622206D01*
X13760655Y-23708452D01*
X13760652Y-23708455D01*
X13674406Y-23823664D01*
X13674402Y-23823671D01*
X13651591Y-23884833D01*
X13609720Y-23940767D01*
X13544256Y-23965184D01*
X13535409Y-23965500D01*
X13133115Y-23965500D01*
X13066076Y-23945815D01*
X13020321Y-23893011D01*
X13016933Y-23884833D01*
X12984797Y-23798671D01*
X12984793Y-23798664D01*
X12898547Y-23683455D01*
X12898544Y-23683452D01*
X12783335Y-23597206D01*
X12783328Y-23597202D01*
X12648486Y-23546910D01*
X12648485Y-23546909D01*
X12648483Y-23546909D01*
X12588873Y-23540500D01*
X12588863Y-23540500D01*
X11993129Y-23540500D01*
X11993123Y-23540501D01*
X11933516Y-23546908D01*
X11798671Y-23597202D01*
X11798664Y-23597206D01*
X11683455Y-23683452D01*
X11683452Y-23683455D01*
X11597206Y-23798664D01*
X11597202Y-23798671D01*
X11546908Y-23933517D01*
X11543504Y-23965184D01*
X11540501Y-23993123D01*
X11540500Y-23993135D01*
X11540500Y-25038870D01*
X11141500Y-25038870D01*
X11141499Y-23993128D01*
X11135091Y-23933517D01*
X11119983Y-23893011D01*
X11084797Y-23798671D01*
X11084793Y-23798664D01*
X10998547Y-23683455D01*
X10998544Y-23683452D01*
X10883335Y-23597206D01*
X10883328Y-23597202D01*
X10748486Y-23546910D01*
X10748485Y-23546909D01*
X10748483Y-23546909D01*
X10688873Y-23540500D01*
X10688863Y-23540500D01*
X10093129Y-23540500D01*
X10093123Y-23540501D01*
X10033516Y-23546908D01*
X9898671Y-23597202D01*
X9898664Y-23597206D01*
X9783455Y-23683452D01*
X9783452Y-23683455D01*
X9697206Y-23798664D01*
X9697202Y-23798671D01*
X9646908Y-23933517D01*
X9643504Y-23965184D01*
X9640501Y-23993123D01*
X9640500Y-23993135D01*
X9640500Y-25038870D01*
X9640501Y-25038876D01*
X9646908Y-25098483D01*
X9697202Y-25233328D01*
X9697206Y-25233335D01*
X9783452Y-25348544D01*
X9783455Y-25348547D01*
X9898666Y-25434794D01*
X9898666Y-25434795D01*
X9901819Y-25435971D01*
X9917831Y-25441942D01*
X9973765Y-25483812D01*
X9998184Y-25549275D01*
X9998500Y-25558125D01*
X9998500Y-25609641D01*
X9978815Y-25676680D01*
X9926011Y-25722435D01*
X9856853Y-25732379D01*
X9849916Y-25731063D01*
X9845246Y-25730561D01*
X9788873Y-25724500D01*
X9788863Y-25724500D01*
X9168129Y-25724500D01*
X9168123Y-25724501D01*
X9108516Y-25730908D01*
X8973671Y-25781202D01*
X8973664Y-25781206D01*
X8858455Y-25867452D01*
X8858452Y-25867455D01*
X8766888Y-25989769D01*
X8765606Y-25988809D01*
X8723342Y-26031068D01*
X8655068Y-26045914D01*
X8589605Y-26021493D01*
X8547741Y-25965564D01*
X8544797Y-25957671D01*
X8544793Y-25957664D01*
X8477261Y-25867454D01*
X8458546Y-25842454D01*
X8458542Y-25842451D01*
X8458540Y-25842449D01*
X8451187Y-25836944D01*
X8409317Y-25781009D01*
X8401500Y-25737679D01*
X8401500Y-20189585D01*
X8421185Y-20122546D01*
X8437814Y-20101909D01*
X9852905Y-18686817D01*
X9914228Y-18653333D01*
X9940586Y-18650499D01*
X12609071Y-18650499D01*
X12609072Y-18650499D01*
X12668683Y-18644091D01*
X12803531Y-18593796D01*
X12918746Y-18507546D01*
X13004996Y-18392331D01*
X13055291Y-18257483D01*
X13061700Y-18197873D01*
X13061700Y-17824499D01*
X13081385Y-17757461D01*
X13134189Y-17711706D01*
X13185700Y-17700500D01*
X14572603Y-17700500D01*
X14638826Y-17702762D01*
X14681832Y-17692280D01*
X14688051Y-17691098D01*
X14731920Y-17685070D01*
X14748383Y-17677918D01*
X14768416Y-17671181D01*
X14785852Y-17666933D01*
X14824465Y-17645221D01*
X14830090Y-17642427D01*
X14870720Y-17624780D01*
X14884632Y-17613460D01*
X14902123Y-17601557D01*
X14917755Y-17592768D01*
X14917753Y-17592768D01*
X14917759Y-17592766D01*
X14949059Y-17561464D01*
X14953771Y-17557211D01*
X14988108Y-17529278D01*
X14998456Y-17514616D01*
X15012074Y-17498449D01*
X16136005Y-16374517D01*
X16197328Y-16341033D01*
X16223686Y-16338199D01*
X16476871Y-16338199D01*
X16476872Y-16338199D01*
X16536483Y-16331791D01*
X16671331Y-16281496D01*
X16786546Y-16195246D01*
X16872796Y-16080031D01*
X16923091Y-15945183D01*
X16929500Y-15885573D01*
X16929499Y-15264828D01*
X16923091Y-15205217D01*
X16910070Y-15170307D01*
X16872797Y-15070371D01*
X16872793Y-15070364D01*
X16786547Y-14955155D01*
X16786544Y-14955152D01*
X16671335Y-14868906D01*
X16671328Y-14868902D01*
X16536482Y-14818608D01*
X16536483Y-14818608D01*
X16476883Y-14812201D01*
X16476881Y-14812200D01*
X16476873Y-14812200D01*
X16476864Y-14812200D01*
X15481129Y-14812200D01*
X15481123Y-14812201D01*
X15421516Y-14818608D01*
X15286671Y-14868902D01*
X15286664Y-14868906D01*
X15171455Y-14955152D01*
X15171452Y-14955155D01*
X15085206Y-15070364D01*
X15085202Y-15070371D01*
X15038736Y-15194955D01*
X15034909Y-15205217D01*
X15028500Y-15264827D01*
X15028500Y-15264834D01*
X15028500Y-15264835D01*
X15028500Y-15873612D01*
X15008815Y-15940651D01*
X14992181Y-15961293D01*
X14390294Y-16563181D01*
X14328971Y-16596666D01*
X14302613Y-16599500D01*
X13185699Y-16599500D01*
X13118660Y-16579815D01*
X13072905Y-16527011D01*
X13061699Y-16475500D01*
X13061699Y-16102129D01*
X13061698Y-16102123D01*
X13061697Y-16102116D01*
X13055291Y-16042517D01*
X13051274Y-16031748D01*
X13004997Y-15907671D01*
X13004993Y-15907664D01*
X12918747Y-15792455D01*
X12918744Y-15792452D01*
X12803535Y-15706206D01*
X12803528Y-15706202D01*
X12668682Y-15655908D01*
X12668683Y-15655908D01*
X12609083Y-15649501D01*
X12609081Y-15649500D01*
X12609073Y-15649500D01*
X12609064Y-15649500D01*
X8613329Y-15649500D01*
X8613323Y-15649501D01*
X8553716Y-15655908D01*
X8418871Y-15706202D01*
X8418864Y-15706206D01*
X8303655Y-15792452D01*
X8303652Y-15792455D01*
X8217406Y-15907664D01*
X8217402Y-15907671D01*
X8167108Y-16042517D01*
X8162468Y-16085680D01*
X8160701Y-16102123D01*
X8160700Y-16102135D01*
X8160700Y-18197870D01*
X8160701Y-18197876D01*
X8167108Y-18257483D01*
X8217402Y-18392328D01*
X8217406Y-18392335D01*
X8308968Y-18514645D01*
X8307321Y-18515877D01*
X8335195Y-18566925D01*
X8330211Y-18636617D01*
X8301710Y-18680964D01*
X7468382Y-19514292D01*
X7419957Y-19559517D01*
X7396956Y-19597339D01*
X7393384Y-19602588D01*
X7366639Y-19637858D01*
X7366636Y-19637863D01*
X7360055Y-19654552D01*
X7350653Y-19673483D01*
X7341327Y-19688819D01*
X7329385Y-19731437D01*
X7327362Y-19737455D01*
X7311122Y-19778640D01*
X7309288Y-19796484D01*
X7305342Y-19817248D01*
X7300501Y-19834528D01*
X7300500Y-19834537D01*
X7300500Y-19878794D01*
X7300175Y-19885139D01*
X7295648Y-19929170D01*
X7295648Y-19929175D01*
X7298697Y-19946856D01*
X7300500Y-19967924D01*
X7300500Y-25737679D01*
X7280815Y-25804718D01*
X7250813Y-25836944D01*
X7243459Y-25842449D01*
X7243451Y-25842457D01*
X7157206Y-25957664D01*
X7157202Y-25957671D01*
X7106908Y-26092517D01*
X7100501Y-26152116D01*
X7100500Y-26152135D01*
X7100500Y-27197870D01*
X7100501Y-27197876D01*
X7106908Y-27257483D01*
X7157202Y-27392328D01*
X7157206Y-27392335D01*
X7243452Y-27507544D01*
X7243455Y-27507547D01*
X7358663Y-27593792D01*
X7358665Y-27593793D01*
X7358669Y-27593796D01*
X7358673Y-27593797D01*
X7362924Y-27596119D01*
X7412331Y-27645523D01*
X7427500Y-27704953D01*
X7427500Y-28600209D01*
X7407815Y-28667248D01*
X7355011Y-28713003D01*
X7346833Y-28716391D01*
X7285671Y-28739202D01*
X7285664Y-28739206D01*
X7170455Y-28825452D01*
X7170454Y-28825453D01*
X7155590Y-28845310D01*
X7099657Y-28887182D01*
X7056323Y-28895000D01*
X6969497Y-28895000D01*
X6903274Y-28892738D01*
X6903273Y-28892738D01*
X6903271Y-28892738D01*
X6860270Y-28903217D01*
X6854030Y-28904402D01*
X6810179Y-28910430D01*
X6793716Y-28917581D01*
X6773675Y-28924320D01*
X6756250Y-28928566D01*
X6756243Y-28928569D01*
X6717666Y-28950259D01*
X6711979Y-28953084D01*
X6671379Y-28970720D01*
X6671376Y-28970721D01*
X6657456Y-28982046D01*
X6639986Y-28993936D01*
X6624341Y-29002733D01*
X6624340Y-29002734D01*
X6593034Y-29034039D01*
X6588321Y-29038292D01*
X6553996Y-29066217D01*
X6553991Y-29066222D01*
X6543642Y-29080883D01*
X6530023Y-29097050D01*
X5664981Y-29962093D01*
X5616557Y-30007317D01*
X5593556Y-30045139D01*
X5589984Y-30050388D01*
X5563239Y-30085658D01*
X5563236Y-30085663D01*
X5556655Y-30102352D01*
X5547254Y-30121280D01*
X5543215Y-30127922D01*
X5537927Y-30136619D01*
X5525985Y-30179237D01*
X5523962Y-30185255D01*
X5507722Y-30226440D01*
X5505888Y-30244284D01*
X5501942Y-30265048D01*
X5497101Y-30282328D01*
X5497100Y-30282337D01*
X5497100Y-30326594D01*
X5496775Y-30332935D01*
X5495727Y-30343128D01*
X5492248Y-30376970D01*
X5492248Y-30376975D01*
X500Y-30376975D01*
X500Y-14060570D01*
X15028500Y-14060570D01*
X15028501Y-14060576D01*
X15034908Y-14120183D01*
X15085202Y-14255028D01*
X15085206Y-14255035D01*
X15171452Y-14370244D01*
X15171455Y-14370247D01*
X15286664Y-14456493D01*
X15286671Y-14456497D01*
X15421517Y-14506791D01*
X15421516Y-14506791D01*
X15428444Y-14507535D01*
X15481127Y-14513200D01*
X16476872Y-14513199D01*
X16536483Y-14506791D01*
X16671331Y-14456496D01*
X16786546Y-14370246D01*
X16872796Y-14255031D01*
X16923091Y-14120183D01*
X16929500Y-14060573D01*
X16929499Y-13439828D01*
X16923091Y-13380217D01*
X16916285Y-13361970D01*
X16872797Y-13245371D01*
X16872793Y-13245364D01*
X16781232Y-13123055D01*
X16782340Y-13122225D01*
X16753333Y-13069103D01*
X16750499Y-13042754D01*
X16750499Y-8312228D01*
X16770184Y-8245190D01*
X16786818Y-8224548D01*
X18724548Y-6286819D01*
X18785871Y-6253334D01*
X18812229Y-6250500D01*
X25127756Y-6250500D01*
X25194795Y-6270185D01*
X25240550Y-6322989D01*
X25251045Y-6387752D01*
X25249500Y-6402127D01*
X25249500Y-6402133D01*
X25249500Y-6402134D01*
X25249500Y-9497870D01*
X25249501Y-9497876D01*
X25255908Y-9557483D01*
X25306202Y-9692328D01*
X25306203Y-9692329D01*
X25306204Y-9692331D01*
X25392454Y-9807546D01*
X25397678Y-9811457D01*
X25399808Y-9813051D01*
X25441681Y-9868983D01*
X25449500Y-9912320D01*
X25449500Y-11304045D01*
X25429815Y-11371084D01*
X25420746Y-11382338D01*
X25420768Y-11382355D01*
X25329206Y-11504664D01*
X25329202Y-11504671D01*
X25278908Y-11639517D01*
X25272501Y-11699116D01*
X25272501Y-11699123D01*
X25272500Y-11699135D01*
X25272500Y-12694870D01*
X25272501Y-12694876D01*
X25278908Y-12754483D01*
X25329202Y-12889328D01*
X25329206Y-12889335D01*
X25415452Y-13004544D01*
X25415453Y-13004545D01*
X25415454Y-13004546D01*
X25422283Y-13009658D01*
X25435310Y-13019410D01*
X25477182Y-13075343D01*
X25485000Y-13118677D01*
X25485000Y-21063513D01*
X25465315Y-21130552D01*
X25448681Y-21151194D01*
X22670694Y-23929181D01*
X22609371Y-23962666D01*
X22583013Y-23965500D01*
X17050991Y-23965500D01*
X16983952Y-23945815D01*
X16938197Y-23893011D01*
X16934809Y-23884833D01*
X16911997Y-23823671D01*
X16911993Y-23823664D01*
X16825747Y-23708455D01*
X16825744Y-23708452D01*
X16710535Y-23622206D01*
X16710528Y-23622202D01*
X16575686Y-23571910D01*
X16575685Y-23571909D01*
X16575683Y-23571909D01*
X16516073Y-23565500D01*
X16516063Y-23565500D01*
X15895329Y-23565500D01*
X15895323Y-23565501D01*
X15835716Y-23571908D01*
X15700871Y-23622202D01*
X15700864Y-23622206D01*
X15585655Y-23708452D01*
X15585652Y-23708455D01*
X15499406Y-23823664D01*
X15499402Y-23823671D01*
X15449108Y-23958517D01*
X15445387Y-23993135D01*
X15442701Y-24018123D01*
X15442700Y-24018135D01*
X15442700Y-25013870D01*
X15442701Y-25013876D01*
X15449108Y-25073483D01*
X15499402Y-25208328D01*
X15499406Y-25208335D01*
X15585652Y-25323544D01*
X15585655Y-25323547D01*
X15700864Y-25409793D01*
X15700871Y-25409797D01*
X15745818Y-25426561D01*
X15835717Y-25460091D01*
X15895327Y-25466500D01*
X16516072Y-25466499D01*
X16575683Y-25460091D01*
X16710531Y-25409796D01*
X16825746Y-25323546D01*
X16911996Y-25208331D01*
X16934808Y-25147167D01*
X16976680Y-25091233D01*
X17042144Y-25066816D01*
X17050991Y-25066500D01*
X22853003Y-25066500D01*
X22919226Y-25068762D01*
X22962232Y-25058280D01*
X22968451Y-25057098D01*
X23012320Y-25051070D01*
X23028783Y-25043918D01*
X23048816Y-25037181D01*
X23066252Y-25032933D01*
X23104865Y-25011221D01*
X23110490Y-25008427D01*
X23151120Y-24990780D01*
X23165032Y-24979460D01*
X23182523Y-24967557D01*
X23198159Y-24958766D01*
X23229459Y-24927464D01*
X23234171Y-24923211D01*
X23268508Y-24895278D01*
X23278856Y-24880616D01*
X23292474Y-24864449D01*
X26437282Y-21719640D01*
X26440323Y-21716800D01*
X26481621Y-21680792D01*
X26511645Y-21635014D01*
X26514078Y-21631566D01*
X26547161Y-21587942D01*
X26549478Y-21582065D01*
X26561151Y-21559537D01*
X26564617Y-21554253D01*
X26581182Y-21502057D01*
X26582584Y-21498110D01*
X26602676Y-21447164D01*
X26603322Y-21440874D01*
X26608482Y-21416044D01*
X26610396Y-21410016D01*
X26612264Y-21355310D01*
X26612553Y-21351084D01*
X26615118Y-21326135D01*
X26618152Y-21296628D01*
X26617076Y-21290389D01*
X26615345Y-21265098D01*
X26615562Y-21258774D01*
X26602597Y-21205575D01*
X26601746Y-21201482D01*
X26592440Y-21147500D01*
X26592437Y-21147494D01*
X26591811Y-21145521D01*
X26585999Y-21108009D01*
X26585999Y-13118677D01*
X26605684Y-13051639D01*
X26635690Y-13019410D01*
X26655545Y-13004547D01*
X26655546Y-13004546D01*
X26741796Y-12889331D01*
X26792091Y-12754483D01*
X26798500Y-12694873D01*
X26798499Y-11699128D01*
X26792091Y-11639517D01*
X26741796Y-11504669D01*
X26741795Y-11504668D01*
X26741793Y-11504664D01*
X26655548Y-11389457D01*
X26655546Y-11389454D01*
X26655544Y-11389452D01*
X26655542Y-11389450D01*
X26600188Y-11348012D01*
X26558318Y-11292078D01*
X26550500Y-11248746D01*
X26550500Y-9912320D01*
X26570185Y-9845281D01*
X26600192Y-9813051D01*
X26607546Y-9807546D01*
X26693796Y-9692331D01*
X26744091Y-9557483D01*
X26750500Y-9497873D01*
X26750499Y-6402128D01*
X26748954Y-6387752D01*
X26761361Y-6318993D01*
X26808973Y-6267857D01*
X26872244Y-6250500D01*
X32795770Y-6250500D01*
X32862809Y-6270185D01*
X32883451Y-6286819D01*
X40972046Y-14375413D01*
X40972047Y-14375415D01*
X43813168Y-17216536D01*
X43841669Y-17260884D01*
X43889202Y-17388328D01*
X43889206Y-17388335D01*
X43975452Y-17503544D01*
X43975455Y-17503547D01*
X44090664Y-17589793D01*
X44090671Y-17589797D01*
X44176833Y-17621933D01*
X44232766Y-17663804D01*
X44257184Y-17729268D01*
X44257500Y-17738115D01*
X44257500Y-17863679D01*
X44237815Y-17930718D01*
X44207813Y-17962944D01*
X44200459Y-17968449D01*
X44200451Y-17968457D01*
X44114206Y-18083664D01*
X44114202Y-18083671D01*
X44063908Y-18218517D01*
X44058486Y-18268954D01*
X44057501Y-18278123D01*
X44057500Y-18278135D01*
X44057500Y-19323870D01*
X44057501Y-19323876D01*
X44063908Y-19383483D01*
X44114202Y-19518328D01*
X44114206Y-19518335D01*
X44200452Y-19633544D01*
X44200455Y-19633547D01*
X44315664Y-19719793D01*
X44315671Y-19719797D01*
X44346880Y-19731437D01*
X44450517Y-19770091D01*
X44510127Y-19776500D01*
X45105872Y-19776499D01*
X45165483Y-19770091D01*
X45300331Y-19719796D01*
X45415546Y-19633546D01*
X45501796Y-19518331D01*
X45552091Y-19383483D01*
X45558500Y-19323873D01*
X45558499Y-18278128D01*
X45552091Y-18218517D01*
X45547003Y-18204876D01*
X45501797Y-18083671D01*
X45501793Y-18083664D01*
X45415548Y-17968457D01*
X45415546Y-17968454D01*
X45415542Y-17968451D01*
X45415540Y-17968449D01*
X45408187Y-17962944D01*
X45366317Y-17907009D01*
X45358500Y-17863679D01*
X45358500Y-17738115D01*
X45378185Y-17671076D01*
X45430989Y-17625321D01*
X45439167Y-17621933D01*
X45473499Y-17609128D01*
X45525331Y-17589796D01*
X45640546Y-17503546D01*
X45646051Y-17496191D01*
X45701985Y-17454319D01*
X45745320Y-17446500D01*
X47487648Y-17446500D01*
X47487660Y-17446499D01*
X48196517Y-17446499D01*
X48196518Y-17446499D01*
X48290304Y-17431646D01*
X48403342Y-17374050D01*
X48493050Y-17284342D01*
X48493415Y-17283624D01*
X48494088Y-17282911D01*
X48498783Y-17276450D01*
X48499618Y-17277056D01*
X48541388Y-17232829D01*
X48609209Y-17216033D01*
X48675344Y-17238569D01*
X48718796Y-17293284D01*
X48727900Y-17339919D01*
X48727900Y-20659661D01*
X48727755Y-20663894D01*
X48724018Y-20718517D01*
X48724019Y-20718521D01*
X48735157Y-20772127D01*
X48735877Y-20776298D01*
X48743329Y-20830518D01*
X48743330Y-20830520D01*
X48745851Y-20836324D01*
X48753519Y-20860483D01*
X48754808Y-20866685D01*
X48754809Y-20866687D01*
X48779994Y-20915293D01*
X48781812Y-20919116D01*
X48803619Y-20969319D01*
X48807605Y-20974219D01*
X48821515Y-20995424D01*
X48824429Y-21001047D01*
X48861793Y-21041054D01*
X48864576Y-21044246D01*
X48899120Y-21086706D01*
X48899122Y-21086708D01*
X48904287Y-21090353D01*
X48923404Y-21107023D01*
X48927720Y-21111644D01*
X48974479Y-21140079D01*
X48978021Y-21142402D01*
X49022751Y-21173976D01*
X49022752Y-21173976D01*
X49022753Y-21173977D01*
X49028713Y-21176095D01*
X49051623Y-21186991D01*
X49057018Y-21190272D01*
X49109744Y-21205045D01*
X49113745Y-21206315D01*
X49165344Y-21224654D01*
X49171650Y-21225085D01*
X49196654Y-21229396D01*
X49202734Y-21231100D01*
X49202735Y-21231100D01*
X49257462Y-21231100D01*
X49261695Y-21231245D01*
X49316318Y-21234981D01*
X49316318Y-21234980D01*
X49316321Y-21234981D01*
X49322515Y-21233693D01*
X49347744Y-21231100D01*
X52529613Y-21231100D01*
X52596652Y-21250785D01*
X52617294Y-21267419D01*
X55422581Y-24072705D01*
X55456066Y-24134028D01*
X55458900Y-24160386D01*
X55458900Y-32873684D01*
X55439215Y-32940723D01*
X55386411Y-32986478D01*
X55378234Y-32989866D01*
X55292069Y-33022003D01*
X55292064Y-33022006D01*
X55176855Y-33108252D01*
X55176852Y-33108255D01*
X55090606Y-33223464D01*
X55090602Y-33223471D01*
X55040310Y-33358313D01*
X55040309Y-33358317D01*
X55033900Y-33417927D01*
X55033900Y-33417934D01*
X55033900Y-33417935D01*
X55033900Y-34013670D01*
X55033901Y-34013676D01*
X55040308Y-34073283D01*
X55090602Y-34208128D01*
X55090606Y-34208135D01*
X55176852Y-34323344D01*
X55176855Y-34323347D01*
X55292064Y-34409593D01*
X55292071Y-34409597D01*
X55426917Y-34459891D01*
X55426916Y-34459891D01*
X55433009Y-34460546D01*
X55486527Y-34466300D01*
X56532272Y-34466299D01*
X56591883Y-34459891D01*
X56726731Y-34409596D01*
X56841946Y-34323346D01*
X56928196Y-34208131D01*
X56978491Y-34073283D01*
X56984900Y-34013673D01*
X56984899Y-33417928D01*
X56978491Y-33358317D01*
X56976385Y-33352671D01*
X56928197Y-33223471D01*
X56928193Y-33223464D01*
X56841947Y-33108255D01*
X56841944Y-33108252D01*
X56726735Y-33022006D01*
X56726730Y-33022003D01*
X56640566Y-32989866D01*
X56584633Y-32947994D01*
X56560216Y-32882530D01*
X56559900Y-32873684D01*
X56559900Y-23890397D01*
X56560090Y-23884833D01*
X56562162Y-23824174D01*
X56555945Y-23798664D01*
X56551683Y-23781174D01*
X56550496Y-23774931D01*
X56544470Y-23731082D01*
X56544470Y-23731080D01*
X56537321Y-23714622D01*
X56530580Y-23694578D01*
X56526333Y-23677148D01*
X56519172Y-23664413D01*
X56504639Y-23638564D01*
X56501814Y-23632876D01*
X56488651Y-23602574D01*
X56484180Y-23592280D01*
X56472854Y-23578359D01*
X56460956Y-23560877D01*
X56458397Y-23556326D01*
X56452165Y-23545241D01*
X56420872Y-23513948D01*
X56416615Y-23509231D01*
X56388678Y-23474892D01*
X56374013Y-23464540D01*
X56357841Y-23450917D01*
X53204907Y-20297982D01*
X53204906Y-20297981D01*
X53159680Y-20249556D01*
X53135956Y-20235129D01*
X53121861Y-20226557D01*
X53116610Y-20222983D01*
X53081341Y-20196238D01*
X53081342Y-20196238D01*
X53064642Y-20189652D01*
X53045716Y-20180252D01*
X53030380Y-20170927D01*
X52987758Y-20158984D01*
X52981740Y-20156960D01*
X52940565Y-20140724D01*
X52940556Y-20140722D01*
X52922716Y-20138888D01*
X52901951Y-20134942D01*
X52884669Y-20130100D01*
X52884665Y-20130100D01*
X52840406Y-20130100D01*
X52834064Y-20129775D01*
X52806427Y-20126933D01*
X52790029Y-20125248D01*
X52790024Y-20125248D01*
X52772344Y-20128297D01*
X52751276Y-20130100D01*
X49952900Y-20130100D01*
X49885861Y-20110415D01*
X49840106Y-20057611D01*
X49828900Y-20006100D01*
X49828899Y-16245026D01*
X49830489Y-16198490D01*
X49831163Y-16178774D01*
X49820678Y-16135751D01*
X49819499Y-16129548D01*
X49813470Y-16085680D01*
X49806321Y-16069222D01*
X49799583Y-16049184D01*
X49795334Y-16031748D01*
X49773631Y-15993150D01*
X49770814Y-15987478D01*
X49753180Y-15946880D01*
X49741855Y-15932960D01*
X49729959Y-15915480D01*
X49725568Y-15907671D01*
X49721989Y-15901304D01*
X49721165Y-15899839D01*
X49721164Y-15899838D01*
X49705515Y-15884190D01*
X49689856Y-15868531D01*
X49685609Y-15863824D01*
X49683954Y-15861790D01*
X49657678Y-15829492D01*
X49643012Y-15819139D01*
X49626845Y-15805520D01*
X49064706Y-15243381D01*
X49059355Y-15237652D01*
X49019480Y-15194956D01*
X49007064Y-15187405D01*
X48981661Y-15171957D01*
X48976410Y-15168383D01*
X48941141Y-15141638D01*
X48941142Y-15141638D01*
X48924442Y-15135052D01*
X48905516Y-15125652D01*
X48890180Y-15116327D01*
X48847558Y-15104384D01*
X48841540Y-15102360D01*
X48800365Y-15086124D01*
X48800356Y-15086122D01*
X48782516Y-15084288D01*
X48761751Y-15080342D01*
X48744469Y-15075500D01*
X48744465Y-15075500D01*
X48700206Y-15075500D01*
X48693864Y-15075175D01*
X48666227Y-15072333D01*
X48649829Y-15070648D01*
X48649824Y-15070648D01*
X48632144Y-15073697D01*
X48611076Y-15075500D01*
X48445966Y-15075500D01*
X48378927Y-15055815D01*
X48333172Y-15003011D01*
X48323228Y-14933853D01*
X48352253Y-14870297D01*
X48389668Y-14841017D01*
X48403342Y-14834050D01*
X48493050Y-14744342D01*
X48550646Y-14631304D01*
X48550646Y-14631302D01*
X48550647Y-14631301D01*
X48565499Y-14537524D01*
X48565500Y-14537519D01*
X48565499Y-14174482D01*
X48550646Y-14080696D01*
X48493050Y-13967658D01*
X48493046Y-13967654D01*
X48493045Y-13967652D01*
X48403347Y-13877954D01*
X48403343Y-13877951D01*
X48403342Y-13877950D01*
X48400599Y-13876552D01*
X48312147Y-13831483D01*
X48261352Y-13783509D01*
X48244557Y-13715687D01*
X48267095Y-13649553D01*
X48312145Y-13610517D01*
X48403342Y-13564050D01*
X48493050Y-13474342D01*
X48550646Y-13361304D01*
X48550646Y-13361302D01*
X48550647Y-13361301D01*
X48565499Y-13267524D01*
X48565500Y-13267519D01*
X48565499Y-12904482D01*
X48550646Y-12810696D01*
X48493050Y-12697658D01*
X48493046Y-12697654D01*
X48493045Y-12697652D01*
X48403347Y-12607954D01*
X48403344Y-12607952D01*
X48403342Y-12607950D01*
X48315388Y-12563135D01*
X48290301Y-12550352D01*
X48196524Y-12535500D01*
X48196519Y-12535500D01*
X48114500Y-12535500D01*
X48047461Y-12515815D01*
X48001706Y-12463011D01*
X47990500Y-12411500D01*
X47990500Y-11293499D01*
X48010185Y-11226460D01*
X48062989Y-11180705D01*
X48114500Y-11169499D01*
X48378871Y-11169499D01*
X48378872Y-11169499D01*
X48438483Y-11163091D01*
X48573331Y-11112796D01*
X48688546Y-11026546D01*
X48694051Y-11019191D01*
X48749985Y-10977319D01*
X48793320Y-10969500D01*
X49331680Y-10969500D01*
X49398719Y-10989185D01*
X49430948Y-11019191D01*
X49436454Y-11026546D01*
X49436457Y-11026548D01*
X49551664Y-11112793D01*
X49551671Y-11112797D01*
X49686517Y-11163091D01*
X49686516Y-11163091D01*
X49693444Y-11163835D01*
X49746127Y-11169500D01*
X50791872Y-11169499D01*
X50851483Y-11163091D01*
X50986331Y-11112796D01*
X51101546Y-11026546D01*
X51107051Y-11019191D01*
X51162985Y-10977319D01*
X51206320Y-10969500D01*
X51679334Y-10969500D01*
X51746373Y-10989185D01*
X51778601Y-11019189D01*
X51784110Y-11026548D01*
X51864313Y-11133687D01*
X51973774Y-11215628D01*
X52101886Y-11263412D01*
X52158515Y-11269500D01*
X52699484Y-11269499D01*
X52756114Y-11263412D01*
X52884226Y-11215628D01*
X52993687Y-11133687D01*
X53075628Y-11024226D01*
X53123412Y-10896114D01*
X53126041Y-10871656D01*
X53129499Y-10839501D01*
X53129498Y-10839494D01*
X53129500Y-10839485D01*
X53129499Y-9998516D01*
X53123412Y-9941886D01*
X53117736Y-9926669D01*
X53093124Y-9860682D01*
X53075628Y-9813774D01*
X52993687Y-9704313D01*
X52921037Y-9649928D01*
X52884228Y-9622373D01*
X52884226Y-9622372D01*
X52756114Y-9574588D01*
X52756112Y-9574587D01*
X52756110Y-9574587D01*
X52699493Y-9568500D01*
X52158518Y-9568500D01*
X52158509Y-9568501D01*
X52101885Y-9574587D01*
X51973773Y-9622372D01*
X51864313Y-9704313D01*
X51778601Y-9818811D01*
X51722667Y-9860682D01*
X51679334Y-9868500D01*
X51206320Y-9868500D01*
X51139281Y-9848815D01*
X51107052Y-9818809D01*
X51103282Y-9813773D01*
X51101546Y-9811454D01*
X51076288Y-9792546D01*
X50986335Y-9725206D01*
X50986328Y-9725202D01*
X50851482Y-9674908D01*
X50851483Y-9674908D01*
X50791883Y-9668501D01*
X50791881Y-9668500D01*
X50791873Y-9668500D01*
X50791864Y-9668500D01*
X49746129Y-9668500D01*
X49746123Y-9668501D01*
X49686516Y-9674908D01*
X49551671Y-9725202D01*
X49551664Y-9725206D01*
X49436457Y-9811451D01*
X49436451Y-9811457D01*
X49430948Y-9818809D01*
X49375015Y-9860681D01*
X49331680Y-9868500D01*
X48793320Y-9868500D01*
X48726281Y-9848815D01*
X48694052Y-9818809D01*
X48690282Y-9813773D01*
X48688546Y-9811454D01*
X48663288Y-9792546D01*
X48573335Y-9725206D01*
X48573328Y-9725202D01*
X48438482Y-9674908D01*
X48438483Y-9674908D01*
X48378883Y-9668501D01*
X48378881Y-9668500D01*
X48378873Y-9668500D01*
X48378864Y-9668500D01*
X47333129Y-9668500D01*
X47333123Y-9668501D01*
X47273516Y-9674908D01*
X47138671Y-9725202D01*
X47138664Y-9725206D01*
X47023455Y-9811452D01*
X47023452Y-9811455D01*
X46937206Y-9926664D01*
X46937202Y-9926671D01*
X46886910Y-10061513D01*
X46886909Y-10061517D01*
X46880500Y-10121127D01*
X46880500Y-10121134D01*
X46880500Y-10121135D01*
X46880500Y-10716870D01*
X46880501Y-10716872D01*
X46886909Y-10776483D01*
X46886910Y-10776486D01*
X46887739Y-10784195D01*
X46886810Y-10784294D01*
X46888743Y-10814127D01*
X46884648Y-10853967D01*
X46884648Y-10853975D01*
X46887697Y-10871656D01*
X46889500Y-10892724D01*
X46889500Y-12411500D01*
X46869815Y-12478539D01*
X46817011Y-12524294D01*
X46765500Y-12535500D01*
X46727397Y-12535500D01*
X46661174Y-12533238D01*
X46661173Y-12533238D01*
X46661171Y-12533238D01*
X46618170Y-12543717D01*
X46611930Y-12544902D01*
X46568079Y-12550930D01*
X46551616Y-12558081D01*
X46531575Y-12564820D01*
X46514150Y-12569066D01*
X46514143Y-12569069D01*
X46475566Y-12590759D01*
X46469879Y-12593584D01*
X46429279Y-12611220D01*
X46429276Y-12611221D01*
X46415356Y-12622546D01*
X46397886Y-12634436D01*
X46382241Y-12643233D01*
X46382240Y-12643234D01*
X46350934Y-12674539D01*
X46346221Y-12678792D01*
X46311896Y-12706717D01*
X46311891Y-12706722D01*
X46301542Y-12721383D01*
X46287923Y-12737550D01*
X44816292Y-14209181D01*
X44754969Y-14242666D01*
X44728611Y-14245500D01*
X44285129Y-14245500D01*
X44285123Y-14245501D01*
X44225516Y-14251908D01*
X44090671Y-14302202D01*
X44090664Y-14302206D01*
X43975455Y-14388452D01*
X43975452Y-14388455D01*
X43889206Y-14503664D01*
X43889202Y-14503671D01*
X43838908Y-14638517D01*
X43835213Y-14672889D01*
X43832501Y-14698123D01*
X43832500Y-14698135D01*
X43832500Y-14813770D01*
X43812815Y-14880809D01*
X43760011Y-14926564D01*
X43690853Y-14936508D01*
X43627297Y-14907483D01*
X43620819Y-14901451D01*
X42922514Y-14203146D01*
X42169016Y-13449648D01*
X42135533Y-13388328D01*
X42132699Y-13361979D01*
X42132699Y-10004985D01*
X42152384Y-9937947D01*
X42169013Y-9917310D01*
X46357646Y-5728678D01*
X49703300Y-5728678D01*
X49717832Y-5801735D01*
X49717833Y-5801739D01*
X49717834Y-5801740D01*
X49773199Y-5884601D01*
X49847881Y-5934501D01*
X49856060Y-5939966D01*
X49856064Y-5939967D01*
X49929121Y-5954499D01*
X49929124Y-5954500D01*
X49929126Y-5954500D01*
X51578476Y-5954500D01*
X51578477Y-5954499D01*
X51651540Y-5939966D01*
X51734401Y-5884601D01*
X51789766Y-5801740D01*
X51804300Y-5728674D01*
X51804300Y-5378499D01*
X51823985Y-5311461D01*
X51876789Y-5265706D01*
X51928300Y-5254500D01*
X52631213Y-5254500D01*
X52698252Y-5274185D01*
X52718894Y-5290819D01*
X54182981Y-6754905D01*
X54216466Y-6816228D01*
X54219300Y-6842586D01*
X54219300Y-12148679D01*
X54199615Y-12215718D01*
X54169613Y-12247944D01*
X54162259Y-12253449D01*
X54162251Y-12253457D01*
X54076006Y-12368664D01*
X54076002Y-12368671D01*
X54025708Y-12503517D01*
X54019301Y-12563116D01*
X54019299Y-12563135D01*
X54019299Y-12950813D01*
X53999614Y-13017853D01*
X53982980Y-13038494D01*
X53252294Y-13769181D01*
X53190971Y-13802666D01*
X53164613Y-13805500D01*
X51833482Y-13805500D01*
X51752519Y-13818323D01*
X51739696Y-13820354D01*
X51626658Y-13877950D01*
X51626657Y-13877950D01*
X51626657Y-13877951D01*
X51626652Y-13877954D01*
X51536954Y-13967652D01*
X51536951Y-13967657D01*
X51479352Y-14080698D01*
X51464500Y-14174475D01*
X51464500Y-14537517D01*
X51475292Y-14605657D01*
X51479354Y-14631304D01*
X51536950Y-14744342D01*
X51536952Y-14744344D01*
X51536954Y-14744347D01*
X51626652Y-14834045D01*
X51626654Y-14834046D01*
X51626658Y-14834050D01*
X51717851Y-14880515D01*
X51768647Y-14928490D01*
X51785442Y-14996311D01*
X51762904Y-15062446D01*
X51717852Y-15101484D01*
X51626658Y-15147950D01*
X51626657Y-15147951D01*
X51626652Y-15147954D01*
X51536954Y-15237652D01*
X51536951Y-15237657D01*
X51536950Y-15237658D01*
X51524084Y-15262909D01*
X51479352Y-15350698D01*
X51464500Y-15444475D01*
X51464500Y-15807517D01*
X51467981Y-15829494D01*
X51479354Y-15901304D01*
X51536950Y-16014342D01*
X51536952Y-16014344D01*
X51536954Y-16014347D01*
X51626652Y-16104045D01*
X51626654Y-16104046D01*
X51626658Y-16104050D01*
X51717851Y-16150515D01*
X51768647Y-16198490D01*
X51785442Y-16266311D01*
X51762904Y-16332446D01*
X51717852Y-16371484D01*
X51626658Y-16417950D01*
X51626656Y-16417951D01*
X51626657Y-16417951D01*
X51626652Y-16417954D01*
X51536954Y-16507652D01*
X51536951Y-16507657D01*
X51479352Y-16620698D01*
X51464500Y-16714475D01*
X51464500Y-17077517D01*
X51473892Y-17136815D01*
X51479354Y-17171304D01*
X51536950Y-17284342D01*
X51536952Y-17284344D01*
X51536954Y-17284347D01*
X51626652Y-17374045D01*
X51626654Y-17374046D01*
X51626658Y-17374050D01*
X51739694Y-17431645D01*
X51739698Y-17431647D01*
X51833475Y-17446499D01*
X51833481Y-17446500D01*
X52499892Y-17446499D01*
X52499902Y-17446500D01*
X52514335Y-17446500D01*
X54792680Y-17446500D01*
X54859719Y-17466185D01*
X54891948Y-17496191D01*
X54897454Y-17503546D01*
X54900846Y-17506085D01*
X55012664Y-17589793D01*
X55012671Y-17589797D01*
X55147517Y-17640091D01*
X55147516Y-17640091D01*
X55154444Y-17640835D01*
X55207127Y-17646500D01*
X56252872Y-17646499D01*
X56312483Y-17640091D01*
X56447331Y-17589796D01*
X56559156Y-17506083D01*
X56624616Y-17481667D01*
X56692889Y-17496518D01*
X56721145Y-17517670D01*
X56877181Y-17673706D01*
X56910666Y-17735029D01*
X56913500Y-17761387D01*
X56913500Y-18204870D01*
X56913501Y-18204876D01*
X56919908Y-18264483D01*
X56970202Y-18399328D01*
X56970206Y-18399335D01*
X57056452Y-18514544D01*
X57056455Y-18514547D01*
X57171664Y-18600793D01*
X57171671Y-18600797D01*
X57306517Y-18651091D01*
X57306516Y-18651091D01*
X57313444Y-18651835D01*
X57366127Y-18657500D01*
X58411872Y-18657499D01*
X58471483Y-18651091D01*
X58606331Y-18600796D01*
X58721546Y-18514546D01*
X58807796Y-18399331D01*
X58858091Y-18264483D01*
X58864500Y-18204873D01*
X58864499Y-17609128D01*
X58858091Y-17549517D01*
X58858089Y-17549512D01*
X58807797Y-17414671D01*
X58807793Y-17414664D01*
X58721547Y-17299455D01*
X58721544Y-17299452D01*
X58606335Y-17213206D01*
X58606328Y-17213202D01*
X58471482Y-17162908D01*
X58471483Y-17162908D01*
X58411883Y-17156501D01*
X58411881Y-17156500D01*
X58411873Y-17156500D01*
X58411865Y-17156500D01*
X57968387Y-17156500D01*
X57901348Y-17136815D01*
X57880706Y-17120181D01*
X57729705Y-16969180D01*
X57696220Y-16907857D01*
X57701204Y-16838165D01*
X57743076Y-16782232D01*
X57808540Y-16757815D01*
X57817386Y-16757499D01*
X58411871Y-16757499D01*
X58411872Y-16757499D01*
X58471483Y-16751091D01*
X58606331Y-16700796D01*
X58721546Y-16614546D01*
X58727051Y-16607191D01*
X58782985Y-16565319D01*
X58826320Y-16557500D01*
X59590813Y-16557500D01*
X59657852Y-16577185D01*
X59678494Y-16593819D01*
X61366180Y-18281505D01*
X61399665Y-18342828D01*
X61402499Y-18369186D01*
X61402499Y-40122884D01*
X61382814Y-40189923D01*
X61330010Y-40235678D01*
X61321833Y-40239066D01*
X61235670Y-40271203D01*
X61235664Y-40271206D01*
X61120455Y-40357452D01*
X61120452Y-40357455D01*
X61034206Y-40472664D01*
X61034202Y-40472671D01*
X60983908Y-40607517D01*
X60977501Y-40667116D01*
X60977500Y-40667135D01*
X60977500Y-40697273D01*
X60957815Y-40764312D01*
X60905011Y-40810067D01*
X60835853Y-40820011D01*
X60772297Y-40790986D01*
X60765819Y-40784954D01*
X60279318Y-40298453D01*
X60245833Y-40237130D01*
X60242999Y-40210772D01*
X60243000Y-38924499D01*
X60262685Y-38857459D01*
X60315489Y-38811705D01*
X60367000Y-38800499D01*
X60461517Y-38800499D01*
X60461518Y-38800499D01*
X60555304Y-38785646D01*
X60668342Y-38728050D01*
X60758050Y-38638342D01*
X60815646Y-38525304D01*
X60815646Y-38525302D01*
X60815647Y-38525301D01*
X60830499Y-38431524D01*
X60830500Y-38431519D01*
X60830499Y-38068482D01*
X60815646Y-37974696D01*
X60758050Y-37861658D01*
X60758046Y-37861654D01*
X60758045Y-37861652D01*
X60668347Y-37771954D01*
X60668344Y-37771952D01*
X60668342Y-37771950D01*
X60569276Y-37721473D01*
X60555301Y-37714352D01*
X60461524Y-37699500D01*
X59223482Y-37699500D01*
X59129696Y-37714354D01*
X59115724Y-37721473D01*
X59047055Y-37734367D01*
X58982315Y-37708088D01*
X58942060Y-37650981D01*
X58939232Y-37584960D01*
X58939120Y-37584943D01*
X58939207Y-37584389D01*
X58939070Y-37581175D01*
X58940519Y-37576105D01*
X58952184Y-37502454D01*
X58955500Y-37481519D01*
X58955499Y-37118482D01*
X58940646Y-37024696D01*
X58883050Y-36911658D01*
X58883046Y-36911654D01*
X58883045Y-36911652D01*
X58793347Y-36821954D01*
X58793344Y-36821952D01*
X58793342Y-36821950D01*
X58716517Y-36782805D01*
X58680301Y-36764352D01*
X58586524Y-36749500D01*
X58586519Y-36749500D01*
X58043166Y-36749500D01*
X58043165Y-36749500D01*
X54890954Y-36749500D01*
X54823915Y-36729815D01*
X54814842Y-36722504D01*
X54814645Y-36722768D01*
X54692335Y-36631206D01*
X54692328Y-36631202D01*
X54631167Y-36608391D01*
X54575233Y-36566520D01*
X54550816Y-36501056D01*
X54550500Y-36492209D01*
X54550500Y-36450212D01*
X54570185Y-36383173D01*
X54622989Y-36337418D01*
X54631147Y-36334037D01*
X54669331Y-36319796D01*
X54784546Y-36233546D01*
X54790051Y-36226191D01*
X54845985Y-36184319D01*
X54889320Y-36176500D01*
X55079716Y-36176500D01*
X55146755Y-36196185D01*
X55169912Y-36217745D01*
X55170583Y-36217075D01*
X55176855Y-36223347D01*
X55292064Y-36309593D01*
X55292071Y-36309597D01*
X55426917Y-36359891D01*
X55426916Y-36359891D01*
X55433844Y-36360635D01*
X55486527Y-36366300D01*
X56532272Y-36366299D01*
X56591883Y-36359891D01*
X56726731Y-36309596D01*
X56841946Y-36223346D01*
X56928196Y-36108131D01*
X56978491Y-35973283D01*
X56984900Y-35913673D01*
X56984899Y-35317928D01*
X56978491Y-35258317D01*
X56970665Y-35237335D01*
X56928197Y-35123471D01*
X56928193Y-35123464D01*
X56841947Y-35008255D01*
X56841944Y-35008252D01*
X56726735Y-34922006D01*
X56726728Y-34922002D01*
X56591882Y-34871708D01*
X56591883Y-34871708D01*
X56532283Y-34865301D01*
X56532281Y-34865300D01*
X56532273Y-34865300D01*
X56532264Y-34865300D01*
X55486529Y-34865300D01*
X55486523Y-34865301D01*
X55426916Y-34871708D01*
X55292071Y-34922002D01*
X55292069Y-34922004D01*
X55176856Y-35008252D01*
X55176853Y-35008254D01*
X55163710Y-35025812D01*
X55107775Y-35067683D01*
X55064444Y-35075500D01*
X54889320Y-35075500D01*
X54822281Y-35055815D01*
X54790052Y-35025809D01*
X54784548Y-35018457D01*
X54784546Y-35018454D01*
X54770918Y-35008252D01*
X54669335Y-34932206D01*
X54669328Y-34932202D01*
X54534482Y-34881908D01*
X54534483Y-34881908D01*
X54474883Y-34875501D01*
X54474881Y-34875500D01*
X54474873Y-34875500D01*
X54474864Y-34875500D01*
X53429129Y-34875500D01*
X53429123Y-34875501D01*
X53369516Y-34881908D01*
X53234671Y-34932202D01*
X53234664Y-34932206D01*
X53119455Y-35018452D01*
X53119452Y-35018455D01*
X53033206Y-35133664D01*
X53033202Y-35133671D01*
X52986713Y-35258317D01*
X52982909Y-35268517D01*
X52976500Y-35328127D01*
X52976500Y-35328134D01*
X52976500Y-35328135D01*
X52976500Y-35923870D01*
X52976501Y-35923876D01*
X52982908Y-35983483D01*
X53033202Y-36118328D01*
X53033206Y-36118335D01*
X53119452Y-36233544D01*
X53119455Y-36233547D01*
X53234664Y-36319793D01*
X53234671Y-36319797D01*
X53368833Y-36369836D01*
X53424767Y-36411707D01*
X53449184Y-36477171D01*
X53449500Y-36486018D01*
X53449500Y-36492209D01*
X53429815Y-36559248D01*
X53377011Y-36605003D01*
X53368833Y-36608391D01*
X53307671Y-36631202D01*
X53307664Y-36631206D01*
X53192455Y-36717452D01*
X53192452Y-36717455D01*
X53106206Y-36832664D01*
X53106202Y-36832671D01*
X53055910Y-36967513D01*
X53055909Y-36967517D01*
X53049500Y-37027127D01*
X53049500Y-37027134D01*
X53049500Y-37027135D01*
X53049500Y-37647870D01*
X53049501Y-37647876D01*
X53055908Y-37707483D01*
X53106202Y-37842328D01*
X53106206Y-37842335D01*
X53192452Y-37957544D01*
X53192455Y-37957547D01*
X53307664Y-38043793D01*
X53307671Y-38043797D01*
X53442517Y-38094091D01*
X53442516Y-38094091D01*
X53449444Y-38094835D01*
X53502127Y-38100500D01*
X54497872Y-38100499D01*
X54557483Y-38094091D01*
X54692331Y-38043796D01*
X54807546Y-37957546D01*
X54838897Y-37915667D01*
X54850485Y-37900188D01*
X54906419Y-37858318D01*
X54949751Y-37850500D01*
X58015148Y-37850500D01*
X58015160Y-37850499D01*
X58586517Y-37850499D01*
X58586518Y-37850499D01*
X58680304Y-37835646D01*
X58694273Y-37828528D01*
X58762938Y-37815632D01*
X58827679Y-37841907D01*
X58867937Y-37899012D01*
X58870768Y-37965039D01*
X58870880Y-37965057D01*
X58870793Y-37965605D01*
X58870931Y-37968818D01*
X58869481Y-37973888D01*
X58854500Y-38068475D01*
X58854500Y-38431517D01*
X58860197Y-38467486D01*
X58869354Y-38525304D01*
X58926950Y-38638342D01*
X58926952Y-38638344D01*
X58926954Y-38638347D01*
X59016652Y-38728045D01*
X59016654Y-38728046D01*
X59016658Y-38728050D01*
X59129694Y-38785645D01*
X59129698Y-38785647D01*
X59223475Y-38800499D01*
X59223481Y-38800500D01*
X59318000Y-38800499D01*
X59385038Y-38820183D01*
X59430794Y-38872986D01*
X59442000Y-38924499D01*
X59442000Y-40491457D01*
X59442001Y-40491467D01*
X59448846Y-40512535D01*
X59453387Y-40531446D01*
X59456854Y-40553332D01*
X59456855Y-40553335D01*
X59466912Y-40573073D01*
X59474357Y-40591046D01*
X59481204Y-40612118D01*
X59494226Y-40630042D01*
X59504390Y-40646628D01*
X59508722Y-40655129D01*
X59514450Y-40666370D01*
X59535364Y-40687284D01*
X59535393Y-40687315D01*
X61038088Y-42190010D01*
X61071573Y-42251333D01*
X61066589Y-42321025D01*
X61049676Y-42351999D01*
X61034205Y-42372666D01*
X61034202Y-42372671D01*
X60983910Y-42507513D01*
X60983909Y-42507517D01*
X60977500Y-42567127D01*
X60977500Y-42567134D01*
X60977500Y-42567135D01*
X60977500Y-43162870D01*
X60977501Y-43162876D01*
X60983908Y-43222483D01*
X61034202Y-43357328D01*
X61034206Y-43357335D01*
X61120452Y-43472544D01*
X61120455Y-43472547D01*
X61235664Y-43558793D01*
X61235671Y-43558797D01*
X61370517Y-43609091D01*
X61370516Y-43609091D01*
X61377444Y-43609835D01*
X61430127Y-43615500D01*
X62475872Y-43615499D01*
X62535483Y-43609091D01*
X62670331Y-43558796D01*
X62785546Y-43472546D01*
X62791051Y-43465191D01*
X62846985Y-43423319D01*
X62890320Y-43415500D01*
X63128412Y-43415500D01*
X63195451Y-43435185D01*
X63202716Y-43440228D01*
X63307669Y-43518796D01*
X63368833Y-43541608D01*
X63424766Y-43583478D01*
X63449184Y-43648942D01*
X63449500Y-43657790D01*
X63449500Y-45087679D01*
X63429815Y-45154718D01*
X63399813Y-45186944D01*
X63392459Y-45192449D01*
X63392451Y-45192457D01*
X63306206Y-45307664D01*
X63306202Y-45307671D01*
X63255908Y-45442517D01*
X63249501Y-45502116D01*
X63249501Y-45502123D01*
X63249500Y-45502135D01*
X63249500Y-48597870D01*
X63249501Y-48597876D01*
X63255908Y-48657483D01*
X63306202Y-48792328D01*
X63306206Y-48792335D01*
X63392452Y-48907544D01*
X63392455Y-48907547D01*
X63507664Y-48993793D01*
X63507671Y-48993797D01*
X63552618Y-49010561D01*
X63642517Y-49044091D01*
X63702127Y-49050500D01*
X64297872Y-49050499D01*
X64357483Y-49044091D01*
X64492331Y-48993796D01*
X64607546Y-48907546D01*
X64693796Y-48792331D01*
X64744091Y-48657483D01*
X64750500Y-48597873D01*
X64750499Y-45502128D01*
X64744091Y-45442517D01*
X64712670Y-45358274D01*
X64693797Y-45307671D01*
X64693793Y-45307664D01*
X64607548Y-45192457D01*
X64607546Y-45192454D01*
X64607542Y-45192451D01*
X64607540Y-45192449D01*
X64600187Y-45186944D01*
X64558317Y-45131009D01*
X64550500Y-45087679D01*
X64550500Y-43657790D01*
X64570185Y-43590751D01*
X64622989Y-43544996D01*
X64631146Y-43541616D01*
X64692331Y-43518796D01*
X64807546Y-43432546D01*
X64893796Y-43317331D01*
X64944091Y-43182483D01*
X64950500Y-43122873D01*
X64950499Y-43015884D01*
X64970183Y-42948847D01*
X65022987Y-42903092D01*
X65092145Y-42893148D01*
X65155701Y-42922172D01*
X65162180Y-42928205D01*
X68113181Y-45879206D01*
X68146666Y-45940529D01*
X68149500Y-45966887D01*
X68149500Y-48500202D01*
X68147238Y-48566429D01*
X68157715Y-48609419D01*
X68158901Y-48615661D01*
X68164929Y-48659520D01*
X68172079Y-48675979D01*
X68178819Y-48696020D01*
X68183067Y-48713452D01*
X68204763Y-48752039D01*
X68207582Y-48757715D01*
X68222617Y-48792328D01*
X68225221Y-48798322D01*
X68236541Y-48812236D01*
X68248439Y-48829717D01*
X68257234Y-48845360D01*
X68257236Y-48845361D01*
X68288532Y-48876657D01*
X68292783Y-48881366D01*
X68320722Y-48915708D01*
X68335381Y-48926055D01*
X68351552Y-48939677D01*
X70394479Y-50982603D01*
X70439720Y-51031044D01*
X70477540Y-51054042D01*
X70482779Y-51057607D01*
X70518058Y-51084361D01*
X70534753Y-51090944D01*
X70553690Y-51100351D01*
X70569018Y-51109672D01*
X70611647Y-51121616D01*
X70617663Y-51123639D01*
X70658836Y-51139876D01*
X70676687Y-51141711D01*
X70697452Y-51145657D01*
X70714735Y-51150500D01*
X70758994Y-51150500D01*
X70765335Y-51150824D01*
X70809372Y-51155352D01*
X70827055Y-51152303D01*
X70848124Y-51150500D01*
X72181273Y-51150500D01*
X72248312Y-51170185D01*
X72268954Y-51186819D01*
X72930139Y-51848003D01*
X72975380Y-51896444D01*
X73013146Y-51919409D01*
X73013200Y-51919442D01*
X73018439Y-51923007D01*
X73053718Y-51949761D01*
X73070413Y-51956344D01*
X73089350Y-51965751D01*
X73104678Y-51975072D01*
X73130590Y-51982332D01*
X73147297Y-51987013D01*
X73153314Y-51989036D01*
X73164185Y-51993323D01*
X73182305Y-52000469D01*
X73194495Y-52005276D01*
X73212344Y-52007110D01*
X73233116Y-52011058D01*
X73242474Y-52013680D01*
X73250394Y-52015900D01*
X73250395Y-52015900D01*
X73294661Y-52015900D01*
X73301002Y-52016224D01*
X73345031Y-52020751D01*
X73362710Y-52017702D01*
X73383778Y-52015900D01*
X76664543Y-52015900D01*
X76730766Y-52018162D01*
X76773772Y-52007680D01*
X76779991Y-52006498D01*
X76823860Y-52000470D01*
X76840323Y-51993318D01*
X76860356Y-51986581D01*
X76877792Y-51982333D01*
X76916405Y-51960621D01*
X76922030Y-51957827D01*
X76962660Y-51940180D01*
X76976572Y-51928860D01*
X76994063Y-51916957D01*
X77009699Y-51908166D01*
X77040999Y-51876864D01*
X77045711Y-51872611D01*
X77080048Y-51844678D01*
X77090396Y-51830016D01*
X77104014Y-51813849D01*
X77731045Y-51186819D01*
X77792368Y-51153334D01*
X77818726Y-51150500D01*
X78881273Y-51150500D01*
X78948312Y-51170185D01*
X78968954Y-51186819D01*
X82195553Y-54413418D01*
X82240780Y-54461844D01*
X82278604Y-54484845D01*
X82283834Y-54488404D01*
X82319118Y-54515161D01*
X82327390Y-54518423D01*
X82335813Y-54521745D01*
X82354750Y-54531151D01*
X82370078Y-54540472D01*
X82412707Y-54552416D01*
X82418721Y-54554439D01*
X82424546Y-54556735D01*
X82459896Y-54570676D01*
X82477747Y-54572511D01*
X82498512Y-54576457D01*
X82515795Y-54581300D01*
X82560054Y-54581300D01*
X82566395Y-54581624D01*
X82610432Y-54586152D01*
X82628115Y-54583103D01*
X82649184Y-54581300D01*
X84959803Y-54581300D01*
X85026026Y-54583562D01*
X85069032Y-54573080D01*
X85075251Y-54571898D01*
X85119120Y-54565870D01*
X85135583Y-54558718D01*
X85155616Y-54551981D01*
X85173052Y-54547733D01*
X85211665Y-54526021D01*
X85217290Y-54523227D01*
X85257920Y-54505580D01*
X85271832Y-54494260D01*
X85289323Y-54482357D01*
X85304955Y-54473568D01*
X85304953Y-54473568D01*
X85304959Y-54473566D01*
X85336259Y-54442264D01*
X85340971Y-54438011D01*
X85375308Y-54410078D01*
X85385656Y-54395416D01*
X85399274Y-54379249D01*
X87382618Y-52395906D01*
X87431044Y-52350680D01*
X87454049Y-52312847D01*
X87457606Y-52307622D01*
X87484361Y-52272342D01*
X87490943Y-52255648D01*
X87500344Y-52236719D01*
X87509672Y-52221382D01*
X87521619Y-52178739D01*
X87523632Y-52172753D01*
X87539876Y-52131564D01*
X87541407Y-52116678D01*
X87541711Y-52113716D01*
X87545651Y-52092970D01*
X87546368Y-52090409D01*
X87583393Y-52031160D01*
X87587086Y-52028004D01*
X87719410Y-51919410D01*
X87845936Y-51765237D01*
X87912810Y-51640125D01*
X87939951Y-51589348D01*
X87939951Y-51589347D01*
X87939954Y-51589342D01*
X87997850Y-51398485D01*
X88017399Y-51200000D01*
X87997850Y-51001515D01*
X87939954Y-50810658D01*
X87939951Y-50810654D01*
X87939951Y-50810651D01*
X87845939Y-50634768D01*
X87845937Y-50634766D01*
X87845936Y-50634763D01*
X87807456Y-50587875D01*
X87719410Y-50480589D01*
X87565238Y-50354065D01*
X87565231Y-50354060D01*
X87389348Y-50260048D01*
X87389342Y-50260046D01*
X87198485Y-50202150D01*
X87198483Y-50202149D01*
X87198481Y-50202149D01*
X87000000Y-50182601D01*
X86801518Y-50202149D01*
X86610651Y-50260048D01*
X86434768Y-50354060D01*
X86434761Y-50354065D01*
X86280589Y-50480589D01*
X86154065Y-50634761D01*
X86154059Y-50634768D01*
X86109358Y-50718400D01*
X86060396Y-50768245D01*
X85992258Y-50783705D01*
X85926578Y-50759873D01*
X85890642Y-50718400D01*
X85845940Y-50634768D01*
X85845934Y-50634761D01*
X85719410Y-50480589D01*
X85565238Y-50354065D01*
X85565231Y-50354060D01*
X85389348Y-50260048D01*
X85389342Y-50260046D01*
X85198485Y-50202150D01*
X85198483Y-50202149D01*
X85198481Y-50202149D01*
X85000000Y-50182601D01*
X84801518Y-50202149D01*
X84610651Y-50260048D01*
X84434768Y-50354060D01*
X84434761Y-50354065D01*
X84280589Y-50480589D01*
X84154065Y-50634761D01*
X84154060Y-50634768D01*
X84060048Y-50810651D01*
X84002149Y-51001518D01*
X83982601Y-51200000D01*
X84002149Y-51398481D01*
X84002149Y-51398483D01*
X84002150Y-51398485D01*
X84055572Y-51574592D01*
X84060048Y-51589348D01*
X84154060Y-51765231D01*
X84154065Y-51765238D01*
X84280589Y-51919410D01*
X84348325Y-51974999D01*
X84387659Y-52032744D01*
X84389530Y-52102589D01*
X84357341Y-52158533D01*
X83910094Y-52605781D01*
X83848771Y-52639266D01*
X83822413Y-52642100D01*
X83164017Y-52642100D01*
X83096978Y-52622415D01*
X83076336Y-52605781D01*
X79887936Y-49417381D01*
X79887936Y-49417380D01*
X79842710Y-49368956D01*
X79823428Y-49357230D01*
X79804891Y-49345957D01*
X79799640Y-49342383D01*
X79764371Y-49315638D01*
X79764372Y-49315638D01*
X79747672Y-49309052D01*
X79728746Y-49299652D01*
X79713410Y-49290327D01*
X79670788Y-49278384D01*
X79664770Y-49276360D01*
X79623595Y-49260124D01*
X79623586Y-49260122D01*
X79605746Y-49258288D01*
X79584981Y-49254342D01*
X79567699Y-49249500D01*
X79567695Y-49249500D01*
X79523436Y-49249500D01*
X79517094Y-49249175D01*
X79489457Y-49246333D01*
X79473059Y-49244648D01*
X79473054Y-49244648D01*
X79455374Y-49247697D01*
X79434306Y-49249500D01*
X77217367Y-49249500D01*
X77151144Y-49247238D01*
X77151143Y-49247238D01*
X77151141Y-49247238D01*
X77108140Y-49257717D01*
X77101900Y-49258902D01*
X77058049Y-49264930D01*
X77041586Y-49272081D01*
X77021545Y-49278820D01*
X77004120Y-49283066D01*
X77004115Y-49283068D01*
X76965537Y-49304758D01*
X76959851Y-49307582D01*
X76919249Y-49325220D01*
X76905327Y-49336546D01*
X76887853Y-49348438D01*
X76872216Y-49357230D01*
X76872209Y-49357235D01*
X76840909Y-49388535D01*
X76836195Y-49392789D01*
X76801861Y-49420722D01*
X76791511Y-49435385D01*
X76777890Y-49451554D01*
X76163664Y-50065781D01*
X76102341Y-50099266D01*
X76075983Y-50102100D01*
X73924016Y-50102100D01*
X73856977Y-50082415D01*
X73836335Y-50065781D01*
X73187937Y-49417382D01*
X73187936Y-49417381D01*
X73142710Y-49368956D01*
X73123428Y-49357230D01*
X73104891Y-49345957D01*
X73099640Y-49342383D01*
X73064371Y-49315638D01*
X73064372Y-49315638D01*
X73047672Y-49309052D01*
X73028746Y-49299652D01*
X73013410Y-49290327D01*
X72970788Y-49278384D01*
X72964770Y-49276360D01*
X72923595Y-49260124D01*
X72923586Y-49260122D01*
X72905746Y-49258288D01*
X72884981Y-49254342D01*
X72867699Y-49249500D01*
X72867695Y-49249500D01*
X72823436Y-49249500D01*
X72817094Y-49249175D01*
X72789457Y-49246333D01*
X72773059Y-49244648D01*
X72773054Y-49244648D01*
X72755374Y-49247697D01*
X72734306Y-49249500D01*
X71463586Y-49249500D01*
X71396547Y-49229815D01*
X71375905Y-49213181D01*
X70086819Y-47924094D01*
X70053334Y-47862771D01*
X70050500Y-47836413D01*
X70050500Y-43736935D01*
X73245669Y-43736935D01*
X73247616Y-43747977D01*
X73249500Y-43769509D01*
X73249500Y-48597870D01*
X73249501Y-48597876D01*
X73255908Y-48657483D01*
X73306202Y-48792328D01*
X73306206Y-48792335D01*
X73392452Y-48907544D01*
X73392455Y-48907547D01*
X73507664Y-48993793D01*
X73507671Y-48993797D01*
X73552618Y-49010561D01*
X73642517Y-49044091D01*
X73702127Y-49050500D01*
X74297872Y-49050499D01*
X74357483Y-49044091D01*
X74492331Y-48993796D01*
X74607546Y-48907546D01*
X74693796Y-48792331D01*
X74744091Y-48657483D01*
X74750500Y-48597873D01*
X74750500Y-47061347D01*
X74750500Y-44567500D01*
X74770185Y-44500461D01*
X74822989Y-44454706D01*
X74874500Y-44443500D01*
X81910770Y-44443500D01*
X81977809Y-44463185D01*
X81998451Y-44479819D01*
X82213181Y-44694548D01*
X82246666Y-44755871D01*
X82249500Y-44782229D01*
X82249500Y-45474105D01*
X82229815Y-45541144D01*
X82221354Y-45552769D01*
X82154064Y-45634762D01*
X82154060Y-45634768D01*
X82060048Y-45810651D01*
X82002149Y-46001518D01*
X81982601Y-46199999D01*
X82002149Y-46398481D01*
X82002149Y-46398483D01*
X82002150Y-46398485D01*
X82059022Y-46585966D01*
X82060048Y-46589348D01*
X82154060Y-46765231D01*
X82154065Y-46765238D01*
X82280589Y-46919410D01*
X82387875Y-47007456D01*
X82434763Y-47045936D01*
X82434766Y-47045937D01*
X82434768Y-47045939D01*
X82610651Y-47139951D01*
X82610654Y-47139951D01*
X82610658Y-47139954D01*
X82801515Y-47197850D01*
X83000000Y-47217399D01*
X83198485Y-47197850D01*
X83389342Y-47139954D01*
X83448576Y-47108293D01*
X83536405Y-47061347D01*
X83565237Y-47045936D01*
X83719410Y-46919410D01*
X83845936Y-46765237D01*
X83933990Y-46600500D01*
X83939951Y-46589348D01*
X83939951Y-46589347D01*
X83939954Y-46589342D01*
X83997850Y-46398485D01*
X84017399Y-46200000D01*
X84017399Y-46199999D01*
X85982601Y-46199999D01*
X86002149Y-46398481D01*
X86002149Y-46398483D01*
X86002150Y-46398485D01*
X86059022Y-46585966D01*
X86060048Y-46589348D01*
X86154060Y-46765231D01*
X86154065Y-46765238D01*
X86280589Y-46919410D01*
X86387875Y-47007456D01*
X86434763Y-47045936D01*
X86434766Y-47045937D01*
X86434768Y-47045939D01*
X86610651Y-47139951D01*
X86610654Y-47139951D01*
X86610658Y-47139954D01*
X86801515Y-47197850D01*
X87000000Y-47217399D01*
X87198485Y-47197850D01*
X87389342Y-47139954D01*
X87448576Y-47108293D01*
X87536405Y-47061347D01*
X87565237Y-47045936D01*
X87719410Y-46919410D01*
X87845936Y-46765237D01*
X87933990Y-46600500D01*
X87939951Y-46589348D01*
X87939951Y-46589347D01*
X87939954Y-46589342D01*
X87997850Y-46398485D01*
X88017399Y-46200000D01*
X87997850Y-46001515D01*
X87939954Y-45810658D01*
X87939951Y-45810654D01*
X87939951Y-45810651D01*
X87845939Y-45634768D01*
X87845935Y-45634762D01*
X87778646Y-45552769D01*
X87751334Y-45488459D01*
X87750500Y-45474105D01*
X87750500Y-41874500D01*
X87770185Y-41807461D01*
X87822989Y-41761706D01*
X87874500Y-41750500D01*
X92197449Y-41750500D01*
X92197465Y-41750499D01*
X93697871Y-41750499D01*
X93697872Y-41750499D01*
X93757483Y-41744091D01*
X93892331Y-41693796D01*
X94007546Y-41607546D01*
X94093796Y-41492331D01*
X94144091Y-41357483D01*
X94150500Y-41297873D01*
X94150499Y-40702128D01*
X94144091Y-40642517D01*
X94139353Y-40629815D01*
X94093797Y-40507671D01*
X94093793Y-40507664D01*
X94007547Y-40392455D01*
X94007544Y-40392452D01*
X93892335Y-40306206D01*
X93892328Y-40306202D01*
X93757482Y-40255908D01*
X93757483Y-40255908D01*
X93697883Y-40249501D01*
X93697881Y-40249500D01*
X93697873Y-40249500D01*
X93697865Y-40249500D01*
X87697954Y-40249500D01*
X87630915Y-40229815D01*
X87622933Y-40223383D01*
X87622645Y-40223768D01*
X87500335Y-40132206D01*
X87500328Y-40132202D01*
X87365486Y-40081910D01*
X87365485Y-40081909D01*
X87365483Y-40081909D01*
X87305873Y-40075500D01*
X87305863Y-40075500D01*
X86685129Y-40075500D01*
X86685123Y-40075501D01*
X86625516Y-40081908D01*
X86490671Y-40132202D01*
X86490664Y-40132206D01*
X86375455Y-40218452D01*
X86375452Y-40218455D01*
X86289206Y-40333664D01*
X86289202Y-40333671D01*
X86238908Y-40468517D01*
X86234699Y-40507671D01*
X86232501Y-40528123D01*
X86232500Y-40528135D01*
X86232500Y-41523870D01*
X86232501Y-41523876D01*
X86238908Y-41583482D01*
X86239395Y-41584786D01*
X86241645Y-41590819D01*
X86241680Y-41590911D01*
X86249500Y-41634250D01*
X86249500Y-45474105D01*
X86229815Y-45541144D01*
X86221354Y-45552769D01*
X86154064Y-45634762D01*
X86154060Y-45634768D01*
X86060048Y-45810651D01*
X86002149Y-46001518D01*
X85982601Y-46199999D01*
X84017399Y-46199999D01*
X83997850Y-46001515D01*
X83939954Y-45810658D01*
X83939951Y-45810654D01*
X83939951Y-45810651D01*
X83845939Y-45634768D01*
X83845935Y-45634762D01*
X83778646Y-45552769D01*
X83751334Y-45488459D01*
X83750500Y-45474105D01*
X83750500Y-44483705D01*
X83751809Y-44465735D01*
X83753047Y-44457285D01*
X83755289Y-44441977D01*
X83755156Y-44440460D01*
X83750736Y-44389939D01*
X83750500Y-44384532D01*
X83750500Y-44376296D01*
X83750500Y-44376291D01*
X83746691Y-44343705D01*
X83739998Y-44267203D01*
X83739995Y-44267194D01*
X83738538Y-44260135D01*
X83738598Y-44260122D01*
X83736965Y-44252757D01*
X83736906Y-44252772D01*
X83735241Y-44245749D01*
X83735241Y-44245745D01*
X83708971Y-44173568D01*
X83684814Y-44100665D01*
X83684812Y-44100662D01*
X83681761Y-44094118D01*
X83681815Y-44094092D01*
X83678533Y-44087312D01*
X83678480Y-44087340D01*
X83675238Y-44080886D01*
X83675237Y-44080883D01*
X83633038Y-44016723D01*
X83592712Y-43951344D01*
X83592711Y-43951343D01*
X83592710Y-43951341D01*
X83588234Y-43945681D01*
X83588280Y-43945643D01*
X83583519Y-43939799D01*
X83583474Y-43939838D01*
X83578834Y-43934308D01*
X83522982Y-43881613D01*
X82848729Y-43207361D01*
X82836949Y-43193730D01*
X82828578Y-43182486D01*
X82822612Y-43174472D01*
X82822610Y-43174470D01*
X82782587Y-43140886D01*
X82778612Y-43137244D01*
X82775690Y-43134322D01*
X82772780Y-43131411D01*
X82747040Y-43111059D01*
X82688209Y-43061694D01*
X82682180Y-43057729D01*
X82682212Y-43057680D01*
X82675853Y-43053628D01*
X82675822Y-43053679D01*
X82669680Y-43049891D01*
X82669678Y-43049890D01*
X82669677Y-43049889D01*
X82615609Y-43024676D01*
X82600058Y-43017424D01*
X82565894Y-43000267D01*
X82531433Y-42982960D01*
X82531431Y-42982959D01*
X82531430Y-42982959D01*
X82524645Y-42980489D01*
X82524665Y-42980433D01*
X82517549Y-42977959D01*
X82517531Y-42978015D01*
X82510671Y-42975742D01*
X82482841Y-42969996D01*
X82435434Y-42960207D01*
X82386472Y-42948603D01*
X82360719Y-42942499D01*
X82353547Y-42941661D01*
X82353553Y-42941601D01*
X82346055Y-42940835D01*
X82346050Y-42940895D01*
X82338860Y-42940265D01*
X82262083Y-42942500D01*
X78465628Y-42942500D01*
X78422295Y-42934682D01*
X78283482Y-42882908D01*
X78283483Y-42882908D01*
X78223883Y-42876501D01*
X78223881Y-42876500D01*
X78223873Y-42876500D01*
X78223864Y-42876500D01*
X77178129Y-42876500D01*
X77178123Y-42876501D01*
X77118516Y-42882908D01*
X76979705Y-42934682D01*
X76936372Y-42942500D01*
X74874500Y-42942500D01*
X74807461Y-42922815D01*
X74761706Y-42870011D01*
X74750500Y-42818500D01*
X74750500Y-42362229D01*
X74770185Y-42295190D01*
X74786814Y-42274553D01*
X78821642Y-38239724D01*
X78835271Y-38227947D01*
X78854530Y-38213610D01*
X78888101Y-38173601D01*
X78891761Y-38169606D01*
X78897590Y-38163778D01*
X78917941Y-38138039D01*
X78923948Y-38130879D01*
X78967302Y-38079214D01*
X78967306Y-38079205D01*
X78971274Y-38073175D01*
X78971325Y-38073208D01*
X78975372Y-38066856D01*
X78975320Y-38066824D01*
X78979112Y-38060675D01*
X79011575Y-37991058D01*
X79046036Y-37922440D01*
X79046040Y-37922433D01*
X79046042Y-37922421D01*
X79048509Y-37915646D01*
X79048567Y-37915667D01*
X79051043Y-37908546D01*
X79050986Y-37908528D01*
X79053257Y-37901673D01*
X79068792Y-37826434D01*
X79072184Y-37812123D01*
X79086500Y-37751721D01*
X79086500Y-37751710D01*
X79087338Y-37744548D01*
X79087398Y-37744555D01*
X79088164Y-37737055D01*
X79088105Y-37737050D01*
X79088734Y-37729860D01*
X79088100Y-37708088D01*
X79086500Y-37653083D01*
X79086500Y-35619499D01*
X79106185Y-35552460D01*
X79158989Y-35506705D01*
X79210500Y-35495499D01*
X80333871Y-35495499D01*
X80333872Y-35495499D01*
X80393483Y-35489091D01*
X80528331Y-35438796D01*
X80643546Y-35352546D01*
X80729796Y-35237331D01*
X80780091Y-35102483D01*
X80786500Y-35042873D01*
X80786499Y-33547128D01*
X80780091Y-33487517D01*
X80775073Y-33474064D01*
X80729797Y-33352671D01*
X80729793Y-33352664D01*
X80643547Y-33237455D01*
X80643544Y-33237452D01*
X80528335Y-33151206D01*
X80528328Y-33151202D01*
X80393482Y-33100908D01*
X80393483Y-33100908D01*
X80333883Y-33094501D01*
X80333881Y-33094500D01*
X80333873Y-33094500D01*
X80333865Y-33094500D01*
X79210500Y-33094500D01*
X79143461Y-33074815D01*
X79097706Y-33022011D01*
X79086500Y-32970500D01*
X79086500Y-31399705D01*
X79087809Y-31381735D01*
X79091289Y-31357974D01*
X79086736Y-31305939D01*
X79086500Y-31300532D01*
X79086500Y-31292296D01*
X79086500Y-31292291D01*
X79082691Y-31259705D01*
X79075998Y-31183203D01*
X79075995Y-31183194D01*
X79074538Y-31176135D01*
X79074598Y-31176122D01*
X79072965Y-31168757D01*
X79072906Y-31168772D01*
X79071241Y-31161749D01*
X79071241Y-31161745D01*
X79044971Y-31089568D01*
X79020814Y-31016665D01*
X79020812Y-31016662D01*
X79017761Y-31010118D01*
X79017815Y-31010092D01*
X79014533Y-31003312D01*
X79014480Y-31003340D01*
X79011238Y-30996886D01*
X79011237Y-30996883D01*
X78969038Y-30932723D01*
X78928712Y-30867344D01*
X78928711Y-30867343D01*
X78928710Y-30867341D01*
X78924234Y-30861681D01*
X78924280Y-30861643D01*
X78919519Y-30855799D01*
X78919474Y-30855838D01*
X78914834Y-30850308D01*
X78858982Y-30797613D01*
X76836819Y-28775450D01*
X76803334Y-28714127D01*
X76800500Y-28687769D01*
X76800500Y-28152494D01*
X76820185Y-28085455D01*
X76872989Y-28039700D01*
X76942147Y-28029756D01*
X77005703Y-28058781D01*
X77027603Y-28083604D01*
X77031033Y-28088738D01*
X77031034Y-28088740D01*
X77086399Y-28171601D01*
X77169260Y-28226966D01*
X77169264Y-28226967D01*
X77242321Y-28241499D01*
X77242324Y-28241500D01*
X77242326Y-28241500D01*
X78191335Y-28241500D01*
X81043500Y-28241500D01*
X81110539Y-28261185D01*
X81156294Y-28313989D01*
X81167500Y-28365500D01*
X81167500Y-29457678D01*
X81182032Y-29530735D01*
X81182033Y-29530739D01*
X81182034Y-29530740D01*
X81237399Y-29613601D01*
X81320260Y-29668966D01*
X81320264Y-29668967D01*
X81393321Y-29683499D01*
X81393324Y-29683500D01*
X81393326Y-29683500D01*
X84042676Y-29683500D01*
X84042677Y-29683499D01*
X84115740Y-29668966D01*
X84198601Y-29613601D01*
X84253966Y-29530740D01*
X84268500Y-29457674D01*
X84268500Y-24908326D01*
X84268500Y-24908323D01*
X84268499Y-24908321D01*
X84253967Y-24835264D01*
X84253966Y-24835260D01*
X84248802Y-24827531D01*
X84198601Y-24752399D01*
X84115740Y-24697034D01*
X84115739Y-24697033D01*
X84115735Y-24697032D01*
X84042677Y-24682500D01*
X84042674Y-24682500D01*
X83392500Y-24682500D01*
X83325461Y-24662815D01*
X83279706Y-24610011D01*
X83268500Y-24558500D01*
X83268500Y-22748885D01*
X83288185Y-22681846D01*
X83304815Y-22661208D01*
X84079205Y-21886817D01*
X84140528Y-21853333D01*
X84166886Y-21850499D01*
X84597871Y-21850499D01*
X84597872Y-21850499D01*
X84612242Y-21848954D01*
X84681001Y-21861357D01*
X84732140Y-21908966D01*
X84749500Y-21972243D01*
X84749500Y-40014841D01*
X84729815Y-40081880D01*
X84677011Y-40127635D01*
X84668837Y-40131021D01*
X84665676Y-40132199D01*
X84665664Y-40132206D01*
X84550455Y-40218452D01*
X84550452Y-40218455D01*
X84464206Y-40333664D01*
X84464202Y-40333671D01*
X84413908Y-40468517D01*
X84409699Y-40507671D01*
X84407501Y-40528123D01*
X84407500Y-40528135D01*
X84407500Y-41523870D01*
X84407501Y-41523876D01*
X84413908Y-41583483D01*
X84464202Y-41718328D01*
X84464206Y-41718335D01*
X84550452Y-41833544D01*
X84550455Y-41833547D01*
X84665664Y-41919793D01*
X84665671Y-41919797D01*
X84692531Y-41929815D01*
X84800517Y-41970091D01*
X84860127Y-41976500D01*
X85480872Y-41976499D01*
X85540483Y-41970091D01*
X85675331Y-41919796D01*
X85790546Y-41833546D01*
X85876796Y-41718331D01*
X85927091Y-41583483D01*
X85933500Y-41523873D01*
X85933499Y-40528128D01*
X85927538Y-40472671D01*
X85927091Y-40468516D01*
X85876797Y-40333671D01*
X85876793Y-40333664D01*
X85790547Y-40218455D01*
X85790544Y-40218452D01*
X85675335Y-40132206D01*
X85675329Y-40132203D01*
X85631166Y-40115731D01*
X85575233Y-40073859D01*
X85550816Y-40008395D01*
X85550500Y-39999549D01*
X85550500Y-21951066D01*
X85570185Y-21884027D01*
X85622989Y-21838272D01*
X85692147Y-21828328D01*
X85717833Y-21834884D01*
X85742517Y-21844091D01*
X85802127Y-21850500D01*
X86233112Y-21850499D01*
X86300151Y-21870183D01*
X86320793Y-21886818D01*
X89149634Y-24715659D01*
X89183119Y-24776982D01*
X89183570Y-24827531D01*
X89167500Y-24908321D01*
X89167500Y-29457678D01*
X89182032Y-29530735D01*
X89182033Y-29530739D01*
X89182034Y-29530740D01*
X89237399Y-29613601D01*
X89320260Y-29668966D01*
X89320264Y-29668967D01*
X89393321Y-29683499D01*
X89393324Y-29683500D01*
X89393326Y-29683500D01*
X90043500Y-29683500D01*
X90110539Y-29703185D01*
X90156294Y-29755989D01*
X90167500Y-29807500D01*
X90167500Y-30008602D01*
X90165238Y-30074829D01*
X90175715Y-30117819D01*
X90176901Y-30124061D01*
X90182929Y-30167920D01*
X90190079Y-30184379D01*
X90196818Y-30204419D01*
X90201067Y-30221852D01*
X90203252Y-30225739D01*
X90222763Y-30260439D01*
X90225582Y-30266115D01*
X90243220Y-30306720D01*
X90243221Y-30306722D01*
X90254541Y-30320636D01*
X90266439Y-30338117D01*
X90275234Y-30353760D01*
X90275236Y-30353761D01*
X90306532Y-30385057D01*
X90310783Y-30389766D01*
X90338722Y-30424108D01*
X90353381Y-30434455D01*
X90369552Y-30448077D01*
X91204079Y-31282603D01*
X91249320Y-31331044D01*
X91287140Y-31354042D01*
X91292379Y-31357607D01*
X91327658Y-31384361D01*
X91344353Y-31390944D01*
X91363290Y-31400351D01*
X91378618Y-31409672D01*
X91404618Y-31416956D01*
X91421237Y-31421613D01*
X91427254Y-31423636D01*
X91468435Y-31439876D01*
X91468437Y-31439876D01*
X91468440Y-31439877D01*
X91481061Y-31441174D01*
X91486279Y-31441710D01*
X91507055Y-31445658D01*
X91524335Y-31450500D01*
X91568593Y-31450500D01*
X91574934Y-31450824D01*
X91618971Y-31455352D01*
X91636654Y-31452303D01*
X91657723Y-31450500D01*
X95225566Y-31450500D01*
X95292605Y-31470185D01*
X95338360Y-31522989D01*
X95341748Y-31531168D01*
X95361201Y-31583326D01*
X95361206Y-31583335D01*
X95447452Y-31698544D01*
X95447455Y-31698547D01*
X95562664Y-31784793D01*
X95562671Y-31784797D01*
X95607618Y-31801561D01*
X95697517Y-31835091D01*
X95757127Y-31841500D01*
X96352872Y-31841499D01*
X96412483Y-31835091D01*
X96547331Y-31784796D01*
X96662546Y-31698546D01*
X96748796Y-31583331D01*
X96799091Y-31448483D01*
X96805500Y-31388873D01*
X96805499Y-30343128D01*
X96799091Y-30283517D01*
X96798650Y-30282335D01*
X96748797Y-30148671D01*
X96748793Y-30148664D01*
X96662548Y-30033457D01*
X96662546Y-30033454D01*
X96662542Y-30033451D01*
X96662540Y-30033449D01*
X96655187Y-30027944D01*
X96613317Y-29972009D01*
X96605500Y-29928679D01*
X96605500Y-29278471D01*
X96625185Y-29211432D01*
X96677989Y-29165677D01*
X96686156Y-29162293D01*
X96781331Y-29126796D01*
X96896546Y-29040546D01*
X96982796Y-28925331D01*
X97033091Y-28790483D01*
X97039500Y-28730873D01*
X97039499Y-25635128D01*
X97033091Y-25575517D01*
X97029122Y-25564876D01*
X96982797Y-25440671D01*
X96982793Y-25440664D01*
X96896547Y-25325455D01*
X96896544Y-25325452D01*
X96781335Y-25239206D01*
X96781328Y-25239202D01*
X96646482Y-25188908D01*
X96646483Y-25188908D01*
X96586883Y-25182501D01*
X96586881Y-25182500D01*
X96586873Y-25182500D01*
X96586864Y-25182500D01*
X95391129Y-25182500D01*
X95391123Y-25182501D01*
X95331516Y-25188908D01*
X95196671Y-25239202D01*
X95196664Y-25239206D01*
X95081455Y-25325452D01*
X95081452Y-25325455D01*
X94995206Y-25440664D01*
X94995202Y-25440671D01*
X94944908Y-25575517D01*
X94939644Y-25624483D01*
X94938501Y-25635123D01*
X94938500Y-25635135D01*
X94938500Y-28730870D01*
X94938501Y-28730876D01*
X94944908Y-28790483D01*
X94995202Y-28925328D01*
X94995206Y-28925335D01*
X95081452Y-29040544D01*
X95081455Y-29040547D01*
X95196664Y-29126793D01*
X95196671Y-29126797D01*
X95331517Y-29177091D01*
X95331515Y-29177091D01*
X95393756Y-29183783D01*
X95458307Y-29210521D01*
X95498155Y-29267914D01*
X95504500Y-29307072D01*
X95504500Y-29928679D01*
X95484815Y-29995718D01*
X95454813Y-30027944D01*
X95447459Y-30033449D01*
X95447451Y-30033457D01*
X95361206Y-30148664D01*
X95361202Y-30148671D01*
X95332458Y-30225740D01*
X95317798Y-30265048D01*
X95316386Y-30268833D01*
X95274515Y-30324766D01*
X95209051Y-30349184D01*
X95200204Y-30349500D01*
X91879386Y-30349500D01*
X91812347Y-30329815D01*
X91791705Y-30313181D01*
X91373706Y-29895181D01*
X91340221Y-29833858D01*
X91345205Y-29764166D01*
X91387077Y-29708233D01*
X91452541Y-29683816D01*
X91461387Y-29683500D01*
X92042676Y-29683500D01*
X92042677Y-29683499D01*
X92115740Y-29668966D01*
X92198601Y-29613601D01*
X92253966Y-29530740D01*
X92268500Y-29457674D01*
X92268500Y-24908326D01*
X92268500Y-24908323D01*
X92268499Y-24908321D01*
X92253967Y-24835264D01*
X92253966Y-24835260D01*
X92248802Y-24827531D01*
X92198601Y-24752399D01*
X92115740Y-24697034D01*
X92115739Y-24697033D01*
X92115735Y-24697032D01*
X92042677Y-24682500D01*
X92042674Y-24682500D01*
X90724887Y-24682500D01*
X90657848Y-24662815D01*
X90637206Y-24646181D01*
X86911818Y-20920792D01*
X86878333Y-20859469D01*
X86875499Y-20833111D01*
X86875499Y-20402129D01*
X86875498Y-20402123D01*
X86875497Y-20402116D01*
X86869091Y-20342517D01*
X86834418Y-20249555D01*
X86818797Y-20207671D01*
X86818793Y-20207664D01*
X86732547Y-20092455D01*
X86732544Y-20092452D01*
X86617335Y-20006206D01*
X86617328Y-20006202D01*
X86482486Y-19955910D01*
X86482485Y-19955909D01*
X86482483Y-19955909D01*
X86422873Y-19949500D01*
X86422863Y-19949500D01*
X85802129Y-19949500D01*
X85802123Y-19949501D01*
X85742514Y-19955909D01*
X85717832Y-19965115D01*
X85648140Y-19970099D01*
X85586818Y-19936613D01*
X85553333Y-19875289D01*
X85550500Y-19848933D01*
X85550500Y-17616551D01*
X85570185Y-17549512D01*
X85574184Y-17543663D01*
X85578049Y-17538343D01*
X85582668Y-17529278D01*
X85635646Y-17425304D01*
X85635646Y-17425302D01*
X85635647Y-17425301D01*
X85646282Y-17358147D01*
X85650500Y-17331519D01*
X85650499Y-16868482D01*
X85635646Y-16774696D01*
X85578050Y-16661658D01*
X85578047Y-16661655D01*
X85578046Y-16661653D01*
X85574179Y-16656329D01*
X85550702Y-16590522D01*
X85550500Y-16583448D01*
X85550500Y-16297870D01*
X90149500Y-16297870D01*
X90149501Y-16297876D01*
X90155908Y-16357483D01*
X90206202Y-16492328D01*
X90206206Y-16492335D01*
X90292452Y-16607544D01*
X90292455Y-16607547D01*
X90407664Y-16693793D01*
X90407671Y-16693797D01*
X90542517Y-16744091D01*
X90542516Y-16744091D01*
X90549444Y-16744835D01*
X90602127Y-16750500D01*
X93697872Y-16750499D01*
X93757483Y-16744091D01*
X93834376Y-16715411D01*
X93904065Y-16710428D01*
X93965386Y-16743910D01*
X93965388Y-16743912D01*
X93965388Y-16743913D01*
X94413181Y-17191705D01*
X94446666Y-17253028D01*
X94449500Y-17279386D01*
X94449500Y-18451262D01*
X94447339Y-18514546D01*
X94447238Y-18517489D01*
X94457715Y-18560479D01*
X94458901Y-18566721D01*
X94464929Y-18610580D01*
X94472079Y-18627039D01*
X94478819Y-18647080D01*
X94483067Y-18664512D01*
X94504763Y-18703099D01*
X94507582Y-18708775D01*
X94525220Y-18749380D01*
X94525221Y-18749382D01*
X94536541Y-18763296D01*
X94548439Y-18780777D01*
X94557234Y-18796420D01*
X94557236Y-18796421D01*
X94588532Y-18827717D01*
X94592783Y-18832426D01*
X94620722Y-18866768D01*
X94635381Y-18877115D01*
X94651552Y-18890737D01*
X95034362Y-19273547D01*
X95354012Y-19593196D01*
X95387497Y-19654519D01*
X95382513Y-19724210D01*
X95340642Y-19780144D01*
X95309664Y-19797059D01*
X95196671Y-19839202D01*
X95196664Y-19839206D01*
X95081455Y-19925452D01*
X95081452Y-19925455D01*
X94995206Y-20040664D01*
X94995202Y-20040671D01*
X94944908Y-20175517D01*
X94939421Y-20226557D01*
X94938501Y-20235123D01*
X94938500Y-20235135D01*
X94938500Y-23330870D01*
X94938501Y-23330876D01*
X94944908Y-23390483D01*
X94995202Y-23525328D01*
X94995206Y-23525335D01*
X95081452Y-23640544D01*
X95081455Y-23640547D01*
X95196664Y-23726793D01*
X95196671Y-23726797D01*
X95331517Y-23777091D01*
X95331516Y-23777091D01*
X95338444Y-23777835D01*
X95391127Y-23783500D01*
X96586872Y-23783499D01*
X96646483Y-23777091D01*
X96781331Y-23726796D01*
X96896546Y-23640546D01*
X96982796Y-23525331D01*
X97033091Y-23390483D01*
X97039500Y-23330873D01*
X97039499Y-20235128D01*
X97033091Y-20175517D01*
X97031379Y-20170928D01*
X96982797Y-20040671D01*
X96982793Y-20040664D01*
X96896547Y-19925455D01*
X96896544Y-19925452D01*
X96781335Y-19839206D01*
X96781328Y-19839202D01*
X96646482Y-19788908D01*
X96638938Y-19787126D01*
X96639474Y-19784853D01*
X96585688Y-19762571D01*
X96545843Y-19705177D01*
X96539500Y-19666024D01*
X96539500Y-19459057D01*
X96539500Y-19459056D01*
X96541762Y-19392834D01*
X96531283Y-19349834D01*
X96530096Y-19343591D01*
X96527386Y-19323873D01*
X96524070Y-19299740D01*
X96516921Y-19283282D01*
X96510180Y-19263238D01*
X96505933Y-19245808D01*
X96498772Y-19233073D01*
X96484239Y-19207224D01*
X96481414Y-19201536D01*
X96474585Y-19185817D01*
X96463780Y-19160940D01*
X96452454Y-19147019D01*
X96440556Y-19129537D01*
X96431764Y-19113900D01*
X96400472Y-19082608D01*
X96396215Y-19077891D01*
X96368278Y-19043552D01*
X96353613Y-19033200D01*
X96337441Y-19019577D01*
X95586819Y-18268954D01*
X95553334Y-18207631D01*
X95550500Y-18181273D01*
X95550500Y-17009426D01*
X95550500Y-17009425D01*
X95552763Y-16943174D01*
X95542278Y-16900151D01*
X95541099Y-16893948D01*
X95535070Y-16850080D01*
X95527921Y-16833622D01*
X95521183Y-16813584D01*
X95516934Y-16796148D01*
X95495231Y-16757550D01*
X95492414Y-16751878D01*
X95474780Y-16711280D01*
X95463455Y-16697360D01*
X95451559Y-16679880D01*
X95442765Y-16664239D01*
X95442764Y-16664238D01*
X95427114Y-16648589D01*
X95411456Y-16632931D01*
X95407209Y-16628224D01*
X95401086Y-16620698D01*
X95379278Y-16593892D01*
X95364612Y-16583539D01*
X95348445Y-16569920D01*
X94395906Y-15617381D01*
X94385744Y-15606500D01*
X94350680Y-15568956D01*
X94338264Y-15561405D01*
X94312861Y-15545957D01*
X94307610Y-15542383D01*
X94272341Y-15515638D01*
X94272342Y-15515638D01*
X94255642Y-15509052D01*
X94236716Y-15499652D01*
X94221380Y-15490327D01*
X94178758Y-15478384D01*
X94172740Y-15476360D01*
X94131565Y-15460124D01*
X94131556Y-15460122D01*
X94113716Y-15458288D01*
X94092945Y-15454341D01*
X94084069Y-15451854D01*
X94024827Y-15414812D01*
X94018259Y-15406764D01*
X94007549Y-15392457D01*
X94007546Y-15392455D01*
X94007546Y-15392454D01*
X93955488Y-15353483D01*
X93892335Y-15306206D01*
X93892328Y-15306202D01*
X93757482Y-15255908D01*
X93757483Y-15255908D01*
X93697883Y-15249501D01*
X93697881Y-15249500D01*
X93697873Y-15249500D01*
X93697864Y-15249500D01*
X90602129Y-15249500D01*
X90602123Y-15249501D01*
X90542516Y-15255908D01*
X90407671Y-15306202D01*
X90407664Y-15306206D01*
X90292455Y-15392452D01*
X90292452Y-15392455D01*
X90206206Y-15507664D01*
X90206202Y-15507671D01*
X90162673Y-15624381D01*
X90155909Y-15642517D01*
X90149500Y-15702127D01*
X90149500Y-15702134D01*
X90149500Y-15702135D01*
X90149500Y-16297870D01*
X85550500Y-16297870D01*
X85550500Y-15790432D01*
X85570185Y-15723393D01*
X85622989Y-15677638D01*
X85631143Y-15674259D01*
X85705226Y-15646628D01*
X85814687Y-15564687D01*
X85896628Y-15455226D01*
X85944412Y-15327114D01*
X85946687Y-15305944D01*
X85950499Y-15270501D01*
X85950499Y-15270490D01*
X85950500Y-15270485D01*
X85950499Y-14729516D01*
X85944412Y-14672886D01*
X85931592Y-14638516D01*
X85926588Y-14625101D01*
X85896628Y-14544774D01*
X85814687Y-14435313D01*
X85734670Y-14375413D01*
X85705228Y-14353373D01*
X85705226Y-14353372D01*
X85577114Y-14305588D01*
X85577112Y-14305587D01*
X85577110Y-14305587D01*
X85520493Y-14299500D01*
X84679518Y-14299500D01*
X84679509Y-14299501D01*
X84622885Y-14305587D01*
X84494773Y-14353372D01*
X84385313Y-14435313D01*
X84303373Y-14544771D01*
X84255587Y-14672889D01*
X84249500Y-14729498D01*
X84249500Y-15270481D01*
X84249501Y-15270490D01*
X84255587Y-15327114D01*
X84282570Y-15399455D01*
X84303372Y-15455226D01*
X84385313Y-15564687D01*
X84494774Y-15646628D01*
X84622886Y-15694412D01*
X84638756Y-15696118D01*
X84703305Y-15722855D01*
X84743154Y-15780247D01*
X84749500Y-15819407D01*
X84749500Y-16482745D01*
X84729815Y-16549784D01*
X84713181Y-16570426D01*
X84621954Y-16661652D01*
X84621951Y-16661657D01*
X84621950Y-16661658D01*
X84610579Y-16683975D01*
X84564352Y-16774698D01*
X84549500Y-16868475D01*
X84549500Y-17331517D01*
X84558499Y-17388335D01*
X84564354Y-17425304D01*
X84621950Y-17538342D01*
X84711658Y-17628050D01*
X84711660Y-17628051D01*
X84713181Y-17629572D01*
X84746666Y-17690895D01*
X84749500Y-17717254D01*
X84749500Y-19827756D01*
X84729815Y-19894795D01*
X84677011Y-19940550D01*
X84612248Y-19951045D01*
X84597873Y-19949500D01*
X84597864Y-19949500D01*
X83977129Y-19949500D01*
X83977123Y-19949501D01*
X83917516Y-19955908D01*
X83782671Y-20006202D01*
X83782664Y-20006206D01*
X83667455Y-20092452D01*
X83667452Y-20092455D01*
X83581206Y-20207664D01*
X83581202Y-20207671D01*
X83530908Y-20342517D01*
X83524501Y-20402116D01*
X83524501Y-20402123D01*
X83524500Y-20402135D01*
X83524500Y-20833112D01*
X83504815Y-20900151D01*
X83488181Y-20920793D01*
X82335382Y-22073592D01*
X82286957Y-22118817D01*
X82263956Y-22156639D01*
X82260384Y-22161888D01*
X82233639Y-22197158D01*
X82233636Y-22197163D01*
X82227055Y-22213852D01*
X82217653Y-22232783D01*
X82208327Y-22248119D01*
X82196385Y-22290737D01*
X82194362Y-22296755D01*
X82178122Y-22337940D01*
X82176288Y-22355784D01*
X82172342Y-22376548D01*
X82167501Y-22393828D01*
X82167500Y-22393837D01*
X82167500Y-22438094D01*
X82167175Y-22444439D01*
X82162648Y-22488470D01*
X82162648Y-22488475D01*
X82165697Y-22506156D01*
X82167500Y-22527224D01*
X82167500Y-24558500D01*
X82147815Y-24625539D01*
X82095011Y-24671294D01*
X82043500Y-24682500D01*
X81393323Y-24682500D01*
X81320264Y-24697032D01*
X81320260Y-24697033D01*
X81237399Y-24752399D01*
X81182033Y-24835260D01*
X81182032Y-24835264D01*
X81167500Y-24908321D01*
X81167500Y-27016500D01*
X81147815Y-27083539D01*
X81095011Y-27129294D01*
X81043500Y-27140500D01*
X79498836Y-27140500D01*
X79431797Y-27120815D01*
X79386042Y-27068011D01*
X79376098Y-26998853D01*
X79405123Y-26935297D01*
X79429945Y-26913398D01*
X79447601Y-26901601D01*
X79502966Y-26818740D01*
X79517500Y-26745674D01*
X79517500Y-26096326D01*
X79517500Y-26096325D01*
X79517500Y-26096323D01*
X79517499Y-26096321D01*
X79502967Y-26023264D01*
X79502966Y-26023260D01*
X79465708Y-25967499D01*
X79447601Y-25940399D01*
X79429944Y-25928601D01*
X79385140Y-25874990D01*
X79376433Y-25805665D01*
X79406587Y-25742638D01*
X79466030Y-25705918D01*
X79498836Y-25701500D01*
X79857603Y-25701500D01*
X79923826Y-25703762D01*
X79966832Y-25693280D01*
X79973051Y-25692098D01*
X80016920Y-25686070D01*
X80033383Y-25678918D01*
X80053416Y-25672181D01*
X80070852Y-25667933D01*
X80109465Y-25646221D01*
X80115090Y-25643427D01*
X80155720Y-25625780D01*
X80169632Y-25614460D01*
X80187123Y-25602557D01*
X80202755Y-25593768D01*
X80202753Y-25593768D01*
X80202759Y-25593766D01*
X80234059Y-25562464D01*
X80238771Y-25558211D01*
X80273108Y-25530278D01*
X80283456Y-25515616D01*
X80297074Y-25499449D01*
X80684618Y-25111906D01*
X80733044Y-25066680D01*
X80756049Y-25028847D01*
X80759606Y-25023622D01*
X80786361Y-24988342D01*
X80792943Y-24971648D01*
X80802344Y-24952719D01*
X80811672Y-24937382D01*
X80823619Y-24894739D01*
X80825632Y-24888753D01*
X80841876Y-24847564D01*
X80843141Y-24835264D01*
X80843711Y-24829716D01*
X80847658Y-24808944D01*
X80852500Y-24791665D01*
X80852500Y-24747404D01*
X80852825Y-24741060D01*
X80857352Y-24697028D01*
X80854303Y-24679343D01*
X80852500Y-24658275D01*
X80852500Y-22786320D01*
X80872185Y-22719281D01*
X80902192Y-22687051D01*
X80909546Y-22681546D01*
X80995796Y-22566331D01*
X81046091Y-22431483D01*
X81052500Y-22371873D01*
X81052499Y-21326128D01*
X81046091Y-21266517D01*
X81040223Y-21250785D01*
X80995797Y-21131671D01*
X80995793Y-21131664D01*
X80909547Y-21016455D01*
X80909544Y-21016452D01*
X80794335Y-20930206D01*
X80794328Y-20930202D01*
X80659486Y-20879910D01*
X80659485Y-20879909D01*
X80659483Y-20879909D01*
X80599873Y-20873500D01*
X80599863Y-20873500D01*
X80004129Y-20873500D01*
X80004123Y-20873501D01*
X79944516Y-20879908D01*
X79809671Y-20930202D01*
X79809664Y-20930206D01*
X79694455Y-21016452D01*
X79694452Y-21016455D01*
X79608206Y-21131664D01*
X79608202Y-21131671D01*
X79557908Y-21266517D01*
X79551501Y-21326116D01*
X79551501Y-21326123D01*
X79551500Y-21326135D01*
X79551500Y-22371870D01*
X79551501Y-22371876D01*
X79557908Y-22431483D01*
X79608202Y-22566328D01*
X79608203Y-22566329D01*
X79608204Y-22566331D01*
X79679226Y-22661204D01*
X79694454Y-22681546D01*
X79701808Y-22687051D01*
X79743681Y-22742983D01*
X79751500Y-22786320D01*
X79751500Y-23473729D01*
X79731815Y-23540768D01*
X79679011Y-23586523D01*
X79609853Y-23596467D01*
X79546297Y-23567442D01*
X79508523Y-23508664D01*
X79505883Y-23497921D01*
X79502967Y-23483263D01*
X79502966Y-23483260D01*
X79490458Y-23464540D01*
X79447601Y-23400399D01*
X79364740Y-23345034D01*
X79364739Y-23345033D01*
X79364735Y-23345032D01*
X79291677Y-23330500D01*
X79291674Y-23330500D01*
X78342665Y-23330500D01*
X77345387Y-23330500D01*
X77278348Y-23310815D01*
X77257706Y-23294181D01*
X76951819Y-22988294D01*
X76918334Y-22926971D01*
X76915500Y-22900613D01*
X76915500Y-22786320D01*
X76935185Y-22719281D01*
X76965192Y-22687051D01*
X76972546Y-22681546D01*
X77058796Y-22566331D01*
X77109091Y-22431483D01*
X77115500Y-22371873D01*
X77115499Y-21326128D01*
X77109091Y-21266517D01*
X77103223Y-21250785D01*
X77058797Y-21131671D01*
X77058793Y-21131664D01*
X76972547Y-21016455D01*
X76972544Y-21016452D01*
X76857335Y-20930206D01*
X76857328Y-20930202D01*
X76722486Y-20879910D01*
X76722485Y-20879909D01*
X76722483Y-20879909D01*
X76662873Y-20873500D01*
X76662863Y-20873500D01*
X76067129Y-20873500D01*
X76067123Y-20873501D01*
X76007516Y-20879908D01*
X75872671Y-20930202D01*
X75872664Y-20930206D01*
X75757455Y-21016452D01*
X75757452Y-21016455D01*
X75671206Y-21131664D01*
X75671202Y-21131671D01*
X75620908Y-21266517D01*
X75614501Y-21326116D01*
X75614501Y-21326123D01*
X75614500Y-21326135D01*
X75614500Y-22371870D01*
X75614501Y-22371876D01*
X75620908Y-22431483D01*
X75671202Y-22566328D01*
X75671203Y-22566329D01*
X75671204Y-22566331D01*
X75742226Y-22661204D01*
X75757454Y-22681546D01*
X75764808Y-22687051D01*
X75806681Y-22742983D01*
X75814500Y-22786320D01*
X75814500Y-23170602D01*
X75812238Y-23236829D01*
X75822715Y-23279819D01*
X75823901Y-23286061D01*
X75829929Y-23329920D01*
X75837079Y-23346379D01*
X75843819Y-23366420D01*
X75848067Y-23383852D01*
X75869763Y-23422439D01*
X75872582Y-23428115D01*
X75883106Y-23452342D01*
X75890221Y-23468722D01*
X75901541Y-23482636D01*
X75913439Y-23500117D01*
X75922234Y-23515760D01*
X75922236Y-23515761D01*
X75953532Y-23547057D01*
X75957783Y-23551766D01*
X75985722Y-23586108D01*
X76000381Y-23596455D01*
X76016551Y-23610076D01*
X76670093Y-24263618D01*
X76715320Y-24312044D01*
X76753144Y-24335045D01*
X76758374Y-24338604D01*
X76793658Y-24365361D01*
X76801930Y-24368623D01*
X76810353Y-24371945D01*
X76829290Y-24381351D01*
X76844618Y-24390672D01*
X76887247Y-24402616D01*
X76893261Y-24404639D01*
X76899086Y-24406935D01*
X76934436Y-24420876D01*
X76952287Y-24422711D01*
X76973052Y-24426657D01*
X76990335Y-24431500D01*
X77034588Y-24431500D01*
X77040919Y-24431824D01*
X77043970Y-24432136D01*
X77047321Y-24432481D01*
X77111999Y-24458904D01*
X77152126Y-24516101D01*
X77154960Y-24585914D01*
X77119601Y-24646175D01*
X77103557Y-24658933D01*
X77086401Y-24670396D01*
X77031033Y-24753260D01*
X77031032Y-24753264D01*
X77016500Y-24826321D01*
X77016500Y-24826325D01*
X77016500Y-24826326D01*
X77016500Y-25475674D01*
X77016500Y-25475676D01*
X77016499Y-25475676D01*
X77025776Y-25522308D01*
X77019549Y-25591899D01*
X76976687Y-25647077D01*
X76910797Y-25670322D01*
X76904159Y-25670500D01*
X76367705Y-25670500D01*
X76349735Y-25669191D01*
X76325972Y-25665710D01*
X76280890Y-25669655D01*
X76273933Y-25670264D01*
X76268532Y-25670500D01*
X76260287Y-25670500D01*
X76234222Y-25673546D01*
X76227705Y-25674308D01*
X76222403Y-25674771D01*
X76151201Y-25681001D01*
X76144134Y-25682461D01*
X76144122Y-25682404D01*
X76136753Y-25684038D01*
X76136767Y-25684095D01*
X76129739Y-25685760D01*
X76065014Y-25709318D01*
X76057568Y-25712028D01*
X75984665Y-25736186D01*
X75984663Y-25736186D01*
X75984660Y-25736188D01*
X75978123Y-25739236D01*
X75978098Y-25739184D01*
X75971310Y-25742470D01*
X75971336Y-25742521D01*
X75964885Y-25745761D01*
X75900723Y-25787961D01*
X75835346Y-25828285D01*
X75829682Y-25832765D01*
X75829646Y-25832719D01*
X75823798Y-25837484D01*
X75823835Y-25837528D01*
X75818310Y-25842164D01*
X75818304Y-25842169D01*
X75818304Y-25842170D01*
X75787762Y-25874542D01*
X75765614Y-25898017D01*
X75564358Y-26099272D01*
X75550729Y-26111051D01*
X75531468Y-26125390D01*
X75497898Y-26165397D01*
X75494253Y-26169376D01*
X75488409Y-26175222D01*
X75468059Y-26200959D01*
X75418695Y-26259789D01*
X75414729Y-26265819D01*
X75414682Y-26265788D01*
X75410630Y-26272147D01*
X75410679Y-26272177D01*
X75406889Y-26278321D01*
X75374424Y-26347941D01*
X75339960Y-26416566D01*
X75337488Y-26423357D01*
X75337432Y-26423336D01*
X75334960Y-26430450D01*
X75335015Y-26430469D01*
X75332742Y-26437327D01*
X75324975Y-26474945D01*
X75317207Y-26512565D01*
X75304001Y-26568284D01*
X75299498Y-26587286D01*
X75298661Y-26594454D01*
X75298601Y-26594447D01*
X75297835Y-26601945D01*
X75297895Y-26601951D01*
X75297265Y-26609140D01*
X75299500Y-26685916D01*
X75299500Y-28986294D01*
X75298191Y-29004263D01*
X75294710Y-29028025D01*
X75299264Y-29080064D01*
X75299500Y-29085470D01*
X75299500Y-29093709D01*
X75303306Y-29126274D01*
X75310000Y-29202791D01*
X75311461Y-29209867D01*
X75311403Y-29209878D01*
X75313034Y-29217237D01*
X75313092Y-29217224D01*
X75314757Y-29224250D01*
X75341025Y-29296424D01*
X75365185Y-29369331D01*
X75368236Y-29375874D01*
X75368182Y-29375898D01*
X75371470Y-29382688D01*
X75371521Y-29382663D01*
X75374761Y-29389113D01*
X75374762Y-29389114D01*
X75374763Y-29389117D01*
X75416964Y-29453282D01*
X75416965Y-29453283D01*
X75457287Y-29518655D01*
X75461766Y-29524319D01*
X75461719Y-29524356D01*
X75466482Y-29530202D01*
X75466528Y-29530164D01*
X75471173Y-29535700D01*
X75527018Y-29588386D01*
X76541936Y-30603304D01*
X77549181Y-31610548D01*
X77582666Y-31671871D01*
X77585500Y-31698229D01*
X77585500Y-32970500D01*
X77565815Y-33037539D01*
X77513011Y-33083294D01*
X77461500Y-33094500D01*
X76338129Y-33094500D01*
X76338123Y-33094501D01*
X76278516Y-33100908D01*
X76143671Y-33151202D01*
X76143664Y-33151206D01*
X76028455Y-33237452D01*
X76028452Y-33237455D01*
X75942206Y-33352664D01*
X75942202Y-33352671D01*
X75891908Y-33487517D01*
X75885501Y-33547116D01*
X75885501Y-33547123D01*
X75885500Y-33547135D01*
X75885500Y-35042870D01*
X75885501Y-35042876D01*
X75891908Y-35102483D01*
X75942202Y-35237328D01*
X75942206Y-35237335D01*
X76028452Y-35352544D01*
X76028455Y-35352547D01*
X76143664Y-35438793D01*
X76143671Y-35438797D01*
X76278517Y-35489091D01*
X76278516Y-35489091D01*
X76285444Y-35489835D01*
X76338127Y-35495500D01*
X77461500Y-35495499D01*
X77528539Y-35515184D01*
X77574294Y-35567987D01*
X77585500Y-35619499D01*
X77585500Y-37301769D01*
X77565815Y-37368808D01*
X77549181Y-37389450D01*
X73514358Y-41424272D01*
X73500729Y-41436051D01*
X73481468Y-41450390D01*
X73447898Y-41490397D01*
X73444253Y-41494376D01*
X73438409Y-41500222D01*
X73418059Y-41525959D01*
X73368695Y-41584789D01*
X73364729Y-41590819D01*
X73364682Y-41590788D01*
X73360630Y-41597147D01*
X73360679Y-41597177D01*
X73356889Y-41603321D01*
X73324424Y-41672941D01*
X73289960Y-41741566D01*
X73287488Y-41748357D01*
X73287432Y-41748336D01*
X73284960Y-41755450D01*
X73285015Y-41755469D01*
X73282742Y-41762327D01*
X73278707Y-41781871D01*
X73267207Y-41837565D01*
X73254986Y-41889133D01*
X73249498Y-41912286D01*
X73248661Y-41919454D01*
X73248601Y-41919447D01*
X73247835Y-41926945D01*
X73247895Y-41926951D01*
X73247265Y-41934140D01*
X73249500Y-42010916D01*
X73249500Y-43669358D01*
X73249395Y-43672963D01*
X73245669Y-43736934D01*
X73245669Y-43736935D01*
X70050500Y-43736935D01*
X70050500Y-42209426D01*
X70052208Y-42159413D01*
X70052763Y-42143174D01*
X70042278Y-42100151D01*
X70041099Y-42093948D01*
X70035070Y-42050080D01*
X70027921Y-42033622D01*
X70021183Y-42013584D01*
X70016934Y-41996148D01*
X69995231Y-41957550D01*
X69992414Y-41951878D01*
X69974780Y-41911280D01*
X69963455Y-41897360D01*
X69951559Y-41879880D01*
X69942765Y-41864239D01*
X69942764Y-41864238D01*
X69923853Y-41845328D01*
X69911456Y-41832931D01*
X69907209Y-41828224D01*
X69890317Y-41807461D01*
X69879278Y-41793892D01*
X69864612Y-41783539D01*
X69848445Y-41769920D01*
X67522819Y-39444294D01*
X67489334Y-39382971D01*
X67486500Y-39356613D01*
X67486500Y-27958654D01*
X67506185Y-27891615D01*
X67558989Y-27845860D01*
X67583246Y-27839205D01*
X67582932Y-27837876D01*
X67590479Y-27836092D01*
X67590481Y-27836091D01*
X67590483Y-27836091D01*
X67725331Y-27785796D01*
X67840546Y-27699546D01*
X67926796Y-27584331D01*
X67977091Y-27449483D01*
X67983500Y-27389873D01*
X67983499Y-26769128D01*
X67977091Y-26709517D01*
X67968288Y-26685916D01*
X67926797Y-26574671D01*
X67926793Y-26574664D01*
X67840547Y-26459455D01*
X67840544Y-26459452D01*
X67725335Y-26373206D01*
X67725328Y-26373202D01*
X67590482Y-26322908D01*
X67590483Y-26322908D01*
X67530883Y-26316501D01*
X67530881Y-26316500D01*
X67530873Y-26316500D01*
X67530864Y-26316500D01*
X66535129Y-26316500D01*
X66535123Y-26316501D01*
X66475516Y-26322908D01*
X66340671Y-26373202D01*
X66340664Y-26373206D01*
X66225455Y-26459452D01*
X66225452Y-26459455D01*
X66139206Y-26574664D01*
X66139202Y-26574671D01*
X66088910Y-26709513D01*
X66088909Y-26709517D01*
X66082500Y-26769127D01*
X66082500Y-26769134D01*
X66082500Y-26769135D01*
X66082500Y-27389870D01*
X66082501Y-27389876D01*
X66088908Y-27449483D01*
X66139202Y-27584328D01*
X66139206Y-27584335D01*
X66225452Y-27699544D01*
X66225455Y-27699547D01*
X66335811Y-27782160D01*
X66377682Y-27838093D01*
X66385500Y-27881426D01*
X66385500Y-39626602D01*
X66383238Y-39692829D01*
X66393715Y-39735819D01*
X66394901Y-39742061D01*
X66400929Y-39785920D01*
X66408079Y-39802379D01*
X66414819Y-39822420D01*
X66419067Y-39839852D01*
X66440763Y-39878439D01*
X66443582Y-39884115D01*
X66448309Y-39894996D01*
X66461221Y-39924722D01*
X66472541Y-39938636D01*
X66484439Y-39956117D01*
X66493234Y-39971760D01*
X66493236Y-39971761D01*
X66524532Y-40003057D01*
X66528783Y-40007766D01*
X66556722Y-40042108D01*
X66571381Y-40052455D01*
X66587552Y-40066077D01*
X68913181Y-42391706D01*
X68946666Y-42453029D01*
X68949500Y-42479387D01*
X68949500Y-44859112D01*
X68929815Y-44926151D01*
X68877011Y-44971906D01*
X68807853Y-44981850D01*
X68744297Y-44952825D01*
X68737819Y-44946793D01*
X64986818Y-41195792D01*
X64953333Y-41134469D01*
X64950499Y-41108111D01*
X64950499Y-40677129D01*
X64950498Y-40677123D01*
X64950396Y-40676178D01*
X64944091Y-40617517D01*
X64942077Y-40612118D01*
X64893797Y-40482671D01*
X64893793Y-40482664D01*
X64807547Y-40367455D01*
X64807544Y-40367452D01*
X64692335Y-40281206D01*
X64692328Y-40281202D01*
X64557482Y-40230908D01*
X64557483Y-40230908D01*
X64497883Y-40224501D01*
X64497881Y-40224500D01*
X64497873Y-40224500D01*
X64497864Y-40224500D01*
X63502129Y-40224500D01*
X63502123Y-40224501D01*
X63442516Y-40230908D01*
X63307671Y-40281202D01*
X63307664Y-40281206D01*
X63192455Y-40367452D01*
X63192452Y-40367455D01*
X63106206Y-40482664D01*
X63101953Y-40490454D01*
X63100232Y-40489514D01*
X63065162Y-40536351D01*
X62999695Y-40560760D01*
X62931424Y-40545900D01*
X62882025Y-40496489D01*
X62874680Y-40480402D01*
X62874029Y-40478657D01*
X62871796Y-40472669D01*
X62871794Y-40472666D01*
X62871793Y-40472664D01*
X62785547Y-40357455D01*
X62785544Y-40357452D01*
X62670335Y-40271206D01*
X62670328Y-40271202D01*
X62584166Y-40239066D01*
X62528232Y-40197195D01*
X62503815Y-40131730D01*
X62503500Y-40122911D01*
X62503500Y-25564870D01*
X66082500Y-25564870D01*
X66082501Y-25564876D01*
X66088908Y-25624483D01*
X66139202Y-25759328D01*
X66139206Y-25759335D01*
X66225452Y-25874544D01*
X66225455Y-25874547D01*
X66340664Y-25960793D01*
X66340671Y-25960797D01*
X66475517Y-26011091D01*
X66475516Y-26011091D01*
X66482444Y-26011835D01*
X66535127Y-26017500D01*
X67530872Y-26017499D01*
X67590483Y-26011091D01*
X67725331Y-25960796D01*
X67840546Y-25874546D01*
X67869326Y-25836101D01*
X67883485Y-25817188D01*
X67939419Y-25775318D01*
X67982751Y-25767500D01*
X69016680Y-25767500D01*
X69083719Y-25787185D01*
X69115948Y-25817191D01*
X69121454Y-25824546D01*
X69138016Y-25836944D01*
X69236664Y-25910793D01*
X69236671Y-25910797D01*
X69371517Y-25961091D01*
X69371516Y-25961091D01*
X69378444Y-25961835D01*
X69431127Y-25967500D01*
X70476872Y-25967499D01*
X70536483Y-25961091D01*
X70671331Y-25910796D01*
X70786546Y-25824546D01*
X70841461Y-25751188D01*
X70897396Y-25709318D01*
X70940728Y-25701500D01*
X73841676Y-25701500D01*
X73841677Y-25701499D01*
X73914740Y-25686966D01*
X73997601Y-25631601D01*
X74052966Y-25548740D01*
X74067500Y-25475674D01*
X74067500Y-24826326D01*
X74067500Y-24826323D01*
X74067499Y-24826321D01*
X74052967Y-24753264D01*
X74052966Y-24753260D01*
X74027842Y-24715659D01*
X73997601Y-24670399D01*
X73980441Y-24658933D01*
X73925470Y-24622203D01*
X73880665Y-24568591D01*
X73871958Y-24499266D01*
X73902112Y-24436239D01*
X73961555Y-24399519D01*
X73964964Y-24398636D01*
X73967852Y-24397933D01*
X74006465Y-24376221D01*
X74012090Y-24373427D01*
X74052720Y-24355780D01*
X74066632Y-24344460D01*
X74084123Y-24332557D01*
X74099755Y-24323768D01*
X74099753Y-24323768D01*
X74099759Y-24323766D01*
X74131059Y-24292464D01*
X74135771Y-24288211D01*
X74170108Y-24260278D01*
X74180456Y-24245616D01*
X74194074Y-24229449D01*
X74847618Y-23575906D01*
X74896044Y-23530680D01*
X74919049Y-23492847D01*
X74922606Y-23487622D01*
X74949361Y-23452342D01*
X74955943Y-23435648D01*
X74965344Y-23416719D01*
X74974672Y-23401382D01*
X74986619Y-23358739D01*
X74988632Y-23352753D01*
X75004876Y-23311564D01*
X75006711Y-23293716D01*
X75010658Y-23272944D01*
X75015500Y-23255665D01*
X75015500Y-23211404D01*
X75015825Y-23205060D01*
X75020352Y-23161028D01*
X75017303Y-23143343D01*
X75015500Y-23122275D01*
X75015500Y-22786320D01*
X75035185Y-22719281D01*
X75065192Y-22687051D01*
X75072546Y-22681546D01*
X75158796Y-22566331D01*
X75209091Y-22431483D01*
X75215500Y-22371873D01*
X75215499Y-21326128D01*
X75209091Y-21266517D01*
X75203223Y-21250785D01*
X75158797Y-21131671D01*
X75158793Y-21131664D01*
X75072547Y-21016455D01*
X75072544Y-21016452D01*
X74957335Y-20930206D01*
X74957328Y-20930202D01*
X74822486Y-20879910D01*
X74822485Y-20879909D01*
X74822483Y-20879909D01*
X74762873Y-20873500D01*
X74762863Y-20873500D01*
X74167129Y-20873500D01*
X74167123Y-20873501D01*
X74107516Y-20879908D01*
X73972671Y-20930202D01*
X73972664Y-20930206D01*
X73857455Y-21016452D01*
X73857452Y-21016455D01*
X73771206Y-21131664D01*
X73771202Y-21131671D01*
X73720908Y-21266517D01*
X73714501Y-21326116D01*
X73714501Y-21326123D01*
X73714500Y-21326135D01*
X73714500Y-22371870D01*
X73714501Y-22371876D01*
X73720908Y-22431483D01*
X73771202Y-22566328D01*
X73771203Y-22566329D01*
X73771204Y-22566331D01*
X73842226Y-22661204D01*
X73857454Y-22681546D01*
X73864808Y-22687051D01*
X73906681Y-22742983D01*
X73914500Y-22786320D01*
X73914500Y-22900612D01*
X73894815Y-22967651D01*
X73878181Y-22988293D01*
X73572294Y-23294181D01*
X73510971Y-23327666D01*
X73484613Y-23330500D01*
X71792323Y-23330500D01*
X71719264Y-23345032D01*
X71719260Y-23345033D01*
X71636399Y-23400399D01*
X71581033Y-23483260D01*
X71581032Y-23483264D01*
X71566500Y-23556321D01*
X71566500Y-24205678D01*
X71581032Y-24278735D01*
X71581033Y-24278739D01*
X71636399Y-24361601D01*
X71654055Y-24373398D01*
X71698860Y-24427010D01*
X71707567Y-24496335D01*
X71677413Y-24559362D01*
X71617970Y-24596082D01*
X71585164Y-24600500D01*
X70815857Y-24600500D01*
X70748818Y-24580815D01*
X70741546Y-24575767D01*
X70726068Y-24564180D01*
X70671331Y-24523204D01*
X70671329Y-24523203D01*
X70671328Y-24523202D01*
X70536482Y-24472908D01*
X70536483Y-24472908D01*
X70476883Y-24466501D01*
X70476881Y-24466500D01*
X70476873Y-24466500D01*
X70476864Y-24466500D01*
X69431129Y-24466500D01*
X69431123Y-24466501D01*
X69371516Y-24472908D01*
X69236671Y-24523202D01*
X69236664Y-24523206D01*
X69121457Y-24609451D01*
X69121451Y-24609457D01*
X69115948Y-24616809D01*
X69060015Y-24658681D01*
X69016680Y-24666500D01*
X67923954Y-24666500D01*
X67856915Y-24646815D01*
X67847842Y-24639504D01*
X67847645Y-24639768D01*
X67725335Y-24548206D01*
X67725328Y-24548202D01*
X67590482Y-24497908D01*
X67590483Y-24497908D01*
X67530883Y-24491501D01*
X67530881Y-24491500D01*
X67530873Y-24491500D01*
X67530864Y-24491500D01*
X66535129Y-24491500D01*
X66535123Y-24491501D01*
X66475516Y-24497908D01*
X66340671Y-24548202D01*
X66340664Y-24548206D01*
X66225455Y-24634452D01*
X66225452Y-24634455D01*
X66139206Y-24749664D01*
X66139202Y-24749671D01*
X66096396Y-24864443D01*
X66088909Y-24884517D01*
X66082500Y-24944127D01*
X66082500Y-24944134D01*
X66082500Y-24944135D01*
X66082500Y-25564870D01*
X62503500Y-25564870D01*
X62503500Y-18099197D01*
X62505762Y-18032974D01*
X62495283Y-17989974D01*
X62494096Y-17983731D01*
X62491239Y-17962944D01*
X62488070Y-17939880D01*
X62480921Y-17923422D01*
X62474180Y-17903378D01*
X62469933Y-17885948D01*
X62448238Y-17847364D01*
X62445414Y-17841678D01*
X62427780Y-17801080D01*
X62427780Y-17801079D01*
X62416458Y-17787163D01*
X62404557Y-17769676D01*
X62395768Y-17754044D01*
X62395767Y-17754043D01*
X62395766Y-17754041D01*
X62364456Y-17722731D01*
X62360210Y-17718025D01*
X62339266Y-17692282D01*
X62332278Y-17683692D01*
X62317612Y-17673339D01*
X62301445Y-17659720D01*
X60266106Y-15624381D01*
X60246647Y-15603546D01*
X60220880Y-15575956D01*
X60202348Y-15564686D01*
X60183061Y-15552957D01*
X60177810Y-15549383D01*
X60142541Y-15522638D01*
X60142542Y-15522638D01*
X60125842Y-15516052D01*
X60106916Y-15506652D01*
X60091580Y-15497327D01*
X60048958Y-15485384D01*
X60042940Y-15483360D01*
X60001765Y-15467124D01*
X60001756Y-15467122D01*
X59983916Y-15465288D01*
X59963151Y-15461342D01*
X59945869Y-15456500D01*
X59945865Y-15456500D01*
X59901606Y-15456500D01*
X59895264Y-15456175D01*
X59867627Y-15453333D01*
X59851229Y-15451648D01*
X59851224Y-15451648D01*
X59833544Y-15454697D01*
X59812476Y-15456500D01*
X58826320Y-15456500D01*
X58759281Y-15436815D01*
X58727052Y-15406809D01*
X58721548Y-15399457D01*
X58721546Y-15399454D01*
X58660137Y-15353483D01*
X58606335Y-15313206D01*
X58606328Y-15313202D01*
X58471482Y-15262908D01*
X58471483Y-15262908D01*
X58411883Y-15256501D01*
X58411881Y-15256500D01*
X58411873Y-15256500D01*
X58411864Y-15256500D01*
X57366129Y-15256500D01*
X57366123Y-15256501D01*
X57306516Y-15262908D01*
X57171671Y-15313202D01*
X57171664Y-15313206D01*
X57056455Y-15399452D01*
X57056452Y-15399455D01*
X56970206Y-15514664D01*
X56970204Y-15514668D01*
X56970204Y-15514669D01*
X56966039Y-15525834D01*
X56924171Y-15581766D01*
X56858707Y-15606184D01*
X56849859Y-15606500D01*
X56783315Y-15606500D01*
X56716276Y-15586815D01*
X56670521Y-15534011D01*
X56660577Y-15464853D01*
X56667133Y-15439167D01*
X56676217Y-15414812D01*
X56699091Y-15353483D01*
X56705500Y-15293873D01*
X56705499Y-14698128D01*
X56699091Y-14638517D01*
X56696399Y-14631300D01*
X56648797Y-14503671D01*
X56648793Y-14503664D01*
X56562547Y-14388455D01*
X56562544Y-14388452D01*
X56447335Y-14302206D01*
X56447328Y-14302202D01*
X56305215Y-14249198D01*
X56305992Y-14247113D01*
X56255064Y-14218111D01*
X56222682Y-14156199D01*
X56220300Y-14132012D01*
X56220300Y-11970481D01*
X84249500Y-11970481D01*
X84249501Y-11970490D01*
X84255587Y-12027114D01*
X84275317Y-12080009D01*
X84303372Y-12155226D01*
X84385313Y-12264687D01*
X84494774Y-12346628D01*
X84622886Y-12394412D01*
X84679515Y-12400500D01*
X85520484Y-12400499D01*
X85577114Y-12394412D01*
X85705226Y-12346628D01*
X85814687Y-12264687D01*
X85896628Y-12155226D01*
X85944412Y-12027114D01*
X85946687Y-12005944D01*
X85950499Y-11970501D01*
X85950499Y-11970490D01*
X85950500Y-11970485D01*
X85950499Y-11429516D01*
X85944412Y-11372886D01*
X85941085Y-11363967D01*
X85914802Y-11293499D01*
X85896628Y-11244774D01*
X85814687Y-11135313D01*
X85705226Y-11053372D01*
X85705223Y-11053370D01*
X85682165Y-11044770D01*
X85626232Y-11002898D01*
X85601816Y-10937433D01*
X85601500Y-10928589D01*
X85601500Y-9897320D01*
X85621185Y-9830281D01*
X85651192Y-9798051D01*
X85658546Y-9792546D01*
X85744796Y-9677331D01*
X85795091Y-9542483D01*
X85801500Y-9482873D01*
X85801499Y-6387128D01*
X85795091Y-6327517D01*
X85793402Y-6322989D01*
X85744797Y-6192671D01*
X85744793Y-6192664D01*
X85658547Y-6077455D01*
X85658544Y-6077452D01*
X85543335Y-5991206D01*
X85543328Y-5991202D01*
X85408486Y-5940910D01*
X85408485Y-5940909D01*
X85408483Y-5940909D01*
X85348873Y-5934500D01*
X85348863Y-5934500D01*
X84753129Y-5934500D01*
X84753123Y-5934501D01*
X84693516Y-5940908D01*
X84558671Y-5991202D01*
X84558664Y-5991206D01*
X84443455Y-6077452D01*
X84443452Y-6077455D01*
X84357206Y-6192664D01*
X84357202Y-6192671D01*
X84306908Y-6327517D01*
X84300504Y-6387087D01*
X84300501Y-6387123D01*
X84300500Y-6387135D01*
X84300500Y-9482870D01*
X84300501Y-9482876D01*
X84306908Y-9542483D01*
X84357202Y-9677328D01*
X84357203Y-9677329D01*
X84357204Y-9677331D01*
X84407539Y-9744570D01*
X84443454Y-9792546D01*
X84450808Y-9798051D01*
X84492681Y-9853983D01*
X84500500Y-9897320D01*
X84500500Y-10987015D01*
X84480815Y-11054054D01*
X84450811Y-11086282D01*
X84385313Y-11135313D01*
X84303373Y-11244771D01*
X84255587Y-11372889D01*
X84249500Y-11429498D01*
X84249500Y-11970481D01*
X56220300Y-11970481D01*
X56220300Y-11250694D01*
X56239985Y-11183655D01*
X56269990Y-11151426D01*
X56288982Y-11137209D01*
X56293687Y-11133687D01*
X56375628Y-11024226D01*
X56423412Y-10896114D01*
X56426041Y-10871656D01*
X56429499Y-10839501D01*
X56429498Y-10839494D01*
X56429500Y-10839485D01*
X56429499Y-9998516D01*
X56423412Y-9941886D01*
X56417736Y-9926669D01*
X56393124Y-9860682D01*
X56375628Y-9813774D01*
X56293687Y-9704313D01*
X56221037Y-9649928D01*
X56184228Y-9622373D01*
X56184226Y-9622372D01*
X56056114Y-9574588D01*
X56056112Y-9574587D01*
X56056110Y-9574587D01*
X55999493Y-9568500D01*
X55458518Y-9568500D01*
X55458490Y-9568502D01*
X55457536Y-9568605D01*
X55457316Y-9568565D01*
X55455194Y-9568679D01*
X55455167Y-9568177D01*
X55388778Y-9556190D01*
X55337648Y-9508572D01*
X55320299Y-9445314D01*
X55320300Y-6572597D01*
X55322562Y-6506374D01*
X55312083Y-6463374D01*
X55310896Y-6457131D01*
X55304870Y-6413282D01*
X55304870Y-6413280D01*
X55300023Y-6402121D01*
X55297721Y-6396822D01*
X55290980Y-6376778D01*
X55286733Y-6359348D01*
X55265038Y-6320764D01*
X55262214Y-6315078D01*
X55244580Y-6274480D01*
X55244580Y-6274479D01*
X55233258Y-6260563D01*
X55221357Y-6243076D01*
X55212568Y-6227444D01*
X55212567Y-6227443D01*
X55212566Y-6227441D01*
X55181256Y-6196131D01*
X55177010Y-6191425D01*
X55169612Y-6182332D01*
X55149078Y-6157092D01*
X55134412Y-6146739D01*
X55118245Y-6133120D01*
X53306506Y-4321381D01*
X53306506Y-4321380D01*
X53261280Y-4272956D01*
X53248864Y-4265405D01*
X53223461Y-4249957D01*
X53218210Y-4246383D01*
X53182941Y-4219638D01*
X53182942Y-4219638D01*
X53166242Y-4213052D01*
X53147316Y-4203652D01*
X53131980Y-4194327D01*
X53089358Y-4182384D01*
X53083340Y-4180360D01*
X53042165Y-4164124D01*
X53042156Y-4164122D01*
X53024316Y-4162288D01*
X53003551Y-4158342D01*
X52986269Y-4153500D01*
X52986265Y-4153500D01*
X52942006Y-4153500D01*
X52935664Y-4153175D01*
X52908027Y-4150333D01*
X52891629Y-4148648D01*
X52891624Y-4148648D01*
X52873944Y-4151697D01*
X52852876Y-4153500D01*
X51928300Y-4153500D01*
X51861261Y-4133815D01*
X51815506Y-4081011D01*
X51804300Y-4029500D01*
X51804300Y-3679323D01*
X51804299Y-3679321D01*
X51789767Y-3606264D01*
X51789766Y-3606260D01*
X51789765Y-3606260D01*
X51734401Y-3523399D01*
X51651540Y-3468034D01*
X51651539Y-3468033D01*
X51651535Y-3468032D01*
X51578477Y-3453500D01*
X51578474Y-3453500D01*
X49929126Y-3453500D01*
X49929123Y-3453500D01*
X49856064Y-3468032D01*
X49856060Y-3468033D01*
X49773199Y-3523399D01*
X49717833Y-3606260D01*
X49717832Y-3606264D01*
X49703300Y-3679321D01*
X49703300Y-5728678D01*
X46357646Y-5728678D01*
X47695505Y-4390819D01*
X47756829Y-4357334D01*
X47783187Y-4354500D01*
X48678476Y-4354500D01*
X48678477Y-4354499D01*
X48751540Y-4339966D01*
X48834401Y-4284601D01*
X48889766Y-4201740D01*
X48904300Y-4128674D01*
X48904300Y-2779326D01*
X48904300Y-2779323D01*
X48904299Y-2779321D01*
X48889767Y-2706264D01*
X48889766Y-2706260D01*
X48834401Y-2623399D01*
X48751540Y-2568034D01*
X48751539Y-2568033D01*
X48751535Y-2568032D01*
X48678477Y-2553500D01*
X48678474Y-2553500D01*
X47029126Y-2553500D01*
X47029123Y-2553500D01*
X46956064Y-2568032D01*
X46956060Y-2568033D01*
X46873199Y-2623399D01*
X46817833Y-2706260D01*
X46817832Y-2706264D01*
X46803300Y-2779321D01*
X46803300Y-3674612D01*
X46783615Y-3741651D01*
X46766981Y-3762293D01*
X41199581Y-9329693D01*
X41151157Y-9374917D01*
X41128156Y-9412739D01*
X41124584Y-9417988D01*
X41097839Y-9453258D01*
X41097836Y-9453263D01*
X41091255Y-9469952D01*
X41081853Y-9488883D01*
X41072527Y-9504219D01*
X41060585Y-9546837D01*
X41058562Y-9552855D01*
X41042322Y-9594040D01*
X41040488Y-9611884D01*
X41036542Y-9632648D01*
X41031701Y-9649928D01*
X41031700Y-9649937D01*
X41031700Y-9694194D01*
X41031375Y-9700539D01*
X41026848Y-9744570D01*
X41026848Y-9744575D01*
X41029897Y-9762256D01*
X41031700Y-9783324D01*
X41031700Y-12012970D01*
X41012015Y-12080009D01*
X40959211Y-12125764D01*
X40890053Y-12135708D01*
X40826497Y-12106683D01*
X40820019Y-12100651D01*
X33733729Y-5014361D01*
X33721949Y-5000730D01*
X33714482Y-4990701D01*
X33707612Y-4981472D01*
X33702303Y-4977017D01*
X33667587Y-4947886D01*
X33663612Y-4944244D01*
X33660690Y-4941322D01*
X33657780Y-4938411D01*
X33632040Y-4918059D01*
X33573209Y-4868694D01*
X33567180Y-4864729D01*
X33567212Y-4864680D01*
X33560853Y-4860628D01*
X33560822Y-4860679D01*
X33554680Y-4856891D01*
X33554678Y-4856890D01*
X33554677Y-4856889D01*
X33515474Y-4838608D01*
X33485058Y-4824424D01*
X33450894Y-4807267D01*
X33416433Y-4789960D01*
X33416431Y-4789959D01*
X33416430Y-4789959D01*
X33409645Y-4787489D01*
X33409665Y-4787433D01*
X33402549Y-4784959D01*
X33402531Y-4785015D01*
X33395671Y-4782742D01*
X33367841Y-4776996D01*
X33320434Y-4767207D01*
X33271472Y-4755603D01*
X33245719Y-4749499D01*
X33238547Y-4748661D01*
X33238553Y-4748601D01*
X33231055Y-4747835D01*
X33231050Y-4747895D01*
X33223860Y-4747265D01*
X33147083Y-4749500D01*
X18513705Y-4749500D01*
X18495735Y-4748191D01*
X18471972Y-4744710D01*
X18426890Y-4748655D01*
X18419933Y-4749264D01*
X18414532Y-4749500D01*
X18406287Y-4749500D01*
X18380222Y-4752546D01*
X18373705Y-4753308D01*
X18368403Y-4753771D01*
X18297201Y-4760001D01*
X18290134Y-4761461D01*
X18290122Y-4761404D01*
X18282753Y-4763038D01*
X18282767Y-4763095D01*
X18275739Y-4764760D01*
X18206505Y-4789959D01*
X18203568Y-4791028D01*
X18130665Y-4815186D01*
X18130663Y-4815186D01*
X18130660Y-4815188D01*
X18124123Y-4818236D01*
X18124098Y-4818184D01*
X18117310Y-4821470D01*
X18117336Y-4821521D01*
X18110885Y-4824761D01*
X18046723Y-4866961D01*
X17981346Y-4907285D01*
X17975682Y-4911765D01*
X17975646Y-4911719D01*
X17969798Y-4916484D01*
X17969835Y-4916528D01*
X17964310Y-4921164D01*
X17911614Y-4977017D01*
X16789490Y-6099140D01*
X16728167Y-6132625D01*
X16658475Y-6127641D01*
X16616402Y-6096145D01*
X16613820Y-6098728D01*
X16607548Y-6092457D01*
X16607546Y-6092454D01*
X16587506Y-6077452D01*
X16492335Y-6006206D01*
X16492328Y-6006202D01*
X16357486Y-5955910D01*
X16357485Y-5955909D01*
X16357483Y-5955909D01*
X16297873Y-5949500D01*
X16297863Y-5949500D01*
X15702129Y-5949500D01*
X15702123Y-5949501D01*
X15642516Y-5955908D01*
X15507671Y-6006202D01*
X15507664Y-6006206D01*
X15392455Y-6092452D01*
X15392452Y-6092455D01*
X15306206Y-6207664D01*
X15306202Y-6207671D01*
X15255908Y-6342517D01*
X15249501Y-6402116D01*
X15249500Y-6402135D01*
X15249500Y-7860655D01*
X15247835Y-7876945D01*
X15247895Y-7876951D01*
X15247265Y-7884140D01*
X15249500Y-7960916D01*
X15249500Y-11093876D01*
X15241682Y-11137209D01*
X15224708Y-11182717D01*
X15218301Y-11242316D01*
X15218300Y-11242335D01*
X15218300Y-12288070D01*
X15218301Y-12288076D01*
X15224708Y-12347683D01*
X15241682Y-12393190D01*
X15249500Y-12436523D01*
X15249500Y-13009658D01*
X15229815Y-13076697D01*
X15199813Y-13108923D01*
X15171458Y-13130149D01*
X15171451Y-13130157D01*
X15085206Y-13245364D01*
X15085202Y-13245371D01*
X15034910Y-13380213D01*
X15034909Y-13380217D01*
X15028500Y-13439827D01*
X15028500Y-13439834D01*
X15028500Y-13439835D01*
X15028500Y-14060570D01*
X500Y-14060570D01*
X500Y-124500D01*
X20185Y-57461D01*
X72989Y-11706D01*
X124500Y-500D01*
X99875500Y-500D01*
X99942539Y-20185D01*
G37*
%TD.AperFunction*%
%TD*%
M02*
