%TF.GenerationSoftware,KiCad,Pcbnew,7.0.7*%
%TF.CreationDate,2023-10-17T16:06:10-04:00*%
%TF.ProjectId,MicAmp,4d696341-6d70-42e6-9b69-6361645f7063,rev?*%
%TF.SameCoordinates,PX42c1d80PY2625a00*%
%TF.FileFunction,Drillmap*%
%TF.FilePolarity,Positive*%
%FSLAX45Y45*%
G04 Gerber Fmt 4.5, Leading zero omitted, Abs format (unit mm)*
G04 Created by KiCad (PCBNEW 7.0.7) date 2023-10-17 16:06:10*
%MOMM*%
%LPD*%
G01*
G04 APERTURE LIST*
%ADD10C,0.100000*%
%ADD11C,0.200000*%
%ADD12C,0.040000*%
%ADD13C,0.076200*%
%ADD14C,0.320000*%
%ADD15C,0.150000*%
G04 APERTURE END LIST*
D10*
X10000000Y0D02*
X10000000Y-5500000D01*
X0Y0D02*
X10000000Y0D01*
X0Y-5500000D02*
X0Y0D01*
X10000000Y-5500000D02*
X0Y-5500000D01*
D11*
D12*
X104700Y-4108000D02*
X144700Y-4148000D01*
X144700Y-4108000D02*
X104700Y-4148000D01*
X130100Y-3498400D02*
X170100Y-3538400D01*
X170100Y-3498400D02*
X130100Y-3538400D01*
X180000Y-2280000D02*
X220000Y-2320000D01*
X220000Y-2280000D02*
X180000Y-2320000D01*
X280000Y-2680000D02*
X320000Y-2720000D01*
X320000Y-2680000D02*
X280000Y-2720000D01*
X762560Y-3335840D02*
X802560Y-3375840D01*
X802560Y-3335840D02*
X762560Y-3375840D01*
X780000Y-3880000D02*
X820000Y-3920000D01*
X820000Y-3880000D02*
X780000Y-3920000D01*
X880000Y-180000D02*
X920000Y-220000D01*
X920000Y-180000D02*
X880000Y-220000D01*
X904800Y-2253800D02*
X944800Y-2293800D01*
X944800Y-2253800D02*
X904800Y-2293800D01*
X1080000Y-4480000D02*
X1120000Y-4520000D01*
X1120000Y-4480000D02*
X1080000Y-4520000D01*
X1380000Y-5280000D02*
X1420000Y-5320000D01*
X1420000Y-5280000D02*
X1380000Y-5320000D01*
X1433120Y-3808280D02*
X1473120Y-3848280D01*
X1473120Y-3808280D02*
X1433120Y-3848280D01*
X1458520Y-3112320D02*
X1498520Y-3152320D01*
X1498520Y-3112320D02*
X1458520Y-3152320D01*
X1480000Y-180000D02*
X1520000Y-220000D01*
X1520000Y-180000D02*
X1480000Y-220000D01*
X1699820Y-3914960D02*
X1739820Y-3954960D01*
X1739820Y-3914960D02*
X1699820Y-3954960D01*
X1980000Y-2180000D02*
X2020000Y-2220000D01*
X2020000Y-2180000D02*
X1980000Y-2220000D01*
X1980000Y-2680000D02*
X2020000Y-2720000D01*
X2020000Y-2680000D02*
X1980000Y-2720000D01*
X2480000Y-180000D02*
X2520000Y-220000D01*
X2520000Y-180000D02*
X2480000Y-220000D01*
X3080000Y-4580000D02*
X3120000Y-4620000D01*
X3120000Y-4580000D02*
X3080000Y-4620000D01*
X3080000Y-5280000D02*
X3120000Y-5320000D01*
X3120000Y-5280000D02*
X3080000Y-5320000D01*
X5180000Y-3480000D02*
X5220000Y-3520000D01*
X5220000Y-3480000D02*
X5180000Y-3520000D01*
X5180000Y-4080000D02*
X5220000Y-4120000D01*
X5220000Y-4080000D02*
X5180000Y-4120000D01*
X5480000Y-5280000D02*
X5520000Y-5320000D01*
X5520000Y-5280000D02*
X5480000Y-5320000D01*
X5880000Y-3480000D02*
X5920000Y-3520000D01*
X5920000Y-3480000D02*
X5880000Y-3520000D01*
X5880000Y-4080000D02*
X5920000Y-4120000D01*
X5920000Y-4080000D02*
X5880000Y-4120000D01*
X6380000Y-3080000D02*
X6420000Y-3120000D01*
X6420000Y-3080000D02*
X6380000Y-3120000D01*
X6380000Y-3480000D02*
X6420000Y-3520000D01*
X6420000Y-3480000D02*
X6380000Y-3520000D01*
X6403900Y-894900D02*
X6443900Y-934900D01*
X6443900Y-894900D02*
X6403900Y-934900D01*
X6480000Y-5280000D02*
X6520000Y-5320000D01*
X6520000Y-5280000D02*
X6480000Y-5320000D01*
X6980000Y-2180000D02*
X7020000Y-2220000D01*
X7020000Y-2180000D02*
X6980000Y-2220000D01*
X7089700Y-2817680D02*
X7129700Y-2857680D01*
X7129700Y-2817680D02*
X7089700Y-2857680D01*
X7180000Y-3080000D02*
X7220000Y-3120000D01*
X7220000Y-3080000D02*
X7180000Y-3120000D01*
X7180000Y-4280000D02*
X7220000Y-4320000D01*
X7220000Y-4280000D02*
X7180000Y-4320000D01*
X7234480Y-2159820D02*
X7274480Y-2199820D01*
X7274480Y-2159820D02*
X7234480Y-2199820D01*
X7480000Y-5280000D02*
X7520000Y-5320000D01*
X7520000Y-5280000D02*
X7480000Y-5320000D01*
X7680000Y-180000D02*
X7720000Y-220000D01*
X7720000Y-180000D02*
X7680000Y-220000D01*
X7980000Y-4580000D02*
X8020000Y-4620000D01*
X8020000Y-4580000D02*
X7980000Y-4620000D01*
X7980000Y-5380000D02*
X8020000Y-5420000D01*
X8020000Y-5380000D02*
X7980000Y-5420000D01*
X8001560Y-2916740D02*
X8041560Y-2956740D01*
X8041560Y-2916740D02*
X8001560Y-2956740D01*
X8009180Y-4715060D02*
X8049180Y-4755060D01*
X8049180Y-4715060D02*
X8009180Y-4755060D01*
X8180000Y-4080000D02*
X8220000Y-4120000D01*
X8220000Y-4080000D02*
X8180000Y-4120000D01*
X8204760Y-2053140D02*
X8244760Y-2093140D01*
X8244760Y-2053140D02*
X8204760Y-2093140D01*
X8380000Y-180000D02*
X8420000Y-220000D01*
X8420000Y-180000D02*
X8380000Y-220000D01*
X8480000Y-4280000D02*
X8520000Y-4320000D01*
X8520000Y-4280000D02*
X8480000Y-4320000D01*
X8796580Y-3874320D02*
X8836580Y-3914320D01*
X8836580Y-3874320D02*
X8796580Y-3914320D01*
X8880000Y-1380000D02*
X8920000Y-1420000D01*
X8920000Y-1380000D02*
X8880000Y-1420000D01*
X8880000Y-3880000D02*
X8920000Y-3920000D01*
X8920000Y-3880000D02*
X8880000Y-3920000D01*
X8880000Y-4280000D02*
X8920000Y-4320000D01*
X8920000Y-4280000D02*
X8880000Y-4320000D01*
X8980000Y-5280000D02*
X9020000Y-5320000D01*
X9020000Y-5280000D02*
X8980000Y-5320000D01*
X9080000Y-180000D02*
X9120000Y-220000D01*
X9120000Y-180000D02*
X9080000Y-220000D01*
X9780000Y-880000D02*
X9820000Y-920000D01*
X9820000Y-880000D02*
X9780000Y-920000D01*
X9780000Y-1480000D02*
X9820000Y-1520000D01*
X9820000Y-1480000D02*
X9780000Y-1520000D01*
X9780000Y-2380000D02*
X9820000Y-2420000D01*
X9820000Y-2380000D02*
X9780000Y-2420000D01*
X9780000Y-3380000D02*
X9820000Y-3420000D01*
X9820000Y-3380000D02*
X9780000Y-3420000D01*
X9780000Y-3980000D02*
X9820000Y-4020000D01*
X9820000Y-3980000D02*
X9780000Y-4020000D01*
D13*
X8338100Y-4620000D02*
G75*
G03*
X8338100Y-4620000I-38100J0D01*
G01*
X8338100Y-5120000D02*
G75*
G03*
X8338100Y-5120000I-38100J0D01*
G01*
X8538100Y-5120000D02*
G75*
G03*
X8538100Y-5120000I-38100J0D01*
G01*
X8738100Y-4620000D02*
G75*
G03*
X8738100Y-4620000I-38100J0D01*
G01*
X8738100Y-5120000D02*
G75*
G03*
X8738100Y-5120000I-38100J0D01*
G01*
D14*
X400000Y-240000D02*
X400000Y-560000D01*
X240000Y-400000D02*
X560000Y-400000D01*
X400000Y-4940000D02*
X400000Y-5260000D01*
X240000Y-5100000D02*
X560000Y-5100000D01*
X5000000Y-2540000D02*
X5000000Y-2860000D01*
X4840000Y-2700000D02*
X5160000Y-2700000D01*
X9600000Y-240000D02*
X9600000Y-560000D01*
X9440000Y-400000D02*
X9760000Y-400000D01*
X9600000Y-4940000D02*
X9600000Y-5260000D01*
X9440000Y-5100000D02*
X9760000Y-5100000D01*
D15*
X2553034Y-4593034D02*
X2553034Y-4486967D01*
X2446967Y-4486967D01*
X2446967Y-4593034D01*
X2553034Y-4593034D01*
X2553034Y-5293034D02*
X2553034Y-5186967D01*
X2446967Y-5186967D01*
X2446967Y-5293034D01*
X2553034Y-5293034D01*
D11*
X255777Y-5817484D02*
X255777Y-5617484D01*
X255777Y-5617484D02*
X303396Y-5617484D01*
X303396Y-5617484D02*
X331967Y-5627008D01*
X331967Y-5627008D02*
X351015Y-5646055D01*
X351015Y-5646055D02*
X360539Y-5665103D01*
X360539Y-5665103D02*
X370062Y-5703198D01*
X370062Y-5703198D02*
X370062Y-5731769D01*
X370062Y-5731769D02*
X360539Y-5769865D01*
X360539Y-5769865D02*
X351015Y-5788912D01*
X351015Y-5788912D02*
X331967Y-5807960D01*
X331967Y-5807960D02*
X303396Y-5817484D01*
X303396Y-5817484D02*
X255777Y-5817484D01*
X455777Y-5817484D02*
X455777Y-5684150D01*
X455777Y-5722246D02*
X465301Y-5703198D01*
X465301Y-5703198D02*
X474824Y-5693674D01*
X474824Y-5693674D02*
X493872Y-5684150D01*
X493872Y-5684150D02*
X512920Y-5684150D01*
X579586Y-5817484D02*
X579586Y-5684150D01*
X579586Y-5617484D02*
X570063Y-5627008D01*
X570063Y-5627008D02*
X579586Y-5636531D01*
X579586Y-5636531D02*
X589110Y-5627008D01*
X589110Y-5627008D02*
X579586Y-5617484D01*
X579586Y-5617484D02*
X579586Y-5636531D01*
X703396Y-5817484D02*
X684348Y-5807960D01*
X684348Y-5807960D02*
X674824Y-5788912D01*
X674824Y-5788912D02*
X674824Y-5617484D01*
X808158Y-5817484D02*
X789110Y-5807960D01*
X789110Y-5807960D02*
X779586Y-5788912D01*
X779586Y-5788912D02*
X779586Y-5617484D01*
X1036729Y-5817484D02*
X1036729Y-5617484D01*
X1036729Y-5617484D02*
X1103396Y-5760341D01*
X1103396Y-5760341D02*
X1170063Y-5617484D01*
X1170063Y-5617484D02*
X1170063Y-5817484D01*
X1351015Y-5817484D02*
X1351015Y-5712722D01*
X1351015Y-5712722D02*
X1341491Y-5693674D01*
X1341491Y-5693674D02*
X1322444Y-5684150D01*
X1322444Y-5684150D02*
X1284348Y-5684150D01*
X1284348Y-5684150D02*
X1265301Y-5693674D01*
X1351015Y-5807960D02*
X1331967Y-5817484D01*
X1331967Y-5817484D02*
X1284348Y-5817484D01*
X1284348Y-5817484D02*
X1265301Y-5807960D01*
X1265301Y-5807960D02*
X1255777Y-5788912D01*
X1255777Y-5788912D02*
X1255777Y-5769865D01*
X1255777Y-5769865D02*
X1265301Y-5750817D01*
X1265301Y-5750817D02*
X1284348Y-5741293D01*
X1284348Y-5741293D02*
X1331967Y-5741293D01*
X1331967Y-5741293D02*
X1351015Y-5731769D01*
X1446253Y-5684150D02*
X1446253Y-5884150D01*
X1446253Y-5693674D02*
X1465301Y-5684150D01*
X1465301Y-5684150D02*
X1503396Y-5684150D01*
X1503396Y-5684150D02*
X1522443Y-5693674D01*
X1522443Y-5693674D02*
X1531967Y-5703198D01*
X1531967Y-5703198D02*
X1541491Y-5722246D01*
X1541491Y-5722246D02*
X1541491Y-5779388D01*
X1541491Y-5779388D02*
X1531967Y-5798436D01*
X1531967Y-5798436D02*
X1522443Y-5807960D01*
X1522443Y-5807960D02*
X1503396Y-5817484D01*
X1503396Y-5817484D02*
X1465301Y-5817484D01*
X1465301Y-5817484D02*
X1446253Y-5807960D01*
X1627205Y-5798436D02*
X1636729Y-5807960D01*
X1636729Y-5807960D02*
X1627205Y-5817484D01*
X1627205Y-5817484D02*
X1617682Y-5807960D01*
X1617682Y-5807960D02*
X1627205Y-5798436D01*
X1627205Y-5798436D02*
X1627205Y-5817484D01*
X1627205Y-5693674D02*
X1636729Y-5703198D01*
X1636729Y-5703198D02*
X1627205Y-5712722D01*
X1627205Y-5712722D02*
X1617682Y-5703198D01*
X1617682Y-5703198D02*
X1627205Y-5693674D01*
X1627205Y-5693674D02*
X1627205Y-5712722D01*
D12*
X-45000Y-6126000D02*
X-5000Y-6166000D01*
X-5000Y-6126000D02*
X-45000Y-6166000D01*
D11*
X293872Y-6037484D02*
X312920Y-6037484D01*
X312920Y-6037484D02*
X331967Y-6047008D01*
X331967Y-6047008D02*
X341491Y-6056531D01*
X341491Y-6056531D02*
X351015Y-6075579D01*
X351015Y-6075579D02*
X360539Y-6113674D01*
X360539Y-6113674D02*
X360539Y-6161293D01*
X360539Y-6161293D02*
X351015Y-6199388D01*
X351015Y-6199388D02*
X341491Y-6218436D01*
X341491Y-6218436D02*
X331967Y-6227960D01*
X331967Y-6227960D02*
X312920Y-6237484D01*
X312920Y-6237484D02*
X293872Y-6237484D01*
X293872Y-6237484D02*
X274824Y-6227960D01*
X274824Y-6227960D02*
X265301Y-6218436D01*
X265301Y-6218436D02*
X255777Y-6199388D01*
X255777Y-6199388D02*
X246253Y-6161293D01*
X246253Y-6161293D02*
X246253Y-6113674D01*
X246253Y-6113674D02*
X255777Y-6075579D01*
X255777Y-6075579D02*
X265301Y-6056531D01*
X265301Y-6056531D02*
X274824Y-6047008D01*
X274824Y-6047008D02*
X293872Y-6037484D01*
X446253Y-6218436D02*
X455777Y-6227960D01*
X455777Y-6227960D02*
X446253Y-6237484D01*
X446253Y-6237484D02*
X436729Y-6227960D01*
X436729Y-6227960D02*
X446253Y-6218436D01*
X446253Y-6218436D02*
X446253Y-6237484D01*
X627205Y-6104150D02*
X627205Y-6237484D01*
X579586Y-6027960D02*
X531967Y-6170817D01*
X531967Y-6170817D02*
X655777Y-6170817D01*
X770062Y-6037484D02*
X789110Y-6037484D01*
X789110Y-6037484D02*
X808158Y-6047008D01*
X808158Y-6047008D02*
X817682Y-6056531D01*
X817682Y-6056531D02*
X827205Y-6075579D01*
X827205Y-6075579D02*
X836729Y-6113674D01*
X836729Y-6113674D02*
X836729Y-6161293D01*
X836729Y-6161293D02*
X827205Y-6199388D01*
X827205Y-6199388D02*
X817682Y-6218436D01*
X817682Y-6218436D02*
X808158Y-6227960D01*
X808158Y-6227960D02*
X789110Y-6237484D01*
X789110Y-6237484D02*
X770062Y-6237484D01*
X770062Y-6237484D02*
X751015Y-6227960D01*
X751015Y-6227960D02*
X741491Y-6218436D01*
X741491Y-6218436D02*
X731967Y-6199388D01*
X731967Y-6199388D02*
X722443Y-6161293D01*
X722443Y-6161293D02*
X722443Y-6113674D01*
X722443Y-6113674D02*
X731967Y-6075579D01*
X731967Y-6075579D02*
X741491Y-6056531D01*
X741491Y-6056531D02*
X751015Y-6047008D01*
X751015Y-6047008D02*
X770062Y-6037484D01*
X960539Y-6037484D02*
X979586Y-6037484D01*
X979586Y-6037484D02*
X998634Y-6047008D01*
X998634Y-6047008D02*
X1008158Y-6056531D01*
X1008158Y-6056531D02*
X1017682Y-6075579D01*
X1017682Y-6075579D02*
X1027205Y-6113674D01*
X1027205Y-6113674D02*
X1027205Y-6161293D01*
X1027205Y-6161293D02*
X1017682Y-6199388D01*
X1017682Y-6199388D02*
X1008158Y-6218436D01*
X1008158Y-6218436D02*
X998634Y-6227960D01*
X998634Y-6227960D02*
X979586Y-6237484D01*
X979586Y-6237484D02*
X960539Y-6237484D01*
X960539Y-6237484D02*
X941491Y-6227960D01*
X941491Y-6227960D02*
X931967Y-6218436D01*
X931967Y-6218436D02*
X922443Y-6199388D01*
X922443Y-6199388D02*
X912920Y-6161293D01*
X912920Y-6161293D02*
X912920Y-6113674D01*
X912920Y-6113674D02*
X922443Y-6075579D01*
X922443Y-6075579D02*
X931967Y-6056531D01*
X931967Y-6056531D02*
X941491Y-6047008D01*
X941491Y-6047008D02*
X960539Y-6037484D01*
X1112920Y-6237484D02*
X1112920Y-6104150D01*
X1112920Y-6123198D02*
X1122444Y-6113674D01*
X1122444Y-6113674D02*
X1141491Y-6104150D01*
X1141491Y-6104150D02*
X1170063Y-6104150D01*
X1170063Y-6104150D02*
X1189110Y-6113674D01*
X1189110Y-6113674D02*
X1198634Y-6132722D01*
X1198634Y-6132722D02*
X1198634Y-6237484D01*
X1198634Y-6132722D02*
X1208158Y-6113674D01*
X1208158Y-6113674D02*
X1227205Y-6104150D01*
X1227205Y-6104150D02*
X1255777Y-6104150D01*
X1255777Y-6104150D02*
X1274825Y-6113674D01*
X1274825Y-6113674D02*
X1284348Y-6132722D01*
X1284348Y-6132722D02*
X1284348Y-6237484D01*
X1379586Y-6237484D02*
X1379586Y-6104150D01*
X1379586Y-6123198D02*
X1389110Y-6113674D01*
X1389110Y-6113674D02*
X1408158Y-6104150D01*
X1408158Y-6104150D02*
X1436729Y-6104150D01*
X1436729Y-6104150D02*
X1455777Y-6113674D01*
X1455777Y-6113674D02*
X1465301Y-6132722D01*
X1465301Y-6132722D02*
X1465301Y-6237484D01*
X1465301Y-6132722D02*
X1474824Y-6113674D01*
X1474824Y-6113674D02*
X1493872Y-6104150D01*
X1493872Y-6104150D02*
X1522443Y-6104150D01*
X1522443Y-6104150D02*
X1541491Y-6113674D01*
X1541491Y-6113674D02*
X1551015Y-6132722D01*
X1551015Y-6132722D02*
X1551015Y-6237484D01*
X1941491Y-6027960D02*
X1770063Y-6285103D01*
X2198634Y-6037484D02*
X2217682Y-6037484D01*
X2217682Y-6037484D02*
X2236729Y-6047008D01*
X2236729Y-6047008D02*
X2246253Y-6056531D01*
X2246253Y-6056531D02*
X2255777Y-6075579D01*
X2255777Y-6075579D02*
X2265301Y-6113674D01*
X2265301Y-6113674D02*
X2265301Y-6161293D01*
X2265301Y-6161293D02*
X2255777Y-6199388D01*
X2255777Y-6199388D02*
X2246253Y-6218436D01*
X2246253Y-6218436D02*
X2236729Y-6227960D01*
X2236729Y-6227960D02*
X2217682Y-6237484D01*
X2217682Y-6237484D02*
X2198634Y-6237484D01*
X2198634Y-6237484D02*
X2179587Y-6227960D01*
X2179587Y-6227960D02*
X2170063Y-6218436D01*
X2170063Y-6218436D02*
X2160539Y-6199388D01*
X2160539Y-6199388D02*
X2151015Y-6161293D01*
X2151015Y-6161293D02*
X2151015Y-6113674D01*
X2151015Y-6113674D02*
X2160539Y-6075579D01*
X2160539Y-6075579D02*
X2170063Y-6056531D01*
X2170063Y-6056531D02*
X2179587Y-6047008D01*
X2179587Y-6047008D02*
X2198634Y-6037484D01*
X2351015Y-6218436D02*
X2360539Y-6227960D01*
X2360539Y-6227960D02*
X2351015Y-6237484D01*
X2351015Y-6237484D02*
X2341491Y-6227960D01*
X2341491Y-6227960D02*
X2351015Y-6218436D01*
X2351015Y-6218436D02*
X2351015Y-6237484D01*
X2484348Y-6037484D02*
X2503396Y-6037484D01*
X2503396Y-6037484D02*
X2522444Y-6047008D01*
X2522444Y-6047008D02*
X2531968Y-6056531D01*
X2531968Y-6056531D02*
X2541491Y-6075579D01*
X2541491Y-6075579D02*
X2551015Y-6113674D01*
X2551015Y-6113674D02*
X2551015Y-6161293D01*
X2551015Y-6161293D02*
X2541491Y-6199388D01*
X2541491Y-6199388D02*
X2531968Y-6218436D01*
X2531968Y-6218436D02*
X2522444Y-6227960D01*
X2522444Y-6227960D02*
X2503396Y-6237484D01*
X2503396Y-6237484D02*
X2484348Y-6237484D01*
X2484348Y-6237484D02*
X2465301Y-6227960D01*
X2465301Y-6227960D02*
X2455777Y-6218436D01*
X2455777Y-6218436D02*
X2446253Y-6199388D01*
X2446253Y-6199388D02*
X2436729Y-6161293D01*
X2436729Y-6161293D02*
X2436729Y-6113674D01*
X2436729Y-6113674D02*
X2446253Y-6075579D01*
X2446253Y-6075579D02*
X2455777Y-6056531D01*
X2455777Y-6056531D02*
X2465301Y-6047008D01*
X2465301Y-6047008D02*
X2484348Y-6037484D01*
X2741491Y-6237484D02*
X2627206Y-6237484D01*
X2684348Y-6237484D02*
X2684348Y-6037484D01*
X2684348Y-6037484D02*
X2665301Y-6066055D01*
X2665301Y-6066055D02*
X2646253Y-6085103D01*
X2646253Y-6085103D02*
X2627206Y-6094627D01*
X2922444Y-6037484D02*
X2827206Y-6037484D01*
X2827206Y-6037484D02*
X2817682Y-6132722D01*
X2817682Y-6132722D02*
X2827206Y-6123198D01*
X2827206Y-6123198D02*
X2846253Y-6113674D01*
X2846253Y-6113674D02*
X2893872Y-6113674D01*
X2893872Y-6113674D02*
X2912920Y-6123198D01*
X2912920Y-6123198D02*
X2922444Y-6132722D01*
X2922444Y-6132722D02*
X2931967Y-6151769D01*
X2931967Y-6151769D02*
X2931967Y-6199388D01*
X2931967Y-6199388D02*
X2922444Y-6218436D01*
X2922444Y-6218436D02*
X2912920Y-6227960D01*
X2912920Y-6227960D02*
X2893872Y-6237484D01*
X2893872Y-6237484D02*
X2846253Y-6237484D01*
X2846253Y-6237484D02*
X2827206Y-6227960D01*
X2827206Y-6227960D02*
X2817682Y-6218436D01*
X2998634Y-6037484D02*
X3131967Y-6037484D01*
X3131967Y-6037484D02*
X3046253Y-6237484D01*
X3198634Y-6037484D02*
X3198634Y-6075579D01*
X3274825Y-6037484D02*
X3274825Y-6075579D01*
X3570063Y-6313674D02*
X3560539Y-6304150D01*
X3560539Y-6304150D02*
X3541491Y-6275579D01*
X3541491Y-6275579D02*
X3531968Y-6256531D01*
X3531968Y-6256531D02*
X3522444Y-6227960D01*
X3522444Y-6227960D02*
X3512920Y-6180341D01*
X3512920Y-6180341D02*
X3512920Y-6142246D01*
X3512920Y-6142246D02*
X3522444Y-6094627D01*
X3522444Y-6094627D02*
X3531968Y-6066055D01*
X3531968Y-6066055D02*
X3541491Y-6047008D01*
X3541491Y-6047008D02*
X3560539Y-6018436D01*
X3560539Y-6018436D02*
X3570063Y-6008912D01*
X3741491Y-6037484D02*
X3646253Y-6037484D01*
X3646253Y-6037484D02*
X3636729Y-6132722D01*
X3636729Y-6132722D02*
X3646253Y-6123198D01*
X3646253Y-6123198D02*
X3665301Y-6113674D01*
X3665301Y-6113674D02*
X3712920Y-6113674D01*
X3712920Y-6113674D02*
X3731968Y-6123198D01*
X3731968Y-6123198D02*
X3741491Y-6132722D01*
X3741491Y-6132722D02*
X3751015Y-6151769D01*
X3751015Y-6151769D02*
X3751015Y-6199388D01*
X3751015Y-6199388D02*
X3741491Y-6218436D01*
X3741491Y-6218436D02*
X3731968Y-6227960D01*
X3731968Y-6227960D02*
X3712920Y-6237484D01*
X3712920Y-6237484D02*
X3665301Y-6237484D01*
X3665301Y-6237484D02*
X3646253Y-6227960D01*
X3646253Y-6227960D02*
X3636729Y-6218436D01*
X3922444Y-6104150D02*
X3922444Y-6237484D01*
X3874825Y-6027960D02*
X3827206Y-6170817D01*
X3827206Y-6170817D02*
X3951015Y-6170817D01*
X4179587Y-6237484D02*
X4179587Y-6037484D01*
X4265301Y-6237484D02*
X4265301Y-6132722D01*
X4265301Y-6132722D02*
X4255777Y-6113674D01*
X4255777Y-6113674D02*
X4236730Y-6104150D01*
X4236730Y-6104150D02*
X4208158Y-6104150D01*
X4208158Y-6104150D02*
X4189110Y-6113674D01*
X4189110Y-6113674D02*
X4179587Y-6123198D01*
X4389111Y-6237484D02*
X4370063Y-6227960D01*
X4370063Y-6227960D02*
X4360539Y-6218436D01*
X4360539Y-6218436D02*
X4351015Y-6199388D01*
X4351015Y-6199388D02*
X4351015Y-6142246D01*
X4351015Y-6142246D02*
X4360539Y-6123198D01*
X4360539Y-6123198D02*
X4370063Y-6113674D01*
X4370063Y-6113674D02*
X4389111Y-6104150D01*
X4389111Y-6104150D02*
X4417682Y-6104150D01*
X4417682Y-6104150D02*
X4436730Y-6113674D01*
X4436730Y-6113674D02*
X4446253Y-6123198D01*
X4446253Y-6123198D02*
X4455777Y-6142246D01*
X4455777Y-6142246D02*
X4455777Y-6199388D01*
X4455777Y-6199388D02*
X4446253Y-6218436D01*
X4446253Y-6218436D02*
X4436730Y-6227960D01*
X4436730Y-6227960D02*
X4417682Y-6237484D01*
X4417682Y-6237484D02*
X4389111Y-6237484D01*
X4570063Y-6237484D02*
X4551015Y-6227960D01*
X4551015Y-6227960D02*
X4541492Y-6208912D01*
X4541492Y-6208912D02*
X4541492Y-6037484D01*
X4722444Y-6227960D02*
X4703396Y-6237484D01*
X4703396Y-6237484D02*
X4665301Y-6237484D01*
X4665301Y-6237484D02*
X4646253Y-6227960D01*
X4646253Y-6227960D02*
X4636730Y-6208912D01*
X4636730Y-6208912D02*
X4636730Y-6132722D01*
X4636730Y-6132722D02*
X4646253Y-6113674D01*
X4646253Y-6113674D02*
X4665301Y-6104150D01*
X4665301Y-6104150D02*
X4703396Y-6104150D01*
X4703396Y-6104150D02*
X4722444Y-6113674D01*
X4722444Y-6113674D02*
X4731968Y-6132722D01*
X4731968Y-6132722D02*
X4731968Y-6151769D01*
X4731968Y-6151769D02*
X4636730Y-6170817D01*
X4808158Y-6227960D02*
X4827206Y-6237484D01*
X4827206Y-6237484D02*
X4865301Y-6237484D01*
X4865301Y-6237484D02*
X4884349Y-6227960D01*
X4884349Y-6227960D02*
X4893873Y-6208912D01*
X4893873Y-6208912D02*
X4893873Y-6199388D01*
X4893873Y-6199388D02*
X4884349Y-6180341D01*
X4884349Y-6180341D02*
X4865301Y-6170817D01*
X4865301Y-6170817D02*
X4836730Y-6170817D01*
X4836730Y-6170817D02*
X4817682Y-6161293D01*
X4817682Y-6161293D02*
X4808158Y-6142246D01*
X4808158Y-6142246D02*
X4808158Y-6132722D01*
X4808158Y-6132722D02*
X4817682Y-6113674D01*
X4817682Y-6113674D02*
X4836730Y-6104150D01*
X4836730Y-6104150D02*
X4865301Y-6104150D01*
X4865301Y-6104150D02*
X4884349Y-6113674D01*
X4960539Y-6313674D02*
X4970063Y-6304150D01*
X4970063Y-6304150D02*
X4989111Y-6275579D01*
X4989111Y-6275579D02*
X4998634Y-6256531D01*
X4998634Y-6256531D02*
X5008158Y-6227960D01*
X5008158Y-6227960D02*
X5017682Y-6180341D01*
X5017682Y-6180341D02*
X5017682Y-6142246D01*
X5017682Y-6142246D02*
X5008158Y-6094627D01*
X5008158Y-6094627D02*
X4998634Y-6066055D01*
X4998634Y-6066055D02*
X4989111Y-6047008D01*
X4989111Y-6047008D02*
X4970063Y-6018436D01*
X4970063Y-6018436D02*
X4960539Y-6008912D01*
D13*
X-5000Y-6410000D02*
G75*
G03*
X-5000Y-6410000I-38100J0D01*
G01*
D11*
X293872Y-6301484D02*
X312920Y-6301484D01*
X312920Y-6301484D02*
X331967Y-6311008D01*
X331967Y-6311008D02*
X341491Y-6320531D01*
X341491Y-6320531D02*
X351015Y-6339579D01*
X351015Y-6339579D02*
X360539Y-6377674D01*
X360539Y-6377674D02*
X360539Y-6425293D01*
X360539Y-6425293D02*
X351015Y-6463388D01*
X351015Y-6463388D02*
X341491Y-6482436D01*
X341491Y-6482436D02*
X331967Y-6491960D01*
X331967Y-6491960D02*
X312920Y-6501484D01*
X312920Y-6501484D02*
X293872Y-6501484D01*
X293872Y-6501484D02*
X274824Y-6491960D01*
X274824Y-6491960D02*
X265301Y-6482436D01*
X265301Y-6482436D02*
X255777Y-6463388D01*
X255777Y-6463388D02*
X246253Y-6425293D01*
X246253Y-6425293D02*
X246253Y-6377674D01*
X246253Y-6377674D02*
X255777Y-6339579D01*
X255777Y-6339579D02*
X265301Y-6320531D01*
X265301Y-6320531D02*
X274824Y-6311008D01*
X274824Y-6311008D02*
X293872Y-6301484D01*
X446253Y-6482436D02*
X455777Y-6491960D01*
X455777Y-6491960D02*
X446253Y-6501484D01*
X446253Y-6501484D02*
X436729Y-6491960D01*
X436729Y-6491960D02*
X446253Y-6482436D01*
X446253Y-6482436D02*
X446253Y-6501484D01*
X522443Y-6301484D02*
X655777Y-6301484D01*
X655777Y-6301484D02*
X570063Y-6501484D01*
X817682Y-6301484D02*
X779586Y-6301484D01*
X779586Y-6301484D02*
X760539Y-6311008D01*
X760539Y-6311008D02*
X751015Y-6320531D01*
X751015Y-6320531D02*
X731967Y-6349103D01*
X731967Y-6349103D02*
X722443Y-6387198D01*
X722443Y-6387198D02*
X722443Y-6463388D01*
X722443Y-6463388D02*
X731967Y-6482436D01*
X731967Y-6482436D02*
X741491Y-6491960D01*
X741491Y-6491960D02*
X760539Y-6501484D01*
X760539Y-6501484D02*
X798634Y-6501484D01*
X798634Y-6501484D02*
X817682Y-6491960D01*
X817682Y-6491960D02*
X827205Y-6482436D01*
X827205Y-6482436D02*
X836729Y-6463388D01*
X836729Y-6463388D02*
X836729Y-6415769D01*
X836729Y-6415769D02*
X827205Y-6396722D01*
X827205Y-6396722D02*
X817682Y-6387198D01*
X817682Y-6387198D02*
X798634Y-6377674D01*
X798634Y-6377674D02*
X760539Y-6377674D01*
X760539Y-6377674D02*
X741491Y-6387198D01*
X741491Y-6387198D02*
X731967Y-6396722D01*
X731967Y-6396722D02*
X722443Y-6415769D01*
X912920Y-6320531D02*
X922443Y-6311008D01*
X922443Y-6311008D02*
X941491Y-6301484D01*
X941491Y-6301484D02*
X989110Y-6301484D01*
X989110Y-6301484D02*
X1008158Y-6311008D01*
X1008158Y-6311008D02*
X1017682Y-6320531D01*
X1017682Y-6320531D02*
X1027205Y-6339579D01*
X1027205Y-6339579D02*
X1027205Y-6358627D01*
X1027205Y-6358627D02*
X1017682Y-6387198D01*
X1017682Y-6387198D02*
X903396Y-6501484D01*
X903396Y-6501484D02*
X1027205Y-6501484D01*
X1112920Y-6501484D02*
X1112920Y-6368150D01*
X1112920Y-6387198D02*
X1122444Y-6377674D01*
X1122444Y-6377674D02*
X1141491Y-6368150D01*
X1141491Y-6368150D02*
X1170063Y-6368150D01*
X1170063Y-6368150D02*
X1189110Y-6377674D01*
X1189110Y-6377674D02*
X1198634Y-6396722D01*
X1198634Y-6396722D02*
X1198634Y-6501484D01*
X1198634Y-6396722D02*
X1208158Y-6377674D01*
X1208158Y-6377674D02*
X1227205Y-6368150D01*
X1227205Y-6368150D02*
X1255777Y-6368150D01*
X1255777Y-6368150D02*
X1274825Y-6377674D01*
X1274825Y-6377674D02*
X1284348Y-6396722D01*
X1284348Y-6396722D02*
X1284348Y-6501484D01*
X1379586Y-6501484D02*
X1379586Y-6368150D01*
X1379586Y-6387198D02*
X1389110Y-6377674D01*
X1389110Y-6377674D02*
X1408158Y-6368150D01*
X1408158Y-6368150D02*
X1436729Y-6368150D01*
X1436729Y-6368150D02*
X1455777Y-6377674D01*
X1455777Y-6377674D02*
X1465301Y-6396722D01*
X1465301Y-6396722D02*
X1465301Y-6501484D01*
X1465301Y-6396722D02*
X1474824Y-6377674D01*
X1474824Y-6377674D02*
X1493872Y-6368150D01*
X1493872Y-6368150D02*
X1522443Y-6368150D01*
X1522443Y-6368150D02*
X1541491Y-6377674D01*
X1541491Y-6377674D02*
X1551015Y-6396722D01*
X1551015Y-6396722D02*
X1551015Y-6501484D01*
X1941491Y-6291960D02*
X1770063Y-6549103D01*
X2198634Y-6301484D02*
X2217682Y-6301484D01*
X2217682Y-6301484D02*
X2236729Y-6311008D01*
X2236729Y-6311008D02*
X2246253Y-6320531D01*
X2246253Y-6320531D02*
X2255777Y-6339579D01*
X2255777Y-6339579D02*
X2265301Y-6377674D01*
X2265301Y-6377674D02*
X2265301Y-6425293D01*
X2265301Y-6425293D02*
X2255777Y-6463388D01*
X2255777Y-6463388D02*
X2246253Y-6482436D01*
X2246253Y-6482436D02*
X2236729Y-6491960D01*
X2236729Y-6491960D02*
X2217682Y-6501484D01*
X2217682Y-6501484D02*
X2198634Y-6501484D01*
X2198634Y-6501484D02*
X2179587Y-6491960D01*
X2179587Y-6491960D02*
X2170063Y-6482436D01*
X2170063Y-6482436D02*
X2160539Y-6463388D01*
X2160539Y-6463388D02*
X2151015Y-6425293D01*
X2151015Y-6425293D02*
X2151015Y-6377674D01*
X2151015Y-6377674D02*
X2160539Y-6339579D01*
X2160539Y-6339579D02*
X2170063Y-6320531D01*
X2170063Y-6320531D02*
X2179587Y-6311008D01*
X2179587Y-6311008D02*
X2198634Y-6301484D01*
X2351015Y-6482436D02*
X2360539Y-6491960D01*
X2360539Y-6491960D02*
X2351015Y-6501484D01*
X2351015Y-6501484D02*
X2341491Y-6491960D01*
X2341491Y-6491960D02*
X2351015Y-6482436D01*
X2351015Y-6482436D02*
X2351015Y-6501484D01*
X2484348Y-6301484D02*
X2503396Y-6301484D01*
X2503396Y-6301484D02*
X2522444Y-6311008D01*
X2522444Y-6311008D02*
X2531968Y-6320531D01*
X2531968Y-6320531D02*
X2541491Y-6339579D01*
X2541491Y-6339579D02*
X2551015Y-6377674D01*
X2551015Y-6377674D02*
X2551015Y-6425293D01*
X2551015Y-6425293D02*
X2541491Y-6463388D01*
X2541491Y-6463388D02*
X2531968Y-6482436D01*
X2531968Y-6482436D02*
X2522444Y-6491960D01*
X2522444Y-6491960D02*
X2503396Y-6501484D01*
X2503396Y-6501484D02*
X2484348Y-6501484D01*
X2484348Y-6501484D02*
X2465301Y-6491960D01*
X2465301Y-6491960D02*
X2455777Y-6482436D01*
X2455777Y-6482436D02*
X2446253Y-6463388D01*
X2446253Y-6463388D02*
X2436729Y-6425293D01*
X2436729Y-6425293D02*
X2436729Y-6377674D01*
X2436729Y-6377674D02*
X2446253Y-6339579D01*
X2446253Y-6339579D02*
X2455777Y-6320531D01*
X2455777Y-6320531D02*
X2465301Y-6311008D01*
X2465301Y-6311008D02*
X2484348Y-6301484D01*
X2617682Y-6301484D02*
X2741491Y-6301484D01*
X2741491Y-6301484D02*
X2674825Y-6377674D01*
X2674825Y-6377674D02*
X2703396Y-6377674D01*
X2703396Y-6377674D02*
X2722444Y-6387198D01*
X2722444Y-6387198D02*
X2731968Y-6396722D01*
X2731968Y-6396722D02*
X2741491Y-6415769D01*
X2741491Y-6415769D02*
X2741491Y-6463388D01*
X2741491Y-6463388D02*
X2731968Y-6482436D01*
X2731968Y-6482436D02*
X2722444Y-6491960D01*
X2722444Y-6491960D02*
X2703396Y-6501484D01*
X2703396Y-6501484D02*
X2646253Y-6501484D01*
X2646253Y-6501484D02*
X2627206Y-6491960D01*
X2627206Y-6491960D02*
X2617682Y-6482436D01*
X2865301Y-6301484D02*
X2884348Y-6301484D01*
X2884348Y-6301484D02*
X2903396Y-6311008D01*
X2903396Y-6311008D02*
X2912920Y-6320531D01*
X2912920Y-6320531D02*
X2922444Y-6339579D01*
X2922444Y-6339579D02*
X2931967Y-6377674D01*
X2931967Y-6377674D02*
X2931967Y-6425293D01*
X2931967Y-6425293D02*
X2922444Y-6463388D01*
X2922444Y-6463388D02*
X2912920Y-6482436D01*
X2912920Y-6482436D02*
X2903396Y-6491960D01*
X2903396Y-6491960D02*
X2884348Y-6501484D01*
X2884348Y-6501484D02*
X2865301Y-6501484D01*
X2865301Y-6501484D02*
X2846253Y-6491960D01*
X2846253Y-6491960D02*
X2836729Y-6482436D01*
X2836729Y-6482436D02*
X2827206Y-6463388D01*
X2827206Y-6463388D02*
X2817682Y-6425293D01*
X2817682Y-6425293D02*
X2817682Y-6377674D01*
X2817682Y-6377674D02*
X2827206Y-6339579D01*
X2827206Y-6339579D02*
X2836729Y-6320531D01*
X2836729Y-6320531D02*
X2846253Y-6311008D01*
X2846253Y-6311008D02*
X2865301Y-6301484D01*
X3055777Y-6301484D02*
X3074825Y-6301484D01*
X3074825Y-6301484D02*
X3093872Y-6311008D01*
X3093872Y-6311008D02*
X3103396Y-6320531D01*
X3103396Y-6320531D02*
X3112920Y-6339579D01*
X3112920Y-6339579D02*
X3122444Y-6377674D01*
X3122444Y-6377674D02*
X3122444Y-6425293D01*
X3122444Y-6425293D02*
X3112920Y-6463388D01*
X3112920Y-6463388D02*
X3103396Y-6482436D01*
X3103396Y-6482436D02*
X3093872Y-6491960D01*
X3093872Y-6491960D02*
X3074825Y-6501484D01*
X3074825Y-6501484D02*
X3055777Y-6501484D01*
X3055777Y-6501484D02*
X3036729Y-6491960D01*
X3036729Y-6491960D02*
X3027206Y-6482436D01*
X3027206Y-6482436D02*
X3017682Y-6463388D01*
X3017682Y-6463388D02*
X3008158Y-6425293D01*
X3008158Y-6425293D02*
X3008158Y-6377674D01*
X3008158Y-6377674D02*
X3017682Y-6339579D01*
X3017682Y-6339579D02*
X3027206Y-6320531D01*
X3027206Y-6320531D02*
X3036729Y-6311008D01*
X3036729Y-6311008D02*
X3055777Y-6301484D01*
X3198634Y-6301484D02*
X3198634Y-6339579D01*
X3274825Y-6301484D02*
X3274825Y-6339579D01*
X3570063Y-6577674D02*
X3560539Y-6568150D01*
X3560539Y-6568150D02*
X3541491Y-6539579D01*
X3541491Y-6539579D02*
X3531968Y-6520531D01*
X3531968Y-6520531D02*
X3522444Y-6491960D01*
X3522444Y-6491960D02*
X3512920Y-6444341D01*
X3512920Y-6444341D02*
X3512920Y-6406246D01*
X3512920Y-6406246D02*
X3522444Y-6358627D01*
X3522444Y-6358627D02*
X3531968Y-6330055D01*
X3531968Y-6330055D02*
X3541491Y-6311008D01*
X3541491Y-6311008D02*
X3560539Y-6282436D01*
X3560539Y-6282436D02*
X3570063Y-6272912D01*
X3741491Y-6301484D02*
X3646253Y-6301484D01*
X3646253Y-6301484D02*
X3636729Y-6396722D01*
X3636729Y-6396722D02*
X3646253Y-6387198D01*
X3646253Y-6387198D02*
X3665301Y-6377674D01*
X3665301Y-6377674D02*
X3712920Y-6377674D01*
X3712920Y-6377674D02*
X3731968Y-6387198D01*
X3731968Y-6387198D02*
X3741491Y-6396722D01*
X3741491Y-6396722D02*
X3751015Y-6415769D01*
X3751015Y-6415769D02*
X3751015Y-6463388D01*
X3751015Y-6463388D02*
X3741491Y-6482436D01*
X3741491Y-6482436D02*
X3731968Y-6491960D01*
X3731968Y-6491960D02*
X3712920Y-6501484D01*
X3712920Y-6501484D02*
X3665301Y-6501484D01*
X3665301Y-6501484D02*
X3646253Y-6491960D01*
X3646253Y-6491960D02*
X3636729Y-6482436D01*
X3989110Y-6501484D02*
X3989110Y-6301484D01*
X4074825Y-6501484D02*
X4074825Y-6396722D01*
X4074825Y-6396722D02*
X4065301Y-6377674D01*
X4065301Y-6377674D02*
X4046253Y-6368150D01*
X4046253Y-6368150D02*
X4017682Y-6368150D01*
X4017682Y-6368150D02*
X3998634Y-6377674D01*
X3998634Y-6377674D02*
X3989110Y-6387198D01*
X4198634Y-6501484D02*
X4179587Y-6491960D01*
X4179587Y-6491960D02*
X4170063Y-6482436D01*
X4170063Y-6482436D02*
X4160539Y-6463388D01*
X4160539Y-6463388D02*
X4160539Y-6406246D01*
X4160539Y-6406246D02*
X4170063Y-6387198D01*
X4170063Y-6387198D02*
X4179587Y-6377674D01*
X4179587Y-6377674D02*
X4198634Y-6368150D01*
X4198634Y-6368150D02*
X4227206Y-6368150D01*
X4227206Y-6368150D02*
X4246253Y-6377674D01*
X4246253Y-6377674D02*
X4255777Y-6387198D01*
X4255777Y-6387198D02*
X4265301Y-6406246D01*
X4265301Y-6406246D02*
X4265301Y-6463388D01*
X4265301Y-6463388D02*
X4255777Y-6482436D01*
X4255777Y-6482436D02*
X4246253Y-6491960D01*
X4246253Y-6491960D02*
X4227206Y-6501484D01*
X4227206Y-6501484D02*
X4198634Y-6501484D01*
X4379587Y-6501484D02*
X4360539Y-6491960D01*
X4360539Y-6491960D02*
X4351015Y-6472912D01*
X4351015Y-6472912D02*
X4351015Y-6301484D01*
X4531968Y-6491960D02*
X4512920Y-6501484D01*
X4512920Y-6501484D02*
X4474825Y-6501484D01*
X4474825Y-6501484D02*
X4455777Y-6491960D01*
X4455777Y-6491960D02*
X4446253Y-6472912D01*
X4446253Y-6472912D02*
X4446253Y-6396722D01*
X4446253Y-6396722D02*
X4455777Y-6377674D01*
X4455777Y-6377674D02*
X4474825Y-6368150D01*
X4474825Y-6368150D02*
X4512920Y-6368150D01*
X4512920Y-6368150D02*
X4531968Y-6377674D01*
X4531968Y-6377674D02*
X4541492Y-6396722D01*
X4541492Y-6396722D02*
X4541492Y-6415769D01*
X4541492Y-6415769D02*
X4446253Y-6434817D01*
X4617682Y-6491960D02*
X4636730Y-6501484D01*
X4636730Y-6501484D02*
X4674825Y-6501484D01*
X4674825Y-6501484D02*
X4693873Y-6491960D01*
X4693873Y-6491960D02*
X4703396Y-6472912D01*
X4703396Y-6472912D02*
X4703396Y-6463388D01*
X4703396Y-6463388D02*
X4693873Y-6444341D01*
X4693873Y-6444341D02*
X4674825Y-6434817D01*
X4674825Y-6434817D02*
X4646253Y-6434817D01*
X4646253Y-6434817D02*
X4627206Y-6425293D01*
X4627206Y-6425293D02*
X4617682Y-6406246D01*
X4617682Y-6406246D02*
X4617682Y-6396722D01*
X4617682Y-6396722D02*
X4627206Y-6377674D01*
X4627206Y-6377674D02*
X4646253Y-6368150D01*
X4646253Y-6368150D02*
X4674825Y-6368150D01*
X4674825Y-6368150D02*
X4693873Y-6377674D01*
X4770063Y-6577674D02*
X4779587Y-6568150D01*
X4779587Y-6568150D02*
X4798634Y-6539579D01*
X4798634Y-6539579D02*
X4808158Y-6520531D01*
X4808158Y-6520531D02*
X4817682Y-6491960D01*
X4817682Y-6491960D02*
X4827206Y-6444341D01*
X4827206Y-6444341D02*
X4827206Y-6406246D01*
X4827206Y-6406246D02*
X4817682Y-6358627D01*
X4817682Y-6358627D02*
X4808158Y-6330055D01*
X4808158Y-6330055D02*
X4798634Y-6311008D01*
X4798634Y-6311008D02*
X4779587Y-6282436D01*
X4779587Y-6282436D02*
X4770063Y-6272912D01*
X-105000Y-6574000D02*
X-105000Y-6774000D01*
X-205000Y-6674000D02*
X-5000Y-6674000D01*
X236729Y-6565484D02*
X360539Y-6565484D01*
X360539Y-6565484D02*
X293872Y-6641674D01*
X293872Y-6641674D02*
X322444Y-6641674D01*
X322444Y-6641674D02*
X341491Y-6651198D01*
X341491Y-6651198D02*
X351015Y-6660722D01*
X351015Y-6660722D02*
X360539Y-6679769D01*
X360539Y-6679769D02*
X360539Y-6727388D01*
X360539Y-6727388D02*
X351015Y-6746436D01*
X351015Y-6746436D02*
X341491Y-6755960D01*
X341491Y-6755960D02*
X322444Y-6765484D01*
X322444Y-6765484D02*
X265301Y-6765484D01*
X265301Y-6765484D02*
X246253Y-6755960D01*
X246253Y-6755960D02*
X236729Y-6746436D01*
X446253Y-6746436D02*
X455777Y-6755960D01*
X455777Y-6755960D02*
X446253Y-6765484D01*
X446253Y-6765484D02*
X436729Y-6755960D01*
X436729Y-6755960D02*
X446253Y-6746436D01*
X446253Y-6746436D02*
X446253Y-6765484D01*
X531967Y-6584531D02*
X541491Y-6575008D01*
X541491Y-6575008D02*
X560539Y-6565484D01*
X560539Y-6565484D02*
X608158Y-6565484D01*
X608158Y-6565484D02*
X627205Y-6575008D01*
X627205Y-6575008D02*
X636729Y-6584531D01*
X636729Y-6584531D02*
X646253Y-6603579D01*
X646253Y-6603579D02*
X646253Y-6622627D01*
X646253Y-6622627D02*
X636729Y-6651198D01*
X636729Y-6651198D02*
X522443Y-6765484D01*
X522443Y-6765484D02*
X646253Y-6765484D01*
X770062Y-6565484D02*
X789110Y-6565484D01*
X789110Y-6565484D02*
X808158Y-6575008D01*
X808158Y-6575008D02*
X817682Y-6584531D01*
X817682Y-6584531D02*
X827205Y-6603579D01*
X827205Y-6603579D02*
X836729Y-6641674D01*
X836729Y-6641674D02*
X836729Y-6689293D01*
X836729Y-6689293D02*
X827205Y-6727388D01*
X827205Y-6727388D02*
X817682Y-6746436D01*
X817682Y-6746436D02*
X808158Y-6755960D01*
X808158Y-6755960D02*
X789110Y-6765484D01*
X789110Y-6765484D02*
X770062Y-6765484D01*
X770062Y-6765484D02*
X751015Y-6755960D01*
X751015Y-6755960D02*
X741491Y-6746436D01*
X741491Y-6746436D02*
X731967Y-6727388D01*
X731967Y-6727388D02*
X722443Y-6689293D01*
X722443Y-6689293D02*
X722443Y-6641674D01*
X722443Y-6641674D02*
X731967Y-6603579D01*
X731967Y-6603579D02*
X741491Y-6584531D01*
X741491Y-6584531D02*
X751015Y-6575008D01*
X751015Y-6575008D02*
X770062Y-6565484D01*
X960539Y-6565484D02*
X979586Y-6565484D01*
X979586Y-6565484D02*
X998634Y-6575008D01*
X998634Y-6575008D02*
X1008158Y-6584531D01*
X1008158Y-6584531D02*
X1017682Y-6603579D01*
X1017682Y-6603579D02*
X1027205Y-6641674D01*
X1027205Y-6641674D02*
X1027205Y-6689293D01*
X1027205Y-6689293D02*
X1017682Y-6727388D01*
X1017682Y-6727388D02*
X1008158Y-6746436D01*
X1008158Y-6746436D02*
X998634Y-6755960D01*
X998634Y-6755960D02*
X979586Y-6765484D01*
X979586Y-6765484D02*
X960539Y-6765484D01*
X960539Y-6765484D02*
X941491Y-6755960D01*
X941491Y-6755960D02*
X931967Y-6746436D01*
X931967Y-6746436D02*
X922443Y-6727388D01*
X922443Y-6727388D02*
X912920Y-6689293D01*
X912920Y-6689293D02*
X912920Y-6641674D01*
X912920Y-6641674D02*
X922443Y-6603579D01*
X922443Y-6603579D02*
X931967Y-6584531D01*
X931967Y-6584531D02*
X941491Y-6575008D01*
X941491Y-6575008D02*
X960539Y-6565484D01*
X1112920Y-6765484D02*
X1112920Y-6632150D01*
X1112920Y-6651198D02*
X1122444Y-6641674D01*
X1122444Y-6641674D02*
X1141491Y-6632150D01*
X1141491Y-6632150D02*
X1170063Y-6632150D01*
X1170063Y-6632150D02*
X1189110Y-6641674D01*
X1189110Y-6641674D02*
X1198634Y-6660722D01*
X1198634Y-6660722D02*
X1198634Y-6765484D01*
X1198634Y-6660722D02*
X1208158Y-6641674D01*
X1208158Y-6641674D02*
X1227205Y-6632150D01*
X1227205Y-6632150D02*
X1255777Y-6632150D01*
X1255777Y-6632150D02*
X1274825Y-6641674D01*
X1274825Y-6641674D02*
X1284348Y-6660722D01*
X1284348Y-6660722D02*
X1284348Y-6765484D01*
X1379586Y-6765484D02*
X1379586Y-6632150D01*
X1379586Y-6651198D02*
X1389110Y-6641674D01*
X1389110Y-6641674D02*
X1408158Y-6632150D01*
X1408158Y-6632150D02*
X1436729Y-6632150D01*
X1436729Y-6632150D02*
X1455777Y-6641674D01*
X1455777Y-6641674D02*
X1465301Y-6660722D01*
X1465301Y-6660722D02*
X1465301Y-6765484D01*
X1465301Y-6660722D02*
X1474824Y-6641674D01*
X1474824Y-6641674D02*
X1493872Y-6632150D01*
X1493872Y-6632150D02*
X1522443Y-6632150D01*
X1522443Y-6632150D02*
X1541491Y-6641674D01*
X1541491Y-6641674D02*
X1551015Y-6660722D01*
X1551015Y-6660722D02*
X1551015Y-6765484D01*
X1941491Y-6555960D02*
X1770063Y-6813103D01*
X2198634Y-6565484D02*
X2217682Y-6565484D01*
X2217682Y-6565484D02*
X2236729Y-6575008D01*
X2236729Y-6575008D02*
X2246253Y-6584531D01*
X2246253Y-6584531D02*
X2255777Y-6603579D01*
X2255777Y-6603579D02*
X2265301Y-6641674D01*
X2265301Y-6641674D02*
X2265301Y-6689293D01*
X2265301Y-6689293D02*
X2255777Y-6727388D01*
X2255777Y-6727388D02*
X2246253Y-6746436D01*
X2246253Y-6746436D02*
X2236729Y-6755960D01*
X2236729Y-6755960D02*
X2217682Y-6765484D01*
X2217682Y-6765484D02*
X2198634Y-6765484D01*
X2198634Y-6765484D02*
X2179587Y-6755960D01*
X2179587Y-6755960D02*
X2170063Y-6746436D01*
X2170063Y-6746436D02*
X2160539Y-6727388D01*
X2160539Y-6727388D02*
X2151015Y-6689293D01*
X2151015Y-6689293D02*
X2151015Y-6641674D01*
X2151015Y-6641674D02*
X2160539Y-6603579D01*
X2160539Y-6603579D02*
X2170063Y-6584531D01*
X2170063Y-6584531D02*
X2179587Y-6575008D01*
X2179587Y-6575008D02*
X2198634Y-6565484D01*
X2351015Y-6746436D02*
X2360539Y-6755960D01*
X2360539Y-6755960D02*
X2351015Y-6765484D01*
X2351015Y-6765484D02*
X2341491Y-6755960D01*
X2341491Y-6755960D02*
X2351015Y-6746436D01*
X2351015Y-6746436D02*
X2351015Y-6765484D01*
X2551015Y-6765484D02*
X2436729Y-6765484D01*
X2493872Y-6765484D02*
X2493872Y-6565484D01*
X2493872Y-6565484D02*
X2474825Y-6594055D01*
X2474825Y-6594055D02*
X2455777Y-6613103D01*
X2455777Y-6613103D02*
X2436729Y-6622627D01*
X2627206Y-6584531D02*
X2636729Y-6575008D01*
X2636729Y-6575008D02*
X2655777Y-6565484D01*
X2655777Y-6565484D02*
X2703396Y-6565484D01*
X2703396Y-6565484D02*
X2722444Y-6575008D01*
X2722444Y-6575008D02*
X2731968Y-6584531D01*
X2731968Y-6584531D02*
X2741491Y-6603579D01*
X2741491Y-6603579D02*
X2741491Y-6622627D01*
X2741491Y-6622627D02*
X2731968Y-6651198D01*
X2731968Y-6651198D02*
X2617682Y-6765484D01*
X2617682Y-6765484D02*
X2741491Y-6765484D01*
X2912920Y-6565484D02*
X2874825Y-6565484D01*
X2874825Y-6565484D02*
X2855777Y-6575008D01*
X2855777Y-6575008D02*
X2846253Y-6584531D01*
X2846253Y-6584531D02*
X2827206Y-6613103D01*
X2827206Y-6613103D02*
X2817682Y-6651198D01*
X2817682Y-6651198D02*
X2817682Y-6727388D01*
X2817682Y-6727388D02*
X2827206Y-6746436D01*
X2827206Y-6746436D02*
X2836729Y-6755960D01*
X2836729Y-6755960D02*
X2855777Y-6765484D01*
X2855777Y-6765484D02*
X2893872Y-6765484D01*
X2893872Y-6765484D02*
X2912920Y-6755960D01*
X2912920Y-6755960D02*
X2922444Y-6746436D01*
X2922444Y-6746436D02*
X2931967Y-6727388D01*
X2931967Y-6727388D02*
X2931967Y-6679769D01*
X2931967Y-6679769D02*
X2922444Y-6660722D01*
X2922444Y-6660722D02*
X2912920Y-6651198D01*
X2912920Y-6651198D02*
X2893872Y-6641674D01*
X2893872Y-6641674D02*
X2855777Y-6641674D01*
X2855777Y-6641674D02*
X2836729Y-6651198D01*
X2836729Y-6651198D02*
X2827206Y-6660722D01*
X2827206Y-6660722D02*
X2817682Y-6679769D01*
X3055777Y-6565484D02*
X3074825Y-6565484D01*
X3074825Y-6565484D02*
X3093872Y-6575008D01*
X3093872Y-6575008D02*
X3103396Y-6584531D01*
X3103396Y-6584531D02*
X3112920Y-6603579D01*
X3112920Y-6603579D02*
X3122444Y-6641674D01*
X3122444Y-6641674D02*
X3122444Y-6689293D01*
X3122444Y-6689293D02*
X3112920Y-6727388D01*
X3112920Y-6727388D02*
X3103396Y-6746436D01*
X3103396Y-6746436D02*
X3093872Y-6755960D01*
X3093872Y-6755960D02*
X3074825Y-6765484D01*
X3074825Y-6765484D02*
X3055777Y-6765484D01*
X3055777Y-6765484D02*
X3036729Y-6755960D01*
X3036729Y-6755960D02*
X3027206Y-6746436D01*
X3027206Y-6746436D02*
X3017682Y-6727388D01*
X3017682Y-6727388D02*
X3008158Y-6689293D01*
X3008158Y-6689293D02*
X3008158Y-6641674D01*
X3008158Y-6641674D02*
X3017682Y-6603579D01*
X3017682Y-6603579D02*
X3027206Y-6584531D01*
X3027206Y-6584531D02*
X3036729Y-6575008D01*
X3036729Y-6575008D02*
X3055777Y-6565484D01*
X3198634Y-6565484D02*
X3198634Y-6603579D01*
X3274825Y-6565484D02*
X3274825Y-6603579D01*
X3570063Y-6841674D02*
X3560539Y-6832150D01*
X3560539Y-6832150D02*
X3541491Y-6803579D01*
X3541491Y-6803579D02*
X3531968Y-6784531D01*
X3531968Y-6784531D02*
X3522444Y-6755960D01*
X3522444Y-6755960D02*
X3512920Y-6708341D01*
X3512920Y-6708341D02*
X3512920Y-6670246D01*
X3512920Y-6670246D02*
X3522444Y-6622627D01*
X3522444Y-6622627D02*
X3531968Y-6594055D01*
X3531968Y-6594055D02*
X3541491Y-6575008D01*
X3541491Y-6575008D02*
X3560539Y-6546436D01*
X3560539Y-6546436D02*
X3570063Y-6536912D01*
X3741491Y-6565484D02*
X3646253Y-6565484D01*
X3646253Y-6565484D02*
X3636729Y-6660722D01*
X3636729Y-6660722D02*
X3646253Y-6651198D01*
X3646253Y-6651198D02*
X3665301Y-6641674D01*
X3665301Y-6641674D02*
X3712920Y-6641674D01*
X3712920Y-6641674D02*
X3731968Y-6651198D01*
X3731968Y-6651198D02*
X3741491Y-6660722D01*
X3741491Y-6660722D02*
X3751015Y-6679769D01*
X3751015Y-6679769D02*
X3751015Y-6727388D01*
X3751015Y-6727388D02*
X3741491Y-6746436D01*
X3741491Y-6746436D02*
X3731968Y-6755960D01*
X3731968Y-6755960D02*
X3712920Y-6765484D01*
X3712920Y-6765484D02*
X3665301Y-6765484D01*
X3665301Y-6765484D02*
X3646253Y-6755960D01*
X3646253Y-6755960D02*
X3636729Y-6746436D01*
X3989110Y-6765484D02*
X3989110Y-6565484D01*
X4074825Y-6765484D02*
X4074825Y-6660722D01*
X4074825Y-6660722D02*
X4065301Y-6641674D01*
X4065301Y-6641674D02*
X4046253Y-6632150D01*
X4046253Y-6632150D02*
X4017682Y-6632150D01*
X4017682Y-6632150D02*
X3998634Y-6641674D01*
X3998634Y-6641674D02*
X3989110Y-6651198D01*
X4198634Y-6765484D02*
X4179587Y-6755960D01*
X4179587Y-6755960D02*
X4170063Y-6746436D01*
X4170063Y-6746436D02*
X4160539Y-6727388D01*
X4160539Y-6727388D02*
X4160539Y-6670246D01*
X4160539Y-6670246D02*
X4170063Y-6651198D01*
X4170063Y-6651198D02*
X4179587Y-6641674D01*
X4179587Y-6641674D02*
X4198634Y-6632150D01*
X4198634Y-6632150D02*
X4227206Y-6632150D01*
X4227206Y-6632150D02*
X4246253Y-6641674D01*
X4246253Y-6641674D02*
X4255777Y-6651198D01*
X4255777Y-6651198D02*
X4265301Y-6670246D01*
X4265301Y-6670246D02*
X4265301Y-6727388D01*
X4265301Y-6727388D02*
X4255777Y-6746436D01*
X4255777Y-6746436D02*
X4246253Y-6755960D01*
X4246253Y-6755960D02*
X4227206Y-6765484D01*
X4227206Y-6765484D02*
X4198634Y-6765484D01*
X4379587Y-6765484D02*
X4360539Y-6755960D01*
X4360539Y-6755960D02*
X4351015Y-6736912D01*
X4351015Y-6736912D02*
X4351015Y-6565484D01*
X4531968Y-6755960D02*
X4512920Y-6765484D01*
X4512920Y-6765484D02*
X4474825Y-6765484D01*
X4474825Y-6765484D02*
X4455777Y-6755960D01*
X4455777Y-6755960D02*
X4446253Y-6736912D01*
X4446253Y-6736912D02*
X4446253Y-6660722D01*
X4446253Y-6660722D02*
X4455777Y-6641674D01*
X4455777Y-6641674D02*
X4474825Y-6632150D01*
X4474825Y-6632150D02*
X4512920Y-6632150D01*
X4512920Y-6632150D02*
X4531968Y-6641674D01*
X4531968Y-6641674D02*
X4541492Y-6660722D01*
X4541492Y-6660722D02*
X4541492Y-6679769D01*
X4541492Y-6679769D02*
X4446253Y-6698817D01*
X4617682Y-6755960D02*
X4636730Y-6765484D01*
X4636730Y-6765484D02*
X4674825Y-6765484D01*
X4674825Y-6765484D02*
X4693873Y-6755960D01*
X4693873Y-6755960D02*
X4703396Y-6736912D01*
X4703396Y-6736912D02*
X4703396Y-6727388D01*
X4703396Y-6727388D02*
X4693873Y-6708341D01*
X4693873Y-6708341D02*
X4674825Y-6698817D01*
X4674825Y-6698817D02*
X4646253Y-6698817D01*
X4646253Y-6698817D02*
X4627206Y-6689293D01*
X4627206Y-6689293D02*
X4617682Y-6670246D01*
X4617682Y-6670246D02*
X4617682Y-6660722D01*
X4617682Y-6660722D02*
X4627206Y-6641674D01*
X4627206Y-6641674D02*
X4646253Y-6632150D01*
X4646253Y-6632150D02*
X4674825Y-6632150D01*
X4674825Y-6632150D02*
X4693873Y-6641674D01*
X4770063Y-6841674D02*
X4779587Y-6832150D01*
X4779587Y-6832150D02*
X4798634Y-6803579D01*
X4798634Y-6803579D02*
X4808158Y-6784531D01*
X4808158Y-6784531D02*
X4817682Y-6755960D01*
X4817682Y-6755960D02*
X4827206Y-6708341D01*
X4827206Y-6708341D02*
X4827206Y-6670246D01*
X4827206Y-6670246D02*
X4817682Y-6622627D01*
X4817682Y-6622627D02*
X4808158Y-6594055D01*
X4808158Y-6594055D02*
X4798634Y-6575008D01*
X4798634Y-6575008D02*
X4779587Y-6546436D01*
X4779587Y-6546436D02*
X4770063Y-6536912D01*
D15*
X-26966Y-7047033D02*
X-26966Y-6940966D01*
X-133034Y-6940966D01*
X-133034Y-7047033D01*
X-26966Y-7047033D01*
D11*
X360539Y-7085484D02*
X246253Y-7085484D01*
X303396Y-7085484D02*
X303396Y-6885484D01*
X303396Y-6885484D02*
X284348Y-6914055D01*
X284348Y-6914055D02*
X265301Y-6933103D01*
X265301Y-6933103D02*
X246253Y-6942627D01*
X446253Y-7066436D02*
X455777Y-7075960D01*
X455777Y-7075960D02*
X446253Y-7085484D01*
X446253Y-7085484D02*
X436729Y-7075960D01*
X436729Y-7075960D02*
X446253Y-7066436D01*
X446253Y-7066436D02*
X446253Y-7085484D01*
X636729Y-6885484D02*
X541491Y-6885484D01*
X541491Y-6885484D02*
X531967Y-6980722D01*
X531967Y-6980722D02*
X541491Y-6971198D01*
X541491Y-6971198D02*
X560539Y-6961674D01*
X560539Y-6961674D02*
X608158Y-6961674D01*
X608158Y-6961674D02*
X627205Y-6971198D01*
X627205Y-6971198D02*
X636729Y-6980722D01*
X636729Y-6980722D02*
X646253Y-6999769D01*
X646253Y-6999769D02*
X646253Y-7047388D01*
X646253Y-7047388D02*
X636729Y-7066436D01*
X636729Y-7066436D02*
X627205Y-7075960D01*
X627205Y-7075960D02*
X608158Y-7085484D01*
X608158Y-7085484D02*
X560539Y-7085484D01*
X560539Y-7085484D02*
X541491Y-7075960D01*
X541491Y-7075960D02*
X531967Y-7066436D01*
X770062Y-6885484D02*
X789110Y-6885484D01*
X789110Y-6885484D02*
X808158Y-6895008D01*
X808158Y-6895008D02*
X817682Y-6904531D01*
X817682Y-6904531D02*
X827205Y-6923579D01*
X827205Y-6923579D02*
X836729Y-6961674D01*
X836729Y-6961674D02*
X836729Y-7009293D01*
X836729Y-7009293D02*
X827205Y-7047388D01*
X827205Y-7047388D02*
X817682Y-7066436D01*
X817682Y-7066436D02*
X808158Y-7075960D01*
X808158Y-7075960D02*
X789110Y-7085484D01*
X789110Y-7085484D02*
X770062Y-7085484D01*
X770062Y-7085484D02*
X751015Y-7075960D01*
X751015Y-7075960D02*
X741491Y-7066436D01*
X741491Y-7066436D02*
X731967Y-7047388D01*
X731967Y-7047388D02*
X722443Y-7009293D01*
X722443Y-7009293D02*
X722443Y-6961674D01*
X722443Y-6961674D02*
X731967Y-6923579D01*
X731967Y-6923579D02*
X741491Y-6904531D01*
X741491Y-6904531D02*
X751015Y-6895008D01*
X751015Y-6895008D02*
X770062Y-6885484D01*
X960539Y-6885484D02*
X979586Y-6885484D01*
X979586Y-6885484D02*
X998634Y-6895008D01*
X998634Y-6895008D02*
X1008158Y-6904531D01*
X1008158Y-6904531D02*
X1017682Y-6923579D01*
X1017682Y-6923579D02*
X1027205Y-6961674D01*
X1027205Y-6961674D02*
X1027205Y-7009293D01*
X1027205Y-7009293D02*
X1017682Y-7047388D01*
X1017682Y-7047388D02*
X1008158Y-7066436D01*
X1008158Y-7066436D02*
X998634Y-7075960D01*
X998634Y-7075960D02*
X979586Y-7085484D01*
X979586Y-7085484D02*
X960539Y-7085484D01*
X960539Y-7085484D02*
X941491Y-7075960D01*
X941491Y-7075960D02*
X931967Y-7066436D01*
X931967Y-7066436D02*
X922443Y-7047388D01*
X922443Y-7047388D02*
X912920Y-7009293D01*
X912920Y-7009293D02*
X912920Y-6961674D01*
X912920Y-6961674D02*
X922443Y-6923579D01*
X922443Y-6923579D02*
X931967Y-6904531D01*
X931967Y-6904531D02*
X941491Y-6895008D01*
X941491Y-6895008D02*
X960539Y-6885484D01*
X1112920Y-7085484D02*
X1112920Y-6952150D01*
X1112920Y-6971198D02*
X1122444Y-6961674D01*
X1122444Y-6961674D02*
X1141491Y-6952150D01*
X1141491Y-6952150D02*
X1170063Y-6952150D01*
X1170063Y-6952150D02*
X1189110Y-6961674D01*
X1189110Y-6961674D02*
X1198634Y-6980722D01*
X1198634Y-6980722D02*
X1198634Y-7085484D01*
X1198634Y-6980722D02*
X1208158Y-6961674D01*
X1208158Y-6961674D02*
X1227205Y-6952150D01*
X1227205Y-6952150D02*
X1255777Y-6952150D01*
X1255777Y-6952150D02*
X1274825Y-6961674D01*
X1274825Y-6961674D02*
X1284348Y-6980722D01*
X1284348Y-6980722D02*
X1284348Y-7085484D01*
X1379586Y-7085484D02*
X1379586Y-6952150D01*
X1379586Y-6971198D02*
X1389110Y-6961674D01*
X1389110Y-6961674D02*
X1408158Y-6952150D01*
X1408158Y-6952150D02*
X1436729Y-6952150D01*
X1436729Y-6952150D02*
X1455777Y-6961674D01*
X1455777Y-6961674D02*
X1465301Y-6980722D01*
X1465301Y-6980722D02*
X1465301Y-7085484D01*
X1465301Y-6980722D02*
X1474824Y-6961674D01*
X1474824Y-6961674D02*
X1493872Y-6952150D01*
X1493872Y-6952150D02*
X1522443Y-6952150D01*
X1522443Y-6952150D02*
X1541491Y-6961674D01*
X1541491Y-6961674D02*
X1551015Y-6980722D01*
X1551015Y-6980722D02*
X1551015Y-7085484D01*
X1941491Y-6875960D02*
X1770063Y-7133103D01*
X2198634Y-6885484D02*
X2217682Y-6885484D01*
X2217682Y-6885484D02*
X2236729Y-6895008D01*
X2236729Y-6895008D02*
X2246253Y-6904531D01*
X2246253Y-6904531D02*
X2255777Y-6923579D01*
X2255777Y-6923579D02*
X2265301Y-6961674D01*
X2265301Y-6961674D02*
X2265301Y-7009293D01*
X2265301Y-7009293D02*
X2255777Y-7047388D01*
X2255777Y-7047388D02*
X2246253Y-7066436D01*
X2246253Y-7066436D02*
X2236729Y-7075960D01*
X2236729Y-7075960D02*
X2217682Y-7085484D01*
X2217682Y-7085484D02*
X2198634Y-7085484D01*
X2198634Y-7085484D02*
X2179587Y-7075960D01*
X2179587Y-7075960D02*
X2170063Y-7066436D01*
X2170063Y-7066436D02*
X2160539Y-7047388D01*
X2160539Y-7047388D02*
X2151015Y-7009293D01*
X2151015Y-7009293D02*
X2151015Y-6961674D01*
X2151015Y-6961674D02*
X2160539Y-6923579D01*
X2160539Y-6923579D02*
X2170063Y-6904531D01*
X2170063Y-6904531D02*
X2179587Y-6895008D01*
X2179587Y-6895008D02*
X2198634Y-6885484D01*
X2351015Y-7066436D02*
X2360539Y-7075960D01*
X2360539Y-7075960D02*
X2351015Y-7085484D01*
X2351015Y-7085484D02*
X2341491Y-7075960D01*
X2341491Y-7075960D02*
X2351015Y-7066436D01*
X2351015Y-7066436D02*
X2351015Y-7085484D01*
X2484348Y-6885484D02*
X2503396Y-6885484D01*
X2503396Y-6885484D02*
X2522444Y-6895008D01*
X2522444Y-6895008D02*
X2531968Y-6904531D01*
X2531968Y-6904531D02*
X2541491Y-6923579D01*
X2541491Y-6923579D02*
X2551015Y-6961674D01*
X2551015Y-6961674D02*
X2551015Y-7009293D01*
X2551015Y-7009293D02*
X2541491Y-7047388D01*
X2541491Y-7047388D02*
X2531968Y-7066436D01*
X2531968Y-7066436D02*
X2522444Y-7075960D01*
X2522444Y-7075960D02*
X2503396Y-7085484D01*
X2503396Y-7085484D02*
X2484348Y-7085484D01*
X2484348Y-7085484D02*
X2465301Y-7075960D01*
X2465301Y-7075960D02*
X2455777Y-7066436D01*
X2455777Y-7066436D02*
X2446253Y-7047388D01*
X2446253Y-7047388D02*
X2436729Y-7009293D01*
X2436729Y-7009293D02*
X2436729Y-6961674D01*
X2436729Y-6961674D02*
X2446253Y-6923579D01*
X2446253Y-6923579D02*
X2455777Y-6904531D01*
X2455777Y-6904531D02*
X2465301Y-6895008D01*
X2465301Y-6895008D02*
X2484348Y-6885484D01*
X2731968Y-6885484D02*
X2636729Y-6885484D01*
X2636729Y-6885484D02*
X2627206Y-6980722D01*
X2627206Y-6980722D02*
X2636729Y-6971198D01*
X2636729Y-6971198D02*
X2655777Y-6961674D01*
X2655777Y-6961674D02*
X2703396Y-6961674D01*
X2703396Y-6961674D02*
X2722444Y-6971198D01*
X2722444Y-6971198D02*
X2731968Y-6980722D01*
X2731968Y-6980722D02*
X2741491Y-6999769D01*
X2741491Y-6999769D02*
X2741491Y-7047388D01*
X2741491Y-7047388D02*
X2731968Y-7066436D01*
X2731968Y-7066436D02*
X2722444Y-7075960D01*
X2722444Y-7075960D02*
X2703396Y-7085484D01*
X2703396Y-7085484D02*
X2655777Y-7085484D01*
X2655777Y-7085484D02*
X2636729Y-7075960D01*
X2636729Y-7075960D02*
X2627206Y-7066436D01*
X2836729Y-7085484D02*
X2874825Y-7085484D01*
X2874825Y-7085484D02*
X2893872Y-7075960D01*
X2893872Y-7075960D02*
X2903396Y-7066436D01*
X2903396Y-7066436D02*
X2922444Y-7037865D01*
X2922444Y-7037865D02*
X2931967Y-6999769D01*
X2931967Y-6999769D02*
X2931967Y-6923579D01*
X2931967Y-6923579D02*
X2922444Y-6904531D01*
X2922444Y-6904531D02*
X2912920Y-6895008D01*
X2912920Y-6895008D02*
X2893872Y-6885484D01*
X2893872Y-6885484D02*
X2855777Y-6885484D01*
X2855777Y-6885484D02*
X2836729Y-6895008D01*
X2836729Y-6895008D02*
X2827206Y-6904531D01*
X2827206Y-6904531D02*
X2817682Y-6923579D01*
X2817682Y-6923579D02*
X2817682Y-6971198D01*
X2817682Y-6971198D02*
X2827206Y-6990246D01*
X2827206Y-6990246D02*
X2836729Y-6999769D01*
X2836729Y-6999769D02*
X2855777Y-7009293D01*
X2855777Y-7009293D02*
X2893872Y-7009293D01*
X2893872Y-7009293D02*
X2912920Y-6999769D01*
X2912920Y-6999769D02*
X2922444Y-6990246D01*
X2922444Y-6990246D02*
X2931967Y-6971198D01*
X3122444Y-7085484D02*
X3008158Y-7085484D01*
X3065301Y-7085484D02*
X3065301Y-6885484D01*
X3065301Y-6885484D02*
X3046253Y-6914055D01*
X3046253Y-6914055D02*
X3027206Y-6933103D01*
X3027206Y-6933103D02*
X3008158Y-6942627D01*
X3198634Y-6885484D02*
X3198634Y-6923579D01*
X3274825Y-6885484D02*
X3274825Y-6923579D01*
X3570063Y-7161674D02*
X3560539Y-7152150D01*
X3560539Y-7152150D02*
X3541491Y-7123579D01*
X3541491Y-7123579D02*
X3531968Y-7104531D01*
X3531968Y-7104531D02*
X3522444Y-7075960D01*
X3522444Y-7075960D02*
X3512920Y-7028341D01*
X3512920Y-7028341D02*
X3512920Y-6990246D01*
X3512920Y-6990246D02*
X3522444Y-6942627D01*
X3522444Y-6942627D02*
X3531968Y-6914055D01*
X3531968Y-6914055D02*
X3541491Y-6895008D01*
X3541491Y-6895008D02*
X3560539Y-6866436D01*
X3560539Y-6866436D02*
X3570063Y-6856912D01*
X3636729Y-6904531D02*
X3646253Y-6895008D01*
X3646253Y-6895008D02*
X3665301Y-6885484D01*
X3665301Y-6885484D02*
X3712920Y-6885484D01*
X3712920Y-6885484D02*
X3731968Y-6895008D01*
X3731968Y-6895008D02*
X3741491Y-6904531D01*
X3741491Y-6904531D02*
X3751015Y-6923579D01*
X3751015Y-6923579D02*
X3751015Y-6942627D01*
X3751015Y-6942627D02*
X3741491Y-6971198D01*
X3741491Y-6971198D02*
X3627206Y-7085484D01*
X3627206Y-7085484D02*
X3751015Y-7085484D01*
X3989110Y-7085484D02*
X3989110Y-6885484D01*
X4074825Y-7085484D02*
X4074825Y-6980722D01*
X4074825Y-6980722D02*
X4065301Y-6961674D01*
X4065301Y-6961674D02*
X4046253Y-6952150D01*
X4046253Y-6952150D02*
X4017682Y-6952150D01*
X4017682Y-6952150D02*
X3998634Y-6961674D01*
X3998634Y-6961674D02*
X3989110Y-6971198D01*
X4198634Y-7085484D02*
X4179587Y-7075960D01*
X4179587Y-7075960D02*
X4170063Y-7066436D01*
X4170063Y-7066436D02*
X4160539Y-7047388D01*
X4160539Y-7047388D02*
X4160539Y-6990246D01*
X4160539Y-6990246D02*
X4170063Y-6971198D01*
X4170063Y-6971198D02*
X4179587Y-6961674D01*
X4179587Y-6961674D02*
X4198634Y-6952150D01*
X4198634Y-6952150D02*
X4227206Y-6952150D01*
X4227206Y-6952150D02*
X4246253Y-6961674D01*
X4246253Y-6961674D02*
X4255777Y-6971198D01*
X4255777Y-6971198D02*
X4265301Y-6990246D01*
X4265301Y-6990246D02*
X4265301Y-7047388D01*
X4265301Y-7047388D02*
X4255777Y-7066436D01*
X4255777Y-7066436D02*
X4246253Y-7075960D01*
X4246253Y-7075960D02*
X4227206Y-7085484D01*
X4227206Y-7085484D02*
X4198634Y-7085484D01*
X4379587Y-7085484D02*
X4360539Y-7075960D01*
X4360539Y-7075960D02*
X4351015Y-7056912D01*
X4351015Y-7056912D02*
X4351015Y-6885484D01*
X4531968Y-7075960D02*
X4512920Y-7085484D01*
X4512920Y-7085484D02*
X4474825Y-7085484D01*
X4474825Y-7085484D02*
X4455777Y-7075960D01*
X4455777Y-7075960D02*
X4446253Y-7056912D01*
X4446253Y-7056912D02*
X4446253Y-6980722D01*
X4446253Y-6980722D02*
X4455777Y-6961674D01*
X4455777Y-6961674D02*
X4474825Y-6952150D01*
X4474825Y-6952150D02*
X4512920Y-6952150D01*
X4512920Y-6952150D02*
X4531968Y-6961674D01*
X4531968Y-6961674D02*
X4541492Y-6980722D01*
X4541492Y-6980722D02*
X4541492Y-6999769D01*
X4541492Y-6999769D02*
X4446253Y-7018817D01*
X4617682Y-7075960D02*
X4636730Y-7085484D01*
X4636730Y-7085484D02*
X4674825Y-7085484D01*
X4674825Y-7085484D02*
X4693873Y-7075960D01*
X4693873Y-7075960D02*
X4703396Y-7056912D01*
X4703396Y-7056912D02*
X4703396Y-7047388D01*
X4703396Y-7047388D02*
X4693873Y-7028341D01*
X4693873Y-7028341D02*
X4674825Y-7018817D01*
X4674825Y-7018817D02*
X4646253Y-7018817D01*
X4646253Y-7018817D02*
X4627206Y-7009293D01*
X4627206Y-7009293D02*
X4617682Y-6990246D01*
X4617682Y-6990246D02*
X4617682Y-6980722D01*
X4617682Y-6980722D02*
X4627206Y-6961674D01*
X4627206Y-6961674D02*
X4646253Y-6952150D01*
X4646253Y-6952150D02*
X4674825Y-6952150D01*
X4674825Y-6952150D02*
X4693873Y-6961674D01*
X4770063Y-7161674D02*
X4779587Y-7152150D01*
X4779587Y-7152150D02*
X4798634Y-7123579D01*
X4798634Y-7123579D02*
X4808158Y-7104531D01*
X4808158Y-7104531D02*
X4817682Y-7075960D01*
X4817682Y-7075960D02*
X4827206Y-7028341D01*
X4827206Y-7028341D02*
X4827206Y-6990246D01*
X4827206Y-6990246D02*
X4817682Y-6942627D01*
X4817682Y-6942627D02*
X4808158Y-6914055D01*
X4808158Y-6914055D02*
X4798634Y-6895008D01*
X4798634Y-6895008D02*
X4779587Y-6866436D01*
X4779587Y-6866436D02*
X4770063Y-6856912D01*
X5131968Y-7161674D02*
X5122444Y-7152150D01*
X5122444Y-7152150D02*
X5103396Y-7123579D01*
X5103396Y-7123579D02*
X5093873Y-7104531D01*
X5093873Y-7104531D02*
X5084349Y-7075960D01*
X5084349Y-7075960D02*
X5074825Y-7028341D01*
X5074825Y-7028341D02*
X5074825Y-6990246D01*
X5074825Y-6990246D02*
X5084349Y-6942627D01*
X5084349Y-6942627D02*
X5093873Y-6914055D01*
X5093873Y-6914055D02*
X5103396Y-6895008D01*
X5103396Y-6895008D02*
X5122444Y-6866436D01*
X5122444Y-6866436D02*
X5131968Y-6856912D01*
X5208158Y-6952150D02*
X5208158Y-7085484D01*
X5208158Y-6971198D02*
X5217682Y-6961674D01*
X5217682Y-6961674D02*
X5236730Y-6952150D01*
X5236730Y-6952150D02*
X5265301Y-6952150D01*
X5265301Y-6952150D02*
X5284349Y-6961674D01*
X5284349Y-6961674D02*
X5293873Y-6980722D01*
X5293873Y-6980722D02*
X5293873Y-7085484D01*
X5417682Y-7085484D02*
X5398634Y-7075960D01*
X5398634Y-7075960D02*
X5389111Y-7066436D01*
X5389111Y-7066436D02*
X5379587Y-7047388D01*
X5379587Y-7047388D02*
X5379587Y-6990246D01*
X5379587Y-6990246D02*
X5389111Y-6971198D01*
X5389111Y-6971198D02*
X5398634Y-6961674D01*
X5398634Y-6961674D02*
X5417682Y-6952150D01*
X5417682Y-6952150D02*
X5446254Y-6952150D01*
X5446254Y-6952150D02*
X5465301Y-6961674D01*
X5465301Y-6961674D02*
X5474825Y-6971198D01*
X5474825Y-6971198D02*
X5484349Y-6990246D01*
X5484349Y-6990246D02*
X5484349Y-7047388D01*
X5484349Y-7047388D02*
X5474825Y-7066436D01*
X5474825Y-7066436D02*
X5465301Y-7075960D01*
X5465301Y-7075960D02*
X5446254Y-7085484D01*
X5446254Y-7085484D02*
X5417682Y-7085484D01*
X5541492Y-6952150D02*
X5617682Y-6952150D01*
X5570063Y-6885484D02*
X5570063Y-7056912D01*
X5570063Y-7056912D02*
X5579587Y-7075960D01*
X5579587Y-7075960D02*
X5598634Y-7085484D01*
X5598634Y-7085484D02*
X5617682Y-7085484D01*
X5836730Y-6952150D02*
X5836730Y-7152150D01*
X5836730Y-6961674D02*
X5855777Y-6952150D01*
X5855777Y-6952150D02*
X5893873Y-6952150D01*
X5893873Y-6952150D02*
X5912920Y-6961674D01*
X5912920Y-6961674D02*
X5922444Y-6971198D01*
X5922444Y-6971198D02*
X5931968Y-6990246D01*
X5931968Y-6990246D02*
X5931968Y-7047388D01*
X5931968Y-7047388D02*
X5922444Y-7066436D01*
X5922444Y-7066436D02*
X5912920Y-7075960D01*
X5912920Y-7075960D02*
X5893873Y-7085484D01*
X5893873Y-7085484D02*
X5855777Y-7085484D01*
X5855777Y-7085484D02*
X5836730Y-7075960D01*
X6046253Y-7085484D02*
X6027206Y-7075960D01*
X6027206Y-7075960D02*
X6017682Y-7056912D01*
X6017682Y-7056912D02*
X6017682Y-6885484D01*
X6208158Y-7085484D02*
X6208158Y-6980722D01*
X6208158Y-6980722D02*
X6198634Y-6961674D01*
X6198634Y-6961674D02*
X6179587Y-6952150D01*
X6179587Y-6952150D02*
X6141492Y-6952150D01*
X6141492Y-6952150D02*
X6122444Y-6961674D01*
X6208158Y-7075960D02*
X6189111Y-7085484D01*
X6189111Y-7085484D02*
X6141492Y-7085484D01*
X6141492Y-7085484D02*
X6122444Y-7075960D01*
X6122444Y-7075960D02*
X6112920Y-7056912D01*
X6112920Y-7056912D02*
X6112920Y-7037865D01*
X6112920Y-7037865D02*
X6122444Y-7018817D01*
X6122444Y-7018817D02*
X6141492Y-7009293D01*
X6141492Y-7009293D02*
X6189111Y-7009293D01*
X6189111Y-7009293D02*
X6208158Y-6999769D01*
X6274825Y-6952150D02*
X6351015Y-6952150D01*
X6303396Y-6885484D02*
X6303396Y-7056912D01*
X6303396Y-7056912D02*
X6312920Y-7075960D01*
X6312920Y-7075960D02*
X6331968Y-7085484D01*
X6331968Y-7085484D02*
X6351015Y-7085484D01*
X6493873Y-7075960D02*
X6474825Y-7085484D01*
X6474825Y-7085484D02*
X6436730Y-7085484D01*
X6436730Y-7085484D02*
X6417682Y-7075960D01*
X6417682Y-7075960D02*
X6408158Y-7056912D01*
X6408158Y-7056912D02*
X6408158Y-6980722D01*
X6408158Y-6980722D02*
X6417682Y-6961674D01*
X6417682Y-6961674D02*
X6436730Y-6952150D01*
X6436730Y-6952150D02*
X6474825Y-6952150D01*
X6474825Y-6952150D02*
X6493873Y-6961674D01*
X6493873Y-6961674D02*
X6503396Y-6980722D01*
X6503396Y-6980722D02*
X6503396Y-6999769D01*
X6503396Y-6999769D02*
X6408158Y-7018817D01*
X6674825Y-7085484D02*
X6674825Y-6885484D01*
X6674825Y-7075960D02*
X6655777Y-7085484D01*
X6655777Y-7085484D02*
X6617682Y-7085484D01*
X6617682Y-7085484D02*
X6598634Y-7075960D01*
X6598634Y-7075960D02*
X6589111Y-7066436D01*
X6589111Y-7066436D02*
X6579587Y-7047388D01*
X6579587Y-7047388D02*
X6579587Y-6990246D01*
X6579587Y-6990246D02*
X6589111Y-6971198D01*
X6589111Y-6971198D02*
X6598634Y-6961674D01*
X6598634Y-6961674D02*
X6617682Y-6952150D01*
X6617682Y-6952150D02*
X6655777Y-6952150D01*
X6655777Y-6952150D02*
X6674825Y-6961674D01*
X6751015Y-7161674D02*
X6760539Y-7152150D01*
X6760539Y-7152150D02*
X6779587Y-7123579D01*
X6779587Y-7123579D02*
X6789111Y-7104531D01*
X6789111Y-7104531D02*
X6798634Y-7075960D01*
X6798634Y-7075960D02*
X6808158Y-7028341D01*
X6808158Y-7028341D02*
X6808158Y-6990246D01*
X6808158Y-6990246D02*
X6798634Y-6942627D01*
X6798634Y-6942627D02*
X6789111Y-6914055D01*
X6789111Y-6914055D02*
X6779587Y-6895008D01*
X6779587Y-6895008D02*
X6760539Y-6866436D01*
X6760539Y-6866436D02*
X6751015Y-6856912D01*
M02*
