M48
; DRILL file {KiCad 7.0.7} date 2023 October 17, Tuesday 16:06:10
; FORMAT={-:-/ absolute / metric / decimal}
; #@! TF.CreationDate,2023-10-17T16:06:10-04:00
; #@! TF.GenerationSoftware,Kicad,Pcbnew,7.0.7
; #@! TF.FileFunction,MixedPlating,1,2
FMAT,2
METRIC
; #@! TA.AperFunction,Plated,PTH,ViaDrill
T1C0.400
; #@! TA.AperFunction,Plated,PTH,ComponentDrill
T2C0.762
; #@! TA.AperFunction,Plated,PTH,ComponentDrill
T3C3.200
; #@! TA.AperFunction,NonPlated,NPTH,ComponentDrill
T4C1.500
%
G90
G05
T1
X1.247Y-41.28
X1.501Y-35.184
X2.0Y-23.0
X3.0Y-27.0
X7.826Y-33.558
X8.0Y-39.0
X9.0Y-2.0
X9.248Y-22.738
X11.0Y-45.0
X14.0Y-53.0
X14.531Y-38.283
X14.785Y-31.323
X15.0Y-2.0
X17.198Y-39.35
X20.0Y-22.0
X20.0Y-27.0
X25.0Y-2.0
X31.0Y-46.0
X31.0Y-53.0
X52.0Y-35.0
X52.0Y-41.0
X55.0Y-53.0
X59.0Y-35.0
X59.0Y-41.0
X64.0Y-31.0
X64.0Y-35.0
X64.239Y-9.149
X65.0Y-53.0
X70.0Y-22.0
X71.097Y-28.377
X72.0Y-31.0
X72.0Y-43.0
X72.545Y-21.798
X75.0Y-53.0
X77.0Y-2.0
X80.0Y-46.0
X80.0Y-54.0
X80.216Y-29.367
X80.292Y-47.351
X82.0Y-41.0
X82.248Y-20.731
X84.0Y-2.0
X85.0Y-43.0
X88.166Y-38.943
X89.0Y-14.0
X89.0Y-39.0
X89.0Y-43.0
X90.0Y-53.0
X91.0Y-2.0
X98.0Y-9.0
X98.0Y-15.0
X98.0Y-24.0
X98.0Y-34.0
X98.0Y-40.0
T2
X83.0Y-46.2
X83.0Y-51.2
X85.0Y-51.2
X87.0Y-46.2
X87.0Y-51.2
T3
X4.0Y-4.0
X4.0Y-51.0
X50.0Y-27.0
X96.0Y-4.0
X96.0Y-51.0
T4
X25.0Y-45.4
X25.0Y-52.4
T0
M30
