M48
; DRILL file {KiCad 7.0.7} date 2023 November 18, Saturday 13:41:25
; FORMAT={-:-/ absolute / metric / decimal}
; #@! TF.CreationDate,2023-11-18T13:41:25-05:00
; #@! TF.GenerationSoftware,Kicad,Pcbnew,7.0.7
; #@! TF.FileFunction,MixedPlating,1,2
FMAT,2
METRIC
; #@! TA.AperFunction,Plated,PTH,ComponentDrill
T1C0.200
; #@! TA.AperFunction,Plated,PTH,ViaDrill
T2C0.400
; #@! TA.AperFunction,Plated,PTH,ComponentDrill
T3C1.100
; #@! TA.AperFunction,Plated,PTH,ComponentDrill
T4C3.200
; #@! TA.AperFunction,NonPlated,NPTH,ComponentDrill
T5C3.500
%
G90
G05
T1
X69.03Y-30.127
X69.03Y-30.927
X69.03Y-31.727
X69.83Y-30.127
X69.83Y-30.927
X69.83Y-31.727
X70.63Y-30.127
X70.63Y-30.927
X70.63Y-31.727
T2
X2.443Y-10.836
X2.494Y-35.524
X2.545Y-21.351
X6.609Y-34.991
X7.6Y-44.567
X11.308Y-50.841
X12.451Y-43.373
X12.959Y-34.991
X14.229Y-24.196
X14.229Y-26.99
X18.547Y-41.976
X18.801Y-34.991
X18.928Y-13.909
X21.163Y-27.066
X22.357Y-15.941
X23.881Y-23.561
X26.04Y-34.991
X27.31Y-44.135
X27.691Y-52.644
X28.402Y-39.665
X31.095Y-35.042
X31.552Y-20.284
X34.346Y-13.528
X34.701Y-39.69
X37.343Y-49.52
X38.74Y-52.517
X38.969Y-8.397
X38.969Y-19.903
X41.788Y-34.864
X53.701Y-45.735
X54.412Y-16.855
X54.463Y-8.423
X56.241Y-12.664
X56.241Y-23.51
X58.171Y-7.559
X58.171Y-17.719
X59.72Y-1.082
X59.924Y-30.343
X60.025Y-13.96
X63.48Y-40.579
X63.505Y-36.007
X64.343Y-44.541
X64.513Y-31.544
X64.623Y-11.852
X65.569Y-28.997
X66.737Y-27.295
X67.188Y-23.561
X68.839Y-7.559
X71.049Y-53.381
X71.328Y-23.536
X73.411Y-45.659
X74.3Y-1.133
X75.697Y-28.082
X76.789Y-36.363
X76.942Y-42.001
X77.348Y-31.257
X77.958Y-40.02
X78.415Y-12.664
X80.929Y-21.986
X87.94Y-26.0
X89.159Y-53.355
X89.946Y-45.888
X90.81Y-35.677
X90.886Y-22.494
X92.055Y-31.384
T3
X29.46Y-23.66
X29.46Y-46.66
X32.0Y-23.66
X32.0Y-46.66
X34.54Y-23.66
X34.54Y-46.66
T4
X4.0Y-4.0
X4.0Y-51.0
X96.0Y-4.0
X96.0Y-51.0
T5
X32.0Y-7.0
X32.0Y-30.0
T0
M30
