M48
; DRILL file {KiCad 7.0.9} date Thursday, December 28, 2023 at 12:30:27 PM
; FORMAT={-:-/ absolute / metric / decimal}
; #@! TF.CreationDate,2023-12-28T12:30:27-05:00
; #@! TF.GenerationSoftware,Kicad,Pcbnew,7.0.9
; #@! TF.FileFunction,MixedPlating,1,2
FMAT,2
METRIC
; #@! TA.AperFunction,Plated,PTH,ComponentDrill
T1C0.200
; #@! TA.AperFunction,Plated,PTH,ViaDrill
T2C0.400
; #@! TA.AperFunction,Plated,PTH,ViaDrill
T3C0.800
; #@! TA.AperFunction,Plated,PTH,ComponentDrill
T4C3.200
%
G90
G05
T1
X25.9Y-27.7
X25.9Y-28.5
X25.9Y-29.3
X26.7Y-27.7
X26.7Y-28.5
X26.7Y-29.3
X27.5Y-27.7
X27.5Y-28.5
X27.5Y-29.3
T2
X1.44Y-7.2
X1.44Y-21.36
X1.44Y-32.79
X1.44Y-46.76
X2.0Y-18.0
X5.0Y-18.0
X5.2Y-9.1
X8.0Y-18.0
X9.7Y-7.0
X10.2Y-1.14
X10.5Y-14.9
X10.5Y-16.0
X11.5Y-10.5
X11.5Y-13.5
X11.5Y-18.0
X12.0Y-41.0
X14.14Y-54.38
X15.0Y-18.0
X15.0Y-41.0
X15.6Y-7.1
X18.0Y-18.0
X18.9Y-8.0
X18.9Y-9.2
X20.0Y-6.0
X20.0Y-18.0
X20.0Y-21.0
X20.0Y-27.0
X20.0Y-31.0
X20.0Y-36.0
X21.5Y-11.2
X22.0Y-6.0
X22.0Y-18.0
X25.4Y-18.0
X27.4Y-36.0
X27.4Y-38.3
X27.98Y-1.14
X29.38Y-54.38
X29.67Y-5.95
X29.7Y-11.0
X30.0Y-42.0
X31.0Y-18.0
X32.0Y-8.6
X33.0Y-18.0
X33.0Y-23.0
X33.0Y-27.0
X33.06Y-1.14
X34.4Y-42.0
X34.46Y-54.38
X35.7Y-15.4
X35.9Y-1.2
X36.6Y-18.0
X41.0Y-18.0
X43.8Y-8.6
X43.8Y-18.0
X45.89Y-54.38
X46.1Y-8.6
X47.0Y-18.0
X48.3Y-8.6
X49.7Y-54.38
X51.0Y-18.0
X53.5Y-0.8
X56.0Y-17.98
X56.0Y-24.3
X57.1Y-0.8
X57.7Y-8.0
X57.7Y-9.2
X57.8Y-11.2
X60.0Y-24.3
X63.0Y-0.8
X63.5Y-14.4
X63.5Y-24.3
X68.0Y-0.8
X68.3Y-24.3
X69.0Y-14.0
X73.0Y-0.8
X73.2Y-14.4
X73.2Y-24.3
X77.2Y-0.8
X79.0Y-1.0
X80.0Y-10.0
X80.0Y-16.0
X82.7Y-25.0
X83.0Y-22.0
X88.0Y-9.0
X89.0Y-22.8
X91.2Y-0.8
X91.2Y-4.3
X93.7Y-9.2
X93.7Y-19.3
X93.7Y-25.0
X98.0Y-41.0
T3
X9.1Y-2.7
X9.1Y-13.5
X22.8Y-23.8
X24.05Y-41.6
X24.274Y-36.3
X28.2Y-19.2
X28.2Y-21.6
X31.0Y-25.5
X34.6Y-2.5
X34.6Y-13.8
X90.25Y-28.15
X90.4Y-7.0
T4
X4.0Y-4.0
X4.0Y-51.0
X96.0Y-4.0
X96.0Y-51.0
T0
M30
