%TF.GenerationSoftware,KiCad,Pcbnew,7.0.2-0*%
%TF.CreationDate,2023-05-27T20:56:29-04:00*%
%TF.ProjectId,IF_AMP_t1,49465f41-4d50-45f7-9431-2e6b69636164,rev?*%
%TF.SameCoordinates,Original*%
%TF.FileFunction,Copper,L1,Top*%
%TF.FilePolarity,Positive*%
%FSLAX46Y46*%
G04 Gerber Fmt 4.6, Leading zero omitted, Abs format (unit mm)*
G04 Created by KiCad (PCBNEW 7.0.2-0) date 2023-05-27 20:56:29*
%MOMM*%
%LPD*%
G01*
G04 APERTURE LIST*
G04 Aperture macros list*
%AMRoundRect*
0 Rectangle with rounded corners*
0 $1 Rounding radius*
0 $2 $3 $4 $5 $6 $7 $8 $9 X,Y pos of 4 corners*
0 Add a 4 corners polygon primitive as box body*
4,1,4,$2,$3,$4,$5,$6,$7,$8,$9,$2,$3,0*
0 Add four circle primitives for the rounded corners*
1,1,$1+$1,$2,$3*
1,1,$1+$1,$4,$5*
1,1,$1+$1,$6,$7*
1,1,$1+$1,$8,$9*
0 Add four rect primitives between the rounded corners*
20,1,$1+$1,$2,$3,$4,$5,0*
20,1,$1+$1,$4,$5,$6,$7,0*
20,1,$1+$1,$6,$7,$8,$9,0*
20,1,$1+$1,$8,$9,$2,$3,0*%
G04 Aperture macros list end*
%TA.AperFunction,SMDPad,CuDef*%
%ADD10RoundRect,0.150000X0.150000X-0.587500X0.150000X0.587500X-0.150000X0.587500X-0.150000X-0.587500X0*%
%TD*%
%TA.AperFunction,SMDPad,CuDef*%
%ADD11RoundRect,0.250000X0.250000X0.475000X-0.250000X0.475000X-0.250000X-0.475000X0.250000X-0.475000X0*%
%TD*%
%TA.AperFunction,SMDPad,CuDef*%
%ADD12R,1.000000X1.050000*%
%TD*%
%TA.AperFunction,SMDPad,CuDef*%
%ADD13R,1.050000X2.200000*%
%TD*%
%TA.AperFunction,SMDPad,CuDef*%
%ADD14RoundRect,0.250000X0.475000X-0.250000X0.475000X0.250000X-0.475000X0.250000X-0.475000X-0.250000X0*%
%TD*%
%TA.AperFunction,SMDPad,CuDef*%
%ADD15RoundRect,0.250000X0.262500X0.450000X-0.262500X0.450000X-0.262500X-0.450000X0.262500X-0.450000X0*%
%TD*%
%TA.AperFunction,SMDPad,CuDef*%
%ADD16RoundRect,0.218750X0.218750X0.381250X-0.218750X0.381250X-0.218750X-0.381250X0.218750X-0.381250X0*%
%TD*%
%TA.AperFunction,SMDPad,CuDef*%
%ADD17RoundRect,0.150000X-0.587500X-0.150000X0.587500X-0.150000X0.587500X0.150000X-0.587500X0.150000X0*%
%TD*%
%TA.AperFunction,SMDPad,CuDef*%
%ADD18C,2.500000*%
%TD*%
%TA.AperFunction,SMDPad,CuDef*%
%ADD19RoundRect,0.250000X-0.250000X-0.475000X0.250000X-0.475000X0.250000X0.475000X-0.250000X0.475000X0*%
%TD*%
%TA.AperFunction,Conductor*%
%ADD20C,1.000000*%
%TD*%
%TA.AperFunction,Conductor*%
%ADD21C,0.500000*%
%TD*%
G04 APERTURE END LIST*
D10*
%TO.P,Q1,1,B*%
%TO.N,Net-(Q1-B)*%
X97890000Y-69287500D03*
%TO.P,Q1,2,E*%
%TO.N,Net-(Q1-E)*%
X99790000Y-69287500D03*
%TO.P,Q1,3,C*%
%TO.N,Net-(Q1-C)*%
X98840000Y-67412500D03*
%TD*%
D11*
%TO.P,C4,1*%
%TO.N,Earth*%
X104350000Y-72060000D03*
%TO.P,C4,2*%
%TO.N,Net-(C4-Pad2)*%
X102450000Y-72060000D03*
%TD*%
D12*
%TO.P,J1,1,In*%
%TO.N,Net-(J1-In)*%
X98830000Y-61760000D03*
D13*
%TO.P,J1,2,Ext*%
%TO.N,Earth*%
X97355000Y-60235000D03*
X100305000Y-60235000D03*
%TD*%
D14*
%TO.P,C3,1*%
%TO.N,Net-(Q1-C)*%
X98840000Y-65380000D03*
%TO.P,C3,2*%
%TO.N,Net-(J1-In)*%
X98840000Y-63480000D03*
%TD*%
D15*
%TO.P,R2,1*%
%TO.N,Net-(C4-Pad2)*%
X102492500Y-65390000D03*
%TO.P,R2,2*%
%TO.N,Net-(Q1-C)*%
X100667500Y-65390000D03*
%TD*%
%TO.P,R1,1*%
%TO.N,Net-(C4-Pad2)*%
X102452500Y-74080000D03*
%TO.P,R1,2*%
%TO.N,Net-(Q1-B)*%
X100627500Y-74080000D03*
%TD*%
D16*
%TO.P,L2,1,1*%
%TO.N,Net-(Q2-C)*%
X93812500Y-70420000D03*
%TO.P,L2,2,2*%
%TO.N,Net-(Q2-B)*%
X91687500Y-70420000D03*
%TD*%
D17*
%TO.P,Q3,1,B*%
%TO.N,Net-(Q2-C)*%
X96020000Y-73130000D03*
%TO.P,Q3,2,E*%
%TO.N,Earth*%
X96020000Y-75030000D03*
%TO.P,Q3,3,C*%
%TO.N,Net-(Q1-B)*%
X97895000Y-74080000D03*
%TD*%
%TO.P,Q2,1,B*%
%TO.N,Net-(Q2-B)*%
X91920000Y-72180000D03*
%TO.P,Q2,2,E*%
%TO.N,Earth*%
X91920000Y-74080000D03*
%TO.P,Q2,3,C*%
%TO.N,Net-(Q2-C)*%
X93795000Y-73130000D03*
%TD*%
D18*
%TO.P,TP1,1,1*%
%TO.N,Net-(C4-Pad2)*%
X104210000Y-62000000D03*
%TD*%
D12*
%TO.P,J2,1,In*%
%TO.N,Net-(J2-In)*%
X88060000Y-72570000D03*
D13*
%TO.P,J2,2,Ext*%
%TO.N,Earth*%
X89535000Y-74095000D03*
X86585000Y-74095000D03*
%TD*%
D19*
%TO.P,C2,1*%
%TO.N,Net-(Q1-E)*%
X101460000Y-69300000D03*
%TO.P,C2,2*%
%TO.N,Earth*%
X103360000Y-69300000D03*
%TD*%
%TO.P,C1,1*%
%TO.N,Net-(J2-In)*%
X88060000Y-70400000D03*
%TO.P,C1,2*%
%TO.N,Net-(Q2-B)*%
X89960000Y-70400000D03*
%TD*%
D11*
%TO.P,C5,1*%
%TO.N,Earth*%
X106120000Y-65390000D03*
%TO.P,C5,2*%
%TO.N,Net-(C4-Pad2)*%
X104220000Y-65390000D03*
%TD*%
D16*
%TO.P,L1,1,1*%
%TO.N,Net-(Q1-E)*%
X98942500Y-71420000D03*
%TO.P,L1,2,2*%
%TO.N,Net-(Q2-C)*%
X96817500Y-71420000D03*
%TD*%
D20*
%TO.N,Net-(J2-In)*%
X88060000Y-70400000D02*
X88060000Y-72570000D01*
D21*
%TO.N,Net-(Q2-B)*%
X89960000Y-70400000D02*
X91667500Y-70400000D01*
X91667500Y-70400000D02*
X91687500Y-70420000D01*
X91687500Y-70420000D02*
X91687500Y-71947500D01*
X91687500Y-71947500D02*
X91920000Y-72180000D01*
%TO.N,Net-(Q1-E)*%
X101460000Y-69300000D02*
X99802500Y-69300000D01*
X99790000Y-70810000D02*
X99790000Y-69287500D01*
X99180000Y-71420000D02*
X99790000Y-70810000D01*
X99802500Y-69300000D02*
X99790000Y-69287500D01*
X98942500Y-71420000D02*
X99180000Y-71420000D01*
%TO.N,Net-(Q1-C)*%
X98840000Y-67412500D02*
X98840000Y-65380000D01*
X98850000Y-65390000D02*
X98840000Y-65380000D01*
X100667500Y-65390000D02*
X98850000Y-65390000D01*
%TO.N,Net-(J1-In)*%
X98840000Y-61780000D02*
X98820000Y-61760000D01*
D20*
X98840000Y-63480000D02*
X98840000Y-61780000D01*
D21*
%TO.N,Net-(C4-Pad2)*%
X102492500Y-65390000D02*
X102410000Y-65472500D01*
X104220000Y-65390000D02*
X104220000Y-62010000D01*
X102410000Y-65472500D02*
X102410000Y-74037500D01*
X102410000Y-74037500D02*
X102452500Y-74080000D01*
X102492500Y-65390000D02*
X104220000Y-65390000D01*
X104220000Y-62010000D02*
X104210000Y-62000000D01*
%TO.N,Net-(Q2-C)*%
X93812500Y-73112500D02*
X93795000Y-73130000D01*
X93812500Y-70420000D02*
X93812500Y-73112500D01*
X96020000Y-73130000D02*
X93795000Y-73130000D01*
X96817500Y-72332500D02*
X96020000Y-73130000D01*
X96817500Y-71420000D02*
X96817500Y-72332500D01*
%TO.N,Net-(Q1-B)*%
X97890000Y-69287500D02*
X97890000Y-74075000D01*
X97890000Y-74075000D02*
X97895000Y-74080000D01*
X97895000Y-74080000D02*
X100627500Y-74080000D01*
%TD*%
%TA.AperFunction,Conductor*%
%TO.N,Earth*%
G36*
X107942539Y-58020185D02*
G01*
X107988294Y-58072989D01*
X107999500Y-58124500D01*
X107999500Y-76875500D01*
X107979815Y-76942539D01*
X107927011Y-76988294D01*
X107875500Y-76999500D01*
X85124500Y-76999500D01*
X85057461Y-76979815D01*
X85011706Y-76927011D01*
X85000500Y-76875500D01*
X85000500Y-73139578D01*
X87059500Y-73139578D01*
X87059501Y-73142872D01*
X87059853Y-73146152D01*
X87059854Y-73146159D01*
X87065909Y-73202484D01*
X87085207Y-73254223D01*
X87116204Y-73337331D01*
X87202454Y-73452546D01*
X87317669Y-73538796D01*
X87452517Y-73589091D01*
X87512127Y-73595500D01*
X88607872Y-73595499D01*
X88667483Y-73589091D01*
X88802331Y-73538796D01*
X88917546Y-73452546D01*
X89003796Y-73337331D01*
X89054091Y-73202483D01*
X89060500Y-73142873D01*
X89060500Y-72570173D01*
X89060500Y-71578340D01*
X89080185Y-71511302D01*
X89132989Y-71465547D01*
X89202147Y-71455603D01*
X89249596Y-71472802D01*
X89390666Y-71559814D01*
X89502017Y-71596712D01*
X89557202Y-71614999D01*
X89656858Y-71625180D01*
X89656859Y-71625180D01*
X89659991Y-71625500D01*
X90260008Y-71625499D01*
X90362797Y-71614999D01*
X90529334Y-71559814D01*
X90614212Y-71507460D01*
X90681604Y-71489021D01*
X90748268Y-71509944D01*
X90793037Y-71563586D01*
X90801698Y-71632917D01*
X90786040Y-71676121D01*
X90730755Y-71769602D01*
X90684902Y-71927427D01*
X90682191Y-71961871D01*
X90682190Y-71961886D01*
X90682000Y-71964306D01*
X90682000Y-72395694D01*
X90682190Y-72398114D01*
X90682191Y-72398128D01*
X90684902Y-72432572D01*
X90730755Y-72590397D01*
X90788357Y-72687796D01*
X90814419Y-72731865D01*
X90930635Y-72848081D01*
X91001518Y-72890001D01*
X91072102Y-72931744D01*
X91229927Y-72977597D01*
X91229931Y-72977598D01*
X91266806Y-72980500D01*
X92433000Y-72980500D01*
X92500039Y-73000185D01*
X92545794Y-73052989D01*
X92557000Y-73104500D01*
X92557000Y-73345694D01*
X92557190Y-73348114D01*
X92557191Y-73348128D01*
X92559902Y-73382572D01*
X92605755Y-73540397D01*
X92638343Y-73595500D01*
X92689419Y-73681865D01*
X92805635Y-73798081D01*
X92944999Y-73880500D01*
X92947102Y-73881744D01*
X93104927Y-73927597D01*
X93104931Y-73927598D01*
X93141806Y-73930500D01*
X93144251Y-73930500D01*
X94445749Y-73930500D01*
X94448194Y-73930500D01*
X94485069Y-73927598D01*
X94551597Y-73908269D01*
X94630232Y-73885424D01*
X94664827Y-73880500D01*
X95150173Y-73880500D01*
X95184768Y-73885424D01*
X95329927Y-73927597D01*
X95329931Y-73927598D01*
X95366806Y-73930500D01*
X96533000Y-73930500D01*
X96600039Y-73950185D01*
X96645794Y-74002989D01*
X96657000Y-74054499D01*
X96657000Y-74295694D01*
X96657190Y-74298114D01*
X96657191Y-74298128D01*
X96659902Y-74332572D01*
X96705755Y-74490397D01*
X96760604Y-74583141D01*
X96789419Y-74631865D01*
X96905635Y-74748081D01*
X97044999Y-74830500D01*
X97047102Y-74831744D01*
X97204927Y-74877597D01*
X97204931Y-74877598D01*
X97241806Y-74880500D01*
X97244251Y-74880500D01*
X98545749Y-74880500D01*
X98548194Y-74880500D01*
X98585069Y-74877598D01*
X98679424Y-74850185D01*
X98730232Y-74835424D01*
X98764827Y-74830500D01*
X99599362Y-74830500D01*
X99666401Y-74850185D01*
X99704901Y-74889404D01*
X99772288Y-74998657D01*
X99896342Y-75122711D01*
X99952895Y-75157593D01*
X100045666Y-75214814D01*
X100157017Y-75251712D01*
X100212202Y-75269999D01*
X100311858Y-75280180D01*
X100311859Y-75280180D01*
X100314991Y-75280500D01*
X100940008Y-75280499D01*
X101042797Y-75269999D01*
X101209334Y-75214814D01*
X101358656Y-75122712D01*
X101452320Y-75029047D01*
X101513641Y-74995564D01*
X101583333Y-75000548D01*
X101627679Y-75029047D01*
X101721343Y-75122711D01*
X101721345Y-75122713D01*
X101796004Y-75168763D01*
X101870666Y-75214814D01*
X101982017Y-75251712D01*
X102037202Y-75269999D01*
X102136858Y-75280180D01*
X102136859Y-75280180D01*
X102139991Y-75280500D01*
X102765008Y-75280499D01*
X102867797Y-75269999D01*
X103034334Y-75214814D01*
X103183656Y-75122712D01*
X103307712Y-74998656D01*
X103399814Y-74849334D01*
X103454999Y-74682797D01*
X103465500Y-74580009D01*
X103465499Y-73579992D01*
X103454999Y-73477203D01*
X103399814Y-73310666D01*
X103307712Y-73161344D01*
X103307711Y-73161342D01*
X103307606Y-73161237D01*
X103307293Y-73160665D01*
X103300103Y-73149007D01*
X103300720Y-73148626D01*
X103274121Y-73099914D01*
X103279105Y-73030222D01*
X103289748Y-73008459D01*
X103292708Y-73003659D01*
X103292712Y-73003656D01*
X103384814Y-72854334D01*
X103439999Y-72687797D01*
X103450500Y-72585009D01*
X103450499Y-71534992D01*
X103439999Y-71432203D01*
X103384814Y-71265666D01*
X103292712Y-71116344D01*
X103292711Y-71116342D01*
X103196819Y-71020450D01*
X103163334Y-70959127D01*
X103160500Y-70932769D01*
X103160500Y-66540873D01*
X103180185Y-66473834D01*
X103219405Y-66435333D01*
X103223656Y-66432712D01*
X103262319Y-66394048D01*
X103323640Y-66360564D01*
X103393331Y-66365548D01*
X103437680Y-66394049D01*
X103501342Y-66457711D01*
X103501344Y-66457712D01*
X103650666Y-66549814D01*
X103733514Y-66577267D01*
X103817202Y-66604999D01*
X103916858Y-66615180D01*
X103916859Y-66615180D01*
X103919991Y-66615500D01*
X104520008Y-66615499D01*
X104622797Y-66604999D01*
X104789334Y-66549814D01*
X104938656Y-66457712D01*
X105062712Y-66333656D01*
X105154814Y-66184334D01*
X105209999Y-66017797D01*
X105220500Y-65915009D01*
X105220499Y-64864992D01*
X105209999Y-64762203D01*
X105154814Y-64595666D01*
X105078132Y-64471344D01*
X105062711Y-64446342D01*
X105006818Y-64390449D01*
X104973333Y-64329126D01*
X104970499Y-64302768D01*
X104970499Y-64049333D01*
X104970499Y-63654580D01*
X104990182Y-63587545D01*
X105040696Y-63542865D01*
X105087704Y-63520228D01*
X105304479Y-63372433D01*
X105304482Y-63372429D01*
X105304485Y-63372428D01*
X105389792Y-63293273D01*
X105496805Y-63193981D01*
X105660386Y-62988857D01*
X105791568Y-62761643D01*
X105887420Y-62517416D01*
X105945802Y-62261630D01*
X105965408Y-62000000D01*
X105945802Y-61738370D01*
X105887420Y-61482584D01*
X105791568Y-61238357D01*
X105660386Y-61011143D01*
X105496805Y-60806019D01*
X105496801Y-60806015D01*
X105304485Y-60627571D01*
X105287170Y-60615766D01*
X105087704Y-60479772D01*
X104851323Y-60365937D01*
X104600615Y-60288604D01*
X104341182Y-60249500D01*
X104078818Y-60249500D01*
X103819385Y-60288604D01*
X103568677Y-60365937D01*
X103332296Y-60479772D01*
X103262922Y-60527070D01*
X103115514Y-60627571D01*
X102923198Y-60806015D01*
X102759613Y-61011143D01*
X102628431Y-61238358D01*
X102532580Y-61482581D01*
X102474197Y-61738372D01*
X102454591Y-62000000D01*
X102474197Y-62261627D01*
X102532580Y-62517418D01*
X102628431Y-62761641D01*
X102628432Y-62761643D01*
X102759614Y-62988857D01*
X102923195Y-63193981D01*
X102923197Y-63193983D01*
X102923198Y-63193984D01*
X103115514Y-63372428D01*
X103115520Y-63372432D01*
X103115521Y-63372433D01*
X103332296Y-63520228D01*
X103399302Y-63552496D01*
X103451160Y-63599316D01*
X103469500Y-63664215D01*
X103469500Y-64293769D01*
X103449815Y-64360808D01*
X103397011Y-64406563D01*
X103327853Y-64416507D01*
X103264297Y-64387482D01*
X103257819Y-64381450D01*
X103223657Y-64347288D01*
X103074334Y-64255186D01*
X102907797Y-64200000D01*
X102808141Y-64189819D01*
X102808122Y-64189818D01*
X102805009Y-64189500D01*
X102801860Y-64189500D01*
X102183141Y-64189500D01*
X102183121Y-64189500D01*
X102179992Y-64189501D01*
X102176860Y-64189820D01*
X102176858Y-64189821D01*
X102077203Y-64200000D01*
X101910665Y-64255186D01*
X101761344Y-64347287D01*
X101667680Y-64440951D01*
X101606357Y-64474435D01*
X101536665Y-64469451D01*
X101492319Y-64440951D01*
X101398656Y-64347288D01*
X101398655Y-64347287D01*
X101398654Y-64347286D01*
X101249334Y-64255186D01*
X101082797Y-64200000D01*
X100983141Y-64189819D01*
X100983122Y-64189818D01*
X100980009Y-64189500D01*
X100976860Y-64189500D01*
X100358141Y-64189500D01*
X100358121Y-64189500D01*
X100354992Y-64189501D01*
X100351860Y-64189820D01*
X100351858Y-64189821D01*
X100252203Y-64200000D01*
X100141564Y-64236663D01*
X100071735Y-64239065D01*
X100011694Y-64203333D01*
X99980501Y-64140812D01*
X99988062Y-64071353D01*
X99997020Y-64053863D01*
X99999814Y-64049334D01*
X100054999Y-63882797D01*
X100065500Y-63780009D01*
X100065499Y-63179992D01*
X100054999Y-63077203D01*
X99999814Y-62910666D01*
X99942593Y-62817895D01*
X99907711Y-62761342D01*
X99876819Y-62730450D01*
X99843334Y-62669127D01*
X99840500Y-62642769D01*
X99840500Y-61732399D01*
X99840500Y-61729258D01*
X99831135Y-61637168D01*
X99830499Y-61624623D01*
X99830499Y-61190439D01*
X99830499Y-61190438D01*
X99830499Y-61187128D01*
X99824091Y-61127517D01*
X99773796Y-60992669D01*
X99687546Y-60877454D01*
X99572331Y-60791204D01*
X99437483Y-60740909D01*
X99377873Y-60734500D01*
X99374550Y-60734500D01*
X98285439Y-60734500D01*
X98285420Y-60734500D01*
X98282128Y-60734501D01*
X98278848Y-60734853D01*
X98278840Y-60734854D01*
X98222515Y-60740909D01*
X98087669Y-60791204D01*
X97972454Y-60877454D01*
X97886204Y-60992668D01*
X97835910Y-61127515D01*
X97835909Y-61127517D01*
X97829500Y-61187127D01*
X97829500Y-61190448D01*
X97829500Y-61190449D01*
X97829500Y-62329560D01*
X97829500Y-62329578D01*
X97829501Y-62332872D01*
X97829853Y-62336150D01*
X97829854Y-62336161D01*
X97837574Y-62407972D01*
X97836539Y-62408083D01*
X97839500Y-62424484D01*
X97839500Y-62642768D01*
X97819815Y-62709807D01*
X97803183Y-62730447D01*
X97772289Y-62761342D01*
X97680186Y-62910665D01*
X97625000Y-63077202D01*
X97614819Y-63176858D01*
X97614817Y-63176878D01*
X97614500Y-63179991D01*
X97614500Y-63183138D01*
X97614500Y-63183139D01*
X97614500Y-63776858D01*
X97614500Y-63776877D01*
X97614501Y-63780008D01*
X97614820Y-63783140D01*
X97614821Y-63783141D01*
X97625000Y-63882796D01*
X97680186Y-64049334D01*
X97772288Y-64198657D01*
X97896342Y-64322711D01*
X97899176Y-64324459D01*
X97945902Y-64376405D01*
X97957126Y-64445368D01*
X97929284Y-64509450D01*
X97899186Y-64535533D01*
X97896346Y-64537284D01*
X97772288Y-64661342D01*
X97680186Y-64810665D01*
X97625000Y-64977202D01*
X97614819Y-65076858D01*
X97614817Y-65076878D01*
X97614500Y-65079991D01*
X97614500Y-65083138D01*
X97614500Y-65083139D01*
X97614500Y-65676858D01*
X97614500Y-65676877D01*
X97614501Y-65680008D01*
X97614820Y-65683140D01*
X97614821Y-65683141D01*
X97625000Y-65782796D01*
X97680186Y-65949334D01*
X97772288Y-66098657D01*
X97896342Y-66222711D01*
X97896344Y-66222712D01*
X98030597Y-66305519D01*
X98077321Y-66357465D01*
X98089500Y-66411057D01*
X98089500Y-66542672D01*
X98084576Y-66577267D01*
X98042402Y-66722427D01*
X98039691Y-66756871D01*
X98039690Y-66756886D01*
X98039500Y-66759306D01*
X98039500Y-66761750D01*
X98039500Y-66761751D01*
X98039500Y-67925500D01*
X98019815Y-67992539D01*
X97967011Y-68038294D01*
X97915500Y-68049500D01*
X97674306Y-68049500D01*
X97671886Y-68049690D01*
X97671871Y-68049691D01*
X97637427Y-68052402D01*
X97479602Y-68098255D01*
X97338134Y-68181919D01*
X97221919Y-68298134D01*
X97138255Y-68439602D01*
X97092402Y-68597427D01*
X97089691Y-68631871D01*
X97089690Y-68631886D01*
X97089500Y-68634306D01*
X97089500Y-69940694D01*
X97089690Y-69943114D01*
X97089691Y-69943128D01*
X97092402Y-69977570D01*
X97134575Y-70122727D01*
X97139499Y-70157323D01*
X97139499Y-70195500D01*
X97119814Y-70262539D01*
X97067010Y-70308294D01*
X97015499Y-70319500D01*
X96550826Y-70319500D01*
X96547713Y-70319817D01*
X96547693Y-70319819D01*
X96452314Y-70329563D01*
X96292714Y-70382450D01*
X96149606Y-70470720D01*
X96030720Y-70589606D01*
X95942450Y-70732714D01*
X95889563Y-70892314D01*
X95879819Y-70987693D01*
X95879817Y-70987713D01*
X95879500Y-70990826D01*
X95879500Y-71849174D01*
X95879818Y-71852287D01*
X95879819Y-71852306D01*
X95889563Y-71947685D01*
X95928073Y-72063898D01*
X95930475Y-72133726D01*
X95898049Y-72190581D01*
X95795449Y-72293182D01*
X95734129Y-72326666D01*
X95707770Y-72329500D01*
X95366806Y-72329500D01*
X95364386Y-72329690D01*
X95364371Y-72329691D01*
X95329927Y-72332402D01*
X95184768Y-72374576D01*
X95150173Y-72379500D01*
X94687000Y-72379500D01*
X94619961Y-72359815D01*
X94574206Y-72307011D01*
X94563000Y-72255500D01*
X94563000Y-71338034D01*
X94582685Y-71270995D01*
X94599256Y-71250430D01*
X94599278Y-71250393D01*
X94599281Y-71250391D01*
X94687549Y-71107287D01*
X94740436Y-70947685D01*
X94750500Y-70849174D01*
X94750500Y-69990826D01*
X94745627Y-69943128D01*
X94740436Y-69892314D01*
X94687549Y-69732714D01*
X94687549Y-69732713D01*
X94599281Y-69589609D01*
X94599280Y-69589608D01*
X94599279Y-69589606D01*
X94480393Y-69470720D01*
X94337285Y-69382450D01*
X94177685Y-69329563D01*
X94082306Y-69319819D01*
X94082287Y-69319818D01*
X94079174Y-69319500D01*
X93545826Y-69319500D01*
X93542713Y-69319817D01*
X93542693Y-69319819D01*
X93447314Y-69329563D01*
X93287714Y-69382450D01*
X93144606Y-69470720D01*
X93025720Y-69589606D01*
X92937450Y-69732714D01*
X92884563Y-69892314D01*
X92874819Y-69987693D01*
X92874817Y-69987713D01*
X92874500Y-69990826D01*
X92874500Y-70849174D01*
X92874818Y-70852287D01*
X92874819Y-70852306D01*
X92884563Y-70947685D01*
X92924199Y-71067296D01*
X92937451Y-71107287D01*
X92954817Y-71135441D01*
X93033328Y-71262727D01*
X93032661Y-71263138D01*
X93059165Y-71311670D01*
X93062000Y-71338034D01*
X93062000Y-71384792D01*
X93042315Y-71451831D01*
X92989511Y-71497586D01*
X92920353Y-71507530D01*
X92874879Y-71491524D01*
X92767897Y-71428255D01*
X92610066Y-71382400D01*
X92605293Y-71382025D01*
X92540005Y-71357139D01*
X92498536Y-71300907D01*
X92494052Y-71231181D01*
X92509485Y-71193315D01*
X92562549Y-71107287D01*
X92615436Y-70947685D01*
X92625500Y-70849174D01*
X92625500Y-69990826D01*
X92620627Y-69943128D01*
X92615436Y-69892314D01*
X92562549Y-69732714D01*
X92562549Y-69732713D01*
X92474281Y-69589609D01*
X92474280Y-69589608D01*
X92474279Y-69589606D01*
X92355393Y-69470720D01*
X92212285Y-69382450D01*
X92052685Y-69329563D01*
X91957306Y-69319819D01*
X91957287Y-69319818D01*
X91954174Y-69319500D01*
X91420826Y-69319500D01*
X91417713Y-69319817D01*
X91417693Y-69319819D01*
X91322314Y-69329563D01*
X91162714Y-69382450D01*
X91019606Y-69470720D01*
X91001832Y-69488495D01*
X90940509Y-69521980D01*
X90870817Y-69516996D01*
X90814884Y-69475124D01*
X90808612Y-69465910D01*
X90802712Y-69456344D01*
X90678656Y-69332288D01*
X90678655Y-69332287D01*
X90678654Y-69332286D01*
X90529334Y-69240186D01*
X90362797Y-69185000D01*
X90263141Y-69174819D01*
X90263122Y-69174818D01*
X90260009Y-69174500D01*
X90256860Y-69174500D01*
X89663141Y-69174500D01*
X89663121Y-69174500D01*
X89659992Y-69174501D01*
X89656860Y-69174820D01*
X89656858Y-69174821D01*
X89557203Y-69185000D01*
X89390665Y-69240186D01*
X89241342Y-69332288D01*
X89117286Y-69456344D01*
X89115537Y-69459181D01*
X89063588Y-69505905D01*
X88994626Y-69517125D01*
X88930544Y-69489280D01*
X88904463Y-69459181D01*
X88902713Y-69456344D01*
X88778657Y-69332288D01*
X88629334Y-69240186D01*
X88462797Y-69185000D01*
X88363141Y-69174819D01*
X88363122Y-69174818D01*
X88360009Y-69174500D01*
X88356860Y-69174500D01*
X87763141Y-69174500D01*
X87763121Y-69174500D01*
X87759992Y-69174501D01*
X87756860Y-69174820D01*
X87756858Y-69174821D01*
X87657203Y-69185000D01*
X87490665Y-69240186D01*
X87341342Y-69332288D01*
X87217288Y-69456342D01*
X87125186Y-69605665D01*
X87070000Y-69772202D01*
X87059819Y-69871858D01*
X87059817Y-69871878D01*
X87059500Y-69874991D01*
X87059500Y-69878138D01*
X87059500Y-69878139D01*
X87059500Y-73139560D01*
X87059500Y-73139578D01*
X85000500Y-73139578D01*
X85000500Y-58124500D01*
X85020185Y-58057461D01*
X85072989Y-58011706D01*
X85124500Y-58000500D01*
X107875500Y-58000500D01*
X107942539Y-58020185D01*
G37*
%TD.AperFunction*%
%TD*%
M02*
