M48
; DRILL file {KiCad 7.0.9} date Friday, December 01, 2023 at 06:49:37 PM
; FORMAT={-:-/ absolute / metric / decimal}
; #@! TF.CreationDate,2023-12-01T18:49:37-05:00
; #@! TF.GenerationSoftware,Kicad,Pcbnew,7.0.9
; #@! TF.FileFunction,MixedPlating,1,2
FMAT,2
METRIC
; #@! TA.AperFunction,Plated,PTH,ViaDrill
T1C0.400
; #@! TA.AperFunction,Plated,PTH,ViaDrill
T2C0.800
; #@! TA.AperFunction,Plated,PTH,ComponentDrill
T3C1.000
; #@! TA.AperFunction,Plated,PTH,ComponentDrill
T4C1.100
; #@! TA.AperFunction,Plated,PTH,ComponentDrill
T5C1.300
; #@! TA.AperFunction,Plated,PTH,ComponentDrill
T6C1.700
; #@! TA.AperFunction,Plated,PTH,ComponentDrill
T7C1.900
; #@! TA.AperFunction,Plated,PTH,ComponentDrill
T8C3.200
; #@! TA.AperFunction,NonPlated,NPTH,ComponentDrill
T9C3.500
%
G90
G05
T1
X2.59Y-12.38
X7.5Y-24.5
X7.5Y-31.0
X7.5Y-36.0
X7.5Y-42.5
X7.5Y-52.0
X7.5Y-59.0
X7.912Y-7.282
X7.912Y-8.552
X9.0Y-1.0
X9.309Y-5.758
X10.96Y-4.107
X10.96Y-7.155
X12.611Y-5.758
X12.611Y-11.498
X14.135Y-8.044
X14.5Y-59.0
X15.5Y-39.5
X15.5Y-42.5
X15.5Y-45.0
X15.5Y-47.5
X15.5Y-52.0
X16.5Y-5.5
X16.5Y-8.5
X17.5Y-13.0
X18.5Y-52.0
X19.0Y-1.0
X19.215Y-18.458
X19.5Y-5.5
X19.5Y-8.5
X22.0Y-5.5
X22.0Y-8.5
X24.0Y-45.0
X24.0Y-47.5
X24.0Y-52.0
X24.0Y-55.0
X24.5Y-5.5
X25.5Y-0.5
X27.0Y-52.0
X28.5Y-45.0
X28.5Y-47.5
X30.0Y-52.0
X30.0Y-55.0
X32.0Y-42.5
X32.0Y-45.0
X33.5Y-0.5
X34.0Y-42.5
X36.0Y-42.5
X36.5Y-9.0
X37.5Y-55.0
X39.0Y-50.5
X40.0Y-50.5
X41.0Y-12.0
X41.5Y-23.0
X41.5Y-25.5
X41.5Y-28.0
X41.5Y-30.5
X41.5Y-33.0
X41.5Y-35.0
X41.5Y-37.5
X41.5Y-44.0
X41.5Y-48.0
X42.0Y-55.0
X42.5Y-9.5
X43.726Y-16.299
X43.726Y-38.016
X46.5Y-17.0
X46.5Y-30.0
X46.5Y-34.0
X46.5Y-39.5
X47.0Y-55.0
X48.5Y-10.0
X48.5Y-45.5
X50.5Y-45.5
X52.0Y-26.0
X52.0Y-37.0
X58.5Y-44.5
X62.5Y-11.0
X65.5Y-44.5
X68.49Y-4.62
X68.5Y-7.0
X71.5Y-44.5
X72.28Y-11.19
X72.29Y-9.13
X78.5Y-9.5
X81.0Y-1.0
X83.5Y-3.5
X87.5Y-3.5
X87.5Y-22.5
X89.35Y-12.14
X90.04Y-21.27
X91.27Y-12.15
X91.5Y-22.5
X92.0Y-1.0
X92.0Y-4.0
X92.0Y-7.0
X92.0Y-10.0
X93.0Y-22.5
X93.5Y-21.27
X94.5Y-22.5
X96.0Y-22.5
X97.5Y-22.5
X99.0Y-22.5
X99.0Y-28.0
T2
X1.435Y-7.79
X2.5Y-27.5
X7.0Y-27.5
X10.833Y-26.459
X13.5Y-36.0
X14.897Y-17.188
X14.897Y-19.347
X14.897Y-21.76
X15.0Y-24.5
X15.0Y-27.5
X15.0Y-31.0
X18.529Y-56.812
X21.755Y-18.458
X25.438Y-18.458
X28.74Y-18.458
X28.994Y-4.945
X32.093Y-49.497
X32.5Y-37.0
X32.55Y-14.775
X32.55Y-17.061
X32.55Y-19.347
X32.55Y-21.887
X32.55Y-26.0
X32.55Y-31.0
X35.598Y-11.219
X41.821Y-57.955
X46.5Y-46.0
X51.5Y-1.5
X51.702Y-5.961
X52.0Y-31.0
X53.5Y-11.5
X53.5Y-17.0
X53.5Y-46.0
X60.0Y-1.5
X62.5Y-26.0
X62.5Y-31.0
X62.5Y-37.0
X62.5Y-42.5
X66.0Y-11.5
X66.0Y-14.0
X66.0Y-17.0
X68.415Y-9.111
X68.5Y-1.5
X68.5Y-26.0
X68.5Y-42.5
X74.0Y-26.0
X74.5Y-42.5
X75.0Y-1.5
X78.0Y-59.0
X82.5Y-45.0
X83.5Y-1.0
X87.0Y-52.0
X87.0Y-59.0
X87.5Y-1.0
X88.0Y-45.0
X93.0Y-45.0
X93.0Y-49.0
X93.0Y-52.0
X97.5Y-11.5
X97.5Y-31.0
X97.5Y-45.0
T3
X54.5Y-3.675
X65.5Y-3.675
T4
X43.72Y-20.5
X43.72Y-41.9
X46.26Y-20.5
X46.26Y-41.9
X48.8Y-20.5
X48.8Y-41.9
T5
X89.8Y-24.7
X89.8Y-37.7
T7
X57.5Y-13.675
X62.5Y-13.675
T8
X4.0Y-4.0
X4.0Y-56.0
X96.0Y-4.0
X96.0Y-56.0
T9
X46.26Y-3.84
X46.26Y-25.24
T6
X55.8Y-22.05G85X55.8Y-30.35
G05
X55.8Y-32.05G85X55.8Y-40.35
G05
X83.8Y-22.05G85X83.8Y-40.35
G05
T0
M30
