%TF.GenerationSoftware,KiCad,Pcbnew,7.0.7*%
%TF.CreationDate,2023-10-22T19:41:02-04:00*%
%TF.ProjectId,CrystalFilterLarge,43727973-7461-46c4-9669-6c7465724c61,rev?*%
%TF.SameCoordinates,PXddf73b40PY3fe56c0*%
%TF.FileFunction,Copper,L1,Top*%
%TF.FilePolarity,Positive*%
%FSLAX46Y46*%
G04 Gerber Fmt 4.6, Leading zero omitted, Abs format (unit mm)*
G04 Created by KiCad (PCBNEW 7.0.7) date 2023-10-22 19:41:02*
%MOMM*%
%LPD*%
G01*
G04 APERTURE LIST*
G04 Aperture macros list*
%AMRoundRect*
0 Rectangle with rounded corners*
0 $1 Rounding radius*
0 $2 $3 $4 $5 $6 $7 $8 $9 X,Y pos of 4 corners*
0 Add a 4 corners polygon primitive as box body*
4,1,4,$2,$3,$4,$5,$6,$7,$8,$9,$2,$3,0*
0 Add four circle primitives for the rounded corners*
1,1,$1+$1,$2,$3*
1,1,$1+$1,$4,$5*
1,1,$1+$1,$6,$7*
1,1,$1+$1,$8,$9*
0 Add four rect primitives between the rounded corners*
20,1,$1+$1,$2,$3,$4,$5,0*
20,1,$1+$1,$4,$5,$6,$7,0*
20,1,$1+$1,$6,$7,$8,$9,0*
20,1,$1+$1,$8,$9,$2,$3,0*%
G04 Aperture macros list end*
%TA.AperFunction,SMDPad,CuDef*%
%ADD10RoundRect,0.250000X-0.475000X0.250000X-0.475000X-0.250000X0.475000X-0.250000X0.475000X0.250000X0*%
%TD*%
%TA.AperFunction,SMDPad,CuDef*%
%ADD11RoundRect,0.250000X0.475000X-0.250000X0.475000X0.250000X-0.475000X0.250000X-0.475000X-0.250000X0*%
%TD*%
%TA.AperFunction,SMDPad,CuDef*%
%ADD12R,1.270000X3.600000*%
%TD*%
%TA.AperFunction,SMDPad,CuDef*%
%ADD13R,1.350000X4.200000*%
%TD*%
%TA.AperFunction,ComponentPad*%
%ADD14C,1.500000*%
%TD*%
%TA.AperFunction,ComponentPad*%
%ADD15C,1.524000*%
%TD*%
%TA.AperFunction,ViaPad*%
%ADD16C,0.800000*%
%TD*%
%TA.AperFunction,Conductor*%
%ADD17C,1.000000*%
%TD*%
G04 APERTURE END LIST*
D10*
%TO.P,C1,1*%
%TO.N,Earth*%
X18727800Y-3439200D03*
%TO.P,C1,2*%
%TO.N,Net-(C1-Pad2)*%
X18727800Y-5339200D03*
%TD*%
%TO.P,C5,1*%
%TO.N,Earth*%
X41587800Y-3439200D03*
%TO.P,C5,2*%
%TO.N,Net-(C5-Pad2)*%
X41587800Y-5339200D03*
%TD*%
D11*
%TO.P,C6,1*%
%TO.N,Earth*%
X47404400Y-12192200D03*
%TO.P,C6,2*%
%TO.N,Net-(C6-Pad2)*%
X47404400Y-10292200D03*
%TD*%
D12*
%TO.P,J1,1,In*%
%TO.N,Net-(J1-In)*%
X6000000Y-18090000D03*
D13*
%TO.P,J1,2,Ext*%
%TO.N,Earth*%
X3175000Y-17890000D03*
X8825000Y-17890000D03*
%TD*%
D10*
%TO.P,C7,1*%
%TO.N,Earth*%
X53017800Y-3413800D03*
%TO.P,C7,2*%
%TO.N,Net-(C7-Pad2)*%
X53017800Y-5313800D03*
%TD*%
D11*
%TO.P,C2,1*%
%TO.N,Earth*%
X24442800Y-12166800D03*
%TO.P,C2,2*%
%TO.N,Net-(C2-Pad2)*%
X24442800Y-10266800D03*
%TD*%
D10*
%TO.P,C3,1*%
%TO.N,Earth*%
X30183200Y-3413800D03*
%TO.P,C3,2*%
%TO.N,Net-(C3-Pad2)*%
X30183200Y-5313800D03*
%TD*%
D11*
%TO.P,C4,1*%
%TO.N,Earth*%
X35872800Y-12182000D03*
%TO.P,C4,2*%
%TO.N,Net-(C4-Pad2)*%
X35872800Y-10282000D03*
%TD*%
D12*
%TO.P,J2,1,In*%
%TO.N,Net-(J2-In)*%
X66000000Y-18090000D03*
D13*
%TO.P,J2,2,Ext*%
%TO.N,Earth*%
X63175000Y-17890000D03*
X68825000Y-17890000D03*
%TD*%
D14*
%TO.P,Y1,1,1*%
%TO.N,Net-(L1-Pad1)*%
X10168000Y-10228000D03*
%TO.P,Y1,2,2*%
%TO.N,Net-(C1-Pad2)*%
X10168000Y-5328000D03*
%TD*%
%TO.P,Y2,1,1*%
%TO.N,Net-(L1-Pad1)*%
X15883000Y-10228000D03*
%TO.P,Y2,2,2*%
%TO.N,Net-(C1-Pad2)*%
X15883000Y-5328000D03*
%TD*%
%TO.P,Y5,1,1*%
%TO.N,Net-(C3-Pad2)*%
X33028000Y-5378000D03*
%TO.P,Y5,2,2*%
%TO.N,Net-(C4-Pad2)*%
X33028000Y-10278000D03*
%TD*%
%TO.P,Y3,1,1*%
%TO.N,Net-(C1-Pad2)*%
X21598000Y-5378000D03*
%TO.P,Y3,2,2*%
%TO.N,Net-(C2-Pad2)*%
X21598000Y-10278000D03*
%TD*%
%TO.P,Y8,1,1*%
%TO.N,Net-(C6-Pad2)*%
X50173000Y-10228000D03*
%TO.P,Y8,2,2*%
%TO.N,Net-(C7-Pad2)*%
X50173000Y-5328000D03*
%TD*%
%TO.P,Y4,1,1*%
%TO.N,Net-(C2-Pad2)*%
X27313000Y-10228000D03*
%TO.P,Y4,2,2*%
%TO.N,Net-(C3-Pad2)*%
X27313000Y-5328000D03*
%TD*%
%TO.P,Y9,1,1*%
%TO.N,Net-(C7-Pad2)*%
X55888000Y-5378000D03*
%TO.P,Y9,2,2*%
%TO.N,Net-(L2-Pad3)*%
X55888000Y-10278000D03*
%TD*%
%TO.P,Y10,1,1*%
%TO.N,Net-(C7-Pad2)*%
X61857000Y-5378000D03*
%TO.P,Y10,2,2*%
%TO.N,Net-(L2-Pad3)*%
X61857000Y-10278000D03*
%TD*%
%TO.P,Y6,1,1*%
%TO.N,Net-(C4-Pad2)*%
X38743000Y-10228000D03*
%TO.P,Y6,2,2*%
%TO.N,Net-(C5-Pad2)*%
X38743000Y-5328000D03*
%TD*%
D15*
%TO.P,L2,1,1*%
%TO.N,Net-(J2-In)*%
X70500000Y-10500000D03*
%TO.P,L2,2,2*%
%TO.N,Earth*%
X70500000Y-5500000D03*
%TO.P,L2,3,3*%
%TO.N,Net-(L2-Pad3)*%
X65500000Y-5500000D03*
%TO.P,L2,4,4*%
%TO.N,Earth*%
X65500000Y-10500000D03*
%TD*%
%TO.P,L1,1,1*%
%TO.N,Net-(L1-Pad1)*%
X1500000Y-5200000D03*
%TO.P,L1,2,2*%
%TO.N,Earth*%
X1500000Y-10200000D03*
%TO.P,L1,3,3*%
%TO.N,Net-(J1-In)*%
X6500000Y-10200000D03*
%TO.P,L1,4,4*%
%TO.N,Earth*%
X6500000Y-5200000D03*
%TD*%
D14*
%TO.P,Y7,1,1*%
%TO.N,Net-(C5-Pad2)*%
X44458000Y-5378000D03*
%TO.P,Y7,2,2*%
%TO.N,Net-(C6-Pad2)*%
X44458000Y-10278000D03*
%TD*%
D16*
%TO.N,Earth*%
X18000000Y-8000000D03*
X36000000Y-8000000D03*
X68000000Y-1000000D03*
X24500000Y-14000000D03*
X47500000Y-14000000D03*
X13000000Y-8000000D03*
X7500000Y-14000000D03*
X36000000Y-14000000D03*
X53000000Y-17000000D03*
X12000000Y-1000000D03*
X11000000Y-19000000D03*
X35000000Y-1000000D03*
X60500000Y-19000000D03*
X7000000Y-1000000D03*
X19000000Y-17000000D03*
X24000000Y-1000000D03*
X47000000Y-8000000D03*
X1000000Y-1000000D03*
X71000000Y-19000000D03*
X53000000Y-8000000D03*
X58000000Y-8000000D03*
X64000000Y-1000000D03*
X64500000Y-14000000D03*
X46500000Y-1000000D03*
X71000000Y-1000000D03*
X1000000Y-19000000D03*
X71000000Y-14000000D03*
X71000000Y-8000000D03*
X1000000Y-13500000D03*
X41000000Y-8000000D03*
X42000000Y-17000000D03*
X30000000Y-17000000D03*
X30000000Y-8000000D03*
X58000000Y-1000000D03*
X4000000Y-1000000D03*
X24000000Y-8000000D03*
%TD*%
D17*
%TO.N,Net-(L2-Pad3)*%
X61857000Y-10278000D02*
X61857000Y-10143000D01*
X61857000Y-10143000D02*
X65500000Y-6500000D01*
X65500000Y-6500000D02*
X65500000Y-5500000D01*
X55888000Y-10278000D02*
X61857000Y-10278000D01*
%TO.N,Net-(C1-Pad2)*%
X10168000Y-5328000D02*
X15883000Y-5328000D01*
X16094200Y-5339200D02*
X21559200Y-5339200D01*
X21559200Y-5339200D02*
X21598000Y-5378000D01*
X15883000Y-5128000D02*
X16094200Y-5339200D01*
%TO.N,Net-(C2-Pad2)*%
X27274200Y-10266800D02*
X21809200Y-10266800D01*
X27313000Y-10228000D02*
X27274200Y-10266800D01*
%TO.N,Net-(C3-Pad2)*%
X32963800Y-5313800D02*
X33028000Y-5378000D01*
X27313000Y-5328000D02*
X27327200Y-5313800D01*
X27327200Y-5313800D02*
X32963800Y-5313800D01*
%TO.N,Net-(C4-Pad2)*%
X33032000Y-10282000D02*
X38689000Y-10282000D01*
X38689000Y-10282000D02*
X38743000Y-10228000D01*
X33028000Y-10278000D02*
X33032000Y-10282000D01*
%TO.N,Net-(C5-Pad2)*%
X44408000Y-5328000D02*
X38743000Y-5328000D01*
X44458000Y-5378000D02*
X44408000Y-5328000D01*
%TO.N,Net-(C6-Pad2)*%
X50108800Y-10292200D02*
X44472200Y-10292200D01*
X50173000Y-10228000D02*
X50108800Y-10292200D01*
X44472200Y-10292200D02*
X44458000Y-10278000D01*
%TO.N,Net-(C7-Pad2)*%
X50173000Y-5328000D02*
X50187200Y-5313800D01*
X50187200Y-5313800D02*
X55823800Y-5313800D01*
X55823800Y-5313800D02*
X55888000Y-5378000D01*
X55888000Y-5378000D02*
X61857000Y-5378000D01*
%TO.N,Net-(J1-In)*%
X6000000Y-18090000D02*
X6000000Y-10700000D01*
X6000000Y-10700000D02*
X6500000Y-10200000D01*
X6500000Y-10200000D02*
X6200000Y-10200000D01*
%TO.N,Net-(J2-In)*%
X66000000Y-13718400D02*
X66000000Y-18090000D01*
X69218400Y-10500000D02*
X66000000Y-13718400D01*
X70500000Y-10500000D02*
X69218400Y-10500000D01*
%TO.N,Net-(L1-Pad1)*%
X1500000Y-5200000D02*
X2300000Y-5200000D01*
X7300000Y-7000000D02*
X10168000Y-9868000D01*
X10168000Y-9868000D02*
X10168000Y-10228000D01*
X10168000Y-10228000D02*
X15883000Y-10228000D01*
X2300000Y-5200000D02*
X4100000Y-7000000D01*
X4100000Y-7000000D02*
X7300000Y-7000000D01*
%TD*%
%TA.AperFunction,Conductor*%
%TO.N,Earth*%
G36*
X71942539Y-20185D02*
G01*
X71988294Y-72989D01*
X71999500Y-124500D01*
X71999500Y-10313726D01*
X71979815Y-10380765D01*
X71927011Y-10426520D01*
X71857853Y-10436464D01*
X71794297Y-10407439D01*
X71756523Y-10348661D01*
X71751972Y-10324533D01*
X71748071Y-10279937D01*
X71748070Y-10279929D01*
X71690896Y-10066554D01*
X71690893Y-10066548D01*
X71597535Y-9866340D01*
X71597534Y-9866338D01*
X71470828Y-9685381D01*
X71314616Y-9529170D01*
X71133667Y-9402468D01*
X71133663Y-9402466D01*
X70933452Y-9309107D01*
X70933446Y-9309104D01*
X70720071Y-9251930D01*
X70720063Y-9251929D01*
X70500002Y-9232677D01*
X70499998Y-9232677D01*
X70279938Y-9251929D01*
X70279930Y-9251930D01*
X70066555Y-9309104D01*
X70066553Y-9309105D01*
X70066550Y-9309106D01*
X69866339Y-9402466D01*
X69759785Y-9477075D01*
X69693580Y-9499402D01*
X69688663Y-9499500D01*
X69231117Y-9499500D01*
X69142038Y-9497243D01*
X69142030Y-9497243D01*
X69091055Y-9506380D01*
X69081656Y-9508064D01*
X69076996Y-9508718D01*
X69015970Y-9514925D01*
X69015966Y-9514925D01*
X69015962Y-9514926D01*
X69015956Y-9514927D01*
X68983187Y-9525208D01*
X68975563Y-9527079D01*
X68945703Y-9532433D01*
X68941747Y-9533142D01*
X68941745Y-9533142D01*
X68902771Y-9548710D01*
X68884780Y-9555897D01*
X68880349Y-9557474D01*
X68821812Y-9575841D01*
X68821805Y-9575844D01*
X68791781Y-9592509D01*
X68784686Y-9595879D01*
X68773464Y-9600362D01*
X68752783Y-9608623D01*
X68752780Y-9608625D01*
X68752776Y-9608627D01*
X68723524Y-9627906D01*
X68704479Y-9640458D01*
X68701567Y-9642377D01*
X68697537Y-9644818D01*
X68643902Y-9674588D01*
X68643901Y-9674589D01*
X68643898Y-9674591D01*
X68617833Y-9696968D01*
X68611565Y-9701693D01*
X68592494Y-9714263D01*
X68582881Y-9720598D01*
X68539501Y-9763978D01*
X68536057Y-9767169D01*
X68489508Y-9807130D01*
X68468477Y-9834299D01*
X68463293Y-9840186D01*
X65301533Y-13001947D01*
X65236947Y-13063341D01*
X65236945Y-13063344D01*
X65236942Y-13063347D01*
X65201899Y-13113697D01*
X65199074Y-13117444D01*
X65160302Y-13164993D01*
X65144396Y-13195445D01*
X65140328Y-13202158D01*
X65120705Y-13230351D01*
X65096511Y-13286729D01*
X65094493Y-13290978D01*
X65066091Y-13345351D01*
X65058212Y-13372889D01*
X65056642Y-13378374D01*
X65054010Y-13385768D01*
X65040460Y-13417342D01*
X65040460Y-13417345D01*
X65040459Y-13417346D01*
X65028113Y-13477422D01*
X65026990Y-13482000D01*
X65010113Y-13540982D01*
X65007505Y-13575239D01*
X65006414Y-13583014D01*
X64999500Y-13616655D01*
X64999500Y-13677997D01*
X64999322Y-13682705D01*
X64994663Y-13743876D01*
X64999005Y-13777963D01*
X64999501Y-13785771D01*
X64999501Y-15901807D01*
X64979816Y-15968846D01*
X64974768Y-15976118D01*
X64921204Y-16047669D01*
X64921204Y-16047670D01*
X64921203Y-16047670D01*
X64921203Y-16047671D01*
X64870909Y-16182517D01*
X64864500Y-16242127D01*
X64864501Y-19875500D01*
X64844816Y-19942539D01*
X64792012Y-19988294D01*
X64740501Y-19999500D01*
X7259500Y-19999500D01*
X7192461Y-19979815D01*
X7146706Y-19927011D01*
X7135500Y-19875500D01*
X7135500Y-16242129D01*
X7135499Y-16242123D01*
X7129092Y-16182516D01*
X7078798Y-16047671D01*
X7078796Y-16047669D01*
X7025233Y-15976118D01*
X7000816Y-15910654D01*
X7000500Y-15901807D01*
X7000500Y-11438624D01*
X7020185Y-11371585D01*
X7072095Y-11326243D01*
X7133662Y-11297534D01*
X7133666Y-11297531D01*
X7133667Y-11297531D01*
X7314616Y-11170829D01*
X7314622Y-11170824D01*
X7470825Y-11014621D01*
X7470830Y-11014615D01*
X7597532Y-10833666D01*
X7597534Y-10833662D01*
X7632094Y-10759547D01*
X7690894Y-10633450D01*
X7690895Y-10633447D01*
X7690896Y-10633445D01*
X7748070Y-10420070D01*
X7748071Y-10420062D01*
X7767323Y-10200002D01*
X7767323Y-10199997D01*
X7748071Y-9979937D01*
X7748070Y-9979929D01*
X7690896Y-9766554D01*
X7690893Y-9766548D01*
X7597535Y-9566340D01*
X7597534Y-9566338D01*
X7470828Y-9385381D01*
X7314616Y-9229170D01*
X7133667Y-9102468D01*
X7133663Y-9102466D01*
X6933452Y-9009107D01*
X6933446Y-9009104D01*
X6720071Y-8951930D01*
X6720063Y-8951929D01*
X6500002Y-8932677D01*
X6499998Y-8932677D01*
X6279938Y-8951929D01*
X6279930Y-8951930D01*
X6066555Y-9009104D01*
X6066553Y-9009105D01*
X6066550Y-9009106D01*
X5971690Y-9053340D01*
X5866341Y-9102465D01*
X5866339Y-9102466D01*
X5685378Y-9229175D01*
X5529176Y-9385377D01*
X5529174Y-9385380D01*
X5402466Y-9566339D01*
X5386601Y-9600362D01*
X5373757Y-9627906D01*
X5359433Y-9651401D01*
X5346552Y-9668042D01*
X5256940Y-9850729D01*
X5205937Y-10047715D01*
X5205675Y-10052881D01*
X5182626Y-10118837D01*
X5177947Y-10124954D01*
X5160302Y-10146593D01*
X5144396Y-10177045D01*
X5140328Y-10183758D01*
X5120705Y-10211951D01*
X5096511Y-10268329D01*
X5094493Y-10272578D01*
X5066091Y-10326951D01*
X5059879Y-10348661D01*
X5056642Y-10359974D01*
X5054010Y-10367368D01*
X5040460Y-10398942D01*
X5040460Y-10398945D01*
X5040459Y-10398946D01*
X5028113Y-10459022D01*
X5026990Y-10463600D01*
X5010113Y-10522582D01*
X5007505Y-10556839D01*
X5006414Y-10564614D01*
X4999500Y-10598255D01*
X4999500Y-10659597D01*
X4999322Y-10664305D01*
X4994663Y-10725476D01*
X4999004Y-10759560D01*
X4999500Y-10767388D01*
X4999500Y-15901807D01*
X4979815Y-15968846D01*
X4974767Y-15976118D01*
X4921204Y-16047669D01*
X4870909Y-16182517D01*
X4864500Y-16242127D01*
X4864501Y-19875500D01*
X4844816Y-19942539D01*
X4792012Y-19988294D01*
X4740501Y-19999500D01*
X124500Y-19999500D01*
X57461Y-19979815D01*
X11706Y-19927011D01*
X500Y-19875500D01*
X500Y-5386273D01*
X20185Y-5319234D01*
X72989Y-5273479D01*
X142147Y-5263535D01*
X205703Y-5292560D01*
X243477Y-5351338D01*
X248028Y-5375465D01*
X251930Y-5420068D01*
X309106Y-5633450D01*
X402466Y-5833662D01*
X529174Y-6014620D01*
X685380Y-6170826D01*
X866338Y-6297534D01*
X1066550Y-6390894D01*
X1279932Y-6448070D01*
X1444984Y-6462509D01*
X1499998Y-6467323D01*
X1500000Y-6467323D01*
X1500002Y-6467323D01*
X1562877Y-6461822D01*
X1720068Y-6448070D01*
X1933450Y-6390894D01*
X1939433Y-6388104D01*
X1951960Y-6382263D01*
X2021037Y-6371771D01*
X2084821Y-6400291D01*
X2092032Y-6406951D01*
X3383567Y-7698487D01*
X3444941Y-7763053D01*
X3495325Y-7798119D01*
X3499028Y-7800912D01*
X3546592Y-7839697D01*
X3577048Y-7855604D01*
X3583752Y-7859666D01*
X3611951Y-7879295D01*
X3668350Y-7903497D01*
X3672569Y-7905500D01*
X3726951Y-7933909D01*
X3759978Y-7943357D01*
X3767367Y-7945988D01*
X3798942Y-7959540D01*
X3859070Y-7971895D01*
X3863571Y-7972999D01*
X3922582Y-7989886D01*
X3956843Y-7992494D01*
X3964611Y-7993585D01*
X3998256Y-8000500D01*
X3998259Y-8000500D01*
X4059601Y-8000500D01*
X4064309Y-8000678D01*
X4125476Y-8005337D01*
X4159560Y-8000996D01*
X4167389Y-8000500D01*
X6834217Y-8000500D01*
X6901256Y-8020185D01*
X6921899Y-8036819D01*
X8887958Y-10002877D01*
X8921441Y-10064198D01*
X8923803Y-10101359D01*
X8912723Y-10228000D01*
X8931793Y-10445977D01*
X8988425Y-10657330D01*
X9080898Y-10855639D01*
X9206402Y-11034877D01*
X9361123Y-11189598D01*
X9540361Y-11315102D01*
X9738670Y-11407575D01*
X9950023Y-11464207D01*
X10135538Y-11480437D01*
X10167998Y-11483277D01*
X10168000Y-11483277D01*
X10168002Y-11483277D01*
X10198213Y-11480633D01*
X10385977Y-11464207D01*
X10597330Y-11407575D01*
X10795639Y-11315102D01*
X10795642Y-11315100D01*
X10795644Y-11315099D01*
X10887294Y-11250925D01*
X10953500Y-11228598D01*
X10958417Y-11228500D01*
X15092583Y-11228500D01*
X15159622Y-11248185D01*
X15163706Y-11250925D01*
X15230271Y-11297534D01*
X15255361Y-11315102D01*
X15453670Y-11407575D01*
X15665023Y-11464207D01*
X15850538Y-11480437D01*
X15882998Y-11483277D01*
X15883000Y-11483277D01*
X15883002Y-11483277D01*
X15913213Y-11480633D01*
X16100977Y-11464207D01*
X16312330Y-11407575D01*
X16510639Y-11315102D01*
X16689877Y-11189598D01*
X16844598Y-11034877D01*
X16970102Y-10855639D01*
X16970103Y-10855638D01*
X17033320Y-10720068D01*
X17062575Y-10657330D01*
X17062576Y-10657326D01*
X17062578Y-10657322D01*
X17119207Y-10445979D01*
X17119207Y-10445975D01*
X17121474Y-10420070D01*
X17133903Y-10278000D01*
X20342723Y-10278000D01*
X20361793Y-10495977D01*
X20418425Y-10707330D01*
X20510898Y-10905639D01*
X20636402Y-11084877D01*
X20791123Y-11239598D01*
X20970361Y-11365102D01*
X21168670Y-11457575D01*
X21380023Y-11514207D01*
X21565538Y-11530437D01*
X21597998Y-11533277D01*
X21598000Y-11533277D01*
X21598002Y-11533277D01*
X21628213Y-11530633D01*
X21815977Y-11514207D01*
X22027330Y-11457575D01*
X22225639Y-11365102D01*
X22225642Y-11365100D01*
X22225644Y-11365099D01*
X22333289Y-11289725D01*
X22399495Y-11267398D01*
X22404412Y-11267300D01*
X23917791Y-11267300D01*
X26577995Y-11267300D01*
X26645034Y-11286985D01*
X26649118Y-11289725D01*
X26660271Y-11297534D01*
X26685361Y-11315102D01*
X26883670Y-11407575D01*
X27095023Y-11464207D01*
X27280538Y-11480437D01*
X27312998Y-11483277D01*
X27313000Y-11483277D01*
X27313002Y-11483277D01*
X27343213Y-11480633D01*
X27530977Y-11464207D01*
X27742330Y-11407575D01*
X27940639Y-11315102D01*
X28119877Y-11189598D01*
X28274598Y-11034877D01*
X28400102Y-10855639D01*
X28400103Y-10855638D01*
X28463320Y-10720068D01*
X28492575Y-10657330D01*
X28492576Y-10657326D01*
X28492578Y-10657322D01*
X28549207Y-10445979D01*
X28549207Y-10445975D01*
X28551474Y-10420070D01*
X28563903Y-10278000D01*
X31772723Y-10278000D01*
X31791793Y-10495977D01*
X31848425Y-10707330D01*
X31940898Y-10905639D01*
X32066402Y-11084877D01*
X32221123Y-11239598D01*
X32400361Y-11365102D01*
X32598670Y-11457575D01*
X32810023Y-11514207D01*
X32995538Y-11530437D01*
X33027998Y-11533277D01*
X33028000Y-11533277D01*
X33028002Y-11533277D01*
X33058213Y-11530633D01*
X33245977Y-11514207D01*
X33457330Y-11457575D01*
X33655639Y-11365102D01*
X33741582Y-11304924D01*
X33807787Y-11282598D01*
X33812704Y-11282500D01*
X35347791Y-11282500D01*
X38029703Y-11282500D01*
X38096742Y-11302185D01*
X38100826Y-11304925D01*
X38110633Y-11311790D01*
X38115361Y-11315102D01*
X38313670Y-11407575D01*
X38525023Y-11464207D01*
X38710538Y-11480437D01*
X38742998Y-11483277D01*
X38743000Y-11483277D01*
X38743002Y-11483277D01*
X38773213Y-11480633D01*
X38960977Y-11464207D01*
X39172330Y-11407575D01*
X39370639Y-11315102D01*
X39549877Y-11189598D01*
X39704598Y-11034877D01*
X39830102Y-10855639D01*
X39830103Y-10855638D01*
X39893320Y-10720068D01*
X39922575Y-10657330D01*
X39922576Y-10657326D01*
X39922578Y-10657322D01*
X39979207Y-10445979D01*
X39979207Y-10445975D01*
X39981474Y-10420070D01*
X39993903Y-10278000D01*
X43202723Y-10278000D01*
X43221793Y-10495977D01*
X43278425Y-10707330D01*
X43370898Y-10905639D01*
X43496402Y-11084877D01*
X43651123Y-11239598D01*
X43830361Y-11365102D01*
X44028670Y-11457575D01*
X44240023Y-11514207D01*
X44425538Y-11530437D01*
X44457998Y-11533277D01*
X44458000Y-11533277D01*
X44458002Y-11533277D01*
X44488213Y-11530633D01*
X44675977Y-11514207D01*
X44887330Y-11457575D01*
X45085639Y-11365102D01*
X45085642Y-11365100D01*
X45085644Y-11365099D01*
X45157014Y-11315125D01*
X45223220Y-11292798D01*
X45228137Y-11292700D01*
X46879391Y-11292700D01*
X49474271Y-11292700D01*
X49541310Y-11312385D01*
X49545351Y-11315094D01*
X49545361Y-11315102D01*
X49743670Y-11407575D01*
X49955023Y-11464207D01*
X50140538Y-11480437D01*
X50172998Y-11483277D01*
X50173000Y-11483277D01*
X50173002Y-11483277D01*
X50203213Y-11480633D01*
X50390977Y-11464207D01*
X50602330Y-11407575D01*
X50800639Y-11315102D01*
X50979877Y-11189598D01*
X51134598Y-11034877D01*
X51260102Y-10855639D01*
X51260103Y-10855638D01*
X51323320Y-10720068D01*
X51352575Y-10657330D01*
X51352576Y-10657326D01*
X51352578Y-10657322D01*
X51409207Y-10445979D01*
X51409207Y-10445975D01*
X51411474Y-10420070D01*
X51423903Y-10278000D01*
X54632723Y-10278000D01*
X54651793Y-10495977D01*
X54708425Y-10707330D01*
X54800898Y-10905639D01*
X54926402Y-11084877D01*
X55081123Y-11239598D01*
X55260361Y-11365102D01*
X55458670Y-11457575D01*
X55670023Y-11514207D01*
X55855538Y-11530437D01*
X55887998Y-11533277D01*
X55888000Y-11533277D01*
X55888002Y-11533277D01*
X55918213Y-11530633D01*
X56105977Y-11514207D01*
X56317330Y-11457575D01*
X56515639Y-11365102D01*
X56515642Y-11365100D01*
X56515644Y-11365099D01*
X56607294Y-11300925D01*
X56673500Y-11278598D01*
X56678417Y-11278500D01*
X61066583Y-11278500D01*
X61133622Y-11298185D01*
X61137706Y-11300925D01*
X61210479Y-11351880D01*
X61229361Y-11365102D01*
X61427670Y-11457575D01*
X61639023Y-11514207D01*
X61824538Y-11530437D01*
X61856998Y-11533277D01*
X61857000Y-11533277D01*
X61857002Y-11533277D01*
X61887213Y-11530633D01*
X62074977Y-11514207D01*
X62286330Y-11457575D01*
X62484639Y-11365102D01*
X62663877Y-11239598D01*
X62818598Y-11084877D01*
X62924628Y-10933451D01*
X62944103Y-10905638D01*
X63030638Y-10720062D01*
X63036575Y-10707330D01*
X63036576Y-10707326D01*
X63036578Y-10707322D01*
X63093206Y-10495982D01*
X63093208Y-10495972D01*
X63105982Y-10349965D01*
X63131435Y-10284896D01*
X63141829Y-10273092D01*
X66198468Y-7216452D01*
X66263051Y-7155061D01*
X66263052Y-7155060D01*
X66263053Y-7155059D01*
X66298098Y-7104709D01*
X66300936Y-7100946D01*
X66339695Y-7053413D01*
X66339700Y-7053406D01*
X66355603Y-7022959D01*
X66359666Y-7016251D01*
X66379295Y-6988049D01*
X66379297Y-6988045D01*
X66379299Y-6988041D01*
X66403486Y-6931680D01*
X66405507Y-6927424D01*
X66433906Y-6873057D01*
X66433910Y-6873045D01*
X66443358Y-6840030D01*
X66445992Y-6832630D01*
X66459541Y-6801058D01*
X66471891Y-6740966D01*
X66473014Y-6736391D01*
X66489887Y-6677423D01*
X66492497Y-6643158D01*
X66493588Y-6635380D01*
X66500500Y-6601742D01*
X66500500Y-6540401D01*
X66500679Y-6535692D01*
X66505338Y-6474526D01*
X66500997Y-6440442D01*
X66500500Y-6432603D01*
X66500500Y-6311337D01*
X66520185Y-6244298D01*
X66522897Y-6240254D01*
X66597534Y-6133662D01*
X66690894Y-5933450D01*
X66690895Y-5933447D01*
X66690896Y-5933445D01*
X66748070Y-5720070D01*
X66748071Y-5720062D01*
X66767323Y-5500002D01*
X66767323Y-5499997D01*
X66748071Y-5279937D01*
X66748070Y-5279929D01*
X66690896Y-5066554D01*
X66690893Y-5066548D01*
X66597535Y-4866340D01*
X66597534Y-4866338D01*
X66470828Y-4685381D01*
X66314616Y-4529170D01*
X66133667Y-4402468D01*
X66133663Y-4402466D01*
X65933452Y-4309107D01*
X65933446Y-4309104D01*
X65720071Y-4251930D01*
X65720063Y-4251929D01*
X65500002Y-4232677D01*
X65499998Y-4232677D01*
X65279938Y-4251929D01*
X65279930Y-4251930D01*
X65066555Y-4309104D01*
X65066553Y-4309105D01*
X65066550Y-4309106D01*
X64902980Y-4385380D01*
X64866341Y-4402465D01*
X64866339Y-4402466D01*
X64685378Y-4529175D01*
X64529176Y-4685377D01*
X64497339Y-4730846D01*
X64402466Y-4866339D01*
X64309106Y-5066550D01*
X64251930Y-5279932D01*
X64248492Y-5319234D01*
X64239671Y-5420062D01*
X64232677Y-5500000D01*
X64251930Y-5720068D01*
X64309106Y-5933450D01*
X64381341Y-6088358D01*
X64391832Y-6157431D01*
X64363313Y-6221215D01*
X64356639Y-6228440D01*
X61531739Y-9053340D01*
X61476153Y-9085433D01*
X61427674Y-9098423D01*
X61427671Y-9098424D01*
X61229362Y-9190898D01*
X61229358Y-9190900D01*
X61137707Y-9255075D01*
X61071501Y-9277402D01*
X61066584Y-9277500D01*
X56678417Y-9277500D01*
X56611378Y-9257815D01*
X56607294Y-9255075D01*
X56515644Y-9190900D01*
X56515640Y-9190898D01*
X56317332Y-9098426D01*
X56317323Y-9098422D01*
X56105978Y-9041793D01*
X55888002Y-9022723D01*
X55887998Y-9022723D01*
X55779012Y-9032258D01*
X55670023Y-9041793D01*
X55670021Y-9041793D01*
X55458678Y-9098422D01*
X55458674Y-9098424D01*
X55458670Y-9098425D01*
X55367587Y-9140898D01*
X55260362Y-9190898D01*
X55260358Y-9190900D01*
X55081122Y-9316402D01*
X54926403Y-9471121D01*
X54800901Y-9650357D01*
X54800900Y-9650359D01*
X54800898Y-9650362D01*
X54708425Y-9848670D01*
X54708424Y-9848676D01*
X54708423Y-9848677D01*
X54703690Y-9866340D01*
X54651793Y-10060023D01*
X54632723Y-10278000D01*
X51423903Y-10278000D01*
X51428277Y-10228000D01*
X51425827Y-10200000D01*
X51409207Y-10010024D01*
X51409207Y-10010020D01*
X51352578Y-9798677D01*
X51352574Y-9798668D01*
X51260102Y-9600361D01*
X51260100Y-9600357D01*
X51134600Y-9421124D01*
X50979878Y-9266403D01*
X50967613Y-9257815D01*
X50931713Y-9232677D01*
X50800639Y-9140897D01*
X50602332Y-9048426D01*
X50602323Y-9048422D01*
X50390978Y-8991793D01*
X50173002Y-8972723D01*
X50172998Y-8972723D01*
X50064012Y-8982258D01*
X49955023Y-8991793D01*
X49955021Y-8991793D01*
X49743678Y-9048422D01*
X49743674Y-9048424D01*
X49743670Y-9048425D01*
X49594304Y-9118076D01*
X49545362Y-9140898D01*
X49545358Y-9140900D01*
X49362019Y-9269275D01*
X49295813Y-9291602D01*
X49290896Y-9291700D01*
X45268697Y-9291700D01*
X45201658Y-9272015D01*
X45197574Y-9269275D01*
X45085644Y-9190900D01*
X45085640Y-9190898D01*
X44887332Y-9098426D01*
X44887323Y-9098422D01*
X44675978Y-9041793D01*
X44458002Y-9022723D01*
X44457998Y-9022723D01*
X44349012Y-9032258D01*
X44240023Y-9041793D01*
X44240021Y-9041793D01*
X44028678Y-9098422D01*
X44028674Y-9098424D01*
X44028670Y-9098425D01*
X43937587Y-9140898D01*
X43830362Y-9190898D01*
X43830358Y-9190900D01*
X43651122Y-9316402D01*
X43496403Y-9471121D01*
X43370901Y-9650357D01*
X43370900Y-9650359D01*
X43370898Y-9650362D01*
X43278425Y-9848670D01*
X43278424Y-9848676D01*
X43278423Y-9848677D01*
X43273690Y-9866340D01*
X43221793Y-10060023D01*
X43202723Y-10278000D01*
X39993903Y-10278000D01*
X39998277Y-10228000D01*
X39995827Y-10200000D01*
X39979207Y-10010024D01*
X39979207Y-10010020D01*
X39922578Y-9798677D01*
X39922574Y-9798668D01*
X39830102Y-9600361D01*
X39830100Y-9600357D01*
X39704600Y-9421124D01*
X39549878Y-9266403D01*
X39537613Y-9257815D01*
X39501713Y-9232677D01*
X39370639Y-9140897D01*
X39172332Y-9048426D01*
X39172323Y-9048422D01*
X38960978Y-8991793D01*
X38743002Y-8972723D01*
X38742998Y-8972723D01*
X38634012Y-8982258D01*
X38525023Y-8991793D01*
X38525021Y-8991793D01*
X38313678Y-9048422D01*
X38313674Y-9048424D01*
X38313670Y-9048425D01*
X38164304Y-9118076D01*
X38115362Y-9140898D01*
X38115358Y-9140900D01*
X37946587Y-9259075D01*
X37880381Y-9281402D01*
X37875464Y-9281500D01*
X33824130Y-9281500D01*
X33757091Y-9261815D01*
X33753007Y-9259075D01*
X33655644Y-9190900D01*
X33655640Y-9190898D01*
X33457332Y-9098426D01*
X33457323Y-9098422D01*
X33245978Y-9041793D01*
X33028002Y-9022723D01*
X33027998Y-9022723D01*
X32919012Y-9032258D01*
X32810023Y-9041793D01*
X32810021Y-9041793D01*
X32598678Y-9098422D01*
X32598674Y-9098424D01*
X32598670Y-9098425D01*
X32507587Y-9140898D01*
X32400362Y-9190898D01*
X32400358Y-9190900D01*
X32221122Y-9316402D01*
X32066403Y-9471121D01*
X31940901Y-9650357D01*
X31940900Y-9650359D01*
X31940898Y-9650362D01*
X31848425Y-9848670D01*
X31848424Y-9848676D01*
X31848423Y-9848677D01*
X31843690Y-9866340D01*
X31791793Y-10060023D01*
X31777098Y-10227997D01*
X31773197Y-10272587D01*
X31772723Y-10278000D01*
X28563903Y-10278000D01*
X28568277Y-10228000D01*
X28565827Y-10200000D01*
X28549207Y-10010024D01*
X28549207Y-10010020D01*
X28492578Y-9798677D01*
X28492574Y-9798668D01*
X28400102Y-9600361D01*
X28400100Y-9600357D01*
X28274600Y-9421124D01*
X28119878Y-9266403D01*
X28107613Y-9257815D01*
X28071713Y-9232677D01*
X27940639Y-9140897D01*
X27742332Y-9048426D01*
X27742323Y-9048422D01*
X27530978Y-8991793D01*
X27313002Y-8972723D01*
X27312998Y-8972723D01*
X27204012Y-8982258D01*
X27095023Y-8991793D01*
X27095021Y-8991793D01*
X26883678Y-9048422D01*
X26883674Y-9048424D01*
X26883670Y-9048425D01*
X26784516Y-9094661D01*
X26685363Y-9140897D01*
X26685361Y-9140898D01*
X26538295Y-9243875D01*
X26472089Y-9266202D01*
X26467172Y-9266300D01*
X22372422Y-9266300D01*
X22305383Y-9246615D01*
X22301299Y-9243875D01*
X22225644Y-9190900D01*
X22225640Y-9190898D01*
X22027332Y-9098426D01*
X22027323Y-9098422D01*
X21815978Y-9041793D01*
X21598002Y-9022723D01*
X21597998Y-9022723D01*
X21489012Y-9032258D01*
X21380023Y-9041793D01*
X21380021Y-9041793D01*
X21168678Y-9098422D01*
X21168674Y-9098424D01*
X21168670Y-9098425D01*
X21077587Y-9140898D01*
X20970362Y-9190898D01*
X20970358Y-9190900D01*
X20791122Y-9316402D01*
X20636403Y-9471121D01*
X20510901Y-9650357D01*
X20510900Y-9650359D01*
X20510898Y-9650362D01*
X20418425Y-9848670D01*
X20418424Y-9848676D01*
X20418423Y-9848677D01*
X20413690Y-9866340D01*
X20361793Y-10060023D01*
X20347098Y-10227997D01*
X20343197Y-10272587D01*
X20342723Y-10278000D01*
X17133903Y-10278000D01*
X17138277Y-10228000D01*
X17135827Y-10200000D01*
X17119207Y-10010024D01*
X17119207Y-10010020D01*
X17062578Y-9798677D01*
X17062574Y-9798668D01*
X16970102Y-9600361D01*
X16970100Y-9600357D01*
X16844600Y-9421124D01*
X16689878Y-9266403D01*
X16677613Y-9257815D01*
X16641713Y-9232677D01*
X16510639Y-9140897D01*
X16312332Y-9048426D01*
X16312323Y-9048422D01*
X16100978Y-8991793D01*
X15883002Y-8972723D01*
X15882998Y-8972723D01*
X15774012Y-8982258D01*
X15665023Y-8991793D01*
X15665021Y-8991793D01*
X15453678Y-9048422D01*
X15453674Y-9048424D01*
X15453670Y-9048425D01*
X15304304Y-9118076D01*
X15255362Y-9140898D01*
X15255358Y-9140900D01*
X15163707Y-9205075D01*
X15097501Y-9227402D01*
X15092584Y-9227500D01*
X10993784Y-9227500D01*
X10926745Y-9207815D01*
X10905999Y-9191076D01*
X10905683Y-9190760D01*
X10903954Y-9189027D01*
X10900806Y-9185627D01*
X10860864Y-9139102D01*
X10833702Y-9118076D01*
X10827808Y-9112885D01*
X8016454Y-6301532D01*
X7955058Y-6236946D01*
X7904706Y-6201899D01*
X7900944Y-6199062D01*
X7853408Y-6160302D01*
X7853403Y-6160299D01*
X7822953Y-6144392D01*
X7816239Y-6140324D01*
X7788046Y-6120702D01*
X7731670Y-6096509D01*
X7727416Y-6094488D01*
X7673049Y-6066091D01*
X7673048Y-6066090D01*
X7640025Y-6056640D01*
X7632629Y-6054007D01*
X7601057Y-6040459D01*
X7540981Y-6028113D01*
X7536405Y-6026990D01*
X7477422Y-6010113D01*
X7443159Y-6007503D01*
X7435392Y-6006414D01*
X7401741Y-5999500D01*
X7340402Y-5999500D01*
X7335696Y-5999321D01*
X7330483Y-5998924D01*
X7274525Y-5994662D01*
X7255729Y-5997056D01*
X7240441Y-5999003D01*
X7232611Y-5999500D01*
X4565783Y-5999500D01*
X4498744Y-5979815D01*
X4478102Y-5963181D01*
X3842921Y-5328000D01*
X8912723Y-5328000D01*
X8931793Y-5545977D01*
X8988425Y-5757330D01*
X9080898Y-5955639D01*
X9206402Y-6134877D01*
X9361123Y-6289598D01*
X9540361Y-6415102D01*
X9738670Y-6507575D01*
X9950023Y-6564207D01*
X10135538Y-6580437D01*
X10167998Y-6583277D01*
X10168000Y-6583277D01*
X10168002Y-6583277D01*
X10198213Y-6580633D01*
X10385977Y-6564207D01*
X10597330Y-6507575D01*
X10795639Y-6415102D01*
X10795642Y-6415100D01*
X10795644Y-6415099D01*
X10887294Y-6350925D01*
X10953500Y-6328598D01*
X10958417Y-6328500D01*
X15092583Y-6328500D01*
X15159622Y-6348185D01*
X15163706Y-6350925D01*
X15220790Y-6390895D01*
X15255361Y-6415102D01*
X15453670Y-6507575D01*
X15665023Y-6564207D01*
X15850538Y-6580437D01*
X15882998Y-6583277D01*
X15883000Y-6583277D01*
X15883002Y-6583277D01*
X15913213Y-6580633D01*
X16100977Y-6564207D01*
X16312330Y-6507575D01*
X16510639Y-6415102D01*
X16510642Y-6415100D01*
X16510644Y-6415099D01*
X16586299Y-6362125D01*
X16652505Y-6339798D01*
X16657422Y-6339700D01*
X18202791Y-6339700D01*
X20752171Y-6339700D01*
X20819210Y-6359385D01*
X20823294Y-6362125D01*
X20970353Y-6465097D01*
X20970357Y-6465098D01*
X20970361Y-6465102D01*
X21168670Y-6557575D01*
X21380023Y-6614207D01*
X21565538Y-6630437D01*
X21597998Y-6633277D01*
X21598000Y-6633277D01*
X21598002Y-6633277D01*
X21628213Y-6630633D01*
X21815977Y-6614207D01*
X22027330Y-6557575D01*
X22225639Y-6465102D01*
X22404877Y-6339598D01*
X22559598Y-6184877D01*
X22678813Y-6014621D01*
X22685103Y-6005638D01*
X22765296Y-5833662D01*
X22777575Y-5807330D01*
X22777576Y-5807326D01*
X22777578Y-5807322D01*
X22834207Y-5595979D01*
X22834207Y-5595975D01*
X22853277Y-5378002D01*
X22853277Y-5377997D01*
X22848903Y-5328000D01*
X26057723Y-5328000D01*
X26076793Y-5545977D01*
X26133425Y-5757330D01*
X26225898Y-5955639D01*
X26351402Y-6134877D01*
X26506123Y-6289598D01*
X26685361Y-6415102D01*
X26883670Y-6507575D01*
X27095023Y-6564207D01*
X27280538Y-6580437D01*
X27312998Y-6583277D01*
X27313000Y-6583277D01*
X27313002Y-6583277D01*
X27343213Y-6580633D01*
X27530977Y-6564207D01*
X27742330Y-6507575D01*
X27940639Y-6415102D01*
X27940642Y-6415100D01*
X27940644Y-6415099D01*
X28052574Y-6336725D01*
X28118780Y-6314398D01*
X28123697Y-6314300D01*
X29658191Y-6314300D01*
X32145898Y-6314300D01*
X32212937Y-6333985D01*
X32217022Y-6336725D01*
X32221119Y-6339593D01*
X32221123Y-6339598D01*
X32400361Y-6465102D01*
X32598670Y-6557575D01*
X32810023Y-6614207D01*
X32995538Y-6630437D01*
X33027998Y-6633277D01*
X33028000Y-6633277D01*
X33028002Y-6633277D01*
X33058213Y-6630633D01*
X33245977Y-6614207D01*
X33457330Y-6557575D01*
X33655639Y-6465102D01*
X33834877Y-6339598D01*
X33989598Y-6184877D01*
X34108813Y-6014621D01*
X34115103Y-6005638D01*
X34195296Y-5833662D01*
X34207575Y-5807330D01*
X34207576Y-5807326D01*
X34207578Y-5807322D01*
X34264207Y-5595979D01*
X34264207Y-5595975D01*
X34283277Y-5378002D01*
X34283277Y-5377997D01*
X34278903Y-5328000D01*
X37487723Y-5328000D01*
X37506793Y-5545977D01*
X37563425Y-5757330D01*
X37655898Y-5955639D01*
X37781402Y-6134877D01*
X37936123Y-6289598D01*
X38115361Y-6415102D01*
X38313670Y-6507575D01*
X38525023Y-6564207D01*
X38710538Y-6580437D01*
X38742998Y-6583277D01*
X38743000Y-6583277D01*
X38743002Y-6583277D01*
X38773213Y-6580633D01*
X38960977Y-6564207D01*
X39172330Y-6507575D01*
X39370639Y-6415102D01*
X39370642Y-6415100D01*
X39370644Y-6415099D01*
X39462294Y-6350925D01*
X39528500Y-6328598D01*
X39533417Y-6328500D01*
X40949998Y-6328500D01*
X40956303Y-6328821D01*
X40960003Y-6329198D01*
X40960003Y-6329199D01*
X41062791Y-6339700D01*
X42112808Y-6339699D01*
X42112816Y-6339698D01*
X42112820Y-6339698D01*
X42219297Y-6328821D01*
X42225602Y-6328500D01*
X43596177Y-6328500D01*
X43663216Y-6348185D01*
X43667268Y-6350902D01*
X43830361Y-6465102D01*
X44028670Y-6557575D01*
X44240023Y-6614207D01*
X44425538Y-6630437D01*
X44457998Y-6633277D01*
X44458000Y-6633277D01*
X44458002Y-6633277D01*
X44488213Y-6630633D01*
X44675977Y-6614207D01*
X44887330Y-6557575D01*
X45085639Y-6465102D01*
X45264877Y-6339598D01*
X45419598Y-6184877D01*
X45538813Y-6014621D01*
X45545103Y-6005638D01*
X45625296Y-5833662D01*
X45637575Y-5807330D01*
X45637576Y-5807326D01*
X45637578Y-5807322D01*
X45694207Y-5595979D01*
X45694207Y-5595975D01*
X45713277Y-5378002D01*
X45713277Y-5377997D01*
X45708903Y-5328000D01*
X48917723Y-5328000D01*
X48936793Y-5545977D01*
X48993425Y-5757330D01*
X49085898Y-5955639D01*
X49211402Y-6134877D01*
X49366123Y-6289598D01*
X49545361Y-6415102D01*
X49743670Y-6507575D01*
X49955023Y-6564207D01*
X50140538Y-6580437D01*
X50172998Y-6583277D01*
X50173000Y-6583277D01*
X50173002Y-6583277D01*
X50203213Y-6580633D01*
X50390977Y-6564207D01*
X50602330Y-6507575D01*
X50800639Y-6415102D01*
X50800642Y-6415100D01*
X50800644Y-6415099D01*
X50912574Y-6336725D01*
X50978780Y-6314398D01*
X50983697Y-6314300D01*
X52492791Y-6314300D01*
X55005898Y-6314300D01*
X55072937Y-6333985D01*
X55077022Y-6336725D01*
X55081119Y-6339593D01*
X55081123Y-6339598D01*
X55260361Y-6465102D01*
X55458670Y-6557575D01*
X55670023Y-6614207D01*
X55855538Y-6630437D01*
X55887998Y-6633277D01*
X55888000Y-6633277D01*
X55888002Y-6633277D01*
X55918213Y-6630633D01*
X56105977Y-6614207D01*
X56317330Y-6557575D01*
X56515639Y-6465102D01*
X56515643Y-6465099D01*
X56515647Y-6465097D01*
X56607294Y-6400925D01*
X56673500Y-6378598D01*
X56678417Y-6378500D01*
X61066583Y-6378500D01*
X61133622Y-6398185D01*
X61137706Y-6400925D01*
X61229353Y-6465097D01*
X61229357Y-6465098D01*
X61229361Y-6465102D01*
X61427670Y-6557575D01*
X61639023Y-6614207D01*
X61824538Y-6630437D01*
X61856998Y-6633277D01*
X61857000Y-6633277D01*
X61857002Y-6633277D01*
X61887213Y-6630633D01*
X62074977Y-6614207D01*
X62286330Y-6557575D01*
X62484639Y-6465102D01*
X62663877Y-6339598D01*
X62818598Y-6184877D01*
X62937813Y-6014621D01*
X62944103Y-6005638D01*
X63024296Y-5833662D01*
X63036575Y-5807330D01*
X63036576Y-5807326D01*
X63036578Y-5807322D01*
X63093207Y-5595979D01*
X63093207Y-5595975D01*
X63112277Y-5378002D01*
X63112277Y-5377997D01*
X63093207Y-5160024D01*
X63093207Y-5160020D01*
X63036578Y-4948677D01*
X63036574Y-4948668D01*
X62944102Y-4750361D01*
X62944100Y-4750357D01*
X62818600Y-4571124D01*
X62663878Y-4416403D01*
X62643164Y-4401899D01*
X62583754Y-4360299D01*
X62484639Y-4290897D01*
X62286332Y-4198426D01*
X62286323Y-4198422D01*
X62074978Y-4141793D01*
X61857002Y-4122723D01*
X61856998Y-4122723D01*
X61748012Y-4132258D01*
X61639023Y-4141793D01*
X61639021Y-4141793D01*
X61427678Y-4198422D01*
X61427674Y-4198424D01*
X61427670Y-4198425D01*
X61282563Y-4266090D01*
X61229362Y-4290898D01*
X61229358Y-4290900D01*
X61137707Y-4355075D01*
X61071501Y-4377402D01*
X61066584Y-4377500D01*
X56678417Y-4377500D01*
X56611378Y-4357815D01*
X56607294Y-4355075D01*
X56515644Y-4290900D01*
X56515640Y-4290898D01*
X56317332Y-4198426D01*
X56317323Y-4198422D01*
X56105978Y-4141793D01*
X55888002Y-4122723D01*
X55887998Y-4122723D01*
X55779012Y-4132258D01*
X55670023Y-4141793D01*
X55670021Y-4141793D01*
X55458678Y-4198422D01*
X55458674Y-4198424D01*
X55458670Y-4198425D01*
X55392729Y-4229174D01*
X55260363Y-4290897D01*
X55255675Y-4293604D01*
X55255125Y-4292650D01*
X55194197Y-4313202D01*
X55189272Y-4313300D01*
X50943137Y-4313300D01*
X50876098Y-4293615D01*
X50872014Y-4290875D01*
X50800644Y-4240900D01*
X50800640Y-4240898D01*
X50602332Y-4148426D01*
X50602323Y-4148422D01*
X50390978Y-4091793D01*
X50173002Y-4072723D01*
X50172998Y-4072723D01*
X50064012Y-4082258D01*
X49955023Y-4091793D01*
X49955021Y-4091793D01*
X49743678Y-4148422D01*
X49743674Y-4148424D01*
X49743670Y-4148425D01*
X49570504Y-4229174D01*
X49545362Y-4240898D01*
X49545358Y-4240900D01*
X49366122Y-4366402D01*
X49211403Y-4521121D01*
X49085901Y-4700357D01*
X49085900Y-4700359D01*
X49085898Y-4700362D01*
X48993425Y-4898670D01*
X48993424Y-4898676D01*
X48993423Y-4898677D01*
X48980026Y-4948677D01*
X48936793Y-5110023D01*
X48917723Y-5328000D01*
X45708903Y-5328000D01*
X45694207Y-5160024D01*
X45694207Y-5160020D01*
X45637578Y-4948677D01*
X45637574Y-4948668D01*
X45545102Y-4750361D01*
X45545100Y-4750357D01*
X45419600Y-4571124D01*
X45264878Y-4416403D01*
X45244164Y-4401899D01*
X45184754Y-4360299D01*
X45085639Y-4290897D01*
X44887332Y-4198426D01*
X44887323Y-4198422D01*
X44675978Y-4141793D01*
X44458002Y-4122723D01*
X44457998Y-4122723D01*
X44349012Y-4132258D01*
X44240023Y-4141793D01*
X44240021Y-4141793D01*
X44028678Y-4198422D01*
X44028674Y-4198424D01*
X44028670Y-4198425D01*
X43962729Y-4229174D01*
X43830365Y-4290896D01*
X43830363Y-4290897D01*
X43830362Y-4290898D01*
X43810115Y-4305075D01*
X43743910Y-4327402D01*
X43738992Y-4327500D01*
X39533417Y-4327500D01*
X39466378Y-4307815D01*
X39462294Y-4305075D01*
X39370644Y-4240900D01*
X39370640Y-4240898D01*
X39172332Y-4148426D01*
X39172323Y-4148422D01*
X38960978Y-4091793D01*
X38743002Y-4072723D01*
X38742998Y-4072723D01*
X38634012Y-4082258D01*
X38525023Y-4091793D01*
X38525021Y-4091793D01*
X38313678Y-4148422D01*
X38313674Y-4148424D01*
X38313670Y-4148425D01*
X38140504Y-4229174D01*
X38115362Y-4240898D01*
X38115358Y-4240900D01*
X37936122Y-4366402D01*
X37781403Y-4521121D01*
X37655901Y-4700357D01*
X37655900Y-4700359D01*
X37655898Y-4700362D01*
X37563425Y-4898670D01*
X37563424Y-4898676D01*
X37563423Y-4898677D01*
X37550026Y-4948677D01*
X37506793Y-5110023D01*
X37487723Y-5328000D01*
X34278903Y-5328000D01*
X34264207Y-5160024D01*
X34264207Y-5160020D01*
X34207578Y-4948677D01*
X34207574Y-4948668D01*
X34115102Y-4750361D01*
X34115100Y-4750357D01*
X33989600Y-4571124D01*
X33834878Y-4416403D01*
X33814164Y-4401899D01*
X33754754Y-4360299D01*
X33655639Y-4290897D01*
X33457332Y-4198426D01*
X33457323Y-4198422D01*
X33245978Y-4141793D01*
X33028002Y-4122723D01*
X33027998Y-4122723D01*
X32919012Y-4132258D01*
X32810023Y-4141793D01*
X32810021Y-4141793D01*
X32598678Y-4198422D01*
X32598674Y-4198424D01*
X32598670Y-4198425D01*
X32532729Y-4229174D01*
X32400363Y-4290897D01*
X32395675Y-4293604D01*
X32395125Y-4292650D01*
X32334197Y-4313202D01*
X32329272Y-4313300D01*
X28083137Y-4313300D01*
X28016098Y-4293615D01*
X28012014Y-4290875D01*
X27940644Y-4240900D01*
X27940640Y-4240898D01*
X27742332Y-4148426D01*
X27742323Y-4148422D01*
X27530978Y-4091793D01*
X27313002Y-4072723D01*
X27312998Y-4072723D01*
X27204012Y-4082258D01*
X27095023Y-4091793D01*
X27095021Y-4091793D01*
X26883678Y-4148422D01*
X26883674Y-4148424D01*
X26883670Y-4148425D01*
X26710504Y-4229174D01*
X26685362Y-4240898D01*
X26685358Y-4240900D01*
X26506122Y-4366402D01*
X26351403Y-4521121D01*
X26225901Y-4700357D01*
X26225900Y-4700359D01*
X26225898Y-4700362D01*
X26133425Y-4898670D01*
X26133424Y-4898676D01*
X26133423Y-4898677D01*
X26120026Y-4948677D01*
X26076793Y-5110023D01*
X26063363Y-5263535D01*
X26060824Y-5292560D01*
X26057723Y-5328000D01*
X22848903Y-5328000D01*
X22834207Y-5160024D01*
X22834207Y-5160020D01*
X22777578Y-4948677D01*
X22777574Y-4948668D01*
X22685102Y-4750361D01*
X22685100Y-4750357D01*
X22559600Y-4571124D01*
X22404878Y-4416403D01*
X22384164Y-4401899D01*
X22324754Y-4360299D01*
X22225639Y-4290897D01*
X22027332Y-4198426D01*
X22027323Y-4198422D01*
X21815978Y-4141793D01*
X21598002Y-4122723D01*
X21597998Y-4122723D01*
X21489012Y-4132258D01*
X21380023Y-4141793D01*
X21380021Y-4141793D01*
X21168678Y-4198422D01*
X21168674Y-4198424D01*
X21168670Y-4198425D01*
X20970362Y-4290898D01*
X20938369Y-4313300D01*
X20934120Y-4316275D01*
X20867914Y-4338602D01*
X20862997Y-4338700D01*
X16689412Y-4338700D01*
X16622373Y-4319015D01*
X16618289Y-4316275D01*
X16510644Y-4240900D01*
X16510640Y-4240898D01*
X16312332Y-4148426D01*
X16312323Y-4148422D01*
X16100978Y-4091793D01*
X15883002Y-4072723D01*
X15882998Y-4072723D01*
X15774012Y-4082258D01*
X15665023Y-4091793D01*
X15665021Y-4091793D01*
X15453678Y-4148422D01*
X15453674Y-4148424D01*
X15453670Y-4148425D01*
X15280504Y-4229174D01*
X15255362Y-4240898D01*
X15255358Y-4240900D01*
X15163707Y-4305075D01*
X15097501Y-4327402D01*
X15092584Y-4327500D01*
X10958417Y-4327500D01*
X10891378Y-4307815D01*
X10887294Y-4305075D01*
X10795644Y-4240900D01*
X10795640Y-4240898D01*
X10597332Y-4148426D01*
X10597323Y-4148422D01*
X10385978Y-4091793D01*
X10168002Y-4072723D01*
X10167998Y-4072723D01*
X10059012Y-4082258D01*
X9950023Y-4091793D01*
X9950021Y-4091793D01*
X9738678Y-4148422D01*
X9738674Y-4148424D01*
X9738670Y-4148425D01*
X9565504Y-4229174D01*
X9540362Y-4240898D01*
X9540358Y-4240900D01*
X9361122Y-4366402D01*
X9206403Y-4521121D01*
X9080901Y-4700357D01*
X9080900Y-4700359D01*
X9080898Y-4700362D01*
X8988425Y-4898670D01*
X8988424Y-4898676D01*
X8988423Y-4898677D01*
X8975026Y-4948677D01*
X8931793Y-5110023D01*
X8918363Y-5263535D01*
X8915824Y-5292560D01*
X8912723Y-5328000D01*
X3842921Y-5328000D01*
X3016453Y-4501531D01*
X2955058Y-4436946D01*
X2904706Y-4401899D01*
X2900944Y-4399062D01*
X2853408Y-4360302D01*
X2853403Y-4360299D01*
X2822953Y-4344392D01*
X2816239Y-4340324D01*
X2788046Y-4320702D01*
X2731670Y-4296509D01*
X2727416Y-4294488D01*
X2673049Y-4266091D01*
X2673048Y-4266090D01*
X2640025Y-4256640D01*
X2632629Y-4254007D01*
X2601057Y-4240459D01*
X2540981Y-4228113D01*
X2536405Y-4226990D01*
X2477422Y-4210113D01*
X2443159Y-4207503D01*
X2435392Y-4206414D01*
X2401741Y-4199500D01*
X2340401Y-4199500D01*
X2335698Y-4199321D01*
X2319999Y-4198125D01*
X2298088Y-4196457D01*
X2236383Y-4174391D01*
X2133661Y-4102465D01*
X1933452Y-4009107D01*
X1933446Y-4009104D01*
X1720071Y-3951930D01*
X1720063Y-3951929D01*
X1500002Y-3932677D01*
X1499998Y-3932677D01*
X1279938Y-3951929D01*
X1279930Y-3951930D01*
X1066555Y-4009104D01*
X1066553Y-4009105D01*
X1066550Y-4009106D01*
X930123Y-4072723D01*
X866341Y-4102465D01*
X866339Y-4102466D01*
X685378Y-4229175D01*
X529176Y-4385377D01*
X529174Y-4385380D01*
X402466Y-4566339D01*
X309106Y-4766550D01*
X251930Y-4979932D01*
X248119Y-5023499D01*
X248028Y-5024533D01*
X222576Y-5089602D01*
X165985Y-5130581D01*
X96223Y-5134459D01*
X35439Y-5100005D01*
X2931Y-5038158D01*
X500Y-5013726D01*
X500Y-124500D01*
X20185Y-57461D01*
X72989Y-11706D01*
X124500Y-500D01*
X71875500Y-500D01*
X71942539Y-20185D01*
G37*
%TD.AperFunction*%
%TA.AperFunction,Conductor*%
G36*
X71964561Y-10599994D02*
G01*
X71997069Y-10661840D01*
X71999500Y-10686273D01*
X71999500Y-19875500D01*
X71979815Y-19942539D01*
X71927011Y-19988294D01*
X71875500Y-19999500D01*
X67259500Y-19999500D01*
X67192461Y-19979815D01*
X67146706Y-19927011D01*
X67135500Y-19875500D01*
X67135500Y-16242129D01*
X67135499Y-16242123D01*
X67129092Y-16182516D01*
X67078798Y-16047671D01*
X67078796Y-16047669D01*
X67025233Y-15976118D01*
X67000816Y-15910654D01*
X67000500Y-15901807D01*
X67000500Y-14184181D01*
X67020185Y-14117142D01*
X67036815Y-14096505D01*
X69596502Y-11536819D01*
X69657824Y-11503334D01*
X69684182Y-11500500D01*
X69688662Y-11500500D01*
X69755701Y-11520185D01*
X69759768Y-11522912D01*
X69866338Y-11597534D01*
X70066550Y-11690894D01*
X70279932Y-11748070D01*
X70444983Y-11762509D01*
X70499998Y-11767323D01*
X70500000Y-11767323D01*
X70500002Y-11767323D01*
X70562877Y-11761822D01*
X70720068Y-11748070D01*
X70933450Y-11690894D01*
X71133662Y-11597534D01*
X71133665Y-11597532D01*
X71133667Y-11597531D01*
X71314616Y-11470829D01*
X71314622Y-11470824D01*
X71470825Y-11314621D01*
X71470830Y-11314615D01*
X71597532Y-11133666D01*
X71597534Y-11133662D01*
X71653046Y-11014615D01*
X71690894Y-10933450D01*
X71690895Y-10933447D01*
X71690896Y-10933445D01*
X71748070Y-10720070D01*
X71748071Y-10720062D01*
X71751972Y-10675466D01*
X71777424Y-10610397D01*
X71834015Y-10569418D01*
X71903777Y-10565540D01*
X71964561Y-10599994D01*
G37*
%TD.AperFunction*%
%TD*%
M02*
