M48
; DRILL file {KiCad 7.0.7} date 2023 October 22, Sunday 19:41:06
; FORMAT={-:-/ absolute / metric / decimal}
; #@! TF.CreationDate,2023-10-22T19:41:06-04:00
; #@! TF.GenerationSoftware,Kicad,Pcbnew,7.0.7
; #@! TF.FileFunction,MixedPlating,1,2
FMAT,2
METRIC
; #@! TA.AperFunction,Plated,PTH,ViaDrill
T1C0.400
; #@! TA.AperFunction,Plated,PTH,ComponentDrill
T2C0.762
; #@! TA.AperFunction,Plated,PTH,ComponentDrill
T3C0.800
%
G90
G05
T1
X1.0Y-1.0
X1.0Y-13.5
X1.0Y-19.0
X4.0Y-1.0
X7.0Y-1.0
X7.5Y-14.0
X11.0Y-19.0
X12.0Y-1.0
X13.0Y-8.0
X18.0Y-8.0
X19.0Y-17.0
X24.0Y-1.0
X24.0Y-8.0
X24.5Y-14.0
X30.0Y-8.0
X30.0Y-17.0
X35.0Y-1.0
X36.0Y-8.0
X36.0Y-14.0
X41.0Y-8.0
X42.0Y-17.0
X46.5Y-1.0
X47.0Y-8.0
X47.5Y-14.0
X53.0Y-8.0
X53.0Y-17.0
X58.0Y-1.0
X58.0Y-8.0
X60.5Y-19.0
X64.0Y-1.0
X64.5Y-14.0
X68.0Y-1.0
X71.0Y-1.0
X71.0Y-8.0
X71.0Y-14.0
X71.0Y-19.0
T2
X1.5Y-5.2
X1.5Y-10.2
X6.5Y-5.2
X6.5Y-10.2
X65.5Y-5.5
X65.5Y-10.5
X70.5Y-5.5
X70.5Y-10.5
T3
X10.168Y-5.328
X10.168Y-10.228
X15.883Y-5.328
X15.883Y-10.228
X21.598Y-5.378
X21.598Y-10.278
X27.313Y-5.328
X27.313Y-10.228
X33.028Y-5.378
X33.028Y-10.278
X38.743Y-5.328
X38.743Y-10.228
X44.458Y-5.378
X44.458Y-10.278
X50.173Y-5.328
X50.173Y-10.228
X55.888Y-5.378
X55.888Y-10.278
X61.857Y-5.378
X61.857Y-10.278
T0
M30
