%TF.GenerationSoftware,KiCad,Pcbnew,7.0.7*%
%TF.CreationDate,2023-09-08T15:53:02-04:00*%
%TF.ProjectId,AD8367AGCAmp,41443833-3637-4414-9743-416d702e6b69,rev?*%
%TF.SameCoordinates,PX6422c40PY52f83c0*%
%TF.FileFunction,Drillmap*%
%TF.FilePolarity,Positive*%
%FSLAX45Y45*%
G04 Gerber Fmt 4.5, Leading zero omitted, Abs format (unit mm)*
G04 Created by KiCad (PCBNEW 7.0.7) date 2023-09-08 15:53:02*
%MOMM*%
%LPD*%
G01*
G04 APERTURE LIST*
%ADD10C,0.100000*%
%ADD11C,0.200000*%
%ADD12C,0.040000*%
G04 APERTURE END LIST*
D10*
X2720000Y0D02*
X0Y0D01*
X0Y0D02*
X0Y-1610000D01*
X4500000Y-2000000D02*
X4500000Y-800000D01*
X0Y-2000000D02*
X4500000Y-2000000D01*
X4500000Y0D02*
X2720000Y0D01*
X0Y-1610000D02*
X0Y-2000000D01*
X4500000Y-800000D02*
X4500000Y0D01*
D11*
D12*
X180000Y-180000D02*
X220000Y-220000D01*
X220000Y-180000D02*
X180000Y-220000D01*
X180000Y-1780000D02*
X220000Y-1820000D01*
X220000Y-1780000D02*
X180000Y-1820000D01*
X1280000Y-1580000D02*
X1320000Y-1620000D01*
X1320000Y-1580000D02*
X1280000Y-1620000D01*
X1580000Y-880000D02*
X1620000Y-920000D01*
X1620000Y-880000D02*
X1580000Y-920000D01*
X1780000Y-180000D02*
X1820000Y-220000D01*
X1820000Y-180000D02*
X1780000Y-220000D01*
X2180000Y-1780000D02*
X2220000Y-1820000D01*
X2220000Y-1780000D02*
X2180000Y-1820000D01*
X2480000Y-580000D02*
X2520000Y-620000D01*
X2520000Y-580000D02*
X2480000Y-620000D01*
X2780000Y-180000D02*
X2820000Y-220000D01*
X2820000Y-180000D02*
X2780000Y-220000D01*
X2880000Y-1580000D02*
X2920000Y-1620000D01*
X2920000Y-1580000D02*
X2880000Y-1620000D01*
X3080000Y-580000D02*
X3120000Y-620000D01*
X3120000Y-580000D02*
X3080000Y-620000D01*
X3480000Y-1780000D02*
X3520000Y-1820000D01*
X3520000Y-1780000D02*
X3480000Y-1820000D01*
X4280000Y-180000D02*
X4320000Y-220000D01*
X4320000Y-180000D02*
X4280000Y-220000D01*
X4280000Y-1780000D02*
X4320000Y-1820000D01*
X4320000Y-1780000D02*
X4280000Y-1820000D01*
D11*
X255777Y-2316484D02*
X255777Y-2116484D01*
X255777Y-2116484D02*
X303396Y-2116484D01*
X303396Y-2116484D02*
X331967Y-2126008D01*
X331967Y-2126008D02*
X351015Y-2145055D01*
X351015Y-2145055D02*
X360539Y-2164103D01*
X360539Y-2164103D02*
X370062Y-2202198D01*
X370062Y-2202198D02*
X370062Y-2230770D01*
X370062Y-2230770D02*
X360539Y-2268865D01*
X360539Y-2268865D02*
X351015Y-2287912D01*
X351015Y-2287912D02*
X331967Y-2306960D01*
X331967Y-2306960D02*
X303396Y-2316484D01*
X303396Y-2316484D02*
X255777Y-2316484D01*
X455777Y-2316484D02*
X455777Y-2183150D01*
X455777Y-2221246D02*
X465301Y-2202198D01*
X465301Y-2202198D02*
X474824Y-2192674D01*
X474824Y-2192674D02*
X493872Y-2183150D01*
X493872Y-2183150D02*
X512920Y-2183150D01*
X579586Y-2316484D02*
X579586Y-2183150D01*
X579586Y-2116484D02*
X570063Y-2126008D01*
X570063Y-2126008D02*
X579586Y-2135531D01*
X579586Y-2135531D02*
X589110Y-2126008D01*
X589110Y-2126008D02*
X579586Y-2116484D01*
X579586Y-2116484D02*
X579586Y-2135531D01*
X703396Y-2316484D02*
X684348Y-2306960D01*
X684348Y-2306960D02*
X674824Y-2287912D01*
X674824Y-2287912D02*
X674824Y-2116484D01*
X808158Y-2316484D02*
X789110Y-2306960D01*
X789110Y-2306960D02*
X779586Y-2287912D01*
X779586Y-2287912D02*
X779586Y-2116484D01*
X1036729Y-2316484D02*
X1036729Y-2116484D01*
X1036729Y-2116484D02*
X1103396Y-2259341D01*
X1103396Y-2259341D02*
X1170063Y-2116484D01*
X1170063Y-2116484D02*
X1170063Y-2316484D01*
X1351015Y-2316484D02*
X1351015Y-2211722D01*
X1351015Y-2211722D02*
X1341491Y-2192674D01*
X1341491Y-2192674D02*
X1322444Y-2183150D01*
X1322444Y-2183150D02*
X1284348Y-2183150D01*
X1284348Y-2183150D02*
X1265301Y-2192674D01*
X1351015Y-2306960D02*
X1331967Y-2316484D01*
X1331967Y-2316484D02*
X1284348Y-2316484D01*
X1284348Y-2316484D02*
X1265301Y-2306960D01*
X1265301Y-2306960D02*
X1255777Y-2287912D01*
X1255777Y-2287912D02*
X1255777Y-2268865D01*
X1255777Y-2268865D02*
X1265301Y-2249817D01*
X1265301Y-2249817D02*
X1284348Y-2240293D01*
X1284348Y-2240293D02*
X1331967Y-2240293D01*
X1331967Y-2240293D02*
X1351015Y-2230770D01*
X1446253Y-2183150D02*
X1446253Y-2383150D01*
X1446253Y-2192674D02*
X1465301Y-2183150D01*
X1465301Y-2183150D02*
X1503396Y-2183150D01*
X1503396Y-2183150D02*
X1522443Y-2192674D01*
X1522443Y-2192674D02*
X1531967Y-2202198D01*
X1531967Y-2202198D02*
X1541491Y-2221246D01*
X1541491Y-2221246D02*
X1541491Y-2278389D01*
X1541491Y-2278389D02*
X1531967Y-2297436D01*
X1531967Y-2297436D02*
X1522443Y-2306960D01*
X1522443Y-2306960D02*
X1503396Y-2316484D01*
X1503396Y-2316484D02*
X1465301Y-2316484D01*
X1465301Y-2316484D02*
X1446253Y-2306960D01*
X1627205Y-2297436D02*
X1636729Y-2306960D01*
X1636729Y-2306960D02*
X1627205Y-2316484D01*
X1627205Y-2316484D02*
X1617682Y-2306960D01*
X1617682Y-2306960D02*
X1627205Y-2297436D01*
X1627205Y-2297436D02*
X1627205Y-2316484D01*
X1627205Y-2192674D02*
X1636729Y-2202198D01*
X1636729Y-2202198D02*
X1627205Y-2211722D01*
X1627205Y-2211722D02*
X1617682Y-2202198D01*
X1617682Y-2202198D02*
X1627205Y-2192674D01*
X1627205Y-2192674D02*
X1627205Y-2211722D01*
D12*
X-45000Y-2625000D02*
X-5000Y-2665000D01*
X-5000Y-2625000D02*
X-45000Y-2665000D01*
D11*
X293872Y-2536484D02*
X312920Y-2536484D01*
X312920Y-2536484D02*
X331967Y-2546008D01*
X331967Y-2546008D02*
X341491Y-2555531D01*
X341491Y-2555531D02*
X351015Y-2574579D01*
X351015Y-2574579D02*
X360539Y-2612674D01*
X360539Y-2612674D02*
X360539Y-2660293D01*
X360539Y-2660293D02*
X351015Y-2698389D01*
X351015Y-2698389D02*
X341491Y-2717436D01*
X341491Y-2717436D02*
X331967Y-2726960D01*
X331967Y-2726960D02*
X312920Y-2736484D01*
X312920Y-2736484D02*
X293872Y-2736484D01*
X293872Y-2736484D02*
X274824Y-2726960D01*
X274824Y-2726960D02*
X265301Y-2717436D01*
X265301Y-2717436D02*
X255777Y-2698389D01*
X255777Y-2698389D02*
X246253Y-2660293D01*
X246253Y-2660293D02*
X246253Y-2612674D01*
X246253Y-2612674D02*
X255777Y-2574579D01*
X255777Y-2574579D02*
X265301Y-2555531D01*
X265301Y-2555531D02*
X274824Y-2546008D01*
X274824Y-2546008D02*
X293872Y-2536484D01*
X446253Y-2717436D02*
X455777Y-2726960D01*
X455777Y-2726960D02*
X446253Y-2736484D01*
X446253Y-2736484D02*
X436729Y-2726960D01*
X436729Y-2726960D02*
X446253Y-2717436D01*
X446253Y-2717436D02*
X446253Y-2736484D01*
X627205Y-2603150D02*
X627205Y-2736484D01*
X579586Y-2526960D02*
X531967Y-2669817D01*
X531967Y-2669817D02*
X655777Y-2669817D01*
X770062Y-2536484D02*
X789110Y-2536484D01*
X789110Y-2536484D02*
X808158Y-2546008D01*
X808158Y-2546008D02*
X817682Y-2555531D01*
X817682Y-2555531D02*
X827205Y-2574579D01*
X827205Y-2574579D02*
X836729Y-2612674D01*
X836729Y-2612674D02*
X836729Y-2660293D01*
X836729Y-2660293D02*
X827205Y-2698389D01*
X827205Y-2698389D02*
X817682Y-2717436D01*
X817682Y-2717436D02*
X808158Y-2726960D01*
X808158Y-2726960D02*
X789110Y-2736484D01*
X789110Y-2736484D02*
X770062Y-2736484D01*
X770062Y-2736484D02*
X751015Y-2726960D01*
X751015Y-2726960D02*
X741491Y-2717436D01*
X741491Y-2717436D02*
X731967Y-2698389D01*
X731967Y-2698389D02*
X722443Y-2660293D01*
X722443Y-2660293D02*
X722443Y-2612674D01*
X722443Y-2612674D02*
X731967Y-2574579D01*
X731967Y-2574579D02*
X741491Y-2555531D01*
X741491Y-2555531D02*
X751015Y-2546008D01*
X751015Y-2546008D02*
X770062Y-2536484D01*
X960539Y-2536484D02*
X979586Y-2536484D01*
X979586Y-2536484D02*
X998634Y-2546008D01*
X998634Y-2546008D02*
X1008158Y-2555531D01*
X1008158Y-2555531D02*
X1017682Y-2574579D01*
X1017682Y-2574579D02*
X1027205Y-2612674D01*
X1027205Y-2612674D02*
X1027205Y-2660293D01*
X1027205Y-2660293D02*
X1017682Y-2698389D01*
X1017682Y-2698389D02*
X1008158Y-2717436D01*
X1008158Y-2717436D02*
X998634Y-2726960D01*
X998634Y-2726960D02*
X979586Y-2736484D01*
X979586Y-2736484D02*
X960539Y-2736484D01*
X960539Y-2736484D02*
X941491Y-2726960D01*
X941491Y-2726960D02*
X931967Y-2717436D01*
X931967Y-2717436D02*
X922443Y-2698389D01*
X922443Y-2698389D02*
X912920Y-2660293D01*
X912920Y-2660293D02*
X912920Y-2612674D01*
X912920Y-2612674D02*
X922443Y-2574579D01*
X922443Y-2574579D02*
X931967Y-2555531D01*
X931967Y-2555531D02*
X941491Y-2546008D01*
X941491Y-2546008D02*
X960539Y-2536484D01*
X1112920Y-2736484D02*
X1112920Y-2603150D01*
X1112920Y-2622198D02*
X1122444Y-2612674D01*
X1122444Y-2612674D02*
X1141491Y-2603150D01*
X1141491Y-2603150D02*
X1170063Y-2603150D01*
X1170063Y-2603150D02*
X1189110Y-2612674D01*
X1189110Y-2612674D02*
X1198634Y-2631722D01*
X1198634Y-2631722D02*
X1198634Y-2736484D01*
X1198634Y-2631722D02*
X1208158Y-2612674D01*
X1208158Y-2612674D02*
X1227205Y-2603150D01*
X1227205Y-2603150D02*
X1255777Y-2603150D01*
X1255777Y-2603150D02*
X1274825Y-2612674D01*
X1274825Y-2612674D02*
X1284348Y-2631722D01*
X1284348Y-2631722D02*
X1284348Y-2736484D01*
X1379586Y-2736484D02*
X1379586Y-2603150D01*
X1379586Y-2622198D02*
X1389110Y-2612674D01*
X1389110Y-2612674D02*
X1408158Y-2603150D01*
X1408158Y-2603150D02*
X1436729Y-2603150D01*
X1436729Y-2603150D02*
X1455777Y-2612674D01*
X1455777Y-2612674D02*
X1465301Y-2631722D01*
X1465301Y-2631722D02*
X1465301Y-2736484D01*
X1465301Y-2631722D02*
X1474824Y-2612674D01*
X1474824Y-2612674D02*
X1493872Y-2603150D01*
X1493872Y-2603150D02*
X1522443Y-2603150D01*
X1522443Y-2603150D02*
X1541491Y-2612674D01*
X1541491Y-2612674D02*
X1551015Y-2631722D01*
X1551015Y-2631722D02*
X1551015Y-2736484D01*
X1941491Y-2526960D02*
X1770063Y-2784103D01*
X2198634Y-2536484D02*
X2217682Y-2536484D01*
X2217682Y-2536484D02*
X2236729Y-2546008D01*
X2236729Y-2546008D02*
X2246253Y-2555531D01*
X2246253Y-2555531D02*
X2255777Y-2574579D01*
X2255777Y-2574579D02*
X2265301Y-2612674D01*
X2265301Y-2612674D02*
X2265301Y-2660293D01*
X2265301Y-2660293D02*
X2255777Y-2698389D01*
X2255777Y-2698389D02*
X2246253Y-2717436D01*
X2246253Y-2717436D02*
X2236729Y-2726960D01*
X2236729Y-2726960D02*
X2217682Y-2736484D01*
X2217682Y-2736484D02*
X2198634Y-2736484D01*
X2198634Y-2736484D02*
X2179587Y-2726960D01*
X2179587Y-2726960D02*
X2170063Y-2717436D01*
X2170063Y-2717436D02*
X2160539Y-2698389D01*
X2160539Y-2698389D02*
X2151015Y-2660293D01*
X2151015Y-2660293D02*
X2151015Y-2612674D01*
X2151015Y-2612674D02*
X2160539Y-2574579D01*
X2160539Y-2574579D02*
X2170063Y-2555531D01*
X2170063Y-2555531D02*
X2179587Y-2546008D01*
X2179587Y-2546008D02*
X2198634Y-2536484D01*
X2351015Y-2717436D02*
X2360539Y-2726960D01*
X2360539Y-2726960D02*
X2351015Y-2736484D01*
X2351015Y-2736484D02*
X2341491Y-2726960D01*
X2341491Y-2726960D02*
X2351015Y-2717436D01*
X2351015Y-2717436D02*
X2351015Y-2736484D01*
X2484348Y-2536484D02*
X2503396Y-2536484D01*
X2503396Y-2536484D02*
X2522444Y-2546008D01*
X2522444Y-2546008D02*
X2531968Y-2555531D01*
X2531968Y-2555531D02*
X2541491Y-2574579D01*
X2541491Y-2574579D02*
X2551015Y-2612674D01*
X2551015Y-2612674D02*
X2551015Y-2660293D01*
X2551015Y-2660293D02*
X2541491Y-2698389D01*
X2541491Y-2698389D02*
X2531968Y-2717436D01*
X2531968Y-2717436D02*
X2522444Y-2726960D01*
X2522444Y-2726960D02*
X2503396Y-2736484D01*
X2503396Y-2736484D02*
X2484348Y-2736484D01*
X2484348Y-2736484D02*
X2465301Y-2726960D01*
X2465301Y-2726960D02*
X2455777Y-2717436D01*
X2455777Y-2717436D02*
X2446253Y-2698389D01*
X2446253Y-2698389D02*
X2436729Y-2660293D01*
X2436729Y-2660293D02*
X2436729Y-2612674D01*
X2436729Y-2612674D02*
X2446253Y-2574579D01*
X2446253Y-2574579D02*
X2455777Y-2555531D01*
X2455777Y-2555531D02*
X2465301Y-2546008D01*
X2465301Y-2546008D02*
X2484348Y-2536484D01*
X2741491Y-2736484D02*
X2627206Y-2736484D01*
X2684348Y-2736484D02*
X2684348Y-2536484D01*
X2684348Y-2536484D02*
X2665301Y-2565055D01*
X2665301Y-2565055D02*
X2646253Y-2584103D01*
X2646253Y-2584103D02*
X2627206Y-2593627D01*
X2922444Y-2536484D02*
X2827206Y-2536484D01*
X2827206Y-2536484D02*
X2817682Y-2631722D01*
X2817682Y-2631722D02*
X2827206Y-2622198D01*
X2827206Y-2622198D02*
X2846253Y-2612674D01*
X2846253Y-2612674D02*
X2893872Y-2612674D01*
X2893872Y-2612674D02*
X2912920Y-2622198D01*
X2912920Y-2622198D02*
X2922444Y-2631722D01*
X2922444Y-2631722D02*
X2931967Y-2650770D01*
X2931967Y-2650770D02*
X2931967Y-2698389D01*
X2931967Y-2698389D02*
X2922444Y-2717436D01*
X2922444Y-2717436D02*
X2912920Y-2726960D01*
X2912920Y-2726960D02*
X2893872Y-2736484D01*
X2893872Y-2736484D02*
X2846253Y-2736484D01*
X2846253Y-2736484D02*
X2827206Y-2726960D01*
X2827206Y-2726960D02*
X2817682Y-2717436D01*
X2998634Y-2536484D02*
X3131967Y-2536484D01*
X3131967Y-2536484D02*
X3046253Y-2736484D01*
X3198634Y-2536484D02*
X3198634Y-2574579D01*
X3274825Y-2536484D02*
X3274825Y-2574579D01*
X3570063Y-2812674D02*
X3560539Y-2803150D01*
X3560539Y-2803150D02*
X3541491Y-2774579D01*
X3541491Y-2774579D02*
X3531968Y-2755531D01*
X3531968Y-2755531D02*
X3522444Y-2726960D01*
X3522444Y-2726960D02*
X3512920Y-2679341D01*
X3512920Y-2679341D02*
X3512920Y-2641246D01*
X3512920Y-2641246D02*
X3522444Y-2593627D01*
X3522444Y-2593627D02*
X3531968Y-2565055D01*
X3531968Y-2565055D02*
X3541491Y-2546008D01*
X3541491Y-2546008D02*
X3560539Y-2517436D01*
X3560539Y-2517436D02*
X3570063Y-2507912D01*
X3751015Y-2736484D02*
X3636729Y-2736484D01*
X3693872Y-2736484D02*
X3693872Y-2536484D01*
X3693872Y-2536484D02*
X3674825Y-2565055D01*
X3674825Y-2565055D02*
X3655777Y-2584103D01*
X3655777Y-2584103D02*
X3636729Y-2593627D01*
X3817682Y-2536484D02*
X3941491Y-2536484D01*
X3941491Y-2536484D02*
X3874825Y-2612674D01*
X3874825Y-2612674D02*
X3903396Y-2612674D01*
X3903396Y-2612674D02*
X3922444Y-2622198D01*
X3922444Y-2622198D02*
X3931968Y-2631722D01*
X3931968Y-2631722D02*
X3941491Y-2650770D01*
X3941491Y-2650770D02*
X3941491Y-2698389D01*
X3941491Y-2698389D02*
X3931968Y-2717436D01*
X3931968Y-2717436D02*
X3922444Y-2726960D01*
X3922444Y-2726960D02*
X3903396Y-2736484D01*
X3903396Y-2736484D02*
X3846253Y-2736484D01*
X3846253Y-2736484D02*
X3827206Y-2726960D01*
X3827206Y-2726960D02*
X3817682Y-2717436D01*
X4179587Y-2736484D02*
X4179587Y-2536484D01*
X4265301Y-2736484D02*
X4265301Y-2631722D01*
X4265301Y-2631722D02*
X4255777Y-2612674D01*
X4255777Y-2612674D02*
X4236730Y-2603150D01*
X4236730Y-2603150D02*
X4208158Y-2603150D01*
X4208158Y-2603150D02*
X4189110Y-2612674D01*
X4189110Y-2612674D02*
X4179587Y-2622198D01*
X4389111Y-2736484D02*
X4370063Y-2726960D01*
X4370063Y-2726960D02*
X4360539Y-2717436D01*
X4360539Y-2717436D02*
X4351015Y-2698389D01*
X4351015Y-2698389D02*
X4351015Y-2641246D01*
X4351015Y-2641246D02*
X4360539Y-2622198D01*
X4360539Y-2622198D02*
X4370063Y-2612674D01*
X4370063Y-2612674D02*
X4389111Y-2603150D01*
X4389111Y-2603150D02*
X4417682Y-2603150D01*
X4417682Y-2603150D02*
X4436730Y-2612674D01*
X4436730Y-2612674D02*
X4446253Y-2622198D01*
X4446253Y-2622198D02*
X4455777Y-2641246D01*
X4455777Y-2641246D02*
X4455777Y-2698389D01*
X4455777Y-2698389D02*
X4446253Y-2717436D01*
X4446253Y-2717436D02*
X4436730Y-2726960D01*
X4436730Y-2726960D02*
X4417682Y-2736484D01*
X4417682Y-2736484D02*
X4389111Y-2736484D01*
X4570063Y-2736484D02*
X4551015Y-2726960D01*
X4551015Y-2726960D02*
X4541492Y-2707912D01*
X4541492Y-2707912D02*
X4541492Y-2536484D01*
X4722444Y-2726960D02*
X4703396Y-2736484D01*
X4703396Y-2736484D02*
X4665301Y-2736484D01*
X4665301Y-2736484D02*
X4646253Y-2726960D01*
X4646253Y-2726960D02*
X4636730Y-2707912D01*
X4636730Y-2707912D02*
X4636730Y-2631722D01*
X4636730Y-2631722D02*
X4646253Y-2612674D01*
X4646253Y-2612674D02*
X4665301Y-2603150D01*
X4665301Y-2603150D02*
X4703396Y-2603150D01*
X4703396Y-2603150D02*
X4722444Y-2612674D01*
X4722444Y-2612674D02*
X4731968Y-2631722D01*
X4731968Y-2631722D02*
X4731968Y-2650770D01*
X4731968Y-2650770D02*
X4636730Y-2669817D01*
X4808158Y-2726960D02*
X4827206Y-2736484D01*
X4827206Y-2736484D02*
X4865301Y-2736484D01*
X4865301Y-2736484D02*
X4884349Y-2726960D01*
X4884349Y-2726960D02*
X4893873Y-2707912D01*
X4893873Y-2707912D02*
X4893873Y-2698389D01*
X4893873Y-2698389D02*
X4884349Y-2679341D01*
X4884349Y-2679341D02*
X4865301Y-2669817D01*
X4865301Y-2669817D02*
X4836730Y-2669817D01*
X4836730Y-2669817D02*
X4817682Y-2660293D01*
X4817682Y-2660293D02*
X4808158Y-2641246D01*
X4808158Y-2641246D02*
X4808158Y-2631722D01*
X4808158Y-2631722D02*
X4817682Y-2612674D01*
X4817682Y-2612674D02*
X4836730Y-2603150D01*
X4836730Y-2603150D02*
X4865301Y-2603150D01*
X4865301Y-2603150D02*
X4884349Y-2612674D01*
X4960539Y-2812674D02*
X4970063Y-2803150D01*
X4970063Y-2803150D02*
X4989111Y-2774579D01*
X4989111Y-2774579D02*
X4998634Y-2755531D01*
X4998634Y-2755531D02*
X5008158Y-2726960D01*
X5008158Y-2726960D02*
X5017682Y-2679341D01*
X5017682Y-2679341D02*
X5017682Y-2641246D01*
X5017682Y-2641246D02*
X5008158Y-2593627D01*
X5008158Y-2593627D02*
X4998634Y-2565055D01*
X4998634Y-2565055D02*
X4989111Y-2546008D01*
X4989111Y-2546008D02*
X4970063Y-2517436D01*
X4970063Y-2517436D02*
X4960539Y-2507912D01*
M02*
