%TF.GenerationSoftware,KiCad,Pcbnew,7.0.7*%
%TF.CreationDate,2023-10-08T08:59:40-04:00*%
%TF.ProjectId,ControlBoard,436f6e74-726f-46c4-926f-6172642e6b69,rev?*%
%TF.SameCoordinates,PX5f5e100PY459e440*%
%TF.FileFunction,Drillmap*%
%TF.FilePolarity,Positive*%
%FSLAX45Y45*%
G04 Gerber Fmt 4.5, Leading zero omitted, Abs format (unit mm)*
G04 Created by KiCad (PCBNEW 7.0.7) date 2023-10-08 08:59:40*
%MOMM*%
%LPD*%
G01*
G04 APERTURE LIST*
%ADD10C,0.100000*%
%ADD11C,0.200000*%
%ADD12C,0.040000*%
%ADD13C,0.076200*%
%ADD14C,0.080000*%
%ADD15C,0.150000*%
%ADD16C,0.320000*%
G04 APERTURE END LIST*
D10*
X10000000Y0D02*
X10000000Y-5500000D01*
X0Y-5500000D02*
X0Y0D01*
X10000000Y-5500000D02*
X0Y-5500000D01*
X0Y0D02*
X10000000Y0D01*
D11*
D12*
X216200Y-1267740D02*
X256200Y-1307740D01*
X256200Y-1267740D02*
X216200Y-1307740D01*
X226360Y-3754400D02*
X266360Y-3794400D01*
X266360Y-3754400D02*
X226360Y-3794400D01*
X1666540Y-1836700D02*
X1706540Y-1876700D01*
X1706540Y-1836700D02*
X1666540Y-1876700D01*
X2316780Y-3104160D02*
X2356780Y-3144160D01*
X2356780Y-3104160D02*
X2316780Y-3144160D01*
X3165140Y-4333520D02*
X3205140Y-4373520D01*
X3205140Y-4333520D02*
X3165140Y-4373520D01*
X3182920Y-3099080D02*
X3222920Y-3139080D01*
X3222920Y-3099080D02*
X3182920Y-3139080D01*
X3241340Y-5275860D02*
X3281340Y-5315860D01*
X3281340Y-5275860D02*
X3241340Y-5315860D01*
X3599480Y-1570000D02*
X3639480Y-1610000D01*
X3639480Y-1570000D02*
X3599480Y-1610000D01*
X3805220Y-2497100D02*
X3845220Y-2537100D01*
X3845220Y-2497100D02*
X3805220Y-2537100D01*
X3894120Y-3627400D02*
X3934120Y-3667400D01*
X3934120Y-3627400D02*
X3894120Y-3667400D01*
X3942380Y-2202460D02*
X3982380Y-2242460D01*
X3982380Y-2202460D02*
X3942380Y-2242460D01*
X3947460Y-924840D02*
X3987460Y-964840D01*
X3987460Y-924840D02*
X3947460Y-964840D01*
X3952540Y-167920D02*
X3992540Y-207920D01*
X3992540Y-167920D02*
X3952540Y-207920D01*
X4256000Y-3756940D02*
X4296000Y-3796940D01*
X4296000Y-3756940D02*
X4256000Y-3796940D01*
X4256000Y-4818660D02*
X4296000Y-4858660D01*
X4296000Y-4818660D02*
X4256000Y-4858660D01*
X4633260Y-3736620D02*
X4673260Y-3776620D01*
X4673260Y-3736620D02*
X4633260Y-3776620D01*
X4762800Y-1559840D02*
X4802800Y-1599840D01*
X4802800Y-1559840D02*
X4762800Y-1599840D01*
X4872020Y-5291100D02*
X4912020Y-5331100D01*
X4912020Y-5291100D02*
X4872020Y-5331100D01*
X4874560Y-4021100D02*
X4914560Y-4061100D01*
X4914560Y-4021100D02*
X4874560Y-4061100D01*
X4874560Y-4348760D02*
X4914560Y-4388760D01*
X4914560Y-4348760D02*
X4874560Y-4388760D01*
X5463840Y-2804440D02*
X5503840Y-2844440D01*
X5503840Y-2804440D02*
X5463840Y-2844440D01*
X5766100Y-1554760D02*
X5806100Y-1594760D01*
X5806100Y-1554760D02*
X5766100Y-1594760D01*
X5989620Y-2601240D02*
X6029620Y-2641240D01*
X6029620Y-2601240D02*
X5989620Y-2641240D01*
X5989620Y-3741700D02*
X6029620Y-3781700D01*
X6029620Y-3741700D02*
X5989620Y-3781700D01*
X6286800Y-5283480D02*
X6326800Y-5323480D01*
X6326800Y-5283480D02*
X6286800Y-5323480D01*
X6622080Y-167920D02*
X6662080Y-207920D01*
X6662080Y-167920D02*
X6622080Y-207920D01*
X6624620Y-924840D02*
X6664620Y-964840D01*
X6664620Y-924840D02*
X6624620Y-964840D01*
X6949740Y-1542060D02*
X6989740Y-1582060D01*
X6989740Y-1542060D02*
X6949740Y-1582060D01*
X7173260Y-2591080D02*
X7213260Y-2631080D01*
X7213260Y-2591080D02*
X7173260Y-2631080D01*
X7180880Y-3939820D02*
X7220880Y-3979820D01*
X7220880Y-3939820D02*
X7180880Y-3979820D01*
X7826040Y-5288560D02*
X7866040Y-5328560D01*
X7866040Y-5288560D02*
X7826040Y-5328560D01*
X8661700Y-112040D02*
X8701700Y-152040D01*
X8701700Y-112040D02*
X8661700Y-152040D01*
D13*
X3295100Y-219000D02*
G75*
G03*
X3295100Y-219000I-38100J0D01*
G01*
X3295100Y-473000D02*
G75*
G03*
X3295100Y-473000I-38100J0D01*
G01*
X3295100Y-727000D02*
G75*
G03*
X3295100Y-727000I-38100J0D01*
G01*
X3295100Y-981000D02*
G75*
G03*
X3295100Y-981000I-38100J0D01*
G01*
X4314100Y-3438000D02*
G75*
G03*
X4314100Y-3438000I-38100J0D01*
G01*
X4568100Y-3438000D02*
G75*
G03*
X4568100Y-3438000I-38100J0D01*
G01*
X4822100Y-3438000D02*
G75*
G03*
X4822100Y-3438000I-38100J0D01*
G01*
X5076100Y-3438000D02*
G75*
G03*
X5076100Y-3438000I-38100J0D01*
G01*
X5330100Y-3438000D02*
G75*
G03*
X5330100Y-3438000I-38100J0D01*
G01*
X5584100Y-3438000D02*
G75*
G03*
X5584100Y-3438000I-38100J0D01*
G01*
X5838100Y-3438000D02*
G75*
G03*
X5838100Y-3438000I-38100J0D01*
G01*
D14*
X1150600Y-305400D02*
X1150600Y-385400D01*
X1110600Y-345400D02*
X1190600Y-345400D01*
X1150600Y-559400D02*
X1150600Y-639400D01*
X1110600Y-599400D02*
X1190600Y-599400D01*
X1150600Y-813400D02*
X1150600Y-893400D01*
X1110600Y-853400D02*
X1190600Y-853400D01*
X1150600Y-1067400D02*
X1150600Y-1147400D01*
X1110600Y-1107400D02*
X1190600Y-1107400D01*
X1150600Y-1321400D02*
X1150600Y-1401400D01*
X1110600Y-1361400D02*
X1190600Y-1361400D01*
X1150600Y-1575400D02*
X1150600Y-1655400D01*
X1110600Y-1615400D02*
X1190600Y-1615400D01*
X1150600Y-1829400D02*
X1150600Y-1909400D01*
X1110600Y-1869400D02*
X1190600Y-1869400D01*
X1150600Y-2083400D02*
X1150600Y-2163400D01*
X1110600Y-2123400D02*
X1190600Y-2123400D01*
X1150600Y-2337400D02*
X1150600Y-2417400D01*
X1110600Y-2377400D02*
X1190600Y-2377400D01*
X1150600Y-2591400D02*
X1150600Y-2671400D01*
X1110600Y-2631400D02*
X1190600Y-2631400D01*
X1150600Y-2845400D02*
X1150600Y-2925400D01*
X1110600Y-2885400D02*
X1190600Y-2885400D01*
X1150600Y-3099400D02*
X1150600Y-3179400D01*
X1110600Y-3139400D02*
X1190600Y-3139400D01*
X1150600Y-3353400D02*
X1150600Y-3433400D01*
X1110600Y-3393400D02*
X1190600Y-3393400D01*
X1150600Y-3607400D02*
X1150600Y-3687400D01*
X1110600Y-3647400D02*
X1190600Y-3647400D01*
X1150600Y-3861400D02*
X1150600Y-3941400D01*
X1110600Y-3901400D02*
X1190600Y-3901400D01*
X1150600Y-4115400D02*
X1150600Y-4195400D01*
X1110600Y-4155400D02*
X1190600Y-4155400D01*
X1150600Y-4369400D02*
X1150600Y-4449400D01*
X1110600Y-4409400D02*
X1190600Y-4409400D01*
X1150600Y-4623400D02*
X1150600Y-4703400D01*
X1110600Y-4663400D02*
X1190600Y-4663400D01*
X1150600Y-4877400D02*
X1150600Y-4957400D01*
X1110600Y-4917400D02*
X1190600Y-4917400D01*
X1150600Y-5131400D02*
X1150600Y-5211400D01*
X1110600Y-5171400D02*
X1190600Y-5171400D01*
X1700000Y-1260000D02*
X1700000Y-1340000D01*
X1660000Y-1300000D02*
X1740000Y-1300000D01*
X2200000Y-1260000D02*
X2200000Y-1340000D01*
X2160000Y-1300000D02*
X2240000Y-1300000D01*
X2674600Y-305400D02*
X2674600Y-385400D01*
X2634600Y-345400D02*
X2714600Y-345400D01*
X2674600Y-559400D02*
X2674600Y-639400D01*
X2634600Y-599400D02*
X2714600Y-599400D01*
X2674600Y-813400D02*
X2674600Y-893400D01*
X2634600Y-853400D02*
X2714600Y-853400D01*
X2674600Y-1067400D02*
X2674600Y-1147400D01*
X2634600Y-1107400D02*
X2714600Y-1107400D01*
X2674600Y-1321400D02*
X2674600Y-1401400D01*
X2634600Y-1361400D02*
X2714600Y-1361400D01*
X2674600Y-1575400D02*
X2674600Y-1655400D01*
X2634600Y-1615400D02*
X2714600Y-1615400D01*
X2674600Y-1829400D02*
X2674600Y-1909400D01*
X2634600Y-1869400D02*
X2714600Y-1869400D01*
X2674600Y-2083400D02*
X2674600Y-2163400D01*
X2634600Y-2123400D02*
X2714600Y-2123400D01*
X2674600Y-2337400D02*
X2674600Y-2417400D01*
X2634600Y-2377400D02*
X2714600Y-2377400D01*
X2674600Y-2591400D02*
X2674600Y-2671400D01*
X2634600Y-2631400D02*
X2714600Y-2631400D01*
X2674600Y-2845400D02*
X2674600Y-2925400D01*
X2634600Y-2885400D02*
X2714600Y-2885400D01*
X2674600Y-3099400D02*
X2674600Y-3179400D01*
X2634600Y-3139400D02*
X2714600Y-3139400D01*
X2674600Y-3353400D02*
X2674600Y-3433400D01*
X2634600Y-3393400D02*
X2714600Y-3393400D01*
X2674600Y-3607400D02*
X2674600Y-3687400D01*
X2634600Y-3647400D02*
X2714600Y-3647400D01*
X2674600Y-3861400D02*
X2674600Y-3941400D01*
X2634600Y-3901400D02*
X2714600Y-3901400D01*
X2674600Y-4115400D02*
X2674600Y-4195400D01*
X2634600Y-4155400D02*
X2714600Y-4155400D01*
X2674600Y-4369400D02*
X2674600Y-4449400D01*
X2634600Y-4409400D02*
X2714600Y-4409400D01*
X2674600Y-4623400D02*
X2674600Y-4703400D01*
X2634600Y-4663400D02*
X2714600Y-4663400D01*
X2674600Y-4877400D02*
X2674600Y-4957400D01*
X2634600Y-4917400D02*
X2714600Y-4917400D01*
X2674600Y-5131400D02*
X2674600Y-5211400D01*
X2634600Y-5171400D02*
X2714600Y-5171400D01*
D10*
X8410356Y-1385356D02*
X8410356Y-1314644D01*
X8339644Y-1314644D01*
X8339644Y-1385356D01*
X8410356Y-1385356D01*
X8410356Y-1635356D02*
X8410356Y-1564644D01*
X8339644Y-1564644D01*
X8339644Y-1635356D01*
X8410356Y-1635356D01*
X8410356Y-1885356D02*
X8410356Y-1814644D01*
X8339644Y-1814644D01*
X8339644Y-1885356D01*
X8410356Y-1885356D01*
X9860356Y-1385356D02*
X9860356Y-1314644D01*
X9789644Y-1314644D01*
X9789644Y-1385356D01*
X9860356Y-1385356D01*
X9860356Y-1885356D02*
X9860356Y-1814644D01*
X9789644Y-1814644D01*
X9789644Y-1885356D01*
X9860356Y-1885356D01*
D15*
X9125000Y-1115000D02*
X9200000Y-1040000D01*
X9125000Y-965000D01*
X9050000Y-1040000D01*
X9125000Y-1115000D01*
D11*
X9060000Y-1115000D02*
X9190000Y-1115000D01*
X9190000Y-1115000D02*
G75*
G03*
X9190000Y-965000I0J75000D01*
G01*
X9190000Y-965000D02*
X9060000Y-965000D01*
X9060000Y-965000D02*
G75*
G03*
X9060000Y-1115000I0J-75000D01*
G01*
D15*
X9125000Y-2235000D02*
X9200000Y-2160000D01*
X9125000Y-2085000D01*
X9050000Y-2160000D01*
X9125000Y-2235000D01*
D11*
X9060000Y-2235000D02*
X9190000Y-2235000D01*
X9190000Y-2235000D02*
G75*
G03*
X9190000Y-2085000I0J75000D01*
G01*
X9190000Y-2085000D02*
X9060000Y-2085000D01*
X9060000Y-2085000D02*
G75*
G03*
X9060000Y-2235000I0J-75000D01*
G01*
X3604500Y-3274500D02*
X3804500Y-3474500D01*
X3804500Y-3274500D02*
X3604500Y-3474500D01*
X3804500Y-3374500D02*
G75*
G03*
X3804500Y-3374500I-100000J0D01*
G01*
X6271500Y-3274500D02*
X6471500Y-3474500D01*
X6471500Y-3274500D02*
X6271500Y-3474500D01*
X6471500Y-3374500D02*
G75*
G03*
X6471500Y-3374500I-100000J0D01*
G01*
D16*
X240000Y-240000D02*
X560000Y-560000D01*
X560000Y-240000D02*
X240000Y-560000D01*
X400000Y-240000D02*
X400000Y-560000D01*
X240000Y-400000D02*
X560000Y-400000D01*
X240000Y-4940000D02*
X560000Y-5260000D01*
X560000Y-4940000D02*
X240000Y-5260000D01*
X400000Y-4940000D02*
X400000Y-5260000D01*
X240000Y-5100000D02*
X560000Y-5100000D01*
X4840000Y-2540000D02*
X5160000Y-2860000D01*
X5160000Y-2540000D02*
X4840000Y-2860000D01*
X5000000Y-2540000D02*
X5000000Y-2860000D01*
X4840000Y-2700000D02*
X5160000Y-2700000D01*
X9440000Y-240000D02*
X9760000Y-560000D01*
X9760000Y-240000D02*
X9440000Y-560000D01*
X9600000Y-240000D02*
X9600000Y-560000D01*
X9440000Y-400000D02*
X9760000Y-400000D01*
X9440000Y-4940000D02*
X9760000Y-5260000D01*
X9760000Y-4940000D02*
X9440000Y-5260000D01*
X9600000Y-4940000D02*
X9600000Y-5260000D01*
X9440000Y-5100000D02*
X9760000Y-5100000D01*
D11*
X255777Y-5816484D02*
X255777Y-5616484D01*
X255777Y-5616484D02*
X303396Y-5616484D01*
X303396Y-5616484D02*
X331967Y-5626008D01*
X331967Y-5626008D02*
X351015Y-5645055D01*
X351015Y-5645055D02*
X360539Y-5664103D01*
X360539Y-5664103D02*
X370062Y-5702198D01*
X370062Y-5702198D02*
X370062Y-5730769D01*
X370062Y-5730769D02*
X360539Y-5768865D01*
X360539Y-5768865D02*
X351015Y-5787912D01*
X351015Y-5787912D02*
X331967Y-5806960D01*
X331967Y-5806960D02*
X303396Y-5816484D01*
X303396Y-5816484D02*
X255777Y-5816484D01*
X455777Y-5816484D02*
X455777Y-5683150D01*
X455777Y-5721246D02*
X465301Y-5702198D01*
X465301Y-5702198D02*
X474824Y-5692674D01*
X474824Y-5692674D02*
X493872Y-5683150D01*
X493872Y-5683150D02*
X512920Y-5683150D01*
X579586Y-5816484D02*
X579586Y-5683150D01*
X579586Y-5616484D02*
X570063Y-5626008D01*
X570063Y-5626008D02*
X579586Y-5635531D01*
X579586Y-5635531D02*
X589110Y-5626008D01*
X589110Y-5626008D02*
X579586Y-5616484D01*
X579586Y-5616484D02*
X579586Y-5635531D01*
X703396Y-5816484D02*
X684348Y-5806960D01*
X684348Y-5806960D02*
X674824Y-5787912D01*
X674824Y-5787912D02*
X674824Y-5616484D01*
X808158Y-5816484D02*
X789110Y-5806960D01*
X789110Y-5806960D02*
X779586Y-5787912D01*
X779586Y-5787912D02*
X779586Y-5616484D01*
X1036729Y-5816484D02*
X1036729Y-5616484D01*
X1036729Y-5616484D02*
X1103396Y-5759341D01*
X1103396Y-5759341D02*
X1170063Y-5616484D01*
X1170063Y-5616484D02*
X1170063Y-5816484D01*
X1351015Y-5816484D02*
X1351015Y-5711722D01*
X1351015Y-5711722D02*
X1341491Y-5692674D01*
X1341491Y-5692674D02*
X1322444Y-5683150D01*
X1322444Y-5683150D02*
X1284348Y-5683150D01*
X1284348Y-5683150D02*
X1265301Y-5692674D01*
X1351015Y-5806960D02*
X1331967Y-5816484D01*
X1331967Y-5816484D02*
X1284348Y-5816484D01*
X1284348Y-5816484D02*
X1265301Y-5806960D01*
X1265301Y-5806960D02*
X1255777Y-5787912D01*
X1255777Y-5787912D02*
X1255777Y-5768865D01*
X1255777Y-5768865D02*
X1265301Y-5749817D01*
X1265301Y-5749817D02*
X1284348Y-5740293D01*
X1284348Y-5740293D02*
X1331967Y-5740293D01*
X1331967Y-5740293D02*
X1351015Y-5730769D01*
X1446253Y-5683150D02*
X1446253Y-5883150D01*
X1446253Y-5692674D02*
X1465301Y-5683150D01*
X1465301Y-5683150D02*
X1503396Y-5683150D01*
X1503396Y-5683150D02*
X1522443Y-5692674D01*
X1522443Y-5692674D02*
X1531967Y-5702198D01*
X1531967Y-5702198D02*
X1541491Y-5721246D01*
X1541491Y-5721246D02*
X1541491Y-5778388D01*
X1541491Y-5778388D02*
X1531967Y-5797436D01*
X1531967Y-5797436D02*
X1522443Y-5806960D01*
X1522443Y-5806960D02*
X1503396Y-5816484D01*
X1503396Y-5816484D02*
X1465301Y-5816484D01*
X1465301Y-5816484D02*
X1446253Y-5806960D01*
X1627205Y-5797436D02*
X1636729Y-5806960D01*
X1636729Y-5806960D02*
X1627205Y-5816484D01*
X1627205Y-5816484D02*
X1617682Y-5806960D01*
X1617682Y-5806960D02*
X1627205Y-5797436D01*
X1627205Y-5797436D02*
X1627205Y-5816484D01*
X1627205Y-5692674D02*
X1636729Y-5702198D01*
X1636729Y-5702198D02*
X1627205Y-5711722D01*
X1627205Y-5711722D02*
X1617682Y-5702198D01*
X1617682Y-5702198D02*
X1627205Y-5692674D01*
X1627205Y-5692674D02*
X1627205Y-5711722D01*
D12*
X-45000Y-6125000D02*
X-5000Y-6165000D01*
X-5000Y-6125000D02*
X-45000Y-6165000D01*
D11*
X293872Y-6036484D02*
X312920Y-6036484D01*
X312920Y-6036484D02*
X331967Y-6046008D01*
X331967Y-6046008D02*
X341491Y-6055531D01*
X341491Y-6055531D02*
X351015Y-6074579D01*
X351015Y-6074579D02*
X360539Y-6112674D01*
X360539Y-6112674D02*
X360539Y-6160293D01*
X360539Y-6160293D02*
X351015Y-6198388D01*
X351015Y-6198388D02*
X341491Y-6217436D01*
X341491Y-6217436D02*
X331967Y-6226960D01*
X331967Y-6226960D02*
X312920Y-6236484D01*
X312920Y-6236484D02*
X293872Y-6236484D01*
X293872Y-6236484D02*
X274824Y-6226960D01*
X274824Y-6226960D02*
X265301Y-6217436D01*
X265301Y-6217436D02*
X255777Y-6198388D01*
X255777Y-6198388D02*
X246253Y-6160293D01*
X246253Y-6160293D02*
X246253Y-6112674D01*
X246253Y-6112674D02*
X255777Y-6074579D01*
X255777Y-6074579D02*
X265301Y-6055531D01*
X265301Y-6055531D02*
X274824Y-6046008D01*
X274824Y-6046008D02*
X293872Y-6036484D01*
X446253Y-6217436D02*
X455777Y-6226960D01*
X455777Y-6226960D02*
X446253Y-6236484D01*
X446253Y-6236484D02*
X436729Y-6226960D01*
X436729Y-6226960D02*
X446253Y-6217436D01*
X446253Y-6217436D02*
X446253Y-6236484D01*
X627205Y-6103150D02*
X627205Y-6236484D01*
X579586Y-6026960D02*
X531967Y-6169817D01*
X531967Y-6169817D02*
X655777Y-6169817D01*
X770062Y-6036484D02*
X789110Y-6036484D01*
X789110Y-6036484D02*
X808158Y-6046008D01*
X808158Y-6046008D02*
X817682Y-6055531D01*
X817682Y-6055531D02*
X827205Y-6074579D01*
X827205Y-6074579D02*
X836729Y-6112674D01*
X836729Y-6112674D02*
X836729Y-6160293D01*
X836729Y-6160293D02*
X827205Y-6198388D01*
X827205Y-6198388D02*
X817682Y-6217436D01*
X817682Y-6217436D02*
X808158Y-6226960D01*
X808158Y-6226960D02*
X789110Y-6236484D01*
X789110Y-6236484D02*
X770062Y-6236484D01*
X770062Y-6236484D02*
X751015Y-6226960D01*
X751015Y-6226960D02*
X741491Y-6217436D01*
X741491Y-6217436D02*
X731967Y-6198388D01*
X731967Y-6198388D02*
X722443Y-6160293D01*
X722443Y-6160293D02*
X722443Y-6112674D01*
X722443Y-6112674D02*
X731967Y-6074579D01*
X731967Y-6074579D02*
X741491Y-6055531D01*
X741491Y-6055531D02*
X751015Y-6046008D01*
X751015Y-6046008D02*
X770062Y-6036484D01*
X960539Y-6036484D02*
X979586Y-6036484D01*
X979586Y-6036484D02*
X998634Y-6046008D01*
X998634Y-6046008D02*
X1008158Y-6055531D01*
X1008158Y-6055531D02*
X1017682Y-6074579D01*
X1017682Y-6074579D02*
X1027205Y-6112674D01*
X1027205Y-6112674D02*
X1027205Y-6160293D01*
X1027205Y-6160293D02*
X1017682Y-6198388D01*
X1017682Y-6198388D02*
X1008158Y-6217436D01*
X1008158Y-6217436D02*
X998634Y-6226960D01*
X998634Y-6226960D02*
X979586Y-6236484D01*
X979586Y-6236484D02*
X960539Y-6236484D01*
X960539Y-6236484D02*
X941491Y-6226960D01*
X941491Y-6226960D02*
X931967Y-6217436D01*
X931967Y-6217436D02*
X922443Y-6198388D01*
X922443Y-6198388D02*
X912920Y-6160293D01*
X912920Y-6160293D02*
X912920Y-6112674D01*
X912920Y-6112674D02*
X922443Y-6074579D01*
X922443Y-6074579D02*
X931967Y-6055531D01*
X931967Y-6055531D02*
X941491Y-6046008D01*
X941491Y-6046008D02*
X960539Y-6036484D01*
X1112920Y-6236484D02*
X1112920Y-6103150D01*
X1112920Y-6122198D02*
X1122444Y-6112674D01*
X1122444Y-6112674D02*
X1141491Y-6103150D01*
X1141491Y-6103150D02*
X1170063Y-6103150D01*
X1170063Y-6103150D02*
X1189110Y-6112674D01*
X1189110Y-6112674D02*
X1198634Y-6131722D01*
X1198634Y-6131722D02*
X1198634Y-6236484D01*
X1198634Y-6131722D02*
X1208158Y-6112674D01*
X1208158Y-6112674D02*
X1227205Y-6103150D01*
X1227205Y-6103150D02*
X1255777Y-6103150D01*
X1255777Y-6103150D02*
X1274825Y-6112674D01*
X1274825Y-6112674D02*
X1284348Y-6131722D01*
X1284348Y-6131722D02*
X1284348Y-6236484D01*
X1379586Y-6236484D02*
X1379586Y-6103150D01*
X1379586Y-6122198D02*
X1389110Y-6112674D01*
X1389110Y-6112674D02*
X1408158Y-6103150D01*
X1408158Y-6103150D02*
X1436729Y-6103150D01*
X1436729Y-6103150D02*
X1455777Y-6112674D01*
X1455777Y-6112674D02*
X1465301Y-6131722D01*
X1465301Y-6131722D02*
X1465301Y-6236484D01*
X1465301Y-6131722D02*
X1474824Y-6112674D01*
X1474824Y-6112674D02*
X1493872Y-6103150D01*
X1493872Y-6103150D02*
X1522443Y-6103150D01*
X1522443Y-6103150D02*
X1541491Y-6112674D01*
X1541491Y-6112674D02*
X1551015Y-6131722D01*
X1551015Y-6131722D02*
X1551015Y-6236484D01*
X1941491Y-6026960D02*
X1770063Y-6284103D01*
X2198634Y-6036484D02*
X2217682Y-6036484D01*
X2217682Y-6036484D02*
X2236729Y-6046008D01*
X2236729Y-6046008D02*
X2246253Y-6055531D01*
X2246253Y-6055531D02*
X2255777Y-6074579D01*
X2255777Y-6074579D02*
X2265301Y-6112674D01*
X2265301Y-6112674D02*
X2265301Y-6160293D01*
X2265301Y-6160293D02*
X2255777Y-6198388D01*
X2255777Y-6198388D02*
X2246253Y-6217436D01*
X2246253Y-6217436D02*
X2236729Y-6226960D01*
X2236729Y-6226960D02*
X2217682Y-6236484D01*
X2217682Y-6236484D02*
X2198634Y-6236484D01*
X2198634Y-6236484D02*
X2179587Y-6226960D01*
X2179587Y-6226960D02*
X2170063Y-6217436D01*
X2170063Y-6217436D02*
X2160539Y-6198388D01*
X2160539Y-6198388D02*
X2151015Y-6160293D01*
X2151015Y-6160293D02*
X2151015Y-6112674D01*
X2151015Y-6112674D02*
X2160539Y-6074579D01*
X2160539Y-6074579D02*
X2170063Y-6055531D01*
X2170063Y-6055531D02*
X2179587Y-6046008D01*
X2179587Y-6046008D02*
X2198634Y-6036484D01*
X2351015Y-6217436D02*
X2360539Y-6226960D01*
X2360539Y-6226960D02*
X2351015Y-6236484D01*
X2351015Y-6236484D02*
X2341491Y-6226960D01*
X2341491Y-6226960D02*
X2351015Y-6217436D01*
X2351015Y-6217436D02*
X2351015Y-6236484D01*
X2484348Y-6036484D02*
X2503396Y-6036484D01*
X2503396Y-6036484D02*
X2522444Y-6046008D01*
X2522444Y-6046008D02*
X2531968Y-6055531D01*
X2531968Y-6055531D02*
X2541491Y-6074579D01*
X2541491Y-6074579D02*
X2551015Y-6112674D01*
X2551015Y-6112674D02*
X2551015Y-6160293D01*
X2551015Y-6160293D02*
X2541491Y-6198388D01*
X2541491Y-6198388D02*
X2531968Y-6217436D01*
X2531968Y-6217436D02*
X2522444Y-6226960D01*
X2522444Y-6226960D02*
X2503396Y-6236484D01*
X2503396Y-6236484D02*
X2484348Y-6236484D01*
X2484348Y-6236484D02*
X2465301Y-6226960D01*
X2465301Y-6226960D02*
X2455777Y-6217436D01*
X2455777Y-6217436D02*
X2446253Y-6198388D01*
X2446253Y-6198388D02*
X2436729Y-6160293D01*
X2436729Y-6160293D02*
X2436729Y-6112674D01*
X2436729Y-6112674D02*
X2446253Y-6074579D01*
X2446253Y-6074579D02*
X2455777Y-6055531D01*
X2455777Y-6055531D02*
X2465301Y-6046008D01*
X2465301Y-6046008D02*
X2484348Y-6036484D01*
X2741491Y-6236484D02*
X2627206Y-6236484D01*
X2684348Y-6236484D02*
X2684348Y-6036484D01*
X2684348Y-6036484D02*
X2665301Y-6065055D01*
X2665301Y-6065055D02*
X2646253Y-6084103D01*
X2646253Y-6084103D02*
X2627206Y-6093627D01*
X2922444Y-6036484D02*
X2827206Y-6036484D01*
X2827206Y-6036484D02*
X2817682Y-6131722D01*
X2817682Y-6131722D02*
X2827206Y-6122198D01*
X2827206Y-6122198D02*
X2846253Y-6112674D01*
X2846253Y-6112674D02*
X2893872Y-6112674D01*
X2893872Y-6112674D02*
X2912920Y-6122198D01*
X2912920Y-6122198D02*
X2922444Y-6131722D01*
X2922444Y-6131722D02*
X2931967Y-6150769D01*
X2931967Y-6150769D02*
X2931967Y-6198388D01*
X2931967Y-6198388D02*
X2922444Y-6217436D01*
X2922444Y-6217436D02*
X2912920Y-6226960D01*
X2912920Y-6226960D02*
X2893872Y-6236484D01*
X2893872Y-6236484D02*
X2846253Y-6236484D01*
X2846253Y-6236484D02*
X2827206Y-6226960D01*
X2827206Y-6226960D02*
X2817682Y-6217436D01*
X2998634Y-6036484D02*
X3131967Y-6036484D01*
X3131967Y-6036484D02*
X3046253Y-6236484D01*
X3198634Y-6036484D02*
X3198634Y-6074579D01*
X3274825Y-6036484D02*
X3274825Y-6074579D01*
X3570063Y-6312674D02*
X3560539Y-6303150D01*
X3560539Y-6303150D02*
X3541491Y-6274579D01*
X3541491Y-6274579D02*
X3531968Y-6255531D01*
X3531968Y-6255531D02*
X3522444Y-6226960D01*
X3522444Y-6226960D02*
X3512920Y-6179341D01*
X3512920Y-6179341D02*
X3512920Y-6141246D01*
X3512920Y-6141246D02*
X3522444Y-6093627D01*
X3522444Y-6093627D02*
X3531968Y-6065055D01*
X3531968Y-6065055D02*
X3541491Y-6046008D01*
X3541491Y-6046008D02*
X3560539Y-6017436D01*
X3560539Y-6017436D02*
X3570063Y-6007912D01*
X3627206Y-6036484D02*
X3751015Y-6036484D01*
X3751015Y-6036484D02*
X3684348Y-6112674D01*
X3684348Y-6112674D02*
X3712920Y-6112674D01*
X3712920Y-6112674D02*
X3731968Y-6122198D01*
X3731968Y-6122198D02*
X3741491Y-6131722D01*
X3741491Y-6131722D02*
X3751015Y-6150769D01*
X3751015Y-6150769D02*
X3751015Y-6198388D01*
X3751015Y-6198388D02*
X3741491Y-6217436D01*
X3741491Y-6217436D02*
X3731968Y-6226960D01*
X3731968Y-6226960D02*
X3712920Y-6236484D01*
X3712920Y-6236484D02*
X3655777Y-6236484D01*
X3655777Y-6236484D02*
X3636729Y-6226960D01*
X3636729Y-6226960D02*
X3627206Y-6217436D01*
X3827206Y-6055531D02*
X3836729Y-6046008D01*
X3836729Y-6046008D02*
X3855777Y-6036484D01*
X3855777Y-6036484D02*
X3903396Y-6036484D01*
X3903396Y-6036484D02*
X3922444Y-6046008D01*
X3922444Y-6046008D02*
X3931968Y-6055531D01*
X3931968Y-6055531D02*
X3941491Y-6074579D01*
X3941491Y-6074579D02*
X3941491Y-6093627D01*
X3941491Y-6093627D02*
X3931968Y-6122198D01*
X3931968Y-6122198D02*
X3817682Y-6236484D01*
X3817682Y-6236484D02*
X3941491Y-6236484D01*
X4179587Y-6236484D02*
X4179587Y-6036484D01*
X4265301Y-6236484D02*
X4265301Y-6131722D01*
X4265301Y-6131722D02*
X4255777Y-6112674D01*
X4255777Y-6112674D02*
X4236730Y-6103150D01*
X4236730Y-6103150D02*
X4208158Y-6103150D01*
X4208158Y-6103150D02*
X4189110Y-6112674D01*
X4189110Y-6112674D02*
X4179587Y-6122198D01*
X4389111Y-6236484D02*
X4370063Y-6226960D01*
X4370063Y-6226960D02*
X4360539Y-6217436D01*
X4360539Y-6217436D02*
X4351015Y-6198388D01*
X4351015Y-6198388D02*
X4351015Y-6141246D01*
X4351015Y-6141246D02*
X4360539Y-6122198D01*
X4360539Y-6122198D02*
X4370063Y-6112674D01*
X4370063Y-6112674D02*
X4389111Y-6103150D01*
X4389111Y-6103150D02*
X4417682Y-6103150D01*
X4417682Y-6103150D02*
X4436730Y-6112674D01*
X4436730Y-6112674D02*
X4446253Y-6122198D01*
X4446253Y-6122198D02*
X4455777Y-6141246D01*
X4455777Y-6141246D02*
X4455777Y-6198388D01*
X4455777Y-6198388D02*
X4446253Y-6217436D01*
X4446253Y-6217436D02*
X4436730Y-6226960D01*
X4436730Y-6226960D02*
X4417682Y-6236484D01*
X4417682Y-6236484D02*
X4389111Y-6236484D01*
X4570063Y-6236484D02*
X4551015Y-6226960D01*
X4551015Y-6226960D02*
X4541492Y-6207912D01*
X4541492Y-6207912D02*
X4541492Y-6036484D01*
X4722444Y-6226960D02*
X4703396Y-6236484D01*
X4703396Y-6236484D02*
X4665301Y-6236484D01*
X4665301Y-6236484D02*
X4646253Y-6226960D01*
X4646253Y-6226960D02*
X4636730Y-6207912D01*
X4636730Y-6207912D02*
X4636730Y-6131722D01*
X4636730Y-6131722D02*
X4646253Y-6112674D01*
X4646253Y-6112674D02*
X4665301Y-6103150D01*
X4665301Y-6103150D02*
X4703396Y-6103150D01*
X4703396Y-6103150D02*
X4722444Y-6112674D01*
X4722444Y-6112674D02*
X4731968Y-6131722D01*
X4731968Y-6131722D02*
X4731968Y-6150769D01*
X4731968Y-6150769D02*
X4636730Y-6169817D01*
X4808158Y-6226960D02*
X4827206Y-6236484D01*
X4827206Y-6236484D02*
X4865301Y-6236484D01*
X4865301Y-6236484D02*
X4884349Y-6226960D01*
X4884349Y-6226960D02*
X4893873Y-6207912D01*
X4893873Y-6207912D02*
X4893873Y-6198388D01*
X4893873Y-6198388D02*
X4884349Y-6179341D01*
X4884349Y-6179341D02*
X4865301Y-6169817D01*
X4865301Y-6169817D02*
X4836730Y-6169817D01*
X4836730Y-6169817D02*
X4817682Y-6160293D01*
X4817682Y-6160293D02*
X4808158Y-6141246D01*
X4808158Y-6141246D02*
X4808158Y-6131722D01*
X4808158Y-6131722D02*
X4817682Y-6112674D01*
X4817682Y-6112674D02*
X4836730Y-6103150D01*
X4836730Y-6103150D02*
X4865301Y-6103150D01*
X4865301Y-6103150D02*
X4884349Y-6112674D01*
X4960539Y-6312674D02*
X4970063Y-6303150D01*
X4970063Y-6303150D02*
X4989111Y-6274579D01*
X4989111Y-6274579D02*
X4998634Y-6255531D01*
X4998634Y-6255531D02*
X5008158Y-6226960D01*
X5008158Y-6226960D02*
X5017682Y-6179341D01*
X5017682Y-6179341D02*
X5017682Y-6141246D01*
X5017682Y-6141246D02*
X5008158Y-6093627D01*
X5008158Y-6093627D02*
X4998634Y-6065055D01*
X4998634Y-6065055D02*
X4989111Y-6046008D01*
X4989111Y-6046008D02*
X4970063Y-6017436D01*
X4970063Y-6017436D02*
X4960539Y-6007912D01*
D13*
X-5000Y-6409000D02*
G75*
G03*
X-5000Y-6409000I-38100J0D01*
G01*
D11*
X293872Y-6300484D02*
X312920Y-6300484D01*
X312920Y-6300484D02*
X331967Y-6310008D01*
X331967Y-6310008D02*
X341491Y-6319531D01*
X341491Y-6319531D02*
X351015Y-6338579D01*
X351015Y-6338579D02*
X360539Y-6376674D01*
X360539Y-6376674D02*
X360539Y-6424293D01*
X360539Y-6424293D02*
X351015Y-6462388D01*
X351015Y-6462388D02*
X341491Y-6481436D01*
X341491Y-6481436D02*
X331967Y-6490960D01*
X331967Y-6490960D02*
X312920Y-6500484D01*
X312920Y-6500484D02*
X293872Y-6500484D01*
X293872Y-6500484D02*
X274824Y-6490960D01*
X274824Y-6490960D02*
X265301Y-6481436D01*
X265301Y-6481436D02*
X255777Y-6462388D01*
X255777Y-6462388D02*
X246253Y-6424293D01*
X246253Y-6424293D02*
X246253Y-6376674D01*
X246253Y-6376674D02*
X255777Y-6338579D01*
X255777Y-6338579D02*
X265301Y-6319531D01*
X265301Y-6319531D02*
X274824Y-6310008D01*
X274824Y-6310008D02*
X293872Y-6300484D01*
X446253Y-6481436D02*
X455777Y-6490960D01*
X455777Y-6490960D02*
X446253Y-6500484D01*
X446253Y-6500484D02*
X436729Y-6490960D01*
X436729Y-6490960D02*
X446253Y-6481436D01*
X446253Y-6481436D02*
X446253Y-6500484D01*
X522443Y-6300484D02*
X655777Y-6300484D01*
X655777Y-6300484D02*
X570063Y-6500484D01*
X817682Y-6300484D02*
X779586Y-6300484D01*
X779586Y-6300484D02*
X760539Y-6310008D01*
X760539Y-6310008D02*
X751015Y-6319531D01*
X751015Y-6319531D02*
X731967Y-6348103D01*
X731967Y-6348103D02*
X722443Y-6386198D01*
X722443Y-6386198D02*
X722443Y-6462388D01*
X722443Y-6462388D02*
X731967Y-6481436D01*
X731967Y-6481436D02*
X741491Y-6490960D01*
X741491Y-6490960D02*
X760539Y-6500484D01*
X760539Y-6500484D02*
X798634Y-6500484D01*
X798634Y-6500484D02*
X817682Y-6490960D01*
X817682Y-6490960D02*
X827205Y-6481436D01*
X827205Y-6481436D02*
X836729Y-6462388D01*
X836729Y-6462388D02*
X836729Y-6414769D01*
X836729Y-6414769D02*
X827205Y-6395722D01*
X827205Y-6395722D02*
X817682Y-6386198D01*
X817682Y-6386198D02*
X798634Y-6376674D01*
X798634Y-6376674D02*
X760539Y-6376674D01*
X760539Y-6376674D02*
X741491Y-6386198D01*
X741491Y-6386198D02*
X731967Y-6395722D01*
X731967Y-6395722D02*
X722443Y-6414769D01*
X912920Y-6319531D02*
X922443Y-6310008D01*
X922443Y-6310008D02*
X941491Y-6300484D01*
X941491Y-6300484D02*
X989110Y-6300484D01*
X989110Y-6300484D02*
X1008158Y-6310008D01*
X1008158Y-6310008D02*
X1017682Y-6319531D01*
X1017682Y-6319531D02*
X1027205Y-6338579D01*
X1027205Y-6338579D02*
X1027205Y-6357627D01*
X1027205Y-6357627D02*
X1017682Y-6386198D01*
X1017682Y-6386198D02*
X903396Y-6500484D01*
X903396Y-6500484D02*
X1027205Y-6500484D01*
X1112920Y-6500484D02*
X1112920Y-6367150D01*
X1112920Y-6386198D02*
X1122444Y-6376674D01*
X1122444Y-6376674D02*
X1141491Y-6367150D01*
X1141491Y-6367150D02*
X1170063Y-6367150D01*
X1170063Y-6367150D02*
X1189110Y-6376674D01*
X1189110Y-6376674D02*
X1198634Y-6395722D01*
X1198634Y-6395722D02*
X1198634Y-6500484D01*
X1198634Y-6395722D02*
X1208158Y-6376674D01*
X1208158Y-6376674D02*
X1227205Y-6367150D01*
X1227205Y-6367150D02*
X1255777Y-6367150D01*
X1255777Y-6367150D02*
X1274825Y-6376674D01*
X1274825Y-6376674D02*
X1284348Y-6395722D01*
X1284348Y-6395722D02*
X1284348Y-6500484D01*
X1379586Y-6500484D02*
X1379586Y-6367150D01*
X1379586Y-6386198D02*
X1389110Y-6376674D01*
X1389110Y-6376674D02*
X1408158Y-6367150D01*
X1408158Y-6367150D02*
X1436729Y-6367150D01*
X1436729Y-6367150D02*
X1455777Y-6376674D01*
X1455777Y-6376674D02*
X1465301Y-6395722D01*
X1465301Y-6395722D02*
X1465301Y-6500484D01*
X1465301Y-6395722D02*
X1474824Y-6376674D01*
X1474824Y-6376674D02*
X1493872Y-6367150D01*
X1493872Y-6367150D02*
X1522443Y-6367150D01*
X1522443Y-6367150D02*
X1541491Y-6376674D01*
X1541491Y-6376674D02*
X1551015Y-6395722D01*
X1551015Y-6395722D02*
X1551015Y-6500484D01*
X1941491Y-6290960D02*
X1770063Y-6548103D01*
X2198634Y-6300484D02*
X2217682Y-6300484D01*
X2217682Y-6300484D02*
X2236729Y-6310008D01*
X2236729Y-6310008D02*
X2246253Y-6319531D01*
X2246253Y-6319531D02*
X2255777Y-6338579D01*
X2255777Y-6338579D02*
X2265301Y-6376674D01*
X2265301Y-6376674D02*
X2265301Y-6424293D01*
X2265301Y-6424293D02*
X2255777Y-6462388D01*
X2255777Y-6462388D02*
X2246253Y-6481436D01*
X2246253Y-6481436D02*
X2236729Y-6490960D01*
X2236729Y-6490960D02*
X2217682Y-6500484D01*
X2217682Y-6500484D02*
X2198634Y-6500484D01*
X2198634Y-6500484D02*
X2179587Y-6490960D01*
X2179587Y-6490960D02*
X2170063Y-6481436D01*
X2170063Y-6481436D02*
X2160539Y-6462388D01*
X2160539Y-6462388D02*
X2151015Y-6424293D01*
X2151015Y-6424293D02*
X2151015Y-6376674D01*
X2151015Y-6376674D02*
X2160539Y-6338579D01*
X2160539Y-6338579D02*
X2170063Y-6319531D01*
X2170063Y-6319531D02*
X2179587Y-6310008D01*
X2179587Y-6310008D02*
X2198634Y-6300484D01*
X2351015Y-6481436D02*
X2360539Y-6490960D01*
X2360539Y-6490960D02*
X2351015Y-6500484D01*
X2351015Y-6500484D02*
X2341491Y-6490960D01*
X2341491Y-6490960D02*
X2351015Y-6481436D01*
X2351015Y-6481436D02*
X2351015Y-6500484D01*
X2484348Y-6300484D02*
X2503396Y-6300484D01*
X2503396Y-6300484D02*
X2522444Y-6310008D01*
X2522444Y-6310008D02*
X2531968Y-6319531D01*
X2531968Y-6319531D02*
X2541491Y-6338579D01*
X2541491Y-6338579D02*
X2551015Y-6376674D01*
X2551015Y-6376674D02*
X2551015Y-6424293D01*
X2551015Y-6424293D02*
X2541491Y-6462388D01*
X2541491Y-6462388D02*
X2531968Y-6481436D01*
X2531968Y-6481436D02*
X2522444Y-6490960D01*
X2522444Y-6490960D02*
X2503396Y-6500484D01*
X2503396Y-6500484D02*
X2484348Y-6500484D01*
X2484348Y-6500484D02*
X2465301Y-6490960D01*
X2465301Y-6490960D02*
X2455777Y-6481436D01*
X2455777Y-6481436D02*
X2446253Y-6462388D01*
X2446253Y-6462388D02*
X2436729Y-6424293D01*
X2436729Y-6424293D02*
X2436729Y-6376674D01*
X2436729Y-6376674D02*
X2446253Y-6338579D01*
X2446253Y-6338579D02*
X2455777Y-6319531D01*
X2455777Y-6319531D02*
X2465301Y-6310008D01*
X2465301Y-6310008D02*
X2484348Y-6300484D01*
X2617682Y-6300484D02*
X2741491Y-6300484D01*
X2741491Y-6300484D02*
X2674825Y-6376674D01*
X2674825Y-6376674D02*
X2703396Y-6376674D01*
X2703396Y-6376674D02*
X2722444Y-6386198D01*
X2722444Y-6386198D02*
X2731968Y-6395722D01*
X2731968Y-6395722D02*
X2741491Y-6414769D01*
X2741491Y-6414769D02*
X2741491Y-6462388D01*
X2741491Y-6462388D02*
X2731968Y-6481436D01*
X2731968Y-6481436D02*
X2722444Y-6490960D01*
X2722444Y-6490960D02*
X2703396Y-6500484D01*
X2703396Y-6500484D02*
X2646253Y-6500484D01*
X2646253Y-6500484D02*
X2627206Y-6490960D01*
X2627206Y-6490960D02*
X2617682Y-6481436D01*
X2865301Y-6300484D02*
X2884348Y-6300484D01*
X2884348Y-6300484D02*
X2903396Y-6310008D01*
X2903396Y-6310008D02*
X2912920Y-6319531D01*
X2912920Y-6319531D02*
X2922444Y-6338579D01*
X2922444Y-6338579D02*
X2931967Y-6376674D01*
X2931967Y-6376674D02*
X2931967Y-6424293D01*
X2931967Y-6424293D02*
X2922444Y-6462388D01*
X2922444Y-6462388D02*
X2912920Y-6481436D01*
X2912920Y-6481436D02*
X2903396Y-6490960D01*
X2903396Y-6490960D02*
X2884348Y-6500484D01*
X2884348Y-6500484D02*
X2865301Y-6500484D01*
X2865301Y-6500484D02*
X2846253Y-6490960D01*
X2846253Y-6490960D02*
X2836729Y-6481436D01*
X2836729Y-6481436D02*
X2827206Y-6462388D01*
X2827206Y-6462388D02*
X2817682Y-6424293D01*
X2817682Y-6424293D02*
X2817682Y-6376674D01*
X2817682Y-6376674D02*
X2827206Y-6338579D01*
X2827206Y-6338579D02*
X2836729Y-6319531D01*
X2836729Y-6319531D02*
X2846253Y-6310008D01*
X2846253Y-6310008D02*
X2865301Y-6300484D01*
X3055777Y-6300484D02*
X3074825Y-6300484D01*
X3074825Y-6300484D02*
X3093872Y-6310008D01*
X3093872Y-6310008D02*
X3103396Y-6319531D01*
X3103396Y-6319531D02*
X3112920Y-6338579D01*
X3112920Y-6338579D02*
X3122444Y-6376674D01*
X3122444Y-6376674D02*
X3122444Y-6424293D01*
X3122444Y-6424293D02*
X3112920Y-6462388D01*
X3112920Y-6462388D02*
X3103396Y-6481436D01*
X3103396Y-6481436D02*
X3093872Y-6490960D01*
X3093872Y-6490960D02*
X3074825Y-6500484D01*
X3074825Y-6500484D02*
X3055777Y-6500484D01*
X3055777Y-6500484D02*
X3036729Y-6490960D01*
X3036729Y-6490960D02*
X3027206Y-6481436D01*
X3027206Y-6481436D02*
X3017682Y-6462388D01*
X3017682Y-6462388D02*
X3008158Y-6424293D01*
X3008158Y-6424293D02*
X3008158Y-6376674D01*
X3008158Y-6376674D02*
X3017682Y-6338579D01*
X3017682Y-6338579D02*
X3027206Y-6319531D01*
X3027206Y-6319531D02*
X3036729Y-6310008D01*
X3036729Y-6310008D02*
X3055777Y-6300484D01*
X3198634Y-6300484D02*
X3198634Y-6338579D01*
X3274825Y-6300484D02*
X3274825Y-6338579D01*
X3570063Y-6576674D02*
X3560539Y-6567150D01*
X3560539Y-6567150D02*
X3541491Y-6538579D01*
X3541491Y-6538579D02*
X3531968Y-6519531D01*
X3531968Y-6519531D02*
X3522444Y-6490960D01*
X3522444Y-6490960D02*
X3512920Y-6443341D01*
X3512920Y-6443341D02*
X3512920Y-6405246D01*
X3512920Y-6405246D02*
X3522444Y-6357627D01*
X3522444Y-6357627D02*
X3531968Y-6329055D01*
X3531968Y-6329055D02*
X3541491Y-6310008D01*
X3541491Y-6310008D02*
X3560539Y-6281436D01*
X3560539Y-6281436D02*
X3570063Y-6271912D01*
X3751015Y-6500484D02*
X3636729Y-6500484D01*
X3693872Y-6500484D02*
X3693872Y-6300484D01*
X3693872Y-6300484D02*
X3674825Y-6329055D01*
X3674825Y-6329055D02*
X3655777Y-6348103D01*
X3655777Y-6348103D02*
X3636729Y-6357627D01*
X3941491Y-6500484D02*
X3827206Y-6500484D01*
X3884348Y-6500484D02*
X3884348Y-6300484D01*
X3884348Y-6300484D02*
X3865301Y-6329055D01*
X3865301Y-6329055D02*
X3846253Y-6348103D01*
X3846253Y-6348103D02*
X3827206Y-6357627D01*
X4179587Y-6500484D02*
X4179587Y-6300484D01*
X4265301Y-6500484D02*
X4265301Y-6395722D01*
X4265301Y-6395722D02*
X4255777Y-6376674D01*
X4255777Y-6376674D02*
X4236730Y-6367150D01*
X4236730Y-6367150D02*
X4208158Y-6367150D01*
X4208158Y-6367150D02*
X4189110Y-6376674D01*
X4189110Y-6376674D02*
X4179587Y-6386198D01*
X4389111Y-6500484D02*
X4370063Y-6490960D01*
X4370063Y-6490960D02*
X4360539Y-6481436D01*
X4360539Y-6481436D02*
X4351015Y-6462388D01*
X4351015Y-6462388D02*
X4351015Y-6405246D01*
X4351015Y-6405246D02*
X4360539Y-6386198D01*
X4360539Y-6386198D02*
X4370063Y-6376674D01*
X4370063Y-6376674D02*
X4389111Y-6367150D01*
X4389111Y-6367150D02*
X4417682Y-6367150D01*
X4417682Y-6367150D02*
X4436730Y-6376674D01*
X4436730Y-6376674D02*
X4446253Y-6386198D01*
X4446253Y-6386198D02*
X4455777Y-6405246D01*
X4455777Y-6405246D02*
X4455777Y-6462388D01*
X4455777Y-6462388D02*
X4446253Y-6481436D01*
X4446253Y-6481436D02*
X4436730Y-6490960D01*
X4436730Y-6490960D02*
X4417682Y-6500484D01*
X4417682Y-6500484D02*
X4389111Y-6500484D01*
X4570063Y-6500484D02*
X4551015Y-6490960D01*
X4551015Y-6490960D02*
X4541492Y-6471912D01*
X4541492Y-6471912D02*
X4541492Y-6300484D01*
X4722444Y-6490960D02*
X4703396Y-6500484D01*
X4703396Y-6500484D02*
X4665301Y-6500484D01*
X4665301Y-6500484D02*
X4646253Y-6490960D01*
X4646253Y-6490960D02*
X4636730Y-6471912D01*
X4636730Y-6471912D02*
X4636730Y-6395722D01*
X4636730Y-6395722D02*
X4646253Y-6376674D01*
X4646253Y-6376674D02*
X4665301Y-6367150D01*
X4665301Y-6367150D02*
X4703396Y-6367150D01*
X4703396Y-6367150D02*
X4722444Y-6376674D01*
X4722444Y-6376674D02*
X4731968Y-6395722D01*
X4731968Y-6395722D02*
X4731968Y-6414769D01*
X4731968Y-6414769D02*
X4636730Y-6433817D01*
X4808158Y-6490960D02*
X4827206Y-6500484D01*
X4827206Y-6500484D02*
X4865301Y-6500484D01*
X4865301Y-6500484D02*
X4884349Y-6490960D01*
X4884349Y-6490960D02*
X4893873Y-6471912D01*
X4893873Y-6471912D02*
X4893873Y-6462388D01*
X4893873Y-6462388D02*
X4884349Y-6443341D01*
X4884349Y-6443341D02*
X4865301Y-6433817D01*
X4865301Y-6433817D02*
X4836730Y-6433817D01*
X4836730Y-6433817D02*
X4817682Y-6424293D01*
X4817682Y-6424293D02*
X4808158Y-6405246D01*
X4808158Y-6405246D02*
X4808158Y-6395722D01*
X4808158Y-6395722D02*
X4817682Y-6376674D01*
X4817682Y-6376674D02*
X4836730Y-6367150D01*
X4836730Y-6367150D02*
X4865301Y-6367150D01*
X4865301Y-6367150D02*
X4884349Y-6376674D01*
X4960539Y-6576674D02*
X4970063Y-6567150D01*
X4970063Y-6567150D02*
X4989111Y-6538579D01*
X4989111Y-6538579D02*
X4998634Y-6519531D01*
X4998634Y-6519531D02*
X5008158Y-6490960D01*
X5008158Y-6490960D02*
X5017682Y-6443341D01*
X5017682Y-6443341D02*
X5017682Y-6405246D01*
X5017682Y-6405246D02*
X5008158Y-6357627D01*
X5008158Y-6357627D02*
X4998634Y-6329055D01*
X4998634Y-6329055D02*
X4989111Y-6310008D01*
X4989111Y-6310008D02*
X4970063Y-6281436D01*
X4970063Y-6281436D02*
X4960539Y-6271912D01*
D14*
X-45000Y-6633000D02*
X-45000Y-6713000D01*
X-85000Y-6673000D02*
X-5000Y-6673000D01*
D11*
X293872Y-6564484D02*
X312920Y-6564484D01*
X312920Y-6564484D02*
X331967Y-6574008D01*
X331967Y-6574008D02*
X341491Y-6583531D01*
X341491Y-6583531D02*
X351015Y-6602579D01*
X351015Y-6602579D02*
X360539Y-6640674D01*
X360539Y-6640674D02*
X360539Y-6688293D01*
X360539Y-6688293D02*
X351015Y-6726388D01*
X351015Y-6726388D02*
X341491Y-6745436D01*
X341491Y-6745436D02*
X331967Y-6754960D01*
X331967Y-6754960D02*
X312920Y-6764484D01*
X312920Y-6764484D02*
X293872Y-6764484D01*
X293872Y-6764484D02*
X274824Y-6754960D01*
X274824Y-6754960D02*
X265301Y-6745436D01*
X265301Y-6745436D02*
X255777Y-6726388D01*
X255777Y-6726388D02*
X246253Y-6688293D01*
X246253Y-6688293D02*
X246253Y-6640674D01*
X246253Y-6640674D02*
X255777Y-6602579D01*
X255777Y-6602579D02*
X265301Y-6583531D01*
X265301Y-6583531D02*
X274824Y-6574008D01*
X274824Y-6574008D02*
X293872Y-6564484D01*
X446253Y-6745436D02*
X455777Y-6754960D01*
X455777Y-6754960D02*
X446253Y-6764484D01*
X446253Y-6764484D02*
X436729Y-6754960D01*
X436729Y-6754960D02*
X446253Y-6745436D01*
X446253Y-6745436D02*
X446253Y-6764484D01*
X570063Y-6650198D02*
X551015Y-6640674D01*
X551015Y-6640674D02*
X541491Y-6631150D01*
X541491Y-6631150D02*
X531967Y-6612103D01*
X531967Y-6612103D02*
X531967Y-6602579D01*
X531967Y-6602579D02*
X541491Y-6583531D01*
X541491Y-6583531D02*
X551015Y-6574008D01*
X551015Y-6574008D02*
X570063Y-6564484D01*
X570063Y-6564484D02*
X608158Y-6564484D01*
X608158Y-6564484D02*
X627205Y-6574008D01*
X627205Y-6574008D02*
X636729Y-6583531D01*
X636729Y-6583531D02*
X646253Y-6602579D01*
X646253Y-6602579D02*
X646253Y-6612103D01*
X646253Y-6612103D02*
X636729Y-6631150D01*
X636729Y-6631150D02*
X627205Y-6640674D01*
X627205Y-6640674D02*
X608158Y-6650198D01*
X608158Y-6650198D02*
X570063Y-6650198D01*
X570063Y-6650198D02*
X551015Y-6659722D01*
X551015Y-6659722D02*
X541491Y-6669246D01*
X541491Y-6669246D02*
X531967Y-6688293D01*
X531967Y-6688293D02*
X531967Y-6726388D01*
X531967Y-6726388D02*
X541491Y-6745436D01*
X541491Y-6745436D02*
X551015Y-6754960D01*
X551015Y-6754960D02*
X570063Y-6764484D01*
X570063Y-6764484D02*
X608158Y-6764484D01*
X608158Y-6764484D02*
X627205Y-6754960D01*
X627205Y-6754960D02*
X636729Y-6745436D01*
X636729Y-6745436D02*
X646253Y-6726388D01*
X646253Y-6726388D02*
X646253Y-6688293D01*
X646253Y-6688293D02*
X636729Y-6669246D01*
X636729Y-6669246D02*
X627205Y-6659722D01*
X627205Y-6659722D02*
X608158Y-6650198D01*
X770062Y-6564484D02*
X789110Y-6564484D01*
X789110Y-6564484D02*
X808158Y-6574008D01*
X808158Y-6574008D02*
X817682Y-6583531D01*
X817682Y-6583531D02*
X827205Y-6602579D01*
X827205Y-6602579D02*
X836729Y-6640674D01*
X836729Y-6640674D02*
X836729Y-6688293D01*
X836729Y-6688293D02*
X827205Y-6726388D01*
X827205Y-6726388D02*
X817682Y-6745436D01*
X817682Y-6745436D02*
X808158Y-6754960D01*
X808158Y-6754960D02*
X789110Y-6764484D01*
X789110Y-6764484D02*
X770062Y-6764484D01*
X770062Y-6764484D02*
X751015Y-6754960D01*
X751015Y-6754960D02*
X741491Y-6745436D01*
X741491Y-6745436D02*
X731967Y-6726388D01*
X731967Y-6726388D02*
X722443Y-6688293D01*
X722443Y-6688293D02*
X722443Y-6640674D01*
X722443Y-6640674D02*
X731967Y-6602579D01*
X731967Y-6602579D02*
X741491Y-6583531D01*
X741491Y-6583531D02*
X751015Y-6574008D01*
X751015Y-6574008D02*
X770062Y-6564484D01*
X960539Y-6564484D02*
X979586Y-6564484D01*
X979586Y-6564484D02*
X998634Y-6574008D01*
X998634Y-6574008D02*
X1008158Y-6583531D01*
X1008158Y-6583531D02*
X1017682Y-6602579D01*
X1017682Y-6602579D02*
X1027205Y-6640674D01*
X1027205Y-6640674D02*
X1027205Y-6688293D01*
X1027205Y-6688293D02*
X1017682Y-6726388D01*
X1017682Y-6726388D02*
X1008158Y-6745436D01*
X1008158Y-6745436D02*
X998634Y-6754960D01*
X998634Y-6754960D02*
X979586Y-6764484D01*
X979586Y-6764484D02*
X960539Y-6764484D01*
X960539Y-6764484D02*
X941491Y-6754960D01*
X941491Y-6754960D02*
X931967Y-6745436D01*
X931967Y-6745436D02*
X922443Y-6726388D01*
X922443Y-6726388D02*
X912920Y-6688293D01*
X912920Y-6688293D02*
X912920Y-6640674D01*
X912920Y-6640674D02*
X922443Y-6602579D01*
X922443Y-6602579D02*
X931967Y-6583531D01*
X931967Y-6583531D02*
X941491Y-6574008D01*
X941491Y-6574008D02*
X960539Y-6564484D01*
X1112920Y-6764484D02*
X1112920Y-6631150D01*
X1112920Y-6650198D02*
X1122444Y-6640674D01*
X1122444Y-6640674D02*
X1141491Y-6631150D01*
X1141491Y-6631150D02*
X1170063Y-6631150D01*
X1170063Y-6631150D02*
X1189110Y-6640674D01*
X1189110Y-6640674D02*
X1198634Y-6659722D01*
X1198634Y-6659722D02*
X1198634Y-6764484D01*
X1198634Y-6659722D02*
X1208158Y-6640674D01*
X1208158Y-6640674D02*
X1227205Y-6631150D01*
X1227205Y-6631150D02*
X1255777Y-6631150D01*
X1255777Y-6631150D02*
X1274825Y-6640674D01*
X1274825Y-6640674D02*
X1284348Y-6659722D01*
X1284348Y-6659722D02*
X1284348Y-6764484D01*
X1379586Y-6764484D02*
X1379586Y-6631150D01*
X1379586Y-6650198D02*
X1389110Y-6640674D01*
X1389110Y-6640674D02*
X1408158Y-6631150D01*
X1408158Y-6631150D02*
X1436729Y-6631150D01*
X1436729Y-6631150D02*
X1455777Y-6640674D01*
X1455777Y-6640674D02*
X1465301Y-6659722D01*
X1465301Y-6659722D02*
X1465301Y-6764484D01*
X1465301Y-6659722D02*
X1474824Y-6640674D01*
X1474824Y-6640674D02*
X1493872Y-6631150D01*
X1493872Y-6631150D02*
X1522443Y-6631150D01*
X1522443Y-6631150D02*
X1541491Y-6640674D01*
X1541491Y-6640674D02*
X1551015Y-6659722D01*
X1551015Y-6659722D02*
X1551015Y-6764484D01*
X1941491Y-6554960D02*
X1770063Y-6812103D01*
X2198634Y-6564484D02*
X2217682Y-6564484D01*
X2217682Y-6564484D02*
X2236729Y-6574008D01*
X2236729Y-6574008D02*
X2246253Y-6583531D01*
X2246253Y-6583531D02*
X2255777Y-6602579D01*
X2255777Y-6602579D02*
X2265301Y-6640674D01*
X2265301Y-6640674D02*
X2265301Y-6688293D01*
X2265301Y-6688293D02*
X2255777Y-6726388D01*
X2255777Y-6726388D02*
X2246253Y-6745436D01*
X2246253Y-6745436D02*
X2236729Y-6754960D01*
X2236729Y-6754960D02*
X2217682Y-6764484D01*
X2217682Y-6764484D02*
X2198634Y-6764484D01*
X2198634Y-6764484D02*
X2179587Y-6754960D01*
X2179587Y-6754960D02*
X2170063Y-6745436D01*
X2170063Y-6745436D02*
X2160539Y-6726388D01*
X2160539Y-6726388D02*
X2151015Y-6688293D01*
X2151015Y-6688293D02*
X2151015Y-6640674D01*
X2151015Y-6640674D02*
X2160539Y-6602579D01*
X2160539Y-6602579D02*
X2170063Y-6583531D01*
X2170063Y-6583531D02*
X2179587Y-6574008D01*
X2179587Y-6574008D02*
X2198634Y-6564484D01*
X2351015Y-6745436D02*
X2360539Y-6754960D01*
X2360539Y-6754960D02*
X2351015Y-6764484D01*
X2351015Y-6764484D02*
X2341491Y-6754960D01*
X2341491Y-6754960D02*
X2351015Y-6745436D01*
X2351015Y-6745436D02*
X2351015Y-6764484D01*
X2484348Y-6564484D02*
X2503396Y-6564484D01*
X2503396Y-6564484D02*
X2522444Y-6574008D01*
X2522444Y-6574008D02*
X2531968Y-6583531D01*
X2531968Y-6583531D02*
X2541491Y-6602579D01*
X2541491Y-6602579D02*
X2551015Y-6640674D01*
X2551015Y-6640674D02*
X2551015Y-6688293D01*
X2551015Y-6688293D02*
X2541491Y-6726388D01*
X2541491Y-6726388D02*
X2531968Y-6745436D01*
X2531968Y-6745436D02*
X2522444Y-6754960D01*
X2522444Y-6754960D02*
X2503396Y-6764484D01*
X2503396Y-6764484D02*
X2484348Y-6764484D01*
X2484348Y-6764484D02*
X2465301Y-6754960D01*
X2465301Y-6754960D02*
X2455777Y-6745436D01*
X2455777Y-6745436D02*
X2446253Y-6726388D01*
X2446253Y-6726388D02*
X2436729Y-6688293D01*
X2436729Y-6688293D02*
X2436729Y-6640674D01*
X2436729Y-6640674D02*
X2446253Y-6602579D01*
X2446253Y-6602579D02*
X2455777Y-6583531D01*
X2455777Y-6583531D02*
X2465301Y-6574008D01*
X2465301Y-6574008D02*
X2484348Y-6564484D01*
X2617682Y-6564484D02*
X2741491Y-6564484D01*
X2741491Y-6564484D02*
X2674825Y-6640674D01*
X2674825Y-6640674D02*
X2703396Y-6640674D01*
X2703396Y-6640674D02*
X2722444Y-6650198D01*
X2722444Y-6650198D02*
X2731968Y-6659722D01*
X2731968Y-6659722D02*
X2741491Y-6678769D01*
X2741491Y-6678769D02*
X2741491Y-6726388D01*
X2741491Y-6726388D02*
X2731968Y-6745436D01*
X2731968Y-6745436D02*
X2722444Y-6754960D01*
X2722444Y-6754960D02*
X2703396Y-6764484D01*
X2703396Y-6764484D02*
X2646253Y-6764484D01*
X2646253Y-6764484D02*
X2627206Y-6754960D01*
X2627206Y-6754960D02*
X2617682Y-6745436D01*
X2931967Y-6764484D02*
X2817682Y-6764484D01*
X2874825Y-6764484D02*
X2874825Y-6564484D01*
X2874825Y-6564484D02*
X2855777Y-6593055D01*
X2855777Y-6593055D02*
X2836729Y-6612103D01*
X2836729Y-6612103D02*
X2817682Y-6621627D01*
X3112920Y-6564484D02*
X3017682Y-6564484D01*
X3017682Y-6564484D02*
X3008158Y-6659722D01*
X3008158Y-6659722D02*
X3017682Y-6650198D01*
X3017682Y-6650198D02*
X3036729Y-6640674D01*
X3036729Y-6640674D02*
X3084348Y-6640674D01*
X3084348Y-6640674D02*
X3103396Y-6650198D01*
X3103396Y-6650198D02*
X3112920Y-6659722D01*
X3112920Y-6659722D02*
X3122444Y-6678769D01*
X3122444Y-6678769D02*
X3122444Y-6726388D01*
X3122444Y-6726388D02*
X3112920Y-6745436D01*
X3112920Y-6745436D02*
X3103396Y-6754960D01*
X3103396Y-6754960D02*
X3084348Y-6764484D01*
X3084348Y-6764484D02*
X3036729Y-6764484D01*
X3036729Y-6764484D02*
X3017682Y-6754960D01*
X3017682Y-6754960D02*
X3008158Y-6745436D01*
X3198634Y-6564484D02*
X3198634Y-6602579D01*
X3274825Y-6564484D02*
X3274825Y-6602579D01*
X3570063Y-6840674D02*
X3560539Y-6831150D01*
X3560539Y-6831150D02*
X3541491Y-6802579D01*
X3541491Y-6802579D02*
X3531968Y-6783531D01*
X3531968Y-6783531D02*
X3522444Y-6754960D01*
X3522444Y-6754960D02*
X3512920Y-6707341D01*
X3512920Y-6707341D02*
X3512920Y-6669246D01*
X3512920Y-6669246D02*
X3522444Y-6621627D01*
X3522444Y-6621627D02*
X3531968Y-6593055D01*
X3531968Y-6593055D02*
X3541491Y-6574008D01*
X3541491Y-6574008D02*
X3560539Y-6545436D01*
X3560539Y-6545436D02*
X3570063Y-6535912D01*
X3731968Y-6631150D02*
X3731968Y-6764484D01*
X3684348Y-6554960D02*
X3636729Y-6697817D01*
X3636729Y-6697817D02*
X3760539Y-6697817D01*
X3827206Y-6583531D02*
X3836729Y-6574008D01*
X3836729Y-6574008D02*
X3855777Y-6564484D01*
X3855777Y-6564484D02*
X3903396Y-6564484D01*
X3903396Y-6564484D02*
X3922444Y-6574008D01*
X3922444Y-6574008D02*
X3931968Y-6583531D01*
X3931968Y-6583531D02*
X3941491Y-6602579D01*
X3941491Y-6602579D02*
X3941491Y-6621627D01*
X3941491Y-6621627D02*
X3931968Y-6650198D01*
X3931968Y-6650198D02*
X3817682Y-6764484D01*
X3817682Y-6764484D02*
X3941491Y-6764484D01*
X4179587Y-6764484D02*
X4179587Y-6564484D01*
X4265301Y-6764484D02*
X4265301Y-6659722D01*
X4265301Y-6659722D02*
X4255777Y-6640674D01*
X4255777Y-6640674D02*
X4236730Y-6631150D01*
X4236730Y-6631150D02*
X4208158Y-6631150D01*
X4208158Y-6631150D02*
X4189110Y-6640674D01*
X4189110Y-6640674D02*
X4179587Y-6650198D01*
X4389111Y-6764484D02*
X4370063Y-6754960D01*
X4370063Y-6754960D02*
X4360539Y-6745436D01*
X4360539Y-6745436D02*
X4351015Y-6726388D01*
X4351015Y-6726388D02*
X4351015Y-6669246D01*
X4351015Y-6669246D02*
X4360539Y-6650198D01*
X4360539Y-6650198D02*
X4370063Y-6640674D01*
X4370063Y-6640674D02*
X4389111Y-6631150D01*
X4389111Y-6631150D02*
X4417682Y-6631150D01*
X4417682Y-6631150D02*
X4436730Y-6640674D01*
X4436730Y-6640674D02*
X4446253Y-6650198D01*
X4446253Y-6650198D02*
X4455777Y-6669246D01*
X4455777Y-6669246D02*
X4455777Y-6726388D01*
X4455777Y-6726388D02*
X4446253Y-6745436D01*
X4446253Y-6745436D02*
X4436730Y-6754960D01*
X4436730Y-6754960D02*
X4417682Y-6764484D01*
X4417682Y-6764484D02*
X4389111Y-6764484D01*
X4570063Y-6764484D02*
X4551015Y-6754960D01*
X4551015Y-6754960D02*
X4541492Y-6735912D01*
X4541492Y-6735912D02*
X4541492Y-6564484D01*
X4722444Y-6754960D02*
X4703396Y-6764484D01*
X4703396Y-6764484D02*
X4665301Y-6764484D01*
X4665301Y-6764484D02*
X4646253Y-6754960D01*
X4646253Y-6754960D02*
X4636730Y-6735912D01*
X4636730Y-6735912D02*
X4636730Y-6659722D01*
X4636730Y-6659722D02*
X4646253Y-6640674D01*
X4646253Y-6640674D02*
X4665301Y-6631150D01*
X4665301Y-6631150D02*
X4703396Y-6631150D01*
X4703396Y-6631150D02*
X4722444Y-6640674D01*
X4722444Y-6640674D02*
X4731968Y-6659722D01*
X4731968Y-6659722D02*
X4731968Y-6678769D01*
X4731968Y-6678769D02*
X4636730Y-6697817D01*
X4808158Y-6754960D02*
X4827206Y-6764484D01*
X4827206Y-6764484D02*
X4865301Y-6764484D01*
X4865301Y-6764484D02*
X4884349Y-6754960D01*
X4884349Y-6754960D02*
X4893873Y-6735912D01*
X4893873Y-6735912D02*
X4893873Y-6726388D01*
X4893873Y-6726388D02*
X4884349Y-6707341D01*
X4884349Y-6707341D02*
X4865301Y-6697817D01*
X4865301Y-6697817D02*
X4836730Y-6697817D01*
X4836730Y-6697817D02*
X4817682Y-6688293D01*
X4817682Y-6688293D02*
X4808158Y-6669246D01*
X4808158Y-6669246D02*
X4808158Y-6659722D01*
X4808158Y-6659722D02*
X4817682Y-6640674D01*
X4817682Y-6640674D02*
X4836730Y-6631150D01*
X4836730Y-6631150D02*
X4865301Y-6631150D01*
X4865301Y-6631150D02*
X4884349Y-6640674D01*
X4960539Y-6840674D02*
X4970063Y-6831150D01*
X4970063Y-6831150D02*
X4989111Y-6802579D01*
X4989111Y-6802579D02*
X4998634Y-6783531D01*
X4998634Y-6783531D02*
X5008158Y-6754960D01*
X5008158Y-6754960D02*
X5017682Y-6707341D01*
X5017682Y-6707341D02*
X5017682Y-6669246D01*
X5017682Y-6669246D02*
X5008158Y-6621627D01*
X5008158Y-6621627D02*
X4998634Y-6593055D01*
X4998634Y-6593055D02*
X4989111Y-6574008D01*
X4989111Y-6574008D02*
X4970063Y-6545436D01*
X4970063Y-6545436D02*
X4960539Y-6535912D01*
D10*
X-19644Y-6972356D02*
X-19644Y-6901644D01*
X-90356Y-6901644D01*
X-90356Y-6972356D01*
X-19644Y-6972356D01*
D11*
X360539Y-7028484D02*
X246253Y-7028484D01*
X303396Y-7028484D02*
X303396Y-6828484D01*
X303396Y-6828484D02*
X284348Y-6857055D01*
X284348Y-6857055D02*
X265301Y-6876103D01*
X265301Y-6876103D02*
X246253Y-6885627D01*
X446253Y-7009436D02*
X455777Y-7018960D01*
X455777Y-7018960D02*
X446253Y-7028484D01*
X446253Y-7028484D02*
X436729Y-7018960D01*
X436729Y-7018960D02*
X446253Y-7009436D01*
X446253Y-7009436D02*
X446253Y-7028484D01*
X579586Y-6828484D02*
X598634Y-6828484D01*
X598634Y-6828484D02*
X617682Y-6838008D01*
X617682Y-6838008D02*
X627205Y-6847531D01*
X627205Y-6847531D02*
X636729Y-6866579D01*
X636729Y-6866579D02*
X646253Y-6904674D01*
X646253Y-6904674D02*
X646253Y-6952293D01*
X646253Y-6952293D02*
X636729Y-6990388D01*
X636729Y-6990388D02*
X627205Y-7009436D01*
X627205Y-7009436D02*
X617682Y-7018960D01*
X617682Y-7018960D02*
X598634Y-7028484D01*
X598634Y-7028484D02*
X579586Y-7028484D01*
X579586Y-7028484D02*
X560539Y-7018960D01*
X560539Y-7018960D02*
X551015Y-7009436D01*
X551015Y-7009436D02*
X541491Y-6990388D01*
X541491Y-6990388D02*
X531967Y-6952293D01*
X531967Y-6952293D02*
X531967Y-6904674D01*
X531967Y-6904674D02*
X541491Y-6866579D01*
X541491Y-6866579D02*
X551015Y-6847531D01*
X551015Y-6847531D02*
X560539Y-6838008D01*
X560539Y-6838008D02*
X579586Y-6828484D01*
X770062Y-6828484D02*
X789110Y-6828484D01*
X789110Y-6828484D02*
X808158Y-6838008D01*
X808158Y-6838008D02*
X817682Y-6847531D01*
X817682Y-6847531D02*
X827205Y-6866579D01*
X827205Y-6866579D02*
X836729Y-6904674D01*
X836729Y-6904674D02*
X836729Y-6952293D01*
X836729Y-6952293D02*
X827205Y-6990388D01*
X827205Y-6990388D02*
X817682Y-7009436D01*
X817682Y-7009436D02*
X808158Y-7018960D01*
X808158Y-7018960D02*
X789110Y-7028484D01*
X789110Y-7028484D02*
X770062Y-7028484D01*
X770062Y-7028484D02*
X751015Y-7018960D01*
X751015Y-7018960D02*
X741491Y-7009436D01*
X741491Y-7009436D02*
X731967Y-6990388D01*
X731967Y-6990388D02*
X722443Y-6952293D01*
X722443Y-6952293D02*
X722443Y-6904674D01*
X722443Y-6904674D02*
X731967Y-6866579D01*
X731967Y-6866579D02*
X741491Y-6847531D01*
X741491Y-6847531D02*
X751015Y-6838008D01*
X751015Y-6838008D02*
X770062Y-6828484D01*
X960539Y-6828484D02*
X979586Y-6828484D01*
X979586Y-6828484D02*
X998634Y-6838008D01*
X998634Y-6838008D02*
X1008158Y-6847531D01*
X1008158Y-6847531D02*
X1017682Y-6866579D01*
X1017682Y-6866579D02*
X1027205Y-6904674D01*
X1027205Y-6904674D02*
X1027205Y-6952293D01*
X1027205Y-6952293D02*
X1017682Y-6990388D01*
X1017682Y-6990388D02*
X1008158Y-7009436D01*
X1008158Y-7009436D02*
X998634Y-7018960D01*
X998634Y-7018960D02*
X979586Y-7028484D01*
X979586Y-7028484D02*
X960539Y-7028484D01*
X960539Y-7028484D02*
X941491Y-7018960D01*
X941491Y-7018960D02*
X931967Y-7009436D01*
X931967Y-7009436D02*
X922443Y-6990388D01*
X922443Y-6990388D02*
X912920Y-6952293D01*
X912920Y-6952293D02*
X912920Y-6904674D01*
X912920Y-6904674D02*
X922443Y-6866579D01*
X922443Y-6866579D02*
X931967Y-6847531D01*
X931967Y-6847531D02*
X941491Y-6838008D01*
X941491Y-6838008D02*
X960539Y-6828484D01*
X1112920Y-7028484D02*
X1112920Y-6895150D01*
X1112920Y-6914198D02*
X1122444Y-6904674D01*
X1122444Y-6904674D02*
X1141491Y-6895150D01*
X1141491Y-6895150D02*
X1170063Y-6895150D01*
X1170063Y-6895150D02*
X1189110Y-6904674D01*
X1189110Y-6904674D02*
X1198634Y-6923722D01*
X1198634Y-6923722D02*
X1198634Y-7028484D01*
X1198634Y-6923722D02*
X1208158Y-6904674D01*
X1208158Y-6904674D02*
X1227205Y-6895150D01*
X1227205Y-6895150D02*
X1255777Y-6895150D01*
X1255777Y-6895150D02*
X1274825Y-6904674D01*
X1274825Y-6904674D02*
X1284348Y-6923722D01*
X1284348Y-6923722D02*
X1284348Y-7028484D01*
X1379586Y-7028484D02*
X1379586Y-6895150D01*
X1379586Y-6914198D02*
X1389110Y-6904674D01*
X1389110Y-6904674D02*
X1408158Y-6895150D01*
X1408158Y-6895150D02*
X1436729Y-6895150D01*
X1436729Y-6895150D02*
X1455777Y-6904674D01*
X1455777Y-6904674D02*
X1465301Y-6923722D01*
X1465301Y-6923722D02*
X1465301Y-7028484D01*
X1465301Y-6923722D02*
X1474824Y-6904674D01*
X1474824Y-6904674D02*
X1493872Y-6895150D01*
X1493872Y-6895150D02*
X1522443Y-6895150D01*
X1522443Y-6895150D02*
X1541491Y-6904674D01*
X1541491Y-6904674D02*
X1551015Y-6923722D01*
X1551015Y-6923722D02*
X1551015Y-7028484D01*
X1941491Y-6818960D02*
X1770063Y-7076103D01*
X2198634Y-6828484D02*
X2217682Y-6828484D01*
X2217682Y-6828484D02*
X2236729Y-6838008D01*
X2236729Y-6838008D02*
X2246253Y-6847531D01*
X2246253Y-6847531D02*
X2255777Y-6866579D01*
X2255777Y-6866579D02*
X2265301Y-6904674D01*
X2265301Y-6904674D02*
X2265301Y-6952293D01*
X2265301Y-6952293D02*
X2255777Y-6990388D01*
X2255777Y-6990388D02*
X2246253Y-7009436D01*
X2246253Y-7009436D02*
X2236729Y-7018960D01*
X2236729Y-7018960D02*
X2217682Y-7028484D01*
X2217682Y-7028484D02*
X2198634Y-7028484D01*
X2198634Y-7028484D02*
X2179587Y-7018960D01*
X2179587Y-7018960D02*
X2170063Y-7009436D01*
X2170063Y-7009436D02*
X2160539Y-6990388D01*
X2160539Y-6990388D02*
X2151015Y-6952293D01*
X2151015Y-6952293D02*
X2151015Y-6904674D01*
X2151015Y-6904674D02*
X2160539Y-6866579D01*
X2160539Y-6866579D02*
X2170063Y-6847531D01*
X2170063Y-6847531D02*
X2179587Y-6838008D01*
X2179587Y-6838008D02*
X2198634Y-6828484D01*
X2351015Y-7009436D02*
X2360539Y-7018960D01*
X2360539Y-7018960D02*
X2351015Y-7028484D01*
X2351015Y-7028484D02*
X2341491Y-7018960D01*
X2341491Y-7018960D02*
X2351015Y-7009436D01*
X2351015Y-7009436D02*
X2351015Y-7028484D01*
X2484348Y-6828484D02*
X2503396Y-6828484D01*
X2503396Y-6828484D02*
X2522444Y-6838008D01*
X2522444Y-6838008D02*
X2531968Y-6847531D01*
X2531968Y-6847531D02*
X2541491Y-6866579D01*
X2541491Y-6866579D02*
X2551015Y-6904674D01*
X2551015Y-6904674D02*
X2551015Y-6952293D01*
X2551015Y-6952293D02*
X2541491Y-6990388D01*
X2541491Y-6990388D02*
X2531968Y-7009436D01*
X2531968Y-7009436D02*
X2522444Y-7018960D01*
X2522444Y-7018960D02*
X2503396Y-7028484D01*
X2503396Y-7028484D02*
X2484348Y-7028484D01*
X2484348Y-7028484D02*
X2465301Y-7018960D01*
X2465301Y-7018960D02*
X2455777Y-7009436D01*
X2455777Y-7009436D02*
X2446253Y-6990388D01*
X2446253Y-6990388D02*
X2436729Y-6952293D01*
X2436729Y-6952293D02*
X2436729Y-6904674D01*
X2436729Y-6904674D02*
X2446253Y-6866579D01*
X2446253Y-6866579D02*
X2455777Y-6847531D01*
X2455777Y-6847531D02*
X2465301Y-6838008D01*
X2465301Y-6838008D02*
X2484348Y-6828484D01*
X2617682Y-6828484D02*
X2741491Y-6828484D01*
X2741491Y-6828484D02*
X2674825Y-6904674D01*
X2674825Y-6904674D02*
X2703396Y-6904674D01*
X2703396Y-6904674D02*
X2722444Y-6914198D01*
X2722444Y-6914198D02*
X2731968Y-6923722D01*
X2731968Y-6923722D02*
X2741491Y-6942769D01*
X2741491Y-6942769D02*
X2741491Y-6990388D01*
X2741491Y-6990388D02*
X2731968Y-7009436D01*
X2731968Y-7009436D02*
X2722444Y-7018960D01*
X2722444Y-7018960D02*
X2703396Y-7028484D01*
X2703396Y-7028484D02*
X2646253Y-7028484D01*
X2646253Y-7028484D02*
X2627206Y-7018960D01*
X2627206Y-7018960D02*
X2617682Y-7009436D01*
X2836729Y-7028484D02*
X2874825Y-7028484D01*
X2874825Y-7028484D02*
X2893872Y-7018960D01*
X2893872Y-7018960D02*
X2903396Y-7009436D01*
X2903396Y-7009436D02*
X2922444Y-6980865D01*
X2922444Y-6980865D02*
X2931967Y-6942769D01*
X2931967Y-6942769D02*
X2931967Y-6866579D01*
X2931967Y-6866579D02*
X2922444Y-6847531D01*
X2922444Y-6847531D02*
X2912920Y-6838008D01*
X2912920Y-6838008D02*
X2893872Y-6828484D01*
X2893872Y-6828484D02*
X2855777Y-6828484D01*
X2855777Y-6828484D02*
X2836729Y-6838008D01*
X2836729Y-6838008D02*
X2827206Y-6847531D01*
X2827206Y-6847531D02*
X2817682Y-6866579D01*
X2817682Y-6866579D02*
X2817682Y-6914198D01*
X2817682Y-6914198D02*
X2827206Y-6933246D01*
X2827206Y-6933246D02*
X2836729Y-6942769D01*
X2836729Y-6942769D02*
X2855777Y-6952293D01*
X2855777Y-6952293D02*
X2893872Y-6952293D01*
X2893872Y-6952293D02*
X2912920Y-6942769D01*
X2912920Y-6942769D02*
X2922444Y-6933246D01*
X2922444Y-6933246D02*
X2931967Y-6914198D01*
X3103396Y-6895150D02*
X3103396Y-7028484D01*
X3055777Y-6818960D02*
X3008158Y-6961817D01*
X3008158Y-6961817D02*
X3131967Y-6961817D01*
X3198634Y-6828484D02*
X3198634Y-6866579D01*
X3274825Y-6828484D02*
X3274825Y-6866579D01*
X3570063Y-7104674D02*
X3560539Y-7095150D01*
X3560539Y-7095150D02*
X3541491Y-7066579D01*
X3541491Y-7066579D02*
X3531968Y-7047531D01*
X3531968Y-7047531D02*
X3522444Y-7018960D01*
X3522444Y-7018960D02*
X3512920Y-6971341D01*
X3512920Y-6971341D02*
X3512920Y-6933246D01*
X3512920Y-6933246D02*
X3522444Y-6885627D01*
X3522444Y-6885627D02*
X3531968Y-6857055D01*
X3531968Y-6857055D02*
X3541491Y-6838008D01*
X3541491Y-6838008D02*
X3560539Y-6809436D01*
X3560539Y-6809436D02*
X3570063Y-6799912D01*
X3741491Y-6828484D02*
X3646253Y-6828484D01*
X3646253Y-6828484D02*
X3636729Y-6923722D01*
X3636729Y-6923722D02*
X3646253Y-6914198D01*
X3646253Y-6914198D02*
X3665301Y-6904674D01*
X3665301Y-6904674D02*
X3712920Y-6904674D01*
X3712920Y-6904674D02*
X3731968Y-6914198D01*
X3731968Y-6914198D02*
X3741491Y-6923722D01*
X3741491Y-6923722D02*
X3751015Y-6942769D01*
X3751015Y-6942769D02*
X3751015Y-6990388D01*
X3751015Y-6990388D02*
X3741491Y-7009436D01*
X3741491Y-7009436D02*
X3731968Y-7018960D01*
X3731968Y-7018960D02*
X3712920Y-7028484D01*
X3712920Y-7028484D02*
X3665301Y-7028484D01*
X3665301Y-7028484D02*
X3646253Y-7018960D01*
X3646253Y-7018960D02*
X3636729Y-7009436D01*
X3989110Y-7028484D02*
X3989110Y-6828484D01*
X4074825Y-7028484D02*
X4074825Y-6923722D01*
X4074825Y-6923722D02*
X4065301Y-6904674D01*
X4065301Y-6904674D02*
X4046253Y-6895150D01*
X4046253Y-6895150D02*
X4017682Y-6895150D01*
X4017682Y-6895150D02*
X3998634Y-6904674D01*
X3998634Y-6904674D02*
X3989110Y-6914198D01*
X4198634Y-7028484D02*
X4179587Y-7018960D01*
X4179587Y-7018960D02*
X4170063Y-7009436D01*
X4170063Y-7009436D02*
X4160539Y-6990388D01*
X4160539Y-6990388D02*
X4160539Y-6933246D01*
X4160539Y-6933246D02*
X4170063Y-6914198D01*
X4170063Y-6914198D02*
X4179587Y-6904674D01*
X4179587Y-6904674D02*
X4198634Y-6895150D01*
X4198634Y-6895150D02*
X4227206Y-6895150D01*
X4227206Y-6895150D02*
X4246253Y-6904674D01*
X4246253Y-6904674D02*
X4255777Y-6914198D01*
X4255777Y-6914198D02*
X4265301Y-6933246D01*
X4265301Y-6933246D02*
X4265301Y-6990388D01*
X4265301Y-6990388D02*
X4255777Y-7009436D01*
X4255777Y-7009436D02*
X4246253Y-7018960D01*
X4246253Y-7018960D02*
X4227206Y-7028484D01*
X4227206Y-7028484D02*
X4198634Y-7028484D01*
X4379587Y-7028484D02*
X4360539Y-7018960D01*
X4360539Y-7018960D02*
X4351015Y-6999912D01*
X4351015Y-6999912D02*
X4351015Y-6828484D01*
X4531968Y-7018960D02*
X4512920Y-7028484D01*
X4512920Y-7028484D02*
X4474825Y-7028484D01*
X4474825Y-7028484D02*
X4455777Y-7018960D01*
X4455777Y-7018960D02*
X4446253Y-6999912D01*
X4446253Y-6999912D02*
X4446253Y-6923722D01*
X4446253Y-6923722D02*
X4455777Y-6904674D01*
X4455777Y-6904674D02*
X4474825Y-6895150D01*
X4474825Y-6895150D02*
X4512920Y-6895150D01*
X4512920Y-6895150D02*
X4531968Y-6904674D01*
X4531968Y-6904674D02*
X4541492Y-6923722D01*
X4541492Y-6923722D02*
X4541492Y-6942769D01*
X4541492Y-6942769D02*
X4446253Y-6961817D01*
X4617682Y-7018960D02*
X4636730Y-7028484D01*
X4636730Y-7028484D02*
X4674825Y-7028484D01*
X4674825Y-7028484D02*
X4693873Y-7018960D01*
X4693873Y-7018960D02*
X4703396Y-6999912D01*
X4703396Y-6999912D02*
X4703396Y-6990388D01*
X4703396Y-6990388D02*
X4693873Y-6971341D01*
X4693873Y-6971341D02*
X4674825Y-6961817D01*
X4674825Y-6961817D02*
X4646253Y-6961817D01*
X4646253Y-6961817D02*
X4627206Y-6952293D01*
X4627206Y-6952293D02*
X4617682Y-6933246D01*
X4617682Y-6933246D02*
X4617682Y-6923722D01*
X4617682Y-6923722D02*
X4627206Y-6904674D01*
X4627206Y-6904674D02*
X4646253Y-6895150D01*
X4646253Y-6895150D02*
X4674825Y-6895150D01*
X4674825Y-6895150D02*
X4693873Y-6904674D01*
X4770063Y-7104674D02*
X4779587Y-7095150D01*
X4779587Y-7095150D02*
X4798634Y-7066579D01*
X4798634Y-7066579D02*
X4808158Y-7047531D01*
X4808158Y-7047531D02*
X4817682Y-7018960D01*
X4817682Y-7018960D02*
X4827206Y-6971341D01*
X4827206Y-6971341D02*
X4827206Y-6933246D01*
X4827206Y-6933246D02*
X4817682Y-6885627D01*
X4817682Y-6885627D02*
X4808158Y-6857055D01*
X4808158Y-6857055D02*
X4798634Y-6838008D01*
X4798634Y-6838008D02*
X4779587Y-6809436D01*
X4779587Y-6809436D02*
X4770063Y-6799912D01*
D15*
X-80000Y-7276000D02*
X-5000Y-7201000D01*
X-80000Y-7126000D01*
X-155000Y-7201000D01*
X-80000Y-7276000D01*
D11*
X360539Y-7292484D02*
X246253Y-7292484D01*
X303396Y-7292484D02*
X303396Y-7092484D01*
X303396Y-7092484D02*
X284348Y-7121055D01*
X284348Y-7121055D02*
X265301Y-7140103D01*
X265301Y-7140103D02*
X246253Y-7149627D01*
X446253Y-7273436D02*
X455777Y-7282960D01*
X455777Y-7282960D02*
X446253Y-7292484D01*
X446253Y-7292484D02*
X436729Y-7282960D01*
X436729Y-7282960D02*
X446253Y-7273436D01*
X446253Y-7273436D02*
X446253Y-7292484D01*
X636729Y-7092484D02*
X541491Y-7092484D01*
X541491Y-7092484D02*
X531967Y-7187722D01*
X531967Y-7187722D02*
X541491Y-7178198D01*
X541491Y-7178198D02*
X560539Y-7168674D01*
X560539Y-7168674D02*
X608158Y-7168674D01*
X608158Y-7168674D02*
X627205Y-7178198D01*
X627205Y-7178198D02*
X636729Y-7187722D01*
X636729Y-7187722D02*
X646253Y-7206769D01*
X646253Y-7206769D02*
X646253Y-7254388D01*
X646253Y-7254388D02*
X636729Y-7273436D01*
X636729Y-7273436D02*
X627205Y-7282960D01*
X627205Y-7282960D02*
X608158Y-7292484D01*
X608158Y-7292484D02*
X560539Y-7292484D01*
X560539Y-7292484D02*
X541491Y-7282960D01*
X541491Y-7282960D02*
X531967Y-7273436D01*
X770062Y-7092484D02*
X789110Y-7092484D01*
X789110Y-7092484D02*
X808158Y-7102008D01*
X808158Y-7102008D02*
X817682Y-7111531D01*
X817682Y-7111531D02*
X827205Y-7130579D01*
X827205Y-7130579D02*
X836729Y-7168674D01*
X836729Y-7168674D02*
X836729Y-7216293D01*
X836729Y-7216293D02*
X827205Y-7254388D01*
X827205Y-7254388D02*
X817682Y-7273436D01*
X817682Y-7273436D02*
X808158Y-7282960D01*
X808158Y-7282960D02*
X789110Y-7292484D01*
X789110Y-7292484D02*
X770062Y-7292484D01*
X770062Y-7292484D02*
X751015Y-7282960D01*
X751015Y-7282960D02*
X741491Y-7273436D01*
X741491Y-7273436D02*
X731967Y-7254388D01*
X731967Y-7254388D02*
X722443Y-7216293D01*
X722443Y-7216293D02*
X722443Y-7168674D01*
X722443Y-7168674D02*
X731967Y-7130579D01*
X731967Y-7130579D02*
X741491Y-7111531D01*
X741491Y-7111531D02*
X751015Y-7102008D01*
X751015Y-7102008D02*
X770062Y-7092484D01*
X960539Y-7092484D02*
X979586Y-7092484D01*
X979586Y-7092484D02*
X998634Y-7102008D01*
X998634Y-7102008D02*
X1008158Y-7111531D01*
X1008158Y-7111531D02*
X1017682Y-7130579D01*
X1017682Y-7130579D02*
X1027205Y-7168674D01*
X1027205Y-7168674D02*
X1027205Y-7216293D01*
X1027205Y-7216293D02*
X1017682Y-7254388D01*
X1017682Y-7254388D02*
X1008158Y-7273436D01*
X1008158Y-7273436D02*
X998634Y-7282960D01*
X998634Y-7282960D02*
X979586Y-7292484D01*
X979586Y-7292484D02*
X960539Y-7292484D01*
X960539Y-7292484D02*
X941491Y-7282960D01*
X941491Y-7282960D02*
X931967Y-7273436D01*
X931967Y-7273436D02*
X922443Y-7254388D01*
X922443Y-7254388D02*
X912920Y-7216293D01*
X912920Y-7216293D02*
X912920Y-7168674D01*
X912920Y-7168674D02*
X922443Y-7130579D01*
X922443Y-7130579D02*
X931967Y-7111531D01*
X931967Y-7111531D02*
X941491Y-7102008D01*
X941491Y-7102008D02*
X960539Y-7092484D01*
X1112920Y-7292484D02*
X1112920Y-7159150D01*
X1112920Y-7178198D02*
X1122444Y-7168674D01*
X1122444Y-7168674D02*
X1141491Y-7159150D01*
X1141491Y-7159150D02*
X1170063Y-7159150D01*
X1170063Y-7159150D02*
X1189110Y-7168674D01*
X1189110Y-7168674D02*
X1198634Y-7187722D01*
X1198634Y-7187722D02*
X1198634Y-7292484D01*
X1198634Y-7187722D02*
X1208158Y-7168674D01*
X1208158Y-7168674D02*
X1227205Y-7159150D01*
X1227205Y-7159150D02*
X1255777Y-7159150D01*
X1255777Y-7159150D02*
X1274825Y-7168674D01*
X1274825Y-7168674D02*
X1284348Y-7187722D01*
X1284348Y-7187722D02*
X1284348Y-7292484D01*
X1379586Y-7292484D02*
X1379586Y-7159150D01*
X1379586Y-7178198D02*
X1389110Y-7168674D01*
X1389110Y-7168674D02*
X1408158Y-7159150D01*
X1408158Y-7159150D02*
X1436729Y-7159150D01*
X1436729Y-7159150D02*
X1455777Y-7168674D01*
X1455777Y-7168674D02*
X1465301Y-7187722D01*
X1465301Y-7187722D02*
X1465301Y-7292484D01*
X1465301Y-7187722D02*
X1474824Y-7168674D01*
X1474824Y-7168674D02*
X1493872Y-7159150D01*
X1493872Y-7159150D02*
X1522443Y-7159150D01*
X1522443Y-7159150D02*
X1541491Y-7168674D01*
X1541491Y-7168674D02*
X1551015Y-7187722D01*
X1551015Y-7187722D02*
X1551015Y-7292484D01*
X1941491Y-7082960D02*
X1770063Y-7340103D01*
X2198634Y-7092484D02*
X2217682Y-7092484D01*
X2217682Y-7092484D02*
X2236729Y-7102008D01*
X2236729Y-7102008D02*
X2246253Y-7111531D01*
X2246253Y-7111531D02*
X2255777Y-7130579D01*
X2255777Y-7130579D02*
X2265301Y-7168674D01*
X2265301Y-7168674D02*
X2265301Y-7216293D01*
X2265301Y-7216293D02*
X2255777Y-7254388D01*
X2255777Y-7254388D02*
X2246253Y-7273436D01*
X2246253Y-7273436D02*
X2236729Y-7282960D01*
X2236729Y-7282960D02*
X2217682Y-7292484D01*
X2217682Y-7292484D02*
X2198634Y-7292484D01*
X2198634Y-7292484D02*
X2179587Y-7282960D01*
X2179587Y-7282960D02*
X2170063Y-7273436D01*
X2170063Y-7273436D02*
X2160539Y-7254388D01*
X2160539Y-7254388D02*
X2151015Y-7216293D01*
X2151015Y-7216293D02*
X2151015Y-7168674D01*
X2151015Y-7168674D02*
X2160539Y-7130579D01*
X2160539Y-7130579D02*
X2170063Y-7111531D01*
X2170063Y-7111531D02*
X2179587Y-7102008D01*
X2179587Y-7102008D02*
X2198634Y-7092484D01*
X2351015Y-7273436D02*
X2360539Y-7282960D01*
X2360539Y-7282960D02*
X2351015Y-7292484D01*
X2351015Y-7292484D02*
X2341491Y-7282960D01*
X2341491Y-7282960D02*
X2351015Y-7273436D01*
X2351015Y-7273436D02*
X2351015Y-7292484D01*
X2484348Y-7092484D02*
X2503396Y-7092484D01*
X2503396Y-7092484D02*
X2522444Y-7102008D01*
X2522444Y-7102008D02*
X2531968Y-7111531D01*
X2531968Y-7111531D02*
X2541491Y-7130579D01*
X2541491Y-7130579D02*
X2551015Y-7168674D01*
X2551015Y-7168674D02*
X2551015Y-7216293D01*
X2551015Y-7216293D02*
X2541491Y-7254388D01*
X2541491Y-7254388D02*
X2531968Y-7273436D01*
X2531968Y-7273436D02*
X2522444Y-7282960D01*
X2522444Y-7282960D02*
X2503396Y-7292484D01*
X2503396Y-7292484D02*
X2484348Y-7292484D01*
X2484348Y-7292484D02*
X2465301Y-7282960D01*
X2465301Y-7282960D02*
X2455777Y-7273436D01*
X2455777Y-7273436D02*
X2446253Y-7254388D01*
X2446253Y-7254388D02*
X2436729Y-7216293D01*
X2436729Y-7216293D02*
X2436729Y-7168674D01*
X2436729Y-7168674D02*
X2446253Y-7130579D01*
X2446253Y-7130579D02*
X2455777Y-7111531D01*
X2455777Y-7111531D02*
X2465301Y-7102008D01*
X2465301Y-7102008D02*
X2484348Y-7092484D01*
X2731968Y-7092484D02*
X2636729Y-7092484D01*
X2636729Y-7092484D02*
X2627206Y-7187722D01*
X2627206Y-7187722D02*
X2636729Y-7178198D01*
X2636729Y-7178198D02*
X2655777Y-7168674D01*
X2655777Y-7168674D02*
X2703396Y-7168674D01*
X2703396Y-7168674D02*
X2722444Y-7178198D01*
X2722444Y-7178198D02*
X2731968Y-7187722D01*
X2731968Y-7187722D02*
X2741491Y-7206769D01*
X2741491Y-7206769D02*
X2741491Y-7254388D01*
X2741491Y-7254388D02*
X2731968Y-7273436D01*
X2731968Y-7273436D02*
X2722444Y-7282960D01*
X2722444Y-7282960D02*
X2703396Y-7292484D01*
X2703396Y-7292484D02*
X2655777Y-7292484D01*
X2655777Y-7292484D02*
X2636729Y-7282960D01*
X2636729Y-7282960D02*
X2627206Y-7273436D01*
X2836729Y-7292484D02*
X2874825Y-7292484D01*
X2874825Y-7292484D02*
X2893872Y-7282960D01*
X2893872Y-7282960D02*
X2903396Y-7273436D01*
X2903396Y-7273436D02*
X2922444Y-7244865D01*
X2922444Y-7244865D02*
X2931967Y-7206769D01*
X2931967Y-7206769D02*
X2931967Y-7130579D01*
X2931967Y-7130579D02*
X2922444Y-7111531D01*
X2922444Y-7111531D02*
X2912920Y-7102008D01*
X2912920Y-7102008D02*
X2893872Y-7092484D01*
X2893872Y-7092484D02*
X2855777Y-7092484D01*
X2855777Y-7092484D02*
X2836729Y-7102008D01*
X2836729Y-7102008D02*
X2827206Y-7111531D01*
X2827206Y-7111531D02*
X2817682Y-7130579D01*
X2817682Y-7130579D02*
X2817682Y-7178198D01*
X2817682Y-7178198D02*
X2827206Y-7197246D01*
X2827206Y-7197246D02*
X2836729Y-7206769D01*
X2836729Y-7206769D02*
X2855777Y-7216293D01*
X2855777Y-7216293D02*
X2893872Y-7216293D01*
X2893872Y-7216293D02*
X2912920Y-7206769D01*
X2912920Y-7206769D02*
X2922444Y-7197246D01*
X2922444Y-7197246D02*
X2931967Y-7178198D01*
X3122444Y-7292484D02*
X3008158Y-7292484D01*
X3065301Y-7292484D02*
X3065301Y-7092484D01*
X3065301Y-7092484D02*
X3046253Y-7121055D01*
X3046253Y-7121055D02*
X3027206Y-7140103D01*
X3027206Y-7140103D02*
X3008158Y-7149627D01*
X3198634Y-7092484D02*
X3198634Y-7130579D01*
X3274825Y-7092484D02*
X3274825Y-7130579D01*
X3570063Y-7368674D02*
X3560539Y-7359150D01*
X3560539Y-7359150D02*
X3541491Y-7330579D01*
X3541491Y-7330579D02*
X3531968Y-7311531D01*
X3531968Y-7311531D02*
X3522444Y-7282960D01*
X3522444Y-7282960D02*
X3512920Y-7235341D01*
X3512920Y-7235341D02*
X3512920Y-7197246D01*
X3512920Y-7197246D02*
X3522444Y-7149627D01*
X3522444Y-7149627D02*
X3531968Y-7121055D01*
X3531968Y-7121055D02*
X3541491Y-7102008D01*
X3541491Y-7102008D02*
X3560539Y-7073436D01*
X3560539Y-7073436D02*
X3570063Y-7063912D01*
X3684348Y-7092484D02*
X3703396Y-7092484D01*
X3703396Y-7092484D02*
X3722444Y-7102008D01*
X3722444Y-7102008D02*
X3731968Y-7111531D01*
X3731968Y-7111531D02*
X3741491Y-7130579D01*
X3741491Y-7130579D02*
X3751015Y-7168674D01*
X3751015Y-7168674D02*
X3751015Y-7216293D01*
X3751015Y-7216293D02*
X3741491Y-7254388D01*
X3741491Y-7254388D02*
X3731968Y-7273436D01*
X3731968Y-7273436D02*
X3722444Y-7282960D01*
X3722444Y-7282960D02*
X3703396Y-7292484D01*
X3703396Y-7292484D02*
X3684348Y-7292484D01*
X3684348Y-7292484D02*
X3665301Y-7282960D01*
X3665301Y-7282960D02*
X3655777Y-7273436D01*
X3655777Y-7273436D02*
X3646253Y-7254388D01*
X3646253Y-7254388D02*
X3636729Y-7216293D01*
X3636729Y-7216293D02*
X3636729Y-7168674D01*
X3636729Y-7168674D02*
X3646253Y-7130579D01*
X3646253Y-7130579D02*
X3655777Y-7111531D01*
X3655777Y-7111531D02*
X3665301Y-7102008D01*
X3665301Y-7102008D02*
X3684348Y-7092484D01*
X3989110Y-7292484D02*
X3989110Y-7092484D01*
X4074825Y-7292484D02*
X4074825Y-7187722D01*
X4074825Y-7187722D02*
X4065301Y-7168674D01*
X4065301Y-7168674D02*
X4046253Y-7159150D01*
X4046253Y-7159150D02*
X4017682Y-7159150D01*
X4017682Y-7159150D02*
X3998634Y-7168674D01*
X3998634Y-7168674D02*
X3989110Y-7178198D01*
X4198634Y-7292484D02*
X4179587Y-7282960D01*
X4179587Y-7282960D02*
X4170063Y-7273436D01*
X4170063Y-7273436D02*
X4160539Y-7254388D01*
X4160539Y-7254388D02*
X4160539Y-7197246D01*
X4160539Y-7197246D02*
X4170063Y-7178198D01*
X4170063Y-7178198D02*
X4179587Y-7168674D01*
X4179587Y-7168674D02*
X4198634Y-7159150D01*
X4198634Y-7159150D02*
X4227206Y-7159150D01*
X4227206Y-7159150D02*
X4246253Y-7168674D01*
X4246253Y-7168674D02*
X4255777Y-7178198D01*
X4255777Y-7178198D02*
X4265301Y-7197246D01*
X4265301Y-7197246D02*
X4265301Y-7254388D01*
X4265301Y-7254388D02*
X4255777Y-7273436D01*
X4255777Y-7273436D02*
X4246253Y-7282960D01*
X4246253Y-7282960D02*
X4227206Y-7292484D01*
X4227206Y-7292484D02*
X4198634Y-7292484D01*
X4379587Y-7292484D02*
X4360539Y-7282960D01*
X4360539Y-7282960D02*
X4351015Y-7263912D01*
X4351015Y-7263912D02*
X4351015Y-7092484D01*
X4531968Y-7282960D02*
X4512920Y-7292484D01*
X4512920Y-7292484D02*
X4474825Y-7292484D01*
X4474825Y-7292484D02*
X4455777Y-7282960D01*
X4455777Y-7282960D02*
X4446253Y-7263912D01*
X4446253Y-7263912D02*
X4446253Y-7187722D01*
X4446253Y-7187722D02*
X4455777Y-7168674D01*
X4455777Y-7168674D02*
X4474825Y-7159150D01*
X4474825Y-7159150D02*
X4512920Y-7159150D01*
X4512920Y-7159150D02*
X4531968Y-7168674D01*
X4531968Y-7168674D02*
X4541492Y-7187722D01*
X4541492Y-7187722D02*
X4541492Y-7206769D01*
X4541492Y-7206769D02*
X4446253Y-7225817D01*
X4617682Y-7282960D02*
X4636730Y-7292484D01*
X4636730Y-7292484D02*
X4674825Y-7292484D01*
X4674825Y-7292484D02*
X4693873Y-7282960D01*
X4693873Y-7282960D02*
X4703396Y-7263912D01*
X4703396Y-7263912D02*
X4703396Y-7254388D01*
X4703396Y-7254388D02*
X4693873Y-7235341D01*
X4693873Y-7235341D02*
X4674825Y-7225817D01*
X4674825Y-7225817D02*
X4646253Y-7225817D01*
X4646253Y-7225817D02*
X4627206Y-7216293D01*
X4627206Y-7216293D02*
X4617682Y-7197246D01*
X4617682Y-7197246D02*
X4617682Y-7187722D01*
X4617682Y-7187722D02*
X4627206Y-7168674D01*
X4627206Y-7168674D02*
X4646253Y-7159150D01*
X4646253Y-7159150D02*
X4674825Y-7159150D01*
X4674825Y-7159150D02*
X4693873Y-7168674D01*
X4941492Y-7216293D02*
X5093873Y-7216293D01*
X5017682Y-7292484D02*
X5017682Y-7140103D01*
X5331968Y-7111531D02*
X5341492Y-7102008D01*
X5341492Y-7102008D02*
X5360539Y-7092484D01*
X5360539Y-7092484D02*
X5408158Y-7092484D01*
X5408158Y-7092484D02*
X5427206Y-7102008D01*
X5427206Y-7102008D02*
X5436730Y-7111531D01*
X5436730Y-7111531D02*
X5446254Y-7130579D01*
X5446254Y-7130579D02*
X5446254Y-7149627D01*
X5446254Y-7149627D02*
X5436730Y-7178198D01*
X5436730Y-7178198D02*
X5322444Y-7292484D01*
X5322444Y-7292484D02*
X5446254Y-7292484D01*
X5674825Y-7282960D02*
X5693873Y-7292484D01*
X5693873Y-7292484D02*
X5731968Y-7292484D01*
X5731968Y-7292484D02*
X5751015Y-7282960D01*
X5751015Y-7282960D02*
X5760539Y-7263912D01*
X5760539Y-7263912D02*
X5760539Y-7254388D01*
X5760539Y-7254388D02*
X5751015Y-7235341D01*
X5751015Y-7235341D02*
X5731968Y-7225817D01*
X5731968Y-7225817D02*
X5703396Y-7225817D01*
X5703396Y-7225817D02*
X5684349Y-7216293D01*
X5684349Y-7216293D02*
X5674825Y-7197246D01*
X5674825Y-7197246D02*
X5674825Y-7187722D01*
X5674825Y-7187722D02*
X5684349Y-7168674D01*
X5684349Y-7168674D02*
X5703396Y-7159150D01*
X5703396Y-7159150D02*
X5731968Y-7159150D01*
X5731968Y-7159150D02*
X5751015Y-7168674D01*
X5874825Y-7292484D02*
X5855777Y-7282960D01*
X5855777Y-7282960D02*
X5846254Y-7263912D01*
X5846254Y-7263912D02*
X5846254Y-7092484D01*
X5979587Y-7292484D02*
X5960539Y-7282960D01*
X5960539Y-7282960D02*
X5951015Y-7273436D01*
X5951015Y-7273436D02*
X5941492Y-7254388D01*
X5941492Y-7254388D02*
X5941492Y-7197246D01*
X5941492Y-7197246D02*
X5951015Y-7178198D01*
X5951015Y-7178198D02*
X5960539Y-7168674D01*
X5960539Y-7168674D02*
X5979587Y-7159150D01*
X5979587Y-7159150D02*
X6008158Y-7159150D01*
X6008158Y-7159150D02*
X6027206Y-7168674D01*
X6027206Y-7168674D02*
X6036730Y-7178198D01*
X6036730Y-7178198D02*
X6046254Y-7197246D01*
X6046254Y-7197246D02*
X6046254Y-7254388D01*
X6046254Y-7254388D02*
X6036730Y-7273436D01*
X6036730Y-7273436D02*
X6027206Y-7282960D01*
X6027206Y-7282960D02*
X6008158Y-7292484D01*
X6008158Y-7292484D02*
X5979587Y-7292484D01*
X6103396Y-7159150D02*
X6179587Y-7159150D01*
X6131968Y-7092484D02*
X6131968Y-7263912D01*
X6131968Y-7263912D02*
X6141492Y-7282960D01*
X6141492Y-7282960D02*
X6160539Y-7292484D01*
X6160539Y-7292484D02*
X6179587Y-7292484D01*
X6236730Y-7282960D02*
X6255777Y-7292484D01*
X6255777Y-7292484D02*
X6293873Y-7292484D01*
X6293873Y-7292484D02*
X6312920Y-7282960D01*
X6312920Y-7282960D02*
X6322444Y-7263912D01*
X6322444Y-7263912D02*
X6322444Y-7254388D01*
X6322444Y-7254388D02*
X6312920Y-7235341D01*
X6312920Y-7235341D02*
X6293873Y-7225817D01*
X6293873Y-7225817D02*
X6265301Y-7225817D01*
X6265301Y-7225817D02*
X6246254Y-7216293D01*
X6246254Y-7216293D02*
X6236730Y-7197246D01*
X6236730Y-7197246D02*
X6236730Y-7187722D01*
X6236730Y-7187722D02*
X6246254Y-7168674D01*
X6246254Y-7168674D02*
X6265301Y-7159150D01*
X6265301Y-7159150D02*
X6293873Y-7159150D01*
X6293873Y-7159150D02*
X6312920Y-7168674D01*
X6389111Y-7368674D02*
X6398635Y-7359150D01*
X6398635Y-7359150D02*
X6417682Y-7330579D01*
X6417682Y-7330579D02*
X6427206Y-7311531D01*
X6427206Y-7311531D02*
X6436730Y-7282960D01*
X6436730Y-7282960D02*
X6446254Y-7235341D01*
X6446254Y-7235341D02*
X6446254Y-7197246D01*
X6446254Y-7197246D02*
X6436730Y-7149627D01*
X6436730Y-7149627D02*
X6427206Y-7121055D01*
X6427206Y-7121055D02*
X6417682Y-7102008D01*
X6417682Y-7102008D02*
X6398635Y-7073436D01*
X6398635Y-7073436D02*
X6389111Y-7063912D01*
X-205000Y-7371000D02*
X-5000Y-7571000D01*
X-5000Y-7371000D02*
X-205000Y-7571000D01*
X-5000Y-7471000D02*
G75*
G03*
X-5000Y-7471000I-100000J0D01*
G01*
X246253Y-7381531D02*
X255777Y-7372008D01*
X255777Y-7372008D02*
X274824Y-7362484D01*
X274824Y-7362484D02*
X322444Y-7362484D01*
X322444Y-7362484D02*
X341491Y-7372008D01*
X341491Y-7372008D02*
X351015Y-7381531D01*
X351015Y-7381531D02*
X360539Y-7400579D01*
X360539Y-7400579D02*
X360539Y-7419627D01*
X360539Y-7419627D02*
X351015Y-7448198D01*
X351015Y-7448198D02*
X236729Y-7562484D01*
X236729Y-7562484D02*
X360539Y-7562484D01*
X446253Y-7543436D02*
X455777Y-7552960D01*
X455777Y-7552960D02*
X446253Y-7562484D01*
X446253Y-7562484D02*
X436729Y-7552960D01*
X436729Y-7552960D02*
X446253Y-7543436D01*
X446253Y-7543436D02*
X446253Y-7562484D01*
X579586Y-7362484D02*
X598634Y-7362484D01*
X598634Y-7362484D02*
X617682Y-7372008D01*
X617682Y-7372008D02*
X627205Y-7381531D01*
X627205Y-7381531D02*
X636729Y-7400579D01*
X636729Y-7400579D02*
X646253Y-7438674D01*
X646253Y-7438674D02*
X646253Y-7486293D01*
X646253Y-7486293D02*
X636729Y-7524388D01*
X636729Y-7524388D02*
X627205Y-7543436D01*
X627205Y-7543436D02*
X617682Y-7552960D01*
X617682Y-7552960D02*
X598634Y-7562484D01*
X598634Y-7562484D02*
X579586Y-7562484D01*
X579586Y-7562484D02*
X560539Y-7552960D01*
X560539Y-7552960D02*
X551015Y-7543436D01*
X551015Y-7543436D02*
X541491Y-7524388D01*
X541491Y-7524388D02*
X531967Y-7486293D01*
X531967Y-7486293D02*
X531967Y-7438674D01*
X531967Y-7438674D02*
X541491Y-7400579D01*
X541491Y-7400579D02*
X551015Y-7381531D01*
X551015Y-7381531D02*
X560539Y-7372008D01*
X560539Y-7372008D02*
X579586Y-7362484D01*
X770062Y-7362484D02*
X789110Y-7362484D01*
X789110Y-7362484D02*
X808158Y-7372008D01*
X808158Y-7372008D02*
X817682Y-7381531D01*
X817682Y-7381531D02*
X827205Y-7400579D01*
X827205Y-7400579D02*
X836729Y-7438674D01*
X836729Y-7438674D02*
X836729Y-7486293D01*
X836729Y-7486293D02*
X827205Y-7524388D01*
X827205Y-7524388D02*
X817682Y-7543436D01*
X817682Y-7543436D02*
X808158Y-7552960D01*
X808158Y-7552960D02*
X789110Y-7562484D01*
X789110Y-7562484D02*
X770062Y-7562484D01*
X770062Y-7562484D02*
X751015Y-7552960D01*
X751015Y-7552960D02*
X741491Y-7543436D01*
X741491Y-7543436D02*
X731967Y-7524388D01*
X731967Y-7524388D02*
X722443Y-7486293D01*
X722443Y-7486293D02*
X722443Y-7438674D01*
X722443Y-7438674D02*
X731967Y-7400579D01*
X731967Y-7400579D02*
X741491Y-7381531D01*
X741491Y-7381531D02*
X751015Y-7372008D01*
X751015Y-7372008D02*
X770062Y-7362484D01*
X960539Y-7362484D02*
X979586Y-7362484D01*
X979586Y-7362484D02*
X998634Y-7372008D01*
X998634Y-7372008D02*
X1008158Y-7381531D01*
X1008158Y-7381531D02*
X1017682Y-7400579D01*
X1017682Y-7400579D02*
X1027205Y-7438674D01*
X1027205Y-7438674D02*
X1027205Y-7486293D01*
X1027205Y-7486293D02*
X1017682Y-7524388D01*
X1017682Y-7524388D02*
X1008158Y-7543436D01*
X1008158Y-7543436D02*
X998634Y-7552960D01*
X998634Y-7552960D02*
X979586Y-7562484D01*
X979586Y-7562484D02*
X960539Y-7562484D01*
X960539Y-7562484D02*
X941491Y-7552960D01*
X941491Y-7552960D02*
X931967Y-7543436D01*
X931967Y-7543436D02*
X922443Y-7524388D01*
X922443Y-7524388D02*
X912920Y-7486293D01*
X912920Y-7486293D02*
X912920Y-7438674D01*
X912920Y-7438674D02*
X922443Y-7400579D01*
X922443Y-7400579D02*
X931967Y-7381531D01*
X931967Y-7381531D02*
X941491Y-7372008D01*
X941491Y-7372008D02*
X960539Y-7362484D01*
X1112920Y-7562484D02*
X1112920Y-7429150D01*
X1112920Y-7448198D02*
X1122444Y-7438674D01*
X1122444Y-7438674D02*
X1141491Y-7429150D01*
X1141491Y-7429150D02*
X1170063Y-7429150D01*
X1170063Y-7429150D02*
X1189110Y-7438674D01*
X1189110Y-7438674D02*
X1198634Y-7457722D01*
X1198634Y-7457722D02*
X1198634Y-7562484D01*
X1198634Y-7457722D02*
X1208158Y-7438674D01*
X1208158Y-7438674D02*
X1227205Y-7429150D01*
X1227205Y-7429150D02*
X1255777Y-7429150D01*
X1255777Y-7429150D02*
X1274825Y-7438674D01*
X1274825Y-7438674D02*
X1284348Y-7457722D01*
X1284348Y-7457722D02*
X1284348Y-7562484D01*
X1379586Y-7562484D02*
X1379586Y-7429150D01*
X1379586Y-7448198D02*
X1389110Y-7438674D01*
X1389110Y-7438674D02*
X1408158Y-7429150D01*
X1408158Y-7429150D02*
X1436729Y-7429150D01*
X1436729Y-7429150D02*
X1455777Y-7438674D01*
X1455777Y-7438674D02*
X1465301Y-7457722D01*
X1465301Y-7457722D02*
X1465301Y-7562484D01*
X1465301Y-7457722D02*
X1474824Y-7438674D01*
X1474824Y-7438674D02*
X1493872Y-7429150D01*
X1493872Y-7429150D02*
X1522443Y-7429150D01*
X1522443Y-7429150D02*
X1541491Y-7438674D01*
X1541491Y-7438674D02*
X1551015Y-7457722D01*
X1551015Y-7457722D02*
X1551015Y-7562484D01*
X1941491Y-7352960D02*
X1770063Y-7610103D01*
X2198634Y-7362484D02*
X2217682Y-7362484D01*
X2217682Y-7362484D02*
X2236729Y-7372008D01*
X2236729Y-7372008D02*
X2246253Y-7381531D01*
X2246253Y-7381531D02*
X2255777Y-7400579D01*
X2255777Y-7400579D02*
X2265301Y-7438674D01*
X2265301Y-7438674D02*
X2265301Y-7486293D01*
X2265301Y-7486293D02*
X2255777Y-7524388D01*
X2255777Y-7524388D02*
X2246253Y-7543436D01*
X2246253Y-7543436D02*
X2236729Y-7552960D01*
X2236729Y-7552960D02*
X2217682Y-7562484D01*
X2217682Y-7562484D02*
X2198634Y-7562484D01*
X2198634Y-7562484D02*
X2179587Y-7552960D01*
X2179587Y-7552960D02*
X2170063Y-7543436D01*
X2170063Y-7543436D02*
X2160539Y-7524388D01*
X2160539Y-7524388D02*
X2151015Y-7486293D01*
X2151015Y-7486293D02*
X2151015Y-7438674D01*
X2151015Y-7438674D02*
X2160539Y-7400579D01*
X2160539Y-7400579D02*
X2170063Y-7381531D01*
X2170063Y-7381531D02*
X2179587Y-7372008D01*
X2179587Y-7372008D02*
X2198634Y-7362484D01*
X2351015Y-7543436D02*
X2360539Y-7552960D01*
X2360539Y-7552960D02*
X2351015Y-7562484D01*
X2351015Y-7562484D02*
X2341491Y-7552960D01*
X2341491Y-7552960D02*
X2351015Y-7543436D01*
X2351015Y-7543436D02*
X2351015Y-7562484D01*
X2484348Y-7362484D02*
X2503396Y-7362484D01*
X2503396Y-7362484D02*
X2522444Y-7372008D01*
X2522444Y-7372008D02*
X2531968Y-7381531D01*
X2531968Y-7381531D02*
X2541491Y-7400579D01*
X2541491Y-7400579D02*
X2551015Y-7438674D01*
X2551015Y-7438674D02*
X2551015Y-7486293D01*
X2551015Y-7486293D02*
X2541491Y-7524388D01*
X2541491Y-7524388D02*
X2531968Y-7543436D01*
X2531968Y-7543436D02*
X2522444Y-7552960D01*
X2522444Y-7552960D02*
X2503396Y-7562484D01*
X2503396Y-7562484D02*
X2484348Y-7562484D01*
X2484348Y-7562484D02*
X2465301Y-7552960D01*
X2465301Y-7552960D02*
X2455777Y-7543436D01*
X2455777Y-7543436D02*
X2446253Y-7524388D01*
X2446253Y-7524388D02*
X2436729Y-7486293D01*
X2436729Y-7486293D02*
X2436729Y-7438674D01*
X2436729Y-7438674D02*
X2446253Y-7400579D01*
X2446253Y-7400579D02*
X2455777Y-7381531D01*
X2455777Y-7381531D02*
X2465301Y-7372008D01*
X2465301Y-7372008D02*
X2484348Y-7362484D01*
X2617682Y-7362484D02*
X2751015Y-7362484D01*
X2751015Y-7362484D02*
X2665301Y-7562484D01*
X2855777Y-7448198D02*
X2836729Y-7438674D01*
X2836729Y-7438674D02*
X2827206Y-7429150D01*
X2827206Y-7429150D02*
X2817682Y-7410103D01*
X2817682Y-7410103D02*
X2817682Y-7400579D01*
X2817682Y-7400579D02*
X2827206Y-7381531D01*
X2827206Y-7381531D02*
X2836729Y-7372008D01*
X2836729Y-7372008D02*
X2855777Y-7362484D01*
X2855777Y-7362484D02*
X2893872Y-7362484D01*
X2893872Y-7362484D02*
X2912920Y-7372008D01*
X2912920Y-7372008D02*
X2922444Y-7381531D01*
X2922444Y-7381531D02*
X2931967Y-7400579D01*
X2931967Y-7400579D02*
X2931967Y-7410103D01*
X2931967Y-7410103D02*
X2922444Y-7429150D01*
X2922444Y-7429150D02*
X2912920Y-7438674D01*
X2912920Y-7438674D02*
X2893872Y-7448198D01*
X2893872Y-7448198D02*
X2855777Y-7448198D01*
X2855777Y-7448198D02*
X2836729Y-7457722D01*
X2836729Y-7457722D02*
X2827206Y-7467246D01*
X2827206Y-7467246D02*
X2817682Y-7486293D01*
X2817682Y-7486293D02*
X2817682Y-7524388D01*
X2817682Y-7524388D02*
X2827206Y-7543436D01*
X2827206Y-7543436D02*
X2836729Y-7552960D01*
X2836729Y-7552960D02*
X2855777Y-7562484D01*
X2855777Y-7562484D02*
X2893872Y-7562484D01*
X2893872Y-7562484D02*
X2912920Y-7552960D01*
X2912920Y-7552960D02*
X2922444Y-7543436D01*
X2922444Y-7543436D02*
X2931967Y-7524388D01*
X2931967Y-7524388D02*
X2931967Y-7486293D01*
X2931967Y-7486293D02*
X2922444Y-7467246D01*
X2922444Y-7467246D02*
X2912920Y-7457722D01*
X2912920Y-7457722D02*
X2893872Y-7448198D01*
X2998634Y-7362484D02*
X3131967Y-7362484D01*
X3131967Y-7362484D02*
X3046253Y-7562484D01*
X3198634Y-7362484D02*
X3198634Y-7400579D01*
X3274825Y-7362484D02*
X3274825Y-7400579D01*
X3570063Y-7638674D02*
X3560539Y-7629150D01*
X3560539Y-7629150D02*
X3541491Y-7600579D01*
X3541491Y-7600579D02*
X3531968Y-7581531D01*
X3531968Y-7581531D02*
X3522444Y-7552960D01*
X3522444Y-7552960D02*
X3512920Y-7505341D01*
X3512920Y-7505341D02*
X3512920Y-7467246D01*
X3512920Y-7467246D02*
X3522444Y-7419627D01*
X3522444Y-7419627D02*
X3531968Y-7391055D01*
X3531968Y-7391055D02*
X3541491Y-7372008D01*
X3541491Y-7372008D02*
X3560539Y-7343436D01*
X3560539Y-7343436D02*
X3570063Y-7333912D01*
X3636729Y-7381531D02*
X3646253Y-7372008D01*
X3646253Y-7372008D02*
X3665301Y-7362484D01*
X3665301Y-7362484D02*
X3712920Y-7362484D01*
X3712920Y-7362484D02*
X3731968Y-7372008D01*
X3731968Y-7372008D02*
X3741491Y-7381531D01*
X3741491Y-7381531D02*
X3751015Y-7400579D01*
X3751015Y-7400579D02*
X3751015Y-7419627D01*
X3751015Y-7419627D02*
X3741491Y-7448198D01*
X3741491Y-7448198D02*
X3627206Y-7562484D01*
X3627206Y-7562484D02*
X3751015Y-7562484D01*
X3989110Y-7562484D02*
X3989110Y-7362484D01*
X4074825Y-7562484D02*
X4074825Y-7457722D01*
X4074825Y-7457722D02*
X4065301Y-7438674D01*
X4065301Y-7438674D02*
X4046253Y-7429150D01*
X4046253Y-7429150D02*
X4017682Y-7429150D01*
X4017682Y-7429150D02*
X3998634Y-7438674D01*
X3998634Y-7438674D02*
X3989110Y-7448198D01*
X4198634Y-7562484D02*
X4179587Y-7552960D01*
X4179587Y-7552960D02*
X4170063Y-7543436D01*
X4170063Y-7543436D02*
X4160539Y-7524388D01*
X4160539Y-7524388D02*
X4160539Y-7467246D01*
X4160539Y-7467246D02*
X4170063Y-7448198D01*
X4170063Y-7448198D02*
X4179587Y-7438674D01*
X4179587Y-7438674D02*
X4198634Y-7429150D01*
X4198634Y-7429150D02*
X4227206Y-7429150D01*
X4227206Y-7429150D02*
X4246253Y-7438674D01*
X4246253Y-7438674D02*
X4255777Y-7448198D01*
X4255777Y-7448198D02*
X4265301Y-7467246D01*
X4265301Y-7467246D02*
X4265301Y-7524388D01*
X4265301Y-7524388D02*
X4255777Y-7543436D01*
X4255777Y-7543436D02*
X4246253Y-7552960D01*
X4246253Y-7552960D02*
X4227206Y-7562484D01*
X4227206Y-7562484D02*
X4198634Y-7562484D01*
X4379587Y-7562484D02*
X4360539Y-7552960D01*
X4360539Y-7552960D02*
X4351015Y-7533912D01*
X4351015Y-7533912D02*
X4351015Y-7362484D01*
X4531968Y-7552960D02*
X4512920Y-7562484D01*
X4512920Y-7562484D02*
X4474825Y-7562484D01*
X4474825Y-7562484D02*
X4455777Y-7552960D01*
X4455777Y-7552960D02*
X4446253Y-7533912D01*
X4446253Y-7533912D02*
X4446253Y-7457722D01*
X4446253Y-7457722D02*
X4455777Y-7438674D01*
X4455777Y-7438674D02*
X4474825Y-7429150D01*
X4474825Y-7429150D02*
X4512920Y-7429150D01*
X4512920Y-7429150D02*
X4531968Y-7438674D01*
X4531968Y-7438674D02*
X4541492Y-7457722D01*
X4541492Y-7457722D02*
X4541492Y-7476769D01*
X4541492Y-7476769D02*
X4446253Y-7495817D01*
X4617682Y-7552960D02*
X4636730Y-7562484D01*
X4636730Y-7562484D02*
X4674825Y-7562484D01*
X4674825Y-7562484D02*
X4693873Y-7552960D01*
X4693873Y-7552960D02*
X4703396Y-7533912D01*
X4703396Y-7533912D02*
X4703396Y-7524388D01*
X4703396Y-7524388D02*
X4693873Y-7505341D01*
X4693873Y-7505341D02*
X4674825Y-7495817D01*
X4674825Y-7495817D02*
X4646253Y-7495817D01*
X4646253Y-7495817D02*
X4627206Y-7486293D01*
X4627206Y-7486293D02*
X4617682Y-7467246D01*
X4617682Y-7467246D02*
X4617682Y-7457722D01*
X4617682Y-7457722D02*
X4627206Y-7438674D01*
X4627206Y-7438674D02*
X4646253Y-7429150D01*
X4646253Y-7429150D02*
X4674825Y-7429150D01*
X4674825Y-7429150D02*
X4693873Y-7438674D01*
X4770063Y-7638674D02*
X4779587Y-7629150D01*
X4779587Y-7629150D02*
X4798634Y-7600579D01*
X4798634Y-7600579D02*
X4808158Y-7581531D01*
X4808158Y-7581531D02*
X4817682Y-7552960D01*
X4817682Y-7552960D02*
X4827206Y-7505341D01*
X4827206Y-7505341D02*
X4827206Y-7467246D01*
X4827206Y-7467246D02*
X4817682Y-7419627D01*
X4817682Y-7419627D02*
X4808158Y-7391055D01*
X4808158Y-7391055D02*
X4798634Y-7372008D01*
X4798634Y-7372008D02*
X4779587Y-7343436D01*
X4779587Y-7343436D02*
X4770063Y-7333912D01*
X-205000Y-7691000D02*
X-5000Y-7891000D01*
X-5000Y-7691000D02*
X-205000Y-7891000D01*
X-105000Y-7691000D02*
X-105000Y-7891000D01*
X-205000Y-7791000D02*
X-5000Y-7791000D01*
X236729Y-7682484D02*
X360539Y-7682484D01*
X360539Y-7682484D02*
X293872Y-7758674D01*
X293872Y-7758674D02*
X322444Y-7758674D01*
X322444Y-7758674D02*
X341491Y-7768198D01*
X341491Y-7768198D02*
X351015Y-7777722D01*
X351015Y-7777722D02*
X360539Y-7796769D01*
X360539Y-7796769D02*
X360539Y-7844388D01*
X360539Y-7844388D02*
X351015Y-7863436D01*
X351015Y-7863436D02*
X341491Y-7872960D01*
X341491Y-7872960D02*
X322444Y-7882484D01*
X322444Y-7882484D02*
X265301Y-7882484D01*
X265301Y-7882484D02*
X246253Y-7872960D01*
X246253Y-7872960D02*
X236729Y-7863436D01*
X446253Y-7863436D02*
X455777Y-7872960D01*
X455777Y-7872960D02*
X446253Y-7882484D01*
X446253Y-7882484D02*
X436729Y-7872960D01*
X436729Y-7872960D02*
X446253Y-7863436D01*
X446253Y-7863436D02*
X446253Y-7882484D01*
X531967Y-7701531D02*
X541491Y-7692008D01*
X541491Y-7692008D02*
X560539Y-7682484D01*
X560539Y-7682484D02*
X608158Y-7682484D01*
X608158Y-7682484D02*
X627205Y-7692008D01*
X627205Y-7692008D02*
X636729Y-7701531D01*
X636729Y-7701531D02*
X646253Y-7720579D01*
X646253Y-7720579D02*
X646253Y-7739627D01*
X646253Y-7739627D02*
X636729Y-7768198D01*
X636729Y-7768198D02*
X522443Y-7882484D01*
X522443Y-7882484D02*
X646253Y-7882484D01*
X770062Y-7682484D02*
X789110Y-7682484D01*
X789110Y-7682484D02*
X808158Y-7692008D01*
X808158Y-7692008D02*
X817682Y-7701531D01*
X817682Y-7701531D02*
X827205Y-7720579D01*
X827205Y-7720579D02*
X836729Y-7758674D01*
X836729Y-7758674D02*
X836729Y-7806293D01*
X836729Y-7806293D02*
X827205Y-7844388D01*
X827205Y-7844388D02*
X817682Y-7863436D01*
X817682Y-7863436D02*
X808158Y-7872960D01*
X808158Y-7872960D02*
X789110Y-7882484D01*
X789110Y-7882484D02*
X770062Y-7882484D01*
X770062Y-7882484D02*
X751015Y-7872960D01*
X751015Y-7872960D02*
X741491Y-7863436D01*
X741491Y-7863436D02*
X731967Y-7844388D01*
X731967Y-7844388D02*
X722443Y-7806293D01*
X722443Y-7806293D02*
X722443Y-7758674D01*
X722443Y-7758674D02*
X731967Y-7720579D01*
X731967Y-7720579D02*
X741491Y-7701531D01*
X741491Y-7701531D02*
X751015Y-7692008D01*
X751015Y-7692008D02*
X770062Y-7682484D01*
X960539Y-7682484D02*
X979586Y-7682484D01*
X979586Y-7682484D02*
X998634Y-7692008D01*
X998634Y-7692008D02*
X1008158Y-7701531D01*
X1008158Y-7701531D02*
X1017682Y-7720579D01*
X1017682Y-7720579D02*
X1027205Y-7758674D01*
X1027205Y-7758674D02*
X1027205Y-7806293D01*
X1027205Y-7806293D02*
X1017682Y-7844388D01*
X1017682Y-7844388D02*
X1008158Y-7863436D01*
X1008158Y-7863436D02*
X998634Y-7872960D01*
X998634Y-7872960D02*
X979586Y-7882484D01*
X979586Y-7882484D02*
X960539Y-7882484D01*
X960539Y-7882484D02*
X941491Y-7872960D01*
X941491Y-7872960D02*
X931967Y-7863436D01*
X931967Y-7863436D02*
X922443Y-7844388D01*
X922443Y-7844388D02*
X912920Y-7806293D01*
X912920Y-7806293D02*
X912920Y-7758674D01*
X912920Y-7758674D02*
X922443Y-7720579D01*
X922443Y-7720579D02*
X931967Y-7701531D01*
X931967Y-7701531D02*
X941491Y-7692008D01*
X941491Y-7692008D02*
X960539Y-7682484D01*
X1112920Y-7882484D02*
X1112920Y-7749150D01*
X1112920Y-7768198D02*
X1122444Y-7758674D01*
X1122444Y-7758674D02*
X1141491Y-7749150D01*
X1141491Y-7749150D02*
X1170063Y-7749150D01*
X1170063Y-7749150D02*
X1189110Y-7758674D01*
X1189110Y-7758674D02*
X1198634Y-7777722D01*
X1198634Y-7777722D02*
X1198634Y-7882484D01*
X1198634Y-7777722D02*
X1208158Y-7758674D01*
X1208158Y-7758674D02*
X1227205Y-7749150D01*
X1227205Y-7749150D02*
X1255777Y-7749150D01*
X1255777Y-7749150D02*
X1274825Y-7758674D01*
X1274825Y-7758674D02*
X1284348Y-7777722D01*
X1284348Y-7777722D02*
X1284348Y-7882484D01*
X1379586Y-7882484D02*
X1379586Y-7749150D01*
X1379586Y-7768198D02*
X1389110Y-7758674D01*
X1389110Y-7758674D02*
X1408158Y-7749150D01*
X1408158Y-7749150D02*
X1436729Y-7749150D01*
X1436729Y-7749150D02*
X1455777Y-7758674D01*
X1455777Y-7758674D02*
X1465301Y-7777722D01*
X1465301Y-7777722D02*
X1465301Y-7882484D01*
X1465301Y-7777722D02*
X1474824Y-7758674D01*
X1474824Y-7758674D02*
X1493872Y-7749150D01*
X1493872Y-7749150D02*
X1522443Y-7749150D01*
X1522443Y-7749150D02*
X1541491Y-7758674D01*
X1541491Y-7758674D02*
X1551015Y-7777722D01*
X1551015Y-7777722D02*
X1551015Y-7882484D01*
X1941491Y-7672960D02*
X1770063Y-7930103D01*
X2198634Y-7682484D02*
X2217682Y-7682484D01*
X2217682Y-7682484D02*
X2236729Y-7692008D01*
X2236729Y-7692008D02*
X2246253Y-7701531D01*
X2246253Y-7701531D02*
X2255777Y-7720579D01*
X2255777Y-7720579D02*
X2265301Y-7758674D01*
X2265301Y-7758674D02*
X2265301Y-7806293D01*
X2265301Y-7806293D02*
X2255777Y-7844388D01*
X2255777Y-7844388D02*
X2246253Y-7863436D01*
X2246253Y-7863436D02*
X2236729Y-7872960D01*
X2236729Y-7872960D02*
X2217682Y-7882484D01*
X2217682Y-7882484D02*
X2198634Y-7882484D01*
X2198634Y-7882484D02*
X2179587Y-7872960D01*
X2179587Y-7872960D02*
X2170063Y-7863436D01*
X2170063Y-7863436D02*
X2160539Y-7844388D01*
X2160539Y-7844388D02*
X2151015Y-7806293D01*
X2151015Y-7806293D02*
X2151015Y-7758674D01*
X2151015Y-7758674D02*
X2160539Y-7720579D01*
X2160539Y-7720579D02*
X2170063Y-7701531D01*
X2170063Y-7701531D02*
X2179587Y-7692008D01*
X2179587Y-7692008D02*
X2198634Y-7682484D01*
X2351015Y-7863436D02*
X2360539Y-7872960D01*
X2360539Y-7872960D02*
X2351015Y-7882484D01*
X2351015Y-7882484D02*
X2341491Y-7872960D01*
X2341491Y-7872960D02*
X2351015Y-7863436D01*
X2351015Y-7863436D02*
X2351015Y-7882484D01*
X2551015Y-7882484D02*
X2436729Y-7882484D01*
X2493872Y-7882484D02*
X2493872Y-7682484D01*
X2493872Y-7682484D02*
X2474825Y-7711055D01*
X2474825Y-7711055D02*
X2455777Y-7730103D01*
X2455777Y-7730103D02*
X2436729Y-7739627D01*
X2627206Y-7701531D02*
X2636729Y-7692008D01*
X2636729Y-7692008D02*
X2655777Y-7682484D01*
X2655777Y-7682484D02*
X2703396Y-7682484D01*
X2703396Y-7682484D02*
X2722444Y-7692008D01*
X2722444Y-7692008D02*
X2731968Y-7701531D01*
X2731968Y-7701531D02*
X2741491Y-7720579D01*
X2741491Y-7720579D02*
X2741491Y-7739627D01*
X2741491Y-7739627D02*
X2731968Y-7768198D01*
X2731968Y-7768198D02*
X2617682Y-7882484D01*
X2617682Y-7882484D02*
X2741491Y-7882484D01*
X2912920Y-7682484D02*
X2874825Y-7682484D01*
X2874825Y-7682484D02*
X2855777Y-7692008D01*
X2855777Y-7692008D02*
X2846253Y-7701531D01*
X2846253Y-7701531D02*
X2827206Y-7730103D01*
X2827206Y-7730103D02*
X2817682Y-7768198D01*
X2817682Y-7768198D02*
X2817682Y-7844388D01*
X2817682Y-7844388D02*
X2827206Y-7863436D01*
X2827206Y-7863436D02*
X2836729Y-7872960D01*
X2836729Y-7872960D02*
X2855777Y-7882484D01*
X2855777Y-7882484D02*
X2893872Y-7882484D01*
X2893872Y-7882484D02*
X2912920Y-7872960D01*
X2912920Y-7872960D02*
X2922444Y-7863436D01*
X2922444Y-7863436D02*
X2931967Y-7844388D01*
X2931967Y-7844388D02*
X2931967Y-7796769D01*
X2931967Y-7796769D02*
X2922444Y-7777722D01*
X2922444Y-7777722D02*
X2912920Y-7768198D01*
X2912920Y-7768198D02*
X2893872Y-7758674D01*
X2893872Y-7758674D02*
X2855777Y-7758674D01*
X2855777Y-7758674D02*
X2836729Y-7768198D01*
X2836729Y-7768198D02*
X2827206Y-7777722D01*
X2827206Y-7777722D02*
X2817682Y-7796769D01*
X3055777Y-7682484D02*
X3074825Y-7682484D01*
X3074825Y-7682484D02*
X3093872Y-7692008D01*
X3093872Y-7692008D02*
X3103396Y-7701531D01*
X3103396Y-7701531D02*
X3112920Y-7720579D01*
X3112920Y-7720579D02*
X3122444Y-7758674D01*
X3122444Y-7758674D02*
X3122444Y-7806293D01*
X3122444Y-7806293D02*
X3112920Y-7844388D01*
X3112920Y-7844388D02*
X3103396Y-7863436D01*
X3103396Y-7863436D02*
X3093872Y-7872960D01*
X3093872Y-7872960D02*
X3074825Y-7882484D01*
X3074825Y-7882484D02*
X3055777Y-7882484D01*
X3055777Y-7882484D02*
X3036729Y-7872960D01*
X3036729Y-7872960D02*
X3027206Y-7863436D01*
X3027206Y-7863436D02*
X3017682Y-7844388D01*
X3017682Y-7844388D02*
X3008158Y-7806293D01*
X3008158Y-7806293D02*
X3008158Y-7758674D01*
X3008158Y-7758674D02*
X3017682Y-7720579D01*
X3017682Y-7720579D02*
X3027206Y-7701531D01*
X3027206Y-7701531D02*
X3036729Y-7692008D01*
X3036729Y-7692008D02*
X3055777Y-7682484D01*
X3198634Y-7682484D02*
X3198634Y-7720579D01*
X3274825Y-7682484D02*
X3274825Y-7720579D01*
X3570063Y-7958674D02*
X3560539Y-7949150D01*
X3560539Y-7949150D02*
X3541491Y-7920579D01*
X3541491Y-7920579D02*
X3531968Y-7901531D01*
X3531968Y-7901531D02*
X3522444Y-7872960D01*
X3522444Y-7872960D02*
X3512920Y-7825341D01*
X3512920Y-7825341D02*
X3512920Y-7787246D01*
X3512920Y-7787246D02*
X3522444Y-7739627D01*
X3522444Y-7739627D02*
X3531968Y-7711055D01*
X3531968Y-7711055D02*
X3541491Y-7692008D01*
X3541491Y-7692008D02*
X3560539Y-7663436D01*
X3560539Y-7663436D02*
X3570063Y-7653912D01*
X3741491Y-7682484D02*
X3646253Y-7682484D01*
X3646253Y-7682484D02*
X3636729Y-7777722D01*
X3636729Y-7777722D02*
X3646253Y-7768198D01*
X3646253Y-7768198D02*
X3665301Y-7758674D01*
X3665301Y-7758674D02*
X3712920Y-7758674D01*
X3712920Y-7758674D02*
X3731968Y-7768198D01*
X3731968Y-7768198D02*
X3741491Y-7777722D01*
X3741491Y-7777722D02*
X3751015Y-7796769D01*
X3751015Y-7796769D02*
X3751015Y-7844388D01*
X3751015Y-7844388D02*
X3741491Y-7863436D01*
X3741491Y-7863436D02*
X3731968Y-7872960D01*
X3731968Y-7872960D02*
X3712920Y-7882484D01*
X3712920Y-7882484D02*
X3665301Y-7882484D01*
X3665301Y-7882484D02*
X3646253Y-7872960D01*
X3646253Y-7872960D02*
X3636729Y-7863436D01*
X3989110Y-7882484D02*
X3989110Y-7682484D01*
X4074825Y-7882484D02*
X4074825Y-7777722D01*
X4074825Y-7777722D02*
X4065301Y-7758674D01*
X4065301Y-7758674D02*
X4046253Y-7749150D01*
X4046253Y-7749150D02*
X4017682Y-7749150D01*
X4017682Y-7749150D02*
X3998634Y-7758674D01*
X3998634Y-7758674D02*
X3989110Y-7768198D01*
X4198634Y-7882484D02*
X4179587Y-7872960D01*
X4179587Y-7872960D02*
X4170063Y-7863436D01*
X4170063Y-7863436D02*
X4160539Y-7844388D01*
X4160539Y-7844388D02*
X4160539Y-7787246D01*
X4160539Y-7787246D02*
X4170063Y-7768198D01*
X4170063Y-7768198D02*
X4179587Y-7758674D01*
X4179587Y-7758674D02*
X4198634Y-7749150D01*
X4198634Y-7749150D02*
X4227206Y-7749150D01*
X4227206Y-7749150D02*
X4246253Y-7758674D01*
X4246253Y-7758674D02*
X4255777Y-7768198D01*
X4255777Y-7768198D02*
X4265301Y-7787246D01*
X4265301Y-7787246D02*
X4265301Y-7844388D01*
X4265301Y-7844388D02*
X4255777Y-7863436D01*
X4255777Y-7863436D02*
X4246253Y-7872960D01*
X4246253Y-7872960D02*
X4227206Y-7882484D01*
X4227206Y-7882484D02*
X4198634Y-7882484D01*
X4379587Y-7882484D02*
X4360539Y-7872960D01*
X4360539Y-7872960D02*
X4351015Y-7853912D01*
X4351015Y-7853912D02*
X4351015Y-7682484D01*
X4531968Y-7872960D02*
X4512920Y-7882484D01*
X4512920Y-7882484D02*
X4474825Y-7882484D01*
X4474825Y-7882484D02*
X4455777Y-7872960D01*
X4455777Y-7872960D02*
X4446253Y-7853912D01*
X4446253Y-7853912D02*
X4446253Y-7777722D01*
X4446253Y-7777722D02*
X4455777Y-7758674D01*
X4455777Y-7758674D02*
X4474825Y-7749150D01*
X4474825Y-7749150D02*
X4512920Y-7749150D01*
X4512920Y-7749150D02*
X4531968Y-7758674D01*
X4531968Y-7758674D02*
X4541492Y-7777722D01*
X4541492Y-7777722D02*
X4541492Y-7796769D01*
X4541492Y-7796769D02*
X4446253Y-7815817D01*
X4617682Y-7872960D02*
X4636730Y-7882484D01*
X4636730Y-7882484D02*
X4674825Y-7882484D01*
X4674825Y-7882484D02*
X4693873Y-7872960D01*
X4693873Y-7872960D02*
X4703396Y-7853912D01*
X4703396Y-7853912D02*
X4703396Y-7844388D01*
X4703396Y-7844388D02*
X4693873Y-7825341D01*
X4693873Y-7825341D02*
X4674825Y-7815817D01*
X4674825Y-7815817D02*
X4646253Y-7815817D01*
X4646253Y-7815817D02*
X4627206Y-7806293D01*
X4627206Y-7806293D02*
X4617682Y-7787246D01*
X4617682Y-7787246D02*
X4617682Y-7777722D01*
X4617682Y-7777722D02*
X4627206Y-7758674D01*
X4627206Y-7758674D02*
X4646253Y-7749150D01*
X4646253Y-7749150D02*
X4674825Y-7749150D01*
X4674825Y-7749150D02*
X4693873Y-7758674D01*
X4770063Y-7958674D02*
X4779587Y-7949150D01*
X4779587Y-7949150D02*
X4798634Y-7920579D01*
X4798634Y-7920579D02*
X4808158Y-7901531D01*
X4808158Y-7901531D02*
X4817682Y-7872960D01*
X4817682Y-7872960D02*
X4827206Y-7825341D01*
X4827206Y-7825341D02*
X4827206Y-7787246D01*
X4827206Y-7787246D02*
X4817682Y-7739627D01*
X4817682Y-7739627D02*
X4808158Y-7711055D01*
X4808158Y-7711055D02*
X4798634Y-7692008D01*
X4798634Y-7692008D02*
X4779587Y-7663436D01*
X4779587Y-7663436D02*
X4770063Y-7653912D01*
M02*
