%TF.GenerationSoftware,KiCad,Pcbnew,7.0.7*%
%TF.CreationDate,2023-10-08T08:59:33-04:00*%
%TF.ProjectId,ControlBoard,436f6e74-726f-46c4-926f-6172642e6b69,rev?*%
%TF.SameCoordinates,PX5f5e100PY459e440*%
%TF.FileFunction,Copper,L1,Top*%
%TF.FilePolarity,Positive*%
%FSLAX46Y46*%
G04 Gerber Fmt 4.6, Leading zero omitted, Abs format (unit mm)*
G04 Created by KiCad (PCBNEW 7.0.7) date 2023-10-08 08:59:33*
%MOMM*%
%LPD*%
G01*
G04 APERTURE LIST*
G04 Aperture macros list*
%AMRoundRect*
0 Rectangle with rounded corners*
0 $1 Rounding radius*
0 $2 $3 $4 $5 $6 $7 $8 $9 X,Y pos of 4 corners*
0 Add a 4 corners polygon primitive as box body*
4,1,4,$2,$3,$4,$5,$6,$7,$8,$9,$2,$3,0*
0 Add four circle primitives for the rounded corners*
1,1,$1+$1,$2,$3*
1,1,$1+$1,$4,$5*
1,1,$1+$1,$6,$7*
1,1,$1+$1,$8,$9*
0 Add four rect primitives between the rounded corners*
20,1,$1+$1,$2,$3,$4,$5,0*
20,1,$1+$1,$4,$5,$6,$7,0*
20,1,$1+$1,$6,$7,$8,$9,0*
20,1,$1+$1,$8,$9,$2,$3,0*%
G04 Aperture macros list end*
%TA.AperFunction,ComponentPad*%
%ADD10R,2.000000X2.000000*%
%TD*%
%TA.AperFunction,ComponentPad*%
%ADD11C,2.000000*%
%TD*%
%TA.AperFunction,ComponentPad*%
%ADD12R,3.200000X2.000000*%
%TD*%
%TA.AperFunction,SMDPad,CuDef*%
%ADD13RoundRect,0.250000X0.475000X-0.250000X0.475000X0.250000X-0.475000X0.250000X-0.475000X-0.250000X0*%
%TD*%
%TA.AperFunction,SMDPad,CuDef*%
%ADD14RoundRect,0.250000X0.250000X1.500000X-0.250000X1.500000X-0.250000X-1.500000X0.250000X-1.500000X0*%
%TD*%
%TA.AperFunction,SMDPad,CuDef*%
%ADD15RoundRect,0.250001X0.499999X1.449999X-0.499999X1.449999X-0.499999X-1.449999X0.499999X-1.449999X0*%
%TD*%
%TA.AperFunction,SMDPad,CuDef*%
%ADD16RoundRect,0.250000X-0.250000X-0.475000X0.250000X-0.475000X0.250000X0.475000X-0.250000X0.475000X0*%
%TD*%
%TA.AperFunction,SMDPad,CuDef*%
%ADD17RoundRect,0.250000X-0.262500X-0.450000X0.262500X-0.450000X0.262500X0.450000X-0.262500X0.450000X0*%
%TD*%
%TA.AperFunction,SMDPad,CuDef*%
%ADD18R,1.550000X1.300000*%
%TD*%
%TA.AperFunction,SMDPad,CuDef*%
%ADD19RoundRect,0.250000X0.262500X0.450000X-0.262500X0.450000X-0.262500X-0.450000X0.262500X-0.450000X0*%
%TD*%
%TA.AperFunction,ComponentPad*%
%ADD20C,6.400000*%
%TD*%
%TA.AperFunction,ComponentPad*%
%ADD21RoundRect,0.381000X-0.381000X-0.381000X0.381000X-0.381000X0.381000X0.381000X-0.381000X0.381000X0*%
%TD*%
%TA.AperFunction,ComponentPad*%
%ADD22C,1.524000*%
%TD*%
%TA.AperFunction,SMDPad,CuDef*%
%ADD23RoundRect,0.250000X0.450000X-0.262500X0.450000X0.262500X-0.450000X0.262500X-0.450000X-0.262500X0*%
%TD*%
%TA.AperFunction,SMDPad,CuDef*%
%ADD24RoundRect,0.225000X-0.225000X-0.375000X0.225000X-0.375000X0.225000X0.375000X-0.225000X0.375000X0*%
%TD*%
%TA.AperFunction,SMDPad,CuDef*%
%ADD25RoundRect,0.250000X0.250000X0.475000X-0.250000X0.475000X-0.250000X-0.475000X0.250000X-0.475000X0*%
%TD*%
%TA.AperFunction,SMDPad,CuDef*%
%ADD26RoundRect,0.250000X-0.475000X0.250000X-0.475000X-0.250000X0.475000X-0.250000X0.475000X0.250000X0*%
%TD*%
%TA.AperFunction,SMDPad,CuDef*%
%ADD27RoundRect,0.250000X-0.250000X-1.500000X0.250000X-1.500000X0.250000X1.500000X-0.250000X1.500000X0*%
%TD*%
%TA.AperFunction,SMDPad,CuDef*%
%ADD28RoundRect,0.250001X-0.499999X-1.449999X0.499999X-1.449999X0.499999X1.449999X-0.499999X1.449999X0*%
%TD*%
%TA.AperFunction,ComponentPad*%
%ADD29RoundRect,0.381000X-0.381000X0.381000X-0.381000X-0.381000X0.381000X-0.381000X0.381000X0.381000X0*%
%TD*%
%TA.AperFunction,ComponentPad*%
%ADD30C,2.540000*%
%TD*%
%TA.AperFunction,ComponentPad*%
%ADD31O,2.000000X1.200000*%
%TD*%
%TA.AperFunction,ComponentPad*%
%ADD32R,1.600000X1.600000*%
%TD*%
%TA.AperFunction,ComponentPad*%
%ADD33C,1.600000*%
%TD*%
%TA.AperFunction,ViaPad*%
%ADD34C,0.800000*%
%TD*%
%TA.AperFunction,Conductor*%
%ADD35C,1.000000*%
%TD*%
%TA.AperFunction,Conductor*%
%ADD36C,0.500000*%
%TD*%
G04 APERTURE END LIST*
D10*
%TO.P,SW1,A,A*%
%TO.N,Net-(R4-Pad2)*%
X83750000Y-13500000D03*
D11*
%TO.P,SW1,B,B*%
%TO.N,Net-(R5-Pad2)*%
X83750000Y-18500000D03*
%TO.P,SW1,C,C*%
%TO.N,Earth*%
X83750000Y-16000000D03*
D12*
%TO.P,SW1,MP*%
%TO.N,N/C*%
X91250000Y-10400000D03*
X91250000Y-21600000D03*
D11*
%TO.P,SW1,S1,S1*%
%TO.N,Net-(R6-Pad1)*%
X98250000Y-18500000D03*
%TO.P,SW1,S2,S2*%
%TO.N,Earth*%
X98250000Y-13500000D03*
%TD*%
D13*
%TO.P,C8,1*%
%TO.N,Earth*%
X31673600Y-24724000D03*
%TO.P,C8,2*%
%TO.N,B_BAND*%
X31673600Y-22824000D03*
%TD*%
D14*
%TO.P,J2,1,Pin_1*%
%TO.N,SDA*%
X76209200Y-7980400D03*
%TO.P,J2,2,Pin_2*%
%TO.N,SCL*%
X74209200Y-7980400D03*
D15*
%TO.P,J2,MP,MountPin*%
%TO.N,Earth*%
X78559200Y-2230400D03*
X71859200Y-2230400D03*
%TD*%
D16*
%TO.P,C3,1*%
%TO.N,Earth*%
X40858200Y-36524800D03*
%TO.P,C3,2*%
%TO.N,+5V*%
X42758200Y-36524800D03*
%TD*%
%TO.P,C4,1*%
%TO.N,Earth*%
X5095000Y-36474000D03*
%TO.P,C4,2*%
%TO.N,ENC_R*%
X6995000Y-36474000D03*
%TD*%
D17*
%TO.P,R2,1*%
%TO.N,B_BAND*%
X31675500Y-20472000D03*
%TO.P,R2,2*%
%TO.N,Net-(R2-Pad2)*%
X33500500Y-20472000D03*
%TD*%
D18*
%TO.P,SW4,1,1*%
%TO.N,Net-(R3-Pad2)*%
X61925000Y-18313000D03*
X53965000Y-18313000D03*
%TO.P,SW4,2,2*%
%TO.N,Earth*%
X61925000Y-13813000D03*
X53965000Y-13813000D03*
%TD*%
D19*
%TO.P,R7,1*%
%TO.N,+3.3V*%
X23745000Y-3454000D03*
%TO.P,R7,2*%
%TO.N,Net-(D1-A)*%
X21920000Y-3454000D03*
%TD*%
D20*
%TO.P,H4,1,1*%
%TO.N,Earth*%
X96000000Y-51000000D03*
%TD*%
D21*
%TO.P,U1,1,GND*%
%TO.N,Earth*%
X32570000Y-9810000D03*
D22*
%TO.P,U1,2,VCC*%
%TO.N,+5V*%
X32570000Y-7270000D03*
%TO.P,U1,3,SCL*%
%TO.N,SCL*%
X32570000Y-4730000D03*
%TO.P,U1,4,SDA*%
%TO.N,SDA*%
X32570000Y-2190000D03*
%TD*%
D23*
%TO.P,R1,1*%
%TO.N,B_TX*%
X65023800Y-22070300D03*
%TO.P,R1,2*%
%TO.N,Net-(R1-Pad2)*%
X65023800Y-20245300D03*
%TD*%
D19*
%TO.P,R6,1*%
%TO.N,Net-(R6-Pad1)*%
X16355500Y-44094000D03*
%TO.P,R6,2*%
%TO.N,ENC_STEP*%
X14530500Y-44094000D03*
%TD*%
D20*
%TO.P,H2,1,1*%
%TO.N,Earth*%
X96000000Y-4000000D03*
%TD*%
D18*
%TO.P,SW3,1,1*%
%TO.N,Net-(R2-Pad2)*%
X39980000Y-18250000D03*
X32020000Y-18250000D03*
%TO.P,SW3,2,2*%
%TO.N,Earth*%
X39980000Y-13750000D03*
X32020000Y-13750000D03*
%TD*%
%TO.P,SW5,1,1*%
%TO.N,Net-(R8-Pad2)*%
X50980000Y-18250000D03*
X43020000Y-18250000D03*
%TO.P,SW5,2,2*%
%TO.N,Earth*%
X50980000Y-13750000D03*
X43020000Y-13750000D03*
%TD*%
D20*
%TO.P,H3,1,1*%
%TO.N,Earth*%
X4000000Y-51000000D03*
%TD*%
D17*
%TO.P,R4,1*%
%TO.N,ENC_L*%
X14657500Y-39014000D03*
%TO.P,R4,2*%
%TO.N,Net-(R4-Pad2)*%
X16482500Y-39014000D03*
%TD*%
D24*
%TO.P,D1,1,K*%
%TO.N,Net-(D1-K)*%
X16968000Y-3454000D03*
%TO.P,D1,2,A*%
%TO.N,Net-(D1-A)*%
X20268000Y-3454000D03*
%TD*%
D25*
%TO.P,C2,1*%
%TO.N,Earth*%
X71942800Y-43459000D03*
%TO.P,C2,2*%
%TO.N,+5V*%
X70042800Y-43459000D03*
%TD*%
D26*
%TO.P,C1,1*%
%TO.N,+5V*%
X35102600Y-7253800D03*
%TO.P,C1,2*%
%TO.N,Earth*%
X35102600Y-9153800D03*
%TD*%
D23*
%TO.P,R3,1*%
%TO.N,B_SET*%
X53924000Y-22349700D03*
%TO.P,R3,2*%
%TO.N,Net-(R3-Pad2)*%
X53924000Y-20524700D03*
%TD*%
%TO.P,R8,1*%
%TO.N,B_F1*%
X43027400Y-22097600D03*
%TO.P,R8,2*%
%TO.N,Net-(R8-Pad2)*%
X43027400Y-20272600D03*
%TD*%
D16*
%TO.P,C6,1*%
%TO.N,Earth*%
X5095000Y-44094000D03*
%TO.P,C6,2*%
%TO.N,ENC_STEP*%
X6995000Y-44094000D03*
%TD*%
D27*
%TO.P,J1,1,Pin_1*%
%TO.N,+5V*%
X70069000Y-46959000D03*
%TO.P,J1,2,Pin_2*%
%TO.N,Earth*%
X72069000Y-46959000D03*
D28*
%TO.P,J1,MP,MountPin*%
X67719000Y-52709000D03*
X74419000Y-52709000D03*
%TD*%
D17*
%TO.P,R5,1*%
%TO.N,ENC_R*%
X14657500Y-36474000D03*
%TO.P,R5,2*%
%TO.N,Net-(R5-Pad2)*%
X16482500Y-36474000D03*
%TD*%
D29*
%TO.P,U3,1,VIN*%
%TO.N,+5V*%
X42760000Y-34380000D03*
D30*
%TO.P,U3,2,GND*%
%TO.N,Earth*%
X63715000Y-33745000D03*
X37045000Y-33745000D03*
D22*
X45300000Y-34380000D03*
%TO.P,U3,3,SDA*%
%TO.N,SDA*%
X47840000Y-34380000D03*
%TO.P,U3,4,SCL*%
%TO.N,SCL*%
X50380000Y-34380000D03*
%TO.P,U3,5,CLK2*%
%TO.N,unconnected-(U3-CLK2-Pad5)*%
X52920000Y-34380000D03*
%TO.P,U3,6,CLK1*%
%TO.N,unconnected-(U3-CLK1-Pad6)*%
X55460000Y-34380000D03*
%TO.P,U3,7,CLK0*%
%TO.N,unconnected-(U3-CLK0-Pad7)*%
X58000000Y-34380000D03*
%TD*%
D25*
%TO.P,C5,1*%
%TO.N,ENC_L*%
X6995000Y-39014000D03*
%TO.P,C5,2*%
%TO.N,Earth*%
X5095000Y-39014000D03*
%TD*%
D26*
%TO.P,C7,1*%
%TO.N,Earth*%
X31927600Y-37048000D03*
%TO.P,C7,2*%
%TO.N,B_SET*%
X31927600Y-38948000D03*
%TD*%
D18*
%TO.P,SW2,1,1*%
%TO.N,Net-(R1-Pad2)*%
X72980000Y-18250000D03*
X65020000Y-18250000D03*
%TO.P,SW2,2,2*%
%TO.N,Earth*%
X72980000Y-13750000D03*
X65020000Y-13750000D03*
%TD*%
D25*
%TO.P,C11,1*%
%TO.N,Earth*%
X44927400Y-23901000D03*
%TO.P,C11,2*%
%TO.N,B_F1*%
X43027400Y-23901000D03*
%TD*%
D16*
%TO.P,C9,1*%
%TO.N,Earth*%
X64759600Y-24332800D03*
%TO.P,C9,2*%
%TO.N,B_TX*%
X66659600Y-24332800D03*
%TD*%
D20*
%TO.P,H5,1,1*%
%TO.N,Earth*%
X50000000Y-27000000D03*
%TD*%
%TO.P,H1,1,1*%
%TO.N,Earth*%
X4000000Y-4000000D03*
%TD*%
D31*
%TO.P,U2,1,PB12*%
%TO.N,unconnected-(U2-PB12-Pad1)*%
X26746000Y-51714000D03*
%TO.P,U2,2,PB13*%
%TO.N,unconnected-(U2-PB13-Pad2)*%
X26746000Y-49174000D03*
%TO.P,U2,3,PB14*%
%TO.N,unconnected-(U2-PB14-Pad3)*%
X26746000Y-46634000D03*
%TO.P,U2,4,PB15*%
%TO.N,unconnected-(U2-PB15-Pad4)*%
X26746000Y-44094000D03*
%TO.P,U2,5,PA8*%
%TO.N,B_TX*%
X26746000Y-41554000D03*
%TO.P,U2,6,PA9*%
%TO.N,B_SET*%
X26746000Y-39014000D03*
%TO.P,U2,7,PA10*%
%TO.N,unconnected-(U2-PA10-Pad7)*%
X26746000Y-36474000D03*
%TO.P,U2,8,PA11*%
%TO.N,unconnected-(U2-PA11-Pad8)*%
X26746000Y-33934000D03*
%TO.P,U2,9,PA12*%
%TO.N,unconnected-(U2-PA12-Pad9)*%
X26746000Y-31394000D03*
%TO.P,U2,10,PA15*%
%TO.N,unconnected-(U2-PA15-Pad10)*%
X26746000Y-28854000D03*
%TO.P,U2,11,PB3*%
%TO.N,unconnected-(U2-PB3-Pad11)*%
X26746000Y-26314000D03*
%TO.P,U2,12,PB4*%
%TO.N,B_F1*%
X26746000Y-23774000D03*
%TO.P,U2,13,PB5*%
%TO.N,B_BAND*%
X26746000Y-21234000D03*
%TO.P,U2,14,PB6*%
%TO.N,SCL*%
X26746000Y-18694000D03*
%TO.P,U2,15,PB7*%
%TO.N,SDA*%
X26746000Y-16154000D03*
%TO.P,U2,16,PB8*%
%TO.N,unconnected-(U2-PB8-Pad16)*%
X26746000Y-13614000D03*
%TO.P,U2,17,PB9*%
%TO.N,unconnected-(U2-PB9-Pad17)*%
X26746000Y-11074000D03*
%TO.P,U2,18,+5V*%
%TO.N,+5V*%
X26746000Y-8534000D03*
%TO.P,U2,19,GND*%
%TO.N,Earth*%
X26746000Y-5994000D03*
%TO.P,U2,20,3.3V*%
%TO.N,+3.3V*%
X26746000Y-3454000D03*
%TO.P,U2,21,VB*%
%TO.N,Net-(D1-K)*%
X11506000Y-3454000D03*
%TO.P,U2,22,PC13*%
%TO.N,unconnected-(U2-PC13-Pad22)*%
X11506000Y-5994000D03*
%TO.P,U2,23,PC14*%
%TO.N,unconnected-(U2-PC14-Pad23)*%
X11506000Y-8534000D03*
%TO.P,U2,24,PC15*%
%TO.N,unconnected-(U2-PC15-Pad24)*%
X11506000Y-11074000D03*
%TO.P,U2,25,~{RST}*%
%TO.N,unconnected-(U2-~{RST}-Pad25)*%
X11506000Y-13614000D03*
%TO.P,U2,26,PA0*%
%TO.N,unconnected-(U2-PA0-Pad26)*%
X11506000Y-16154000D03*
%TO.P,U2,27,PA1*%
%TO.N,unconnected-(U2-PA1-Pad27)*%
X11506000Y-18694000D03*
%TO.P,U2,28,PA2*%
%TO.N,unconnected-(U2-PA2-Pad28)*%
X11506000Y-21234000D03*
%TO.P,U2,29,PA3*%
%TO.N,unconnected-(U2-PA3-Pad29)*%
X11506000Y-23774000D03*
%TO.P,U2,30,PA4*%
%TO.N,unconnected-(U2-PA4-Pad30)*%
X11506000Y-26314000D03*
%TO.P,U2,31,PA5*%
%TO.N,unconnected-(U2-PA5-Pad31)*%
X11506000Y-28854000D03*
%TO.P,U2,32,PA6*%
%TO.N,unconnected-(U2-PA6-Pad32)*%
X11506000Y-31394000D03*
%TO.P,U2,33,PA7*%
%TO.N,unconnected-(U2-PA7-Pad33)*%
X11506000Y-33934000D03*
%TO.P,U2,34,PB0*%
%TO.N,ENC_R*%
X11506000Y-36474000D03*
%TO.P,U2,35,PB1*%
%TO.N,ENC_L*%
X11506000Y-39014000D03*
%TO.P,U2,36,PB2*%
%TO.N,unconnected-(U2-PB2-Pad36)*%
X11506000Y-41554000D03*
%TO.P,U2,37,PB10*%
%TO.N,ENC_STEP*%
X11506000Y-44094000D03*
%TO.P,U2,38,3.3V*%
%TO.N,+3.3V*%
X11506000Y-46634000D03*
%TO.P,U2,39,GND*%
%TO.N,Earth*%
X11506000Y-49174000D03*
%TO.P,U2,40,5V*%
%TO.N,+5V*%
X11506000Y-51714000D03*
%TD*%
D32*
%TO.P,C10,1*%
%TO.N,Net-(D1-K)*%
X17000000Y-13000000D03*
D33*
%TO.P,C10,2*%
%TO.N,Earth*%
X22000000Y-13000000D03*
%TD*%
D34*
%TO.N,+5V*%
X42760000Y-37769400D03*
%TO.N,Earth*%
X48920200Y-53111000D03*
X48945600Y-43687600D03*
X63068000Y-53034800D03*
X60096200Y-37617000D03*
X39141200Y-36474000D03*
X46532600Y-37566200D03*
X48945600Y-40411000D03*
X54838400Y-28244400D03*
X39623800Y-22224600D03*
X38252200Y-25171000D03*
X69697400Y-15620600D03*
X57861000Y-15747600D03*
X47828000Y-15798400D03*
X36194800Y-15900000D03*
X23367800Y-31241600D03*
X16865400Y-18567000D03*
X78460400Y-53085600D03*
X86817000Y-1320400D03*
X71932600Y-26110800D03*
X72008800Y-39598200D03*
X32613400Y-52958600D03*
X31851400Y-43535200D03*
X32029200Y-31190800D03*
X60096200Y-26212400D03*
X66446200Y-9448400D03*
X66420800Y-1879200D03*
X39674600Y-9448400D03*
X39725400Y-1879200D03*
X2362000Y-12877400D03*
X2463600Y-37744000D03*
%TO.N,+5V*%
X42760000Y-48386600D03*
%TD*%
D35*
%TO.N,+5V*%
X42760000Y-37769400D02*
X42760000Y-36526600D01*
X42760000Y-36526600D02*
X42758200Y-36524800D01*
X42758200Y-36524800D02*
X42758200Y-34381800D01*
X42758200Y-34381800D02*
X42760000Y-34380000D01*
D36*
%TO.N,B_SET*%
X26746000Y-39014000D02*
X54090077Y-39014000D01*
X56718000Y-25143700D02*
X53924000Y-22349700D01*
X54090077Y-39014000D02*
X56718000Y-36386077D01*
X56718000Y-36386077D02*
X56718000Y-25143700D01*
D35*
%TO.N,+5V*%
X42760000Y-48386600D02*
X59486600Y-48386600D01*
X59486600Y-48386600D02*
X64414200Y-43459000D01*
X70069000Y-43536000D02*
X70069000Y-46959000D01*
X64414200Y-43459000D02*
X69992000Y-43459000D01*
X69992000Y-43459000D02*
X70069000Y-43536000D01*
X32842000Y-48386600D02*
X28214600Y-53014000D01*
X32570000Y-7270000D02*
X34781600Y-7270000D01*
X14874000Y-51714000D02*
X11506000Y-51714000D01*
X42760000Y-48386600D02*
X32842000Y-48386600D01*
X28214600Y-53014000D02*
X16174000Y-53014000D01*
X16174000Y-53014000D02*
X14874000Y-51714000D01*
D36*
%TO.N,ENC_R*%
X14657500Y-36474000D02*
X11887000Y-36474000D01*
X6995000Y-36474000D02*
X11887000Y-36474000D01*
%TO.N,ENC_L*%
X11887000Y-39014000D02*
X14657500Y-39014000D01*
X6995000Y-39014000D02*
X11887000Y-39014000D01*
%TO.N,ENC_STEP*%
X6995000Y-44094000D02*
X14530500Y-44094000D01*
%TO.N,B_BAND*%
X28879600Y-21234000D02*
X29641600Y-20472000D01*
X29641600Y-20472000D02*
X31675500Y-20472000D01*
X31673600Y-22834200D02*
X31673600Y-20473900D01*
X26746000Y-21234000D02*
X28879600Y-21234000D01*
X31673600Y-20473900D02*
X31675500Y-20472000D01*
%TO.N,B_TX*%
X66685000Y-23731500D02*
X65023800Y-22070300D01*
X52540027Y-41554000D02*
X66685000Y-27409027D01*
X26746000Y-41554000D02*
X52540027Y-41554000D01*
X66685000Y-27409027D02*
X66685000Y-23731500D01*
%TO.N,Net-(D1-K)*%
X11887000Y-3454000D02*
X16968000Y-3454000D01*
X17000000Y-3486000D02*
X16968000Y-3454000D01*
X17000000Y-13000000D02*
X17000000Y-3486000D01*
%TO.N,B_F1*%
X43027400Y-23901000D02*
X43027400Y-22097600D01*
X26746000Y-23774000D02*
X42900400Y-23774000D01*
X42900400Y-23774000D02*
X43027400Y-23901000D01*
%TO.N,Net-(D1-A)*%
X20268000Y-3454000D02*
X21920000Y-3454000D01*
%TO.N,SDA*%
X31058000Y-2190000D02*
X29159000Y-4089000D01*
X75322000Y-4963800D02*
X35343800Y-4963800D01*
X29159000Y-15265000D02*
X28270000Y-16154000D01*
X23139200Y-18744800D02*
X23139200Y-25094800D01*
X25612400Y-27568000D02*
X41028000Y-27568000D01*
X76209200Y-7980400D02*
X76209200Y-5851000D01*
X41028000Y-27568000D02*
X47840000Y-34380000D01*
X76209200Y-5851000D02*
X75322000Y-4963800D01*
X32570000Y-2190000D02*
X31058000Y-2190000D01*
X35343800Y-4963800D02*
X32570000Y-2190000D01*
X23139200Y-25094800D02*
X25612400Y-27568000D01*
X28270000Y-16154000D02*
X25730000Y-16154000D01*
X29159000Y-4089000D02*
X29159000Y-15265000D01*
X25730000Y-16154000D02*
X23139200Y-18744800D01*
%TO.N,SCL*%
X30048000Y-17017600D02*
X28371600Y-18694000D01*
X24764800Y-25069400D02*
X28041400Y-25069400D01*
X31058000Y-4730000D02*
X30048000Y-5740000D01*
X24841000Y-18694000D02*
X24079000Y-19456000D01*
X33940200Y-4730000D02*
X32570000Y-4730000D01*
X24079000Y-24383600D02*
X24764800Y-25069400D01*
X34874000Y-5663800D02*
X33940200Y-4730000D01*
X28041400Y-25069400D02*
X29692400Y-26720400D01*
X28371600Y-18694000D02*
X27127000Y-18694000D01*
X49529800Y-32892600D02*
X50380000Y-33742800D01*
X74209200Y-7980400D02*
X74209200Y-6060800D01*
X30048000Y-5740000D02*
X30048000Y-17017600D01*
X73812200Y-5663800D02*
X34874000Y-5663800D01*
X74209200Y-6060800D02*
X73812200Y-5663800D01*
X50380000Y-33742800D02*
X50380000Y-34380000D01*
X47548600Y-32892600D02*
X49529800Y-32892600D01*
X29692400Y-26720400D02*
X41376400Y-26720400D01*
X26746000Y-18694000D02*
X24841000Y-18694000D01*
X41376400Y-26720400D02*
X47548600Y-32892600D01*
X32570000Y-4730000D02*
X31058000Y-4730000D01*
X24079000Y-19456000D02*
X24079000Y-24383600D01*
%TO.N,Net-(R1-Pad2)*%
X73021000Y-18291000D02*
X72980000Y-18250000D01*
X65023800Y-20245300D02*
X65023800Y-18253800D01*
X65020000Y-18250000D02*
X72980000Y-18250000D01*
X65023800Y-18253800D02*
X65020000Y-18250000D01*
%TO.N,Net-(R2-Pad2)*%
X33500500Y-18273500D02*
X33477000Y-18250000D01*
X32020000Y-18250000D02*
X33477000Y-18250000D01*
X33477000Y-18250000D02*
X39980000Y-18250000D01*
X33500500Y-20472000D02*
X33500500Y-18273500D01*
%TO.N,Net-(R3-Pad2)*%
X53924000Y-20524700D02*
X53924000Y-18354000D01*
X53924000Y-18354000D02*
X53965000Y-18313000D01*
X53965000Y-18313000D02*
X61925000Y-18313000D01*
%TO.N,Net-(R4-Pad2)*%
X86817000Y-18059000D02*
X86817000Y-14680800D01*
X85636200Y-13500000D02*
X83750000Y-13500000D01*
X16482500Y-39014000D02*
X25347100Y-47878600D01*
X29260600Y-47878600D02*
X30937000Y-46202200D01*
X58673800Y-46202200D02*
X86817000Y-18059000D01*
X25347100Y-47878600D02*
X29260600Y-47878600D01*
X86817000Y-14680800D02*
X85636200Y-13500000D01*
X30937000Y-46202200D02*
X58673800Y-46202200D01*
%TO.N,Net-(R5-Pad2)*%
X25603000Y-45364000D02*
X57988000Y-45364000D01*
X57988000Y-45364000D02*
X83750000Y-19602000D01*
X16482500Y-36474000D02*
X16713000Y-36474000D01*
X16713000Y-36474000D02*
X25603000Y-45364000D01*
X83750000Y-19602000D02*
X83750000Y-18500000D01*
%TO.N,Net-(R6-Pad1)*%
X28693200Y-50224000D02*
X31673600Y-47243600D01*
X87900000Y-18500000D02*
X98250000Y-18500000D01*
X16355500Y-44094000D02*
X22485500Y-50224000D01*
X22485500Y-50224000D02*
X28693200Y-50224000D01*
X31673600Y-47243600D02*
X59156400Y-47243600D01*
X59156400Y-47243600D02*
X87900000Y-18500000D01*
%TO.N,+3.3V*%
X23745000Y-3454000D02*
X27127000Y-3454000D01*
%TO.N,Net-(R8-Pad2)*%
X43020000Y-18250000D02*
X50980000Y-18250000D01*
X43027400Y-20272600D02*
X43027400Y-18257400D01*
X43027400Y-18257400D02*
X43020000Y-18250000D01*
X51026500Y-18296500D02*
X50980000Y-18250000D01*
%TD*%
%TA.AperFunction,Conductor*%
%TO.N,Earth*%
G36*
X99942539Y-20185D02*
G01*
X99988294Y-72989D01*
X99999500Y-124500D01*
X99999500Y-54875500D01*
X99979815Y-54942539D01*
X99927011Y-54988294D01*
X99875500Y-54999500D01*
X124500Y-54999500D01*
X57461Y-54979815D01*
X11706Y-54927011D01*
X500Y-54875500D01*
X500Y-51667685D01*
X10251740Y-51667685D01*
X10261755Y-51852406D01*
X10261755Y-51852411D01*
X10311244Y-52030656D01*
X10311247Y-52030662D01*
X10397898Y-52194102D01*
X10397900Y-52194104D01*
X10517663Y-52335100D01*
X10664936Y-52447054D01*
X10832833Y-52524732D01*
X10832834Y-52524732D01*
X10832836Y-52524733D01*
X10887648Y-52536797D01*
X11013503Y-52564500D01*
X11013506Y-52564500D01*
X11952107Y-52564500D01*
X11952113Y-52564500D01*
X12089910Y-52549514D01*
X12265221Y-52490444D01*
X12278841Y-52482248D01*
X12342769Y-52464500D01*
X14511770Y-52464500D01*
X14578809Y-52484185D01*
X14599451Y-52500819D01*
X15598267Y-53499634D01*
X15610048Y-53513266D01*
X15624390Y-53532530D01*
X15664420Y-53566119D01*
X15668392Y-53569759D01*
X15674224Y-53575591D01*
X15674227Y-53575594D01*
X15699947Y-53595931D01*
X15758788Y-53645304D01*
X15764818Y-53649270D01*
X15764785Y-53649319D01*
X15771143Y-53653369D01*
X15771175Y-53653319D01*
X15777320Y-53657109D01*
X15777323Y-53657111D01*
X15846936Y-53689572D01*
X15915567Y-53724040D01*
X15915572Y-53724041D01*
X15922361Y-53726513D01*
X15922340Y-53726570D01*
X15929455Y-53729043D01*
X15929475Y-53728986D01*
X15936330Y-53731258D01*
X16011558Y-53746790D01*
X16086279Y-53764500D01*
X16086289Y-53764500D01*
X16093452Y-53765338D01*
X16093444Y-53765397D01*
X16100945Y-53766164D01*
X16100951Y-53766105D01*
X16108140Y-53766734D01*
X16108144Y-53766733D01*
X16108145Y-53766734D01*
X16184918Y-53764500D01*
X28150895Y-53764500D01*
X28168865Y-53765809D01*
X28192623Y-53769289D01*
X28244668Y-53764735D01*
X28250070Y-53764500D01*
X28258304Y-53764500D01*
X28258309Y-53764500D01*
X28269927Y-53763141D01*
X28290876Y-53760693D01*
X28303628Y-53759577D01*
X28367397Y-53753999D01*
X28367405Y-53753996D01*
X28374466Y-53752539D01*
X28374478Y-53752598D01*
X28381843Y-53750965D01*
X28381829Y-53750906D01*
X28388846Y-53749241D01*
X28388855Y-53749241D01*
X28461023Y-53722974D01*
X28533934Y-53698814D01*
X28533943Y-53698807D01*
X28540482Y-53695760D01*
X28540508Y-53695816D01*
X28547290Y-53692532D01*
X28547263Y-53692478D01*
X28553706Y-53689240D01*
X28553717Y-53689237D01*
X28617883Y-53647034D01*
X28683256Y-53606712D01*
X28683262Y-53606705D01*
X28688925Y-53602229D01*
X28688963Y-53602277D01*
X28694800Y-53597522D01*
X28694761Y-53597475D01*
X28700296Y-53592830D01*
X28752985Y-53536982D01*
X33116549Y-49173419D01*
X33177872Y-49139934D01*
X33204230Y-49137100D01*
X42672279Y-49137100D01*
X59422895Y-49137100D01*
X59440865Y-49138409D01*
X59464623Y-49141889D01*
X59516668Y-49137335D01*
X59522070Y-49137100D01*
X59530304Y-49137100D01*
X59530309Y-49137100D01*
X59541927Y-49135741D01*
X59562876Y-49133293D01*
X59575628Y-49132177D01*
X59639397Y-49126599D01*
X59639405Y-49126596D01*
X59646466Y-49125139D01*
X59646478Y-49125198D01*
X59653843Y-49123565D01*
X59653829Y-49123506D01*
X59660846Y-49121841D01*
X59660855Y-49121841D01*
X59733023Y-49095574D01*
X59805934Y-49071414D01*
X59805943Y-49071407D01*
X59812482Y-49068360D01*
X59812508Y-49068416D01*
X59819290Y-49065132D01*
X59819263Y-49065078D01*
X59825706Y-49061840D01*
X59825717Y-49061837D01*
X59889883Y-49019634D01*
X59955256Y-48979312D01*
X59955262Y-48979305D01*
X59960925Y-48974829D01*
X59960963Y-48974877D01*
X59966800Y-48970122D01*
X59966761Y-48970075D01*
X59972296Y-48965430D01*
X60024985Y-48909582D01*
X64688749Y-44245819D01*
X64750072Y-44212334D01*
X64776430Y-44209500D01*
X69194500Y-44209500D01*
X69261539Y-44229185D01*
X69307294Y-44281989D01*
X69318500Y-44333500D01*
X69318500Y-48506870D01*
X69318501Y-48506876D01*
X69324908Y-48566483D01*
X69375202Y-48701328D01*
X69375206Y-48701335D01*
X69461452Y-48816544D01*
X69461455Y-48816547D01*
X69576664Y-48902793D01*
X69576671Y-48902797D01*
X69594863Y-48909582D01*
X69711517Y-48953091D01*
X69771127Y-48959500D01*
X70366872Y-48959499D01*
X70426483Y-48953091D01*
X70561331Y-48902796D01*
X70676546Y-48816546D01*
X70762796Y-48701331D01*
X70813091Y-48566483D01*
X70819500Y-48506873D01*
X70819500Y-46985326D01*
X70819500Y-43599705D01*
X70820809Y-43581735D01*
X70821969Y-43573815D01*
X70824289Y-43557977D01*
X70823571Y-43549776D01*
X70819736Y-43505939D01*
X70819500Y-43500532D01*
X70819500Y-43492297D01*
X70819500Y-43492296D01*
X70819500Y-43492291D01*
X70815691Y-43459707D01*
X70808998Y-43383202D01*
X70808996Y-43383197D01*
X70807538Y-43376133D01*
X70807597Y-43376120D01*
X70805967Y-43368764D01*
X70805908Y-43368779D01*
X70804242Y-43361753D01*
X70804241Y-43361745D01*
X70800777Y-43352227D01*
X70793299Y-43309818D01*
X70793299Y-43124908D01*
X70793299Y-42936128D01*
X70786891Y-42876517D01*
X70736596Y-42741669D01*
X70736595Y-42741668D01*
X70736593Y-42741664D01*
X70650347Y-42626455D01*
X70650344Y-42626452D01*
X70535135Y-42540206D01*
X70535128Y-42540202D01*
X70400286Y-42489910D01*
X70400285Y-42489909D01*
X70400283Y-42489909D01*
X70340673Y-42483500D01*
X70340663Y-42483500D01*
X69744929Y-42483500D01*
X69744923Y-42483501D01*
X69685316Y-42489908D01*
X69550471Y-42540202D01*
X69550464Y-42540206D01*
X69435257Y-42626451D01*
X69435249Y-42626458D01*
X69411032Y-42658810D01*
X69355099Y-42700682D01*
X69311765Y-42708500D01*
X64698675Y-42708500D01*
X64631636Y-42688815D01*
X64585881Y-42636011D01*
X64575937Y-42566853D01*
X64604962Y-42503297D01*
X64610994Y-42496819D01*
X76267663Y-30840151D01*
X84483135Y-22624678D01*
X89399500Y-22624678D01*
X89414032Y-22697735D01*
X89414033Y-22697739D01*
X89427335Y-22717647D01*
X89469399Y-22780601D01*
X89548270Y-22833300D01*
X89552260Y-22835966D01*
X89552264Y-22835967D01*
X89625321Y-22850499D01*
X89625324Y-22850500D01*
X89625326Y-22850500D01*
X92874676Y-22850500D01*
X92874677Y-22850499D01*
X92947740Y-22835966D01*
X93030601Y-22780601D01*
X93085966Y-22697740D01*
X93100500Y-22624674D01*
X93100500Y-20575326D01*
X93100500Y-20575323D01*
X93100499Y-20575321D01*
X93085967Y-20502264D01*
X93085966Y-20502260D01*
X93085088Y-20500946D01*
X93030601Y-20419399D01*
X92947740Y-20364034D01*
X92947739Y-20364033D01*
X92947735Y-20364032D01*
X92874677Y-20349500D01*
X92874674Y-20349500D01*
X89625326Y-20349500D01*
X89625323Y-20349500D01*
X89552264Y-20364032D01*
X89552260Y-20364033D01*
X89469399Y-20419399D01*
X89414033Y-20502260D01*
X89414032Y-20502264D01*
X89399500Y-20575321D01*
X89399500Y-22624678D01*
X84483135Y-22624678D01*
X88070994Y-19036819D01*
X88132318Y-19003334D01*
X88158676Y-19000500D01*
X97024616Y-19000500D01*
X97091655Y-19020185D01*
X97136997Y-19072095D01*
X97162898Y-19127639D01*
X97288402Y-19306877D01*
X97443123Y-19461598D01*
X97622361Y-19587102D01*
X97820670Y-19679575D01*
X98032023Y-19736207D01*
X98214926Y-19752208D01*
X98249998Y-19755277D01*
X98250000Y-19755277D01*
X98250002Y-19755277D01*
X98278254Y-19752805D01*
X98467977Y-19736207D01*
X98679330Y-19679575D01*
X98877639Y-19587102D01*
X99056877Y-19461598D01*
X99211598Y-19306877D01*
X99337102Y-19127639D01*
X99429575Y-18929330D01*
X99486207Y-18717977D01*
X99502805Y-18528254D01*
X99505277Y-18500002D01*
X99505277Y-18499997D01*
X99499202Y-18430557D01*
X99486207Y-18282023D01*
X99429575Y-18070670D01*
X99337102Y-17872362D01*
X99337100Y-17872359D01*
X99337099Y-17872357D01*
X99211599Y-17693124D01*
X99143975Y-17625500D01*
X99056877Y-17538402D01*
X98897826Y-17427033D01*
X98877638Y-17412897D01*
X98772848Y-17364033D01*
X98679330Y-17320425D01*
X98679326Y-17320424D01*
X98679322Y-17320422D01*
X98467977Y-17263793D01*
X98250002Y-17244723D01*
X98249998Y-17244723D01*
X98104681Y-17257436D01*
X98032023Y-17263793D01*
X98032020Y-17263793D01*
X97820677Y-17320422D01*
X97820668Y-17320426D01*
X97622361Y-17412898D01*
X97622357Y-17412900D01*
X97443121Y-17538402D01*
X97288402Y-17693121D01*
X97162898Y-17872360D01*
X97162895Y-17872366D01*
X97136998Y-17927904D01*
X97090826Y-17980344D01*
X97024616Y-17999500D01*
X87967143Y-17999500D01*
X87940785Y-17996666D01*
X87936074Y-17995641D01*
X87936070Y-17995641D01*
X87897710Y-17998385D01*
X87884328Y-17999342D01*
X87879906Y-17999500D01*
X87864199Y-17999500D01*
X87848656Y-18001734D01*
X87844260Y-18002207D01*
X87792517Y-18005909D01*
X87792513Y-18005910D01*
X87787986Y-18007598D01*
X87762327Y-18014146D01*
X87757550Y-18014833D01*
X87757543Y-18014835D01*
X87710353Y-18036385D01*
X87706264Y-18038078D01*
X87657675Y-18056200D01*
X87657664Y-18056206D01*
X87653799Y-18059100D01*
X87631020Y-18072615D01*
X87626636Y-18074617D01*
X87626626Y-18074623D01*
X87613409Y-18086076D01*
X87587428Y-18108587D01*
X87583996Y-18111354D01*
X87571402Y-18120781D01*
X87560291Y-18131892D01*
X87557054Y-18134906D01*
X87523492Y-18163988D01*
X87459937Y-18193013D01*
X87390778Y-18183070D01*
X87337974Y-18137315D01*
X87318289Y-18070276D01*
X87318605Y-18061427D01*
X87321359Y-18022927D01*
X87320332Y-18018206D01*
X87317500Y-17991858D01*
X87317500Y-14747937D01*
X87320334Y-14721578D01*
X87321358Y-14716873D01*
X87317657Y-14665137D01*
X87317500Y-14660715D01*
X87317500Y-14645000D01*
X87315264Y-14629452D01*
X87314790Y-14625045D01*
X87311092Y-14573322D01*
X87311090Y-14573314D01*
X87309407Y-14568802D01*
X87302850Y-14543112D01*
X87302165Y-14538343D01*
X87295923Y-14524676D01*
X87280616Y-14491159D01*
X87278932Y-14487095D01*
X87260796Y-14438469D01*
X87257905Y-14434607D01*
X87244379Y-14411810D01*
X87242377Y-14407427D01*
X87242375Y-14407425D01*
X87242375Y-14407424D01*
X87242374Y-14407423D01*
X87208403Y-14368218D01*
X87205625Y-14364770D01*
X87196224Y-14352212D01*
X87196222Y-14352210D01*
X87196220Y-14352207D01*
X87185117Y-14341104D01*
X87182100Y-14337863D01*
X87148128Y-14298657D01*
X87144071Y-14296050D01*
X87123427Y-14279414D01*
X86037585Y-13193571D01*
X86020950Y-13172928D01*
X86018345Y-13168874D01*
X86018342Y-13168871D01*
X86011347Y-13162810D01*
X85979132Y-13134896D01*
X85975900Y-13131886D01*
X85964796Y-13120782D01*
X85964788Y-13120775D01*
X85952213Y-13111362D01*
X85948783Y-13108598D01*
X85909573Y-13074623D01*
X85909571Y-13074622D01*
X85909567Y-13074619D01*
X85905183Y-13072617D01*
X85882394Y-13059096D01*
X85878531Y-13056204D01*
X85878529Y-13056203D01*
X85829916Y-13038071D01*
X85825842Y-13036383D01*
X85778657Y-13014835D01*
X85778655Y-13014834D01*
X85773882Y-13014148D01*
X85748200Y-13007593D01*
X85743685Y-13005909D01*
X85691940Y-13002207D01*
X85687543Y-13001734D01*
X85671999Y-12999500D01*
X85656294Y-12999500D01*
X85651871Y-12999342D01*
X85634283Y-12998084D01*
X85600129Y-12995641D01*
X85600125Y-12995641D01*
X85595415Y-12996666D01*
X85569057Y-12999500D01*
X85124500Y-12999500D01*
X85057461Y-12979815D01*
X85011706Y-12927011D01*
X85000500Y-12875500D01*
X85000500Y-12475323D01*
X85000499Y-12475321D01*
X84985967Y-12402264D01*
X84985966Y-12402260D01*
X84985965Y-12402259D01*
X84930601Y-12319399D01*
X84847740Y-12264034D01*
X84847739Y-12264033D01*
X84847735Y-12264032D01*
X84774677Y-12249500D01*
X84774674Y-12249500D01*
X82725326Y-12249500D01*
X82725323Y-12249500D01*
X82652264Y-12264032D01*
X82652260Y-12264033D01*
X82569399Y-12319399D01*
X82514033Y-12402260D01*
X82514032Y-12402264D01*
X82499500Y-12475321D01*
X82499500Y-14524678D01*
X82514032Y-14597735D01*
X82514033Y-14597739D01*
X82514034Y-14597740D01*
X82569399Y-14680601D01*
X82650228Y-14734608D01*
X82652260Y-14735966D01*
X82652264Y-14735967D01*
X82725321Y-14750499D01*
X82725324Y-14750500D01*
X82725326Y-14750500D01*
X84774676Y-14750500D01*
X84774677Y-14750499D01*
X84847740Y-14735966D01*
X84930601Y-14680601D01*
X84985966Y-14597740D01*
X85000500Y-14524674D01*
X85000500Y-14124499D01*
X85020185Y-14057461D01*
X85072989Y-14011706D01*
X85124500Y-14000500D01*
X85377524Y-14000500D01*
X85444563Y-14020185D01*
X85465205Y-14036819D01*
X86280181Y-14851794D01*
X86313666Y-14913117D01*
X86316500Y-14939475D01*
X86316500Y-17800324D01*
X86296815Y-17867363D01*
X86280181Y-17888005D01*
X85143601Y-19024584D01*
X85082278Y-19058069D01*
X85012586Y-19053085D01*
X84956653Y-19011213D01*
X84932236Y-18945749D01*
X84936145Y-18904809D01*
X84941188Y-18885989D01*
X84986207Y-18717977D01*
X85002805Y-18528254D01*
X85005277Y-18500002D01*
X85005277Y-18499997D01*
X84999202Y-18430557D01*
X84986207Y-18282023D01*
X84929575Y-18070670D01*
X84837102Y-17872362D01*
X84837100Y-17872359D01*
X84837099Y-17872357D01*
X84711599Y-17693124D01*
X84643975Y-17625500D01*
X84556877Y-17538402D01*
X84397826Y-17427033D01*
X84377638Y-17412897D01*
X84272848Y-17364033D01*
X84179330Y-17320425D01*
X84179326Y-17320424D01*
X84179322Y-17320422D01*
X83967977Y-17263793D01*
X83750002Y-17244723D01*
X83749998Y-17244723D01*
X83604681Y-17257436D01*
X83532023Y-17263793D01*
X83532020Y-17263793D01*
X83320677Y-17320422D01*
X83320668Y-17320426D01*
X83122361Y-17412898D01*
X83122357Y-17412900D01*
X82943121Y-17538402D01*
X82788402Y-17693121D01*
X82662900Y-17872357D01*
X82662898Y-17872361D01*
X82570426Y-18070668D01*
X82570422Y-18070677D01*
X82513793Y-18282020D01*
X82513793Y-18282023D01*
X82509388Y-18332373D01*
X82494723Y-18499997D01*
X82494723Y-18500002D01*
X82513793Y-18717975D01*
X82513793Y-18717979D01*
X82570422Y-18929322D01*
X82570424Y-18929326D01*
X82570425Y-18929330D01*
X82614843Y-19024584D01*
X82662897Y-19127638D01*
X82674074Y-19143600D01*
X82788402Y-19306877D01*
X82788406Y-19306880D01*
X82788406Y-19306881D01*
X82943121Y-19461596D01*
X82943127Y-19461601D01*
X82962914Y-19475456D01*
X83006539Y-19530032D01*
X83013733Y-19599531D01*
X82982211Y-19661886D01*
X82979472Y-19664712D01*
X57817005Y-44827181D01*
X57755682Y-44860666D01*
X57729324Y-44863500D01*
X27881598Y-44863500D01*
X27814559Y-44843815D01*
X27768804Y-44791011D01*
X27758860Y-44721853D01*
X27787885Y-44658297D01*
X27796323Y-44649477D01*
X27798040Y-44647850D01*
X27798041Y-44647849D01*
X27901858Y-44494730D01*
X27970331Y-44322875D01*
X28000260Y-44140317D01*
X27990245Y-43955593D01*
X27940754Y-43777341D01*
X27854100Y-43613896D01*
X27839003Y-43596123D01*
X27734337Y-43472900D01*
X27716982Y-43459707D01*
X27587064Y-43360946D01*
X27419167Y-43283268D01*
X27419163Y-43283266D01*
X27238497Y-43243500D01*
X26299887Y-43243500D01*
X26299883Y-43243500D01*
X26162088Y-43258486D01*
X25986776Y-43317557D01*
X25986774Y-43317558D01*
X25828262Y-43412931D01*
X25828261Y-43412932D01*
X25693959Y-43540149D01*
X25590138Y-43693276D01*
X25521669Y-43865122D01*
X25491740Y-44047685D01*
X25501755Y-44232409D01*
X25502686Y-44238090D01*
X25494101Y-44307431D01*
X25449391Y-44361122D01*
X25382751Y-44382118D01*
X25315338Y-44363753D01*
X25292637Y-44345823D01*
X22454499Y-41507685D01*
X25491740Y-41507685D01*
X25501755Y-41692406D01*
X25501755Y-41692411D01*
X25551244Y-41870656D01*
X25551247Y-41870662D01*
X25637898Y-42034102D01*
X25700540Y-42107850D01*
X25757663Y-42175100D01*
X25904936Y-42287054D01*
X26072833Y-42364732D01*
X26072834Y-42364732D01*
X26072836Y-42364733D01*
X26127648Y-42376797D01*
X26253503Y-42404500D01*
X26253506Y-42404500D01*
X27192107Y-42404500D01*
X27192113Y-42404500D01*
X27329910Y-42389514D01*
X27505221Y-42330444D01*
X27663736Y-42235070D01*
X27798041Y-42107849D01*
X27798047Y-42107839D01*
X27802391Y-42102727D01*
X27803589Y-42103745D01*
X27851233Y-42064472D01*
X27899953Y-42054500D01*
X52472884Y-42054500D01*
X52499242Y-42057334D01*
X52503954Y-42058359D01*
X52555698Y-42054657D01*
X52560121Y-42054500D01*
X52575826Y-42054500D01*
X52591369Y-42052264D01*
X52595767Y-42051791D01*
X52647510Y-42048091D01*
X52652019Y-42046408D01*
X52677712Y-42039850D01*
X52682484Y-42039165D01*
X52729673Y-42017613D01*
X52733755Y-42015922D01*
X52762665Y-42005140D01*
X52782356Y-41997797D01*
X52782356Y-41997796D01*
X52782358Y-41997796D01*
X52786216Y-41994907D01*
X52809022Y-41981375D01*
X52813400Y-41979377D01*
X52852591Y-41945416D01*
X52856041Y-41942637D01*
X52858957Y-41940453D01*
X52868620Y-41933221D01*
X52879747Y-41922092D01*
X52882952Y-41919109D01*
X52922170Y-41885128D01*
X52924778Y-41881068D01*
X52941408Y-41860431D01*
X66991431Y-27810408D01*
X67012068Y-27793778D01*
X67016128Y-27791170D01*
X67050109Y-27751952D01*
X67053092Y-27748747D01*
X67064221Y-27737620D01*
X67073637Y-27725041D01*
X67076417Y-27721591D01*
X67110377Y-27682400D01*
X67112375Y-27678022D01*
X67125907Y-27655216D01*
X67128796Y-27651358D01*
X67146922Y-27602755D01*
X67148614Y-27598672D01*
X67170165Y-27551484D01*
X67170850Y-27546712D01*
X67177409Y-27521019D01*
X67179091Y-27516510D01*
X67182791Y-27464767D01*
X67183265Y-27460367D01*
X67185500Y-27444826D01*
X67185500Y-27429121D01*
X67185658Y-27424696D01*
X67189359Y-27372954D01*
X67188332Y-27368233D01*
X67185500Y-27341885D01*
X67185500Y-25288535D01*
X67205185Y-25221496D01*
X67235186Y-25189271D01*
X67267146Y-25165346D01*
X67353396Y-25050131D01*
X67403691Y-24915283D01*
X67410100Y-24855673D01*
X67410099Y-23809928D01*
X67403691Y-23750317D01*
X67381824Y-23691689D01*
X67353397Y-23615471D01*
X67353393Y-23615464D01*
X67267147Y-23500255D01*
X67267144Y-23500252D01*
X67151934Y-23414005D01*
X67151933Y-23414004D01*
X67063698Y-23381094D01*
X67024155Y-23353639D01*
X67022833Y-23355166D01*
X67016129Y-23349357D01*
X67012066Y-23346746D01*
X66991428Y-23330114D01*
X66010618Y-22349303D01*
X65977133Y-22287980D01*
X65974299Y-22261622D01*
X65974299Y-21759929D01*
X65974298Y-21759923D01*
X65972637Y-21744472D01*
X65967891Y-21700317D01*
X65959491Y-21677796D01*
X65917597Y-21565471D01*
X65917593Y-21565464D01*
X65831347Y-21450255D01*
X65831344Y-21450252D01*
X65716135Y-21364006D01*
X65716128Y-21364002D01*
X65581282Y-21313708D01*
X65581283Y-21313708D01*
X65521683Y-21307301D01*
X65521681Y-21307300D01*
X65521673Y-21307300D01*
X65521664Y-21307300D01*
X64525929Y-21307300D01*
X64525923Y-21307301D01*
X64466316Y-21313708D01*
X64331471Y-21364002D01*
X64331464Y-21364006D01*
X64216255Y-21450252D01*
X64216252Y-21450255D01*
X64130006Y-21565464D01*
X64130002Y-21565471D01*
X64088108Y-21677797D01*
X64079709Y-21700317D01*
X64073300Y-21759927D01*
X64073300Y-21759934D01*
X64073300Y-21759935D01*
X64073300Y-22380670D01*
X64073301Y-22380676D01*
X64079708Y-22440283D01*
X64130002Y-22575128D01*
X64130006Y-22575135D01*
X64216252Y-22690344D01*
X64216255Y-22690347D01*
X64331464Y-22776593D01*
X64331471Y-22776597D01*
X64376418Y-22793361D01*
X64466317Y-22826891D01*
X64525927Y-22833300D01*
X65027623Y-22833299D01*
X65094662Y-22852983D01*
X65115304Y-22869618D01*
X65881996Y-23636310D01*
X65915481Y-23697633D01*
X65915082Y-23742469D01*
X65916338Y-23742605D01*
X65915509Y-23750316D01*
X65915509Y-23750317D01*
X65909101Y-23809923D01*
X65909100Y-23809935D01*
X65909100Y-24855670D01*
X65909101Y-24855676D01*
X65915508Y-24915283D01*
X65965802Y-25050128D01*
X65965806Y-25050135D01*
X66020806Y-25123604D01*
X66052054Y-25165346D01*
X66134812Y-25227299D01*
X66176682Y-25283231D01*
X66184500Y-25326564D01*
X66184500Y-27150350D01*
X66164815Y-27217389D01*
X66148181Y-27238031D01*
X59192279Y-34193932D01*
X59130956Y-34227417D01*
X59061264Y-34222433D01*
X59005331Y-34180561D01*
X58985939Y-34142250D01*
X58939954Y-33990658D01*
X58939952Y-33990655D01*
X58939952Y-33990653D01*
X58845939Y-33814768D01*
X58845937Y-33814766D01*
X58845936Y-33814763D01*
X58781500Y-33736247D01*
X58719410Y-33660589D01*
X58588651Y-33553279D01*
X58565237Y-33534064D01*
X58565235Y-33534063D01*
X58565231Y-33534060D01*
X58389348Y-33440048D01*
X58389342Y-33440046D01*
X58198485Y-33382150D01*
X58198483Y-33382149D01*
X58198481Y-33382149D01*
X58000000Y-33362601D01*
X57801518Y-33382149D01*
X57610651Y-33440048D01*
X57434768Y-33534060D01*
X57434762Y-33534064D01*
X57421164Y-33545224D01*
X57356854Y-33572536D01*
X57287987Y-33560745D01*
X57236427Y-33513592D01*
X57218500Y-33449370D01*
X57218500Y-25210843D01*
X57221334Y-25184485D01*
X57222359Y-25179773D01*
X57218658Y-25128029D01*
X57218500Y-25123604D01*
X57218500Y-25107901D01*
X57216264Y-25092357D01*
X57215791Y-25087954D01*
X57212091Y-25036217D01*
X57210407Y-25031702D01*
X57203850Y-25006012D01*
X57203165Y-25001243D01*
X57181612Y-24954051D01*
X57179932Y-24949995D01*
X57161796Y-24901369D01*
X57158905Y-24897507D01*
X57145379Y-24874710D01*
X57143377Y-24870327D01*
X57130679Y-24855673D01*
X57109411Y-24831127D01*
X57106633Y-24827679D01*
X57097229Y-24815117D01*
X57097224Y-24815112D01*
X57097221Y-24815107D01*
X57086097Y-24803983D01*
X57083103Y-24800767D01*
X57049128Y-24761557D01*
X57049125Y-24761554D01*
X57045066Y-24758946D01*
X57024428Y-24742314D01*
X54910818Y-22628704D01*
X54877333Y-22567381D01*
X54874499Y-22541023D01*
X54874499Y-22039329D01*
X54874498Y-22039323D01*
X54873525Y-22030275D01*
X54868091Y-21979717D01*
X54843979Y-21915070D01*
X54817797Y-21844871D01*
X54817793Y-21844864D01*
X54731547Y-21729655D01*
X54731544Y-21729652D01*
X54616335Y-21643406D01*
X54616328Y-21643402D01*
X54481482Y-21593108D01*
X54481483Y-21593108D01*
X54421883Y-21586701D01*
X54421881Y-21586700D01*
X54421873Y-21586700D01*
X54421864Y-21586700D01*
X53426129Y-21586700D01*
X53426123Y-21586701D01*
X53366516Y-21593108D01*
X53231671Y-21643402D01*
X53231664Y-21643406D01*
X53116455Y-21729652D01*
X53116452Y-21729655D01*
X53030206Y-21844864D01*
X53030202Y-21844871D01*
X52982757Y-21972081D01*
X52979909Y-21979717D01*
X52973500Y-22039327D01*
X52973500Y-22039334D01*
X52973500Y-22039335D01*
X52973500Y-22660070D01*
X52973501Y-22660076D01*
X52979908Y-22719683D01*
X53030202Y-22854528D01*
X53030206Y-22854535D01*
X53116452Y-22969744D01*
X53116455Y-22969747D01*
X53231664Y-23055993D01*
X53231671Y-23055997D01*
X53265079Y-23068457D01*
X53366517Y-23106291D01*
X53426127Y-23112700D01*
X53927823Y-23112699D01*
X53994862Y-23132383D01*
X54015504Y-23149018D01*
X56181181Y-25314694D01*
X56214666Y-25376017D01*
X56217500Y-25402375D01*
X56217500Y-33430541D01*
X56197815Y-33497580D01*
X56145011Y-33543335D01*
X56075853Y-33553279D01*
X56031048Y-33536113D01*
X56030610Y-33536935D01*
X55849348Y-33440048D01*
X55849342Y-33440046D01*
X55658485Y-33382150D01*
X55658483Y-33382149D01*
X55658481Y-33382149D01*
X55460000Y-33362601D01*
X55261518Y-33382149D01*
X55070651Y-33440048D01*
X54894768Y-33534060D01*
X54894761Y-33534065D01*
X54740589Y-33660589D01*
X54614065Y-33814761D01*
X54614060Y-33814768D01*
X54520048Y-33990651D01*
X54462149Y-34181518D01*
X54442601Y-34379999D01*
X54462149Y-34578481D01*
X54462149Y-34578483D01*
X54462150Y-34578485D01*
X54512580Y-34744731D01*
X54520048Y-34769348D01*
X54614060Y-34945231D01*
X54614065Y-34945238D01*
X54740589Y-35099410D01*
X54847875Y-35187456D01*
X54894763Y-35225936D01*
X54894766Y-35225937D01*
X54894768Y-35225939D01*
X55070651Y-35319951D01*
X55070654Y-35319951D01*
X55070658Y-35319954D01*
X55261515Y-35377850D01*
X55460000Y-35397399D01*
X55658485Y-35377850D01*
X55849342Y-35319954D01*
X55866788Y-35310629D01*
X56030610Y-35223065D01*
X56031257Y-35224275D01*
X56091281Y-35205478D01*
X56158662Y-35223960D01*
X56205355Y-35275936D01*
X56217500Y-35329458D01*
X56217500Y-36127400D01*
X56197815Y-36194439D01*
X56181181Y-36215081D01*
X53919082Y-38477181D01*
X53857759Y-38510666D01*
X53831401Y-38513500D01*
X43381252Y-38513500D01*
X43314213Y-38493815D01*
X43268458Y-38441011D01*
X43258514Y-38371853D01*
X43286263Y-38309794D01*
X43391302Y-38184614D01*
X43470040Y-38027833D01*
X43510500Y-37857121D01*
X43510500Y-36590304D01*
X43511809Y-36572335D01*
X43513576Y-36560270D01*
X43515289Y-36548577D01*
X43512816Y-36520314D01*
X43510736Y-36496534D01*
X43510500Y-36491128D01*
X43510500Y-36482898D01*
X43510499Y-36482884D01*
X43509119Y-36471074D01*
X43508700Y-36463873D01*
X43508700Y-35337738D01*
X43528385Y-35270699D01*
X43545014Y-35250061D01*
X43643949Y-35151127D01*
X43725168Y-35013792D01*
X43769682Y-34860574D01*
X43772500Y-34824770D01*
X43772500Y-33935230D01*
X43769682Y-33899426D01*
X43725168Y-33746208D01*
X43643949Y-33608873D01*
X43643947Y-33608871D01*
X43643944Y-33608867D01*
X43531132Y-33496055D01*
X43531124Y-33496049D01*
X43393793Y-33414832D01*
X43393787Y-33414830D01*
X43240580Y-33370319D01*
X43240569Y-33370317D01*
X43204773Y-33367500D01*
X43204770Y-33367500D01*
X42315230Y-33367500D01*
X42315227Y-33367500D01*
X42279430Y-33370317D01*
X42279419Y-33370319D01*
X42126212Y-33414830D01*
X42126206Y-33414832D01*
X41988875Y-33496049D01*
X41988867Y-33496055D01*
X41876055Y-33608867D01*
X41876049Y-33608875D01*
X41794832Y-33746206D01*
X41794830Y-33746212D01*
X41750319Y-33899419D01*
X41750317Y-33899430D01*
X41747500Y-33935227D01*
X41747500Y-34824773D01*
X41750317Y-34860569D01*
X41750319Y-34860580D01*
X41794830Y-35013787D01*
X41794832Y-35013793D01*
X41876049Y-35151124D01*
X41876055Y-35151132D01*
X41971381Y-35246458D01*
X42004866Y-35307781D01*
X42007700Y-35334139D01*
X42007700Y-36461094D01*
X42006391Y-36479063D01*
X42002910Y-36502825D01*
X42007464Y-36554864D01*
X42007700Y-36560270D01*
X42007700Y-37047670D01*
X42007701Y-37047673D01*
X42009145Y-37061103D01*
X42009500Y-37067734D01*
X42009500Y-37813109D01*
X42023063Y-37929149D01*
X42024759Y-37943656D01*
X42024760Y-37943659D01*
X42084762Y-38108515D01*
X42084764Y-38108519D01*
X42181166Y-38255092D01*
X42181169Y-38255095D01*
X42181170Y-38255096D01*
X42225229Y-38296664D01*
X42228030Y-38299306D01*
X42263284Y-38359630D01*
X42260328Y-38429437D01*
X42220100Y-38486564D01*
X42155374Y-38512875D01*
X42142935Y-38513500D01*
X32951547Y-38513500D01*
X32884508Y-38493815D01*
X32854004Y-38461052D01*
X32851712Y-38462769D01*
X32760147Y-38340455D01*
X32760144Y-38340452D01*
X32644935Y-38254206D01*
X32644928Y-38254202D01*
X32510082Y-38203908D01*
X32510083Y-38203908D01*
X32450483Y-38197501D01*
X32450481Y-38197500D01*
X32450473Y-38197500D01*
X32450464Y-38197500D01*
X31404729Y-38197500D01*
X31404723Y-38197501D01*
X31345116Y-38203908D01*
X31210271Y-38254202D01*
X31210264Y-38254206D01*
X31095055Y-38340452D01*
X31095052Y-38340455D01*
X31003488Y-38462769D01*
X31000717Y-38460695D01*
X30963078Y-38498333D01*
X30903653Y-38513500D01*
X27894144Y-38513500D01*
X27827105Y-38493815D01*
X27799636Y-38469776D01*
X27734337Y-38392900D01*
X27690571Y-38359630D01*
X27587064Y-38280946D01*
X27419167Y-38203268D01*
X27419163Y-38203266D01*
X27238497Y-38163500D01*
X26299887Y-38163500D01*
X26299883Y-38163500D01*
X26162088Y-38178486D01*
X25986776Y-38237557D01*
X25986774Y-38237558D01*
X25828262Y-38332931D01*
X25828261Y-38332932D01*
X25693959Y-38460149D01*
X25590138Y-38613276D01*
X25521669Y-38785122D01*
X25491740Y-38967685D01*
X25501755Y-39152406D01*
X25501755Y-39152411D01*
X25551244Y-39330656D01*
X25551247Y-39330662D01*
X25637898Y-39494102D01*
X25724861Y-39596483D01*
X25757663Y-39635100D01*
X25904936Y-39747054D01*
X26072833Y-39824732D01*
X26072834Y-39824732D01*
X26072836Y-39824733D01*
X26127648Y-39836797D01*
X26253503Y-39864500D01*
X26253506Y-39864500D01*
X27192107Y-39864500D01*
X27192113Y-39864500D01*
X27329910Y-39849514D01*
X27505221Y-39790444D01*
X27663736Y-39695070D01*
X27798041Y-39567849D01*
X27798047Y-39567839D01*
X27802391Y-39562727D01*
X27803589Y-39563745D01*
X27851233Y-39524472D01*
X27899953Y-39514500D01*
X31002646Y-39514500D01*
X31069685Y-39534185D01*
X31090327Y-39550819D01*
X31095055Y-39555547D01*
X31210264Y-39641793D01*
X31210271Y-39641797D01*
X31345117Y-39692091D01*
X31345116Y-39692091D01*
X31352044Y-39692835D01*
X31404727Y-39698500D01*
X32450472Y-39698499D01*
X32510083Y-39692091D01*
X32644931Y-39641796D01*
X32760146Y-39555546D01*
X32760148Y-39555542D01*
X32764873Y-39550819D01*
X32826196Y-39517334D01*
X32852554Y-39514500D01*
X53572351Y-39514500D01*
X53639390Y-39534185D01*
X53685145Y-39586989D01*
X53695089Y-39656147D01*
X53666064Y-39719703D01*
X53660032Y-39726181D01*
X52369032Y-41017181D01*
X52307709Y-41050666D01*
X52281351Y-41053500D01*
X27894144Y-41053500D01*
X27827105Y-41033815D01*
X27799636Y-41009776D01*
X27734337Y-40932900D01*
X27655449Y-40872931D01*
X27587064Y-40820946D01*
X27419167Y-40743268D01*
X27419163Y-40743266D01*
X27238497Y-40703500D01*
X26299887Y-40703500D01*
X26299883Y-40703500D01*
X26162088Y-40718486D01*
X25986776Y-40777557D01*
X25986774Y-40777558D01*
X25828262Y-40872931D01*
X25828261Y-40872932D01*
X25693959Y-41000149D01*
X25590138Y-41153276D01*
X25521669Y-41325122D01*
X25491740Y-41507685D01*
X22454499Y-41507685D01*
X17374499Y-36427685D01*
X25491740Y-36427685D01*
X25501755Y-36612406D01*
X25501755Y-36612411D01*
X25551244Y-36790656D01*
X25551247Y-36790662D01*
X25637898Y-36954102D01*
X25724861Y-37056483D01*
X25757663Y-37095100D01*
X25904936Y-37207054D01*
X26072833Y-37284732D01*
X26072834Y-37284732D01*
X26072836Y-37284733D01*
X26127648Y-37296797D01*
X26253503Y-37324500D01*
X26253506Y-37324500D01*
X27192107Y-37324500D01*
X27192113Y-37324500D01*
X27329910Y-37309514D01*
X27505221Y-37250444D01*
X27663736Y-37155070D01*
X27798041Y-37027849D01*
X27901858Y-36874730D01*
X27970331Y-36702875D01*
X28000260Y-36520317D01*
X27990245Y-36335593D01*
X27990244Y-36335588D01*
X27940755Y-36157343D01*
X27940752Y-36157337D01*
X27854101Y-35993897D01*
X27734337Y-35852900D01*
X27655449Y-35792931D01*
X27587064Y-35740946D01*
X27419167Y-35663268D01*
X27419163Y-35663266D01*
X27238497Y-35623500D01*
X26299887Y-35623500D01*
X26299883Y-35623500D01*
X26162088Y-35638486D01*
X25986776Y-35697557D01*
X25986774Y-35697558D01*
X25828262Y-35792931D01*
X25828261Y-35792932D01*
X25693959Y-35920149D01*
X25590138Y-36073276D01*
X25521669Y-36245122D01*
X25491740Y-36427685D01*
X17374499Y-36427685D01*
X17281818Y-36335004D01*
X17248333Y-36273681D01*
X17245499Y-36247323D01*
X17245499Y-35976129D01*
X17245498Y-35976123D01*
X17245497Y-35976116D01*
X17239482Y-35920151D01*
X17239091Y-35916516D01*
X17188797Y-35781671D01*
X17188793Y-35781664D01*
X17102547Y-35666455D01*
X17102544Y-35666452D01*
X16987335Y-35580206D01*
X16987328Y-35580202D01*
X16852486Y-35529910D01*
X16852485Y-35529909D01*
X16852483Y-35529909D01*
X16792873Y-35523500D01*
X16792863Y-35523500D01*
X16172129Y-35523500D01*
X16172123Y-35523501D01*
X16112516Y-35529908D01*
X15977671Y-35580202D01*
X15977664Y-35580206D01*
X15862455Y-35666452D01*
X15862452Y-35666455D01*
X15776206Y-35781664D01*
X15776202Y-35781671D01*
X15725908Y-35916517D01*
X15719816Y-35973184D01*
X15719501Y-35976123D01*
X15719500Y-35976135D01*
X15719500Y-36971870D01*
X15719501Y-36971876D01*
X15725908Y-37031483D01*
X15776202Y-37166328D01*
X15776206Y-37166335D01*
X15862452Y-37281544D01*
X15862455Y-37281547D01*
X15977664Y-37367793D01*
X15977671Y-37367797D01*
X16022618Y-37384560D01*
X16112517Y-37418091D01*
X16172127Y-37424500D01*
X16792872Y-37424499D01*
X16852483Y-37418091D01*
X16860034Y-37416307D01*
X16860616Y-37418773D01*
X16917961Y-37414649D01*
X16979294Y-37448108D01*
X16979331Y-37448145D01*
X25201614Y-45670428D01*
X25218246Y-45691066D01*
X25220854Y-45695125D01*
X25220857Y-45695128D01*
X25260067Y-45729103D01*
X25263283Y-45732097D01*
X25274407Y-45743221D01*
X25274412Y-45743224D01*
X25274417Y-45743229D01*
X25286979Y-45752633D01*
X25290427Y-45755411D01*
X25320947Y-45781856D01*
X25329627Y-45789377D01*
X25334010Y-45791379D01*
X25356807Y-45804905D01*
X25360669Y-45807796D01*
X25409295Y-45825932D01*
X25413351Y-45827612D01*
X25435457Y-45837708D01*
X25460540Y-45849164D01*
X25460541Y-45849164D01*
X25460543Y-45849165D01*
X25465312Y-45849850D01*
X25491002Y-45856407D01*
X25495517Y-45858091D01*
X25547258Y-45861791D01*
X25551657Y-45862264D01*
X25567201Y-45864500D01*
X25582905Y-45864500D01*
X25587328Y-45864658D01*
X25593263Y-45865082D01*
X25617160Y-45866791D01*
X25682624Y-45891206D01*
X25724497Y-45947138D01*
X25729483Y-46016830D01*
X25697897Y-46074677D01*
X25698310Y-46075028D01*
X25696618Y-46077019D01*
X25695999Y-46078154D01*
X25694007Y-46080093D01*
X25693961Y-46080147D01*
X25590138Y-46233276D01*
X25521669Y-46405122D01*
X25521669Y-46405125D01*
X25491740Y-46587683D01*
X25500997Y-46758435D01*
X25501755Y-46772406D01*
X25501755Y-46772411D01*
X25551244Y-46950656D01*
X25551247Y-46950662D01*
X25641049Y-47120044D01*
X25639889Y-47120658D01*
X25659017Y-47180325D01*
X25640990Y-47247829D01*
X25589328Y-47294871D01*
X25520436Y-47306514D01*
X25456185Y-47279063D01*
X25447374Y-47271060D01*
X17281818Y-39105504D01*
X17248333Y-39044181D01*
X17245499Y-39017823D01*
X17245499Y-38516129D01*
X17245498Y-38516123D01*
X17245497Y-38516116D01*
X17239763Y-38462769D01*
X17239091Y-38456516D01*
X17188797Y-38321671D01*
X17188793Y-38321664D01*
X17102547Y-38206455D01*
X17102544Y-38206452D01*
X16987335Y-38120206D01*
X16987328Y-38120202D01*
X16852486Y-38069910D01*
X16852485Y-38069909D01*
X16852483Y-38069909D01*
X16792873Y-38063500D01*
X16792863Y-38063500D01*
X16172129Y-38063500D01*
X16172123Y-38063501D01*
X16112516Y-38069908D01*
X15977671Y-38120202D01*
X15977664Y-38120206D01*
X15862455Y-38206452D01*
X15862452Y-38206455D01*
X15776206Y-38321664D01*
X15776202Y-38321671D01*
X15725908Y-38456517D01*
X15719816Y-38513184D01*
X15719501Y-38516123D01*
X15719500Y-38516135D01*
X15719500Y-39511870D01*
X15719501Y-39511876D01*
X15725908Y-39571483D01*
X15776202Y-39706328D01*
X15776206Y-39706335D01*
X15862452Y-39821544D01*
X15862455Y-39821547D01*
X15977664Y-39907793D01*
X15977671Y-39907797D01*
X16022618Y-39924560D01*
X16112517Y-39958091D01*
X16172127Y-39964500D01*
X16673823Y-39964499D01*
X16740862Y-39984183D01*
X16761504Y-40000818D01*
X24945714Y-48185028D01*
X24962346Y-48205666D01*
X24964954Y-48209725D01*
X24964957Y-48209728D01*
X25004167Y-48243703D01*
X25007383Y-48246697D01*
X25018507Y-48257821D01*
X25018512Y-48257824D01*
X25018517Y-48257829D01*
X25031079Y-48267233D01*
X25034527Y-48270011D01*
X25065047Y-48296456D01*
X25073727Y-48303977D01*
X25078110Y-48305979D01*
X25100907Y-48319505D01*
X25104769Y-48322396D01*
X25153395Y-48340532D01*
X25157451Y-48342212D01*
X25179557Y-48352308D01*
X25204640Y-48363764D01*
X25204641Y-48363764D01*
X25204643Y-48363765D01*
X25209412Y-48364450D01*
X25235102Y-48371007D01*
X25239617Y-48372691D01*
X25291358Y-48376391D01*
X25295757Y-48376864D01*
X25311301Y-48379100D01*
X25327006Y-48379100D01*
X25331428Y-48379257D01*
X25383173Y-48382959D01*
X25387884Y-48381934D01*
X25414243Y-48379100D01*
X25637216Y-48379100D01*
X25704255Y-48398785D01*
X25750010Y-48451589D01*
X25759954Y-48520747D01*
X25730929Y-48584303D01*
X25722491Y-48593123D01*
X25693959Y-48620149D01*
X25590138Y-48773276D01*
X25521669Y-48945122D01*
X25517571Y-48970122D01*
X25492148Y-49125198D01*
X25491740Y-49127685D01*
X25501755Y-49312406D01*
X25501755Y-49312411D01*
X25551244Y-49490656D01*
X25551245Y-49490658D01*
X25578156Y-49541416D01*
X25592167Y-49609867D01*
X25566946Y-49675026D01*
X25510502Y-49716206D01*
X25468601Y-49723500D01*
X22744176Y-49723500D01*
X22677137Y-49703815D01*
X22656495Y-49687181D01*
X17154818Y-44185504D01*
X17121333Y-44124181D01*
X17118499Y-44097823D01*
X17118499Y-43596129D01*
X17118498Y-43596123D01*
X17118497Y-43596116D01*
X17112482Y-43540151D01*
X17112091Y-43536516D01*
X17061797Y-43401671D01*
X17061793Y-43401664D01*
X16975547Y-43286455D01*
X16975544Y-43286452D01*
X16860335Y-43200206D01*
X16860328Y-43200202D01*
X16725486Y-43149910D01*
X16725485Y-43149909D01*
X16725483Y-43149909D01*
X16665873Y-43143500D01*
X16665863Y-43143500D01*
X16045129Y-43143500D01*
X16045123Y-43143501D01*
X15985516Y-43149908D01*
X15850671Y-43200202D01*
X15850664Y-43200206D01*
X15735455Y-43286452D01*
X15735452Y-43286455D01*
X15649206Y-43401664D01*
X15649202Y-43401671D01*
X15598908Y-43536517D01*
X15592816Y-43593184D01*
X15592501Y-43596123D01*
X15592500Y-43596135D01*
X15592500Y-44591870D01*
X15592501Y-44591876D01*
X15598908Y-44651483D01*
X15649202Y-44786328D01*
X15649206Y-44786335D01*
X15735452Y-44901544D01*
X15735455Y-44901547D01*
X15850664Y-44987793D01*
X15850671Y-44987797D01*
X15895618Y-45004560D01*
X15985517Y-45038091D01*
X16045127Y-45044500D01*
X16546823Y-45044499D01*
X16613862Y-45064183D01*
X16634504Y-45080818D01*
X22084114Y-50530428D01*
X22100746Y-50551066D01*
X22103354Y-50555125D01*
X22103357Y-50555128D01*
X22142567Y-50589103D01*
X22145783Y-50592097D01*
X22156907Y-50603221D01*
X22156912Y-50603224D01*
X22156917Y-50603229D01*
X22169479Y-50612633D01*
X22172927Y-50615411D01*
X22203447Y-50641856D01*
X22212127Y-50649377D01*
X22216510Y-50651379D01*
X22239307Y-50664905D01*
X22243169Y-50667796D01*
X22291795Y-50685932D01*
X22295851Y-50687612D01*
X22317957Y-50697708D01*
X22343040Y-50709164D01*
X22343041Y-50709164D01*
X22343043Y-50709165D01*
X22347812Y-50709850D01*
X22373502Y-50716407D01*
X22378017Y-50718091D01*
X22429758Y-50721791D01*
X22434157Y-50722264D01*
X22449701Y-50724500D01*
X22465406Y-50724500D01*
X22469828Y-50724657D01*
X22521573Y-50728359D01*
X22526284Y-50727334D01*
X22552643Y-50724500D01*
X25894272Y-50724500D01*
X25961311Y-50744185D01*
X26007066Y-50796989D01*
X26017010Y-50866147D01*
X25987985Y-50929703D01*
X25958201Y-50954750D01*
X25828262Y-51032931D01*
X25828261Y-51032932D01*
X25693959Y-51160149D01*
X25590138Y-51313276D01*
X25521669Y-51485122D01*
X25491740Y-51667685D01*
X25501755Y-51852406D01*
X25501755Y-51852411D01*
X25551244Y-52030656D01*
X25551245Y-52030658D01*
X25578156Y-52081416D01*
X25592167Y-52149867D01*
X25566946Y-52215026D01*
X25510502Y-52256206D01*
X25468601Y-52263500D01*
X16536229Y-52263500D01*
X16469190Y-52243815D01*
X16448548Y-52227181D01*
X15449729Y-51228361D01*
X15437949Y-51214730D01*
X15423610Y-51195470D01*
X15423609Y-51195468D01*
X15396036Y-51172332D01*
X15383585Y-51161884D01*
X15379610Y-51158242D01*
X15376689Y-51155321D01*
X15373780Y-51152411D01*
X15348040Y-51132059D01*
X15289209Y-51082694D01*
X15283180Y-51078729D01*
X15283212Y-51078680D01*
X15276853Y-51074628D01*
X15276822Y-51074679D01*
X15270680Y-51070891D01*
X15270678Y-51070890D01*
X15270677Y-51070889D01*
X15231474Y-51052608D01*
X15201058Y-51038424D01*
X15166894Y-51021267D01*
X15132433Y-51003960D01*
X15132431Y-51003959D01*
X15132430Y-51003959D01*
X15125645Y-51001489D01*
X15125665Y-51001433D01*
X15118549Y-50998959D01*
X15118531Y-50999015D01*
X15111671Y-50996742D01*
X15083841Y-50990996D01*
X15036434Y-50981207D01*
X14987472Y-50969603D01*
X14961719Y-50963499D01*
X14954547Y-50962661D01*
X14954553Y-50962601D01*
X14947055Y-50961835D01*
X14947050Y-50961895D01*
X14939860Y-50961265D01*
X14863083Y-50963500D01*
X12336650Y-50963500D01*
X12284584Y-50952039D01*
X12179171Y-50903269D01*
X12179163Y-50903266D01*
X11998497Y-50863500D01*
X11059887Y-50863500D01*
X11059883Y-50863500D01*
X10922088Y-50878486D01*
X10746776Y-50937557D01*
X10746774Y-50937558D01*
X10588262Y-51032931D01*
X10588261Y-51032932D01*
X10453959Y-51160149D01*
X10350138Y-51313276D01*
X10281669Y-51485122D01*
X10251740Y-51667685D01*
X500Y-51667685D01*
X500Y-46587683D01*
X10251740Y-46587683D01*
X10260997Y-46758435D01*
X10261755Y-46772406D01*
X10261755Y-46772411D01*
X10311244Y-46950656D01*
X10311247Y-46950662D01*
X10397898Y-47114102D01*
X10460540Y-47187850D01*
X10517663Y-47255100D01*
X10664936Y-47367054D01*
X10832833Y-47444732D01*
X10832834Y-47444732D01*
X10832836Y-47444733D01*
X10887648Y-47456797D01*
X11013503Y-47484500D01*
X11013506Y-47484500D01*
X11952107Y-47484500D01*
X11952113Y-47484500D01*
X12089910Y-47469514D01*
X12265221Y-47410444D01*
X12423736Y-47315070D01*
X12558041Y-47187849D01*
X12661858Y-47034730D01*
X12730331Y-46862875D01*
X12760260Y-46680317D01*
X12750245Y-46495593D01*
X12700754Y-46317341D01*
X12656182Y-46233270D01*
X12614101Y-46153897D01*
X12494337Y-46012900D01*
X12415449Y-45952931D01*
X12347064Y-45900946D01*
X12179167Y-45823268D01*
X12179163Y-45823266D01*
X11998497Y-45783500D01*
X11059887Y-45783500D01*
X11059883Y-45783500D01*
X10922088Y-45798486D01*
X10746776Y-45857557D01*
X10746774Y-45857558D01*
X10588262Y-45952931D01*
X10588261Y-45952932D01*
X10453959Y-46080149D01*
X10350138Y-46233276D01*
X10281669Y-46405122D01*
X10281669Y-46405125D01*
X10251740Y-46587683D01*
X500Y-46587683D01*
X500Y-44616870D01*
X6244500Y-44616870D01*
X6244501Y-44616876D01*
X6250908Y-44676483D01*
X6301202Y-44811328D01*
X6301206Y-44811335D01*
X6387452Y-44926544D01*
X6387455Y-44926547D01*
X6502664Y-45012793D01*
X6502671Y-45012797D01*
X6547618Y-45029560D01*
X6637517Y-45063091D01*
X6697127Y-45069500D01*
X7292872Y-45069499D01*
X7352483Y-45063091D01*
X7487331Y-45012796D01*
X7602546Y-44926546D01*
X7688796Y-44811331D01*
X7739091Y-44676483D01*
X7739090Y-44676483D01*
X7739582Y-44675167D01*
X7781453Y-44619233D01*
X7846917Y-44594816D01*
X7855764Y-44594500D01*
X10357856Y-44594500D01*
X10424895Y-44614185D01*
X10452364Y-44638224D01*
X10517662Y-44715099D01*
X10517663Y-44715100D01*
X10664936Y-44827054D01*
X10832833Y-44904732D01*
X10832834Y-44904732D01*
X10832836Y-44904733D01*
X10887648Y-44916797D01*
X11013503Y-44944500D01*
X11013506Y-44944500D01*
X11952107Y-44944500D01*
X11952113Y-44944500D01*
X12089910Y-44929514D01*
X12265221Y-44870444D01*
X12423736Y-44775070D01*
X12558041Y-44647849D01*
X12558047Y-44647839D01*
X12562391Y-44642727D01*
X12563589Y-44643745D01*
X12611233Y-44604472D01*
X12659953Y-44594500D01*
X13666560Y-44594500D01*
X13733599Y-44614185D01*
X13779354Y-44666989D01*
X13782742Y-44675167D01*
X13824202Y-44786328D01*
X13824206Y-44786335D01*
X13910452Y-44901544D01*
X13910455Y-44901547D01*
X14025664Y-44987793D01*
X14025671Y-44987797D01*
X14070618Y-45004560D01*
X14160517Y-45038091D01*
X14220127Y-45044500D01*
X14840872Y-45044499D01*
X14900483Y-45038091D01*
X15035331Y-44987796D01*
X15150546Y-44901546D01*
X15236796Y-44786331D01*
X15287091Y-44651483D01*
X15293500Y-44591873D01*
X15293499Y-43596128D01*
X15287482Y-43540151D01*
X15287091Y-43536516D01*
X15236797Y-43401671D01*
X15236793Y-43401664D01*
X15150547Y-43286455D01*
X15150544Y-43286452D01*
X15035335Y-43200206D01*
X15035328Y-43200202D01*
X14900486Y-43149910D01*
X14900485Y-43149909D01*
X14900483Y-43149909D01*
X14840873Y-43143500D01*
X14840863Y-43143500D01*
X14220129Y-43143500D01*
X14220123Y-43143501D01*
X14160516Y-43149908D01*
X14025671Y-43200202D01*
X14025664Y-43200206D01*
X13910455Y-43286452D01*
X13910452Y-43286455D01*
X13824206Y-43401664D01*
X13824202Y-43401671D01*
X13782742Y-43512833D01*
X13740871Y-43568767D01*
X13675407Y-43593184D01*
X13666560Y-43593500D01*
X12654144Y-43593500D01*
X12587105Y-43573815D01*
X12559636Y-43549776D01*
X12494337Y-43472900D01*
X12476982Y-43459707D01*
X12347064Y-43360946D01*
X12179167Y-43283268D01*
X12179163Y-43283266D01*
X11998497Y-43243500D01*
X11059887Y-43243500D01*
X11059883Y-43243500D01*
X10922088Y-43258486D01*
X10746776Y-43317557D01*
X10746774Y-43317558D01*
X10588262Y-43412931D01*
X10588261Y-43412932D01*
X10453963Y-43540146D01*
X10449609Y-43545273D01*
X10448410Y-43544254D01*
X10400767Y-43583528D01*
X10352047Y-43593500D01*
X7855764Y-43593500D01*
X7788725Y-43573815D01*
X7742970Y-43521011D01*
X7739582Y-43512833D01*
X7688797Y-43376671D01*
X7688793Y-43376664D01*
X7602547Y-43261455D01*
X7602544Y-43261452D01*
X7487335Y-43175206D01*
X7487328Y-43175202D01*
X7352486Y-43124910D01*
X7352485Y-43124909D01*
X7352483Y-43124909D01*
X7292873Y-43118500D01*
X7292863Y-43118500D01*
X6697129Y-43118500D01*
X6697123Y-43118501D01*
X6637516Y-43124908D01*
X6502671Y-43175202D01*
X6502664Y-43175206D01*
X6387455Y-43261452D01*
X6387452Y-43261455D01*
X6301206Y-43376664D01*
X6301202Y-43376671D01*
X6250908Y-43511517D01*
X6244501Y-43571116D01*
X6244500Y-43571135D01*
X6244500Y-44616870D01*
X500Y-44616870D01*
X500Y-41507685D01*
X10251740Y-41507685D01*
X10261755Y-41692406D01*
X10261755Y-41692411D01*
X10311244Y-41870656D01*
X10311247Y-41870662D01*
X10397898Y-42034102D01*
X10460540Y-42107850D01*
X10517663Y-42175100D01*
X10664936Y-42287054D01*
X10832833Y-42364732D01*
X10832834Y-42364732D01*
X10832836Y-42364733D01*
X10887648Y-42376797D01*
X11013503Y-42404500D01*
X11013506Y-42404500D01*
X11952107Y-42404500D01*
X11952113Y-42404500D01*
X12089910Y-42389514D01*
X12265221Y-42330444D01*
X12423736Y-42235070D01*
X12558041Y-42107849D01*
X12661858Y-41954730D01*
X12730331Y-41782875D01*
X12760260Y-41600317D01*
X12750245Y-41415593D01*
X12700754Y-41237341D01*
X12614100Y-41073896D01*
X12596775Y-41053500D01*
X12494337Y-40932900D01*
X12415449Y-40872931D01*
X12347064Y-40820946D01*
X12179167Y-40743268D01*
X12179163Y-40743266D01*
X11998497Y-40703500D01*
X11059887Y-40703500D01*
X11059883Y-40703500D01*
X10922088Y-40718486D01*
X10746776Y-40777557D01*
X10746774Y-40777558D01*
X10588262Y-40872931D01*
X10588261Y-40872932D01*
X10453959Y-41000149D01*
X10350138Y-41153276D01*
X10281669Y-41325122D01*
X10251740Y-41507685D01*
X500Y-41507685D01*
X500Y-39536870D01*
X6244500Y-39536870D01*
X6244501Y-39536876D01*
X6250908Y-39596483D01*
X6301202Y-39731328D01*
X6301206Y-39731335D01*
X6387452Y-39846544D01*
X6387455Y-39846547D01*
X6502664Y-39932793D01*
X6502671Y-39932797D01*
X6547618Y-39949560D01*
X6637517Y-39983091D01*
X6697127Y-39989500D01*
X7292872Y-39989499D01*
X7352483Y-39983091D01*
X7487331Y-39932796D01*
X7602546Y-39846546D01*
X7688796Y-39731331D01*
X7722190Y-39641796D01*
X7739582Y-39595167D01*
X7781453Y-39539233D01*
X7846917Y-39514816D01*
X7855764Y-39514500D01*
X10357856Y-39514500D01*
X10424895Y-39534185D01*
X10452364Y-39558224D01*
X10517662Y-39635099D01*
X10517663Y-39635100D01*
X10664936Y-39747054D01*
X10832833Y-39824732D01*
X10832834Y-39824732D01*
X10832836Y-39824733D01*
X10887648Y-39836797D01*
X11013503Y-39864500D01*
X11013506Y-39864500D01*
X11952107Y-39864500D01*
X11952113Y-39864500D01*
X12089910Y-39849514D01*
X12265221Y-39790444D01*
X12423736Y-39695070D01*
X12558041Y-39567849D01*
X12558047Y-39567839D01*
X12562391Y-39562727D01*
X12563589Y-39563745D01*
X12611233Y-39524472D01*
X12659953Y-39514500D01*
X13793560Y-39514500D01*
X13860599Y-39534185D01*
X13906354Y-39586989D01*
X13909742Y-39595167D01*
X13951202Y-39706328D01*
X13951206Y-39706335D01*
X14037452Y-39821544D01*
X14037455Y-39821547D01*
X14152664Y-39907793D01*
X14152671Y-39907797D01*
X14197618Y-39924560D01*
X14287517Y-39958091D01*
X14347127Y-39964500D01*
X14967872Y-39964499D01*
X15027483Y-39958091D01*
X15162331Y-39907796D01*
X15277546Y-39821546D01*
X15363796Y-39706331D01*
X15414091Y-39571483D01*
X15420500Y-39511873D01*
X15420499Y-38516128D01*
X15414763Y-38462769D01*
X15414091Y-38456516D01*
X15363797Y-38321671D01*
X15363793Y-38321664D01*
X15277547Y-38206455D01*
X15277544Y-38206452D01*
X15162335Y-38120206D01*
X15162328Y-38120202D01*
X15027486Y-38069910D01*
X15027485Y-38069909D01*
X15027483Y-38069909D01*
X14967873Y-38063500D01*
X14967863Y-38063500D01*
X14347129Y-38063500D01*
X14347123Y-38063501D01*
X14287516Y-38069908D01*
X14152671Y-38120202D01*
X14152664Y-38120206D01*
X14037455Y-38206452D01*
X14037452Y-38206455D01*
X13951206Y-38321664D01*
X13951202Y-38321671D01*
X13909742Y-38432833D01*
X13867871Y-38488767D01*
X13802407Y-38513184D01*
X13793560Y-38513500D01*
X12654144Y-38513500D01*
X12587105Y-38493815D01*
X12559636Y-38469776D01*
X12494337Y-38392900D01*
X12450571Y-38359630D01*
X12347064Y-38280946D01*
X12179167Y-38203268D01*
X12179163Y-38203266D01*
X11998497Y-38163500D01*
X11059887Y-38163500D01*
X11059883Y-38163500D01*
X10922088Y-38178486D01*
X10746776Y-38237557D01*
X10746774Y-38237558D01*
X10588262Y-38332931D01*
X10588261Y-38332932D01*
X10453963Y-38460146D01*
X10449609Y-38465273D01*
X10448410Y-38464254D01*
X10400767Y-38503528D01*
X10352047Y-38513500D01*
X7855764Y-38513500D01*
X7788725Y-38493815D01*
X7742970Y-38441011D01*
X7739582Y-38432833D01*
X7688797Y-38296671D01*
X7688793Y-38296664D01*
X7602547Y-38181455D01*
X7602544Y-38181452D01*
X7487335Y-38095206D01*
X7487328Y-38095202D01*
X7352486Y-38044910D01*
X7352485Y-38044909D01*
X7352483Y-38044909D01*
X7292873Y-38038500D01*
X7292863Y-38038500D01*
X6697129Y-38038500D01*
X6697123Y-38038501D01*
X6637516Y-38044908D01*
X6502671Y-38095202D01*
X6502664Y-38095206D01*
X6387455Y-38181452D01*
X6387452Y-38181455D01*
X6301206Y-38296664D01*
X6301202Y-38296671D01*
X6250908Y-38431517D01*
X6244501Y-38491116D01*
X6244500Y-38491135D01*
X6244500Y-39536870D01*
X500Y-39536870D01*
X500Y-36996870D01*
X6244500Y-36996870D01*
X6244501Y-36996876D01*
X6250908Y-37056483D01*
X6301202Y-37191328D01*
X6301206Y-37191335D01*
X6387452Y-37306544D01*
X6387455Y-37306547D01*
X6502664Y-37392793D01*
X6502671Y-37392797D01*
X6547618Y-37409560D01*
X6637517Y-37443091D01*
X6697127Y-37449500D01*
X7292872Y-37449499D01*
X7352483Y-37443091D01*
X7487331Y-37392796D01*
X7602546Y-37306546D01*
X7688796Y-37191331D01*
X7739091Y-37056483D01*
X7739090Y-37056483D01*
X7739582Y-37055167D01*
X7781453Y-36999233D01*
X7846917Y-36974816D01*
X7855764Y-36974500D01*
X10357856Y-36974500D01*
X10424895Y-36994185D01*
X10452364Y-37018224D01*
X10488786Y-37061103D01*
X10517663Y-37095100D01*
X10664936Y-37207054D01*
X10832833Y-37284732D01*
X10832834Y-37284732D01*
X10832836Y-37284733D01*
X10887648Y-37296797D01*
X11013503Y-37324500D01*
X11013506Y-37324500D01*
X11952107Y-37324500D01*
X11952113Y-37324500D01*
X12089910Y-37309514D01*
X12265221Y-37250444D01*
X12423736Y-37155070D01*
X12558041Y-37027849D01*
X12558047Y-37027839D01*
X12562391Y-37022727D01*
X12563589Y-37023745D01*
X12611233Y-36984472D01*
X12659953Y-36974500D01*
X13793560Y-36974500D01*
X13860599Y-36994185D01*
X13906354Y-37046989D01*
X13909742Y-37055167D01*
X13951202Y-37166328D01*
X13951206Y-37166335D01*
X14037452Y-37281544D01*
X14037455Y-37281547D01*
X14152664Y-37367793D01*
X14152671Y-37367797D01*
X14197618Y-37384560D01*
X14287517Y-37418091D01*
X14347127Y-37424500D01*
X14967872Y-37424499D01*
X15027483Y-37418091D01*
X15162331Y-37367796D01*
X15277546Y-37281546D01*
X15363796Y-37166331D01*
X15414091Y-37031483D01*
X15420500Y-36971873D01*
X15420499Y-35976128D01*
X15414482Y-35920151D01*
X15414091Y-35916516D01*
X15363797Y-35781671D01*
X15363793Y-35781664D01*
X15277547Y-35666455D01*
X15277544Y-35666452D01*
X15162335Y-35580206D01*
X15162328Y-35580202D01*
X15027486Y-35529910D01*
X15027485Y-35529909D01*
X15027483Y-35529909D01*
X14967873Y-35523500D01*
X14967863Y-35523500D01*
X14347129Y-35523500D01*
X14347123Y-35523501D01*
X14287516Y-35529908D01*
X14152671Y-35580202D01*
X14152664Y-35580206D01*
X14037455Y-35666452D01*
X14037452Y-35666455D01*
X13951206Y-35781664D01*
X13951202Y-35781671D01*
X13909742Y-35892833D01*
X13867871Y-35948767D01*
X13802407Y-35973184D01*
X13793560Y-35973500D01*
X12654144Y-35973500D01*
X12587105Y-35953815D01*
X12559636Y-35929776D01*
X12494337Y-35852900D01*
X12415449Y-35792931D01*
X12347064Y-35740946D01*
X12179167Y-35663268D01*
X12179163Y-35663266D01*
X11998497Y-35623500D01*
X11059887Y-35623500D01*
X11059883Y-35623500D01*
X10922088Y-35638486D01*
X10746776Y-35697557D01*
X10746774Y-35697558D01*
X10588262Y-35792931D01*
X10588261Y-35792932D01*
X10453963Y-35920146D01*
X10449609Y-35925273D01*
X10448410Y-35924254D01*
X10400767Y-35963528D01*
X10352047Y-35973500D01*
X7855764Y-35973500D01*
X7788725Y-35953815D01*
X7742970Y-35901011D01*
X7739582Y-35892833D01*
X7688797Y-35756671D01*
X7688793Y-35756664D01*
X7602547Y-35641455D01*
X7602544Y-35641452D01*
X7487335Y-35555206D01*
X7487328Y-35555202D01*
X7352486Y-35504910D01*
X7352485Y-35504909D01*
X7352483Y-35504909D01*
X7292873Y-35498500D01*
X7292863Y-35498500D01*
X6697129Y-35498500D01*
X6697123Y-35498501D01*
X6637516Y-35504908D01*
X6502671Y-35555202D01*
X6502664Y-35555206D01*
X6387455Y-35641452D01*
X6387452Y-35641455D01*
X6301206Y-35756664D01*
X6301202Y-35756671D01*
X6250908Y-35891517D01*
X6244501Y-35951116D01*
X6244500Y-35951135D01*
X6244500Y-36996870D01*
X500Y-36996870D01*
X500Y-33887685D01*
X10251740Y-33887685D01*
X10261755Y-34072406D01*
X10261755Y-34072411D01*
X10311244Y-34250656D01*
X10311247Y-34250662D01*
X10397898Y-34414102D01*
X10460540Y-34487850D01*
X10517663Y-34555100D01*
X10664936Y-34667054D01*
X10832833Y-34744732D01*
X10832834Y-34744732D01*
X10832836Y-34744733D01*
X10887648Y-34756797D01*
X11013503Y-34784500D01*
X11013506Y-34784500D01*
X11952107Y-34784500D01*
X11952113Y-34784500D01*
X12089910Y-34769514D01*
X12265221Y-34710444D01*
X12423736Y-34615070D01*
X12558041Y-34487849D01*
X12661858Y-34334730D01*
X12730331Y-34162875D01*
X12760260Y-33980317D01*
X12755238Y-33887685D01*
X25491740Y-33887685D01*
X25501755Y-34072406D01*
X25501755Y-34072411D01*
X25551244Y-34250656D01*
X25551247Y-34250662D01*
X25637898Y-34414102D01*
X25700540Y-34487850D01*
X25757663Y-34555100D01*
X25904936Y-34667054D01*
X26072833Y-34744732D01*
X26072834Y-34744732D01*
X26072836Y-34744733D01*
X26127648Y-34756797D01*
X26253503Y-34784500D01*
X26253506Y-34784500D01*
X27192107Y-34784500D01*
X27192113Y-34784500D01*
X27329910Y-34769514D01*
X27505221Y-34710444D01*
X27663736Y-34615070D01*
X27798041Y-34487849D01*
X27901858Y-34334730D01*
X27970331Y-34162875D01*
X28000260Y-33980317D01*
X27990245Y-33795593D01*
X27976535Y-33746212D01*
X27940755Y-33617343D01*
X27940752Y-33617337D01*
X27854101Y-33453897D01*
X27734337Y-33312900D01*
X27655449Y-33252931D01*
X27587064Y-33200946D01*
X27419167Y-33123268D01*
X27419163Y-33123266D01*
X27238497Y-33083500D01*
X26299887Y-33083500D01*
X26299883Y-33083500D01*
X26162088Y-33098486D01*
X25986776Y-33157557D01*
X25986774Y-33157558D01*
X25828262Y-33252931D01*
X25828261Y-33252932D01*
X25693959Y-33380149D01*
X25590138Y-33533276D01*
X25521669Y-33705122D01*
X25491740Y-33887685D01*
X12755238Y-33887685D01*
X12750245Y-33795593D01*
X12736535Y-33746212D01*
X12700755Y-33617343D01*
X12700752Y-33617337D01*
X12614101Y-33453897D01*
X12494337Y-33312900D01*
X12415449Y-33252931D01*
X12347064Y-33200946D01*
X12179167Y-33123268D01*
X12179163Y-33123266D01*
X11998497Y-33083500D01*
X11059887Y-33083500D01*
X11059883Y-33083500D01*
X10922088Y-33098486D01*
X10746776Y-33157557D01*
X10746774Y-33157558D01*
X10588262Y-33252931D01*
X10588261Y-33252932D01*
X10453959Y-33380149D01*
X10350138Y-33533276D01*
X10281669Y-33705122D01*
X10251740Y-33887685D01*
X500Y-33887685D01*
X500Y-31347685D01*
X10251740Y-31347685D01*
X10261755Y-31532406D01*
X10261755Y-31532411D01*
X10311244Y-31710656D01*
X10311247Y-31710662D01*
X10397898Y-31874102D01*
X10460540Y-31947850D01*
X10517663Y-32015100D01*
X10664936Y-32127054D01*
X10832833Y-32204732D01*
X10832834Y-32204732D01*
X10832836Y-32204733D01*
X10887648Y-32216797D01*
X11013503Y-32244500D01*
X11013506Y-32244500D01*
X11952107Y-32244500D01*
X11952113Y-32244500D01*
X12089910Y-32229514D01*
X12265221Y-32170444D01*
X12423736Y-32075070D01*
X12558041Y-31947849D01*
X12661858Y-31794730D01*
X12730331Y-31622875D01*
X12760260Y-31440317D01*
X12755238Y-31347685D01*
X25491740Y-31347685D01*
X25501755Y-31532406D01*
X25501755Y-31532411D01*
X25551244Y-31710656D01*
X25551247Y-31710662D01*
X25637898Y-31874102D01*
X25700540Y-31947850D01*
X25757663Y-32015100D01*
X25904936Y-32127054D01*
X26072833Y-32204732D01*
X26072834Y-32204732D01*
X26072836Y-32204733D01*
X26127648Y-32216797D01*
X26253503Y-32244500D01*
X26253506Y-32244500D01*
X27192107Y-32244500D01*
X27192113Y-32244500D01*
X27329910Y-32229514D01*
X27505221Y-32170444D01*
X27663736Y-32075070D01*
X27798041Y-31947849D01*
X27901858Y-31794730D01*
X27970331Y-31622875D01*
X28000260Y-31440317D01*
X27990245Y-31255593D01*
X27940754Y-31077341D01*
X27854100Y-30913896D01*
X27791460Y-30840151D01*
X27734337Y-30772900D01*
X27655449Y-30712931D01*
X27587064Y-30660946D01*
X27419167Y-30583268D01*
X27419163Y-30583266D01*
X27238497Y-30543500D01*
X26299887Y-30543500D01*
X26299883Y-30543500D01*
X26162088Y-30558486D01*
X25986776Y-30617557D01*
X25986774Y-30617558D01*
X25828262Y-30712931D01*
X25828261Y-30712932D01*
X25693959Y-30840149D01*
X25590138Y-30993276D01*
X25521669Y-31165122D01*
X25491740Y-31347685D01*
X12755238Y-31347685D01*
X12750245Y-31255593D01*
X12700754Y-31077341D01*
X12614100Y-30913896D01*
X12551460Y-30840151D01*
X12494337Y-30772900D01*
X12415449Y-30712931D01*
X12347064Y-30660946D01*
X12179167Y-30583268D01*
X12179163Y-30583266D01*
X11998497Y-30543500D01*
X11059887Y-30543500D01*
X11059883Y-30543500D01*
X10922088Y-30558486D01*
X10746776Y-30617557D01*
X10746774Y-30617558D01*
X10588262Y-30712931D01*
X10588261Y-30712932D01*
X10453959Y-30840149D01*
X10350138Y-30993276D01*
X10281669Y-31165122D01*
X10251740Y-31347685D01*
X500Y-31347685D01*
X500Y-28807685D01*
X10251740Y-28807685D01*
X10261755Y-28992406D01*
X10261755Y-28992411D01*
X10311244Y-29170656D01*
X10311247Y-29170662D01*
X10397898Y-29334102D01*
X10460540Y-29407850D01*
X10517663Y-29475100D01*
X10664936Y-29587054D01*
X10832833Y-29664732D01*
X10832834Y-29664732D01*
X10832836Y-29664733D01*
X10887648Y-29676797D01*
X11013503Y-29704500D01*
X11013506Y-29704500D01*
X11952107Y-29704500D01*
X11952113Y-29704500D01*
X12089910Y-29689514D01*
X12265221Y-29630444D01*
X12423736Y-29535070D01*
X12558041Y-29407849D01*
X12661858Y-29254730D01*
X12730331Y-29082875D01*
X12760260Y-28900317D01*
X12750245Y-28715593D01*
X12700754Y-28537341D01*
X12614100Y-28373896D01*
X12551460Y-28300151D01*
X12494337Y-28232900D01*
X12415449Y-28172931D01*
X12347064Y-28120946D01*
X12179167Y-28043268D01*
X12179163Y-28043266D01*
X11998497Y-28003500D01*
X11059887Y-28003500D01*
X11059883Y-28003500D01*
X10922088Y-28018486D01*
X10746776Y-28077557D01*
X10746774Y-28077558D01*
X10588262Y-28172931D01*
X10588261Y-28172932D01*
X10453959Y-28300149D01*
X10350138Y-28453276D01*
X10281669Y-28625122D01*
X10251740Y-28807685D01*
X500Y-28807685D01*
X500Y-26267685D01*
X10251740Y-26267685D01*
X10261755Y-26452406D01*
X10261755Y-26452411D01*
X10311244Y-26630656D01*
X10311247Y-26630662D01*
X10397898Y-26794102D01*
X10517662Y-26935099D01*
X10517663Y-26935100D01*
X10664936Y-27047054D01*
X10832833Y-27124732D01*
X10832834Y-27124732D01*
X10832836Y-27124733D01*
X10887648Y-27136797D01*
X11013503Y-27164500D01*
X11013506Y-27164500D01*
X11952107Y-27164500D01*
X11952113Y-27164500D01*
X12089910Y-27149514D01*
X12265221Y-27090444D01*
X12423736Y-26995070D01*
X12558041Y-26867849D01*
X12661858Y-26714730D01*
X12730331Y-26542875D01*
X12760260Y-26360317D01*
X12750245Y-26175593D01*
X12700754Y-25997341D01*
X12614100Y-25833896D01*
X12551460Y-25760151D01*
X12494337Y-25692900D01*
X12494336Y-25692899D01*
X12347064Y-25580946D01*
X12179167Y-25503268D01*
X12179163Y-25503266D01*
X11998497Y-25463500D01*
X11059887Y-25463500D01*
X11059883Y-25463500D01*
X10922088Y-25478486D01*
X10746776Y-25537557D01*
X10746774Y-25537558D01*
X10588262Y-25632931D01*
X10588261Y-25632932D01*
X10453959Y-25760149D01*
X10350138Y-25913276D01*
X10281669Y-26085122D01*
X10281669Y-26085125D01*
X10253251Y-26258471D01*
X10251740Y-26267685D01*
X500Y-26267685D01*
X500Y-25058730D01*
X22634841Y-25058730D01*
X22638542Y-25110469D01*
X22638700Y-25114894D01*
X22638700Y-25130599D01*
X22640934Y-25146143D01*
X22641407Y-25150540D01*
X22645109Y-25202285D01*
X22646793Y-25206800D01*
X22653348Y-25232482D01*
X22654034Y-25237255D01*
X22654035Y-25237257D01*
X22675583Y-25284442D01*
X22677271Y-25288516D01*
X22695403Y-25337129D01*
X22698296Y-25340994D01*
X22711817Y-25363783D01*
X22713819Y-25368167D01*
X22713822Y-25368171D01*
X22713823Y-25368173D01*
X22747798Y-25407383D01*
X22750562Y-25410813D01*
X22759975Y-25423388D01*
X22759982Y-25423396D01*
X22771086Y-25434500D01*
X22774096Y-25437732D01*
X22783531Y-25448621D01*
X22808071Y-25476942D01*
X22808074Y-25476945D01*
X22812128Y-25479550D01*
X22832771Y-25496185D01*
X25211014Y-27874428D01*
X25227646Y-27895066D01*
X25230254Y-27899125D01*
X25230257Y-27899128D01*
X25269467Y-27933103D01*
X25272683Y-27936097D01*
X25283807Y-27947221D01*
X25283812Y-27947224D01*
X25283817Y-27947229D01*
X25296379Y-27956633D01*
X25299827Y-27959411D01*
X25330347Y-27985856D01*
X25339027Y-27993377D01*
X25343410Y-27995379D01*
X25366207Y-28008905D01*
X25370069Y-28011796D01*
X25418695Y-28029932D01*
X25422751Y-28031612D01*
X25444857Y-28041708D01*
X25469940Y-28053164D01*
X25469941Y-28053164D01*
X25469943Y-28053165D01*
X25474712Y-28053850D01*
X25500402Y-28060407D01*
X25504917Y-28062091D01*
X25556658Y-28065791D01*
X25561057Y-28066264D01*
X25576601Y-28068500D01*
X25592306Y-28068500D01*
X25596729Y-28068657D01*
X25633528Y-28071290D01*
X25698992Y-28095707D01*
X25740863Y-28151641D01*
X25745847Y-28221333D01*
X25712362Y-28282656D01*
X25709956Y-28284997D01*
X25693959Y-28300149D01*
X25590138Y-28453276D01*
X25521669Y-28625122D01*
X25491740Y-28807685D01*
X25501755Y-28992406D01*
X25501755Y-28992411D01*
X25551244Y-29170656D01*
X25551247Y-29170662D01*
X25637898Y-29334102D01*
X25700540Y-29407850D01*
X25757663Y-29475100D01*
X25904936Y-29587054D01*
X26072833Y-29664732D01*
X26072834Y-29664732D01*
X26072836Y-29664733D01*
X26127648Y-29676797D01*
X26253503Y-29704500D01*
X26253506Y-29704500D01*
X27192107Y-29704500D01*
X27192113Y-29704500D01*
X27329910Y-29689514D01*
X27505221Y-29630444D01*
X27663736Y-29535070D01*
X27798041Y-29407849D01*
X27901858Y-29254730D01*
X27970331Y-29082875D01*
X28000260Y-28900317D01*
X27990245Y-28715593D01*
X27940754Y-28537341D01*
X27854100Y-28373896D01*
X27791460Y-28300151D01*
X27768208Y-28272776D01*
X27739810Y-28208937D01*
X27750435Y-28139880D01*
X27796707Y-28087529D01*
X27862716Y-28068500D01*
X40769324Y-28068500D01*
X40836363Y-28088185D01*
X40857005Y-28104819D01*
X46810903Y-34058717D01*
X46844388Y-34120040D01*
X46842171Y-34175307D01*
X46843338Y-34175540D01*
X46842150Y-34181510D01*
X46822601Y-34380000D01*
X46842149Y-34578481D01*
X46842149Y-34578483D01*
X46842150Y-34578485D01*
X46892580Y-34744731D01*
X46900048Y-34769348D01*
X46994060Y-34945231D01*
X46994065Y-34945238D01*
X47120589Y-35099410D01*
X47227875Y-35187456D01*
X47274763Y-35225936D01*
X47274766Y-35225937D01*
X47274768Y-35225939D01*
X47450651Y-35319951D01*
X47450654Y-35319951D01*
X47450658Y-35319954D01*
X47641515Y-35377850D01*
X47840000Y-35397399D01*
X48038485Y-35377850D01*
X48229342Y-35319954D01*
X48405237Y-35225936D01*
X48559410Y-35099410D01*
X48685936Y-34945237D01*
X48732944Y-34857289D01*
X48779951Y-34769348D01*
X48779951Y-34769347D01*
X48779954Y-34769342D01*
X48837850Y-34578485D01*
X48857399Y-34380000D01*
X48837850Y-34181515D01*
X48779954Y-33990658D01*
X48779951Y-33990654D01*
X48779951Y-33990651D01*
X48685939Y-33814768D01*
X48685937Y-33814766D01*
X48685936Y-33814763D01*
X48621500Y-33736247D01*
X48559410Y-33660589D01*
X48501365Y-33612953D01*
X48462031Y-33555207D01*
X48460160Y-33485363D01*
X48496348Y-33425594D01*
X48559104Y-33394879D01*
X48580030Y-33393100D01*
X49271124Y-33393100D01*
X49338163Y-33412785D01*
X49358805Y-33429419D01*
X49549291Y-33619905D01*
X49582776Y-33681228D01*
X49577792Y-33750920D01*
X49557464Y-33786250D01*
X49534064Y-33814762D01*
X49534059Y-33814769D01*
X49440048Y-33990652D01*
X49440046Y-33990657D01*
X49440046Y-33990658D01*
X49415248Y-34072406D01*
X49382149Y-34181518D01*
X49362601Y-34380000D01*
X49382149Y-34578481D01*
X49382149Y-34578483D01*
X49382150Y-34578485D01*
X49432580Y-34744731D01*
X49440048Y-34769348D01*
X49534060Y-34945231D01*
X49534065Y-34945238D01*
X49660589Y-35099410D01*
X49767875Y-35187456D01*
X49814763Y-35225936D01*
X49814766Y-35225937D01*
X49814768Y-35225939D01*
X49990651Y-35319951D01*
X49990654Y-35319951D01*
X49990658Y-35319954D01*
X50181515Y-35377850D01*
X50380000Y-35397399D01*
X50578485Y-35377850D01*
X50769342Y-35319954D01*
X50945237Y-35225936D01*
X51099410Y-35099410D01*
X51225936Y-34945237D01*
X51272945Y-34857289D01*
X51319951Y-34769348D01*
X51319951Y-34769347D01*
X51319954Y-34769342D01*
X51377850Y-34578485D01*
X51397399Y-34380000D01*
X51902601Y-34380000D01*
X51922149Y-34578481D01*
X51922149Y-34578483D01*
X51922150Y-34578485D01*
X51972580Y-34744731D01*
X51980048Y-34769348D01*
X52074060Y-34945231D01*
X52074065Y-34945238D01*
X52200589Y-35099410D01*
X52307875Y-35187456D01*
X52354763Y-35225936D01*
X52354766Y-35225937D01*
X52354768Y-35225939D01*
X52530651Y-35319951D01*
X52530654Y-35319951D01*
X52530658Y-35319954D01*
X52721515Y-35377850D01*
X52920000Y-35397399D01*
X53118485Y-35377850D01*
X53309342Y-35319954D01*
X53485237Y-35225936D01*
X53639410Y-35099410D01*
X53765936Y-34945237D01*
X53812945Y-34857289D01*
X53859951Y-34769348D01*
X53859951Y-34769347D01*
X53859954Y-34769342D01*
X53917850Y-34578485D01*
X53937399Y-34380000D01*
X53917850Y-34181515D01*
X53859954Y-33990658D01*
X53859951Y-33990654D01*
X53859951Y-33990651D01*
X53765939Y-33814768D01*
X53765937Y-33814766D01*
X53765936Y-33814763D01*
X53701500Y-33736247D01*
X53639410Y-33660589D01*
X53508651Y-33553279D01*
X53485237Y-33534064D01*
X53485235Y-33534063D01*
X53485231Y-33534060D01*
X53309348Y-33440048D01*
X53309342Y-33440046D01*
X53118485Y-33382150D01*
X53118483Y-33382149D01*
X53118481Y-33382149D01*
X52920000Y-33362601D01*
X52721518Y-33382149D01*
X52530651Y-33440048D01*
X52354768Y-33534060D01*
X52354761Y-33534065D01*
X52200589Y-33660589D01*
X52074065Y-33814761D01*
X52074060Y-33814768D01*
X51980048Y-33990651D01*
X51922149Y-34181518D01*
X51902601Y-34380000D01*
X51397399Y-34380000D01*
X51377850Y-34181515D01*
X51319954Y-33990658D01*
X51319951Y-33990654D01*
X51319951Y-33990651D01*
X51225939Y-33814768D01*
X51225937Y-33814766D01*
X51225936Y-33814763D01*
X51161500Y-33736247D01*
X51099410Y-33660589D01*
X50968651Y-33553279D01*
X50945237Y-33534064D01*
X50945235Y-33534062D01*
X50809276Y-33461390D01*
X50774027Y-33433246D01*
X50771410Y-33430227D01*
X50768634Y-33426782D01*
X50759220Y-33414207D01*
X50748117Y-33403104D01*
X50745100Y-33399863D01*
X50711128Y-33360657D01*
X50707071Y-33358050D01*
X50686427Y-33341414D01*
X49931185Y-32586171D01*
X49914550Y-32565528D01*
X49911945Y-32561474D01*
X49911942Y-32561471D01*
X49904947Y-32555410D01*
X49872732Y-32527496D01*
X49869500Y-32524486D01*
X49858396Y-32513382D01*
X49858388Y-32513375D01*
X49845813Y-32503962D01*
X49842383Y-32501198D01*
X49803173Y-32467223D01*
X49803171Y-32467222D01*
X49803167Y-32467219D01*
X49798783Y-32465217D01*
X49775994Y-32451696D01*
X49772131Y-32448804D01*
X49772129Y-32448803D01*
X49723516Y-32430671D01*
X49719442Y-32428983D01*
X49672257Y-32407435D01*
X49672255Y-32407434D01*
X49667482Y-32406748D01*
X49641800Y-32400193D01*
X49637285Y-32398509D01*
X49585540Y-32394807D01*
X49581143Y-32394334D01*
X49565599Y-32392100D01*
X49549894Y-32392100D01*
X49545471Y-32391942D01*
X49527883Y-32390684D01*
X49493729Y-32388241D01*
X49493725Y-32388241D01*
X49489015Y-32389266D01*
X49462657Y-32392100D01*
X47807276Y-32392100D01*
X47740237Y-32372415D01*
X47719595Y-32355781D01*
X41777785Y-26413971D01*
X41761150Y-26393328D01*
X41758545Y-26389274D01*
X41758542Y-26389271D01*
X41751547Y-26383210D01*
X41719332Y-26355296D01*
X41716100Y-26352286D01*
X41704996Y-26341182D01*
X41704988Y-26341175D01*
X41692413Y-26331762D01*
X41688983Y-26328998D01*
X41649773Y-26295023D01*
X41649771Y-26295022D01*
X41649767Y-26295019D01*
X41645383Y-26293017D01*
X41622594Y-26279496D01*
X41618731Y-26276604D01*
X41618729Y-26276603D01*
X41570116Y-26258471D01*
X41566042Y-26256783D01*
X41518857Y-26235235D01*
X41518855Y-26235234D01*
X41514082Y-26234548D01*
X41488400Y-26227993D01*
X41483885Y-26226309D01*
X41432140Y-26222607D01*
X41427743Y-26222134D01*
X41412199Y-26219900D01*
X41396494Y-26219900D01*
X41392071Y-26219742D01*
X41374483Y-26218484D01*
X41340329Y-26216041D01*
X41340325Y-26216041D01*
X41335615Y-26217066D01*
X41309257Y-26219900D01*
X29951076Y-26219900D01*
X29884037Y-26200215D01*
X29863395Y-26183581D01*
X28442785Y-24762971D01*
X28426150Y-24742328D01*
X28423545Y-24738274D01*
X28423542Y-24738271D01*
X28393446Y-24712193D01*
X28384332Y-24704296D01*
X28381100Y-24701286D01*
X28369996Y-24690182D01*
X28369988Y-24690175D01*
X28357413Y-24680762D01*
X28353983Y-24677998D01*
X28314773Y-24644023D01*
X28314771Y-24644022D01*
X28314767Y-24644019D01*
X28310383Y-24642017D01*
X28287594Y-24628496D01*
X28283731Y-24625604D01*
X28283729Y-24625603D01*
X28235116Y-24607471D01*
X28231042Y-24605783D01*
X28189067Y-24586614D01*
X28183855Y-24584234D01*
X28179082Y-24583548D01*
X28153400Y-24576993D01*
X28148885Y-24575309D01*
X28097140Y-24571607D01*
X28092743Y-24571134D01*
X28077199Y-24568900D01*
X28061494Y-24568900D01*
X28057071Y-24568742D01*
X28039483Y-24567484D01*
X28005329Y-24565041D01*
X28005325Y-24565041D01*
X28000615Y-24566066D01*
X27974257Y-24568900D01*
X27854784Y-24568900D01*
X27787745Y-24549215D01*
X27741990Y-24496411D01*
X27732046Y-24427253D01*
X27761071Y-24363697D01*
X27769509Y-24354877D01*
X27785490Y-24339737D01*
X27798041Y-24327849D01*
X27798047Y-24327839D01*
X27802391Y-24322727D01*
X27803589Y-24323745D01*
X27851233Y-24284472D01*
X27899953Y-24274500D01*
X42152901Y-24274500D01*
X42219940Y-24294185D01*
X42265695Y-24346989D01*
X42276901Y-24398500D01*
X42276901Y-24423876D01*
X42283308Y-24483483D01*
X42333602Y-24618328D01*
X42333606Y-24618335D01*
X42419852Y-24733544D01*
X42419855Y-24733547D01*
X42535064Y-24819793D01*
X42535071Y-24819797D01*
X42565449Y-24831127D01*
X42669917Y-24870091D01*
X42729527Y-24876500D01*
X43325272Y-24876499D01*
X43384883Y-24870091D01*
X43519731Y-24819796D01*
X43634946Y-24733546D01*
X43721196Y-24618331D01*
X43771491Y-24483483D01*
X43777900Y-24423873D01*
X43777899Y-23378128D01*
X43771491Y-23318517D01*
X43762308Y-23293897D01*
X43721197Y-23183671D01*
X43721193Y-23183664D01*
X43634948Y-23068457D01*
X43634946Y-23068454D01*
X43634944Y-23068452D01*
X43634941Y-23068449D01*
X43609054Y-23049071D01*
X43567182Y-22993138D01*
X43562198Y-22923446D01*
X43595682Y-22862123D01*
X43640032Y-22833622D01*
X43719726Y-22803898D01*
X43719726Y-22803897D01*
X43719731Y-22803896D01*
X43834946Y-22717646D01*
X43921196Y-22602431D01*
X43971491Y-22467583D01*
X43977900Y-22407973D01*
X43977899Y-21787228D01*
X43971491Y-21727617D01*
X43971040Y-21726409D01*
X43921197Y-21592771D01*
X43921193Y-21592764D01*
X43834947Y-21477555D01*
X43834944Y-21477552D01*
X43719735Y-21391306D01*
X43719728Y-21391302D01*
X43584882Y-21341008D01*
X43584883Y-21341008D01*
X43525283Y-21334601D01*
X43525281Y-21334600D01*
X43525273Y-21334600D01*
X43525264Y-21334600D01*
X42529529Y-21334600D01*
X42529523Y-21334601D01*
X42469916Y-21341008D01*
X42335071Y-21391302D01*
X42335064Y-21391306D01*
X42219855Y-21477552D01*
X42219852Y-21477555D01*
X42133606Y-21592764D01*
X42133602Y-21592771D01*
X42083310Y-21727613D01*
X42083309Y-21727617D01*
X42076900Y-21787227D01*
X42076900Y-21787234D01*
X42076900Y-21787235D01*
X42076900Y-22407970D01*
X42076901Y-22407976D01*
X42083308Y-22467583D01*
X42133602Y-22602428D01*
X42133606Y-22602435D01*
X42219852Y-22717644D01*
X42219855Y-22717647D01*
X42335064Y-22803893D01*
X42335071Y-22803897D01*
X42414768Y-22833622D01*
X42470702Y-22875493D01*
X42495119Y-22940957D01*
X42480268Y-23009230D01*
X42445746Y-23049070D01*
X42419860Y-23068448D01*
X42419851Y-23068457D01*
X42333606Y-23183664D01*
X42333603Y-23183669D01*
X42330187Y-23192831D01*
X42288317Y-23248765D01*
X42222853Y-23273184D01*
X42214004Y-23273500D01*
X32770844Y-23273500D01*
X32703805Y-23253815D01*
X32658050Y-23201011D01*
X32647554Y-23136248D01*
X32649100Y-23121873D01*
X32649099Y-22526128D01*
X32642691Y-22466517D01*
X32632906Y-22440283D01*
X32592397Y-22331671D01*
X32592393Y-22331664D01*
X32506147Y-22216455D01*
X32506144Y-22216452D01*
X32390935Y-22130206D01*
X32390928Y-22130202D01*
X32254766Y-22079417D01*
X32198832Y-22037546D01*
X32174415Y-21972081D01*
X32174099Y-21963235D01*
X32174099Y-21721748D01*
X32174099Y-21432526D01*
X32193784Y-21365491D01*
X32223784Y-21333266D01*
X32295546Y-21279546D01*
X32381796Y-21164331D01*
X32432091Y-21029483D01*
X32438500Y-20969873D01*
X32438499Y-19974128D01*
X32433299Y-19925757D01*
X32432091Y-19914516D01*
X32381797Y-19779671D01*
X32381793Y-19779664D01*
X32295547Y-19664455D01*
X32295544Y-19664452D01*
X32180335Y-19578206D01*
X32180328Y-19578202D01*
X32045486Y-19527910D01*
X32045485Y-19527909D01*
X32045483Y-19527909D01*
X31985873Y-19521500D01*
X31985863Y-19521500D01*
X31365129Y-19521500D01*
X31365123Y-19521501D01*
X31305516Y-19527908D01*
X31170671Y-19578202D01*
X31170664Y-19578206D01*
X31055455Y-19664452D01*
X31055452Y-19664455D01*
X30969206Y-19779664D01*
X30969202Y-19779671D01*
X30927742Y-19890833D01*
X30885871Y-19946767D01*
X30820407Y-19971184D01*
X30811560Y-19971500D01*
X29708743Y-19971500D01*
X29682385Y-19968666D01*
X29677674Y-19967641D01*
X29677670Y-19967641D01*
X29639152Y-19970396D01*
X29625928Y-19971342D01*
X29621506Y-19971500D01*
X29605799Y-19971500D01*
X29590256Y-19973734D01*
X29585860Y-19974207D01*
X29534117Y-19977909D01*
X29534113Y-19977910D01*
X29529586Y-19979598D01*
X29503927Y-19986146D01*
X29499150Y-19986833D01*
X29499143Y-19986835D01*
X29451953Y-20008385D01*
X29447864Y-20010078D01*
X29399275Y-20028200D01*
X29399264Y-20028206D01*
X29395399Y-20031100D01*
X29372620Y-20044615D01*
X29368236Y-20046617D01*
X29368226Y-20046623D01*
X29344276Y-20067375D01*
X29329028Y-20080587D01*
X29325596Y-20083354D01*
X29313002Y-20092781D01*
X29301891Y-20103892D01*
X29298655Y-20106905D01*
X29259461Y-20140867D01*
X29259457Y-20140872D01*
X29256846Y-20144935D01*
X29240216Y-20165569D01*
X28708605Y-20697181D01*
X28647282Y-20730666D01*
X28620924Y-20733500D01*
X27894144Y-20733500D01*
X27827105Y-20713815D01*
X27799636Y-20689776D01*
X27734337Y-20612900D01*
X27734336Y-20612900D01*
X27587064Y-20500946D01*
X27419167Y-20423268D01*
X27419163Y-20423266D01*
X27238497Y-20383500D01*
X26299887Y-20383500D01*
X26299883Y-20383500D01*
X26162088Y-20398486D01*
X25986776Y-20457557D01*
X25986774Y-20457558D01*
X25828262Y-20552931D01*
X25828261Y-20552932D01*
X25693959Y-20680149D01*
X25590138Y-20833276D01*
X25521669Y-21005122D01*
X25513793Y-21053167D01*
X25495569Y-21164331D01*
X25491740Y-21187685D01*
X25501755Y-21372406D01*
X25501755Y-21372411D01*
X25551244Y-21550656D01*
X25551247Y-21550662D01*
X25637898Y-21714102D01*
X25700540Y-21787850D01*
X25757663Y-21855100D01*
X25904936Y-21967054D01*
X26072833Y-22044732D01*
X26072834Y-22044732D01*
X26072836Y-22044733D01*
X26127648Y-22056797D01*
X26253503Y-22084500D01*
X26253506Y-22084500D01*
X27192107Y-22084500D01*
X27192113Y-22084500D01*
X27329910Y-22069514D01*
X27505221Y-22010444D01*
X27663736Y-21915070D01*
X27798041Y-21787849D01*
X27798047Y-21787839D01*
X27802391Y-21782727D01*
X27803589Y-21783745D01*
X27851233Y-21744472D01*
X27899953Y-21734500D01*
X28812457Y-21734500D01*
X28838815Y-21737334D01*
X28843527Y-21738359D01*
X28895271Y-21734657D01*
X28899694Y-21734500D01*
X28915399Y-21734500D01*
X28930942Y-21732264D01*
X28935340Y-21731791D01*
X28987083Y-21728091D01*
X28991592Y-21726408D01*
X29017285Y-21719850D01*
X29022057Y-21719165D01*
X29069246Y-21697613D01*
X29073328Y-21695922D01*
X29102238Y-21685140D01*
X29121929Y-21677797D01*
X29121929Y-21677796D01*
X29121931Y-21677796D01*
X29125789Y-21674907D01*
X29148595Y-21661375D01*
X29152973Y-21659377D01*
X29192164Y-21625416D01*
X29195614Y-21622637D01*
X29198530Y-21620453D01*
X29208193Y-21613221D01*
X29219320Y-21602092D01*
X29222525Y-21599109D01*
X29261347Y-21565471D01*
X29261741Y-21565130D01*
X29261741Y-21565129D01*
X29261743Y-21565128D01*
X29264351Y-21561068D01*
X29280981Y-21540431D01*
X29812594Y-21008819D01*
X29873918Y-20975334D01*
X29900276Y-20972500D01*
X30811560Y-20972500D01*
X30878599Y-20992185D01*
X30924354Y-21044989D01*
X30927742Y-21053167D01*
X30969202Y-21164328D01*
X30969206Y-21164335D01*
X31019107Y-21230993D01*
X31055454Y-21279546D01*
X31123411Y-21330419D01*
X31165281Y-21386351D01*
X31173099Y-21429684D01*
X31173099Y-21963236D01*
X31153414Y-22030275D01*
X31100610Y-22076030D01*
X31092432Y-22079418D01*
X30956271Y-22130202D01*
X30956264Y-22130206D01*
X30841055Y-22216452D01*
X30841052Y-22216455D01*
X30754806Y-22331664D01*
X30754802Y-22331671D01*
X30704510Y-22466513D01*
X30704509Y-22466517D01*
X30698100Y-22526127D01*
X30698100Y-22526134D01*
X30698100Y-22526135D01*
X30698100Y-23121870D01*
X30698101Y-23121879D01*
X30699646Y-23136248D01*
X30687239Y-23205007D01*
X30639627Y-23256143D01*
X30576356Y-23273500D01*
X27894144Y-23273500D01*
X27827105Y-23253815D01*
X27799636Y-23229776D01*
X27734337Y-23152900D01*
X27707347Y-23132383D01*
X27587064Y-23040946D01*
X27419167Y-22963268D01*
X27419163Y-22963266D01*
X27238497Y-22923500D01*
X26299887Y-22923500D01*
X26299883Y-22923500D01*
X26162088Y-22938486D01*
X25986776Y-22997557D01*
X25986774Y-22997558D01*
X25828262Y-23092931D01*
X25828261Y-23092932D01*
X25693959Y-23220149D01*
X25590138Y-23373276D01*
X25521669Y-23545122D01*
X25510136Y-23615471D01*
X25496667Y-23697633D01*
X25491740Y-23727685D01*
X25501755Y-23912406D01*
X25501755Y-23912411D01*
X25551244Y-24090656D01*
X25551247Y-24090662D01*
X25637898Y-24254102D01*
X25637902Y-24254107D01*
X25731776Y-24364625D01*
X25760174Y-24428463D01*
X25749549Y-24497520D01*
X25703276Y-24549871D01*
X25637268Y-24568900D01*
X25023476Y-24568900D01*
X24956437Y-24549215D01*
X24935795Y-24532581D01*
X24615819Y-24212604D01*
X24582334Y-24151281D01*
X24579500Y-24124923D01*
X24579500Y-19714675D01*
X24599185Y-19647636D01*
X24615819Y-19626994D01*
X25011995Y-19230819D01*
X25073318Y-19197334D01*
X25099676Y-19194500D01*
X25597856Y-19194500D01*
X25664895Y-19214185D01*
X25692364Y-19238224D01*
X25723177Y-19274500D01*
X25757663Y-19315100D01*
X25904936Y-19427054D01*
X26072833Y-19504732D01*
X26072834Y-19504732D01*
X26072836Y-19504733D01*
X26127648Y-19516797D01*
X26253503Y-19544500D01*
X26253506Y-19544500D01*
X27192107Y-19544500D01*
X27192113Y-19544500D01*
X27329910Y-19529514D01*
X27505221Y-19470444D01*
X27663736Y-19375070D01*
X27798041Y-19247849D01*
X27798047Y-19247839D01*
X27802391Y-19242727D01*
X27803589Y-19243745D01*
X27851233Y-19204472D01*
X27899953Y-19194500D01*
X28304457Y-19194500D01*
X28330815Y-19197334D01*
X28335527Y-19198359D01*
X28387271Y-19194657D01*
X28391694Y-19194500D01*
X28407399Y-19194500D01*
X28422942Y-19192264D01*
X28427340Y-19191791D01*
X28479083Y-19188091D01*
X28483592Y-19186408D01*
X28509285Y-19179850D01*
X28514057Y-19179165D01*
X28561246Y-19157613D01*
X28565328Y-19155922D01*
X28597007Y-19144108D01*
X28613929Y-19137797D01*
X28613929Y-19137796D01*
X28613931Y-19137796D01*
X28617789Y-19134907D01*
X28640595Y-19121375D01*
X28644973Y-19119377D01*
X28684164Y-19085416D01*
X28687614Y-19082637D01*
X28690530Y-19080453D01*
X28700193Y-19073221D01*
X28711320Y-19062092D01*
X28714525Y-19059109D01*
X28753743Y-19025128D01*
X28756351Y-19021068D01*
X28772981Y-19000431D01*
X28848734Y-18924678D01*
X30994500Y-18924678D01*
X31009032Y-18997735D01*
X31009033Y-18997739D01*
X31017664Y-19010656D01*
X31064399Y-19080601D01*
X31134792Y-19127635D01*
X31147260Y-19135966D01*
X31147264Y-19135967D01*
X31220321Y-19150499D01*
X31220324Y-19150500D01*
X31220326Y-19150500D01*
X32819675Y-19150500D01*
X32834555Y-19147539D01*
X32851807Y-19144108D01*
X32921398Y-19150334D01*
X32976576Y-19193197D01*
X32999822Y-19259086D01*
X33000000Y-19265725D01*
X33000000Y-19512892D01*
X32980315Y-19579931D01*
X32950312Y-19612158D01*
X32880452Y-19664455D01*
X32794206Y-19779664D01*
X32794202Y-19779671D01*
X32743908Y-19914517D01*
X32738197Y-19967641D01*
X32737501Y-19974123D01*
X32737500Y-19974135D01*
X32737500Y-20969870D01*
X32737501Y-20969876D01*
X32743908Y-21029483D01*
X32794202Y-21164328D01*
X32794206Y-21164335D01*
X32880452Y-21279544D01*
X32880455Y-21279547D01*
X32995664Y-21365793D01*
X32995671Y-21365797D01*
X33040618Y-21382560D01*
X33130517Y-21416091D01*
X33190127Y-21422500D01*
X33810872Y-21422499D01*
X33870483Y-21416091D01*
X34005331Y-21365796D01*
X34120546Y-21279546D01*
X34206796Y-21164331D01*
X34257091Y-21029483D01*
X34257091Y-21029478D01*
X34257687Y-21026960D01*
X34258687Y-21025202D01*
X34259802Y-21022215D01*
X34260286Y-21022395D01*
X34292261Y-20966244D01*
X34354172Y-20933859D01*
X34378364Y-20931476D01*
X38240761Y-20931476D01*
X38240761Y-19515762D01*
X34348857Y-19515762D01*
X34348857Y-19596881D01*
X34329172Y-19663920D01*
X34276368Y-19709675D01*
X34207210Y-19719619D01*
X34143654Y-19690594D01*
X34125592Y-19671195D01*
X34120546Y-19664455D01*
X34120546Y-19664454D01*
X34120545Y-19664453D01*
X34050688Y-19612158D01*
X34008818Y-19556224D01*
X34001000Y-19512892D01*
X34001000Y-18874500D01*
X34020685Y-18807461D01*
X34073489Y-18761706D01*
X34125000Y-18750500D01*
X38830500Y-18750500D01*
X38897539Y-18770185D01*
X38943294Y-18822989D01*
X38954500Y-18874500D01*
X38954500Y-18924678D01*
X38969032Y-18997735D01*
X38969033Y-18997739D01*
X38977664Y-19010656D01*
X39024399Y-19080601D01*
X39094792Y-19127635D01*
X39107260Y-19135966D01*
X39107264Y-19135967D01*
X39180321Y-19150499D01*
X39180324Y-19150500D01*
X39180326Y-19150500D01*
X40779676Y-19150500D01*
X40779677Y-19150499D01*
X40852740Y-19135966D01*
X40935601Y-19080601D01*
X40990966Y-18997740D01*
X41005499Y-18924678D01*
X41994500Y-18924678D01*
X42009032Y-18997735D01*
X42009033Y-18997739D01*
X42017664Y-19010656D01*
X42064399Y-19080601D01*
X42134792Y-19127635D01*
X42147260Y-19135966D01*
X42147264Y-19135967D01*
X42220321Y-19150499D01*
X42220324Y-19150500D01*
X42220326Y-19150500D01*
X42402900Y-19150500D01*
X42469939Y-19170185D01*
X42515694Y-19222989D01*
X42526900Y-19274500D01*
X42526900Y-19408660D01*
X42507215Y-19475699D01*
X42454411Y-19521454D01*
X42446233Y-19524842D01*
X42335071Y-19566302D01*
X42335064Y-19566306D01*
X42219855Y-19652552D01*
X42219852Y-19652555D01*
X42133606Y-19767764D01*
X42133602Y-19767771D01*
X42093491Y-19875317D01*
X42083309Y-19902617D01*
X42076900Y-19962227D01*
X42076900Y-19962234D01*
X42076900Y-19962235D01*
X42076900Y-20582970D01*
X42076901Y-20582976D01*
X42083308Y-20642583D01*
X42133602Y-20777428D01*
X42133606Y-20777435D01*
X42219852Y-20892644D01*
X42219855Y-20892647D01*
X42335064Y-20978893D01*
X42335071Y-20978897D01*
X42469917Y-21029191D01*
X42469916Y-21029191D01*
X42476844Y-21029935D01*
X42529527Y-21035600D01*
X43525272Y-21035599D01*
X43584883Y-21029191D01*
X43719731Y-20978896D01*
X43834946Y-20892646D01*
X43921196Y-20777431D01*
X43971491Y-20642583D01*
X43977900Y-20582973D01*
X43977899Y-19962228D01*
X43971491Y-19902617D01*
X43961308Y-19875316D01*
X43921197Y-19767771D01*
X43921193Y-19767764D01*
X43834947Y-19652555D01*
X43834944Y-19652552D01*
X43719735Y-19566306D01*
X43719729Y-19566303D01*
X43608566Y-19524841D01*
X43562509Y-19490362D01*
X46115276Y-19490362D01*
X46115276Y-20906076D01*
X47910803Y-20906076D01*
X47910803Y-19490362D01*
X46115276Y-19490362D01*
X43562509Y-19490362D01*
X43552633Y-19482969D01*
X43528216Y-19417505D01*
X43527900Y-19408659D01*
X43527900Y-19274500D01*
X43547585Y-19207461D01*
X43600389Y-19161706D01*
X43651900Y-19150500D01*
X43819676Y-19150500D01*
X43819677Y-19150499D01*
X43892740Y-19135966D01*
X43975601Y-19080601D01*
X44030966Y-18997740D01*
X44045500Y-18924674D01*
X44045500Y-18874500D01*
X44065185Y-18807461D01*
X44117989Y-18761706D01*
X44169500Y-18750500D01*
X49830500Y-18750500D01*
X49897539Y-18770185D01*
X49943294Y-18822989D01*
X49954500Y-18874500D01*
X49954500Y-18924678D01*
X49969032Y-18997735D01*
X49969033Y-18997739D01*
X49977664Y-19010656D01*
X50024399Y-19080601D01*
X50094792Y-19127635D01*
X50107260Y-19135966D01*
X50107264Y-19135967D01*
X50180321Y-19150499D01*
X50180324Y-19150500D01*
X50180326Y-19150500D01*
X51779676Y-19150500D01*
X51779677Y-19150499D01*
X51852740Y-19135966D01*
X51935601Y-19080601D01*
X51990966Y-18997740D01*
X51992967Y-18987678D01*
X52939500Y-18987678D01*
X52954032Y-19060735D01*
X52954033Y-19060739D01*
X52954034Y-19060740D01*
X53009399Y-19143601D01*
X53091350Y-19198358D01*
X53092260Y-19198966D01*
X53092264Y-19198967D01*
X53165321Y-19213499D01*
X53165324Y-19213500D01*
X53165326Y-19213500D01*
X53299500Y-19213500D01*
X53366539Y-19233185D01*
X53412294Y-19285989D01*
X53423500Y-19337500D01*
X53423500Y-19660760D01*
X53403815Y-19727799D01*
X53351011Y-19773554D01*
X53342833Y-19776942D01*
X53231671Y-19818402D01*
X53231664Y-19818406D01*
X53116455Y-19904652D01*
X53116452Y-19904655D01*
X53030206Y-20019864D01*
X53030202Y-20019871D01*
X52983557Y-20144935D01*
X52979909Y-20154717D01*
X52973500Y-20214327D01*
X52973500Y-20214334D01*
X52973500Y-20214335D01*
X52973500Y-20835070D01*
X52973501Y-20835076D01*
X52979908Y-20894683D01*
X53030202Y-21029528D01*
X53030206Y-21029535D01*
X53116452Y-21144744D01*
X53116455Y-21144747D01*
X53231664Y-21230993D01*
X53231671Y-21230997D01*
X53366517Y-21281291D01*
X53366516Y-21281291D01*
X53373444Y-21282035D01*
X53426127Y-21287700D01*
X54421872Y-21287699D01*
X54481483Y-21281291D01*
X54616331Y-21230996D01*
X54731546Y-21144746D01*
X54817796Y-21029531D01*
X54868091Y-20894683D01*
X54874500Y-20835073D01*
X54874499Y-20214328D01*
X54868091Y-20154717D01*
X54862927Y-20140872D01*
X54817797Y-20019871D01*
X54817793Y-20019864D01*
X54731547Y-19904655D01*
X54731544Y-19904652D01*
X54616335Y-19818406D01*
X54616329Y-19818403D01*
X54505166Y-19776941D01*
X54449233Y-19735069D01*
X54424816Y-19669605D01*
X54424500Y-19660759D01*
X54424500Y-19541162D01*
X55151648Y-19541162D01*
X55151648Y-20956876D01*
X62043552Y-20956876D01*
X62043552Y-19541162D01*
X55151648Y-19541162D01*
X54424500Y-19541162D01*
X54424500Y-19337500D01*
X54444185Y-19270461D01*
X54496989Y-19224706D01*
X54548500Y-19213500D01*
X54764676Y-19213500D01*
X54764677Y-19213499D01*
X54837740Y-19198966D01*
X54920601Y-19143601D01*
X54975966Y-19060740D01*
X54990500Y-18987674D01*
X54990500Y-18937500D01*
X55010185Y-18870461D01*
X55062989Y-18824706D01*
X55114500Y-18813500D01*
X60775500Y-18813500D01*
X60842539Y-18833185D01*
X60888294Y-18885989D01*
X60899500Y-18937500D01*
X60899500Y-18987678D01*
X60914032Y-19060735D01*
X60914033Y-19060739D01*
X60914034Y-19060740D01*
X60969399Y-19143601D01*
X61051350Y-19198358D01*
X61052260Y-19198966D01*
X61052264Y-19198967D01*
X61125321Y-19213499D01*
X61125324Y-19213500D01*
X61125326Y-19213500D01*
X62724676Y-19213500D01*
X62724677Y-19213499D01*
X62797740Y-19198966D01*
X62880601Y-19143601D01*
X62935966Y-19060740D01*
X62950500Y-18987674D01*
X62950500Y-18924678D01*
X63994500Y-18924678D01*
X64009032Y-18997735D01*
X64009033Y-18997739D01*
X64017664Y-19010656D01*
X64064399Y-19080601D01*
X64134792Y-19127635D01*
X64147260Y-19135966D01*
X64147264Y-19135967D01*
X64220321Y-19150499D01*
X64220324Y-19150500D01*
X64220326Y-19150500D01*
X64399300Y-19150500D01*
X64466339Y-19170185D01*
X64512094Y-19222989D01*
X64523300Y-19274500D01*
X64523300Y-19381360D01*
X64503615Y-19448399D01*
X64450811Y-19494154D01*
X64442633Y-19497542D01*
X64331471Y-19539002D01*
X64331464Y-19539006D01*
X64216255Y-19625252D01*
X64216252Y-19625255D01*
X64130006Y-19740464D01*
X64130002Y-19740471D01*
X64079710Y-19875313D01*
X64079709Y-19875317D01*
X64073300Y-19934927D01*
X64073300Y-19934934D01*
X64073300Y-19934935D01*
X64073300Y-20555670D01*
X64073301Y-20555676D01*
X64079708Y-20615283D01*
X64130002Y-20750128D01*
X64130006Y-20750135D01*
X64216252Y-20865344D01*
X64216255Y-20865347D01*
X64331464Y-20951593D01*
X64331471Y-20951597D01*
X64466317Y-21001891D01*
X64466316Y-21001891D01*
X64473244Y-21002635D01*
X64525927Y-21008300D01*
X65521672Y-21008299D01*
X65581283Y-21001891D01*
X65716131Y-20951596D01*
X65831346Y-20865346D01*
X65917596Y-20750131D01*
X65967891Y-20615283D01*
X65974300Y-20555673D01*
X65974299Y-19934928D01*
X65967891Y-19875317D01*
X65961754Y-19858864D01*
X65917597Y-19740471D01*
X65917593Y-19740464D01*
X65831347Y-19625255D01*
X65831344Y-19625252D01*
X65719015Y-19541162D01*
X68042977Y-19541162D01*
X68042977Y-20956721D01*
X69933287Y-20956721D01*
X69933287Y-19541162D01*
X68042977Y-19541162D01*
X65719015Y-19541162D01*
X65716135Y-19539006D01*
X65716129Y-19539003D01*
X65604966Y-19497541D01*
X65549033Y-19455669D01*
X65524616Y-19390205D01*
X65524300Y-19381359D01*
X65524300Y-19274500D01*
X65543985Y-19207461D01*
X65596789Y-19161706D01*
X65648300Y-19150500D01*
X65819676Y-19150500D01*
X65819677Y-19150499D01*
X65892740Y-19135966D01*
X65975601Y-19080601D01*
X66030966Y-18997740D01*
X66045500Y-18924674D01*
X66045500Y-18874500D01*
X66065185Y-18807461D01*
X66117989Y-18761706D01*
X66169500Y-18750500D01*
X71830500Y-18750500D01*
X71897539Y-18770185D01*
X71943294Y-18822989D01*
X71954500Y-18874500D01*
X71954500Y-18924678D01*
X71969032Y-18997735D01*
X71969033Y-18997739D01*
X71977664Y-19010656D01*
X72024399Y-19080601D01*
X72094792Y-19127635D01*
X72107260Y-19135966D01*
X72107264Y-19135967D01*
X72180321Y-19150499D01*
X72180324Y-19150500D01*
X72180326Y-19150500D01*
X73779676Y-19150500D01*
X73779677Y-19150499D01*
X73852740Y-19135966D01*
X73935601Y-19080601D01*
X73990966Y-18997740D01*
X74005500Y-18924674D01*
X74005500Y-17575326D01*
X74005500Y-17575323D01*
X74005499Y-17575321D01*
X73990967Y-17502264D01*
X73990966Y-17502260D01*
X73990966Y-17502259D01*
X73935601Y-17419399D01*
X73852740Y-17364034D01*
X73852739Y-17364033D01*
X73852735Y-17364032D01*
X73779677Y-17349500D01*
X73779674Y-17349500D01*
X72180326Y-17349500D01*
X72180323Y-17349500D01*
X72107264Y-17364032D01*
X72107260Y-17364033D01*
X72024399Y-17419399D01*
X71969033Y-17502260D01*
X71969032Y-17502264D01*
X71954500Y-17575321D01*
X71954500Y-17625500D01*
X71934815Y-17692539D01*
X71882011Y-17738294D01*
X71830500Y-17749500D01*
X66169500Y-17749500D01*
X66102461Y-17729815D01*
X66056706Y-17677011D01*
X66045500Y-17625500D01*
X66045500Y-17575323D01*
X66045499Y-17575321D01*
X66030967Y-17502264D01*
X66030966Y-17502260D01*
X65975601Y-17419399D01*
X65892740Y-17364034D01*
X65892739Y-17364033D01*
X65892735Y-17364032D01*
X65819677Y-17349500D01*
X65819674Y-17349500D01*
X64220326Y-17349500D01*
X64220323Y-17349500D01*
X64147264Y-17364032D01*
X64147260Y-17364033D01*
X64064399Y-17419399D01*
X64009033Y-17502260D01*
X64009032Y-17502264D01*
X63994500Y-17575321D01*
X63994500Y-18924678D01*
X62950500Y-18924678D01*
X62950500Y-17638326D01*
X62950500Y-17638323D01*
X62950499Y-17638321D01*
X62935967Y-17565264D01*
X62935966Y-17565260D01*
X62918020Y-17538402D01*
X62880601Y-17482399D01*
X62797740Y-17427034D01*
X62797739Y-17427033D01*
X62797735Y-17427032D01*
X62724677Y-17412500D01*
X62724674Y-17412500D01*
X61125326Y-17412500D01*
X61125323Y-17412500D01*
X61052264Y-17427032D01*
X61052260Y-17427033D01*
X60969399Y-17482399D01*
X60914033Y-17565260D01*
X60914032Y-17565264D01*
X60899500Y-17638321D01*
X60899500Y-17688500D01*
X60879815Y-17755539D01*
X60827011Y-17801294D01*
X60775500Y-17812500D01*
X55114500Y-17812500D01*
X55047461Y-17792815D01*
X55001706Y-17740011D01*
X54990500Y-17688500D01*
X54990500Y-17638323D01*
X54990499Y-17638321D01*
X54975967Y-17565264D01*
X54975966Y-17565260D01*
X54958020Y-17538402D01*
X54920601Y-17482399D01*
X54837740Y-17427034D01*
X54837739Y-17427033D01*
X54837735Y-17427032D01*
X54764677Y-17412500D01*
X54764674Y-17412500D01*
X53165326Y-17412500D01*
X53165323Y-17412500D01*
X53092264Y-17427032D01*
X53092260Y-17427033D01*
X53009399Y-17482399D01*
X52954033Y-17565260D01*
X52954032Y-17565264D01*
X52939500Y-17638321D01*
X52939500Y-18987678D01*
X51992967Y-18987678D01*
X52005500Y-18924674D01*
X52005500Y-17575326D01*
X52005500Y-17575323D01*
X52005499Y-17575321D01*
X51990967Y-17502264D01*
X51990966Y-17502260D01*
X51990966Y-17502259D01*
X51935601Y-17419399D01*
X51852740Y-17364034D01*
X51852739Y-17364033D01*
X51852735Y-17364032D01*
X51779677Y-17349500D01*
X51779674Y-17349500D01*
X50180326Y-17349500D01*
X50180323Y-17349500D01*
X50107264Y-17364032D01*
X50107260Y-17364033D01*
X50024399Y-17419399D01*
X49969033Y-17502260D01*
X49969032Y-17502264D01*
X49954500Y-17575321D01*
X49954500Y-17625500D01*
X49934815Y-17692539D01*
X49882011Y-17738294D01*
X49830500Y-17749500D01*
X44169500Y-17749500D01*
X44102461Y-17729815D01*
X44056706Y-17677011D01*
X44045500Y-17625500D01*
X44045500Y-17575323D01*
X44045499Y-17575321D01*
X44030967Y-17502264D01*
X44030966Y-17502260D01*
X43975601Y-17419399D01*
X43892740Y-17364034D01*
X43892739Y-17364033D01*
X43892735Y-17364032D01*
X43819677Y-17349500D01*
X43819674Y-17349500D01*
X42220326Y-17349500D01*
X42220323Y-17349500D01*
X42147264Y-17364032D01*
X42147260Y-17364033D01*
X42064399Y-17419399D01*
X42009033Y-17502260D01*
X42009032Y-17502264D01*
X41994500Y-17575321D01*
X41994500Y-18924678D01*
X41005499Y-18924678D01*
X41005500Y-18924674D01*
X41005500Y-17575326D01*
X41005500Y-17575325D01*
X41005500Y-17575323D01*
X41005499Y-17575321D01*
X40990967Y-17502264D01*
X40990966Y-17502260D01*
X40935601Y-17419399D01*
X40852740Y-17364034D01*
X40852739Y-17364033D01*
X40852735Y-17364032D01*
X40779677Y-17349500D01*
X40779674Y-17349500D01*
X39180326Y-17349500D01*
X39180323Y-17349500D01*
X39107264Y-17364032D01*
X39107260Y-17364033D01*
X39024399Y-17419399D01*
X38969033Y-17502260D01*
X38969032Y-17502264D01*
X38954500Y-17575321D01*
X38954500Y-17625500D01*
X38934815Y-17692539D01*
X38882011Y-17738294D01*
X38830500Y-17749500D01*
X33497094Y-17749500D01*
X33492671Y-17749342D01*
X33475083Y-17748084D01*
X33440929Y-17745641D01*
X33440925Y-17745641D01*
X33436215Y-17746666D01*
X33409857Y-17749500D01*
X33169500Y-17749500D01*
X33102461Y-17729815D01*
X33056706Y-17677011D01*
X33045500Y-17625500D01*
X33045500Y-17575323D01*
X33045499Y-17575321D01*
X33030967Y-17502264D01*
X33030966Y-17502260D01*
X32975601Y-17419399D01*
X32892740Y-17364034D01*
X32892739Y-17364033D01*
X32892735Y-17364032D01*
X32819677Y-17349500D01*
X32819674Y-17349500D01*
X31220326Y-17349500D01*
X31220323Y-17349500D01*
X31147264Y-17364032D01*
X31147260Y-17364033D01*
X31064399Y-17419399D01*
X31009033Y-17502260D01*
X31009032Y-17502264D01*
X30994500Y-17575321D01*
X30994500Y-18924678D01*
X28848734Y-18924678D01*
X30354431Y-17418981D01*
X30375068Y-17402351D01*
X30379128Y-17399743D01*
X30413109Y-17360525D01*
X30416092Y-17357320D01*
X30427221Y-17346193D01*
X30436637Y-17333614D01*
X30439417Y-17330164D01*
X30447856Y-17320425D01*
X30473377Y-17290973D01*
X30475375Y-17286595D01*
X30488907Y-17263789D01*
X30491796Y-17259931D01*
X30509922Y-17211328D01*
X30511614Y-17207245D01*
X30533165Y-17160057D01*
X30533850Y-17155285D01*
X30540409Y-17129592D01*
X30542091Y-17125083D01*
X30545791Y-17073340D01*
X30546265Y-17068940D01*
X30548500Y-17053399D01*
X30548500Y-17037694D01*
X30548658Y-17033269D01*
X30552359Y-16981527D01*
X30551332Y-16976806D01*
X30548500Y-16950458D01*
X30548500Y-11424678D01*
X89399500Y-11424678D01*
X89414032Y-11497735D01*
X89414033Y-11497739D01*
X89414034Y-11497740D01*
X89469399Y-11580601D01*
X89552260Y-11635965D01*
X89552260Y-11635966D01*
X89552264Y-11635967D01*
X89625321Y-11650499D01*
X89625324Y-11650500D01*
X89625326Y-11650500D01*
X92874676Y-11650500D01*
X92874677Y-11650499D01*
X92947740Y-11635966D01*
X93030601Y-11580601D01*
X93085966Y-11497740D01*
X93100500Y-11424674D01*
X93100500Y-9375326D01*
X93100500Y-9375323D01*
X93100499Y-9375321D01*
X93085967Y-9302264D01*
X93085966Y-9302260D01*
X93085966Y-9302259D01*
X93030601Y-9219399D01*
X92947740Y-9164034D01*
X92947739Y-9164033D01*
X92947735Y-9164032D01*
X92874677Y-9149500D01*
X92874674Y-9149500D01*
X89625326Y-9149500D01*
X89625323Y-9149500D01*
X89552264Y-9164032D01*
X89552260Y-9164033D01*
X89469399Y-9219399D01*
X89414033Y-9302260D01*
X89414032Y-9302264D01*
X89399500Y-9375321D01*
X89399500Y-11424678D01*
X30548500Y-11424678D01*
X30548500Y-7269999D01*
X31552601Y-7269999D01*
X31572149Y-7468481D01*
X31572149Y-7468483D01*
X31572150Y-7468485D01*
X31630046Y-7659342D01*
X31630048Y-7659348D01*
X31724060Y-7835231D01*
X31724065Y-7835238D01*
X31850589Y-7989410D01*
X31929168Y-8053897D01*
X32004763Y-8115936D01*
X32004766Y-8115937D01*
X32004768Y-8115939D01*
X32180651Y-8209951D01*
X32180654Y-8209951D01*
X32180658Y-8209954D01*
X32371515Y-8267850D01*
X32570000Y-8287399D01*
X32768485Y-8267850D01*
X32959342Y-8209954D01*
X33135237Y-8115936D01*
X33217230Y-8048646D01*
X33281541Y-8021334D01*
X33295895Y-8020500D01*
X34825301Y-8020500D01*
X34825309Y-8020500D01*
X34932140Y-8008012D01*
X34960323Y-8004719D01*
X34967527Y-8004299D01*
X35625471Y-8004299D01*
X35625472Y-8004299D01*
X35685083Y-7997891D01*
X35819931Y-7947596D01*
X35935146Y-7861346D01*
X36021396Y-7746131D01*
X36071691Y-7611283D01*
X36078100Y-7551673D01*
X36078099Y-6955928D01*
X36071691Y-6896317D01*
X36037532Y-6804733D01*
X36021397Y-6761471D01*
X36021393Y-6761464D01*
X35935147Y-6646255D01*
X35935144Y-6646252D01*
X35819935Y-6560006D01*
X35819928Y-6560002D01*
X35685082Y-6509708D01*
X35685083Y-6509708D01*
X35625483Y-6503301D01*
X35625481Y-6503300D01*
X35625473Y-6503300D01*
X35625464Y-6503300D01*
X34579729Y-6503300D01*
X34579723Y-6503301D01*
X34520114Y-6509709D01*
X34514828Y-6511681D01*
X34471494Y-6519500D01*
X33295895Y-6519500D01*
X33228856Y-6499815D01*
X33217231Y-6491354D01*
X33135237Y-6424064D01*
X33135231Y-6424060D01*
X32959348Y-6330048D01*
X32959342Y-6330046D01*
X32768485Y-6272150D01*
X32768483Y-6272149D01*
X32768481Y-6272149D01*
X32570000Y-6252601D01*
X32371518Y-6272149D01*
X32180651Y-6330048D01*
X32004768Y-6424060D01*
X32004761Y-6424065D01*
X31850589Y-6550589D01*
X31724065Y-6704761D01*
X31724060Y-6704768D01*
X31630048Y-6880651D01*
X31572149Y-7071518D01*
X31552601Y-7269999D01*
X30548500Y-7269999D01*
X30548500Y-5998676D01*
X30568185Y-5931637D01*
X30584819Y-5910995D01*
X31228995Y-5266819D01*
X31290318Y-5233334D01*
X31316676Y-5230500D01*
X31615139Y-5230500D01*
X31682178Y-5250185D01*
X31719692Y-5290838D01*
X31720683Y-5290177D01*
X31724064Y-5295237D01*
X31850589Y-5449410D01*
X31954846Y-5534970D01*
X32004763Y-5575936D01*
X32004766Y-5575937D01*
X32004768Y-5575939D01*
X32180651Y-5669951D01*
X32180654Y-5669951D01*
X32180658Y-5669954D01*
X32371515Y-5727850D01*
X32570000Y-5747399D01*
X32768485Y-5727850D01*
X32959342Y-5669954D01*
X32961423Y-5668842D01*
X33102807Y-5593270D01*
X33135237Y-5575936D01*
X33289410Y-5449410D01*
X33415936Y-5295237D01*
X33415939Y-5295229D01*
X33419317Y-5290177D01*
X33420495Y-5290964D01*
X33464466Y-5246202D01*
X33524861Y-5230500D01*
X33681524Y-5230500D01*
X33748563Y-5250185D01*
X33769205Y-5266819D01*
X34472614Y-5970228D01*
X34489246Y-5990866D01*
X34491854Y-5994925D01*
X34491857Y-5994928D01*
X34531067Y-6028903D01*
X34534283Y-6031897D01*
X34545407Y-6043021D01*
X34545412Y-6043024D01*
X34545417Y-6043029D01*
X34557979Y-6052433D01*
X34561427Y-6055211D01*
X34586161Y-6076642D01*
X34600627Y-6089177D01*
X34605010Y-6091179D01*
X34627807Y-6104705D01*
X34631669Y-6107596D01*
X34680295Y-6125732D01*
X34684351Y-6127412D01*
X34695285Y-6132406D01*
X34731540Y-6148964D01*
X34731541Y-6148964D01*
X34731543Y-6148965D01*
X34736312Y-6149650D01*
X34762002Y-6156207D01*
X34766517Y-6157891D01*
X34818258Y-6161591D01*
X34822657Y-6162064D01*
X34838201Y-6164300D01*
X34853906Y-6164300D01*
X34858328Y-6164457D01*
X34910073Y-6168159D01*
X34914784Y-6167134D01*
X34941143Y-6164300D01*
X73364325Y-6164300D01*
X73431364Y-6183985D01*
X73477119Y-6236789D01*
X73487063Y-6305947D01*
X73480507Y-6331634D01*
X73465108Y-6372918D01*
X73459610Y-6424060D01*
X73458701Y-6432523D01*
X73458700Y-6432535D01*
X73458700Y-9528270D01*
X73458701Y-9528276D01*
X73465108Y-9587883D01*
X73515402Y-9722728D01*
X73515406Y-9722735D01*
X73601652Y-9837944D01*
X73601655Y-9837947D01*
X73716864Y-9924193D01*
X73716871Y-9924197D01*
X73761818Y-9940961D01*
X73851717Y-9974491D01*
X73911327Y-9980900D01*
X74507072Y-9980899D01*
X74566683Y-9974491D01*
X74701531Y-9924196D01*
X74816746Y-9837946D01*
X74902996Y-9722731D01*
X74953291Y-9587883D01*
X74959700Y-9528273D01*
X74959699Y-6432528D01*
X74953291Y-6372917D01*
X74937893Y-6331634D01*
X74902997Y-6238071D01*
X74902993Y-6238064D01*
X74823897Y-6132407D01*
X74816746Y-6122854D01*
X74806301Y-6115035D01*
X74755016Y-6076642D01*
X74713146Y-6020708D01*
X74705644Y-5986222D01*
X74703291Y-5953317D01*
X74701607Y-5948802D01*
X74695050Y-5923112D01*
X74694365Y-5918343D01*
X74688185Y-5904812D01*
X74672816Y-5871159D01*
X74671132Y-5867095D01*
X74652996Y-5818469D01*
X74650105Y-5814607D01*
X74636579Y-5791810D01*
X74634577Y-5787427D01*
X74627056Y-5778747D01*
X74600611Y-5748227D01*
X74597833Y-5744779D01*
X74588429Y-5732217D01*
X74588424Y-5732212D01*
X74588421Y-5732207D01*
X74577297Y-5721083D01*
X74574303Y-5717867D01*
X74540328Y-5678657D01*
X74540327Y-5678656D01*
X74534519Y-5671953D01*
X74536586Y-5670161D01*
X74506428Y-5623240D01*
X74506425Y-5553370D01*
X74544197Y-5494590D01*
X74607752Y-5465563D01*
X74625404Y-5464300D01*
X75063324Y-5464300D01*
X75130363Y-5483985D01*
X75151005Y-5500619D01*
X75398613Y-5748227D01*
X75599766Y-5949379D01*
X75633251Y-6010702D01*
X75628267Y-6080393D01*
X75606006Y-6115035D01*
X75606968Y-6115755D01*
X75515406Y-6238064D01*
X75515402Y-6238071D01*
X75465108Y-6372917D01*
X75458701Y-6432516D01*
X75458701Y-6432523D01*
X75458700Y-6432535D01*
X75458700Y-9528270D01*
X75458701Y-9528276D01*
X75465108Y-9587883D01*
X75515402Y-9722728D01*
X75515406Y-9722735D01*
X75601652Y-9837944D01*
X75601655Y-9837947D01*
X75716864Y-9924193D01*
X75716871Y-9924197D01*
X75761818Y-9940961D01*
X75851717Y-9974491D01*
X75911327Y-9980900D01*
X76507072Y-9980899D01*
X76566683Y-9974491D01*
X76701531Y-9924196D01*
X76816746Y-9837946D01*
X76902996Y-9722731D01*
X76953291Y-9587883D01*
X76959700Y-9528273D01*
X76959699Y-6432528D01*
X76953291Y-6372917D01*
X76937893Y-6331634D01*
X76902997Y-6238071D01*
X76902993Y-6238064D01*
X76823897Y-6132407D01*
X76816746Y-6122854D01*
X76806301Y-6115035D01*
X76759388Y-6079915D01*
X76717518Y-6023981D01*
X76709700Y-5980649D01*
X76709700Y-5918143D01*
X76712534Y-5891785D01*
X76713559Y-5887073D01*
X76709858Y-5835329D01*
X76709700Y-5830904D01*
X76709700Y-5815201D01*
X76707464Y-5799657D01*
X76706991Y-5795254D01*
X76704836Y-5765125D01*
X76703291Y-5743517D01*
X76701607Y-5739002D01*
X76695050Y-5713312D01*
X76694365Y-5708543D01*
X76672812Y-5661351D01*
X76671132Y-5657295D01*
X76652996Y-5608669D01*
X76650105Y-5604807D01*
X76636579Y-5582010D01*
X76634577Y-5577627D01*
X76634575Y-5577625D01*
X76634575Y-5577624D01*
X76634574Y-5577623D01*
X76600603Y-5538418D01*
X76597825Y-5534970D01*
X76588424Y-5522412D01*
X76588422Y-5522410D01*
X76588420Y-5522407D01*
X76577317Y-5511304D01*
X76574300Y-5508063D01*
X76540328Y-5468857D01*
X76536271Y-5466250D01*
X76515627Y-5449614D01*
X75723385Y-4657371D01*
X75706750Y-4636728D01*
X75704145Y-4632674D01*
X75704142Y-4632671D01*
X75697147Y-4626610D01*
X75664932Y-4598696D01*
X75661700Y-4595686D01*
X75650596Y-4584582D01*
X75650588Y-4584575D01*
X75638013Y-4575162D01*
X75634583Y-4572398D01*
X75595373Y-4538423D01*
X75595371Y-4538422D01*
X75595367Y-4538419D01*
X75590983Y-4536417D01*
X75568194Y-4522896D01*
X75564331Y-4520004D01*
X75564329Y-4520003D01*
X75515716Y-4501871D01*
X75511642Y-4500183D01*
X75464457Y-4478635D01*
X75464455Y-4478634D01*
X75459682Y-4477948D01*
X75434000Y-4471393D01*
X75429485Y-4469709D01*
X75377740Y-4466007D01*
X75373343Y-4465534D01*
X75357799Y-4463300D01*
X75342094Y-4463300D01*
X75337671Y-4463142D01*
X75320083Y-4461884D01*
X75285929Y-4459441D01*
X75285925Y-4459441D01*
X75281215Y-4460466D01*
X75254857Y-4463300D01*
X35602476Y-4463300D01*
X35535437Y-4443615D01*
X35514795Y-4426981D01*
X33599096Y-2511282D01*
X33565611Y-2449959D01*
X33567835Y-2394694D01*
X33566662Y-2394461D01*
X33567849Y-2388490D01*
X33567849Y-2388487D01*
X33567850Y-2388485D01*
X33587399Y-2190000D01*
X33567850Y-1991515D01*
X33509954Y-1800658D01*
X33509951Y-1800654D01*
X33509951Y-1800651D01*
X33415939Y-1624768D01*
X33415937Y-1624766D01*
X33415936Y-1624763D01*
X33377456Y-1577875D01*
X33289410Y-1470589D01*
X33135238Y-1344065D01*
X33135231Y-1344060D01*
X32959348Y-1250048D01*
X32959342Y-1250046D01*
X32768485Y-1192150D01*
X32768483Y-1192149D01*
X32768481Y-1192149D01*
X32570000Y-1172601D01*
X32371518Y-1192149D01*
X32180651Y-1250048D01*
X32004768Y-1344060D01*
X32004761Y-1344065D01*
X31850589Y-1470589D01*
X31724064Y-1624762D01*
X31720683Y-1629823D01*
X31719504Y-1629035D01*
X31675534Y-1673798D01*
X31615139Y-1689500D01*
X31125143Y-1689500D01*
X31098785Y-1686666D01*
X31094074Y-1685641D01*
X31094070Y-1685641D01*
X31055552Y-1688396D01*
X31042328Y-1689342D01*
X31037906Y-1689500D01*
X31022199Y-1689500D01*
X31006656Y-1691734D01*
X31002260Y-1692207D01*
X30950517Y-1695909D01*
X30950513Y-1695910D01*
X30945986Y-1697598D01*
X30920327Y-1704146D01*
X30915550Y-1704833D01*
X30915543Y-1704835D01*
X30868353Y-1726385D01*
X30864264Y-1728078D01*
X30815675Y-1746200D01*
X30815664Y-1746206D01*
X30811799Y-1749100D01*
X30789020Y-1762615D01*
X30784636Y-1764617D01*
X30784626Y-1764623D01*
X30760676Y-1785375D01*
X30745428Y-1798587D01*
X30741996Y-1801354D01*
X30729402Y-1810781D01*
X30718291Y-1821892D01*
X30715055Y-1824905D01*
X30675861Y-1858867D01*
X30675854Y-1858876D01*
X30673243Y-1862938D01*
X30656616Y-1883568D01*
X28852568Y-3687616D01*
X28831938Y-3704243D01*
X28827876Y-3706854D01*
X28827867Y-3706861D01*
X28793905Y-3746055D01*
X28790892Y-3749291D01*
X28779781Y-3760402D01*
X28770354Y-3772996D01*
X28767587Y-3776428D01*
X28755788Y-3790046D01*
X28733623Y-3815626D01*
X28733617Y-3815636D01*
X28731615Y-3820020D01*
X28718100Y-3842799D01*
X28715206Y-3846664D01*
X28715200Y-3846675D01*
X28697078Y-3895264D01*
X28695385Y-3899353D01*
X28673835Y-3946543D01*
X28673833Y-3946550D01*
X28673146Y-3951327D01*
X28666598Y-3976986D01*
X28664910Y-3981513D01*
X28664909Y-3981517D01*
X28661207Y-4033260D01*
X28660734Y-4037656D01*
X28658500Y-4053199D01*
X28658500Y-4068904D01*
X28658342Y-4073329D01*
X28654641Y-4125069D01*
X28654641Y-4125073D01*
X28655666Y-4129785D01*
X28658500Y-4156143D01*
X28658500Y-15006323D01*
X28638815Y-15073362D01*
X28622181Y-15094004D01*
X28099005Y-15617181D01*
X28037682Y-15650666D01*
X28011324Y-15653500D01*
X27894144Y-15653500D01*
X27827105Y-15633815D01*
X27799636Y-15609776D01*
X27734337Y-15532900D01*
X27655449Y-15472931D01*
X27587064Y-15420946D01*
X27419167Y-15343268D01*
X27419163Y-15343266D01*
X27238497Y-15303500D01*
X26299887Y-15303500D01*
X26299883Y-15303500D01*
X26162088Y-15318486D01*
X25986776Y-15377557D01*
X25986774Y-15377558D01*
X25828262Y-15472931D01*
X25828261Y-15472932D01*
X25693960Y-15600149D01*
X25686118Y-15611714D01*
X25632200Y-15656152D01*
X25626829Y-15658299D01*
X25618007Y-15661590D01*
X25592320Y-15668148D01*
X25587541Y-15668835D01*
X25540352Y-15690385D01*
X25536270Y-15692076D01*
X25525628Y-15696045D01*
X25487668Y-15710204D01*
X25487665Y-15710206D01*
X25483801Y-15713099D01*
X25461020Y-15726616D01*
X25456626Y-15728622D01*
X25456625Y-15728623D01*
X25417431Y-15762584D01*
X25413989Y-15765358D01*
X25401407Y-15774778D01*
X25390290Y-15785893D01*
X25387056Y-15788904D01*
X25347862Y-15822866D01*
X25347854Y-15822876D01*
X25345243Y-15826938D01*
X25328616Y-15847568D01*
X22832768Y-18343416D01*
X22812138Y-18360043D01*
X22808076Y-18362654D01*
X22808067Y-18362661D01*
X22774105Y-18401855D01*
X22771092Y-18405091D01*
X22759981Y-18416202D01*
X22750554Y-18428796D01*
X22747787Y-18432228D01*
X22734575Y-18447476D01*
X22713823Y-18471426D01*
X22713817Y-18471436D01*
X22711815Y-18475820D01*
X22698300Y-18498599D01*
X22695406Y-18502464D01*
X22695400Y-18502475D01*
X22677278Y-18551064D01*
X22675585Y-18555153D01*
X22654035Y-18602343D01*
X22654033Y-18602350D01*
X22653346Y-18607127D01*
X22646798Y-18632786D01*
X22645110Y-18637313D01*
X22645109Y-18637317D01*
X22641407Y-18689060D01*
X22640934Y-18693456D01*
X22638700Y-18708999D01*
X22638700Y-18724704D01*
X22638542Y-18729129D01*
X22634841Y-18780869D01*
X22634841Y-18780873D01*
X22635866Y-18785585D01*
X22638700Y-18811943D01*
X22638700Y-25027658D01*
X22635867Y-25054006D01*
X22634841Y-25058727D01*
X22634841Y-25058729D01*
X22634841Y-25058730D01*
X500Y-25058730D01*
X500Y-23727685D01*
X10251740Y-23727685D01*
X10261755Y-23912406D01*
X10261755Y-23912411D01*
X10311244Y-24090656D01*
X10311247Y-24090662D01*
X10397898Y-24254102D01*
X10460540Y-24327850D01*
X10517663Y-24395100D01*
X10664936Y-24507054D01*
X10832833Y-24584732D01*
X10832834Y-24584732D01*
X10832836Y-24584733D01*
X10887648Y-24596797D01*
X11013503Y-24624500D01*
X11013506Y-24624500D01*
X11952107Y-24624500D01*
X11952113Y-24624500D01*
X12089910Y-24609514D01*
X12265221Y-24550444D01*
X12423736Y-24455070D01*
X12558041Y-24327849D01*
X12661858Y-24174730D01*
X12730331Y-24002875D01*
X12760260Y-23820317D01*
X12750245Y-23635593D01*
X12750244Y-23635588D01*
X12700755Y-23457343D01*
X12700752Y-23457337D01*
X12614101Y-23293897D01*
X12494337Y-23152900D01*
X12467347Y-23132383D01*
X12347064Y-23040946D01*
X12179167Y-22963268D01*
X12179163Y-22963266D01*
X11998497Y-22923500D01*
X11059887Y-22923500D01*
X11059883Y-22923500D01*
X10922088Y-22938486D01*
X10746776Y-22997557D01*
X10746774Y-22997558D01*
X10588262Y-23092931D01*
X10588261Y-23092932D01*
X10453959Y-23220149D01*
X10350138Y-23373276D01*
X10281669Y-23545122D01*
X10270136Y-23615471D01*
X10256667Y-23697633D01*
X10251740Y-23727685D01*
X500Y-23727685D01*
X500Y-21187685D01*
X10251740Y-21187685D01*
X10261755Y-21372406D01*
X10261755Y-21372411D01*
X10311244Y-21550656D01*
X10311247Y-21550662D01*
X10397898Y-21714102D01*
X10460540Y-21787850D01*
X10517663Y-21855100D01*
X10664936Y-21967054D01*
X10832833Y-22044732D01*
X10832834Y-22044732D01*
X10832836Y-22044733D01*
X10887648Y-22056797D01*
X11013503Y-22084500D01*
X11013506Y-22084500D01*
X11952107Y-22084500D01*
X11952113Y-22084500D01*
X12089910Y-22069514D01*
X12265221Y-22010444D01*
X12423736Y-21915070D01*
X12558041Y-21787849D01*
X12661858Y-21634730D01*
X12680995Y-21586701D01*
X12730330Y-21462877D01*
X12730329Y-21462877D01*
X12730331Y-21462875D01*
X12760260Y-21280317D01*
X12750245Y-21095593D01*
X12736195Y-21044989D01*
X12700755Y-20917343D01*
X12700752Y-20917337D01*
X12614101Y-20753897D01*
X12494337Y-20612900D01*
X12494336Y-20612900D01*
X12347064Y-20500946D01*
X12179167Y-20423268D01*
X12179163Y-20423266D01*
X11998497Y-20383500D01*
X11059887Y-20383500D01*
X11059883Y-20383500D01*
X10922088Y-20398486D01*
X10746776Y-20457557D01*
X10746774Y-20457558D01*
X10588262Y-20552931D01*
X10588261Y-20552932D01*
X10453959Y-20680149D01*
X10350138Y-20833276D01*
X10281669Y-21005122D01*
X10273793Y-21053167D01*
X10255569Y-21164331D01*
X10251740Y-21187685D01*
X500Y-21187685D01*
X500Y-18647683D01*
X10251740Y-18647683D01*
X10261337Y-18824706D01*
X10261755Y-18832406D01*
X10261755Y-18832411D01*
X10311244Y-19010656D01*
X10311247Y-19010662D01*
X10397898Y-19174102D01*
X10479746Y-19270461D01*
X10517663Y-19315100D01*
X10664936Y-19427054D01*
X10832833Y-19504732D01*
X10832834Y-19504732D01*
X10832836Y-19504733D01*
X10887648Y-19516797D01*
X11013503Y-19544500D01*
X11013506Y-19544500D01*
X11952107Y-19544500D01*
X11952113Y-19544500D01*
X12089910Y-19529514D01*
X12265221Y-19470444D01*
X12423736Y-19375070D01*
X12558041Y-19247849D01*
X12661858Y-19094730D01*
X12667488Y-19080601D01*
X12698273Y-19003334D01*
X12730331Y-18922875D01*
X12760260Y-18740317D01*
X12750245Y-18555593D01*
X12735497Y-18502475D01*
X12700755Y-18377343D01*
X12700752Y-18377337D01*
X12614101Y-18213897D01*
X12494337Y-18072900D01*
X12486685Y-18067083D01*
X12347064Y-17960946D01*
X12179167Y-17883268D01*
X12179163Y-17883266D01*
X11998497Y-17843500D01*
X11059887Y-17843500D01*
X11059883Y-17843500D01*
X10922088Y-17858486D01*
X10746776Y-17917557D01*
X10746774Y-17917558D01*
X10588262Y-18012931D01*
X10588261Y-18012932D01*
X10453959Y-18140149D01*
X10350138Y-18293276D01*
X10281669Y-18465122D01*
X10267580Y-18551064D01*
X10251740Y-18647683D01*
X500Y-18647683D01*
X500Y-16107685D01*
X10251740Y-16107685D01*
X10261755Y-16292406D01*
X10261755Y-16292411D01*
X10311244Y-16470656D01*
X10311247Y-16470662D01*
X10397898Y-16634102D01*
X10460540Y-16707850D01*
X10517663Y-16775100D01*
X10664936Y-16887054D01*
X10832833Y-16964732D01*
X10832834Y-16964732D01*
X10832836Y-16964733D01*
X10887648Y-16976797D01*
X11013503Y-17004500D01*
X11013506Y-17004500D01*
X11952107Y-17004500D01*
X11952113Y-17004500D01*
X12089910Y-16989514D01*
X12265221Y-16930444D01*
X12423736Y-16835070D01*
X12558041Y-16707849D01*
X12661858Y-16554730D01*
X12730331Y-16382875D01*
X12760260Y-16200317D01*
X12750245Y-16015593D01*
X12725126Y-15925122D01*
X12700755Y-15837343D01*
X12700752Y-15837337D01*
X12614101Y-15673897D01*
X12494337Y-15532900D01*
X12415449Y-15472931D01*
X12347064Y-15420946D01*
X12179167Y-15343268D01*
X12179163Y-15343266D01*
X11998497Y-15303500D01*
X11059887Y-15303500D01*
X11059883Y-15303500D01*
X10922088Y-15318486D01*
X10746776Y-15377557D01*
X10746774Y-15377558D01*
X10588262Y-15472931D01*
X10588261Y-15472932D01*
X10453959Y-15600149D01*
X10350138Y-15753276D01*
X10281669Y-15925122D01*
X10251740Y-16107685D01*
X500Y-16107685D01*
X500Y-13567685D01*
X10251740Y-13567685D01*
X10261755Y-13752406D01*
X10261755Y-13752411D01*
X10311244Y-13930656D01*
X10311247Y-13930662D01*
X10397898Y-14094102D01*
X10460540Y-14167850D01*
X10517663Y-14235100D01*
X10664936Y-14347054D01*
X10832833Y-14424732D01*
X10832834Y-14424732D01*
X10832836Y-14424733D01*
X10877719Y-14434612D01*
X11013503Y-14464500D01*
X11013506Y-14464500D01*
X11952107Y-14464500D01*
X11952113Y-14464500D01*
X12089910Y-14449514D01*
X12265221Y-14390444D01*
X12423736Y-14295070D01*
X12558041Y-14167849D01*
X12661858Y-14014730D01*
X12730331Y-13842875D01*
X12760260Y-13660317D01*
X12750245Y-13475593D01*
X12700754Y-13297341D01*
X12634794Y-13172928D01*
X12614101Y-13133897D01*
X12494337Y-12992900D01*
X12415449Y-12932931D01*
X12347064Y-12880946D01*
X12179167Y-12803268D01*
X12179163Y-12803266D01*
X11998497Y-12763500D01*
X11059887Y-12763500D01*
X11059883Y-12763500D01*
X10922088Y-12778486D01*
X10746776Y-12837557D01*
X10746774Y-12837558D01*
X10588262Y-12932931D01*
X10588261Y-12932932D01*
X10453959Y-13060149D01*
X10350138Y-13213276D01*
X10281669Y-13385122D01*
X10251740Y-13567685D01*
X500Y-13567685D01*
X500Y-11027685D01*
X10251740Y-11027685D01*
X10261755Y-11212406D01*
X10261755Y-11212411D01*
X10311244Y-11390656D01*
X10311247Y-11390662D01*
X10397898Y-11554102D01*
X10479779Y-11650500D01*
X10517663Y-11695100D01*
X10664936Y-11807054D01*
X10832833Y-11884732D01*
X10832834Y-11884732D01*
X10832836Y-11884733D01*
X10887648Y-11896797D01*
X11013503Y-11924500D01*
X11013506Y-11924500D01*
X11952107Y-11924500D01*
X11952113Y-11924500D01*
X12089910Y-11909514D01*
X12265221Y-11850444D01*
X12423736Y-11755070D01*
X12558041Y-11627849D01*
X12661858Y-11474730D01*
X12681801Y-11424678D01*
X12730330Y-11302877D01*
X12730329Y-11302877D01*
X12730331Y-11302875D01*
X12760260Y-11120317D01*
X12750245Y-10935593D01*
X12700754Y-10757341D01*
X12614100Y-10593896D01*
X12551460Y-10520151D01*
X12494337Y-10452900D01*
X12415449Y-10392931D01*
X12347064Y-10340946D01*
X12179167Y-10263268D01*
X12179163Y-10263266D01*
X11998497Y-10223500D01*
X11059887Y-10223500D01*
X11059883Y-10223500D01*
X10922088Y-10238486D01*
X10746776Y-10297557D01*
X10746774Y-10297558D01*
X10588262Y-10392931D01*
X10588261Y-10392932D01*
X10453959Y-10520149D01*
X10350138Y-10673276D01*
X10281669Y-10845122D01*
X10251740Y-11027685D01*
X500Y-11027685D01*
X500Y-8487685D01*
X10251740Y-8487685D01*
X10261755Y-8672406D01*
X10261755Y-8672411D01*
X10311244Y-8850656D01*
X10311247Y-8850662D01*
X10397898Y-9014102D01*
X10460540Y-9087850D01*
X10517663Y-9155100D01*
X10664936Y-9267054D01*
X10832833Y-9344732D01*
X10832834Y-9344732D01*
X10832836Y-9344733D01*
X10887648Y-9356797D01*
X11013503Y-9384500D01*
X11013506Y-9384500D01*
X11952107Y-9384500D01*
X11952113Y-9384500D01*
X12089910Y-9369514D01*
X12265221Y-9310444D01*
X12423736Y-9215070D01*
X12558041Y-9087849D01*
X12661858Y-8934730D01*
X12730331Y-8762875D01*
X12760260Y-8580317D01*
X12750245Y-8395593D01*
X12725126Y-8305122D01*
X12700755Y-8217343D01*
X12700752Y-8217337D01*
X12614101Y-8053897D01*
X12494337Y-7912900D01*
X12426520Y-7861347D01*
X12347064Y-7800946D01*
X12179167Y-7723268D01*
X12179163Y-7723266D01*
X11998497Y-7683500D01*
X11059887Y-7683500D01*
X11059883Y-7683500D01*
X10922088Y-7698486D01*
X10746776Y-7757557D01*
X10746774Y-7757558D01*
X10588262Y-7852931D01*
X10588261Y-7852932D01*
X10453959Y-7980149D01*
X10350138Y-8133276D01*
X10281669Y-8305122D01*
X10251740Y-8487685D01*
X500Y-8487685D01*
X500Y-5947685D01*
X10251740Y-5947685D01*
X10256762Y-6040314D01*
X10261392Y-6125720D01*
X10261755Y-6132406D01*
X10261755Y-6132411D01*
X10311244Y-6310656D01*
X10311247Y-6310662D01*
X10397898Y-6474102D01*
X10460540Y-6547850D01*
X10517663Y-6615100D01*
X10664936Y-6727054D01*
X10832833Y-6804732D01*
X10832834Y-6804732D01*
X10832836Y-6804733D01*
X10887648Y-6816797D01*
X11013503Y-6844500D01*
X11013506Y-6844500D01*
X11952107Y-6844500D01*
X11952113Y-6844500D01*
X12089910Y-6829514D01*
X12265221Y-6770444D01*
X12423736Y-6675070D01*
X12558041Y-6547849D01*
X12661858Y-6394730D01*
X12670550Y-6372916D01*
X12710698Y-6272150D01*
X12730331Y-6222875D01*
X12760260Y-6040317D01*
X12750245Y-5855593D01*
X12744619Y-5835329D01*
X12700755Y-5677343D01*
X12700752Y-5677337D01*
X12614101Y-5513897D01*
X12494337Y-5372900D01*
X12415449Y-5312931D01*
X12347064Y-5260946D01*
X12179167Y-5183268D01*
X12179163Y-5183266D01*
X11998497Y-5143500D01*
X11059887Y-5143500D01*
X11059883Y-5143500D01*
X10922088Y-5158486D01*
X10746776Y-5217557D01*
X10746774Y-5217558D01*
X10588262Y-5312931D01*
X10588261Y-5312932D01*
X10453959Y-5440149D01*
X10350138Y-5593276D01*
X10281669Y-5765122D01*
X10266838Y-5855588D01*
X10251801Y-5947314D01*
X10251740Y-5947685D01*
X500Y-5947685D01*
X500Y-3407685D01*
X10251740Y-3407685D01*
X10261755Y-3592406D01*
X10261755Y-3592411D01*
X10311244Y-3770656D01*
X10311247Y-3770662D01*
X10397898Y-3934102D01*
X10504181Y-4059228D01*
X10517663Y-4075100D01*
X10664936Y-4187054D01*
X10832833Y-4264732D01*
X10832834Y-4264732D01*
X10832836Y-4264733D01*
X10887648Y-4276797D01*
X11013503Y-4304500D01*
X11013506Y-4304500D01*
X11952107Y-4304500D01*
X11952113Y-4304500D01*
X12089910Y-4289514D01*
X12265221Y-4230444D01*
X12423736Y-4135070D01*
X12558041Y-4007849D01*
X12558047Y-4007839D01*
X12562391Y-4002727D01*
X12563589Y-4003745D01*
X12611233Y-3964472D01*
X12659953Y-3954500D01*
X16196217Y-3954500D01*
X16263256Y-3974185D01*
X16309011Y-4026989D01*
X16312389Y-4035142D01*
X16319124Y-4053199D01*
X16321373Y-4059228D01*
X16331929Y-4073329D01*
X16403313Y-4168687D01*
X16403316Y-4168689D01*
X16403317Y-4168690D01*
X16449809Y-4203493D01*
X16491681Y-4259426D01*
X16499500Y-4302761D01*
X16499500Y-11825500D01*
X16479815Y-11892539D01*
X16427011Y-11938294D01*
X16375500Y-11949500D01*
X16175323Y-11949500D01*
X16102264Y-11964032D01*
X16102260Y-11964033D01*
X16019399Y-12019399D01*
X15964033Y-12102260D01*
X15964032Y-12102264D01*
X15949500Y-12175321D01*
X15949500Y-13824678D01*
X15964032Y-13897735D01*
X15964033Y-13897739D01*
X15964034Y-13897740D01*
X16019399Y-13980601D01*
X16070478Y-14014730D01*
X16102260Y-14035966D01*
X16102264Y-14035967D01*
X16175321Y-14050499D01*
X16175324Y-14050500D01*
X16175326Y-14050500D01*
X17824676Y-14050500D01*
X17824677Y-14050499D01*
X17897740Y-14035966D01*
X17980601Y-13980601D01*
X18035966Y-13897740D01*
X18050500Y-13824674D01*
X18050500Y-13567685D01*
X25491740Y-13567685D01*
X25501755Y-13752406D01*
X25501755Y-13752411D01*
X25551244Y-13930656D01*
X25551247Y-13930662D01*
X25637898Y-14094102D01*
X25700540Y-14167850D01*
X25757663Y-14235100D01*
X25904936Y-14347054D01*
X26072833Y-14424732D01*
X26072834Y-14424732D01*
X26072836Y-14424733D01*
X26117719Y-14434612D01*
X26253503Y-14464500D01*
X26253506Y-14464500D01*
X27192107Y-14464500D01*
X27192113Y-14464500D01*
X27329910Y-14449514D01*
X27505221Y-14390444D01*
X27663736Y-14295070D01*
X27798041Y-14167849D01*
X27901858Y-14014730D01*
X27970331Y-13842875D01*
X28000260Y-13660317D01*
X27990245Y-13475593D01*
X27940754Y-13297341D01*
X27874794Y-13172928D01*
X27854101Y-13133897D01*
X27734337Y-12992900D01*
X27655449Y-12932931D01*
X27587064Y-12880946D01*
X27419167Y-12803268D01*
X27419163Y-12803266D01*
X27238497Y-12763500D01*
X26299887Y-12763500D01*
X26299883Y-12763500D01*
X26162088Y-12778486D01*
X25986776Y-12837557D01*
X25986774Y-12837558D01*
X25828262Y-12932931D01*
X25828261Y-12932932D01*
X25693959Y-13060149D01*
X25590138Y-13213276D01*
X25521669Y-13385122D01*
X25491740Y-13567685D01*
X18050500Y-13567685D01*
X18050500Y-12175326D01*
X18050500Y-12175323D01*
X18050499Y-12175321D01*
X18035967Y-12102264D01*
X18035966Y-12102260D01*
X18035965Y-12102260D01*
X17980601Y-12019399D01*
X17897740Y-11964034D01*
X17897739Y-11964033D01*
X17897735Y-11964032D01*
X17824677Y-11949500D01*
X17824674Y-11949500D01*
X17624500Y-11949500D01*
X17557461Y-11929815D01*
X17511706Y-11877011D01*
X17500500Y-11825500D01*
X17500500Y-11027685D01*
X25491740Y-11027685D01*
X25501755Y-11212406D01*
X25501755Y-11212411D01*
X25551244Y-11390656D01*
X25551247Y-11390662D01*
X25637898Y-11554102D01*
X25719779Y-11650500D01*
X25757663Y-11695100D01*
X25904936Y-11807054D01*
X26072833Y-11884732D01*
X26072834Y-11884732D01*
X26072836Y-11884733D01*
X26127648Y-11896797D01*
X26253503Y-11924500D01*
X26253506Y-11924500D01*
X27192107Y-11924500D01*
X27192113Y-11924500D01*
X27329910Y-11909514D01*
X27505221Y-11850444D01*
X27663736Y-11755070D01*
X27798041Y-11627849D01*
X27901858Y-11474730D01*
X27921801Y-11424678D01*
X27970330Y-11302877D01*
X27970329Y-11302877D01*
X27970331Y-11302875D01*
X28000260Y-11120317D01*
X27990245Y-10935593D01*
X27940754Y-10757341D01*
X27854100Y-10593896D01*
X27791460Y-10520151D01*
X27734337Y-10452900D01*
X27655449Y-10392931D01*
X27587064Y-10340946D01*
X27419167Y-10263268D01*
X27419163Y-10263266D01*
X27238497Y-10223500D01*
X26299887Y-10223500D01*
X26299883Y-10223500D01*
X26162088Y-10238486D01*
X25986776Y-10297557D01*
X25986774Y-10297558D01*
X25828262Y-10392931D01*
X25828261Y-10392932D01*
X25693959Y-10520149D01*
X25590138Y-10673276D01*
X25521669Y-10845122D01*
X25491740Y-11027685D01*
X17500500Y-11027685D01*
X17500500Y-8487685D01*
X25491740Y-8487685D01*
X25501755Y-8672406D01*
X25501755Y-8672411D01*
X25551244Y-8850656D01*
X25551247Y-8850662D01*
X25637898Y-9014102D01*
X25700540Y-9087850D01*
X25757663Y-9155100D01*
X25904936Y-9267054D01*
X26072833Y-9344732D01*
X26072834Y-9344732D01*
X26072836Y-9344733D01*
X26127648Y-9356797D01*
X26253503Y-9384500D01*
X26253506Y-9384500D01*
X27192107Y-9384500D01*
X27192113Y-9384500D01*
X27329910Y-9369514D01*
X27505221Y-9310444D01*
X27663736Y-9215070D01*
X27798041Y-9087849D01*
X27901858Y-8934730D01*
X27970331Y-8762875D01*
X28000260Y-8580317D01*
X27990245Y-8395593D01*
X27965126Y-8305122D01*
X27940755Y-8217343D01*
X27940752Y-8217337D01*
X27854101Y-8053897D01*
X27734337Y-7912900D01*
X27666520Y-7861347D01*
X27587064Y-7800946D01*
X27419167Y-7723268D01*
X27419163Y-7723266D01*
X27238497Y-7683500D01*
X26299887Y-7683500D01*
X26299883Y-7683500D01*
X26162088Y-7698486D01*
X25986776Y-7757557D01*
X25986774Y-7757558D01*
X25828262Y-7852931D01*
X25828261Y-7852932D01*
X25693959Y-7980149D01*
X25590138Y-8133276D01*
X25521669Y-8305122D01*
X25491740Y-8487685D01*
X17500500Y-8487685D01*
X17500500Y-8048646D01*
X17500500Y-4252232D01*
X17520184Y-4185197D01*
X17527619Y-4175971D01*
X17527372Y-4175786D01*
X17532685Y-4168688D01*
X17532687Y-4168687D01*
X17614628Y-4059226D01*
X17662412Y-3931114D01*
X17665827Y-3899353D01*
X17668499Y-3874501D01*
X17668499Y-3874490D01*
X17668500Y-3874485D01*
X17668500Y-3874481D01*
X19567500Y-3874481D01*
X19567501Y-3874490D01*
X19573587Y-3931114D01*
X19609348Y-4026989D01*
X19621372Y-4059226D01*
X19703313Y-4168687D01*
X19749809Y-4203493D01*
X19801583Y-4242251D01*
X19812774Y-4250628D01*
X19940886Y-4298412D01*
X19997515Y-4304500D01*
X20538484Y-4304499D01*
X20595114Y-4298412D01*
X20723226Y-4250628D01*
X20832687Y-4168687D01*
X20914628Y-4059226D01*
X20923602Y-4035163D01*
X20965473Y-3979233D01*
X21030937Y-3954816D01*
X21039783Y-3954500D01*
X21056060Y-3954500D01*
X21123099Y-3974185D01*
X21168854Y-4026989D01*
X21172242Y-4035167D01*
X21213702Y-4146328D01*
X21213706Y-4146335D01*
X21299952Y-4261544D01*
X21299955Y-4261547D01*
X21415164Y-4347793D01*
X21415171Y-4347797D01*
X21423172Y-4350781D01*
X21550017Y-4398091D01*
X21609627Y-4404500D01*
X22230372Y-4404499D01*
X22289983Y-4398091D01*
X22424831Y-4347796D01*
X22540046Y-4261546D01*
X22626296Y-4146331D01*
X22676591Y-4011483D01*
X22683000Y-3951873D01*
X22683000Y-3951870D01*
X22982000Y-3951870D01*
X22982001Y-3951876D01*
X22988408Y-4011483D01*
X23038702Y-4146328D01*
X23038706Y-4146335D01*
X23124952Y-4261544D01*
X23124955Y-4261547D01*
X23240164Y-4347793D01*
X23240171Y-4347797D01*
X23248172Y-4350781D01*
X23375017Y-4398091D01*
X23434627Y-4404500D01*
X24055372Y-4404499D01*
X24114983Y-4398091D01*
X24249831Y-4347796D01*
X24365046Y-4261546D01*
X24451296Y-4146331D01*
X24476356Y-4079142D01*
X24492758Y-4035167D01*
X24534629Y-3979233D01*
X24600093Y-3954816D01*
X24608940Y-3954500D01*
X25597856Y-3954500D01*
X25664895Y-3974185D01*
X25692364Y-3998224D01*
X25744181Y-4059228D01*
X25757663Y-4075100D01*
X25904936Y-4187054D01*
X26072833Y-4264732D01*
X26072834Y-4264732D01*
X26072836Y-4264733D01*
X26127648Y-4276797D01*
X26253503Y-4304500D01*
X26253506Y-4304500D01*
X27192107Y-4304500D01*
X27192113Y-4304500D01*
X27329910Y-4289514D01*
X27505221Y-4230444D01*
X27663736Y-4135070D01*
X27798041Y-4007849D01*
X27901858Y-3854730D01*
X27905068Y-3846675D01*
X27950698Y-3732150D01*
X27970331Y-3682875D01*
X28000260Y-3500317D01*
X27990245Y-3315593D01*
X27963453Y-3219096D01*
X27940755Y-3137343D01*
X27940752Y-3137337D01*
X27854101Y-2973897D01*
X27734337Y-2832900D01*
X27655449Y-2772931D01*
X27587064Y-2720946D01*
X27419167Y-2643268D01*
X27419163Y-2643266D01*
X27238497Y-2603500D01*
X26299887Y-2603500D01*
X26299883Y-2603500D01*
X26162088Y-2618486D01*
X25986776Y-2677557D01*
X25986774Y-2677558D01*
X25828262Y-2772931D01*
X25828261Y-2772932D01*
X25693963Y-2900146D01*
X25689609Y-2905273D01*
X25688410Y-2904254D01*
X25640767Y-2943528D01*
X25592047Y-2953500D01*
X24608940Y-2953500D01*
X24541901Y-2933815D01*
X24496146Y-2881011D01*
X24492758Y-2872833D01*
X24451297Y-2761671D01*
X24451293Y-2761664D01*
X24365047Y-2646455D01*
X24365044Y-2646452D01*
X24249835Y-2560206D01*
X24249828Y-2560202D01*
X24114986Y-2509910D01*
X24114985Y-2509909D01*
X24114983Y-2509909D01*
X24055373Y-2503500D01*
X24055363Y-2503500D01*
X23434629Y-2503500D01*
X23434623Y-2503501D01*
X23375016Y-2509908D01*
X23240171Y-2560202D01*
X23240164Y-2560206D01*
X23124955Y-2646452D01*
X23124952Y-2646455D01*
X23038706Y-2761664D01*
X23038702Y-2761671D01*
X22988408Y-2896517D01*
X22982316Y-2953184D01*
X22982001Y-2956123D01*
X22982000Y-2956135D01*
X22982000Y-3951870D01*
X22683000Y-3951870D01*
X22682999Y-2956128D01*
X22676982Y-2900151D01*
X22676591Y-2896516D01*
X22626297Y-2761671D01*
X22626293Y-2761664D01*
X22540047Y-2646455D01*
X22540044Y-2646452D01*
X22424835Y-2560206D01*
X22424828Y-2560202D01*
X22289986Y-2509910D01*
X22289985Y-2509909D01*
X22289983Y-2509909D01*
X22230373Y-2503500D01*
X22230363Y-2503500D01*
X21609629Y-2503500D01*
X21609623Y-2503501D01*
X21550016Y-2509908D01*
X21415171Y-2560202D01*
X21415164Y-2560206D01*
X21299955Y-2646452D01*
X21299952Y-2646455D01*
X21213706Y-2761664D01*
X21213702Y-2761671D01*
X21172242Y-2872833D01*
X21130371Y-2928767D01*
X21064907Y-2953184D01*
X21056060Y-2953500D01*
X21039783Y-2953500D01*
X20972744Y-2933815D01*
X20926989Y-2881011D01*
X20923610Y-2872857D01*
X20914628Y-2848774D01*
X20832687Y-2739313D01*
X20766911Y-2690074D01*
X20723228Y-2657373D01*
X20723226Y-2657372D01*
X20595114Y-2609588D01*
X20595112Y-2609587D01*
X20595110Y-2609587D01*
X20538493Y-2603500D01*
X19997518Y-2603500D01*
X19997509Y-2603501D01*
X19940885Y-2609587D01*
X19812773Y-2657372D01*
X19703313Y-2739313D01*
X19621373Y-2848771D01*
X19602211Y-2900146D01*
X19581331Y-2956128D01*
X19573587Y-2976889D01*
X19567500Y-3033498D01*
X19567500Y-3874481D01*
X17668500Y-3874481D01*
X17668499Y-3033516D01*
X17662412Y-2976886D01*
X17653689Y-2953500D01*
X17623602Y-2872834D01*
X17614628Y-2848774D01*
X17532687Y-2739313D01*
X17466911Y-2690074D01*
X17423228Y-2657373D01*
X17423226Y-2657372D01*
X17295114Y-2609588D01*
X17295112Y-2609587D01*
X17295110Y-2609587D01*
X17238493Y-2603500D01*
X16697518Y-2603500D01*
X16697509Y-2603501D01*
X16640885Y-2609587D01*
X16512773Y-2657372D01*
X16403313Y-2739313D01*
X16321373Y-2848771D01*
X16321371Y-2848774D01*
X16321372Y-2848774D01*
X16312397Y-2872836D01*
X16270527Y-2928767D01*
X16205063Y-2953184D01*
X16196217Y-2953500D01*
X12654144Y-2953500D01*
X12587105Y-2933815D01*
X12559636Y-2909776D01*
X12494337Y-2832900D01*
X12415449Y-2772931D01*
X12347064Y-2720946D01*
X12179167Y-2643268D01*
X12179163Y-2643266D01*
X11998497Y-2603500D01*
X11059887Y-2603500D01*
X11059883Y-2603500D01*
X10922088Y-2618486D01*
X10746776Y-2677557D01*
X10746774Y-2677558D01*
X10588262Y-2772931D01*
X10588261Y-2772932D01*
X10453959Y-2900149D01*
X10350138Y-3053276D01*
X10281669Y-3225122D01*
X10251740Y-3407685D01*
X500Y-3407685D01*
X500Y-124500D01*
X20185Y-57461D01*
X72989Y-11706D01*
X124500Y-500D01*
X99875500Y-500D01*
X99942539Y-20185D01*
G37*
%TD.AperFunction*%
%TD*%
M02*
