M48
; DRILL file {KiCad 7.0.7} date 2023 October 08, Sunday 08:59:39
; FORMAT={-:-/ absolute / metric / decimal}
; #@! TF.CreationDate,2023-10-08T08:59:39-04:00
; #@! TF.GenerationSoftware,Kicad,Pcbnew,7.0.7
; #@! TF.FileFunction,MixedPlating,1,2
FMAT,2
METRIC
; #@! TA.AperFunction,Plated,PTH,ViaDrill
T1C0.400
; #@! TA.AperFunction,Plated,PTH,ComponentDrill
T2C0.762
; #@! TA.AperFunction,Plated,PTH,ComponentDrill
T3C0.800
; #@! TA.AperFunction,Plated,PTH,ComponentDrill
T4C1.000
; #@! TA.AperFunction,Plated,PTH,ComponentDrill
T5C1.500
; #@! TA.AperFunction,Plated,PTH,ComponentDrill
T6C2.000
; #@! TA.AperFunction,Plated,PTH,ComponentDrill
T7C3.200
%
G90
G05
T1
X2.362Y-12.877
X2.464Y-37.744
X16.865Y-18.567
X23.368Y-31.242
X31.851Y-43.535
X32.029Y-31.191
X32.613Y-52.959
X36.195Y-15.9
X38.252Y-25.171
X39.141Y-36.474
X39.624Y-22.225
X39.675Y-9.448
X39.725Y-1.879
X42.76Y-37.769
X42.76Y-48.387
X46.533Y-37.566
X47.828Y-15.798
X48.92Y-53.111
X48.946Y-40.411
X48.946Y-43.688
X54.838Y-28.244
X57.861Y-15.748
X60.096Y-26.212
X60.096Y-37.617
X63.068Y-53.035
X66.421Y-1.879
X66.446Y-9.448
X69.697Y-15.621
X71.933Y-26.111
X72.009Y-39.598
X78.46Y-53.086
X86.817Y-1.32
T2
X32.57Y-2.19
X32.57Y-4.73
X32.57Y-7.27
X32.57Y-9.81
X42.76Y-34.38
X45.3Y-34.38
X47.84Y-34.38
X50.38Y-34.38
X52.92Y-34.38
X55.46Y-34.38
X58.0Y-34.38
T3
X11.506Y-3.454
X11.506Y-5.994
X11.506Y-8.534
X11.506Y-11.074
X11.506Y-13.614
X11.506Y-16.154
X11.506Y-18.694
X11.506Y-21.234
X11.506Y-23.774
X11.506Y-26.314
X11.506Y-28.854
X11.506Y-31.394
X11.506Y-33.934
X11.506Y-36.474
X11.506Y-39.014
X11.506Y-41.554
X11.506Y-44.094
X11.506Y-46.634
X11.506Y-49.174
X11.506Y-51.714
X17.0Y-13.0
X22.0Y-13.0
X26.746Y-3.454
X26.746Y-5.994
X26.746Y-8.534
X26.746Y-11.074
X26.746Y-13.614
X26.746Y-16.154
X26.746Y-18.694
X26.746Y-21.234
X26.746Y-23.774
X26.746Y-26.314
X26.746Y-28.854
X26.746Y-31.394
X26.746Y-33.934
X26.746Y-36.474
X26.746Y-39.014
X26.746Y-41.554
X26.746Y-44.094
X26.746Y-46.634
X26.746Y-49.174
X26.746Y-51.714
T4
X83.75Y-13.5
X83.75Y-16.0
X83.75Y-18.5
X98.25Y-13.5
X98.25Y-18.5
T6
X37.045Y-33.745
X63.715Y-33.745
T7
X4.0Y-4.0
X4.0Y-51.0
X50.0Y-27.0
X96.0Y-4.0
X96.0Y-51.0
T5
X90.6Y-10.4G85X91.9Y-10.4
G05
X90.6Y-21.6G85X91.9Y-21.6
G05
T0
M30
