%TF.GenerationSoftware,KiCad,Pcbnew,7.0.7*%
%TF.CreationDate,2023-09-13T19:57:05-04:00*%
%TF.ProjectId,AD831HotBoard,41443833-3148-46f7-9442-6f6172642e6b,0.1.0*%
%TF.SameCoordinates,Original*%
%TF.FileFunction,Drillmap*%
%TF.FilePolarity,Positive*%
%FSLAX45Y45*%
G04 Gerber Fmt 4.5, Leading zero omitted, Abs format (unit mm)*
G04 Created by KiCad (PCBNEW 7.0.7) date 2023-09-13 19:57:05*
%MOMM*%
%LPD*%
G01*
G04 APERTURE LIST*
%ADD10C,0.100000*%
%ADD11C,0.200000*%
%ADD12C,0.320000*%
G04 APERTURE END LIST*
D10*
X20000000Y-4000000D02*
X20000000Y-9500000D01*
X20000000Y-9500000D02*
X10000000Y-9500000D01*
X10000000Y-9500000D02*
X10000000Y-4000000D01*
X10000000Y-4000000D02*
X20000000Y-4000000D01*
D11*
D12*
X10240000Y-4240000D02*
X10560000Y-4560000D01*
X10560000Y-4240000D02*
X10240000Y-4560000D01*
X10240000Y-8940000D02*
X10560000Y-9260000D01*
X10560000Y-8940000D02*
X10240000Y-9260000D01*
X14840000Y-6540000D02*
X15160000Y-6860000D01*
X15160000Y-6540000D02*
X14840000Y-6860000D01*
X19440000Y-4240000D02*
X19760000Y-4560000D01*
X19760000Y-4240000D02*
X19440000Y-4560000D01*
X19440000Y-8940000D02*
X19760000Y-9260000D01*
X19760000Y-8940000D02*
X19440000Y-9260000D01*
D11*
X10255777Y-9816484D02*
X10255777Y-9616484D01*
X10255777Y-9616484D02*
X10303396Y-9616484D01*
X10303396Y-9616484D02*
X10331967Y-9626008D01*
X10331967Y-9626008D02*
X10351015Y-9645055D01*
X10351015Y-9645055D02*
X10360539Y-9664103D01*
X10360539Y-9664103D02*
X10370063Y-9702198D01*
X10370063Y-9702198D02*
X10370063Y-9730770D01*
X10370063Y-9730770D02*
X10360539Y-9768865D01*
X10360539Y-9768865D02*
X10351015Y-9787912D01*
X10351015Y-9787912D02*
X10331967Y-9806960D01*
X10331967Y-9806960D02*
X10303396Y-9816484D01*
X10303396Y-9816484D02*
X10255777Y-9816484D01*
X10455777Y-9816484D02*
X10455777Y-9683150D01*
X10455777Y-9721246D02*
X10465301Y-9702198D01*
X10465301Y-9702198D02*
X10474824Y-9692674D01*
X10474824Y-9692674D02*
X10493872Y-9683150D01*
X10493872Y-9683150D02*
X10512920Y-9683150D01*
X10579586Y-9816484D02*
X10579586Y-9683150D01*
X10579586Y-9616484D02*
X10570063Y-9626008D01*
X10570063Y-9626008D02*
X10579586Y-9635531D01*
X10579586Y-9635531D02*
X10589110Y-9626008D01*
X10589110Y-9626008D02*
X10579586Y-9616484D01*
X10579586Y-9616484D02*
X10579586Y-9635531D01*
X10703396Y-9816484D02*
X10684348Y-9806960D01*
X10684348Y-9806960D02*
X10674824Y-9787912D01*
X10674824Y-9787912D02*
X10674824Y-9616484D01*
X10808158Y-9816484D02*
X10789110Y-9806960D01*
X10789110Y-9806960D02*
X10779586Y-9787912D01*
X10779586Y-9787912D02*
X10779586Y-9616484D01*
X11036729Y-9816484D02*
X11036729Y-9616484D01*
X11036729Y-9616484D02*
X11103396Y-9759341D01*
X11103396Y-9759341D02*
X11170063Y-9616484D01*
X11170063Y-9616484D02*
X11170063Y-9816484D01*
X11351015Y-9816484D02*
X11351015Y-9711722D01*
X11351015Y-9711722D02*
X11341491Y-9692674D01*
X11341491Y-9692674D02*
X11322443Y-9683150D01*
X11322443Y-9683150D02*
X11284348Y-9683150D01*
X11284348Y-9683150D02*
X11265301Y-9692674D01*
X11351015Y-9806960D02*
X11331967Y-9816484D01*
X11331967Y-9816484D02*
X11284348Y-9816484D01*
X11284348Y-9816484D02*
X11265301Y-9806960D01*
X11265301Y-9806960D02*
X11255777Y-9787912D01*
X11255777Y-9787912D02*
X11255777Y-9768865D01*
X11255777Y-9768865D02*
X11265301Y-9749817D01*
X11265301Y-9749817D02*
X11284348Y-9740293D01*
X11284348Y-9740293D02*
X11331967Y-9740293D01*
X11331967Y-9740293D02*
X11351015Y-9730770D01*
X11446253Y-9683150D02*
X11446253Y-9883150D01*
X11446253Y-9692674D02*
X11465301Y-9683150D01*
X11465301Y-9683150D02*
X11503396Y-9683150D01*
X11503396Y-9683150D02*
X11522443Y-9692674D01*
X11522443Y-9692674D02*
X11531967Y-9702198D01*
X11531967Y-9702198D02*
X11541491Y-9721246D01*
X11541491Y-9721246D02*
X11541491Y-9778389D01*
X11541491Y-9778389D02*
X11531967Y-9797436D01*
X11531967Y-9797436D02*
X11522443Y-9806960D01*
X11522443Y-9806960D02*
X11503396Y-9816484D01*
X11503396Y-9816484D02*
X11465301Y-9816484D01*
X11465301Y-9816484D02*
X11446253Y-9806960D01*
X11627205Y-9797436D02*
X11636729Y-9806960D01*
X11636729Y-9806960D02*
X11627205Y-9816484D01*
X11627205Y-9816484D02*
X11617682Y-9806960D01*
X11617682Y-9806960D02*
X11627205Y-9797436D01*
X11627205Y-9797436D02*
X11627205Y-9816484D01*
X11627205Y-9692674D02*
X11636729Y-9702198D01*
X11636729Y-9702198D02*
X11627205Y-9711722D01*
X11627205Y-9711722D02*
X11617682Y-9702198D01*
X11617682Y-9702198D02*
X11627205Y-9692674D01*
X11627205Y-9692674D02*
X11627205Y-9711722D01*
X9795000Y-10045000D02*
X9995000Y-10245000D01*
X9995000Y-10045000D02*
X9795000Y-10245000D01*
X10236729Y-10036484D02*
X10360539Y-10036484D01*
X10360539Y-10036484D02*
X10293872Y-10112674D01*
X10293872Y-10112674D02*
X10322444Y-10112674D01*
X10322444Y-10112674D02*
X10341491Y-10122198D01*
X10341491Y-10122198D02*
X10351015Y-10131722D01*
X10351015Y-10131722D02*
X10360539Y-10150770D01*
X10360539Y-10150770D02*
X10360539Y-10198389D01*
X10360539Y-10198389D02*
X10351015Y-10217436D01*
X10351015Y-10217436D02*
X10341491Y-10226960D01*
X10341491Y-10226960D02*
X10322444Y-10236484D01*
X10322444Y-10236484D02*
X10265301Y-10236484D01*
X10265301Y-10236484D02*
X10246253Y-10226960D01*
X10246253Y-10226960D02*
X10236729Y-10217436D01*
X10446253Y-10217436D02*
X10455777Y-10226960D01*
X10455777Y-10226960D02*
X10446253Y-10236484D01*
X10446253Y-10236484D02*
X10436729Y-10226960D01*
X10436729Y-10226960D02*
X10446253Y-10217436D01*
X10446253Y-10217436D02*
X10446253Y-10236484D01*
X10531967Y-10055531D02*
X10541491Y-10046008D01*
X10541491Y-10046008D02*
X10560539Y-10036484D01*
X10560539Y-10036484D02*
X10608158Y-10036484D01*
X10608158Y-10036484D02*
X10627205Y-10046008D01*
X10627205Y-10046008D02*
X10636729Y-10055531D01*
X10636729Y-10055531D02*
X10646253Y-10074579D01*
X10646253Y-10074579D02*
X10646253Y-10093627D01*
X10646253Y-10093627D02*
X10636729Y-10122198D01*
X10636729Y-10122198D02*
X10522444Y-10236484D01*
X10522444Y-10236484D02*
X10646253Y-10236484D01*
X10770063Y-10036484D02*
X10789110Y-10036484D01*
X10789110Y-10036484D02*
X10808158Y-10046008D01*
X10808158Y-10046008D02*
X10817682Y-10055531D01*
X10817682Y-10055531D02*
X10827205Y-10074579D01*
X10827205Y-10074579D02*
X10836729Y-10112674D01*
X10836729Y-10112674D02*
X10836729Y-10160293D01*
X10836729Y-10160293D02*
X10827205Y-10198389D01*
X10827205Y-10198389D02*
X10817682Y-10217436D01*
X10817682Y-10217436D02*
X10808158Y-10226960D01*
X10808158Y-10226960D02*
X10789110Y-10236484D01*
X10789110Y-10236484D02*
X10770063Y-10236484D01*
X10770063Y-10236484D02*
X10751015Y-10226960D01*
X10751015Y-10226960D02*
X10741491Y-10217436D01*
X10741491Y-10217436D02*
X10731967Y-10198389D01*
X10731967Y-10198389D02*
X10722444Y-10160293D01*
X10722444Y-10160293D02*
X10722444Y-10112674D01*
X10722444Y-10112674D02*
X10731967Y-10074579D01*
X10731967Y-10074579D02*
X10741491Y-10055531D01*
X10741491Y-10055531D02*
X10751015Y-10046008D01*
X10751015Y-10046008D02*
X10770063Y-10036484D01*
X10960539Y-10036484D02*
X10979586Y-10036484D01*
X10979586Y-10036484D02*
X10998634Y-10046008D01*
X10998634Y-10046008D02*
X11008158Y-10055531D01*
X11008158Y-10055531D02*
X11017682Y-10074579D01*
X11017682Y-10074579D02*
X11027205Y-10112674D01*
X11027205Y-10112674D02*
X11027205Y-10160293D01*
X11027205Y-10160293D02*
X11017682Y-10198389D01*
X11017682Y-10198389D02*
X11008158Y-10217436D01*
X11008158Y-10217436D02*
X10998634Y-10226960D01*
X10998634Y-10226960D02*
X10979586Y-10236484D01*
X10979586Y-10236484D02*
X10960539Y-10236484D01*
X10960539Y-10236484D02*
X10941491Y-10226960D01*
X10941491Y-10226960D02*
X10931967Y-10217436D01*
X10931967Y-10217436D02*
X10922444Y-10198389D01*
X10922444Y-10198389D02*
X10912920Y-10160293D01*
X10912920Y-10160293D02*
X10912920Y-10112674D01*
X10912920Y-10112674D02*
X10922444Y-10074579D01*
X10922444Y-10074579D02*
X10931967Y-10055531D01*
X10931967Y-10055531D02*
X10941491Y-10046008D01*
X10941491Y-10046008D02*
X10960539Y-10036484D01*
X11112920Y-10236484D02*
X11112920Y-10103150D01*
X11112920Y-10122198D02*
X11122444Y-10112674D01*
X11122444Y-10112674D02*
X11141491Y-10103150D01*
X11141491Y-10103150D02*
X11170063Y-10103150D01*
X11170063Y-10103150D02*
X11189110Y-10112674D01*
X11189110Y-10112674D02*
X11198634Y-10131722D01*
X11198634Y-10131722D02*
X11198634Y-10236484D01*
X11198634Y-10131722D02*
X11208158Y-10112674D01*
X11208158Y-10112674D02*
X11227205Y-10103150D01*
X11227205Y-10103150D02*
X11255777Y-10103150D01*
X11255777Y-10103150D02*
X11274824Y-10112674D01*
X11274824Y-10112674D02*
X11284348Y-10131722D01*
X11284348Y-10131722D02*
X11284348Y-10236484D01*
X11379586Y-10236484D02*
X11379586Y-10103150D01*
X11379586Y-10122198D02*
X11389110Y-10112674D01*
X11389110Y-10112674D02*
X11408158Y-10103150D01*
X11408158Y-10103150D02*
X11436729Y-10103150D01*
X11436729Y-10103150D02*
X11455777Y-10112674D01*
X11455777Y-10112674D02*
X11465301Y-10131722D01*
X11465301Y-10131722D02*
X11465301Y-10236484D01*
X11465301Y-10131722D02*
X11474824Y-10112674D01*
X11474824Y-10112674D02*
X11493872Y-10103150D01*
X11493872Y-10103150D02*
X11522443Y-10103150D01*
X11522443Y-10103150D02*
X11541491Y-10112674D01*
X11541491Y-10112674D02*
X11551015Y-10131722D01*
X11551015Y-10131722D02*
X11551015Y-10236484D01*
X11941491Y-10026960D02*
X11770063Y-10284103D01*
X12198634Y-10036484D02*
X12217682Y-10036484D01*
X12217682Y-10036484D02*
X12236729Y-10046008D01*
X12236729Y-10046008D02*
X12246253Y-10055531D01*
X12246253Y-10055531D02*
X12255777Y-10074579D01*
X12255777Y-10074579D02*
X12265301Y-10112674D01*
X12265301Y-10112674D02*
X12265301Y-10160293D01*
X12265301Y-10160293D02*
X12255777Y-10198389D01*
X12255777Y-10198389D02*
X12246253Y-10217436D01*
X12246253Y-10217436D02*
X12236729Y-10226960D01*
X12236729Y-10226960D02*
X12217682Y-10236484D01*
X12217682Y-10236484D02*
X12198634Y-10236484D01*
X12198634Y-10236484D02*
X12179586Y-10226960D01*
X12179586Y-10226960D02*
X12170063Y-10217436D01*
X12170063Y-10217436D02*
X12160539Y-10198389D01*
X12160539Y-10198389D02*
X12151015Y-10160293D01*
X12151015Y-10160293D02*
X12151015Y-10112674D01*
X12151015Y-10112674D02*
X12160539Y-10074579D01*
X12160539Y-10074579D02*
X12170063Y-10055531D01*
X12170063Y-10055531D02*
X12179586Y-10046008D01*
X12179586Y-10046008D02*
X12198634Y-10036484D01*
X12351015Y-10217436D02*
X12360539Y-10226960D01*
X12360539Y-10226960D02*
X12351015Y-10236484D01*
X12351015Y-10236484D02*
X12341491Y-10226960D01*
X12341491Y-10226960D02*
X12351015Y-10217436D01*
X12351015Y-10217436D02*
X12351015Y-10236484D01*
X12551015Y-10236484D02*
X12436729Y-10236484D01*
X12493872Y-10236484D02*
X12493872Y-10036484D01*
X12493872Y-10036484D02*
X12474825Y-10065055D01*
X12474825Y-10065055D02*
X12455777Y-10084103D01*
X12455777Y-10084103D02*
X12436729Y-10093627D01*
X12627206Y-10055531D02*
X12636729Y-10046008D01*
X12636729Y-10046008D02*
X12655777Y-10036484D01*
X12655777Y-10036484D02*
X12703396Y-10036484D01*
X12703396Y-10036484D02*
X12722444Y-10046008D01*
X12722444Y-10046008D02*
X12731967Y-10055531D01*
X12731967Y-10055531D02*
X12741491Y-10074579D01*
X12741491Y-10074579D02*
X12741491Y-10093627D01*
X12741491Y-10093627D02*
X12731967Y-10122198D01*
X12731967Y-10122198D02*
X12617682Y-10236484D01*
X12617682Y-10236484D02*
X12741491Y-10236484D01*
X12912920Y-10036484D02*
X12874825Y-10036484D01*
X12874825Y-10036484D02*
X12855777Y-10046008D01*
X12855777Y-10046008D02*
X12846253Y-10055531D01*
X12846253Y-10055531D02*
X12827206Y-10084103D01*
X12827206Y-10084103D02*
X12817682Y-10122198D01*
X12817682Y-10122198D02*
X12817682Y-10198389D01*
X12817682Y-10198389D02*
X12827206Y-10217436D01*
X12827206Y-10217436D02*
X12836729Y-10226960D01*
X12836729Y-10226960D02*
X12855777Y-10236484D01*
X12855777Y-10236484D02*
X12893872Y-10236484D01*
X12893872Y-10236484D02*
X12912920Y-10226960D01*
X12912920Y-10226960D02*
X12922444Y-10217436D01*
X12922444Y-10217436D02*
X12931967Y-10198389D01*
X12931967Y-10198389D02*
X12931967Y-10150770D01*
X12931967Y-10150770D02*
X12922444Y-10131722D01*
X12922444Y-10131722D02*
X12912920Y-10122198D01*
X12912920Y-10122198D02*
X12893872Y-10112674D01*
X12893872Y-10112674D02*
X12855777Y-10112674D01*
X12855777Y-10112674D02*
X12836729Y-10122198D01*
X12836729Y-10122198D02*
X12827206Y-10131722D01*
X12827206Y-10131722D02*
X12817682Y-10150770D01*
X13055777Y-10036484D02*
X13074825Y-10036484D01*
X13074825Y-10036484D02*
X13093872Y-10046008D01*
X13093872Y-10046008D02*
X13103396Y-10055531D01*
X13103396Y-10055531D02*
X13112920Y-10074579D01*
X13112920Y-10074579D02*
X13122444Y-10112674D01*
X13122444Y-10112674D02*
X13122444Y-10160293D01*
X13122444Y-10160293D02*
X13112920Y-10198389D01*
X13112920Y-10198389D02*
X13103396Y-10217436D01*
X13103396Y-10217436D02*
X13093872Y-10226960D01*
X13093872Y-10226960D02*
X13074825Y-10236484D01*
X13074825Y-10236484D02*
X13055777Y-10236484D01*
X13055777Y-10236484D02*
X13036729Y-10226960D01*
X13036729Y-10226960D02*
X13027206Y-10217436D01*
X13027206Y-10217436D02*
X13017682Y-10198389D01*
X13017682Y-10198389D02*
X13008158Y-10160293D01*
X13008158Y-10160293D02*
X13008158Y-10112674D01*
X13008158Y-10112674D02*
X13017682Y-10074579D01*
X13017682Y-10074579D02*
X13027206Y-10055531D01*
X13027206Y-10055531D02*
X13036729Y-10046008D01*
X13036729Y-10046008D02*
X13055777Y-10036484D01*
X13198634Y-10036484D02*
X13198634Y-10074579D01*
X13274825Y-10036484D02*
X13274825Y-10074579D01*
X13570063Y-10312674D02*
X13560539Y-10303150D01*
X13560539Y-10303150D02*
X13541491Y-10274579D01*
X13541491Y-10274579D02*
X13531968Y-10255531D01*
X13531968Y-10255531D02*
X13522444Y-10226960D01*
X13522444Y-10226960D02*
X13512920Y-10179341D01*
X13512920Y-10179341D02*
X13512920Y-10141246D01*
X13512920Y-10141246D02*
X13522444Y-10093627D01*
X13522444Y-10093627D02*
X13531968Y-10065055D01*
X13531968Y-10065055D02*
X13541491Y-10046008D01*
X13541491Y-10046008D02*
X13560539Y-10017436D01*
X13560539Y-10017436D02*
X13570063Y-10007912D01*
X13741491Y-10036484D02*
X13646253Y-10036484D01*
X13646253Y-10036484D02*
X13636729Y-10131722D01*
X13636729Y-10131722D02*
X13646253Y-10122198D01*
X13646253Y-10122198D02*
X13665301Y-10112674D01*
X13665301Y-10112674D02*
X13712920Y-10112674D01*
X13712920Y-10112674D02*
X13731968Y-10122198D01*
X13731968Y-10122198D02*
X13741491Y-10131722D01*
X13741491Y-10131722D02*
X13751015Y-10150770D01*
X13751015Y-10150770D02*
X13751015Y-10198389D01*
X13751015Y-10198389D02*
X13741491Y-10217436D01*
X13741491Y-10217436D02*
X13731968Y-10226960D01*
X13731968Y-10226960D02*
X13712920Y-10236484D01*
X13712920Y-10236484D02*
X13665301Y-10236484D01*
X13665301Y-10236484D02*
X13646253Y-10226960D01*
X13646253Y-10226960D02*
X13636729Y-10217436D01*
X13989110Y-10236484D02*
X13989110Y-10036484D01*
X14074825Y-10236484D02*
X14074825Y-10131722D01*
X14074825Y-10131722D02*
X14065301Y-10112674D01*
X14065301Y-10112674D02*
X14046253Y-10103150D01*
X14046253Y-10103150D02*
X14017682Y-10103150D01*
X14017682Y-10103150D02*
X13998634Y-10112674D01*
X13998634Y-10112674D02*
X13989110Y-10122198D01*
X14198634Y-10236484D02*
X14179587Y-10226960D01*
X14179587Y-10226960D02*
X14170063Y-10217436D01*
X14170063Y-10217436D02*
X14160539Y-10198389D01*
X14160539Y-10198389D02*
X14160539Y-10141246D01*
X14160539Y-10141246D02*
X14170063Y-10122198D01*
X14170063Y-10122198D02*
X14179587Y-10112674D01*
X14179587Y-10112674D02*
X14198634Y-10103150D01*
X14198634Y-10103150D02*
X14227206Y-10103150D01*
X14227206Y-10103150D02*
X14246253Y-10112674D01*
X14246253Y-10112674D02*
X14255777Y-10122198D01*
X14255777Y-10122198D02*
X14265301Y-10141246D01*
X14265301Y-10141246D02*
X14265301Y-10198389D01*
X14265301Y-10198389D02*
X14255777Y-10217436D01*
X14255777Y-10217436D02*
X14246253Y-10226960D01*
X14246253Y-10226960D02*
X14227206Y-10236484D01*
X14227206Y-10236484D02*
X14198634Y-10236484D01*
X14379587Y-10236484D02*
X14360539Y-10226960D01*
X14360539Y-10226960D02*
X14351015Y-10207912D01*
X14351015Y-10207912D02*
X14351015Y-10036484D01*
X14531968Y-10226960D02*
X14512920Y-10236484D01*
X14512920Y-10236484D02*
X14474825Y-10236484D01*
X14474825Y-10236484D02*
X14455777Y-10226960D01*
X14455777Y-10226960D02*
X14446253Y-10207912D01*
X14446253Y-10207912D02*
X14446253Y-10131722D01*
X14446253Y-10131722D02*
X14455777Y-10112674D01*
X14455777Y-10112674D02*
X14474825Y-10103150D01*
X14474825Y-10103150D02*
X14512920Y-10103150D01*
X14512920Y-10103150D02*
X14531968Y-10112674D01*
X14531968Y-10112674D02*
X14541491Y-10131722D01*
X14541491Y-10131722D02*
X14541491Y-10150770D01*
X14541491Y-10150770D02*
X14446253Y-10169817D01*
X14617682Y-10226960D02*
X14636730Y-10236484D01*
X14636730Y-10236484D02*
X14674825Y-10236484D01*
X14674825Y-10236484D02*
X14693872Y-10226960D01*
X14693872Y-10226960D02*
X14703396Y-10207912D01*
X14703396Y-10207912D02*
X14703396Y-10198389D01*
X14703396Y-10198389D02*
X14693872Y-10179341D01*
X14693872Y-10179341D02*
X14674825Y-10169817D01*
X14674825Y-10169817D02*
X14646253Y-10169817D01*
X14646253Y-10169817D02*
X14627206Y-10160293D01*
X14627206Y-10160293D02*
X14617682Y-10141246D01*
X14617682Y-10141246D02*
X14617682Y-10131722D01*
X14617682Y-10131722D02*
X14627206Y-10112674D01*
X14627206Y-10112674D02*
X14646253Y-10103150D01*
X14646253Y-10103150D02*
X14674825Y-10103150D01*
X14674825Y-10103150D02*
X14693872Y-10112674D01*
X14770063Y-10312674D02*
X14779587Y-10303150D01*
X14779587Y-10303150D02*
X14798634Y-10274579D01*
X14798634Y-10274579D02*
X14808158Y-10255531D01*
X14808158Y-10255531D02*
X14817682Y-10226960D01*
X14817682Y-10226960D02*
X14827206Y-10179341D01*
X14827206Y-10179341D02*
X14827206Y-10141246D01*
X14827206Y-10141246D02*
X14817682Y-10093627D01*
X14817682Y-10093627D02*
X14808158Y-10065055D01*
X14808158Y-10065055D02*
X14798634Y-10046008D01*
X14798634Y-10046008D02*
X14779587Y-10017436D01*
X14779587Y-10017436D02*
X14770063Y-10007912D01*
M02*
