%TF.GenerationSoftware,KiCad,Pcbnew,7.0.7*%
%TF.CreationDate,2023-09-13T19:56:45-04:00*%
%TF.ProjectId,AD831HotBoard,41443833-3148-46f7-9442-6f6172642e6b,0.1.0*%
%TF.SameCoordinates,Original*%
%TF.FileFunction,Paste,Top*%
%TF.FilePolarity,Positive*%
%FSLAX46Y46*%
G04 Gerber Fmt 4.6, Leading zero omitted, Abs format (unit mm)*
G04 Created by KiCad (PCBNEW 7.0.7) date 2023-09-13 19:56:45*
%MOMM*%
%LPD*%
G01*
G04 APERTURE LIST*
G04 Aperture macros list*
%AMRoundRect*
0 Rectangle with rounded corners*
0 $1 Rounding radius*
0 $2 $3 $4 $5 $6 $7 $8 $9 X,Y pos of 4 corners*
0 Add a 4 corners polygon primitive as box body*
4,1,4,$2,$3,$4,$5,$6,$7,$8,$9,$2,$3,0*
0 Add four circle primitives for the rounded corners*
1,1,$1+$1,$2,$3*
1,1,$1+$1,$4,$5*
1,1,$1+$1,$6,$7*
1,1,$1+$1,$8,$9*
0 Add four rect primitives between the rounded corners*
20,1,$1+$1,$2,$3,$4,$5,0*
20,1,$1+$1,$4,$5,$6,$7,0*
20,1,$1+$1,$6,$7,$8,$9,0*
20,1,$1+$1,$8,$9,$2,$3,0*%
G04 Aperture macros list end*
%ADD10RoundRect,0.250000X0.625000X-0.312500X0.625000X0.312500X-0.625000X0.312500X-0.625000X-0.312500X0*%
%ADD11R,1.270000X3.600000*%
%ADD12R,1.350000X4.200000*%
%ADD13RoundRect,0.250000X-0.475000X0.250000X-0.475000X-0.250000X0.475000X-0.250000X0.475000X0.250000X0*%
%ADD14RoundRect,0.250000X0.475000X-0.250000X0.475000X0.250000X-0.475000X0.250000X-0.475000X-0.250000X0*%
%ADD15RoundRect,0.250000X0.250000X0.475000X-0.250000X0.475000X-0.250000X-0.475000X0.250000X-0.475000X0*%
%ADD16RoundRect,0.250000X-0.312500X-0.625000X0.312500X-0.625000X0.312500X0.625000X-0.312500X0.625000X0*%
%ADD17RoundRect,0.250000X-0.450000X0.262500X-0.450000X-0.262500X0.450000X-0.262500X0.450000X0.262500X0*%
%ADD18R,3.600000X1.270000*%
%ADD19R,4.200000X1.350000*%
%ADD20RoundRect,0.250000X-0.262500X-0.450000X0.262500X-0.450000X0.262500X0.450000X-0.262500X0.450000X0*%
%ADD21RoundRect,0.250000X0.262500X0.450000X-0.262500X0.450000X-0.262500X-0.450000X0.262500X-0.450000X0*%
%ADD22R,0.700000X1.925000*%
%ADD23R,1.925000X0.700000*%
%ADD24RoundRect,0.250000X0.450000X-0.262500X0.450000X0.262500X-0.450000X0.262500X-0.450000X-0.262500X0*%
%ADD25RoundRect,0.150000X0.150000X-0.587500X0.150000X0.587500X-0.150000X0.587500X-0.150000X-0.587500X0*%
%ADD26RoundRect,0.250000X1.950000X1.000000X-1.950000X1.000000X-1.950000X-1.000000X1.950000X-1.000000X0*%
%ADD27RoundRect,0.099900X-1.250100X-1.250100X1.250100X-1.250100X1.250100X1.250100X-1.250100X1.250100X0*%
%ADD28RoundRect,0.250000X-0.250000X-0.475000X0.250000X-0.475000X0.250000X0.475000X-0.250000X0.475000X0*%
%ADD29RoundRect,0.225000X-0.225000X-0.375000X0.225000X-0.375000X0.225000X0.375000X-0.225000X0.375000X0*%
%ADD30RoundRect,0.250000X0.325000X0.650000X-0.325000X0.650000X-0.325000X-0.650000X0.325000X-0.650000X0*%
%ADD31RoundRect,0.250000X-0.250000X-1.500000X0.250000X-1.500000X0.250000X1.500000X-0.250000X1.500000X0*%
%ADD32RoundRect,0.250001X-0.499999X-1.449999X0.499999X-1.449999X0.499999X1.449999X-0.499999X1.449999X0*%
%ADD33RoundRect,0.250000X0.850000X0.350000X-0.850000X0.350000X-0.850000X-0.350000X0.850000X-0.350000X0*%
%ADD34RoundRect,0.250000X1.275000X1.125000X-1.275000X1.125000X-1.275000X-1.125000X1.275000X-1.125000X0*%
%ADD35RoundRect,0.250000X0.250000X1.500000X-0.250000X1.500000X-0.250000X-1.500000X0.250000X-1.500000X0*%
%ADD36RoundRect,0.250001X0.499999X1.449999X-0.499999X1.449999X-0.499999X-1.449999X0.499999X-1.449999X0*%
%ADD37RoundRect,0.100000X0.637500X0.100000X-0.637500X0.100000X-0.637500X-0.100000X0.637500X-0.100000X0*%
%ADD38RoundRect,0.250000X-0.325000X-1.100000X0.325000X-1.100000X0.325000X1.100000X-0.325000X1.100000X0*%
%ADD39RoundRect,0.250000X-0.650000X0.325000X-0.650000X-0.325000X0.650000X-0.325000X0.650000X0.325000X0*%
%ADD40RoundRect,0.225000X0.225000X0.375000X-0.225000X0.375000X-0.225000X-0.375000X0.225000X-0.375000X0*%
%ADD41RoundRect,0.250000X0.312500X0.625000X-0.312500X0.625000X-0.312500X-0.625000X0.312500X-0.625000X0*%
%ADD42RoundRect,0.099900X1.250100X1.250100X-1.250100X1.250100X-1.250100X-1.250100X1.250100X-1.250100X0*%
%ADD43RoundRect,0.250000X-0.350000X0.850000X-0.350000X-0.850000X0.350000X-0.850000X0.350000X0.850000X0*%
%ADD44RoundRect,0.250000X-1.125000X1.275000X-1.125000X-1.275000X1.125000X-1.275000X1.125000X1.275000X0*%
%ADD45RoundRect,0.218750X0.218750X0.256250X-0.218750X0.256250X-0.218750X-0.256250X0.218750X-0.256250X0*%
G04 APERTURE END LIST*
D10*
%TO.C,R9*%
X174371000Y-87253000D03*
X174371000Y-84328000D03*
%TD*%
%TO.C,R1*%
X116300000Y-77216000D03*
X116300000Y-74291000D03*
%TD*%
D11*
%TO.C,J2*%
X115000000Y-93000000D03*
D12*
X112175000Y-92800000D03*
X117825000Y-92800000D03*
%TD*%
D13*
%TO.C,C7*%
X114300000Y-68453000D03*
X114300000Y-70353000D03*
%TD*%
D14*
%TO.C,C24*%
X176530000Y-80894000D03*
X176530000Y-78994000D03*
%TD*%
D15*
%TO.C,C22*%
X167889000Y-74295000D03*
X165989000Y-74295000D03*
%TD*%
D16*
%TO.C,R24*%
X160589500Y-78994000D03*
X163514500Y-78994000D03*
%TD*%
D15*
%TO.C,C40*%
X178811000Y-42545000D03*
X176911000Y-42545000D03*
%TD*%
D11*
%TO.C,J4*%
X125000000Y-41964000D03*
D12*
X127825000Y-42164000D03*
X122175000Y-42164000D03*
%TD*%
D13*
%TO.C,C34*%
X168656000Y-56159400D03*
X168656000Y-58059400D03*
%TD*%
D17*
%TO.C,R11*%
X181737000Y-77169000D03*
X181737000Y-78994000D03*
%TD*%
D13*
%TO.C,C28*%
X176911000Y-63759000D03*
X176911000Y-65659000D03*
%TD*%
D18*
%TO.C,J9*%
X198000000Y-70000000D03*
D19*
X197800000Y-72825000D03*
X197800000Y-67175000D03*
%TD*%
D20*
%TO.C,R16*%
X179912000Y-63754000D03*
X181737000Y-63754000D03*
%TD*%
D14*
%TO.C,C4*%
X174371000Y-80894000D03*
X174371000Y-78994000D03*
%TD*%
D13*
%TO.C,C11*%
X116332000Y-50678000D03*
X116332000Y-52578000D03*
%TD*%
D21*
%TO.C,R20*%
X175029500Y-48895000D03*
X173204500Y-48895000D03*
%TD*%
D22*
%TO.C,U4*%
X174371000Y-68210500D03*
X173101000Y-68210500D03*
X171831000Y-68210500D03*
D23*
X170318500Y-69723000D03*
X170318500Y-70993000D03*
X170318500Y-72263000D03*
X170318500Y-73533000D03*
X170318500Y-74803000D03*
D22*
X171831000Y-76315500D03*
X173101000Y-76315500D03*
X174371000Y-76315500D03*
X175641000Y-76315500D03*
X176911000Y-76315500D03*
D23*
X178423500Y-74803000D03*
X178423500Y-73533000D03*
X178423500Y-72263000D03*
X178423500Y-70993000D03*
X178423500Y-69723000D03*
D22*
X176911000Y-68210500D03*
X175641000Y-68210500D03*
%TD*%
D24*
%TO.C,R22*%
X156718000Y-48895000D03*
X156718000Y-47070000D03*
%TD*%
D25*
%TO.C,Q1*%
X178816000Y-48895000D03*
X180716000Y-48895000D03*
X179766000Y-47020000D03*
%TD*%
D26*
%TO.C,C38*%
X144535000Y-75438000D03*
X136135000Y-75438000D03*
%TD*%
D14*
%TO.C,C6*%
X116332000Y-70353000D03*
X116332000Y-68453000D03*
%TD*%
D17*
%TO.C,R7*%
X121793000Y-52578000D03*
X121793000Y-54403000D03*
%TD*%
D14*
%TO.C,C12*%
X112141000Y-70353000D03*
X112141000Y-68453000D03*
%TD*%
D27*
%TO.C,L2*%
X165989000Y-58612000D03*
X158369000Y-58612000D03*
X158369000Y-64832000D03*
X165989000Y-64832000D03*
%TD*%
D28*
%TO.C,C31*%
X180660000Y-55499000D03*
X182560000Y-55499000D03*
%TD*%
D29*
%TO.C,D5*%
X172086000Y-44831000D03*
X175386000Y-44831000D03*
%TD*%
D13*
%TO.C,C29*%
X171831000Y-63759000D03*
X171831000Y-65659000D03*
%TD*%
D30*
%TO.C,C30*%
X192815000Y-69977000D03*
X189865000Y-69977000D03*
%TD*%
D31*
%TO.C,J6*%
X148987000Y-87066000D03*
X150987000Y-87066000D03*
D32*
X146637000Y-92816000D03*
X153337000Y-92816000D03*
%TD*%
D15*
%TO.C,C18*%
X167889000Y-72263000D03*
X165989000Y-72263000D03*
%TD*%
D33*
%TO.C,U3*%
X153044000Y-59811000D03*
D34*
X148419000Y-59056000D03*
X148419000Y-56006000D03*
X145069000Y-59056000D03*
X145069000Y-56006000D03*
D33*
X153044000Y-55251000D03*
%TD*%
D28*
%TO.C,C36*%
X153101000Y-62103000D03*
X155001000Y-62103000D03*
%TD*%
D14*
%TO.C,C25*%
X170191500Y-80894000D03*
X170191500Y-78994000D03*
%TD*%
D35*
%TO.C,J5*%
X166116000Y-48006000D03*
X164116000Y-48006000D03*
D36*
X168466000Y-42256000D03*
X161766000Y-42256000D03*
%TD*%
D17*
%TO.C,R15*%
X181737000Y-69168000D03*
X181737000Y-70993000D03*
%TD*%
D21*
%TO.C,R13*%
X185213000Y-63754000D03*
X183388000Y-63754000D03*
%TD*%
D20*
%TO.C,R10*%
X170514000Y-84328000D03*
X172339000Y-84328000D03*
%TD*%
D17*
%TO.C,R3*%
X123317000Y-66628000D03*
X123317000Y-68453000D03*
%TD*%
D11*
%TO.C,J8*%
X185000000Y-93000000D03*
D12*
X182175000Y-92800000D03*
X187825000Y-92800000D03*
%TD*%
D17*
%TO.C,R8*%
X128270000Y-59262000D03*
X128270000Y-61087000D03*
%TD*%
D37*
%TO.C,U5*%
X178757500Y-56829000D03*
X178757500Y-56179000D03*
X178757500Y-55529000D03*
X178757500Y-54879000D03*
X178757500Y-54229000D03*
X178757500Y-53579000D03*
X178757500Y-52929000D03*
X173032500Y-52929000D03*
X173032500Y-53579000D03*
X173032500Y-54229000D03*
X173032500Y-54879000D03*
X173032500Y-55529000D03*
X173032500Y-56179000D03*
X173032500Y-56829000D03*
%TD*%
D17*
%TO.C,R12*%
X183769000Y-70461500D03*
X183769000Y-72286500D03*
%TD*%
D38*
%TO.C,C20*%
X150671000Y-80899000D03*
X153621000Y-80899000D03*
%TD*%
D17*
%TO.C,R4*%
X125984000Y-59262000D03*
X125984000Y-61087000D03*
%TD*%
D13*
%TO.C,C15*%
X118872000Y-52610000D03*
X118872000Y-54510000D03*
%TD*%
D35*
%TO.C,J3*%
X150860000Y-47935000D03*
X148860000Y-47935000D03*
D36*
X153210000Y-42185000D03*
X146510000Y-42185000D03*
%TD*%
D39*
%TO.C,C17*%
X128270000Y-50771000D03*
X128270000Y-53721000D03*
%TD*%
D28*
%TO.C,C39*%
X175072000Y-51054000D03*
X176972000Y-51054000D03*
%TD*%
D15*
%TO.C,C32*%
X180721000Y-51054000D03*
X178821000Y-51054000D03*
%TD*%
D11*
%TO.C,J7*%
X185000000Y-41927500D03*
D12*
X187825000Y-42127500D03*
X182175000Y-42127500D03*
%TD*%
D28*
%TO.C,C14*%
X123825000Y-56007000D03*
X125725000Y-56007000D03*
%TD*%
D14*
%TO.C,C3*%
X165989000Y-56129000D03*
X165989000Y-54229000D03*
%TD*%
D13*
%TO.C,C5*%
X172339000Y-78994000D03*
X172339000Y-80894000D03*
%TD*%
D14*
%TO.C,C37*%
X155829000Y-55245000D03*
X155829000Y-53345000D03*
%TD*%
D29*
%TO.C,D2*%
X181738000Y-58420000D03*
X185038000Y-58420000D03*
%TD*%
D40*
%TO.C,D4*%
X180212000Y-44831000D03*
X176912000Y-44831000D03*
%TD*%
D21*
%TO.C,R23*%
X175283500Y-42545000D03*
X173458500Y-42545000D03*
%TD*%
D16*
%TO.C,R17*%
X161097500Y-55245000D03*
X164022500Y-55245000D03*
%TD*%
D15*
%TO.C,C9*%
X109245400Y-63246000D03*
X107345400Y-63246000D03*
%TD*%
D20*
%TO.C,R18*%
X168632500Y-59817000D03*
X170457500Y-59817000D03*
%TD*%
D15*
%TO.C,C19*%
X142555000Y-82550000D03*
X140655000Y-82550000D03*
%TD*%
D21*
%TO.C,R14*%
X188261000Y-72263000D03*
X186436000Y-72263000D03*
%TD*%
D28*
%TO.C,C10*%
X123317000Y-63627000D03*
X125217000Y-63627000D03*
%TD*%
%TO.C,C27*%
X181737000Y-67183000D03*
X183637000Y-67183000D03*
%TD*%
D13*
%TO.C,C21*%
X135000000Y-85050000D03*
X135000000Y-86950000D03*
%TD*%
D41*
%TO.C,R21*%
X135193500Y-62230000D03*
X132268500Y-62230000D03*
%TD*%
D42*
%TO.C,L1*%
X185039000Y-55496000D03*
X192659000Y-55496000D03*
X192659000Y-49276000D03*
X185039000Y-49276000D03*
%TD*%
D15*
%TO.C,C8*%
X109250000Y-61100000D03*
X107350000Y-61100000D03*
%TD*%
D17*
%TO.C,R6*%
X123825000Y-57992000D03*
X123825000Y-59817000D03*
%TD*%
D13*
%TO.C,C2*%
X170815000Y-47818000D03*
X170815000Y-49718000D03*
%TD*%
D21*
%TO.C,R5*%
X125650000Y-53848000D03*
X123825000Y-53848000D03*
%TD*%
D18*
%TO.C,J1*%
X102108000Y-60000000D03*
D19*
X102308000Y-57175000D03*
X102308000Y-62825000D03*
%TD*%
D14*
%TO.C,C23*%
X181737000Y-75438000D03*
X181737000Y-73538000D03*
%TD*%
D17*
%TO.C,R19*%
X176911000Y-47070000D03*
X176911000Y-48895000D03*
%TD*%
D20*
%TO.C,R2*%
X114507000Y-72263000D03*
X116332000Y-72263000D03*
%TD*%
D14*
%TO.C,C33*%
X170815000Y-53213000D03*
X170815000Y-51313000D03*
%TD*%
D43*
%TO.C,U2*%
X143000000Y-85000000D03*
D44*
X142245000Y-89625000D03*
X139195000Y-89625000D03*
X142245000Y-92975000D03*
X139195000Y-92975000D03*
D43*
X138440000Y-85000000D03*
%TD*%
D14*
%TO.C,C1*%
X170815000Y-57119600D03*
X170815000Y-55219600D03*
%TD*%
D13*
%TO.C,C26*%
X174371000Y-61854000D03*
X174371000Y-63754000D03*
%TD*%
%TO.C,C16*%
X113792000Y-52610000D03*
X113792000Y-54510000D03*
%TD*%
D45*
%TO.C,D1*%
X158293000Y-45339000D03*
X156718000Y-45339000D03*
%TD*%
D14*
%TO.C,C13*%
X118491000Y-70353000D03*
X118491000Y-68453000D03*
%TD*%
D22*
%TO.C,U1*%
X116332000Y-57034500D03*
X115062000Y-57034500D03*
X113792000Y-57034500D03*
D23*
X112279500Y-58547000D03*
X112279500Y-59817000D03*
X112279500Y-61087000D03*
X112279500Y-62357000D03*
X112279500Y-63627000D03*
D22*
X113792000Y-65139500D03*
X115062000Y-65139500D03*
X116332000Y-65139500D03*
X117602000Y-65139500D03*
X118872000Y-65139500D03*
D23*
X120384500Y-63627000D03*
X120384500Y-62357000D03*
X120384500Y-61087000D03*
X120384500Y-59817000D03*
X120384500Y-58547000D03*
D22*
X118872000Y-57034500D03*
X117602000Y-57034500D03*
%TD*%
D29*
%TO.C,D3*%
X186691000Y-58420000D03*
X189991000Y-58420000D03*
%TD*%
D14*
%TO.C,C35*%
X159131000Y-55245000D03*
X159131000Y-53345000D03*
%TD*%
M02*
