M48
; DRILL file {KiCad 7.0.7} date 2023 August 27, Sunday 14:56:38
; FORMAT={-:-/ absolute / metric / decimal}
; #@! TF.CreationDate,2023-08-27T14:56:38-04:00
; #@! TF.GenerationSoftware,Kicad,Pcbnew,7.0.7
; #@! TF.FileFunction,MixedPlating,1,2
FMAT,2
METRIC
; #@! TA.AperFunction,Plated,PTH,ViaDrill
T1C0.400
; #@! TA.AperFunction,Plated,PTH,ComponentDrill
T2C0.762
; #@! TA.AperFunction,Plated,PTH,ComponentDrill
T3C1.000
; #@! TA.AperFunction,Plated,PTH,ComponentDrill
T4C1.200
%
G90
G05
T1
X1.811Y-27.236
X2.0Y-2.0
X2.0Y-33.0
X3.97Y-13.52
X8.669Y-31.427
X9.177Y-4.63
X10.701Y-20.632
X10.701Y-25.077
X12.0Y-33.0
X13.114Y-3.36
X13.114Y-6.916
X15.654Y-29.395
X18.194Y-0.693
X23.02Y-26.601
X23.02Y-32.951
X23.528Y-20.632
X25.306Y-4.249
X27.465Y-2.852
X27.465Y-14.79
X29.141Y-32.976
X32.0Y-2.0
X33.51Y-20.708
X34.501Y-17.025
X38.0Y-2.0
X38.0Y-33.0
T2
X1.72Y-19.398
X1.72Y-23.898
X1.756Y-4.666
X1.756Y-9.166
X6.22Y-19.398
X6.22Y-21.648
X6.22Y-23.898
X6.256Y-4.666
X6.256Y-6.916
X6.256Y-9.166
T3
X6.0Y-33.0
X8.54Y-33.0
X15.654Y-33.0
X18.194Y-33.0
X31.275Y-33.0
X33.815Y-33.0
X38.006Y-20.0
X38.006Y-22.54
T4
X3.97Y-18.028
X3.97Y-25.268
X4.006Y-3.296
X4.006Y-10.536
T0
M30
