%TF.GenerationSoftware,KiCad,Pcbnew,7.0.7*%
%TF.CreationDate,2023-08-27T14:53:53-04:00*%
%TF.ProjectId,AD831_Mixer,41443833-315f-44d6-9978-65722e6b6963,rev?*%
%TF.SameCoordinates,Original*%
%TF.FileFunction,Copper,L1,Top*%
%TF.FilePolarity,Positive*%
%FSLAX46Y46*%
G04 Gerber Fmt 4.6, Leading zero omitted, Abs format (unit mm)*
G04 Created by KiCad (PCBNEW 7.0.7) date 2023-08-27 14:53:53*
%MOMM*%
%LPD*%
G01*
G04 APERTURE LIST*
G04 Aperture macros list*
%AMRoundRect*
0 Rectangle with rounded corners*
0 $1 Rounding radius*
0 $2 $3 $4 $5 $6 $7 $8 $9 X,Y pos of 4 corners*
0 Add a 4 corners polygon primitive as box body*
4,1,4,$2,$3,$4,$5,$6,$7,$8,$9,$2,$3,0*
0 Add four circle primitives for the rounded corners*
1,1,$1+$1,$2,$3*
1,1,$1+$1,$4,$5*
1,1,$1+$1,$6,$7*
1,1,$1+$1,$8,$9*
0 Add four rect primitives between the rounded corners*
20,1,$1+$1,$2,$3,$4,$5,0*
20,1,$1+$1,$4,$5,$6,$7,0*
20,1,$1+$1,$6,$7,$8,$9,0*
20,1,$1+$1,$8,$9,$2,$3,0*%
G04 Aperture macros list end*
%TA.AperFunction,SMDPad,CuDef*%
%ADD10RoundRect,0.250000X-0.475000X0.250000X-0.475000X-0.250000X0.475000X-0.250000X0.475000X0.250000X0*%
%TD*%
%TA.AperFunction,SMDPad,CuDef*%
%ADD11RoundRect,0.250000X-0.450000X0.262500X-0.450000X-0.262500X0.450000X-0.262500X0.450000X0.262500X0*%
%TD*%
%TA.AperFunction,SMDPad,CuDef*%
%ADD12RoundRect,0.250000X-0.250000X-0.475000X0.250000X-0.475000X0.250000X0.475000X-0.250000X0.475000X0*%
%TD*%
%TA.AperFunction,SMDPad,CuDef*%
%ADD13RoundRect,0.250000X-0.275000X-0.700000X0.275000X-0.700000X0.275000X0.700000X-0.275000X0.700000X0*%
%TD*%
%TA.AperFunction,SMDPad,CuDef*%
%ADD14RoundRect,0.250000X-0.350000X0.850000X-0.350000X-0.850000X0.350000X-0.850000X0.350000X0.850000X0*%
%TD*%
%TA.AperFunction,SMDPad,CuDef*%
%ADD15RoundRect,0.250000X-1.125000X1.275000X-1.125000X-1.275000X1.125000X-1.275000X1.125000X1.275000X0*%
%TD*%
%TA.AperFunction,SMDPad,CuDef*%
%ADD16RoundRect,0.249997X-2.650003X2.950003X-2.650003X-2.950003X2.650003X-2.950003X2.650003X2.950003X0*%
%TD*%
%TA.AperFunction,ComponentPad*%
%ADD17R,1.700000X1.700000*%
%TD*%
%TA.AperFunction,ComponentPad*%
%ADD18O,1.700000X1.700000*%
%TD*%
%TA.AperFunction,ComponentPad*%
%ADD19C,1.524000*%
%TD*%
%TA.AperFunction,SMDPad,CuDef*%
%ADD20RoundRect,0.250000X0.475000X-0.250000X0.475000X0.250000X-0.475000X0.250000X-0.475000X-0.250000X0*%
%TD*%
%TA.AperFunction,SMDPad,CuDef*%
%ADD21R,0.700000X1.925000*%
%TD*%
%TA.AperFunction,SMDPad,CuDef*%
%ADD22R,1.925000X0.700000*%
%TD*%
%TA.AperFunction,SMDPad,CuDef*%
%ADD23RoundRect,0.250000X0.450000X-0.262500X0.450000X0.262500X-0.450000X0.262500X-0.450000X-0.262500X0*%
%TD*%
%TA.AperFunction,SMDPad,CuDef*%
%ADD24RoundRect,0.250000X0.250000X0.475000X-0.250000X0.475000X-0.250000X-0.475000X0.250000X-0.475000X0*%
%TD*%
%TA.AperFunction,SMDPad,CuDef*%
%ADD25RoundRect,0.250000X0.325000X0.650000X-0.325000X0.650000X-0.325000X-0.650000X0.325000X-0.650000X0*%
%TD*%
%TA.AperFunction,SMDPad,CuDef*%
%ADD26RoundRect,0.250000X-0.262500X-0.450000X0.262500X-0.450000X0.262500X0.450000X-0.262500X0.450000X0*%
%TD*%
%TA.AperFunction,ViaPad*%
%ADD27C,0.800000*%
%TD*%
%TA.AperFunction,Conductor*%
%ADD28C,0.700000*%
%TD*%
G04 APERTURE END LIST*
D10*
%TO.P,C10,1*%
%TO.N,+9V*%
X160020000Y-105984000D03*
%TO.P,C10,2*%
%TO.N,Earth*%
X160020000Y-107884000D03*
%TD*%
D11*
%TO.P,R6,1*%
%TO.N,+9V*%
X166624000Y-88749500D03*
%TO.P,R6,2*%
%TO.N,Net-(U1-COM)*%
X166624000Y-90574500D03*
%TD*%
D10*
%TO.P,C4,1*%
%TO.N,Net-(U1-RFN)*%
X147701000Y-97287000D03*
%TO.P,C4,2*%
%TO.N,Earth*%
X147701000Y-99187000D03*
%TD*%
%TO.P,C7,1*%
%TO.N,+9V*%
X152654000Y-87315000D03*
%TO.P,C7,2*%
%TO.N,Net-(U1-AN)*%
X152654000Y-89215000D03*
%TD*%
%TO.P,C6,1*%
%TO.N,+9V*%
X157734000Y-87315000D03*
%TO.P,C6,2*%
%TO.N,Net-(U1-AP)*%
X157734000Y-89215000D03*
%TD*%
D11*
%TO.P,R5,1*%
%TO.N,Net-(U1-VFB)*%
X164465000Y-94083500D03*
%TO.P,R5,2*%
%TO.N,Net-(U1-OUT)*%
X164465000Y-95908500D03*
%TD*%
D12*
%TO.P,C2,1*%
%TO.N,Earth*%
X150180000Y-103632000D03*
%TO.P,C2,2*%
%TO.N,+9V*%
X152080000Y-103632000D03*
%TD*%
D13*
%TO.P,L1,1,1*%
%TO.N,Net-(C13-Pad1)*%
X171526000Y-96774000D03*
%TO.P,L1,2,2*%
%TO.N,Net-(J3-Pin_1)*%
X174676000Y-96774000D03*
%TD*%
D14*
%TO.P,U2,1,VI*%
%TO.N,Net-(J2-Pin_1)*%
X168650000Y-104258000D03*
D15*
%TO.P,U2,2,GND*%
%TO.N,Earth*%
X167895000Y-108883000D03*
X164845000Y-108883000D03*
D16*
X166370000Y-110558000D03*
D15*
X167895000Y-112233000D03*
X164845000Y-112233000D03*
D14*
%TO.P,U2,3,VO*%
%TO.N,+9V*%
X164090000Y-104258000D03*
%TD*%
D17*
%TO.P,J3,1,Pin_1*%
%TO.N,Net-(J3-Pin_1)*%
X175006000Y-103000000D03*
D18*
%TO.P,J3,2,Pin_2*%
%TO.N,Earth*%
X175006000Y-105540000D03*
%TD*%
D17*
%TO.P,J4,1,In*%
%TO.N,Net-(J4-In)*%
X143000000Y-116000000D03*
D18*
%TO.P,J4,2,Ext*%
%TO.N,Earth*%
X145540000Y-116000000D03*
%TD*%
D10*
%TO.P,C18,1*%
%TO.N,Net-(C18-Pad1)*%
X145669000Y-110048000D03*
%TO.P,C18,2*%
%TO.N,Net-(J4-In)*%
X145669000Y-111948000D03*
%TD*%
D19*
%TO.P,L2,1,1*%
%TO.N,Net-(C15-Pad1)*%
X143256000Y-92166000D03*
%TO.P,L2,2,2*%
%TO.N,unconnected-(L2-Pad2)*%
X143256000Y-89916000D03*
%TO.P,L2,3,3*%
%TO.N,Earth*%
X143256000Y-87666000D03*
%TO.P,L2,4,4*%
%TO.N,unconnected-(L2-Pad4)*%
X138756000Y-87666000D03*
%TO.P,L2,5,5*%
%TO.N,unconnected-(L2-Pad5)*%
X138756000Y-92166000D03*
%TO.P,L2,MP,MP*%
%TO.N,Earth*%
X141006000Y-86296000D03*
X141006000Y-93536000D03*
%TD*%
D20*
%TO.P,C8,1*%
%TO.N,Net-(C8-Pad1)*%
X155194000Y-109535000D03*
%TO.P,C8,2*%
%TO.N,Net-(U1-LOP)*%
X155194000Y-107635000D03*
%TD*%
D17*
%TO.P,J2,1,Pin_1*%
%TO.N,Net-(J2-Pin_1)*%
X170815000Y-116000000D03*
D18*
%TO.P,J2,2,Pin_2*%
%TO.N,Earth*%
X168275000Y-116000000D03*
%TD*%
D21*
%TO.P,U1,1,VP*%
%TO.N,+9V*%
X155179000Y-91941500D03*
%TO.P,U1,2,IFN*%
%TO.N,Net-(U1-AN)*%
X153909000Y-91941500D03*
%TO.P,U1,3,AN*%
X152639000Y-91941500D03*
D22*
%TO.P,U1,4,GND*%
%TO.N,Earth*%
X151126500Y-93454000D03*
%TO.P,U1,5,VN*%
X151126500Y-94724000D03*
%TO.P,U1,6,RFP*%
%TO.N,Net-(U1-RFP)*%
X151126500Y-95994000D03*
%TO.P,U1,7,RFN*%
%TO.N,Net-(U1-RFN)*%
X151126500Y-97264000D03*
%TO.P,U1,8,VN*%
%TO.N,Earth*%
X151126500Y-98534000D03*
D21*
%TO.P,U1,9,VP*%
%TO.N,+9V*%
X152639000Y-100046500D03*
%TO.P,U1,10,LON*%
%TO.N,Net-(U1-LON)*%
X153909000Y-100046500D03*
%TO.P,U1,11,LOP*%
%TO.N,Net-(U1-LOP)*%
X155179000Y-100046500D03*
%TO.P,U1,12,VP*%
%TO.N,+9V*%
X156449000Y-100046500D03*
%TO.P,U1,13,GND*%
%TO.N,Earth*%
X157719000Y-100046500D03*
D22*
%TO.P,U1,14,BIAS*%
%TO.N,Net-(U1-BIAS)*%
X159231500Y-98534000D03*
%TO.P,U1,15,VN*%
%TO.N,Earth*%
X159231500Y-97264000D03*
%TO.P,U1,16,OUT*%
%TO.N,Net-(U1-OUT)*%
X159231500Y-95994000D03*
%TO.P,U1,17,VFB*%
%TO.N,Net-(U1-VFB)*%
X159231500Y-94724000D03*
%TO.P,U1,18,COM*%
%TO.N,Net-(U1-COM)*%
X159231500Y-93454000D03*
D21*
%TO.P,U1,19,AP*%
%TO.N,Net-(U1-AP)*%
X157719000Y-91941500D03*
%TO.P,U1,20,IFP*%
X156449000Y-91941500D03*
%TD*%
D10*
%TO.P,C9,1*%
%TO.N,Net-(U1-LON)*%
X153924000Y-103698000D03*
%TO.P,C9,2*%
%TO.N,Earth*%
X153924000Y-105598000D03*
%TD*%
D12*
%TO.P,C15,1*%
%TO.N,Net-(C15-Pad1)*%
X142560000Y-95377000D03*
%TO.P,C15,2*%
%TO.N,Net-(C15-Pad2)*%
X144460000Y-95377000D03*
%TD*%
D23*
%TO.P,R1,1*%
%TO.N,Net-(J1-In)*%
X155194000Y-113180500D03*
%TO.P,R1,2*%
%TO.N,Net-(C8-Pad1)*%
X155194000Y-111355500D03*
%TD*%
D12*
%TO.P,C11,1*%
%TO.N,Net-(J2-Pin_1)*%
X172049400Y-109855000D03*
%TO.P,C11,2*%
%TO.N,Earth*%
X173949400Y-109855000D03*
%TD*%
D24*
%TO.P,C1,1*%
%TO.N,Earth*%
X158430000Y-103632000D03*
%TO.P,C1,2*%
%TO.N,+9V*%
X156530000Y-103632000D03*
%TD*%
D12*
%TO.P,C21,1*%
%TO.N,Net-(J2-Pin_1)*%
X168645800Y-101727000D03*
%TO.P,C21,2*%
%TO.N,Earth*%
X170545800Y-101727000D03*
%TD*%
D11*
%TO.P,R2,1*%
%TO.N,Earth*%
X152781000Y-107672500D03*
%TO.P,R2,2*%
%TO.N,Net-(C8-Pad1)*%
X152781000Y-109497500D03*
%TD*%
D20*
%TO.P,C12,1*%
%TO.N,Net-(U1-COM)*%
X162306000Y-90485000D03*
%TO.P,C12,2*%
%TO.N,Earth*%
X162306000Y-88585000D03*
%TD*%
D11*
%TO.P,R4,1*%
%TO.N,Net-(U1-COM)*%
X164465000Y-90527500D03*
%TO.P,R4,2*%
%TO.N,Net-(U1-VFB)*%
X164465000Y-92352500D03*
%TD*%
D17*
%TO.P,J1,1,In*%
%TO.N,Net-(J1-In)*%
X155194000Y-116000000D03*
D18*
%TO.P,J1,2,Ext*%
%TO.N,Earth*%
X152654000Y-116000000D03*
%TD*%
D20*
%TO.P,C19,1*%
%TO.N,Net-(J4-In)*%
X143256000Y-111948000D03*
%TO.P,C19,2*%
%TO.N,Earth*%
X143256000Y-110048000D03*
%TD*%
D24*
%TO.P,C5,1*%
%TO.N,Net-(U1-RFP)*%
X148016000Y-95377000D03*
%TO.P,C5,2*%
%TO.N,Net-(C15-Pad2)*%
X146116000Y-95377000D03*
%TD*%
D11*
%TO.P,R3,1*%
%TO.N,Earth*%
X164465000Y-87098500D03*
%TO.P,R3,2*%
%TO.N,Net-(U1-COM)*%
X164465000Y-88923500D03*
%TD*%
D19*
%TO.P,L3,1,1*%
%TO.N,Net-(C18-Pad1)*%
X143220000Y-106898000D03*
%TO.P,L3,2,2*%
%TO.N,unconnected-(L3-Pad2)*%
X143220000Y-104648000D03*
%TO.P,L3,3,3*%
%TO.N,Earth*%
X143220000Y-102398000D03*
%TO.P,L3,4,4*%
%TO.N,unconnected-(L3-Pad4)*%
X138720000Y-102398000D03*
%TO.P,L3,5,5*%
%TO.N,unconnected-(L3-Pad5)*%
X138720000Y-106898000D03*
%TO.P,L3,MP,MP*%
%TO.N,Earth*%
X140970000Y-101028000D03*
X140970000Y-108268000D03*
%TD*%
D25*
%TO.P,C13,1*%
%TO.N,Net-(C13-Pad1)*%
X171528000Y-94107000D03*
%TO.P,C13,2*%
%TO.N,Net-(C13-Pad2)*%
X168578000Y-94107000D03*
%TD*%
D24*
%TO.P,C20,1*%
%TO.N,Net-(C18-Pad1)*%
X144460000Y-97536000D03*
%TO.P,C20,2*%
%TO.N,Net-(C15-Pad1)*%
X142560000Y-97536000D03*
%TD*%
D12*
%TO.P,C17,1*%
%TO.N,Net-(C15-Pad2)*%
X146116000Y-93218000D03*
%TO.P,C17,2*%
%TO.N,Earth*%
X148016000Y-93218000D03*
%TD*%
%TO.P,C16,1*%
%TO.N,Net-(U1-BIAS)*%
X162499000Y-99441000D03*
%TO.P,C16,2*%
%TO.N,Earth*%
X164399000Y-99441000D03*
%TD*%
D10*
%TO.P,C3,1*%
%TO.N,Earth*%
X155194000Y-85410000D03*
%TO.P,C3,2*%
%TO.N,+9V*%
X155194000Y-87310000D03*
%TD*%
D11*
%TO.P,R7,1*%
%TO.N,Net-(C13-Pad2)*%
X166624000Y-94083500D03*
%TO.P,R7,2*%
%TO.N,Net-(U1-OUT)*%
X166624000Y-95908500D03*
%TD*%
D24*
%TO.P,C14,1*%
%TO.N,Net-(J3-Pin_1)*%
X174686000Y-100076000D03*
%TO.P,C14,2*%
%TO.N,Earth*%
X172786000Y-100076000D03*
%TD*%
D26*
%TO.P,R8,1*%
%TO.N,Net-(U1-BIAS)*%
X162536500Y-101854000D03*
%TO.P,R8,2*%
%TO.N,+9V*%
X164361500Y-101854000D03*
%TD*%
D27*
%TO.N,Earth*%
X147701000Y-108077000D03*
X169000000Y-85000000D03*
X160020000Y-115951000D03*
X150114000Y-89916000D03*
X152654000Y-112395000D03*
X147701000Y-103632000D03*
X175000000Y-116000000D03*
X146177000Y-87630000D03*
X140970000Y-96520000D03*
X139000000Y-116000000D03*
X160528000Y-103632000D03*
X164465000Y-97790000D03*
X166141400Y-115976400D03*
X145669000Y-114427000D03*
X150114000Y-86360000D03*
X160020000Y-109601000D03*
X175000000Y-85000000D03*
X162306000Y-87249000D03*
X138811000Y-110236000D03*
X139000000Y-85000000D03*
X149000000Y-116000000D03*
X170510200Y-103708200D03*
X171500800Y-100025200D03*
X164465000Y-85852000D03*
X155194000Y-83693000D03*
%TD*%
D28*
%TO.N,Net-(J2-Pin_1)*%
X170815000Y-116000000D02*
X172049400Y-114765600D01*
X172049400Y-114765600D02*
X172049400Y-107657400D01*
X172049400Y-107657400D02*
X168650000Y-104258000D01*
X168650000Y-104258000D02*
X168650000Y-101731200D01*
X168650000Y-101731200D02*
X168645800Y-101727000D01*
%TO.N,+9V*%
X164361500Y-101854000D02*
X165760400Y-101854000D01*
X165760400Y-101854000D02*
X169703000Y-97911400D01*
X169703000Y-97911400D02*
X169703000Y-90709000D01*
X169703000Y-90709000D02*
X167743500Y-88749500D01*
X167743500Y-88749500D02*
X166624000Y-88749500D01*
X156530000Y-103632000D02*
X156530000Y-98985000D01*
X162303000Y-106045000D02*
X164090000Y-104258000D01*
X155179000Y-91941500D02*
X155179000Y-87325000D01*
X155179000Y-87325000D02*
X155194000Y-87310000D01*
X157480000Y-106045000D02*
X162303000Y-106045000D01*
X155199000Y-87315000D02*
X155194000Y-87310000D01*
X165608000Y-84455000D02*
X166624000Y-85471000D01*
X156079000Y-98534000D02*
X153009000Y-98534000D01*
X152639000Y-103073000D02*
X152080000Y-103632000D01*
X156449000Y-100046500D02*
X156449000Y-103678000D01*
X152654000Y-87315000D02*
X155189000Y-87315000D01*
X157734000Y-87315000D02*
X155199000Y-87315000D01*
X152639000Y-100046500D02*
X152639000Y-103073000D01*
X166624000Y-85471000D02*
X166624000Y-88749500D01*
X157734000Y-87315000D02*
X160594000Y-84455000D01*
X155189000Y-87315000D02*
X155194000Y-87310000D01*
X164090000Y-104258000D02*
X164090000Y-102125500D01*
X152639000Y-98904000D02*
X152639000Y-100046500D01*
X156449000Y-103678000D02*
X156530000Y-103759000D01*
X156530000Y-103632000D02*
X156530000Y-105095000D01*
X164090000Y-102125500D02*
X164361500Y-101854000D01*
X160594000Y-84455000D02*
X165608000Y-84455000D01*
X156530000Y-98985000D02*
X156079000Y-98534000D01*
X153009000Y-98534000D02*
X152639000Y-98904000D01*
X156530000Y-105095000D02*
X157480000Y-106045000D01*
%TO.N,Net-(U1-RFN)*%
X147724000Y-97264000D02*
X147701000Y-97287000D01*
X151126500Y-97264000D02*
X147724000Y-97264000D01*
%TO.N,Net-(U1-RFP)*%
X151126500Y-95994000D02*
X148633000Y-95994000D01*
X148633000Y-95994000D02*
X148016000Y-95377000D01*
X148016000Y-95377000D02*
X147889000Y-95377000D01*
%TO.N,Net-(C15-Pad2)*%
X146116000Y-93218000D02*
X146116000Y-95377000D01*
X144460000Y-95377000D02*
X146116000Y-95377000D01*
%TO.N,Net-(U1-AP)*%
X156449000Y-90500000D02*
X157734000Y-89215000D01*
X156449000Y-91941500D02*
X156449000Y-90500000D01*
X157719000Y-91941500D02*
X157719000Y-89230000D01*
X157719000Y-89230000D02*
X157734000Y-89215000D01*
%TO.N,Net-(U1-AN)*%
X152639000Y-89230000D02*
X152654000Y-89215000D01*
X153909000Y-91941500D02*
X153909000Y-90470000D01*
X153909000Y-90470000D02*
X152654000Y-89215000D01*
X152639000Y-91941500D02*
X152639000Y-89230000D01*
%TO.N,Net-(C8-Pad1)*%
X152818500Y-109535000D02*
X152781000Y-109497500D01*
X155194000Y-109535000D02*
X152818500Y-109535000D01*
X155194000Y-111355500D02*
X155194000Y-109535000D01*
%TO.N,Net-(U1-LOP)*%
X155199000Y-107630000D02*
X155194000Y-107635000D01*
X155179000Y-100046500D02*
X155199000Y-100066500D01*
X155199000Y-100066500D02*
X155199000Y-107630000D01*
%TO.N,Net-(U1-LON)*%
X153909000Y-100046500D02*
X153909000Y-103683000D01*
X153909000Y-103683000D02*
X153924000Y-103698000D01*
%TO.N,Net-(U1-COM)*%
X164465000Y-90527500D02*
X166577000Y-90527500D01*
X161435000Y-93454000D02*
X162306000Y-92583000D01*
X162306000Y-90485000D02*
X164422500Y-90485000D01*
X166577000Y-90527500D02*
X166624000Y-90574500D01*
X164422500Y-90485000D02*
X164465000Y-90527500D01*
X164465000Y-88923500D02*
X164465000Y-90527500D01*
X162306000Y-92583000D02*
X162306000Y-90485000D01*
X159231500Y-93454000D02*
X161435000Y-93454000D01*
%TO.N,Net-(C13-Pad1)*%
X171528000Y-96772000D02*
X171528000Y-94107000D01*
X171526000Y-96774000D02*
X171528000Y-96772000D01*
%TO.N,Net-(C13-Pad2)*%
X166624000Y-94083500D02*
X168554500Y-94083500D01*
X168554500Y-94083500D02*
X168578000Y-94107000D01*
%TO.N,Net-(J3-Pin_1)*%
X175006000Y-103000000D02*
X175006000Y-100396000D01*
X174676000Y-96774000D02*
X174676000Y-100066000D01*
X175006000Y-100396000D02*
X174686000Y-100076000D01*
X174676000Y-100066000D02*
X174686000Y-100076000D01*
%TO.N,Net-(C15-Pad1)*%
X143256000Y-94681000D02*
X142560000Y-95377000D01*
X143256000Y-92166000D02*
X143256000Y-94681000D01*
X142560000Y-95377000D02*
X142560000Y-97536000D01*
%TO.N,Net-(J1-In)*%
X155255000Y-115824000D02*
X155255000Y-113241500D01*
X155255000Y-113241500D02*
X155194000Y-113180500D01*
%TO.N,Net-(J4-In)*%
X145415000Y-111948000D02*
X143256000Y-111948000D01*
X143256000Y-111948000D02*
X143256000Y-115443000D01*
X143256000Y-115443000D02*
X143129000Y-115570000D01*
%TO.N,Net-(U1-VFB)*%
X164465000Y-94083500D02*
X164465000Y-92352500D01*
X163824500Y-94724000D02*
X164465000Y-94083500D01*
X159231500Y-94724000D02*
X163824500Y-94724000D01*
%TO.N,Net-(U1-OUT)*%
X164379500Y-95994000D02*
X164465000Y-95908500D01*
X166624000Y-95908500D02*
X164465000Y-95908500D01*
X159231500Y-95994000D02*
X164379500Y-95994000D01*
%TO.N,Net-(U1-BIAS)*%
X159231500Y-98534000D02*
X161592000Y-98534000D01*
X162499000Y-99441000D02*
X162499000Y-101816500D01*
X162499000Y-101816500D02*
X162536500Y-101854000D01*
X161592000Y-98534000D02*
X162499000Y-99441000D01*
%TO.N,Net-(C18-Pad1)*%
X144460000Y-97536000D02*
X144460000Y-99121000D01*
X145669000Y-107188000D02*
X145379000Y-106898000D01*
X145669000Y-106608000D02*
X145379000Y-106898000D01*
X144460000Y-99121000D02*
X145669000Y-100330000D01*
X145669000Y-109794000D02*
X145669000Y-107188000D01*
X145379000Y-106898000D02*
X143220000Y-106898000D01*
X145415000Y-110048000D02*
X145669000Y-109794000D01*
X145669000Y-100330000D02*
X145669000Y-106608000D01*
%TD*%
%TA.AperFunction,Conductor*%
%TO.N,Earth*%
G36*
X165271388Y-85325185D02*
G01*
X165292030Y-85341819D01*
X165737181Y-85786969D01*
X165770666Y-85848292D01*
X165773500Y-85874650D01*
X165773500Y-87783042D01*
X165753815Y-87850081D01*
X165714598Y-87888580D01*
X165705344Y-87894287D01*
X165581288Y-88018343D01*
X165581285Y-88018347D01*
X165568939Y-88038363D01*
X165516990Y-88085087D01*
X165448027Y-88096307D01*
X165389882Y-88071950D01*
X165389803Y-88072080D01*
X165388980Y-88071572D01*
X165386489Y-88070529D01*
X165383657Y-88068289D01*
X165383656Y-88068288D01*
X165234334Y-87976186D01*
X165067797Y-87921001D01*
X165067795Y-87921000D01*
X164965010Y-87910500D01*
X163964998Y-87910500D01*
X163964980Y-87910501D01*
X163862203Y-87921000D01*
X163862200Y-87921001D01*
X163695668Y-87976185D01*
X163695663Y-87976187D01*
X163546342Y-88068289D01*
X163422289Y-88192342D01*
X163330187Y-88341663D01*
X163330185Y-88341668D01*
X163320039Y-88372288D01*
X163275001Y-88508203D01*
X163275001Y-88508204D01*
X163275000Y-88508204D01*
X163264500Y-88610983D01*
X163264500Y-89236001D01*
X163264501Y-89236019D01*
X163275000Y-89338796D01*
X163275001Y-89338799D01*
X163300752Y-89416508D01*
X163303154Y-89486336D01*
X163267422Y-89546378D01*
X163204902Y-89577571D01*
X163135443Y-89570011D01*
X163117951Y-89561052D01*
X163114008Y-89558620D01*
X163100334Y-89550186D01*
X162933797Y-89495001D01*
X162933795Y-89495000D01*
X162831010Y-89484500D01*
X161780998Y-89484500D01*
X161780980Y-89484501D01*
X161678203Y-89495000D01*
X161678200Y-89495001D01*
X161511668Y-89550185D01*
X161511663Y-89550187D01*
X161362342Y-89642289D01*
X161238289Y-89766342D01*
X161146187Y-89915663D01*
X161146185Y-89915668D01*
X161140224Y-89933657D01*
X161091001Y-90082203D01*
X161091001Y-90082204D01*
X161091000Y-90082204D01*
X161080500Y-90184983D01*
X161080500Y-90785001D01*
X161080501Y-90785019D01*
X161091000Y-90887796D01*
X161091001Y-90887799D01*
X161146185Y-91054331D01*
X161146187Y-91054336D01*
X161154904Y-91068468D01*
X161233056Y-91195174D01*
X161238289Y-91203657D01*
X161362345Y-91327713D01*
X161396594Y-91348837D01*
X161443320Y-91400784D01*
X161455500Y-91454377D01*
X161455500Y-92179349D01*
X161435815Y-92246388D01*
X161419181Y-92267030D01*
X161119030Y-92567181D01*
X161057707Y-92600666D01*
X161031349Y-92603500D01*
X158693499Y-92603500D01*
X158626460Y-92583815D01*
X158580705Y-92531011D01*
X158569499Y-92479500D01*
X158569500Y-92274344D01*
X158569500Y-91945932D01*
X158569500Y-90193629D01*
X158589185Y-90126590D01*
X158628402Y-90088090D01*
X158677656Y-90057712D01*
X158801712Y-89933656D01*
X158893814Y-89784334D01*
X158948999Y-89617797D01*
X158959500Y-89515009D01*
X158959499Y-88914992D01*
X158948999Y-88812203D01*
X158893814Y-88645666D01*
X158801712Y-88496344D01*
X158677656Y-88372288D01*
X158677650Y-88372283D01*
X158674814Y-88370534D01*
X158673278Y-88368826D01*
X158671989Y-88367807D01*
X158672163Y-88367586D01*
X158628092Y-88318584D01*
X158616873Y-88249621D01*
X158644720Y-88185540D01*
X158674825Y-88159458D01*
X158677656Y-88157712D01*
X158801712Y-88033656D01*
X158893814Y-87884334D01*
X158948999Y-87717797D01*
X158959500Y-87615009D01*
X158959499Y-87343649D01*
X158979183Y-87276611D01*
X158995813Y-87255974D01*
X160909969Y-85341819D01*
X160971292Y-85308334D01*
X160997650Y-85305500D01*
X165204349Y-85305500D01*
X165271388Y-85325185D01*
G37*
%TD.AperFunction*%
%TA.AperFunction,Conductor*%
G36*
X176942539Y-83020185D02*
G01*
X176988294Y-83072989D01*
X176999500Y-83124500D01*
X176999500Y-117875500D01*
X176979815Y-117942539D01*
X176927011Y-117988294D01*
X176875500Y-117999500D01*
X137124500Y-117999500D01*
X137057461Y-117979815D01*
X137011706Y-117927011D01*
X137000500Y-117875500D01*
X137000500Y-106898002D01*
X137452677Y-106898002D01*
X137471929Y-107118062D01*
X137471930Y-107118070D01*
X137529104Y-107331445D01*
X137529105Y-107331447D01*
X137529106Y-107331450D01*
X137584821Y-107450932D01*
X137622466Y-107531662D01*
X137622468Y-107531666D01*
X137749170Y-107712615D01*
X137749175Y-107712621D01*
X137905378Y-107868824D01*
X137905384Y-107868829D01*
X138086333Y-107995531D01*
X138086335Y-107995532D01*
X138086338Y-107995534D01*
X138286550Y-108088894D01*
X138499932Y-108146070D01*
X138657123Y-108159822D01*
X138719998Y-108165323D01*
X138720000Y-108165323D01*
X138720002Y-108165323D01*
X138775016Y-108160509D01*
X138940068Y-108146070D01*
X139153450Y-108088894D01*
X139353662Y-107995534D01*
X139534620Y-107868826D01*
X139690826Y-107712620D01*
X139817534Y-107531662D01*
X139910894Y-107331450D01*
X139968070Y-107118068D01*
X139985502Y-106918814D01*
X139987323Y-106898002D01*
X139987323Y-106897997D01*
X139976829Y-106778051D01*
X139968070Y-106677932D01*
X139910894Y-106464550D01*
X139817534Y-106264339D01*
X139690826Y-106083380D01*
X139534620Y-105927174D01*
X139534616Y-105927171D01*
X139534615Y-105927170D01*
X139353666Y-105800468D01*
X139353662Y-105800466D01*
X139337248Y-105792812D01*
X139153450Y-105707106D01*
X139153447Y-105707105D01*
X139153445Y-105707104D01*
X138940070Y-105649930D01*
X138940062Y-105649929D01*
X138720002Y-105630677D01*
X138719998Y-105630677D01*
X138499937Y-105649929D01*
X138499929Y-105649930D01*
X138286554Y-105707104D01*
X138286548Y-105707107D01*
X138086340Y-105800465D01*
X138086338Y-105800466D01*
X137905377Y-105927175D01*
X137749175Y-106083377D01*
X137622466Y-106264338D01*
X137622465Y-106264340D01*
X137529107Y-106464548D01*
X137529104Y-106464554D01*
X137471930Y-106677929D01*
X137471929Y-106677937D01*
X137452677Y-106897997D01*
X137452677Y-106898002D01*
X137000500Y-106898002D01*
X137000500Y-102398002D01*
X137452677Y-102398002D01*
X137471929Y-102618062D01*
X137471930Y-102618070D01*
X137529104Y-102831445D01*
X137529105Y-102831447D01*
X137529106Y-102831450D01*
X137602485Y-102988812D01*
X137622466Y-103031662D01*
X137622468Y-103031666D01*
X137749170Y-103212615D01*
X137749175Y-103212621D01*
X137905378Y-103368824D01*
X137905384Y-103368829D01*
X138086333Y-103495531D01*
X138086335Y-103495532D01*
X138086338Y-103495534D01*
X138286550Y-103588894D01*
X138499932Y-103646070D01*
X138657123Y-103659822D01*
X138719998Y-103665323D01*
X138720000Y-103665323D01*
X138720002Y-103665323D01*
X138775017Y-103660509D01*
X138940068Y-103646070D01*
X139153450Y-103588894D01*
X139353662Y-103495534D01*
X139534620Y-103368826D01*
X139690826Y-103212620D01*
X139817534Y-103031662D01*
X139910894Y-102831450D01*
X139968070Y-102618068D01*
X139985785Y-102415585D01*
X139987323Y-102398002D01*
X139987323Y-102397997D01*
X139978194Y-102293653D01*
X139968070Y-102177932D01*
X139910894Y-101964550D01*
X139817534Y-101764339D01*
X139690826Y-101583380D01*
X139534620Y-101427174D01*
X139534616Y-101427171D01*
X139534615Y-101427170D01*
X139353666Y-101300468D01*
X139353662Y-101300466D01*
X139299869Y-101275382D01*
X139153450Y-101207106D01*
X139153447Y-101207105D01*
X139153445Y-101207104D01*
X138940070Y-101149930D01*
X138940062Y-101149929D01*
X138720002Y-101130677D01*
X138719998Y-101130677D01*
X138499937Y-101149929D01*
X138499929Y-101149930D01*
X138286554Y-101207104D01*
X138286548Y-101207107D01*
X138086340Y-101300465D01*
X138086338Y-101300466D01*
X137905377Y-101427175D01*
X137749175Y-101583377D01*
X137622466Y-101764338D01*
X137622465Y-101764340D01*
X137529107Y-101964548D01*
X137529104Y-101964554D01*
X137471930Y-102177929D01*
X137471929Y-102177937D01*
X137452677Y-102397997D01*
X137452677Y-102398002D01*
X137000500Y-102398002D01*
X137000500Y-98061001D01*
X141559500Y-98061001D01*
X141559501Y-98061019D01*
X141570000Y-98163796D01*
X141570001Y-98163799D01*
X141625185Y-98330331D01*
X141625187Y-98330336D01*
X141638836Y-98352464D01*
X141717288Y-98479656D01*
X141841344Y-98603712D01*
X141990666Y-98695814D01*
X142157203Y-98750999D01*
X142259991Y-98761500D01*
X142860008Y-98761499D01*
X142860016Y-98761498D01*
X142860019Y-98761498D01*
X142916302Y-98755748D01*
X142962797Y-98750999D01*
X143129334Y-98695814D01*
X143278656Y-98603712D01*
X143397822Y-98484545D01*
X143459141Y-98451063D01*
X143528833Y-98456047D01*
X143584767Y-98497918D01*
X143609184Y-98563382D01*
X143609500Y-98572229D01*
X143609500Y-99083911D01*
X143609295Y-99088945D01*
X143604798Y-99144163D01*
X143615729Y-99224392D01*
X143624486Y-99304913D01*
X143624710Y-99305930D01*
X143629525Y-99326473D01*
X143629773Y-99327470D01*
X143650725Y-99384500D01*
X143657700Y-99403486D01*
X143672767Y-99448203D01*
X143683557Y-99480223D01*
X143684001Y-99481185D01*
X143693146Y-99500266D01*
X143693564Y-99501109D01*
X143737184Y-99569353D01*
X143778930Y-99638736D01*
X143779538Y-99639536D01*
X143792578Y-99656216D01*
X143793201Y-99656991D01*
X143850459Y-99714249D01*
X143906152Y-99773042D01*
X143906983Y-99773747D01*
X143924119Y-99787908D01*
X144362818Y-100226607D01*
X144782181Y-100645969D01*
X144815666Y-100707292D01*
X144818500Y-100733650D01*
X144818500Y-105923500D01*
X144798815Y-105990539D01*
X144746011Y-106036294D01*
X144694500Y-106047500D01*
X144206308Y-106047500D01*
X144139269Y-106027815D01*
X144118627Y-106011181D01*
X144034621Y-105927175D01*
X144034614Y-105927170D01*
X143959500Y-105874574D01*
X143915875Y-105819997D01*
X143908682Y-105750499D01*
X143940204Y-105688144D01*
X143959490Y-105671432D01*
X144034620Y-105618826D01*
X144190826Y-105462620D01*
X144317534Y-105281662D01*
X144410894Y-105081450D01*
X144468070Y-104868068D01*
X144487323Y-104648000D01*
X144485994Y-104632814D01*
X144468070Y-104427937D01*
X144468070Y-104427932D01*
X144410894Y-104214550D01*
X144317534Y-104014339D01*
X144235984Y-103897873D01*
X144190827Y-103833381D01*
X144190823Y-103833377D01*
X144034620Y-103677174D01*
X144034616Y-103677171D01*
X144034615Y-103677170D01*
X143853666Y-103550468D01*
X143853662Y-103550466D01*
X143735857Y-103495533D01*
X143653450Y-103457106D01*
X143653447Y-103457105D01*
X143653445Y-103457104D01*
X143440070Y-103399930D01*
X143440062Y-103399929D01*
X143220002Y-103380677D01*
X143219998Y-103380677D01*
X142999937Y-103399929D01*
X142999929Y-103399930D01*
X142786554Y-103457104D01*
X142786548Y-103457107D01*
X142586340Y-103550465D01*
X142586338Y-103550466D01*
X142405377Y-103677175D01*
X142249175Y-103833377D01*
X142122466Y-104014338D01*
X142122465Y-104014340D01*
X142029107Y-104214548D01*
X142029104Y-104214554D01*
X141971930Y-104427929D01*
X141971929Y-104427937D01*
X141952677Y-104647997D01*
X141952677Y-104648002D01*
X141971929Y-104868062D01*
X141971930Y-104868070D01*
X142029104Y-105081445D01*
X142029105Y-105081447D01*
X142029106Y-105081450D01*
X142122466Y-105281661D01*
X142122466Y-105281662D01*
X142122468Y-105281666D01*
X142249170Y-105462615D01*
X142249174Y-105462620D01*
X142405380Y-105618826D01*
X142469334Y-105663607D01*
X142480499Y-105671425D01*
X142524124Y-105726002D01*
X142531316Y-105795501D01*
X142499794Y-105857855D01*
X142480499Y-105874575D01*
X142405375Y-105927177D01*
X142249175Y-106083377D01*
X142122466Y-106264338D01*
X142122465Y-106264340D01*
X142029107Y-106464548D01*
X142029104Y-106464554D01*
X141971930Y-106677929D01*
X141971929Y-106677937D01*
X141952677Y-106897997D01*
X141952677Y-106898002D01*
X141971929Y-107118062D01*
X141971930Y-107118070D01*
X142029104Y-107331445D01*
X142029105Y-107331447D01*
X142029106Y-107331450D01*
X142084821Y-107450932D01*
X142122466Y-107531662D01*
X142122468Y-107531666D01*
X142249170Y-107712615D01*
X142249175Y-107712621D01*
X142405378Y-107868824D01*
X142405384Y-107868829D01*
X142586333Y-107995531D01*
X142586335Y-107995532D01*
X142586338Y-107995534D01*
X142786550Y-108088894D01*
X142999932Y-108146070D01*
X143157123Y-108159822D01*
X143219998Y-108165323D01*
X143220000Y-108165323D01*
X143220002Y-108165323D01*
X143275017Y-108160509D01*
X143440068Y-108146070D01*
X143653450Y-108088894D01*
X143853662Y-107995534D01*
X144034620Y-107868826D01*
X144118627Y-107784818D01*
X144179950Y-107751334D01*
X144206308Y-107748500D01*
X144694500Y-107748500D01*
X144761539Y-107768185D01*
X144807294Y-107820989D01*
X144818500Y-107872500D01*
X144818500Y-109078621D01*
X144798815Y-109145660D01*
X144759599Y-109184158D01*
X144725346Y-109205285D01*
X144601289Y-109329342D01*
X144509187Y-109478663D01*
X144509185Y-109478666D01*
X144509186Y-109478666D01*
X144454001Y-109645203D01*
X144454001Y-109645204D01*
X144454000Y-109645204D01*
X144443500Y-109747983D01*
X144443500Y-110348001D01*
X144443501Y-110348019D01*
X144454000Y-110450796D01*
X144454001Y-110450799D01*
X144509185Y-110617331D01*
X144509187Y-110617336D01*
X144601289Y-110766657D01*
X144720451Y-110885819D01*
X144753936Y-110947142D01*
X144748952Y-111016834D01*
X144707080Y-111072767D01*
X144641616Y-111097184D01*
X144632770Y-111097500D01*
X144222196Y-111097500D01*
X144157100Y-111079039D01*
X144050340Y-111013189D01*
X144050335Y-111013187D01*
X144050334Y-111013186D01*
X143883797Y-110958001D01*
X143883795Y-110958000D01*
X143781010Y-110947500D01*
X142730998Y-110947500D01*
X142730980Y-110947501D01*
X142628203Y-110958000D01*
X142628200Y-110958001D01*
X142461668Y-111013185D01*
X142461663Y-111013187D01*
X142312342Y-111105289D01*
X142188289Y-111229342D01*
X142096187Y-111378663D01*
X142096185Y-111378666D01*
X142096186Y-111378666D01*
X142041001Y-111545203D01*
X142041001Y-111545204D01*
X142041000Y-111545204D01*
X142030500Y-111647983D01*
X142030500Y-112248001D01*
X142030501Y-112248019D01*
X142041000Y-112350796D01*
X142041001Y-112350799D01*
X142096185Y-112517331D01*
X142096187Y-112517336D01*
X142188289Y-112666657D01*
X142312345Y-112790713D01*
X142346594Y-112811837D01*
X142393320Y-112863784D01*
X142405500Y-112917377D01*
X142405500Y-114525500D01*
X142385815Y-114592539D01*
X142333011Y-114638294D01*
X142281501Y-114649500D01*
X142102130Y-114649500D01*
X142102123Y-114649501D01*
X142042516Y-114655908D01*
X141907671Y-114706202D01*
X141907664Y-114706206D01*
X141792455Y-114792452D01*
X141792452Y-114792455D01*
X141706206Y-114907664D01*
X141706202Y-114907671D01*
X141655908Y-115042517D01*
X141649501Y-115102116D01*
X141649501Y-115102123D01*
X141649500Y-115102135D01*
X141649500Y-116897870D01*
X141649501Y-116897876D01*
X141655908Y-116957483D01*
X141706202Y-117092328D01*
X141706206Y-117092335D01*
X141792452Y-117207544D01*
X141792455Y-117207547D01*
X141907664Y-117293793D01*
X141907671Y-117293797D01*
X142042517Y-117344091D01*
X142042516Y-117344091D01*
X142049444Y-117344835D01*
X142102127Y-117350500D01*
X143897872Y-117350499D01*
X143957483Y-117344091D01*
X144092331Y-117293796D01*
X144207546Y-117207546D01*
X144293796Y-117092331D01*
X144344091Y-116957483D01*
X144350500Y-116897873D01*
X144350499Y-115102128D01*
X144344091Y-115042517D01*
X144343071Y-115039783D01*
X144293797Y-114907671D01*
X144293793Y-114907664D01*
X144207548Y-114792457D01*
X144207546Y-114792454D01*
X144207544Y-114792452D01*
X144207542Y-114792450D01*
X144156188Y-114754006D01*
X144114317Y-114698071D01*
X144106500Y-114654740D01*
X144106500Y-112922500D01*
X144126185Y-112855461D01*
X144178989Y-112809706D01*
X144230500Y-112798500D01*
X144702804Y-112798500D01*
X144767900Y-112816961D01*
X144874659Y-112882810D01*
X144874660Y-112882810D01*
X144874666Y-112882814D01*
X145041203Y-112937999D01*
X145143991Y-112948500D01*
X146194008Y-112948499D01*
X146194016Y-112948498D01*
X146194019Y-112948498D01*
X146250302Y-112942748D01*
X146296797Y-112937999D01*
X146463334Y-112882814D01*
X146612656Y-112790712D01*
X146736712Y-112666656D01*
X146828814Y-112517334D01*
X146883999Y-112350797D01*
X146894500Y-112248009D01*
X146894499Y-111647992D01*
X146883999Y-111545203D01*
X146828814Y-111378666D01*
X146736712Y-111229344D01*
X146612656Y-111105288D01*
X146609819Y-111103538D01*
X146608283Y-111101830D01*
X146606989Y-111100807D01*
X146607163Y-111100585D01*
X146563096Y-111051594D01*
X146551872Y-110982632D01*
X146579713Y-110918549D01*
X146609817Y-110892462D01*
X146612656Y-110890712D01*
X146736712Y-110766656D01*
X146828814Y-110617334D01*
X146883999Y-110450797D01*
X146894500Y-110348009D01*
X146894499Y-109747992D01*
X146883999Y-109645203D01*
X146828814Y-109478666D01*
X146736712Y-109329344D01*
X146612656Y-109205288D01*
X146612653Y-109205285D01*
X146578401Y-109184158D01*
X146531678Y-109132210D01*
X146519500Y-109078621D01*
X146519500Y-107225087D01*
X146519705Y-107220052D01*
X146524201Y-107164836D01*
X146520771Y-107139664D01*
X146513270Y-107084607D01*
X146504514Y-107004090D01*
X146504513Y-107004088D01*
X146504513Y-107004084D01*
X146504280Y-107003026D01*
X146499497Y-106982621D01*
X146499226Y-106981527D01*
X146485720Y-106944766D01*
X146481012Y-106875350D01*
X146497141Y-106802073D01*
X146516684Y-106723495D01*
X146516683Y-106723495D01*
X146516685Y-106723491D01*
X146516830Y-106722426D01*
X146519371Y-106701677D01*
X146519500Y-106700496D01*
X146519500Y-106619531D01*
X146521693Y-106538564D01*
X146521608Y-106537520D01*
X146519500Y-106515352D01*
X146519500Y-100367087D01*
X146519705Y-100362052D01*
X146524201Y-100306836D01*
X146522262Y-100292607D01*
X146513270Y-100226607D01*
X146504514Y-100146090D01*
X146504513Y-100146088D01*
X146504513Y-100146084D01*
X146504280Y-100145026D01*
X146499497Y-100124621D01*
X146499227Y-100123532D01*
X146471299Y-100047513D01*
X146464323Y-100026810D01*
X146445444Y-99970779D01*
X146445441Y-99970775D01*
X146445441Y-99970773D01*
X146445006Y-99969831D01*
X146435895Y-99950818D01*
X146435432Y-99949884D01*
X146434009Y-99947658D01*
X146391822Y-99881658D01*
X146350070Y-99812264D01*
X146350068Y-99812262D01*
X146350067Y-99812260D01*
X146349455Y-99811455D01*
X146336503Y-99794889D01*
X146335803Y-99794018D01*
X146335799Y-99794011D01*
X146278556Y-99736768D01*
X146238661Y-99694651D01*
X146222848Y-99677957D01*
X146222108Y-99677328D01*
X146204875Y-99663087D01*
X145346819Y-98805030D01*
X145313334Y-98743707D01*
X145310500Y-98717349D01*
X145310500Y-98502195D01*
X145328960Y-98437099D01*
X145394814Y-98330334D01*
X145449999Y-98163797D01*
X145460500Y-98061009D01*
X145460499Y-97010992D01*
X145458046Y-96986983D01*
X145449999Y-96908203D01*
X145449998Y-96908200D01*
X145394814Y-96741666D01*
X145372282Y-96705136D01*
X145353843Y-96637745D01*
X145374766Y-96571082D01*
X145428408Y-96526312D01*
X145497739Y-96517651D01*
X145542920Y-96534503D01*
X145546666Y-96536814D01*
X145713203Y-96591999D01*
X145815991Y-96602500D01*
X146407628Y-96602499D01*
X146474667Y-96622183D01*
X146520422Y-96674987D01*
X146530366Y-96744146D01*
X146525334Y-96765502D01*
X146486001Y-96884200D01*
X146486000Y-96884204D01*
X146475500Y-96986983D01*
X146475500Y-97587001D01*
X146475501Y-97587019D01*
X146486000Y-97689796D01*
X146486001Y-97689799D01*
X146531284Y-97826452D01*
X146541186Y-97856334D01*
X146633288Y-98005656D01*
X146757344Y-98129712D01*
X146906666Y-98221814D01*
X147073203Y-98276999D01*
X147175991Y-98287500D01*
X148226008Y-98287499D01*
X148226016Y-98287498D01*
X148226019Y-98287498D01*
X148309727Y-98278947D01*
X148328797Y-98276999D01*
X148495334Y-98221814D01*
X148634256Y-98136127D01*
X148639389Y-98132961D01*
X148704485Y-98114500D01*
X151176353Y-98114500D01*
X151176369Y-98114499D01*
X151920799Y-98114499D01*
X151987838Y-98134184D01*
X152033593Y-98186988D01*
X152043537Y-98256146D01*
X152019513Y-98313543D01*
X152017903Y-98315659D01*
X152017900Y-98315663D01*
X151975717Y-98371153D01*
X151968909Y-98380108D01*
X151918155Y-98443249D01*
X151917649Y-98444041D01*
X151906469Y-98462066D01*
X151905944Y-98462938D01*
X151871939Y-98536439D01*
X151835963Y-98608980D01*
X151835582Y-98610017D01*
X151828580Y-98629906D01*
X151828267Y-98630833D01*
X151810858Y-98709926D01*
X151791314Y-98788513D01*
X151791191Y-98789416D01*
X151788607Y-98810516D01*
X151788500Y-98811501D01*
X151788500Y-98892468D01*
X151786306Y-98973438D01*
X151786389Y-98974447D01*
X151788500Y-98996649D01*
X151788500Y-102293653D01*
X151768815Y-102360692D01*
X151716011Y-102406447D01*
X151683738Y-102415209D01*
X151683819Y-102415585D01*
X151677200Y-102417001D01*
X151510668Y-102472185D01*
X151510663Y-102472187D01*
X151361342Y-102564289D01*
X151237289Y-102688342D01*
X151145187Y-102837663D01*
X151145185Y-102837666D01*
X151145186Y-102837666D01*
X151090001Y-103004203D01*
X151090001Y-103004204D01*
X151090000Y-103004204D01*
X151079500Y-103106983D01*
X151079500Y-104157001D01*
X151079501Y-104157019D01*
X151090000Y-104259796D01*
X151090001Y-104259799D01*
X151145185Y-104426331D01*
X151145187Y-104426336D01*
X151146175Y-104427937D01*
X151237288Y-104575656D01*
X151361344Y-104699712D01*
X151510666Y-104791814D01*
X151677203Y-104846999D01*
X151779991Y-104857500D01*
X152380008Y-104857499D01*
X152380016Y-104857498D01*
X152380019Y-104857498D01*
X152436302Y-104851748D01*
X152482797Y-104846999D01*
X152649334Y-104791814D01*
X152798656Y-104699712D01*
X152896985Y-104601382D01*
X152958304Y-104567900D01*
X153027996Y-104572884D01*
X153049753Y-104583523D01*
X153129666Y-104632814D01*
X153296203Y-104687999D01*
X153398991Y-104698500D01*
X154224500Y-104698499D01*
X154291539Y-104718183D01*
X154337294Y-104770987D01*
X154348500Y-104822499D01*
X154348500Y-106662537D01*
X154328815Y-106729576D01*
X154289599Y-106768075D01*
X154250342Y-106792289D01*
X154126289Y-106916342D01*
X154034187Y-107065663D01*
X154034185Y-107065668D01*
X154016824Y-107118062D01*
X153979001Y-107232203D01*
X153979001Y-107232204D01*
X153979000Y-107232204D01*
X153968500Y-107334983D01*
X153968500Y-107935001D01*
X153968501Y-107935019D01*
X153979000Y-108037796D01*
X153979001Y-108037799D01*
X154034185Y-108204331D01*
X154034187Y-108204336D01*
X154126289Y-108353657D01*
X154245451Y-108472819D01*
X154278936Y-108534142D01*
X154273952Y-108603834D01*
X154232080Y-108659767D01*
X154166616Y-108684184D01*
X154157770Y-108684500D01*
X153793230Y-108684500D01*
X153726191Y-108664815D01*
X153705549Y-108648181D01*
X153699657Y-108642289D01*
X153699656Y-108642288D01*
X153582156Y-108569814D01*
X153550336Y-108550187D01*
X153550331Y-108550185D01*
X153548862Y-108549698D01*
X153383797Y-108495001D01*
X153383795Y-108495000D01*
X153281010Y-108484500D01*
X152280998Y-108484500D01*
X152280980Y-108484501D01*
X152178203Y-108495000D01*
X152178200Y-108495001D01*
X152011668Y-108550185D01*
X152011663Y-108550187D01*
X151862342Y-108642289D01*
X151738289Y-108766342D01*
X151646187Y-108915663D01*
X151646185Y-108915668D01*
X151629617Y-108965668D01*
X151591001Y-109082203D01*
X151591001Y-109082204D01*
X151591000Y-109082204D01*
X151580500Y-109184983D01*
X151580500Y-109810001D01*
X151580501Y-109810019D01*
X151591000Y-109912796D01*
X151591001Y-109912799D01*
X151599285Y-109937797D01*
X151646186Y-110079334D01*
X151738288Y-110228656D01*
X151862344Y-110352712D01*
X152011666Y-110444814D01*
X152178203Y-110499999D01*
X152280991Y-110510500D01*
X153281008Y-110510499D01*
X153281016Y-110510498D01*
X153281019Y-110510498D01*
X153337302Y-110504748D01*
X153383797Y-110499999D01*
X153550334Y-110444814D01*
X153609750Y-110408166D01*
X153616568Y-110403961D01*
X153681664Y-110385500D01*
X154090770Y-110385500D01*
X154157809Y-110405185D01*
X154203564Y-110457989D01*
X154213508Y-110527147D01*
X154184483Y-110590703D01*
X154178451Y-110597181D01*
X154151289Y-110624342D01*
X154059187Y-110773663D01*
X154059185Y-110773666D01*
X154059186Y-110773666D01*
X154004001Y-110940203D01*
X154004001Y-110940204D01*
X154004000Y-110940204D01*
X153993500Y-111042983D01*
X153993500Y-111668001D01*
X153993501Y-111668019D01*
X154004000Y-111770796D01*
X154004001Y-111770799D01*
X154059185Y-111937331D01*
X154059187Y-111937336D01*
X154151289Y-112086657D01*
X154244951Y-112180319D01*
X154278436Y-112241642D01*
X154273452Y-112311334D01*
X154244951Y-112355681D01*
X154151289Y-112449342D01*
X154059187Y-112598663D01*
X154059185Y-112598666D01*
X154059186Y-112598666D01*
X154004001Y-112765203D01*
X154004001Y-112765204D01*
X154004000Y-112765204D01*
X153993500Y-112867983D01*
X153993500Y-113493001D01*
X153993501Y-113493019D01*
X154004000Y-113595796D01*
X154004001Y-113595799D01*
X154059185Y-113762331D01*
X154059187Y-113762336D01*
X154151289Y-113911657D01*
X154275345Y-114035713D01*
X154303065Y-114052810D01*
X154345596Y-114079043D01*
X154392321Y-114130989D01*
X154404500Y-114184581D01*
X154404500Y-114526466D01*
X154384815Y-114593505D01*
X154332011Y-114639260D01*
X154293754Y-114649756D01*
X154236516Y-114655909D01*
X154101671Y-114706202D01*
X154101664Y-114706206D01*
X153986455Y-114792452D01*
X153986452Y-114792455D01*
X153900206Y-114907664D01*
X153900202Y-114907671D01*
X153849908Y-115042517D01*
X153843501Y-115102116D01*
X153843501Y-115102123D01*
X153843500Y-115102135D01*
X153843500Y-116897870D01*
X153843501Y-116897876D01*
X153849908Y-116957483D01*
X153900202Y-117092328D01*
X153900206Y-117092335D01*
X153986452Y-117207544D01*
X153986455Y-117207547D01*
X154101664Y-117293793D01*
X154101671Y-117293797D01*
X154236517Y-117344091D01*
X154236516Y-117344091D01*
X154243444Y-117344835D01*
X154296127Y-117350500D01*
X156091872Y-117350499D01*
X156151483Y-117344091D01*
X156286331Y-117293796D01*
X156401546Y-117207546D01*
X156487796Y-117092331D01*
X156538091Y-116957483D01*
X156544500Y-116897873D01*
X156544499Y-115102128D01*
X156538091Y-115042517D01*
X156537071Y-115039783D01*
X156487797Y-114907671D01*
X156487793Y-114907664D01*
X156401547Y-114792455D01*
X156401544Y-114792452D01*
X156286335Y-114706206D01*
X156286328Y-114706202D01*
X156186167Y-114668845D01*
X156130233Y-114626974D01*
X156105816Y-114561510D01*
X156105500Y-114552663D01*
X156105500Y-114094230D01*
X156125185Y-114027191D01*
X156141819Y-114006549D01*
X156141819Y-114006548D01*
X156236712Y-113911656D01*
X156328814Y-113762334D01*
X156383999Y-113595797D01*
X156394500Y-113493009D01*
X156394499Y-112867992D01*
X156383999Y-112765203D01*
X156328814Y-112598666D01*
X156236712Y-112449344D01*
X156143045Y-112355677D01*
X156109563Y-112294359D01*
X156114547Y-112224667D01*
X156143044Y-112180323D01*
X156236712Y-112086656D01*
X156328814Y-111937334D01*
X156383999Y-111770797D01*
X156394500Y-111668009D01*
X156394499Y-111042992D01*
X156391454Y-111013187D01*
X156383999Y-110940203D01*
X156383998Y-110940200D01*
X156328814Y-110773666D01*
X156236712Y-110624344D01*
X156151549Y-110539181D01*
X156118064Y-110477858D01*
X156123048Y-110408166D01*
X156151549Y-110363819D01*
X156167367Y-110348001D01*
X156261712Y-110253656D01*
X156353814Y-110104334D01*
X156408999Y-109937797D01*
X156419500Y-109835009D01*
X156419499Y-109234992D01*
X156418703Y-109227204D01*
X156408999Y-109132203D01*
X156408998Y-109132200D01*
X156392431Y-109082204D01*
X156353814Y-108965666D01*
X156261712Y-108816344D01*
X156137656Y-108692288D01*
X156137650Y-108692283D01*
X156134814Y-108690534D01*
X156133278Y-108688826D01*
X156131989Y-108687807D01*
X156132163Y-108687586D01*
X156088092Y-108638584D01*
X156076873Y-108569621D01*
X156104720Y-108505540D01*
X156134825Y-108479458D01*
X156137656Y-108477712D01*
X156261712Y-108353656D01*
X156353814Y-108204334D01*
X156408999Y-108037797D01*
X156419500Y-107935009D01*
X156419499Y-107334992D01*
X156419137Y-107331451D01*
X156408999Y-107232203D01*
X156408998Y-107232200D01*
X156405805Y-107222565D01*
X156353814Y-107065666D01*
X156261712Y-106916344D01*
X156137656Y-106792288D01*
X156137652Y-106792285D01*
X156108401Y-106774242D01*
X156061677Y-106722293D01*
X156049500Y-106668705D01*
X156049500Y-106116650D01*
X156069185Y-106049611D01*
X156121989Y-106003856D01*
X156191147Y-105993912D01*
X156254703Y-106022937D01*
X156261181Y-106028969D01*
X156852385Y-106620173D01*
X156855788Y-106623865D01*
X156891662Y-106666099D01*
X156891663Y-106666100D01*
X156956119Y-106715098D01*
X157019246Y-106765842D01*
X157019247Y-106765842D01*
X157019248Y-106765843D01*
X157020211Y-106766459D01*
X157037969Y-106777473D01*
X157038931Y-106778051D01*
X157038933Y-106778052D01*
X157038936Y-106778054D01*
X157090853Y-106802073D01*
X157112422Y-106812052D01*
X157184983Y-106848039D01*
X157186019Y-106848419D01*
X157205853Y-106855402D01*
X157206835Y-106855733D01*
X157285916Y-106873139D01*
X157364506Y-106892684D01*
X157364510Y-106892684D01*
X157364514Y-106892685D01*
X157365604Y-106892833D01*
X157386375Y-106895377D01*
X157387502Y-106895499D01*
X157387503Y-106895500D01*
X157387504Y-106895500D01*
X157468469Y-106895500D01*
X157549432Y-106897693D01*
X157549432Y-106897692D01*
X157549435Y-106897693D01*
X157550479Y-106897608D01*
X157572648Y-106895500D01*
X159152702Y-106895500D01*
X159217799Y-106913962D01*
X159225657Y-106918809D01*
X159225660Y-106918810D01*
X159225666Y-106918814D01*
X159392203Y-106973999D01*
X159494991Y-106984500D01*
X160545008Y-106984499D01*
X160545016Y-106984498D01*
X160545019Y-106984498D01*
X160601302Y-106978748D01*
X160647797Y-106973999D01*
X160814334Y-106918814D01*
X160818342Y-106916342D01*
X160822201Y-106913962D01*
X160887298Y-106895500D01*
X162265913Y-106895500D01*
X162270948Y-106895705D01*
X162290562Y-106897301D01*
X162326167Y-106900201D01*
X162406392Y-106889270D01*
X162486910Y-106880514D01*
X162486914Y-106880512D01*
X162488036Y-106880266D01*
X162508307Y-106875515D01*
X162509462Y-106875228D01*
X162509462Y-106875227D01*
X162509468Y-106875227D01*
X162585486Y-106847299D01*
X162662221Y-106821444D01*
X162662227Y-106821439D01*
X162663351Y-106820920D01*
X162682123Y-106811923D01*
X162683112Y-106811433D01*
X162683116Y-106811432D01*
X162751353Y-106767815D01*
X162820736Y-106726070D01*
X162820741Y-106726065D01*
X162821669Y-106725360D01*
X162838076Y-106712533D01*
X162838986Y-106711802D01*
X162838986Y-106711801D01*
X162838989Y-106711800D01*
X162867617Y-106683170D01*
X162896248Y-106654541D01*
X162923490Y-106628735D01*
X162955041Y-106598849D01*
X162955044Y-106598845D01*
X162955771Y-106597989D01*
X162969900Y-106580887D01*
X163655969Y-105894817D01*
X163717292Y-105861333D01*
X163743650Y-105858499D01*
X164490002Y-105858499D01*
X164490008Y-105858499D01*
X164496313Y-105857855D01*
X164507895Y-105856671D01*
X164592797Y-105847999D01*
X164759334Y-105792814D01*
X164908656Y-105700712D01*
X165032712Y-105576656D01*
X165124814Y-105427334D01*
X165179999Y-105260797D01*
X165190500Y-105158009D01*
X165190499Y-103357992D01*
X165179999Y-103255203D01*
X165124814Y-103088666D01*
X165090786Y-103033498D01*
X165072347Y-102966107D01*
X165093270Y-102899444D01*
X165108635Y-102880732D01*
X165216712Y-102772656D01*
X165222419Y-102763402D01*
X165274368Y-102716678D01*
X165327958Y-102704500D01*
X165723313Y-102704500D01*
X165728348Y-102704705D01*
X165747962Y-102706301D01*
X165783567Y-102709201D01*
X165863792Y-102698270D01*
X165944310Y-102689514D01*
X165944314Y-102689512D01*
X165945436Y-102689266D01*
X165965707Y-102684515D01*
X165966862Y-102684228D01*
X165966862Y-102684227D01*
X165966868Y-102684227D01*
X166042886Y-102656299D01*
X166119621Y-102630444D01*
X166119627Y-102630439D01*
X166120751Y-102629920D01*
X166139523Y-102620923D01*
X166140512Y-102620433D01*
X166140516Y-102620432D01*
X166208753Y-102576815D01*
X166278136Y-102535070D01*
X166278141Y-102535065D01*
X166279069Y-102534360D01*
X166295476Y-102521533D01*
X166296386Y-102520802D01*
X166296386Y-102520801D01*
X166296389Y-102520800D01*
X166325018Y-102492170D01*
X166353649Y-102463540D01*
X166402779Y-102417001D01*
X166412441Y-102407849D01*
X166412445Y-102407842D01*
X166413157Y-102407005D01*
X166427304Y-102389883D01*
X167433621Y-101383566D01*
X167494942Y-101350083D01*
X167564634Y-101355067D01*
X167620567Y-101396939D01*
X167644984Y-101462403D01*
X167645300Y-101471249D01*
X167645300Y-102252001D01*
X167645301Y-102252019D01*
X167655800Y-102354796D01*
X167655801Y-102354799D01*
X167710985Y-102521331D01*
X167710987Y-102521336D01*
X167719456Y-102535066D01*
X167781039Y-102634908D01*
X167799500Y-102700004D01*
X167799500Y-102795769D01*
X167779815Y-102862808D01*
X167763182Y-102883450D01*
X167707287Y-102939345D01*
X167615187Y-103088663D01*
X167615185Y-103088668D01*
X167609113Y-103106992D01*
X167560001Y-103255203D01*
X167560001Y-103255204D01*
X167560000Y-103255204D01*
X167549500Y-103357983D01*
X167549500Y-105158001D01*
X167549501Y-105158018D01*
X167560000Y-105260796D01*
X167560001Y-105260799D01*
X167566916Y-105281666D01*
X167615186Y-105427334D01*
X167707288Y-105576656D01*
X167831344Y-105700712D01*
X167980666Y-105792814D01*
X168147203Y-105847999D01*
X168249991Y-105858500D01*
X168996348Y-105858499D01*
X169063387Y-105878183D01*
X169084029Y-105894818D01*
X171162581Y-107973369D01*
X171196066Y-108034692D01*
X171198900Y-108061050D01*
X171198900Y-108888804D01*
X171180439Y-108953900D01*
X171114589Y-109060659D01*
X171114585Y-109060666D01*
X171114586Y-109060666D01*
X171059401Y-109227203D01*
X171059401Y-109227204D01*
X171059400Y-109227204D01*
X171048900Y-109329983D01*
X171048900Y-110380001D01*
X171048901Y-110380019D01*
X171059400Y-110482796D01*
X171059401Y-110482799D01*
X171097304Y-110597181D01*
X171114586Y-110649334D01*
X171180439Y-110756099D01*
X171198900Y-110821195D01*
X171198900Y-114361949D01*
X171179215Y-114428988D01*
X171162585Y-114449625D01*
X171059548Y-114552663D01*
X170999029Y-114613182D01*
X170937706Y-114646666D01*
X170911348Y-114649500D01*
X169917129Y-114649500D01*
X169917123Y-114649501D01*
X169857516Y-114655908D01*
X169722671Y-114706202D01*
X169722664Y-114706206D01*
X169607455Y-114792452D01*
X169607452Y-114792455D01*
X169521206Y-114907664D01*
X169521202Y-114907671D01*
X169470908Y-115042517D01*
X169464501Y-115102116D01*
X169464501Y-115102123D01*
X169464500Y-115102135D01*
X169464500Y-116897870D01*
X169464501Y-116897876D01*
X169470908Y-116957483D01*
X169521202Y-117092328D01*
X169521206Y-117092335D01*
X169607452Y-117207544D01*
X169607455Y-117207547D01*
X169722664Y-117293793D01*
X169722671Y-117293797D01*
X169857517Y-117344091D01*
X169857516Y-117344091D01*
X169864444Y-117344835D01*
X169917127Y-117350500D01*
X171712872Y-117350499D01*
X171772483Y-117344091D01*
X171907331Y-117293796D01*
X172022546Y-117207546D01*
X172108796Y-117092331D01*
X172159091Y-116957483D01*
X172165500Y-116897873D01*
X172165499Y-115903649D01*
X172185183Y-115836611D01*
X172201813Y-115815974D01*
X172624592Y-115393195D01*
X172628259Y-115389815D01*
X172670500Y-115353937D01*
X172719497Y-115289481D01*
X172770241Y-115226354D01*
X172770242Y-115226351D01*
X172770880Y-115225353D01*
X172781806Y-115207738D01*
X172782443Y-115206677D01*
X172782454Y-115206664D01*
X172816466Y-115133147D01*
X172852436Y-115060621D01*
X172852439Y-115060608D01*
X172852852Y-115059486D01*
X172859789Y-115039783D01*
X172860127Y-115038777D01*
X172860132Y-115038767D01*
X172877541Y-114959673D01*
X172897084Y-114881095D01*
X172897083Y-114881095D01*
X172897085Y-114881091D01*
X172897230Y-114880026D01*
X172899771Y-114859277D01*
X172899900Y-114858096D01*
X172899900Y-114777131D01*
X172902093Y-114696164D01*
X172902008Y-114695120D01*
X172899900Y-114672952D01*
X172899900Y-110821195D01*
X172918360Y-110756099D01*
X172984214Y-110649334D01*
X173039399Y-110482797D01*
X173049900Y-110380009D01*
X173049899Y-109329992D01*
X173039399Y-109227203D01*
X172984214Y-109060666D01*
X172925619Y-108965668D01*
X172918361Y-108953900D01*
X172899900Y-108888804D01*
X172899900Y-107694487D01*
X172900105Y-107689452D01*
X172904601Y-107634236D01*
X172893670Y-107554007D01*
X172884913Y-107473484D01*
X172884680Y-107472426D01*
X172879907Y-107452063D01*
X172879627Y-107450936D01*
X172879627Y-107450932D01*
X172851694Y-107374899D01*
X172825844Y-107298179D01*
X172825841Y-107298174D01*
X172825350Y-107297112D01*
X172816330Y-107278286D01*
X172815834Y-107277286D01*
X172787015Y-107232200D01*
X172772206Y-107209031D01*
X172730470Y-107139664D01*
X172730469Y-107139663D01*
X172730468Y-107139661D01*
X172729809Y-107138795D01*
X172716941Y-107122334D01*
X172716202Y-107121414D01*
X172716201Y-107121413D01*
X172716200Y-107121411D01*
X172658939Y-107064150D01*
X172603249Y-107005359D01*
X172602488Y-107004712D01*
X172585281Y-106990492D01*
X169786818Y-104192029D01*
X169753333Y-104130706D01*
X169750499Y-104104348D01*
X169750499Y-103357998D01*
X169750498Y-103357981D01*
X169739999Y-103255203D01*
X169739998Y-103255200D01*
X169692419Y-103111617D01*
X169684814Y-103088666D01*
X169592712Y-102939344D01*
X169536817Y-102883450D01*
X169503333Y-102822127D01*
X169500499Y-102795775D01*
X169500499Y-102686384D01*
X169518960Y-102621289D01*
X169580614Y-102521334D01*
X169635799Y-102354797D01*
X169646300Y-102252009D01*
X169646299Y-101201992D01*
X169635799Y-101099203D01*
X169580614Y-100932666D01*
X169488512Y-100783344D01*
X169364456Y-100659288D01*
X169215134Y-100567186D01*
X169048597Y-100512001D01*
X169048595Y-100512000D01*
X168945816Y-100501500D01*
X168615049Y-100501500D01*
X168548010Y-100481815D01*
X168502255Y-100429011D01*
X168492311Y-100359853D01*
X168521336Y-100296297D01*
X168527354Y-100289833D01*
X170278192Y-98538995D01*
X170281859Y-98535615D01*
X170324100Y-98499737D01*
X170373097Y-98435281D01*
X170423841Y-98372154D01*
X170423842Y-98372151D01*
X170424480Y-98371153D01*
X170435406Y-98353538D01*
X170436043Y-98352477D01*
X170436054Y-98352464D01*
X170470066Y-98278947D01*
X170506036Y-98206421D01*
X170506039Y-98206408D01*
X170506452Y-98205286D01*
X170513389Y-98185583D01*
X170513727Y-98184577D01*
X170513732Y-98184567D01*
X170529154Y-98114500D01*
X170531141Y-98105475D01*
X170535959Y-98086100D01*
X170571240Y-98025792D01*
X170633525Y-97994132D01*
X170703039Y-98001172D01*
X170743975Y-98028343D01*
X170782344Y-98066712D01*
X170931666Y-98158814D01*
X171098203Y-98213999D01*
X171200991Y-98224500D01*
X171851008Y-98224499D01*
X171851016Y-98224498D01*
X171851019Y-98224498D01*
X171907302Y-98218748D01*
X171953797Y-98213999D01*
X172120334Y-98158814D01*
X172269656Y-98066712D01*
X172393712Y-97942656D01*
X172485814Y-97793334D01*
X172540999Y-97626797D01*
X172551500Y-97524009D01*
X172551500Y-97524001D01*
X173650500Y-97524001D01*
X173650501Y-97524018D01*
X173661000Y-97626796D01*
X173661001Y-97626799D01*
X173707648Y-97767568D01*
X173716186Y-97793334D01*
X173807039Y-97940631D01*
X173825500Y-98005727D01*
X173825500Y-99126017D01*
X173807039Y-99191113D01*
X173751189Y-99281659D01*
X173751185Y-99281668D01*
X173739829Y-99315939D01*
X173696001Y-99448203D01*
X173696001Y-99448204D01*
X173696000Y-99448204D01*
X173685500Y-99550983D01*
X173685500Y-100601001D01*
X173685501Y-100601019D01*
X173696000Y-100703796D01*
X173696001Y-100703799D01*
X173731620Y-100811288D01*
X173751186Y-100870334D01*
X173843288Y-101019656D01*
X173967344Y-101143712D01*
X174070124Y-101207107D01*
X174096595Y-101223434D01*
X174143320Y-101275382D01*
X174155499Y-101328973D01*
X174155499Y-101533023D01*
X174135814Y-101600062D01*
X174083010Y-101645817D01*
X174055865Y-101653266D01*
X174056068Y-101654124D01*
X174048520Y-101655907D01*
X173913671Y-101706202D01*
X173913664Y-101706206D01*
X173798455Y-101792452D01*
X173798452Y-101792455D01*
X173712206Y-101907664D01*
X173712202Y-101907671D01*
X173661908Y-102042517D01*
X173655501Y-102102116D01*
X173655501Y-102102123D01*
X173655500Y-102102135D01*
X173655500Y-103897870D01*
X173655501Y-103897876D01*
X173661908Y-103957483D01*
X173712202Y-104092328D01*
X173712206Y-104092335D01*
X173798452Y-104207544D01*
X173798455Y-104207547D01*
X173913664Y-104293793D01*
X173913671Y-104293797D01*
X174048517Y-104344091D01*
X174048516Y-104344091D01*
X174055444Y-104344835D01*
X174108127Y-104350500D01*
X175903872Y-104350499D01*
X175963483Y-104344091D01*
X176098331Y-104293796D01*
X176213546Y-104207546D01*
X176299796Y-104092331D01*
X176350091Y-103957483D01*
X176356500Y-103897873D01*
X176356499Y-102102128D01*
X176350091Y-102042517D01*
X176321011Y-101964550D01*
X176299797Y-101907671D01*
X176299793Y-101907664D01*
X176213547Y-101792455D01*
X176213544Y-101792452D01*
X176098335Y-101706206D01*
X176098328Y-101706202D01*
X175963482Y-101655908D01*
X175955938Y-101654126D01*
X175956474Y-101651853D01*
X175902688Y-101629571D01*
X175862843Y-101572177D01*
X175856500Y-101533024D01*
X175856500Y-100433087D01*
X175856705Y-100428052D01*
X175861201Y-100372836D01*
X175850270Y-100292607D01*
X175844042Y-100235336D01*
X175841514Y-100212090D01*
X175841513Y-100212088D01*
X175841513Y-100212084D01*
X175841280Y-100211026D01*
X175836497Y-100190621D01*
X175836227Y-100189532D01*
X175808299Y-100113513D01*
X175808299Y-100113512D01*
X175782444Y-100036779D01*
X175782441Y-100036775D01*
X175782441Y-100036773D01*
X175782006Y-100035831D01*
X175772895Y-100016818D01*
X175772432Y-100015884D01*
X175728822Y-99947658D01*
X175704248Y-99906814D01*
X175686499Y-99842887D01*
X175686499Y-99550998D01*
X175686498Y-99550981D01*
X175675999Y-99448203D01*
X175675998Y-99448200D01*
X175654890Y-99384500D01*
X175620814Y-99281666D01*
X175596067Y-99241544D01*
X175544961Y-99158687D01*
X175526500Y-99093591D01*
X175526500Y-98005727D01*
X175544960Y-97940631D01*
X175635814Y-97793334D01*
X175690999Y-97626797D01*
X175701500Y-97524009D01*
X175701499Y-96023992D01*
X175699538Y-96004799D01*
X175690999Y-95921203D01*
X175690998Y-95921200D01*
X175684636Y-95902001D01*
X175635814Y-95754666D01*
X175543712Y-95605344D01*
X175419656Y-95481288D01*
X175290576Y-95401671D01*
X175270336Y-95389187D01*
X175270331Y-95389185D01*
X175258788Y-95385360D01*
X175103797Y-95334001D01*
X175103795Y-95334000D01*
X175001010Y-95323500D01*
X174350998Y-95323500D01*
X174350980Y-95323501D01*
X174248203Y-95334000D01*
X174248200Y-95334001D01*
X174081668Y-95389185D01*
X174081663Y-95389187D01*
X173932342Y-95481289D01*
X173808289Y-95605342D01*
X173716187Y-95754663D01*
X173716185Y-95754666D01*
X173716186Y-95754666D01*
X173661001Y-95921203D01*
X173661001Y-95921204D01*
X173661000Y-95921204D01*
X173650500Y-96023983D01*
X173650500Y-97524001D01*
X172551500Y-97524001D01*
X172551499Y-96023992D01*
X172549538Y-96004799D01*
X172540999Y-95921203D01*
X172540998Y-95921200D01*
X172534636Y-95902001D01*
X172485814Y-95754666D01*
X172409844Y-95631499D01*
X172396961Y-95610611D01*
X172378500Y-95545515D01*
X172378500Y-95344230D01*
X172398185Y-95277191D01*
X172414820Y-95256548D01*
X172445709Y-95225659D01*
X172445709Y-95225658D01*
X172445712Y-95225656D01*
X172537814Y-95076334D01*
X172592999Y-94909797D01*
X172603500Y-94807009D01*
X172603499Y-93406992D01*
X172603244Y-93404500D01*
X172592999Y-93304203D01*
X172592998Y-93304200D01*
X172537814Y-93137666D01*
X172445712Y-92988344D01*
X172321656Y-92864288D01*
X172222410Y-92803073D01*
X172172336Y-92772187D01*
X172172331Y-92772185D01*
X172116423Y-92753659D01*
X172005797Y-92717001D01*
X172005795Y-92717000D01*
X171903010Y-92706500D01*
X171152998Y-92706500D01*
X171152980Y-92706501D01*
X171050203Y-92717000D01*
X171050200Y-92717001D01*
X170883668Y-92772185D01*
X170883659Y-92772189D01*
X170742596Y-92859198D01*
X170675204Y-92877638D01*
X170608541Y-92856715D01*
X170563771Y-92803073D01*
X170553500Y-92753659D01*
X170553500Y-90746087D01*
X170553705Y-90741052D01*
X170555186Y-90722854D01*
X170558201Y-90685833D01*
X170547272Y-90605623D01*
X170538514Y-90525090D01*
X170538511Y-90525081D01*
X170538293Y-90524091D01*
X170533493Y-90503608D01*
X170533225Y-90502529D01*
X170505305Y-90426530D01*
X170479444Y-90349779D01*
X170478980Y-90348776D01*
X170469947Y-90329923D01*
X170469434Y-90328891D01*
X170469432Y-90328884D01*
X170425822Y-90260658D01*
X170384070Y-90191264D01*
X170384068Y-90191262D01*
X170384067Y-90191260D01*
X170383455Y-90190455D01*
X170370503Y-90173889D01*
X170369803Y-90173018D01*
X170369799Y-90173011D01*
X170312557Y-90115769D01*
X170286337Y-90088089D01*
X170256848Y-90056957D01*
X170256108Y-90056328D01*
X170238875Y-90042087D01*
X169383136Y-89186348D01*
X168371107Y-88174318D01*
X168367704Y-88170626D01*
X168331836Y-88128399D01*
X168267391Y-88079409D01*
X168204259Y-88028662D01*
X168204258Y-88028661D01*
X168204254Y-88028658D01*
X168204248Y-88028655D01*
X168203354Y-88028083D01*
X168185519Y-88017020D01*
X168184564Y-88016446D01*
X168111060Y-87982439D01*
X168038527Y-87946466D01*
X168037481Y-87946082D01*
X168017660Y-87939102D01*
X168016664Y-87938766D01*
X167937573Y-87921358D01*
X167858994Y-87901815D01*
X167858084Y-87901691D01*
X167837006Y-87899110D01*
X167836001Y-87899001D01*
X167835997Y-87899000D01*
X167835992Y-87899000D01*
X167755031Y-87899000D01*
X167674064Y-87896806D01*
X167673020Y-87896891D01*
X167650852Y-87899000D01*
X167598500Y-87899000D01*
X167531461Y-87879315D01*
X167485706Y-87826511D01*
X167474500Y-87775000D01*
X167474500Y-85508087D01*
X167474705Y-85503052D01*
X167479201Y-85447836D01*
X167468270Y-85367607D01*
X167459513Y-85287084D01*
X167459280Y-85286026D01*
X167454497Y-85265621D01*
X167454227Y-85264532D01*
X167426299Y-85188513D01*
X167400444Y-85111779D01*
X167400441Y-85111775D01*
X167400441Y-85111773D01*
X167400006Y-85110831D01*
X167390895Y-85091818D01*
X167390433Y-85090887D01*
X167390432Y-85090884D01*
X167346815Y-85022646D01*
X167305070Y-84953264D01*
X167305069Y-84953263D01*
X167305068Y-84953261D01*
X167304457Y-84952458D01*
X167291493Y-84935874D01*
X167290804Y-84935018D01*
X167290800Y-84935011D01*
X167233539Y-84877750D01*
X167177849Y-84818959D01*
X167177088Y-84818312D01*
X167159881Y-84804092D01*
X166235607Y-83879818D01*
X166232204Y-83876126D01*
X166196336Y-83833899D01*
X166131891Y-83784909D01*
X166068759Y-83734162D01*
X166068758Y-83734161D01*
X166068754Y-83734158D01*
X166068748Y-83734155D01*
X166067854Y-83733583D01*
X166050019Y-83722520D01*
X166049064Y-83721946D01*
X165975560Y-83687939D01*
X165903027Y-83651966D01*
X165901981Y-83651582D01*
X165882160Y-83644602D01*
X165881164Y-83644266D01*
X165802073Y-83626858D01*
X165723494Y-83607315D01*
X165722584Y-83607191D01*
X165701506Y-83604610D01*
X165700501Y-83604501D01*
X165700497Y-83604500D01*
X165700492Y-83604500D01*
X165619531Y-83604500D01*
X165538564Y-83602306D01*
X165537520Y-83602391D01*
X165515352Y-83604500D01*
X160631087Y-83604500D01*
X160626052Y-83604295D01*
X160570835Y-83599798D01*
X160570828Y-83599799D01*
X160490607Y-83610729D01*
X160410092Y-83619485D01*
X160409131Y-83619697D01*
X160388471Y-83624538D01*
X160387534Y-83624771D01*
X160311513Y-83652700D01*
X160234784Y-83678553D01*
X160233920Y-83678953D01*
X160214704Y-83688160D01*
X160213885Y-83688566D01*
X160145646Y-83732184D01*
X160076259Y-83773933D01*
X160075494Y-83774515D01*
X160058791Y-83787572D01*
X160058012Y-83788199D01*
X160000750Y-83845459D01*
X159941956Y-83901153D01*
X159941322Y-83901899D01*
X159927093Y-83919116D01*
X157568028Y-86278181D01*
X157506705Y-86311666D01*
X157480347Y-86314500D01*
X157208999Y-86314500D01*
X157208980Y-86314501D01*
X157106203Y-86325000D01*
X157106200Y-86325001D01*
X156939668Y-86380185D01*
X156939659Y-86380189D01*
X156832900Y-86446039D01*
X156767804Y-86464500D01*
X156168302Y-86464500D01*
X156103206Y-86446039D01*
X155988340Y-86375189D01*
X155988335Y-86375187D01*
X155988334Y-86375186D01*
X155821797Y-86320001D01*
X155821795Y-86320000D01*
X155719010Y-86309500D01*
X154668998Y-86309500D01*
X154668980Y-86309501D01*
X154566203Y-86320000D01*
X154566200Y-86320001D01*
X154399668Y-86375185D01*
X154399659Y-86375189D01*
X154284794Y-86446039D01*
X154219698Y-86464500D01*
X153620196Y-86464500D01*
X153555100Y-86446039D01*
X153448340Y-86380189D01*
X153448335Y-86380187D01*
X153448334Y-86380186D01*
X153281797Y-86325001D01*
X153281795Y-86325000D01*
X153179010Y-86314500D01*
X152128998Y-86314500D01*
X152128980Y-86314501D01*
X152026203Y-86325000D01*
X152026200Y-86325001D01*
X151859668Y-86380185D01*
X151859663Y-86380187D01*
X151710342Y-86472289D01*
X151586289Y-86596342D01*
X151494187Y-86745663D01*
X151494185Y-86745666D01*
X151494186Y-86745666D01*
X151439001Y-86912203D01*
X151439001Y-86912204D01*
X151439000Y-86912204D01*
X151428500Y-87014983D01*
X151428500Y-87615001D01*
X151428501Y-87615019D01*
X151439000Y-87717796D01*
X151439001Y-87717799D01*
X151494185Y-87884331D01*
X151494187Y-87884336D01*
X151501879Y-87896806D01*
X151586288Y-88033656D01*
X151710344Y-88157712D01*
X151713174Y-88159458D01*
X151714708Y-88161163D01*
X151716011Y-88162193D01*
X151715835Y-88162415D01*
X151759901Y-88211401D01*
X151771127Y-88280363D01*
X151743288Y-88344447D01*
X151713190Y-88370531D01*
X151710351Y-88372282D01*
X151710343Y-88372288D01*
X151586289Y-88496342D01*
X151494187Y-88645663D01*
X151494185Y-88645666D01*
X151494186Y-88645666D01*
X151439001Y-88812203D01*
X151439001Y-88812204D01*
X151439000Y-88812204D01*
X151428500Y-88914983D01*
X151428500Y-89515001D01*
X151428501Y-89515019D01*
X151439000Y-89617796D01*
X151439001Y-89617799D01*
X151464891Y-89695929D01*
X151494186Y-89784334D01*
X151586288Y-89933656D01*
X151710344Y-90057712D01*
X151729594Y-90069585D01*
X151776320Y-90121530D01*
X151788500Y-90175125D01*
X151788500Y-92951870D01*
X151788501Y-92951876D01*
X151794908Y-93011483D01*
X151845202Y-93146328D01*
X151845206Y-93146335D01*
X151931452Y-93261544D01*
X151931455Y-93261547D01*
X152046664Y-93347793D01*
X152046671Y-93347797D01*
X152181517Y-93398091D01*
X152181516Y-93398091D01*
X152188444Y-93398835D01*
X152241127Y-93404500D01*
X153036872Y-93404499D01*
X153096483Y-93398091D01*
X153230669Y-93348042D01*
X153300358Y-93343059D01*
X153317321Y-93348039D01*
X153451517Y-93398091D01*
X153511127Y-93404500D01*
X154306872Y-93404499D01*
X154366483Y-93398091D01*
X154500669Y-93348042D01*
X154570358Y-93343059D01*
X154587321Y-93348039D01*
X154721517Y-93398091D01*
X154781127Y-93404500D01*
X155576872Y-93404499D01*
X155636483Y-93398091D01*
X155770669Y-93348042D01*
X155840357Y-93343059D01*
X155857328Y-93348041D01*
X155991517Y-93398091D01*
X155991516Y-93398091D01*
X155998444Y-93398835D01*
X156051127Y-93404500D01*
X156846872Y-93404499D01*
X156906483Y-93398091D01*
X157040669Y-93348042D01*
X157110358Y-93343059D01*
X157127321Y-93348039D01*
X157261517Y-93398091D01*
X157321127Y-93404500D01*
X157644500Y-93404499D01*
X157711539Y-93424183D01*
X157757294Y-93476987D01*
X157768500Y-93528499D01*
X157768500Y-93851869D01*
X157768501Y-93851876D01*
X157774908Y-93911483D01*
X157824956Y-94045666D01*
X157829940Y-94115357D01*
X157824956Y-94132332D01*
X157774908Y-94266517D01*
X157768501Y-94326116D01*
X157768500Y-94326135D01*
X157768500Y-95121870D01*
X157768501Y-95121876D01*
X157774909Y-95181484D01*
X157824955Y-95315668D01*
X157829939Y-95385360D01*
X157824955Y-95402332D01*
X157774909Y-95536514D01*
X157774908Y-95536516D01*
X157768514Y-95595998D01*
X157768501Y-95596123D01*
X157768500Y-95596135D01*
X157768500Y-96391870D01*
X157768501Y-96391876D01*
X157774908Y-96451483D01*
X157825202Y-96586328D01*
X157825206Y-96586335D01*
X157911452Y-96701544D01*
X157911455Y-96701547D01*
X158026664Y-96787793D01*
X158026671Y-96787797D01*
X158161517Y-96838091D01*
X158161516Y-96838091D01*
X158168444Y-96838835D01*
X158221127Y-96844500D01*
X159129000Y-96844499D01*
X159129014Y-96844500D01*
X159139003Y-96844500D01*
X163643913Y-96844500D01*
X163688529Y-96854390D01*
X163688811Y-96853542D01*
X163695664Y-96855812D01*
X163695666Y-96855814D01*
X163862203Y-96910999D01*
X163964991Y-96921500D01*
X164965008Y-96921499D01*
X164965016Y-96921498D01*
X164965019Y-96921498D01*
X165021302Y-96915748D01*
X165067797Y-96910999D01*
X165234334Y-96855814D01*
X165361366Y-96777460D01*
X165426461Y-96759000D01*
X165662539Y-96759000D01*
X165727633Y-96777460D01*
X165854666Y-96855814D01*
X166021203Y-96910999D01*
X166123991Y-96921500D01*
X167124008Y-96921499D01*
X167124016Y-96921498D01*
X167124019Y-96921498D01*
X167180302Y-96915748D01*
X167226797Y-96910999D01*
X167393334Y-96855814D01*
X167542656Y-96763712D01*
X167666712Y-96639656D01*
X167758814Y-96490334D01*
X167813999Y-96323797D01*
X167824500Y-96221009D01*
X167824499Y-95595992D01*
X167824112Y-95592211D01*
X167823839Y-95589527D01*
X167836609Y-95520835D01*
X167884490Y-95469951D01*
X167952281Y-95453031D01*
X167986190Y-95459218D01*
X168100203Y-95496999D01*
X168202991Y-95507500D01*
X168728500Y-95507499D01*
X168795539Y-95527183D01*
X168841294Y-95579987D01*
X168852500Y-95631499D01*
X168852500Y-97507749D01*
X168832815Y-97574788D01*
X168816181Y-97595430D01*
X165444430Y-100967181D01*
X165383107Y-101000666D01*
X165356749Y-101003500D01*
X165327958Y-101003500D01*
X165260919Y-100983815D01*
X165222420Y-100944598D01*
X165216712Y-100935344D01*
X165092657Y-100811289D01*
X165092656Y-100811288D01*
X164943334Y-100719186D01*
X164776797Y-100664001D01*
X164776795Y-100664000D01*
X164674010Y-100653500D01*
X164048998Y-100653500D01*
X164048980Y-100653501D01*
X163946203Y-100664000D01*
X163946200Y-100664001D01*
X163779668Y-100719185D01*
X163779663Y-100719187D01*
X163630345Y-100811287D01*
X163561181Y-100880451D01*
X163499857Y-100913935D01*
X163430166Y-100908950D01*
X163374232Y-100867079D01*
X163349816Y-100801614D01*
X163349500Y-100792769D01*
X163349500Y-100407195D01*
X163367960Y-100342099D01*
X163433814Y-100235334D01*
X163488999Y-100068797D01*
X163499500Y-99966009D01*
X163499499Y-98915992D01*
X163488999Y-98813203D01*
X163433814Y-98646666D01*
X163341712Y-98497344D01*
X163217656Y-98373288D01*
X163078569Y-98287499D01*
X163068336Y-98281187D01*
X163068331Y-98281185D01*
X162992768Y-98256146D01*
X162901797Y-98226001D01*
X162901795Y-98226000D01*
X162799016Y-98215500D01*
X162799009Y-98215500D01*
X162527651Y-98215500D01*
X162460612Y-98195815D01*
X162439970Y-98179181D01*
X162337306Y-98076517D01*
X162219607Y-97958818D01*
X162216204Y-97955126D01*
X162180336Y-97912899D01*
X162115891Y-97863909D01*
X162052759Y-97813162D01*
X162052758Y-97813161D01*
X162052754Y-97813158D01*
X162052748Y-97813155D01*
X162051854Y-97812583D01*
X162034019Y-97801520D01*
X162033064Y-97800946D01*
X161959560Y-97766939D01*
X161887027Y-97730966D01*
X161885981Y-97730582D01*
X161866160Y-97723602D01*
X161865164Y-97723266D01*
X161786073Y-97705858D01*
X161707494Y-97686315D01*
X161706584Y-97686191D01*
X161685506Y-97683610D01*
X161684501Y-97683501D01*
X161684497Y-97683500D01*
X161684492Y-97683500D01*
X161603531Y-97683500D01*
X161522564Y-97681306D01*
X161521520Y-97681391D01*
X161499352Y-97683500D01*
X158221129Y-97683500D01*
X158221123Y-97683501D01*
X158161516Y-97689908D01*
X158026671Y-97740202D01*
X158026664Y-97740206D01*
X157911455Y-97826452D01*
X157911452Y-97826455D01*
X157825206Y-97941664D01*
X157825202Y-97941671D01*
X157774908Y-98076517D01*
X157768501Y-98136116D01*
X157768500Y-98136135D01*
X157768500Y-98931870D01*
X157768501Y-98931876D01*
X157774908Y-98991483D01*
X157825202Y-99126328D01*
X157825206Y-99126335D01*
X157911452Y-99241544D01*
X157911455Y-99241547D01*
X158026664Y-99327793D01*
X158026671Y-99327797D01*
X158161517Y-99378091D01*
X158161516Y-99378091D01*
X158168444Y-99378835D01*
X158221127Y-99384500D01*
X159129000Y-99384499D01*
X159129014Y-99384500D01*
X159139003Y-99384500D01*
X161188349Y-99384500D01*
X161255388Y-99404185D01*
X161276030Y-99420819D01*
X161462181Y-99606970D01*
X161495666Y-99668293D01*
X161498500Y-99694651D01*
X161498500Y-99966000D01*
X161498501Y-99966019D01*
X161509000Y-100068796D01*
X161509001Y-100068799D01*
X161552829Y-100201060D01*
X161564186Y-100235334D01*
X161630039Y-100342099D01*
X161648500Y-100407195D01*
X161648500Y-100953336D01*
X161630039Y-101018432D01*
X161589189Y-101084659D01*
X161589185Y-101084666D01*
X161589186Y-101084666D01*
X161534001Y-101251203D01*
X161534001Y-101251204D01*
X161534000Y-101251204D01*
X161523500Y-101353983D01*
X161523500Y-102354001D01*
X161523501Y-102354019D01*
X161534000Y-102456796D01*
X161534001Y-102456799D01*
X161589185Y-102623331D01*
X161589187Y-102623336D01*
X161624069Y-102679888D01*
X161681288Y-102772656D01*
X161805344Y-102896712D01*
X161954666Y-102988814D01*
X162121203Y-103043999D01*
X162223991Y-103054500D01*
X162849008Y-103054499D01*
X162883569Y-103050968D01*
X162952259Y-103063737D01*
X163003144Y-103111617D01*
X163020066Y-103179406D01*
X163013876Y-103213328D01*
X163000002Y-103255197D01*
X163000000Y-103255204D01*
X162989500Y-103357983D01*
X162989500Y-104104348D01*
X162969815Y-104171387D01*
X162953181Y-104192029D01*
X161987030Y-105158181D01*
X161925707Y-105191666D01*
X161899349Y-105194500D01*
X161068230Y-105194500D01*
X161001191Y-105174815D01*
X160980549Y-105158181D01*
X160963657Y-105141289D01*
X160963656Y-105141288D01*
X160866643Y-105081450D01*
X160814336Y-105049187D01*
X160814331Y-105049185D01*
X160812862Y-105048698D01*
X160647797Y-104994001D01*
X160647795Y-104994000D01*
X160545010Y-104983500D01*
X159494998Y-104983500D01*
X159494980Y-104983501D01*
X159392203Y-104994000D01*
X159392200Y-104994001D01*
X159225668Y-105049185D01*
X159225663Y-105049187D01*
X159076342Y-105141289D01*
X159059451Y-105158181D01*
X158998128Y-105191666D01*
X158971770Y-105194500D01*
X157883651Y-105194500D01*
X157816612Y-105174815D01*
X157795970Y-105158181D01*
X157416819Y-104779030D01*
X157383334Y-104717707D01*
X157380500Y-104691349D01*
X157380500Y-104598195D01*
X157398960Y-104533099D01*
X157464814Y-104426334D01*
X157519999Y-104259797D01*
X157530500Y-104157009D01*
X157530499Y-103106992D01*
X157526080Y-103063737D01*
X157519999Y-103004203D01*
X157519998Y-103004200D01*
X157473145Y-102862808D01*
X157464814Y-102837666D01*
X157424716Y-102772657D01*
X157398961Y-102730900D01*
X157380500Y-102665804D01*
X157380500Y-99022087D01*
X157380705Y-99017052D01*
X157385201Y-98961836D01*
X157381118Y-98931872D01*
X157374270Y-98881607D01*
X157365514Y-98801090D01*
X157365513Y-98801088D01*
X157365513Y-98801084D01*
X157365280Y-98800026D01*
X157360497Y-98779621D01*
X157360227Y-98778532D01*
X157332299Y-98702513D01*
X157313482Y-98646668D01*
X157306444Y-98625779D01*
X157306441Y-98625775D01*
X157306441Y-98625773D01*
X157306006Y-98624831D01*
X157296895Y-98605818D01*
X157296432Y-98604884D01*
X157253190Y-98537234D01*
X157252822Y-98536658D01*
X157211070Y-98467264D01*
X157211068Y-98467262D01*
X157211067Y-98467260D01*
X157210455Y-98466455D01*
X157197503Y-98449889D01*
X157196803Y-98449018D01*
X157196799Y-98449011D01*
X157139555Y-98391767D01*
X157122051Y-98373288D01*
X157083848Y-98332957D01*
X157083108Y-98332328D01*
X157065875Y-98318087D01*
X156906600Y-98158812D01*
X156706608Y-97958819D01*
X156703215Y-97955139D01*
X156667337Y-97912900D01*
X156602891Y-97863909D01*
X156539754Y-97813158D01*
X156539748Y-97813155D01*
X156538854Y-97812583D01*
X156521019Y-97801520D01*
X156520064Y-97800946D01*
X156446560Y-97766939D01*
X156374027Y-97730966D01*
X156372981Y-97730582D01*
X156353160Y-97723602D01*
X156352164Y-97723266D01*
X156273073Y-97705858D01*
X156194494Y-97686315D01*
X156193584Y-97686191D01*
X156172506Y-97683610D01*
X156171501Y-97683501D01*
X156171497Y-97683500D01*
X156171492Y-97683500D01*
X156090531Y-97683500D01*
X156009564Y-97681306D01*
X156008520Y-97681391D01*
X155986352Y-97683500D01*
X153046087Y-97683500D01*
X153041052Y-97683295D01*
X152985835Y-97678798D01*
X152985828Y-97678799D01*
X152905607Y-97689729D01*
X152825092Y-97698485D01*
X152824131Y-97698697D01*
X152803471Y-97703538D01*
X152802534Y-97703771D01*
X152756256Y-97720772D01*
X152686540Y-97725411D01*
X152625384Y-97691622D01*
X152592204Y-97630134D01*
X152589499Y-97604385D01*
X152589499Y-96866128D01*
X152583091Y-96806517D01*
X152533042Y-96672330D01*
X152528059Y-96602642D01*
X152533039Y-96585678D01*
X152583091Y-96451483D01*
X152589500Y-96391873D01*
X152589499Y-95596128D01*
X152583091Y-95536517D01*
X152572268Y-95507500D01*
X152532797Y-95401671D01*
X152532793Y-95401664D01*
X152446547Y-95286455D01*
X152446544Y-95286452D01*
X152331335Y-95200206D01*
X152331328Y-95200202D01*
X152196482Y-95149908D01*
X152196483Y-95149908D01*
X152136883Y-95143501D01*
X152136881Y-95143500D01*
X152136873Y-95143500D01*
X152136865Y-95143500D01*
X149140499Y-95143500D01*
X149073460Y-95123815D01*
X149027705Y-95071011D01*
X149016499Y-95019500D01*
X149016499Y-94851998D01*
X149016498Y-94851981D01*
X149005999Y-94749203D01*
X149005998Y-94749200D01*
X148950814Y-94582666D01*
X148858712Y-94433344D01*
X148734656Y-94309288D01*
X148585334Y-94217186D01*
X148418797Y-94162001D01*
X148418795Y-94162000D01*
X148316010Y-94151500D01*
X147715998Y-94151500D01*
X147715980Y-94151501D01*
X147613203Y-94162000D01*
X147613200Y-94162001D01*
X147446668Y-94217185D01*
X147446663Y-94217187D01*
X147297342Y-94309289D01*
X147178181Y-94428451D01*
X147116858Y-94461936D01*
X147047166Y-94456952D01*
X146991233Y-94415080D01*
X146966816Y-94349616D01*
X146966500Y-94340770D01*
X146966500Y-94184195D01*
X146984960Y-94119099D01*
X147050814Y-94012334D01*
X147105999Y-93845797D01*
X147116500Y-93743009D01*
X147116499Y-92692992D01*
X147115872Y-92686858D01*
X147105999Y-92590203D01*
X147105998Y-92590200D01*
X147098370Y-92567181D01*
X147050814Y-92423666D01*
X146958712Y-92274344D01*
X146834656Y-92150288D01*
X146685334Y-92058186D01*
X146518797Y-92003001D01*
X146518795Y-92003000D01*
X146416010Y-91992500D01*
X145815998Y-91992500D01*
X145815980Y-91992501D01*
X145713203Y-92003000D01*
X145713200Y-92003001D01*
X145546668Y-92058185D01*
X145546663Y-92058187D01*
X145397342Y-92150289D01*
X145273289Y-92274342D01*
X145181187Y-92423663D01*
X145181185Y-92423666D01*
X145181186Y-92423666D01*
X145126001Y-92590203D01*
X145126001Y-92590204D01*
X145126000Y-92590204D01*
X145115500Y-92692983D01*
X145115500Y-93743001D01*
X145115501Y-93743019D01*
X145126000Y-93845796D01*
X145126001Y-93845799D01*
X145147767Y-93911483D01*
X145181186Y-94012334D01*
X145181190Y-94012340D01*
X145203716Y-94048862D01*
X145222156Y-94116255D01*
X145201233Y-94182918D01*
X145147590Y-94227687D01*
X145078260Y-94236348D01*
X145033081Y-94219497D01*
X145029340Y-94217189D01*
X145029335Y-94217187D01*
X145029334Y-94217186D01*
X144862797Y-94162001D01*
X144862795Y-94162000D01*
X144760016Y-94151500D01*
X144230500Y-94151500D01*
X144163461Y-94131815D01*
X144117706Y-94079011D01*
X144106500Y-94027500D01*
X144106500Y-93152308D01*
X144126185Y-93085269D01*
X144142819Y-93064627D01*
X144183382Y-93024064D01*
X144226826Y-92980620D01*
X144353534Y-92799662D01*
X144446894Y-92599450D01*
X144504070Y-92386068D01*
X144523323Y-92166000D01*
X144521948Y-92150289D01*
X144513891Y-92058185D01*
X144504070Y-91945932D01*
X144446894Y-91732550D01*
X144353534Y-91532339D01*
X144245687Y-91378316D01*
X144226827Y-91351381D01*
X144181102Y-91305656D01*
X144070620Y-91195174D01*
X144070616Y-91195171D01*
X144070615Y-91195170D01*
X144034035Y-91169556D01*
X143995499Y-91142573D01*
X143951875Y-91087999D01*
X143944681Y-91018501D01*
X143976203Y-90956146D01*
X143995496Y-90939427D01*
X144070620Y-90886826D01*
X144226826Y-90730620D01*
X144353534Y-90549662D01*
X144446894Y-90349450D01*
X144504070Y-90136068D01*
X144523323Y-89916000D01*
X144504070Y-89695932D01*
X144446894Y-89482550D01*
X144353534Y-89282339D01*
X144226826Y-89101380D01*
X144070620Y-88945174D01*
X144070616Y-88945171D01*
X144070615Y-88945170D01*
X143889666Y-88818468D01*
X143889662Y-88818466D01*
X143771857Y-88763533D01*
X143689450Y-88725106D01*
X143689447Y-88725105D01*
X143689445Y-88725104D01*
X143476070Y-88667930D01*
X143476062Y-88667929D01*
X143256002Y-88648677D01*
X143255998Y-88648677D01*
X143035937Y-88667929D01*
X143035929Y-88667930D01*
X142822554Y-88725104D01*
X142822548Y-88725107D01*
X142622340Y-88818465D01*
X142622338Y-88818466D01*
X142441377Y-88945175D01*
X142285175Y-89101377D01*
X142158466Y-89282338D01*
X142158465Y-89282340D01*
X142065107Y-89482548D01*
X142065104Y-89482554D01*
X142007930Y-89695929D01*
X142007929Y-89695937D01*
X141988677Y-89915997D01*
X141988677Y-89916002D01*
X142007929Y-90136062D01*
X142007930Y-90136070D01*
X142065104Y-90349445D01*
X142065105Y-90349447D01*
X142065106Y-90349450D01*
X142136488Y-90502529D01*
X142158466Y-90549662D01*
X142158468Y-90549666D01*
X142285170Y-90730615D01*
X142285174Y-90730620D01*
X142441380Y-90886826D01*
X142505334Y-90931607D01*
X142516499Y-90939425D01*
X142560124Y-90994002D01*
X142567316Y-91063501D01*
X142535794Y-91125855D01*
X142516499Y-91142575D01*
X142441375Y-91195177D01*
X142285175Y-91351377D01*
X142158466Y-91532338D01*
X142158465Y-91532340D01*
X142065107Y-91732548D01*
X142065104Y-91732554D01*
X142007930Y-91945929D01*
X142007929Y-91945937D01*
X141988677Y-92165997D01*
X141988677Y-92166002D01*
X142007929Y-92386062D01*
X142007930Y-92386070D01*
X142065104Y-92599445D01*
X142065105Y-92599447D01*
X142065106Y-92599450D01*
X142119920Y-92717000D01*
X142158466Y-92799662D01*
X142158468Y-92799666D01*
X142285170Y-92980615D01*
X142285175Y-92980621D01*
X142369181Y-93064627D01*
X142402666Y-93125950D01*
X142405500Y-93152308D01*
X142405500Y-94027500D01*
X142385815Y-94094539D01*
X142333011Y-94140294D01*
X142281505Y-94151500D01*
X142260001Y-94151500D01*
X142259980Y-94151501D01*
X142157203Y-94162000D01*
X142157200Y-94162001D01*
X141990668Y-94217185D01*
X141990663Y-94217187D01*
X141841342Y-94309289D01*
X141717289Y-94433342D01*
X141625187Y-94582663D01*
X141625185Y-94582666D01*
X141625186Y-94582666D01*
X141570001Y-94749203D01*
X141570001Y-94749204D01*
X141570000Y-94749204D01*
X141559500Y-94851983D01*
X141559500Y-95902001D01*
X141559501Y-95902019D01*
X141570000Y-96004796D01*
X141570001Y-96004799D01*
X141610000Y-96125505D01*
X141625186Y-96171334D01*
X141691039Y-96278099D01*
X141709500Y-96343195D01*
X141709500Y-96569804D01*
X141691039Y-96634900D01*
X141625189Y-96741659D01*
X141625185Y-96741668D01*
X141610000Y-96787494D01*
X141570001Y-96908203D01*
X141570001Y-96908204D01*
X141570000Y-96908204D01*
X141559500Y-97010983D01*
X141559500Y-98061001D01*
X137000500Y-98061001D01*
X137000500Y-92166002D01*
X137488677Y-92166002D01*
X137507929Y-92386062D01*
X137507930Y-92386070D01*
X137565104Y-92599445D01*
X137565105Y-92599447D01*
X137565106Y-92599450D01*
X137619920Y-92717000D01*
X137658466Y-92799662D01*
X137658468Y-92799666D01*
X137785170Y-92980615D01*
X137785175Y-92980621D01*
X137941378Y-93136824D01*
X137941384Y-93136829D01*
X138122333Y-93263531D01*
X138122335Y-93263532D01*
X138122338Y-93263534D01*
X138322550Y-93356894D01*
X138535932Y-93414070D01*
X138693123Y-93427822D01*
X138755998Y-93433323D01*
X138756000Y-93433323D01*
X138756002Y-93433323D01*
X138811017Y-93428509D01*
X138976068Y-93414070D01*
X139189450Y-93356894D01*
X139389662Y-93263534D01*
X139570620Y-93136826D01*
X139726826Y-92980620D01*
X139853534Y-92799662D01*
X139946894Y-92599450D01*
X140004070Y-92386068D01*
X140023323Y-92166000D01*
X140021948Y-92150289D01*
X140013891Y-92058185D01*
X140004070Y-91945932D01*
X139946894Y-91732550D01*
X139853534Y-91532339D01*
X139745687Y-91378316D01*
X139726827Y-91351381D01*
X139681102Y-91305656D01*
X139570620Y-91195174D01*
X139570616Y-91195171D01*
X139570615Y-91195170D01*
X139389666Y-91068468D01*
X139389662Y-91068466D01*
X139359349Y-91054331D01*
X139189450Y-90975106D01*
X139189447Y-90975105D01*
X139189445Y-90975104D01*
X138976070Y-90917930D01*
X138976062Y-90917929D01*
X138756002Y-90898677D01*
X138755998Y-90898677D01*
X138535937Y-90917929D01*
X138535929Y-90917930D01*
X138322554Y-90975104D01*
X138322548Y-90975107D01*
X138122340Y-91068465D01*
X138122338Y-91068466D01*
X137941377Y-91195175D01*
X137785175Y-91351377D01*
X137658466Y-91532338D01*
X137658465Y-91532340D01*
X137565107Y-91732548D01*
X137565104Y-91732554D01*
X137507930Y-91945929D01*
X137507929Y-91945937D01*
X137488677Y-92165997D01*
X137488677Y-92166002D01*
X137000500Y-92166002D01*
X137000500Y-87666002D01*
X137488677Y-87666002D01*
X137507929Y-87886062D01*
X137507930Y-87886070D01*
X137565104Y-88099445D01*
X137565105Y-88099447D01*
X137565106Y-88099450D01*
X137621050Y-88219422D01*
X137658466Y-88299662D01*
X137658468Y-88299666D01*
X137785170Y-88480615D01*
X137785175Y-88480621D01*
X137941378Y-88636824D01*
X137941384Y-88636829D01*
X138122333Y-88763531D01*
X138122335Y-88763532D01*
X138122338Y-88763534D01*
X138322550Y-88856894D01*
X138535932Y-88914070D01*
X138693123Y-88927822D01*
X138755998Y-88933323D01*
X138756000Y-88933323D01*
X138756002Y-88933323D01*
X138811016Y-88928509D01*
X138976068Y-88914070D01*
X139189450Y-88856894D01*
X139389662Y-88763534D01*
X139570620Y-88636826D01*
X139726826Y-88480620D01*
X139853534Y-88299662D01*
X139946894Y-88099450D01*
X140004070Y-87886068D01*
X140023323Y-87666000D01*
X140018862Y-87615015D01*
X140004070Y-87445937D01*
X140004070Y-87445932D01*
X139946894Y-87232550D01*
X139853534Y-87032339D01*
X139769415Y-86912204D01*
X139726827Y-86851381D01*
X139726823Y-86851377D01*
X139570620Y-86695174D01*
X139570616Y-86695171D01*
X139570615Y-86695170D01*
X139389666Y-86568468D01*
X139389662Y-86568466D01*
X139389661Y-86568465D01*
X139189450Y-86475106D01*
X139189447Y-86475105D01*
X139189445Y-86475104D01*
X138976070Y-86417930D01*
X138976062Y-86417929D01*
X138756002Y-86398677D01*
X138755998Y-86398677D01*
X138535937Y-86417929D01*
X138535929Y-86417930D01*
X138322554Y-86475104D01*
X138322548Y-86475107D01*
X138122340Y-86568465D01*
X138122338Y-86568466D01*
X137941377Y-86695175D01*
X137785175Y-86851377D01*
X137658466Y-87032338D01*
X137658465Y-87032340D01*
X137565107Y-87232548D01*
X137565104Y-87232554D01*
X137507930Y-87445929D01*
X137507929Y-87445937D01*
X137488677Y-87665997D01*
X137488677Y-87666002D01*
X137000500Y-87666002D01*
X137000500Y-83124500D01*
X137020185Y-83057461D01*
X137072989Y-83011706D01*
X137124500Y-83000500D01*
X176875500Y-83000500D01*
X176942539Y-83020185D01*
G37*
%TD.AperFunction*%
%TD*%
M02*
