%TF.GenerationSoftware,KiCad,Pcbnew,7.0.7*%
%TF.CreationDate,2023-08-27T14:56:40-04:00*%
%TF.ProjectId,AD831_Mixer,41443833-315f-44d6-9978-65722e6b6963,rev?*%
%TF.SameCoordinates,PX82a7440PY4f27ac0*%
%TF.FileFunction,Drillmap*%
%TF.FilePolarity,Positive*%
%FSLAX45Y45*%
G04 Gerber Fmt 4.5, Leading zero omitted, Abs format (unit mm)*
G04 Created by KiCad (PCBNEW 7.0.7) date 2023-08-27 14:56:40*
%MOMM*%
%LPD*%
G01*
G04 APERTURE LIST*
%ADD10C,0.100000*%
%ADD11C,0.200000*%
%ADD12C,0.040000*%
%ADD13C,0.076200*%
%ADD14C,0.120000*%
G04 APERTURE END LIST*
D10*
X4000000Y0D02*
X4000000Y-3500000D01*
X0Y0D02*
X4000000Y0D01*
X4000000Y-3500000D02*
X0Y-3500000D01*
X0Y-3500000D02*
X0Y0D01*
D11*
D12*
X161100Y-2703600D02*
X201100Y-2743600D01*
X201100Y-2703600D02*
X161100Y-2743600D01*
X180000Y-180000D02*
X220000Y-220000D01*
X220000Y-180000D02*
X180000Y-220000D01*
X180000Y-3280000D02*
X220000Y-3320000D01*
X220000Y-3280000D02*
X180000Y-3320000D01*
X377000Y-1332000D02*
X417000Y-1372000D01*
X417000Y-1332000D02*
X377000Y-1372000D01*
X846900Y-3122700D02*
X886900Y-3162700D01*
X886900Y-3122700D02*
X846900Y-3162700D01*
X897700Y-443000D02*
X937700Y-483000D01*
X937700Y-443000D02*
X897700Y-483000D01*
X1050100Y-2043200D02*
X1090100Y-2083200D01*
X1090100Y-2043200D02*
X1050100Y-2083200D01*
X1050100Y-2487700D02*
X1090100Y-2527700D01*
X1090100Y-2487700D02*
X1050100Y-2527700D01*
X1180000Y-3280000D02*
X1220000Y-3320000D01*
X1220000Y-3280000D02*
X1180000Y-3320000D01*
X1291400Y-316000D02*
X1331400Y-356000D01*
X1331400Y-316000D02*
X1291400Y-356000D01*
X1291400Y-671600D02*
X1331400Y-711600D01*
X1331400Y-671600D02*
X1291400Y-711600D01*
X1545400Y-2919500D02*
X1585400Y-2959500D01*
X1585400Y-2919500D02*
X1545400Y-2959500D01*
X1799400Y-49300D02*
X1839400Y-89300D01*
X1839400Y-49300D02*
X1799400Y-89300D01*
X2282000Y-2640100D02*
X2322000Y-2680100D01*
X2322000Y-2640100D02*
X2282000Y-2680100D01*
X2282000Y-3275100D02*
X2322000Y-3315100D01*
X2322000Y-3275100D02*
X2282000Y-3315100D01*
X2332800Y-2043200D02*
X2372800Y-2083200D01*
X2372800Y-2043200D02*
X2332800Y-2083200D01*
X2510600Y-404900D02*
X2550600Y-444900D01*
X2550600Y-404900D02*
X2510600Y-444900D01*
X2726500Y-265200D02*
X2766500Y-305200D01*
X2766500Y-265200D02*
X2726500Y-305200D01*
X2726500Y-1459000D02*
X2766500Y-1499000D01*
X2766500Y-1459000D02*
X2726500Y-1499000D01*
X2894140Y-3277640D02*
X2934140Y-3317640D01*
X2934140Y-3277640D02*
X2894140Y-3317640D01*
X3180000Y-180000D02*
X3220000Y-220000D01*
X3220000Y-180000D02*
X3180000Y-220000D01*
X3331020Y-2050820D02*
X3371020Y-2090820D01*
X3371020Y-2050820D02*
X3331020Y-2090820D01*
X3430080Y-1682520D02*
X3470080Y-1722520D01*
X3470080Y-1682520D02*
X3430080Y-1722520D01*
X3780000Y-180000D02*
X3820000Y-220000D01*
X3820000Y-180000D02*
X3780000Y-220000D01*
X3780000Y-3280000D02*
X3820000Y-3320000D01*
X3820000Y-3280000D02*
X3780000Y-3320000D01*
D13*
X210100Y-1939800D02*
G75*
G03*
X210100Y-1939800I-38100J0D01*
G01*
X210100Y-2389800D02*
G75*
G03*
X210100Y-2389800I-38100J0D01*
G01*
X213700Y-466600D02*
G75*
G03*
X213700Y-466600I-38100J0D01*
G01*
X213700Y-916600D02*
G75*
G03*
X213700Y-916600I-38100J0D01*
G01*
X660100Y-1939800D02*
G75*
G03*
X660100Y-1939800I-38100J0D01*
G01*
X660100Y-2164800D02*
G75*
G03*
X660100Y-2164800I-38100J0D01*
G01*
X660100Y-2389800D02*
G75*
G03*
X660100Y-2389800I-38100J0D01*
G01*
X663700Y-466600D02*
G75*
G03*
X663700Y-466600I-38100J0D01*
G01*
X663700Y-691600D02*
G75*
G03*
X663700Y-691600I-38100J0D01*
G01*
X663700Y-916600D02*
G75*
G03*
X663700Y-916600I-38100J0D01*
G01*
D10*
X600000Y-3250000D02*
X600000Y-3350000D01*
X550000Y-3300000D02*
X650000Y-3300000D01*
X854000Y-3250000D02*
X854000Y-3350000D01*
X804000Y-3300000D02*
X904000Y-3300000D01*
X1565400Y-3250000D02*
X1565400Y-3350000D01*
X1515400Y-3300000D02*
X1615400Y-3300000D01*
X1819400Y-3250000D02*
X1819400Y-3350000D01*
X1769400Y-3300000D02*
X1869400Y-3300000D01*
X3127500Y-3250000D02*
X3127500Y-3350000D01*
X3077500Y-3300000D02*
X3177500Y-3300000D01*
X3381500Y-3250000D02*
X3381500Y-3350000D01*
X3331500Y-3300000D02*
X3431500Y-3300000D01*
X3800600Y-1950000D02*
X3800600Y-2050000D01*
X3750600Y-2000000D02*
X3850600Y-2000000D01*
X3800600Y-2204000D02*
X3800600Y-2304000D01*
X3750600Y-2254000D02*
X3850600Y-2254000D01*
D14*
X439427Y-1845227D02*
X439427Y-1760373D01*
X354573Y-1760373D01*
X354573Y-1845227D01*
X439427Y-1845227D01*
X439427Y-2569227D02*
X439427Y-2484373D01*
X354573Y-2484373D01*
X354573Y-2569227D01*
X439427Y-2569227D01*
X443027Y-372027D02*
X443027Y-287173D01*
X358173Y-287173D01*
X358173Y-372027D01*
X443027Y-372027D01*
X443027Y-1096027D02*
X443027Y-1011173D01*
X358173Y-1011173D01*
X358173Y-1096027D01*
X443027Y-1096027D01*
D11*
X255777Y-3816484D02*
X255777Y-3616484D01*
X255777Y-3616484D02*
X303396Y-3616484D01*
X303396Y-3616484D02*
X331967Y-3626008D01*
X331967Y-3626008D02*
X351015Y-3645055D01*
X351015Y-3645055D02*
X360539Y-3664103D01*
X360539Y-3664103D02*
X370062Y-3702198D01*
X370062Y-3702198D02*
X370062Y-3730769D01*
X370062Y-3730769D02*
X360539Y-3768865D01*
X360539Y-3768865D02*
X351015Y-3787912D01*
X351015Y-3787912D02*
X331967Y-3806960D01*
X331967Y-3806960D02*
X303396Y-3816484D01*
X303396Y-3816484D02*
X255777Y-3816484D01*
X455777Y-3816484D02*
X455777Y-3683150D01*
X455777Y-3721246D02*
X465301Y-3702198D01*
X465301Y-3702198D02*
X474824Y-3692674D01*
X474824Y-3692674D02*
X493872Y-3683150D01*
X493872Y-3683150D02*
X512920Y-3683150D01*
X579586Y-3816484D02*
X579586Y-3683150D01*
X579586Y-3616484D02*
X570063Y-3626008D01*
X570063Y-3626008D02*
X579586Y-3635531D01*
X579586Y-3635531D02*
X589110Y-3626008D01*
X589110Y-3626008D02*
X579586Y-3616484D01*
X579586Y-3616484D02*
X579586Y-3635531D01*
X703396Y-3816484D02*
X684348Y-3806960D01*
X684348Y-3806960D02*
X674824Y-3787912D01*
X674824Y-3787912D02*
X674824Y-3616484D01*
X808158Y-3816484D02*
X789110Y-3806960D01*
X789110Y-3806960D02*
X779586Y-3787912D01*
X779586Y-3787912D02*
X779586Y-3616484D01*
X1036729Y-3816484D02*
X1036729Y-3616484D01*
X1036729Y-3616484D02*
X1103396Y-3759341D01*
X1103396Y-3759341D02*
X1170063Y-3616484D01*
X1170063Y-3616484D02*
X1170063Y-3816484D01*
X1351015Y-3816484D02*
X1351015Y-3711722D01*
X1351015Y-3711722D02*
X1341491Y-3692674D01*
X1341491Y-3692674D02*
X1322444Y-3683150D01*
X1322444Y-3683150D02*
X1284348Y-3683150D01*
X1284348Y-3683150D02*
X1265301Y-3692674D01*
X1351015Y-3806960D02*
X1331967Y-3816484D01*
X1331967Y-3816484D02*
X1284348Y-3816484D01*
X1284348Y-3816484D02*
X1265301Y-3806960D01*
X1265301Y-3806960D02*
X1255777Y-3787912D01*
X1255777Y-3787912D02*
X1255777Y-3768865D01*
X1255777Y-3768865D02*
X1265301Y-3749817D01*
X1265301Y-3749817D02*
X1284348Y-3740293D01*
X1284348Y-3740293D02*
X1331967Y-3740293D01*
X1331967Y-3740293D02*
X1351015Y-3730769D01*
X1446253Y-3683150D02*
X1446253Y-3883150D01*
X1446253Y-3692674D02*
X1465301Y-3683150D01*
X1465301Y-3683150D02*
X1503396Y-3683150D01*
X1503396Y-3683150D02*
X1522443Y-3692674D01*
X1522443Y-3692674D02*
X1531967Y-3702198D01*
X1531967Y-3702198D02*
X1541491Y-3721246D01*
X1541491Y-3721246D02*
X1541491Y-3778388D01*
X1541491Y-3778388D02*
X1531967Y-3797436D01*
X1531967Y-3797436D02*
X1522443Y-3806960D01*
X1522443Y-3806960D02*
X1503396Y-3816484D01*
X1503396Y-3816484D02*
X1465301Y-3816484D01*
X1465301Y-3816484D02*
X1446253Y-3806960D01*
X1627205Y-3797436D02*
X1636729Y-3806960D01*
X1636729Y-3806960D02*
X1627205Y-3816484D01*
X1627205Y-3816484D02*
X1617682Y-3806960D01*
X1617682Y-3806960D02*
X1627205Y-3797436D01*
X1627205Y-3797436D02*
X1627205Y-3816484D01*
X1627205Y-3692674D02*
X1636729Y-3702198D01*
X1636729Y-3702198D02*
X1627205Y-3711722D01*
X1627205Y-3711722D02*
X1617682Y-3702198D01*
X1617682Y-3702198D02*
X1627205Y-3692674D01*
X1627205Y-3692674D02*
X1627205Y-3711722D01*
D12*
X-45000Y-4125000D02*
X-5000Y-4165000D01*
X-5000Y-4125000D02*
X-45000Y-4165000D01*
D11*
X293872Y-4036484D02*
X312920Y-4036484D01*
X312920Y-4036484D02*
X331967Y-4046008D01*
X331967Y-4046008D02*
X341491Y-4055531D01*
X341491Y-4055531D02*
X351015Y-4074579D01*
X351015Y-4074579D02*
X360539Y-4112674D01*
X360539Y-4112674D02*
X360539Y-4160293D01*
X360539Y-4160293D02*
X351015Y-4198389D01*
X351015Y-4198389D02*
X341491Y-4217436D01*
X341491Y-4217436D02*
X331967Y-4226960D01*
X331967Y-4226960D02*
X312920Y-4236484D01*
X312920Y-4236484D02*
X293872Y-4236484D01*
X293872Y-4236484D02*
X274824Y-4226960D01*
X274824Y-4226960D02*
X265301Y-4217436D01*
X265301Y-4217436D02*
X255777Y-4198389D01*
X255777Y-4198389D02*
X246253Y-4160293D01*
X246253Y-4160293D02*
X246253Y-4112674D01*
X246253Y-4112674D02*
X255777Y-4074579D01*
X255777Y-4074579D02*
X265301Y-4055531D01*
X265301Y-4055531D02*
X274824Y-4046008D01*
X274824Y-4046008D02*
X293872Y-4036484D01*
X446253Y-4217436D02*
X455777Y-4226960D01*
X455777Y-4226960D02*
X446253Y-4236484D01*
X446253Y-4236484D02*
X436729Y-4226960D01*
X436729Y-4226960D02*
X446253Y-4217436D01*
X446253Y-4217436D02*
X446253Y-4236484D01*
X627205Y-4103150D02*
X627205Y-4236484D01*
X579586Y-4026960D02*
X531967Y-4169817D01*
X531967Y-4169817D02*
X655777Y-4169817D01*
X770062Y-4036484D02*
X789110Y-4036484D01*
X789110Y-4036484D02*
X808158Y-4046008D01*
X808158Y-4046008D02*
X817682Y-4055531D01*
X817682Y-4055531D02*
X827205Y-4074579D01*
X827205Y-4074579D02*
X836729Y-4112674D01*
X836729Y-4112674D02*
X836729Y-4160293D01*
X836729Y-4160293D02*
X827205Y-4198389D01*
X827205Y-4198389D02*
X817682Y-4217436D01*
X817682Y-4217436D02*
X808158Y-4226960D01*
X808158Y-4226960D02*
X789110Y-4236484D01*
X789110Y-4236484D02*
X770062Y-4236484D01*
X770062Y-4236484D02*
X751015Y-4226960D01*
X751015Y-4226960D02*
X741491Y-4217436D01*
X741491Y-4217436D02*
X731967Y-4198389D01*
X731967Y-4198389D02*
X722443Y-4160293D01*
X722443Y-4160293D02*
X722443Y-4112674D01*
X722443Y-4112674D02*
X731967Y-4074579D01*
X731967Y-4074579D02*
X741491Y-4055531D01*
X741491Y-4055531D02*
X751015Y-4046008D01*
X751015Y-4046008D02*
X770062Y-4036484D01*
X960539Y-4036484D02*
X979586Y-4036484D01*
X979586Y-4036484D02*
X998634Y-4046008D01*
X998634Y-4046008D02*
X1008158Y-4055531D01*
X1008158Y-4055531D02*
X1017682Y-4074579D01*
X1017682Y-4074579D02*
X1027205Y-4112674D01*
X1027205Y-4112674D02*
X1027205Y-4160293D01*
X1027205Y-4160293D02*
X1017682Y-4198389D01*
X1017682Y-4198389D02*
X1008158Y-4217436D01*
X1008158Y-4217436D02*
X998634Y-4226960D01*
X998634Y-4226960D02*
X979586Y-4236484D01*
X979586Y-4236484D02*
X960539Y-4236484D01*
X960539Y-4236484D02*
X941491Y-4226960D01*
X941491Y-4226960D02*
X931967Y-4217436D01*
X931967Y-4217436D02*
X922443Y-4198389D01*
X922443Y-4198389D02*
X912920Y-4160293D01*
X912920Y-4160293D02*
X912920Y-4112674D01*
X912920Y-4112674D02*
X922443Y-4074579D01*
X922443Y-4074579D02*
X931967Y-4055531D01*
X931967Y-4055531D02*
X941491Y-4046008D01*
X941491Y-4046008D02*
X960539Y-4036484D01*
X1112920Y-4236484D02*
X1112920Y-4103150D01*
X1112920Y-4122198D02*
X1122444Y-4112674D01*
X1122444Y-4112674D02*
X1141491Y-4103150D01*
X1141491Y-4103150D02*
X1170063Y-4103150D01*
X1170063Y-4103150D02*
X1189110Y-4112674D01*
X1189110Y-4112674D02*
X1198634Y-4131722D01*
X1198634Y-4131722D02*
X1198634Y-4236484D01*
X1198634Y-4131722D02*
X1208158Y-4112674D01*
X1208158Y-4112674D02*
X1227205Y-4103150D01*
X1227205Y-4103150D02*
X1255777Y-4103150D01*
X1255777Y-4103150D02*
X1274825Y-4112674D01*
X1274825Y-4112674D02*
X1284348Y-4131722D01*
X1284348Y-4131722D02*
X1284348Y-4236484D01*
X1379586Y-4236484D02*
X1379586Y-4103150D01*
X1379586Y-4122198D02*
X1389110Y-4112674D01*
X1389110Y-4112674D02*
X1408158Y-4103150D01*
X1408158Y-4103150D02*
X1436729Y-4103150D01*
X1436729Y-4103150D02*
X1455777Y-4112674D01*
X1455777Y-4112674D02*
X1465301Y-4131722D01*
X1465301Y-4131722D02*
X1465301Y-4236484D01*
X1465301Y-4131722D02*
X1474824Y-4112674D01*
X1474824Y-4112674D02*
X1493872Y-4103150D01*
X1493872Y-4103150D02*
X1522443Y-4103150D01*
X1522443Y-4103150D02*
X1541491Y-4112674D01*
X1541491Y-4112674D02*
X1551015Y-4131722D01*
X1551015Y-4131722D02*
X1551015Y-4236484D01*
X1941491Y-4026960D02*
X1770063Y-4284103D01*
X2198634Y-4036484D02*
X2217682Y-4036484D01*
X2217682Y-4036484D02*
X2236729Y-4046008D01*
X2236729Y-4046008D02*
X2246253Y-4055531D01*
X2246253Y-4055531D02*
X2255777Y-4074579D01*
X2255777Y-4074579D02*
X2265301Y-4112674D01*
X2265301Y-4112674D02*
X2265301Y-4160293D01*
X2265301Y-4160293D02*
X2255777Y-4198389D01*
X2255777Y-4198389D02*
X2246253Y-4217436D01*
X2246253Y-4217436D02*
X2236729Y-4226960D01*
X2236729Y-4226960D02*
X2217682Y-4236484D01*
X2217682Y-4236484D02*
X2198634Y-4236484D01*
X2198634Y-4236484D02*
X2179587Y-4226960D01*
X2179587Y-4226960D02*
X2170063Y-4217436D01*
X2170063Y-4217436D02*
X2160539Y-4198389D01*
X2160539Y-4198389D02*
X2151015Y-4160293D01*
X2151015Y-4160293D02*
X2151015Y-4112674D01*
X2151015Y-4112674D02*
X2160539Y-4074579D01*
X2160539Y-4074579D02*
X2170063Y-4055531D01*
X2170063Y-4055531D02*
X2179587Y-4046008D01*
X2179587Y-4046008D02*
X2198634Y-4036484D01*
X2351015Y-4217436D02*
X2360539Y-4226960D01*
X2360539Y-4226960D02*
X2351015Y-4236484D01*
X2351015Y-4236484D02*
X2341491Y-4226960D01*
X2341491Y-4226960D02*
X2351015Y-4217436D01*
X2351015Y-4217436D02*
X2351015Y-4236484D01*
X2484348Y-4036484D02*
X2503396Y-4036484D01*
X2503396Y-4036484D02*
X2522444Y-4046008D01*
X2522444Y-4046008D02*
X2531968Y-4055531D01*
X2531968Y-4055531D02*
X2541491Y-4074579D01*
X2541491Y-4074579D02*
X2551015Y-4112674D01*
X2551015Y-4112674D02*
X2551015Y-4160293D01*
X2551015Y-4160293D02*
X2541491Y-4198389D01*
X2541491Y-4198389D02*
X2531968Y-4217436D01*
X2531968Y-4217436D02*
X2522444Y-4226960D01*
X2522444Y-4226960D02*
X2503396Y-4236484D01*
X2503396Y-4236484D02*
X2484348Y-4236484D01*
X2484348Y-4236484D02*
X2465301Y-4226960D01*
X2465301Y-4226960D02*
X2455777Y-4217436D01*
X2455777Y-4217436D02*
X2446253Y-4198389D01*
X2446253Y-4198389D02*
X2436729Y-4160293D01*
X2436729Y-4160293D02*
X2436729Y-4112674D01*
X2436729Y-4112674D02*
X2446253Y-4074579D01*
X2446253Y-4074579D02*
X2455777Y-4055531D01*
X2455777Y-4055531D02*
X2465301Y-4046008D01*
X2465301Y-4046008D02*
X2484348Y-4036484D01*
X2741491Y-4236484D02*
X2627206Y-4236484D01*
X2684348Y-4236484D02*
X2684348Y-4036484D01*
X2684348Y-4036484D02*
X2665301Y-4065055D01*
X2665301Y-4065055D02*
X2646253Y-4084103D01*
X2646253Y-4084103D02*
X2627206Y-4093627D01*
X2922444Y-4036484D02*
X2827206Y-4036484D01*
X2827206Y-4036484D02*
X2817682Y-4131722D01*
X2817682Y-4131722D02*
X2827206Y-4122198D01*
X2827206Y-4122198D02*
X2846253Y-4112674D01*
X2846253Y-4112674D02*
X2893872Y-4112674D01*
X2893872Y-4112674D02*
X2912920Y-4122198D01*
X2912920Y-4122198D02*
X2922444Y-4131722D01*
X2922444Y-4131722D02*
X2931967Y-4150769D01*
X2931967Y-4150769D02*
X2931967Y-4198389D01*
X2931967Y-4198389D02*
X2922444Y-4217436D01*
X2922444Y-4217436D02*
X2912920Y-4226960D01*
X2912920Y-4226960D02*
X2893872Y-4236484D01*
X2893872Y-4236484D02*
X2846253Y-4236484D01*
X2846253Y-4236484D02*
X2827206Y-4226960D01*
X2827206Y-4226960D02*
X2817682Y-4217436D01*
X2998634Y-4036484D02*
X3131967Y-4036484D01*
X3131967Y-4036484D02*
X3046253Y-4236484D01*
X3198634Y-4036484D02*
X3198634Y-4074579D01*
X3274825Y-4036484D02*
X3274825Y-4074579D01*
X3570063Y-4312674D02*
X3560539Y-4303150D01*
X3560539Y-4303150D02*
X3541491Y-4274579D01*
X3541491Y-4274579D02*
X3531968Y-4255531D01*
X3531968Y-4255531D02*
X3522444Y-4226960D01*
X3522444Y-4226960D02*
X3512920Y-4179341D01*
X3512920Y-4179341D02*
X3512920Y-4141246D01*
X3512920Y-4141246D02*
X3522444Y-4093627D01*
X3522444Y-4093627D02*
X3531968Y-4065055D01*
X3531968Y-4065055D02*
X3541491Y-4046008D01*
X3541491Y-4046008D02*
X3560539Y-4017436D01*
X3560539Y-4017436D02*
X3570063Y-4007912D01*
X3636729Y-4055531D02*
X3646253Y-4046008D01*
X3646253Y-4046008D02*
X3665301Y-4036484D01*
X3665301Y-4036484D02*
X3712920Y-4036484D01*
X3712920Y-4036484D02*
X3731968Y-4046008D01*
X3731968Y-4046008D02*
X3741491Y-4055531D01*
X3741491Y-4055531D02*
X3751015Y-4074579D01*
X3751015Y-4074579D02*
X3751015Y-4093627D01*
X3751015Y-4093627D02*
X3741491Y-4122198D01*
X3741491Y-4122198D02*
X3627206Y-4236484D01*
X3627206Y-4236484D02*
X3751015Y-4236484D01*
X3931968Y-4036484D02*
X3836729Y-4036484D01*
X3836729Y-4036484D02*
X3827206Y-4131722D01*
X3827206Y-4131722D02*
X3836729Y-4122198D01*
X3836729Y-4122198D02*
X3855777Y-4112674D01*
X3855777Y-4112674D02*
X3903396Y-4112674D01*
X3903396Y-4112674D02*
X3922444Y-4122198D01*
X3922444Y-4122198D02*
X3931968Y-4131722D01*
X3931968Y-4131722D02*
X3941491Y-4150769D01*
X3941491Y-4150769D02*
X3941491Y-4198389D01*
X3941491Y-4198389D02*
X3931968Y-4217436D01*
X3931968Y-4217436D02*
X3922444Y-4226960D01*
X3922444Y-4226960D02*
X3903396Y-4236484D01*
X3903396Y-4236484D02*
X3855777Y-4236484D01*
X3855777Y-4236484D02*
X3836729Y-4226960D01*
X3836729Y-4226960D02*
X3827206Y-4217436D01*
X4179587Y-4236484D02*
X4179587Y-4036484D01*
X4265301Y-4236484D02*
X4265301Y-4131722D01*
X4265301Y-4131722D02*
X4255777Y-4112674D01*
X4255777Y-4112674D02*
X4236730Y-4103150D01*
X4236730Y-4103150D02*
X4208158Y-4103150D01*
X4208158Y-4103150D02*
X4189110Y-4112674D01*
X4189110Y-4112674D02*
X4179587Y-4122198D01*
X4389111Y-4236484D02*
X4370063Y-4226960D01*
X4370063Y-4226960D02*
X4360539Y-4217436D01*
X4360539Y-4217436D02*
X4351015Y-4198389D01*
X4351015Y-4198389D02*
X4351015Y-4141246D01*
X4351015Y-4141246D02*
X4360539Y-4122198D01*
X4360539Y-4122198D02*
X4370063Y-4112674D01*
X4370063Y-4112674D02*
X4389111Y-4103150D01*
X4389111Y-4103150D02*
X4417682Y-4103150D01*
X4417682Y-4103150D02*
X4436730Y-4112674D01*
X4436730Y-4112674D02*
X4446253Y-4122198D01*
X4446253Y-4122198D02*
X4455777Y-4141246D01*
X4455777Y-4141246D02*
X4455777Y-4198389D01*
X4455777Y-4198389D02*
X4446253Y-4217436D01*
X4446253Y-4217436D02*
X4436730Y-4226960D01*
X4436730Y-4226960D02*
X4417682Y-4236484D01*
X4417682Y-4236484D02*
X4389111Y-4236484D01*
X4570063Y-4236484D02*
X4551015Y-4226960D01*
X4551015Y-4226960D02*
X4541492Y-4207912D01*
X4541492Y-4207912D02*
X4541492Y-4036484D01*
X4722444Y-4226960D02*
X4703396Y-4236484D01*
X4703396Y-4236484D02*
X4665301Y-4236484D01*
X4665301Y-4236484D02*
X4646253Y-4226960D01*
X4646253Y-4226960D02*
X4636730Y-4207912D01*
X4636730Y-4207912D02*
X4636730Y-4131722D01*
X4636730Y-4131722D02*
X4646253Y-4112674D01*
X4646253Y-4112674D02*
X4665301Y-4103150D01*
X4665301Y-4103150D02*
X4703396Y-4103150D01*
X4703396Y-4103150D02*
X4722444Y-4112674D01*
X4722444Y-4112674D02*
X4731968Y-4131722D01*
X4731968Y-4131722D02*
X4731968Y-4150769D01*
X4731968Y-4150769D02*
X4636730Y-4169817D01*
X4808158Y-4226960D02*
X4827206Y-4236484D01*
X4827206Y-4236484D02*
X4865301Y-4236484D01*
X4865301Y-4236484D02*
X4884349Y-4226960D01*
X4884349Y-4226960D02*
X4893873Y-4207912D01*
X4893873Y-4207912D02*
X4893873Y-4198389D01*
X4893873Y-4198389D02*
X4884349Y-4179341D01*
X4884349Y-4179341D02*
X4865301Y-4169817D01*
X4865301Y-4169817D02*
X4836730Y-4169817D01*
X4836730Y-4169817D02*
X4817682Y-4160293D01*
X4817682Y-4160293D02*
X4808158Y-4141246D01*
X4808158Y-4141246D02*
X4808158Y-4131722D01*
X4808158Y-4131722D02*
X4817682Y-4112674D01*
X4817682Y-4112674D02*
X4836730Y-4103150D01*
X4836730Y-4103150D02*
X4865301Y-4103150D01*
X4865301Y-4103150D02*
X4884349Y-4112674D01*
X4960539Y-4312674D02*
X4970063Y-4303150D01*
X4970063Y-4303150D02*
X4989111Y-4274579D01*
X4989111Y-4274579D02*
X4998634Y-4255531D01*
X4998634Y-4255531D02*
X5008158Y-4226960D01*
X5008158Y-4226960D02*
X5017682Y-4179341D01*
X5017682Y-4179341D02*
X5017682Y-4141246D01*
X5017682Y-4141246D02*
X5008158Y-4093627D01*
X5008158Y-4093627D02*
X4998634Y-4065055D01*
X4998634Y-4065055D02*
X4989111Y-4046008D01*
X4989111Y-4046008D02*
X4970063Y-4017436D01*
X4970063Y-4017436D02*
X4960539Y-4007912D01*
D13*
X-5000Y-4409000D02*
G75*
G03*
X-5000Y-4409000I-38100J0D01*
G01*
D11*
X293872Y-4300484D02*
X312920Y-4300484D01*
X312920Y-4300484D02*
X331967Y-4310008D01*
X331967Y-4310008D02*
X341491Y-4319531D01*
X341491Y-4319531D02*
X351015Y-4338579D01*
X351015Y-4338579D02*
X360539Y-4376674D01*
X360539Y-4376674D02*
X360539Y-4424293D01*
X360539Y-4424293D02*
X351015Y-4462389D01*
X351015Y-4462389D02*
X341491Y-4481436D01*
X341491Y-4481436D02*
X331967Y-4490960D01*
X331967Y-4490960D02*
X312920Y-4500484D01*
X312920Y-4500484D02*
X293872Y-4500484D01*
X293872Y-4500484D02*
X274824Y-4490960D01*
X274824Y-4490960D02*
X265301Y-4481436D01*
X265301Y-4481436D02*
X255777Y-4462389D01*
X255777Y-4462389D02*
X246253Y-4424293D01*
X246253Y-4424293D02*
X246253Y-4376674D01*
X246253Y-4376674D02*
X255777Y-4338579D01*
X255777Y-4338579D02*
X265301Y-4319531D01*
X265301Y-4319531D02*
X274824Y-4310008D01*
X274824Y-4310008D02*
X293872Y-4300484D01*
X446253Y-4481436D02*
X455777Y-4490960D01*
X455777Y-4490960D02*
X446253Y-4500484D01*
X446253Y-4500484D02*
X436729Y-4490960D01*
X436729Y-4490960D02*
X446253Y-4481436D01*
X446253Y-4481436D02*
X446253Y-4500484D01*
X522443Y-4300484D02*
X655777Y-4300484D01*
X655777Y-4300484D02*
X570063Y-4500484D01*
X817682Y-4300484D02*
X779586Y-4300484D01*
X779586Y-4300484D02*
X760539Y-4310008D01*
X760539Y-4310008D02*
X751015Y-4319531D01*
X751015Y-4319531D02*
X731967Y-4348103D01*
X731967Y-4348103D02*
X722443Y-4386198D01*
X722443Y-4386198D02*
X722443Y-4462389D01*
X722443Y-4462389D02*
X731967Y-4481436D01*
X731967Y-4481436D02*
X741491Y-4490960D01*
X741491Y-4490960D02*
X760539Y-4500484D01*
X760539Y-4500484D02*
X798634Y-4500484D01*
X798634Y-4500484D02*
X817682Y-4490960D01*
X817682Y-4490960D02*
X827205Y-4481436D01*
X827205Y-4481436D02*
X836729Y-4462389D01*
X836729Y-4462389D02*
X836729Y-4414770D01*
X836729Y-4414770D02*
X827205Y-4395722D01*
X827205Y-4395722D02*
X817682Y-4386198D01*
X817682Y-4386198D02*
X798634Y-4376674D01*
X798634Y-4376674D02*
X760539Y-4376674D01*
X760539Y-4376674D02*
X741491Y-4386198D01*
X741491Y-4386198D02*
X731967Y-4395722D01*
X731967Y-4395722D02*
X722443Y-4414770D01*
X912920Y-4319531D02*
X922443Y-4310008D01*
X922443Y-4310008D02*
X941491Y-4300484D01*
X941491Y-4300484D02*
X989110Y-4300484D01*
X989110Y-4300484D02*
X1008158Y-4310008D01*
X1008158Y-4310008D02*
X1017682Y-4319531D01*
X1017682Y-4319531D02*
X1027205Y-4338579D01*
X1027205Y-4338579D02*
X1027205Y-4357627D01*
X1027205Y-4357627D02*
X1017682Y-4386198D01*
X1017682Y-4386198D02*
X903396Y-4500484D01*
X903396Y-4500484D02*
X1027205Y-4500484D01*
X1112920Y-4500484D02*
X1112920Y-4367150D01*
X1112920Y-4386198D02*
X1122444Y-4376674D01*
X1122444Y-4376674D02*
X1141491Y-4367150D01*
X1141491Y-4367150D02*
X1170063Y-4367150D01*
X1170063Y-4367150D02*
X1189110Y-4376674D01*
X1189110Y-4376674D02*
X1198634Y-4395722D01*
X1198634Y-4395722D02*
X1198634Y-4500484D01*
X1198634Y-4395722D02*
X1208158Y-4376674D01*
X1208158Y-4376674D02*
X1227205Y-4367150D01*
X1227205Y-4367150D02*
X1255777Y-4367150D01*
X1255777Y-4367150D02*
X1274825Y-4376674D01*
X1274825Y-4376674D02*
X1284348Y-4395722D01*
X1284348Y-4395722D02*
X1284348Y-4500484D01*
X1379586Y-4500484D02*
X1379586Y-4367150D01*
X1379586Y-4386198D02*
X1389110Y-4376674D01*
X1389110Y-4376674D02*
X1408158Y-4367150D01*
X1408158Y-4367150D02*
X1436729Y-4367150D01*
X1436729Y-4367150D02*
X1455777Y-4376674D01*
X1455777Y-4376674D02*
X1465301Y-4395722D01*
X1465301Y-4395722D02*
X1465301Y-4500484D01*
X1465301Y-4395722D02*
X1474824Y-4376674D01*
X1474824Y-4376674D02*
X1493872Y-4367150D01*
X1493872Y-4367150D02*
X1522443Y-4367150D01*
X1522443Y-4367150D02*
X1541491Y-4376674D01*
X1541491Y-4376674D02*
X1551015Y-4395722D01*
X1551015Y-4395722D02*
X1551015Y-4500484D01*
X1941491Y-4290960D02*
X1770063Y-4548103D01*
X2198634Y-4300484D02*
X2217682Y-4300484D01*
X2217682Y-4300484D02*
X2236729Y-4310008D01*
X2236729Y-4310008D02*
X2246253Y-4319531D01*
X2246253Y-4319531D02*
X2255777Y-4338579D01*
X2255777Y-4338579D02*
X2265301Y-4376674D01*
X2265301Y-4376674D02*
X2265301Y-4424293D01*
X2265301Y-4424293D02*
X2255777Y-4462389D01*
X2255777Y-4462389D02*
X2246253Y-4481436D01*
X2246253Y-4481436D02*
X2236729Y-4490960D01*
X2236729Y-4490960D02*
X2217682Y-4500484D01*
X2217682Y-4500484D02*
X2198634Y-4500484D01*
X2198634Y-4500484D02*
X2179587Y-4490960D01*
X2179587Y-4490960D02*
X2170063Y-4481436D01*
X2170063Y-4481436D02*
X2160539Y-4462389D01*
X2160539Y-4462389D02*
X2151015Y-4424293D01*
X2151015Y-4424293D02*
X2151015Y-4376674D01*
X2151015Y-4376674D02*
X2160539Y-4338579D01*
X2160539Y-4338579D02*
X2170063Y-4319531D01*
X2170063Y-4319531D02*
X2179587Y-4310008D01*
X2179587Y-4310008D02*
X2198634Y-4300484D01*
X2351015Y-4481436D02*
X2360539Y-4490960D01*
X2360539Y-4490960D02*
X2351015Y-4500484D01*
X2351015Y-4500484D02*
X2341491Y-4490960D01*
X2341491Y-4490960D02*
X2351015Y-4481436D01*
X2351015Y-4481436D02*
X2351015Y-4500484D01*
X2484348Y-4300484D02*
X2503396Y-4300484D01*
X2503396Y-4300484D02*
X2522444Y-4310008D01*
X2522444Y-4310008D02*
X2531968Y-4319531D01*
X2531968Y-4319531D02*
X2541491Y-4338579D01*
X2541491Y-4338579D02*
X2551015Y-4376674D01*
X2551015Y-4376674D02*
X2551015Y-4424293D01*
X2551015Y-4424293D02*
X2541491Y-4462389D01*
X2541491Y-4462389D02*
X2531968Y-4481436D01*
X2531968Y-4481436D02*
X2522444Y-4490960D01*
X2522444Y-4490960D02*
X2503396Y-4500484D01*
X2503396Y-4500484D02*
X2484348Y-4500484D01*
X2484348Y-4500484D02*
X2465301Y-4490960D01*
X2465301Y-4490960D02*
X2455777Y-4481436D01*
X2455777Y-4481436D02*
X2446253Y-4462389D01*
X2446253Y-4462389D02*
X2436729Y-4424293D01*
X2436729Y-4424293D02*
X2436729Y-4376674D01*
X2436729Y-4376674D02*
X2446253Y-4338579D01*
X2446253Y-4338579D02*
X2455777Y-4319531D01*
X2455777Y-4319531D02*
X2465301Y-4310008D01*
X2465301Y-4310008D02*
X2484348Y-4300484D01*
X2617682Y-4300484D02*
X2741491Y-4300484D01*
X2741491Y-4300484D02*
X2674825Y-4376674D01*
X2674825Y-4376674D02*
X2703396Y-4376674D01*
X2703396Y-4376674D02*
X2722444Y-4386198D01*
X2722444Y-4386198D02*
X2731968Y-4395722D01*
X2731968Y-4395722D02*
X2741491Y-4414770D01*
X2741491Y-4414770D02*
X2741491Y-4462389D01*
X2741491Y-4462389D02*
X2731968Y-4481436D01*
X2731968Y-4481436D02*
X2722444Y-4490960D01*
X2722444Y-4490960D02*
X2703396Y-4500484D01*
X2703396Y-4500484D02*
X2646253Y-4500484D01*
X2646253Y-4500484D02*
X2627206Y-4490960D01*
X2627206Y-4490960D02*
X2617682Y-4481436D01*
X2865301Y-4300484D02*
X2884348Y-4300484D01*
X2884348Y-4300484D02*
X2903396Y-4310008D01*
X2903396Y-4310008D02*
X2912920Y-4319531D01*
X2912920Y-4319531D02*
X2922444Y-4338579D01*
X2922444Y-4338579D02*
X2931967Y-4376674D01*
X2931967Y-4376674D02*
X2931967Y-4424293D01*
X2931967Y-4424293D02*
X2922444Y-4462389D01*
X2922444Y-4462389D02*
X2912920Y-4481436D01*
X2912920Y-4481436D02*
X2903396Y-4490960D01*
X2903396Y-4490960D02*
X2884348Y-4500484D01*
X2884348Y-4500484D02*
X2865301Y-4500484D01*
X2865301Y-4500484D02*
X2846253Y-4490960D01*
X2846253Y-4490960D02*
X2836729Y-4481436D01*
X2836729Y-4481436D02*
X2827206Y-4462389D01*
X2827206Y-4462389D02*
X2817682Y-4424293D01*
X2817682Y-4424293D02*
X2817682Y-4376674D01*
X2817682Y-4376674D02*
X2827206Y-4338579D01*
X2827206Y-4338579D02*
X2836729Y-4319531D01*
X2836729Y-4319531D02*
X2846253Y-4310008D01*
X2846253Y-4310008D02*
X2865301Y-4300484D01*
X3055777Y-4300484D02*
X3074825Y-4300484D01*
X3074825Y-4300484D02*
X3093872Y-4310008D01*
X3093872Y-4310008D02*
X3103396Y-4319531D01*
X3103396Y-4319531D02*
X3112920Y-4338579D01*
X3112920Y-4338579D02*
X3122444Y-4376674D01*
X3122444Y-4376674D02*
X3122444Y-4424293D01*
X3122444Y-4424293D02*
X3112920Y-4462389D01*
X3112920Y-4462389D02*
X3103396Y-4481436D01*
X3103396Y-4481436D02*
X3093872Y-4490960D01*
X3093872Y-4490960D02*
X3074825Y-4500484D01*
X3074825Y-4500484D02*
X3055777Y-4500484D01*
X3055777Y-4500484D02*
X3036729Y-4490960D01*
X3036729Y-4490960D02*
X3027206Y-4481436D01*
X3027206Y-4481436D02*
X3017682Y-4462389D01*
X3017682Y-4462389D02*
X3008158Y-4424293D01*
X3008158Y-4424293D02*
X3008158Y-4376674D01*
X3008158Y-4376674D02*
X3017682Y-4338579D01*
X3017682Y-4338579D02*
X3027206Y-4319531D01*
X3027206Y-4319531D02*
X3036729Y-4310008D01*
X3036729Y-4310008D02*
X3055777Y-4300484D01*
X3198634Y-4300484D02*
X3198634Y-4338579D01*
X3274825Y-4300484D02*
X3274825Y-4338579D01*
X3570063Y-4576674D02*
X3560539Y-4567150D01*
X3560539Y-4567150D02*
X3541491Y-4538579D01*
X3541491Y-4538579D02*
X3531968Y-4519531D01*
X3531968Y-4519531D02*
X3522444Y-4490960D01*
X3522444Y-4490960D02*
X3512920Y-4443341D01*
X3512920Y-4443341D02*
X3512920Y-4405246D01*
X3512920Y-4405246D02*
X3522444Y-4357627D01*
X3522444Y-4357627D02*
X3531968Y-4329055D01*
X3531968Y-4329055D02*
X3541491Y-4310008D01*
X3541491Y-4310008D02*
X3560539Y-4281436D01*
X3560539Y-4281436D02*
X3570063Y-4271912D01*
X3751015Y-4500484D02*
X3636729Y-4500484D01*
X3693872Y-4500484D02*
X3693872Y-4300484D01*
X3693872Y-4300484D02*
X3674825Y-4329055D01*
X3674825Y-4329055D02*
X3655777Y-4348103D01*
X3655777Y-4348103D02*
X3636729Y-4357627D01*
X3874825Y-4300484D02*
X3893872Y-4300484D01*
X3893872Y-4300484D02*
X3912920Y-4310008D01*
X3912920Y-4310008D02*
X3922444Y-4319531D01*
X3922444Y-4319531D02*
X3931968Y-4338579D01*
X3931968Y-4338579D02*
X3941491Y-4376674D01*
X3941491Y-4376674D02*
X3941491Y-4424293D01*
X3941491Y-4424293D02*
X3931968Y-4462389D01*
X3931968Y-4462389D02*
X3922444Y-4481436D01*
X3922444Y-4481436D02*
X3912920Y-4490960D01*
X3912920Y-4490960D02*
X3893872Y-4500484D01*
X3893872Y-4500484D02*
X3874825Y-4500484D01*
X3874825Y-4500484D02*
X3855777Y-4490960D01*
X3855777Y-4490960D02*
X3846253Y-4481436D01*
X3846253Y-4481436D02*
X3836729Y-4462389D01*
X3836729Y-4462389D02*
X3827206Y-4424293D01*
X3827206Y-4424293D02*
X3827206Y-4376674D01*
X3827206Y-4376674D02*
X3836729Y-4338579D01*
X3836729Y-4338579D02*
X3846253Y-4319531D01*
X3846253Y-4319531D02*
X3855777Y-4310008D01*
X3855777Y-4310008D02*
X3874825Y-4300484D01*
X4179587Y-4500484D02*
X4179587Y-4300484D01*
X4265301Y-4500484D02*
X4265301Y-4395722D01*
X4265301Y-4395722D02*
X4255777Y-4376674D01*
X4255777Y-4376674D02*
X4236730Y-4367150D01*
X4236730Y-4367150D02*
X4208158Y-4367150D01*
X4208158Y-4367150D02*
X4189110Y-4376674D01*
X4189110Y-4376674D02*
X4179587Y-4386198D01*
X4389111Y-4500484D02*
X4370063Y-4490960D01*
X4370063Y-4490960D02*
X4360539Y-4481436D01*
X4360539Y-4481436D02*
X4351015Y-4462389D01*
X4351015Y-4462389D02*
X4351015Y-4405246D01*
X4351015Y-4405246D02*
X4360539Y-4386198D01*
X4360539Y-4386198D02*
X4370063Y-4376674D01*
X4370063Y-4376674D02*
X4389111Y-4367150D01*
X4389111Y-4367150D02*
X4417682Y-4367150D01*
X4417682Y-4367150D02*
X4436730Y-4376674D01*
X4436730Y-4376674D02*
X4446253Y-4386198D01*
X4446253Y-4386198D02*
X4455777Y-4405246D01*
X4455777Y-4405246D02*
X4455777Y-4462389D01*
X4455777Y-4462389D02*
X4446253Y-4481436D01*
X4446253Y-4481436D02*
X4436730Y-4490960D01*
X4436730Y-4490960D02*
X4417682Y-4500484D01*
X4417682Y-4500484D02*
X4389111Y-4500484D01*
X4570063Y-4500484D02*
X4551015Y-4490960D01*
X4551015Y-4490960D02*
X4541492Y-4471912D01*
X4541492Y-4471912D02*
X4541492Y-4300484D01*
X4722444Y-4490960D02*
X4703396Y-4500484D01*
X4703396Y-4500484D02*
X4665301Y-4500484D01*
X4665301Y-4500484D02*
X4646253Y-4490960D01*
X4646253Y-4490960D02*
X4636730Y-4471912D01*
X4636730Y-4471912D02*
X4636730Y-4395722D01*
X4636730Y-4395722D02*
X4646253Y-4376674D01*
X4646253Y-4376674D02*
X4665301Y-4367150D01*
X4665301Y-4367150D02*
X4703396Y-4367150D01*
X4703396Y-4367150D02*
X4722444Y-4376674D01*
X4722444Y-4376674D02*
X4731968Y-4395722D01*
X4731968Y-4395722D02*
X4731968Y-4414770D01*
X4731968Y-4414770D02*
X4636730Y-4433817D01*
X4808158Y-4490960D02*
X4827206Y-4500484D01*
X4827206Y-4500484D02*
X4865301Y-4500484D01*
X4865301Y-4500484D02*
X4884349Y-4490960D01*
X4884349Y-4490960D02*
X4893873Y-4471912D01*
X4893873Y-4471912D02*
X4893873Y-4462389D01*
X4893873Y-4462389D02*
X4884349Y-4443341D01*
X4884349Y-4443341D02*
X4865301Y-4433817D01*
X4865301Y-4433817D02*
X4836730Y-4433817D01*
X4836730Y-4433817D02*
X4817682Y-4424293D01*
X4817682Y-4424293D02*
X4808158Y-4405246D01*
X4808158Y-4405246D02*
X4808158Y-4395722D01*
X4808158Y-4395722D02*
X4817682Y-4376674D01*
X4817682Y-4376674D02*
X4836730Y-4367150D01*
X4836730Y-4367150D02*
X4865301Y-4367150D01*
X4865301Y-4367150D02*
X4884349Y-4376674D01*
X4960539Y-4576674D02*
X4970063Y-4567150D01*
X4970063Y-4567150D02*
X4989111Y-4538579D01*
X4989111Y-4538579D02*
X4998634Y-4519531D01*
X4998634Y-4519531D02*
X5008158Y-4490960D01*
X5008158Y-4490960D02*
X5017682Y-4443341D01*
X5017682Y-4443341D02*
X5017682Y-4405246D01*
X5017682Y-4405246D02*
X5008158Y-4357627D01*
X5008158Y-4357627D02*
X4998634Y-4329055D01*
X4998634Y-4329055D02*
X4989111Y-4310008D01*
X4989111Y-4310008D02*
X4970063Y-4281436D01*
X4970063Y-4281436D02*
X4960539Y-4271912D01*
D10*
X-55000Y-4623000D02*
X-55000Y-4723000D01*
X-105000Y-4673000D02*
X-5000Y-4673000D01*
D11*
X360539Y-4764484D02*
X246253Y-4764484D01*
X303396Y-4764484D02*
X303396Y-4564484D01*
X303396Y-4564484D02*
X284348Y-4593055D01*
X284348Y-4593055D02*
X265301Y-4612103D01*
X265301Y-4612103D02*
X246253Y-4621627D01*
X446253Y-4745436D02*
X455777Y-4754960D01*
X455777Y-4754960D02*
X446253Y-4764484D01*
X446253Y-4764484D02*
X436729Y-4754960D01*
X436729Y-4754960D02*
X446253Y-4745436D01*
X446253Y-4745436D02*
X446253Y-4764484D01*
X579586Y-4564484D02*
X598634Y-4564484D01*
X598634Y-4564484D02*
X617682Y-4574008D01*
X617682Y-4574008D02*
X627205Y-4583531D01*
X627205Y-4583531D02*
X636729Y-4602579D01*
X636729Y-4602579D02*
X646253Y-4640674D01*
X646253Y-4640674D02*
X646253Y-4688293D01*
X646253Y-4688293D02*
X636729Y-4726389D01*
X636729Y-4726389D02*
X627205Y-4745436D01*
X627205Y-4745436D02*
X617682Y-4754960D01*
X617682Y-4754960D02*
X598634Y-4764484D01*
X598634Y-4764484D02*
X579586Y-4764484D01*
X579586Y-4764484D02*
X560539Y-4754960D01*
X560539Y-4754960D02*
X551015Y-4745436D01*
X551015Y-4745436D02*
X541491Y-4726389D01*
X541491Y-4726389D02*
X531967Y-4688293D01*
X531967Y-4688293D02*
X531967Y-4640674D01*
X531967Y-4640674D02*
X541491Y-4602579D01*
X541491Y-4602579D02*
X551015Y-4583531D01*
X551015Y-4583531D02*
X560539Y-4574008D01*
X560539Y-4574008D02*
X579586Y-4564484D01*
X770062Y-4564484D02*
X789110Y-4564484D01*
X789110Y-4564484D02*
X808158Y-4574008D01*
X808158Y-4574008D02*
X817682Y-4583531D01*
X817682Y-4583531D02*
X827205Y-4602579D01*
X827205Y-4602579D02*
X836729Y-4640674D01*
X836729Y-4640674D02*
X836729Y-4688293D01*
X836729Y-4688293D02*
X827205Y-4726389D01*
X827205Y-4726389D02*
X817682Y-4745436D01*
X817682Y-4745436D02*
X808158Y-4754960D01*
X808158Y-4754960D02*
X789110Y-4764484D01*
X789110Y-4764484D02*
X770062Y-4764484D01*
X770062Y-4764484D02*
X751015Y-4754960D01*
X751015Y-4754960D02*
X741491Y-4745436D01*
X741491Y-4745436D02*
X731967Y-4726389D01*
X731967Y-4726389D02*
X722443Y-4688293D01*
X722443Y-4688293D02*
X722443Y-4640674D01*
X722443Y-4640674D02*
X731967Y-4602579D01*
X731967Y-4602579D02*
X741491Y-4583531D01*
X741491Y-4583531D02*
X751015Y-4574008D01*
X751015Y-4574008D02*
X770062Y-4564484D01*
X960539Y-4564484D02*
X979586Y-4564484D01*
X979586Y-4564484D02*
X998634Y-4574008D01*
X998634Y-4574008D02*
X1008158Y-4583531D01*
X1008158Y-4583531D02*
X1017682Y-4602579D01*
X1017682Y-4602579D02*
X1027205Y-4640674D01*
X1027205Y-4640674D02*
X1027205Y-4688293D01*
X1027205Y-4688293D02*
X1017682Y-4726389D01*
X1017682Y-4726389D02*
X1008158Y-4745436D01*
X1008158Y-4745436D02*
X998634Y-4754960D01*
X998634Y-4754960D02*
X979586Y-4764484D01*
X979586Y-4764484D02*
X960539Y-4764484D01*
X960539Y-4764484D02*
X941491Y-4754960D01*
X941491Y-4754960D02*
X931967Y-4745436D01*
X931967Y-4745436D02*
X922443Y-4726389D01*
X922443Y-4726389D02*
X912920Y-4688293D01*
X912920Y-4688293D02*
X912920Y-4640674D01*
X912920Y-4640674D02*
X922443Y-4602579D01*
X922443Y-4602579D02*
X931967Y-4583531D01*
X931967Y-4583531D02*
X941491Y-4574008D01*
X941491Y-4574008D02*
X960539Y-4564484D01*
X1112920Y-4764484D02*
X1112920Y-4631150D01*
X1112920Y-4650198D02*
X1122444Y-4640674D01*
X1122444Y-4640674D02*
X1141491Y-4631150D01*
X1141491Y-4631150D02*
X1170063Y-4631150D01*
X1170063Y-4631150D02*
X1189110Y-4640674D01*
X1189110Y-4640674D02*
X1198634Y-4659722D01*
X1198634Y-4659722D02*
X1198634Y-4764484D01*
X1198634Y-4659722D02*
X1208158Y-4640674D01*
X1208158Y-4640674D02*
X1227205Y-4631150D01*
X1227205Y-4631150D02*
X1255777Y-4631150D01*
X1255777Y-4631150D02*
X1274825Y-4640674D01*
X1274825Y-4640674D02*
X1284348Y-4659722D01*
X1284348Y-4659722D02*
X1284348Y-4764484D01*
X1379586Y-4764484D02*
X1379586Y-4631150D01*
X1379586Y-4650198D02*
X1389110Y-4640674D01*
X1389110Y-4640674D02*
X1408158Y-4631150D01*
X1408158Y-4631150D02*
X1436729Y-4631150D01*
X1436729Y-4631150D02*
X1455777Y-4640674D01*
X1455777Y-4640674D02*
X1465301Y-4659722D01*
X1465301Y-4659722D02*
X1465301Y-4764484D01*
X1465301Y-4659722D02*
X1474824Y-4640674D01*
X1474824Y-4640674D02*
X1493872Y-4631150D01*
X1493872Y-4631150D02*
X1522443Y-4631150D01*
X1522443Y-4631150D02*
X1541491Y-4640674D01*
X1541491Y-4640674D02*
X1551015Y-4659722D01*
X1551015Y-4659722D02*
X1551015Y-4764484D01*
X1941491Y-4554960D02*
X1770063Y-4812103D01*
X2198634Y-4564484D02*
X2217682Y-4564484D01*
X2217682Y-4564484D02*
X2236729Y-4574008D01*
X2236729Y-4574008D02*
X2246253Y-4583531D01*
X2246253Y-4583531D02*
X2255777Y-4602579D01*
X2255777Y-4602579D02*
X2265301Y-4640674D01*
X2265301Y-4640674D02*
X2265301Y-4688293D01*
X2265301Y-4688293D02*
X2255777Y-4726389D01*
X2255777Y-4726389D02*
X2246253Y-4745436D01*
X2246253Y-4745436D02*
X2236729Y-4754960D01*
X2236729Y-4754960D02*
X2217682Y-4764484D01*
X2217682Y-4764484D02*
X2198634Y-4764484D01*
X2198634Y-4764484D02*
X2179587Y-4754960D01*
X2179587Y-4754960D02*
X2170063Y-4745436D01*
X2170063Y-4745436D02*
X2160539Y-4726389D01*
X2160539Y-4726389D02*
X2151015Y-4688293D01*
X2151015Y-4688293D02*
X2151015Y-4640674D01*
X2151015Y-4640674D02*
X2160539Y-4602579D01*
X2160539Y-4602579D02*
X2170063Y-4583531D01*
X2170063Y-4583531D02*
X2179587Y-4574008D01*
X2179587Y-4574008D02*
X2198634Y-4564484D01*
X2351015Y-4745436D02*
X2360539Y-4754960D01*
X2360539Y-4754960D02*
X2351015Y-4764484D01*
X2351015Y-4764484D02*
X2341491Y-4754960D01*
X2341491Y-4754960D02*
X2351015Y-4745436D01*
X2351015Y-4745436D02*
X2351015Y-4764484D01*
X2484348Y-4564484D02*
X2503396Y-4564484D01*
X2503396Y-4564484D02*
X2522444Y-4574008D01*
X2522444Y-4574008D02*
X2531968Y-4583531D01*
X2531968Y-4583531D02*
X2541491Y-4602579D01*
X2541491Y-4602579D02*
X2551015Y-4640674D01*
X2551015Y-4640674D02*
X2551015Y-4688293D01*
X2551015Y-4688293D02*
X2541491Y-4726389D01*
X2541491Y-4726389D02*
X2531968Y-4745436D01*
X2531968Y-4745436D02*
X2522444Y-4754960D01*
X2522444Y-4754960D02*
X2503396Y-4764484D01*
X2503396Y-4764484D02*
X2484348Y-4764484D01*
X2484348Y-4764484D02*
X2465301Y-4754960D01*
X2465301Y-4754960D02*
X2455777Y-4745436D01*
X2455777Y-4745436D02*
X2446253Y-4726389D01*
X2446253Y-4726389D02*
X2436729Y-4688293D01*
X2436729Y-4688293D02*
X2436729Y-4640674D01*
X2436729Y-4640674D02*
X2446253Y-4602579D01*
X2446253Y-4602579D02*
X2455777Y-4583531D01*
X2455777Y-4583531D02*
X2465301Y-4574008D01*
X2465301Y-4574008D02*
X2484348Y-4564484D01*
X2617682Y-4564484D02*
X2741491Y-4564484D01*
X2741491Y-4564484D02*
X2674825Y-4640674D01*
X2674825Y-4640674D02*
X2703396Y-4640674D01*
X2703396Y-4640674D02*
X2722444Y-4650198D01*
X2722444Y-4650198D02*
X2731968Y-4659722D01*
X2731968Y-4659722D02*
X2741491Y-4678770D01*
X2741491Y-4678770D02*
X2741491Y-4726389D01*
X2741491Y-4726389D02*
X2731968Y-4745436D01*
X2731968Y-4745436D02*
X2722444Y-4754960D01*
X2722444Y-4754960D02*
X2703396Y-4764484D01*
X2703396Y-4764484D02*
X2646253Y-4764484D01*
X2646253Y-4764484D02*
X2627206Y-4754960D01*
X2627206Y-4754960D02*
X2617682Y-4745436D01*
X2836729Y-4764484D02*
X2874825Y-4764484D01*
X2874825Y-4764484D02*
X2893872Y-4754960D01*
X2893872Y-4754960D02*
X2903396Y-4745436D01*
X2903396Y-4745436D02*
X2922444Y-4716865D01*
X2922444Y-4716865D02*
X2931967Y-4678770D01*
X2931967Y-4678770D02*
X2931967Y-4602579D01*
X2931967Y-4602579D02*
X2922444Y-4583531D01*
X2922444Y-4583531D02*
X2912920Y-4574008D01*
X2912920Y-4574008D02*
X2893872Y-4564484D01*
X2893872Y-4564484D02*
X2855777Y-4564484D01*
X2855777Y-4564484D02*
X2836729Y-4574008D01*
X2836729Y-4574008D02*
X2827206Y-4583531D01*
X2827206Y-4583531D02*
X2817682Y-4602579D01*
X2817682Y-4602579D02*
X2817682Y-4650198D01*
X2817682Y-4650198D02*
X2827206Y-4669246D01*
X2827206Y-4669246D02*
X2836729Y-4678770D01*
X2836729Y-4678770D02*
X2855777Y-4688293D01*
X2855777Y-4688293D02*
X2893872Y-4688293D01*
X2893872Y-4688293D02*
X2912920Y-4678770D01*
X2912920Y-4678770D02*
X2922444Y-4669246D01*
X2922444Y-4669246D02*
X2931967Y-4650198D01*
X3103396Y-4631150D02*
X3103396Y-4764484D01*
X3055777Y-4554960D02*
X3008158Y-4697817D01*
X3008158Y-4697817D02*
X3131967Y-4697817D01*
X3198634Y-4564484D02*
X3198634Y-4602579D01*
X3274825Y-4564484D02*
X3274825Y-4602579D01*
X3570063Y-4840674D02*
X3560539Y-4831150D01*
X3560539Y-4831150D02*
X3541491Y-4802579D01*
X3541491Y-4802579D02*
X3531968Y-4783531D01*
X3531968Y-4783531D02*
X3522444Y-4754960D01*
X3522444Y-4754960D02*
X3512920Y-4707341D01*
X3512920Y-4707341D02*
X3512920Y-4669246D01*
X3512920Y-4669246D02*
X3522444Y-4621627D01*
X3522444Y-4621627D02*
X3531968Y-4593055D01*
X3531968Y-4593055D02*
X3541491Y-4574008D01*
X3541491Y-4574008D02*
X3560539Y-4545436D01*
X3560539Y-4545436D02*
X3570063Y-4535912D01*
X3674825Y-4650198D02*
X3655777Y-4640674D01*
X3655777Y-4640674D02*
X3646253Y-4631150D01*
X3646253Y-4631150D02*
X3636729Y-4612103D01*
X3636729Y-4612103D02*
X3636729Y-4602579D01*
X3636729Y-4602579D02*
X3646253Y-4583531D01*
X3646253Y-4583531D02*
X3655777Y-4574008D01*
X3655777Y-4574008D02*
X3674825Y-4564484D01*
X3674825Y-4564484D02*
X3712920Y-4564484D01*
X3712920Y-4564484D02*
X3731968Y-4574008D01*
X3731968Y-4574008D02*
X3741491Y-4583531D01*
X3741491Y-4583531D02*
X3751015Y-4602579D01*
X3751015Y-4602579D02*
X3751015Y-4612103D01*
X3751015Y-4612103D02*
X3741491Y-4631150D01*
X3741491Y-4631150D02*
X3731968Y-4640674D01*
X3731968Y-4640674D02*
X3712920Y-4650198D01*
X3712920Y-4650198D02*
X3674825Y-4650198D01*
X3674825Y-4650198D02*
X3655777Y-4659722D01*
X3655777Y-4659722D02*
X3646253Y-4669246D01*
X3646253Y-4669246D02*
X3636729Y-4688293D01*
X3636729Y-4688293D02*
X3636729Y-4726389D01*
X3636729Y-4726389D02*
X3646253Y-4745436D01*
X3646253Y-4745436D02*
X3655777Y-4754960D01*
X3655777Y-4754960D02*
X3674825Y-4764484D01*
X3674825Y-4764484D02*
X3712920Y-4764484D01*
X3712920Y-4764484D02*
X3731968Y-4754960D01*
X3731968Y-4754960D02*
X3741491Y-4745436D01*
X3741491Y-4745436D02*
X3751015Y-4726389D01*
X3751015Y-4726389D02*
X3751015Y-4688293D01*
X3751015Y-4688293D02*
X3741491Y-4669246D01*
X3741491Y-4669246D02*
X3731968Y-4659722D01*
X3731968Y-4659722D02*
X3712920Y-4650198D01*
X3989110Y-4764484D02*
X3989110Y-4564484D01*
X4074825Y-4764484D02*
X4074825Y-4659722D01*
X4074825Y-4659722D02*
X4065301Y-4640674D01*
X4065301Y-4640674D02*
X4046253Y-4631150D01*
X4046253Y-4631150D02*
X4017682Y-4631150D01*
X4017682Y-4631150D02*
X3998634Y-4640674D01*
X3998634Y-4640674D02*
X3989110Y-4650198D01*
X4198634Y-4764484D02*
X4179587Y-4754960D01*
X4179587Y-4754960D02*
X4170063Y-4745436D01*
X4170063Y-4745436D02*
X4160539Y-4726389D01*
X4160539Y-4726389D02*
X4160539Y-4669246D01*
X4160539Y-4669246D02*
X4170063Y-4650198D01*
X4170063Y-4650198D02*
X4179587Y-4640674D01*
X4179587Y-4640674D02*
X4198634Y-4631150D01*
X4198634Y-4631150D02*
X4227206Y-4631150D01*
X4227206Y-4631150D02*
X4246253Y-4640674D01*
X4246253Y-4640674D02*
X4255777Y-4650198D01*
X4255777Y-4650198D02*
X4265301Y-4669246D01*
X4265301Y-4669246D02*
X4265301Y-4726389D01*
X4265301Y-4726389D02*
X4255777Y-4745436D01*
X4255777Y-4745436D02*
X4246253Y-4754960D01*
X4246253Y-4754960D02*
X4227206Y-4764484D01*
X4227206Y-4764484D02*
X4198634Y-4764484D01*
X4379587Y-4764484D02*
X4360539Y-4754960D01*
X4360539Y-4754960D02*
X4351015Y-4735912D01*
X4351015Y-4735912D02*
X4351015Y-4564484D01*
X4531968Y-4754960D02*
X4512920Y-4764484D01*
X4512920Y-4764484D02*
X4474825Y-4764484D01*
X4474825Y-4764484D02*
X4455777Y-4754960D01*
X4455777Y-4754960D02*
X4446253Y-4735912D01*
X4446253Y-4735912D02*
X4446253Y-4659722D01*
X4446253Y-4659722D02*
X4455777Y-4640674D01*
X4455777Y-4640674D02*
X4474825Y-4631150D01*
X4474825Y-4631150D02*
X4512920Y-4631150D01*
X4512920Y-4631150D02*
X4531968Y-4640674D01*
X4531968Y-4640674D02*
X4541492Y-4659722D01*
X4541492Y-4659722D02*
X4541492Y-4678770D01*
X4541492Y-4678770D02*
X4446253Y-4697817D01*
X4617682Y-4754960D02*
X4636730Y-4764484D01*
X4636730Y-4764484D02*
X4674825Y-4764484D01*
X4674825Y-4764484D02*
X4693873Y-4754960D01*
X4693873Y-4754960D02*
X4703396Y-4735912D01*
X4703396Y-4735912D02*
X4703396Y-4726389D01*
X4703396Y-4726389D02*
X4693873Y-4707341D01*
X4693873Y-4707341D02*
X4674825Y-4697817D01*
X4674825Y-4697817D02*
X4646253Y-4697817D01*
X4646253Y-4697817D02*
X4627206Y-4688293D01*
X4627206Y-4688293D02*
X4617682Y-4669246D01*
X4617682Y-4669246D02*
X4617682Y-4659722D01*
X4617682Y-4659722D02*
X4627206Y-4640674D01*
X4627206Y-4640674D02*
X4646253Y-4631150D01*
X4646253Y-4631150D02*
X4674825Y-4631150D01*
X4674825Y-4631150D02*
X4693873Y-4640674D01*
X4770063Y-4840674D02*
X4779587Y-4831150D01*
X4779587Y-4831150D02*
X4798634Y-4802579D01*
X4798634Y-4802579D02*
X4808158Y-4783531D01*
X4808158Y-4783531D02*
X4817682Y-4754960D01*
X4817682Y-4754960D02*
X4827206Y-4707341D01*
X4827206Y-4707341D02*
X4827206Y-4669246D01*
X4827206Y-4669246D02*
X4817682Y-4621627D01*
X4817682Y-4621627D02*
X4808158Y-4593055D01*
X4808158Y-4593055D02*
X4798634Y-4574008D01*
X4798634Y-4574008D02*
X4779587Y-4545436D01*
X4779587Y-4545436D02*
X4770063Y-4535912D01*
D14*
X-22573Y-4979427D02*
X-22573Y-4894573D01*
X-107427Y-4894573D01*
X-107427Y-4979427D01*
X-22573Y-4979427D01*
D11*
X360539Y-5028484D02*
X246253Y-5028484D01*
X303396Y-5028484D02*
X303396Y-4828484D01*
X303396Y-4828484D02*
X284348Y-4857055D01*
X284348Y-4857055D02*
X265301Y-4876103D01*
X265301Y-4876103D02*
X246253Y-4885627D01*
X446253Y-5009436D02*
X455777Y-5018960D01*
X455777Y-5018960D02*
X446253Y-5028484D01*
X446253Y-5028484D02*
X436729Y-5018960D01*
X436729Y-5018960D02*
X446253Y-5009436D01*
X446253Y-5009436D02*
X446253Y-5028484D01*
X531967Y-4847531D02*
X541491Y-4838008D01*
X541491Y-4838008D02*
X560539Y-4828484D01*
X560539Y-4828484D02*
X608158Y-4828484D01*
X608158Y-4828484D02*
X627205Y-4838008D01*
X627205Y-4838008D02*
X636729Y-4847531D01*
X636729Y-4847531D02*
X646253Y-4866579D01*
X646253Y-4866579D02*
X646253Y-4885627D01*
X646253Y-4885627D02*
X636729Y-4914198D01*
X636729Y-4914198D02*
X522443Y-5028484D01*
X522443Y-5028484D02*
X646253Y-5028484D01*
X770062Y-4828484D02*
X789110Y-4828484D01*
X789110Y-4828484D02*
X808158Y-4838008D01*
X808158Y-4838008D02*
X817682Y-4847531D01*
X817682Y-4847531D02*
X827205Y-4866579D01*
X827205Y-4866579D02*
X836729Y-4904674D01*
X836729Y-4904674D02*
X836729Y-4952293D01*
X836729Y-4952293D02*
X827205Y-4990389D01*
X827205Y-4990389D02*
X817682Y-5009436D01*
X817682Y-5009436D02*
X808158Y-5018960D01*
X808158Y-5018960D02*
X789110Y-5028484D01*
X789110Y-5028484D02*
X770062Y-5028484D01*
X770062Y-5028484D02*
X751015Y-5018960D01*
X751015Y-5018960D02*
X741491Y-5009436D01*
X741491Y-5009436D02*
X731967Y-4990389D01*
X731967Y-4990389D02*
X722443Y-4952293D01*
X722443Y-4952293D02*
X722443Y-4904674D01*
X722443Y-4904674D02*
X731967Y-4866579D01*
X731967Y-4866579D02*
X741491Y-4847531D01*
X741491Y-4847531D02*
X751015Y-4838008D01*
X751015Y-4838008D02*
X770062Y-4828484D01*
X960539Y-4828484D02*
X979586Y-4828484D01*
X979586Y-4828484D02*
X998634Y-4838008D01*
X998634Y-4838008D02*
X1008158Y-4847531D01*
X1008158Y-4847531D02*
X1017682Y-4866579D01*
X1017682Y-4866579D02*
X1027205Y-4904674D01*
X1027205Y-4904674D02*
X1027205Y-4952293D01*
X1027205Y-4952293D02*
X1017682Y-4990389D01*
X1017682Y-4990389D02*
X1008158Y-5009436D01*
X1008158Y-5009436D02*
X998634Y-5018960D01*
X998634Y-5018960D02*
X979586Y-5028484D01*
X979586Y-5028484D02*
X960539Y-5028484D01*
X960539Y-5028484D02*
X941491Y-5018960D01*
X941491Y-5018960D02*
X931967Y-5009436D01*
X931967Y-5009436D02*
X922443Y-4990389D01*
X922443Y-4990389D02*
X912920Y-4952293D01*
X912920Y-4952293D02*
X912920Y-4904674D01*
X912920Y-4904674D02*
X922443Y-4866579D01*
X922443Y-4866579D02*
X931967Y-4847531D01*
X931967Y-4847531D02*
X941491Y-4838008D01*
X941491Y-4838008D02*
X960539Y-4828484D01*
X1112920Y-5028484D02*
X1112920Y-4895150D01*
X1112920Y-4914198D02*
X1122444Y-4904674D01*
X1122444Y-4904674D02*
X1141491Y-4895150D01*
X1141491Y-4895150D02*
X1170063Y-4895150D01*
X1170063Y-4895150D02*
X1189110Y-4904674D01*
X1189110Y-4904674D02*
X1198634Y-4923722D01*
X1198634Y-4923722D02*
X1198634Y-5028484D01*
X1198634Y-4923722D02*
X1208158Y-4904674D01*
X1208158Y-4904674D02*
X1227205Y-4895150D01*
X1227205Y-4895150D02*
X1255777Y-4895150D01*
X1255777Y-4895150D02*
X1274825Y-4904674D01*
X1274825Y-4904674D02*
X1284348Y-4923722D01*
X1284348Y-4923722D02*
X1284348Y-5028484D01*
X1379586Y-5028484D02*
X1379586Y-4895150D01*
X1379586Y-4914198D02*
X1389110Y-4904674D01*
X1389110Y-4904674D02*
X1408158Y-4895150D01*
X1408158Y-4895150D02*
X1436729Y-4895150D01*
X1436729Y-4895150D02*
X1455777Y-4904674D01*
X1455777Y-4904674D02*
X1465301Y-4923722D01*
X1465301Y-4923722D02*
X1465301Y-5028484D01*
X1465301Y-4923722D02*
X1474824Y-4904674D01*
X1474824Y-4904674D02*
X1493872Y-4895150D01*
X1493872Y-4895150D02*
X1522443Y-4895150D01*
X1522443Y-4895150D02*
X1541491Y-4904674D01*
X1541491Y-4904674D02*
X1551015Y-4923722D01*
X1551015Y-4923722D02*
X1551015Y-5028484D01*
X1941491Y-4818960D02*
X1770063Y-5076103D01*
X2198634Y-4828484D02*
X2217682Y-4828484D01*
X2217682Y-4828484D02*
X2236729Y-4838008D01*
X2236729Y-4838008D02*
X2246253Y-4847531D01*
X2246253Y-4847531D02*
X2255777Y-4866579D01*
X2255777Y-4866579D02*
X2265301Y-4904674D01*
X2265301Y-4904674D02*
X2265301Y-4952293D01*
X2265301Y-4952293D02*
X2255777Y-4990389D01*
X2255777Y-4990389D02*
X2246253Y-5009436D01*
X2246253Y-5009436D02*
X2236729Y-5018960D01*
X2236729Y-5018960D02*
X2217682Y-5028484D01*
X2217682Y-5028484D02*
X2198634Y-5028484D01*
X2198634Y-5028484D02*
X2179587Y-5018960D01*
X2179587Y-5018960D02*
X2170063Y-5009436D01*
X2170063Y-5009436D02*
X2160539Y-4990389D01*
X2160539Y-4990389D02*
X2151015Y-4952293D01*
X2151015Y-4952293D02*
X2151015Y-4904674D01*
X2151015Y-4904674D02*
X2160539Y-4866579D01*
X2160539Y-4866579D02*
X2170063Y-4847531D01*
X2170063Y-4847531D02*
X2179587Y-4838008D01*
X2179587Y-4838008D02*
X2198634Y-4828484D01*
X2351015Y-5009436D02*
X2360539Y-5018960D01*
X2360539Y-5018960D02*
X2351015Y-5028484D01*
X2351015Y-5028484D02*
X2341491Y-5018960D01*
X2341491Y-5018960D02*
X2351015Y-5009436D01*
X2351015Y-5009436D02*
X2351015Y-5028484D01*
X2484348Y-4828484D02*
X2503396Y-4828484D01*
X2503396Y-4828484D02*
X2522444Y-4838008D01*
X2522444Y-4838008D02*
X2531968Y-4847531D01*
X2531968Y-4847531D02*
X2541491Y-4866579D01*
X2541491Y-4866579D02*
X2551015Y-4904674D01*
X2551015Y-4904674D02*
X2551015Y-4952293D01*
X2551015Y-4952293D02*
X2541491Y-4990389D01*
X2541491Y-4990389D02*
X2531968Y-5009436D01*
X2531968Y-5009436D02*
X2522444Y-5018960D01*
X2522444Y-5018960D02*
X2503396Y-5028484D01*
X2503396Y-5028484D02*
X2484348Y-5028484D01*
X2484348Y-5028484D02*
X2465301Y-5018960D01*
X2465301Y-5018960D02*
X2455777Y-5009436D01*
X2455777Y-5009436D02*
X2446253Y-4990389D01*
X2446253Y-4990389D02*
X2436729Y-4952293D01*
X2436729Y-4952293D02*
X2436729Y-4904674D01*
X2436729Y-4904674D02*
X2446253Y-4866579D01*
X2446253Y-4866579D02*
X2455777Y-4847531D01*
X2455777Y-4847531D02*
X2465301Y-4838008D01*
X2465301Y-4838008D02*
X2484348Y-4828484D01*
X2722444Y-4895150D02*
X2722444Y-5028484D01*
X2674825Y-4818960D02*
X2627206Y-4961817D01*
X2627206Y-4961817D02*
X2751015Y-4961817D01*
X2808158Y-4828484D02*
X2941491Y-4828484D01*
X2941491Y-4828484D02*
X2855777Y-5028484D01*
X3008158Y-4847531D02*
X3017682Y-4838008D01*
X3017682Y-4838008D02*
X3036729Y-4828484D01*
X3036729Y-4828484D02*
X3084348Y-4828484D01*
X3084348Y-4828484D02*
X3103396Y-4838008D01*
X3103396Y-4838008D02*
X3112920Y-4847531D01*
X3112920Y-4847531D02*
X3122444Y-4866579D01*
X3122444Y-4866579D02*
X3122444Y-4885627D01*
X3122444Y-4885627D02*
X3112920Y-4914198D01*
X3112920Y-4914198D02*
X2998634Y-5028484D01*
X2998634Y-5028484D02*
X3122444Y-5028484D01*
X3198634Y-4828484D02*
X3198634Y-4866579D01*
X3274825Y-4828484D02*
X3274825Y-4866579D01*
X3570063Y-5104674D02*
X3560539Y-5095150D01*
X3560539Y-5095150D02*
X3541491Y-5066579D01*
X3541491Y-5066579D02*
X3531968Y-5047531D01*
X3531968Y-5047531D02*
X3522444Y-5018960D01*
X3522444Y-5018960D02*
X3512920Y-4971341D01*
X3512920Y-4971341D02*
X3512920Y-4933246D01*
X3512920Y-4933246D02*
X3522444Y-4885627D01*
X3522444Y-4885627D02*
X3531968Y-4857055D01*
X3531968Y-4857055D02*
X3541491Y-4838008D01*
X3541491Y-4838008D02*
X3560539Y-4809436D01*
X3560539Y-4809436D02*
X3570063Y-4799912D01*
X3731968Y-4895150D02*
X3731968Y-5028484D01*
X3684348Y-4818960D02*
X3636729Y-4961817D01*
X3636729Y-4961817D02*
X3760539Y-4961817D01*
X3989110Y-5028484D02*
X3989110Y-4828484D01*
X4074825Y-5028484D02*
X4074825Y-4923722D01*
X4074825Y-4923722D02*
X4065301Y-4904674D01*
X4065301Y-4904674D02*
X4046253Y-4895150D01*
X4046253Y-4895150D02*
X4017682Y-4895150D01*
X4017682Y-4895150D02*
X3998634Y-4904674D01*
X3998634Y-4904674D02*
X3989110Y-4914198D01*
X4198634Y-5028484D02*
X4179587Y-5018960D01*
X4179587Y-5018960D02*
X4170063Y-5009436D01*
X4170063Y-5009436D02*
X4160539Y-4990389D01*
X4160539Y-4990389D02*
X4160539Y-4933246D01*
X4160539Y-4933246D02*
X4170063Y-4914198D01*
X4170063Y-4914198D02*
X4179587Y-4904674D01*
X4179587Y-4904674D02*
X4198634Y-4895150D01*
X4198634Y-4895150D02*
X4227206Y-4895150D01*
X4227206Y-4895150D02*
X4246253Y-4904674D01*
X4246253Y-4904674D02*
X4255777Y-4914198D01*
X4255777Y-4914198D02*
X4265301Y-4933246D01*
X4265301Y-4933246D02*
X4265301Y-4990389D01*
X4265301Y-4990389D02*
X4255777Y-5009436D01*
X4255777Y-5009436D02*
X4246253Y-5018960D01*
X4246253Y-5018960D02*
X4227206Y-5028484D01*
X4227206Y-5028484D02*
X4198634Y-5028484D01*
X4379587Y-5028484D02*
X4360539Y-5018960D01*
X4360539Y-5018960D02*
X4351015Y-4999912D01*
X4351015Y-4999912D02*
X4351015Y-4828484D01*
X4531968Y-5018960D02*
X4512920Y-5028484D01*
X4512920Y-5028484D02*
X4474825Y-5028484D01*
X4474825Y-5028484D02*
X4455777Y-5018960D01*
X4455777Y-5018960D02*
X4446253Y-4999912D01*
X4446253Y-4999912D02*
X4446253Y-4923722D01*
X4446253Y-4923722D02*
X4455777Y-4904674D01*
X4455777Y-4904674D02*
X4474825Y-4895150D01*
X4474825Y-4895150D02*
X4512920Y-4895150D01*
X4512920Y-4895150D02*
X4531968Y-4904674D01*
X4531968Y-4904674D02*
X4541492Y-4923722D01*
X4541492Y-4923722D02*
X4541492Y-4942770D01*
X4541492Y-4942770D02*
X4446253Y-4961817D01*
X4617682Y-5018960D02*
X4636730Y-5028484D01*
X4636730Y-5028484D02*
X4674825Y-5028484D01*
X4674825Y-5028484D02*
X4693873Y-5018960D01*
X4693873Y-5018960D02*
X4703396Y-4999912D01*
X4703396Y-4999912D02*
X4703396Y-4990389D01*
X4703396Y-4990389D02*
X4693873Y-4971341D01*
X4693873Y-4971341D02*
X4674825Y-4961817D01*
X4674825Y-4961817D02*
X4646253Y-4961817D01*
X4646253Y-4961817D02*
X4627206Y-4952293D01*
X4627206Y-4952293D02*
X4617682Y-4933246D01*
X4617682Y-4933246D02*
X4617682Y-4923722D01*
X4617682Y-4923722D02*
X4627206Y-4904674D01*
X4627206Y-4904674D02*
X4646253Y-4895150D01*
X4646253Y-4895150D02*
X4674825Y-4895150D01*
X4674825Y-4895150D02*
X4693873Y-4904674D01*
X4770063Y-5104674D02*
X4779587Y-5095150D01*
X4779587Y-5095150D02*
X4798634Y-5066579D01*
X4798634Y-5066579D02*
X4808158Y-5047531D01*
X4808158Y-5047531D02*
X4817682Y-5018960D01*
X4817682Y-5018960D02*
X4827206Y-4971341D01*
X4827206Y-4971341D02*
X4827206Y-4933246D01*
X4827206Y-4933246D02*
X4817682Y-4885627D01*
X4817682Y-4885627D02*
X4808158Y-4857055D01*
X4808158Y-4857055D02*
X4798634Y-4838008D01*
X4798634Y-4838008D02*
X4779587Y-4809436D01*
X4779587Y-4809436D02*
X4770063Y-4799912D01*
M02*
