%TF.GenerationSoftware,KiCad,Pcbnew,7.0.7*%
%TF.CreationDate,2023-09-24T18:14:44-04:00*%
%TF.ProjectId,BPF_TX_INJ,4250465f-5458-45f4-994e-4a2e6b696361,rev?*%
%TF.SameCoordinates,PX55d4a80PY3dfd240*%
%TF.FileFunction,Drillmap*%
%TF.FilePolarity,Positive*%
%FSLAX45Y45*%
G04 Gerber Fmt 4.5, Leading zero omitted, Abs format (unit mm)*
G04 Created by KiCad (PCBNEW 7.0.7) date 2023-09-24 18:14:44*
%MOMM*%
%LPD*%
G01*
G04 APERTURE LIST*
%ADD10C,0.100000*%
%ADD11C,0.200000*%
%ADD12C,0.020000*%
%ADD13C,0.040000*%
%ADD14C,0.076200*%
%ADD15C,0.120000*%
%ADD16C,0.320000*%
G04 APERTURE END LIST*
D10*
X10000000Y-5500000D02*
X0Y-5500000D01*
X0Y0D02*
X10000000Y0D01*
X10000000Y0D02*
X10000000Y-5500000D01*
X0Y-5500000D02*
X0Y0D01*
D11*
D12*
X6979750Y-1391200D02*
X6999750Y-1411200D01*
X6999750Y-1391200D02*
X6979750Y-1411200D01*
X6979750Y-1471200D02*
X6999750Y-1491200D01*
X6999750Y-1471200D02*
X6979750Y-1491200D01*
X6979750Y-1551200D02*
X6999750Y-1571200D01*
X6999750Y-1551200D02*
X6979750Y-1571200D01*
X7059750Y-1391200D02*
X7079750Y-1411200D01*
X7079750Y-1391200D02*
X7059750Y-1411200D01*
X7059750Y-1471200D02*
X7079750Y-1491200D01*
X7079750Y-1471200D02*
X7059750Y-1491200D01*
X7059750Y-1551200D02*
X7079750Y-1571200D01*
X7079750Y-1551200D02*
X7059750Y-1571200D01*
X7139750Y-1391200D02*
X7159750Y-1411200D01*
X7159750Y-1391200D02*
X7139750Y-1411200D01*
X7139750Y-1471200D02*
X7159750Y-1491200D01*
X7159750Y-1471200D02*
X7139750Y-1491200D01*
X7139750Y-1551200D02*
X7159750Y-1571200D01*
X7159750Y-1551200D02*
X7139750Y-1571200D01*
D13*
X164000Y-866000D02*
G75*
G03*
X164000Y-866000I-20000J0D01*
G01*
X164000Y-2136000D02*
G75*
G03*
X164000Y-2136000I-20000J0D01*
G01*
X164000Y-3279000D02*
G75*
G03*
X164000Y-3279000I-20000J0D01*
G01*
X164000Y-4676000D02*
G75*
G03*
X164000Y-4676000I-20000J0D01*
G01*
X926000Y-2136000D02*
G75*
G03*
X926000Y-2136000I-20000J0D01*
G01*
X1180000Y-104000D02*
G75*
G03*
X1180000Y-104000I-20000J0D01*
G01*
X1180000Y-1120000D02*
G75*
G03*
X1180000Y-1120000I-20000J0D01*
G01*
X1434000Y-2390000D02*
G75*
G03*
X1434000Y-2390000I-20000J0D01*
G01*
X1434000Y-5438000D02*
G75*
G03*
X1434000Y-5438000I-20000J0D01*
G01*
X1561000Y-1628000D02*
G75*
G03*
X1561000Y-1628000I-20000J0D01*
G01*
X1688000Y-866000D02*
G75*
G03*
X1688000Y-866000I-20000J0D01*
G01*
X1942000Y-1628000D02*
G75*
G03*
X1942000Y-1628000I-20000J0D01*
G01*
X1942000Y-3406000D02*
G75*
G03*
X1942000Y-3406000I-20000J0D01*
G01*
X2450000Y-1628000D02*
G75*
G03*
X2450000Y-1628000I-20000J0D01*
G01*
X2450000Y-3152000D02*
G75*
G03*
X2450000Y-3152000I-20000J0D01*
G01*
X2577000Y-2644000D02*
G75*
G03*
X2577000Y-2644000I-20000J0D01*
G01*
X2958000Y-104000D02*
G75*
G03*
X2958000Y-104000I-20000J0D01*
G01*
X2958000Y-3787000D02*
G75*
G03*
X2958000Y-3787000I-20000J0D01*
G01*
X2958000Y-4168000D02*
G75*
G03*
X2958000Y-4168000I-20000J0D01*
G01*
X2958000Y-4803000D02*
G75*
G03*
X2958000Y-4803000I-20000J0D01*
G01*
X2958000Y-5438000D02*
G75*
G03*
X2958000Y-5438000I-20000J0D01*
G01*
X3085000Y-1628000D02*
G75*
G03*
X3085000Y-1628000I-20000J0D01*
G01*
X3466000Y-104000D02*
G75*
G03*
X3466000Y-104000I-20000J0D01*
G01*
X3466000Y-5438000D02*
G75*
G03*
X3466000Y-5438000I-20000J0D01*
G01*
X3720000Y-1628000D02*
G75*
G03*
X3720000Y-1628000I-20000J0D01*
G01*
X3720000Y-2644000D02*
G75*
G03*
X3720000Y-2644000I-20000J0D01*
G01*
X3720000Y-3787000D02*
G75*
G03*
X3720000Y-3787000I-20000J0D01*
G01*
X3847000Y-4168000D02*
G75*
G03*
X3847000Y-4168000I-20000J0D01*
G01*
X4228000Y-1628000D02*
G75*
G03*
X4228000Y-1628000I-20000J0D01*
G01*
X4228000Y-2644000D02*
G75*
G03*
X4228000Y-2644000I-20000J0D01*
G01*
X4228000Y-4549000D02*
G75*
G03*
X4228000Y-4549000I-20000J0D01*
G01*
X4469300Y-1589900D02*
G75*
G03*
X4469300Y-1589900I-20000J0D01*
G01*
X4609000Y-5438000D02*
G75*
G03*
X4609000Y-5438000I-20000J0D01*
G01*
X4659800Y-1589900D02*
G75*
G03*
X4659800Y-1589900I-20000J0D01*
G01*
X4736000Y-612000D02*
G75*
G03*
X4736000Y-612000I-20000J0D01*
G01*
X4939200Y-1323200D02*
G75*
G03*
X4939200Y-1323200I-20000J0D01*
G01*
X4939200Y-1653400D02*
G75*
G03*
X4939200Y-1653400I-20000J0D01*
G01*
X4990000Y-3406000D02*
G75*
G03*
X4990000Y-3406000I-20000J0D01*
G01*
X4990000Y-3787000D02*
G75*
G03*
X4990000Y-3787000I-20000J0D01*
G01*
X4990000Y-4041000D02*
G75*
G03*
X4990000Y-4041000I-20000J0D01*
G01*
X4990000Y-5438000D02*
G75*
G03*
X4990000Y-5438000I-20000J0D01*
G01*
X5625000Y-1628000D02*
G75*
G03*
X5625000Y-1628000I-20000J0D01*
G01*
X6374300Y-1323200D02*
G75*
G03*
X6374300Y-1323200I-20000J0D01*
G01*
X6374300Y-1653400D02*
G75*
G03*
X6374300Y-1653400I-20000J0D01*
G01*
X6514000Y-2644000D02*
G75*
G03*
X6514000Y-2644000I-20000J0D01*
G01*
X6641000Y-104000D02*
G75*
G03*
X6641000Y-104000I-20000J0D01*
G01*
X6641000Y-739000D02*
G75*
G03*
X6641000Y-739000I-20000J0D01*
G01*
X6641000Y-3787000D02*
G75*
G03*
X6641000Y-3787000I-20000J0D01*
G01*
X6895000Y-764400D02*
G75*
G03*
X6895000Y-764400I-20000J0D01*
G01*
X6895000Y-1755000D02*
G75*
G03*
X6895000Y-1755000I-20000J0D01*
G01*
X6895000Y-3533000D02*
G75*
G03*
X6895000Y-3533000I-20000J0D01*
G01*
X6897350Y-200950D02*
G75*
G03*
X6897350Y-200950I-20000J0D01*
G01*
X7123600Y-396100D02*
G75*
G03*
X7123600Y-396100I-20000J0D01*
G01*
X7276000Y-2644000D02*
G75*
G03*
X7276000Y-2644000I-20000J0D01*
G01*
X7568100Y-713600D02*
G75*
G03*
X7568100Y-713600I-20000J0D01*
G01*
X7657000Y-2136000D02*
G75*
G03*
X7657000Y-2136000I-20000J0D01*
G01*
X7784000Y-4295000D02*
G75*
G03*
X7784000Y-4295000I-20000J0D01*
G01*
X7911000Y-3914000D02*
G75*
G03*
X7911000Y-3914000I-20000J0D01*
G01*
X7961800Y-573900D02*
G75*
G03*
X7961800Y-573900I-20000J0D01*
G01*
X8038000Y-3025000D02*
G75*
G03*
X8038000Y-3025000I-20000J0D01*
G01*
X8292000Y-2517000D02*
G75*
G03*
X8292000Y-2517000I-20000J0D01*
G01*
X8304700Y-916800D02*
G75*
G03*
X8304700Y-916800I-20000J0D01*
G01*
X8317400Y-485000D02*
G75*
G03*
X8317400Y-485000I-20000J0D01*
G01*
X8800000Y-1882000D02*
G75*
G03*
X8800000Y-1882000I-20000J0D01*
G01*
X8800000Y-2517000D02*
G75*
G03*
X8800000Y-2517000I-20000J0D01*
G01*
X8888900Y-916800D02*
G75*
G03*
X8888900Y-916800I-20000J0D01*
G01*
X9142900Y-916800D02*
G75*
G03*
X9142900Y-916800I-20000J0D01*
G01*
X9816000Y-1374000D02*
G75*
G03*
X9816000Y-1374000I-20000J0D01*
G01*
X9816000Y-2517000D02*
G75*
G03*
X9816000Y-2517000I-20000J0D01*
G01*
X9816000Y-3025000D02*
G75*
G03*
X9816000Y-3025000I-20000J0D01*
G01*
X9816000Y-3533000D02*
G75*
G03*
X9816000Y-3533000I-20000J0D01*
G01*
D14*
X1071100Y-3025000D02*
X1071100Y-3101200D01*
X1033000Y-3063100D02*
X1109200Y-3063100D01*
X1071100Y-4612500D02*
X1071100Y-4688700D01*
X1033000Y-4650600D02*
X1109200Y-4650600D01*
X1236200Y-3609200D02*
X1236200Y-3685400D01*
X1198100Y-3647300D02*
X1274300Y-3647300D01*
X3103100Y-1120000D02*
X3103100Y-1196200D01*
X3065000Y-1158100D02*
X3141200Y-1158100D01*
X4449300Y-2123300D02*
X4449300Y-2199500D01*
X4411200Y-2161400D02*
X4487400Y-2161400D01*
X4455500Y-3190100D02*
X4455500Y-3266300D01*
X4417400Y-3228200D02*
X4493600Y-3228200D01*
X7662400Y-1386700D02*
X7662400Y-1462900D01*
X7624300Y-1424800D02*
X7700500Y-1424800D01*
X7701150Y-1653400D02*
X7701150Y-1729600D01*
X7663050Y-1691500D02*
X7739250Y-1691500D01*
X8145000Y-1653400D02*
X8145000Y-1729600D01*
X8106900Y-1691500D02*
X8183100Y-1691500D01*
X8653000Y-2061900D02*
X8653000Y-2138100D01*
X8614900Y-2100000D02*
X8691100Y-2100000D01*
X8843500Y-3190100D02*
X8843500Y-3266300D01*
X8805400Y-3228200D02*
X8881600Y-3228200D01*
X8843500Y-3748900D02*
X8843500Y-3825100D01*
X8805400Y-3787000D02*
X8881600Y-3787000D01*
X2870541Y-3374941D02*
X2870541Y-3321059D01*
X2816659Y-3321059D01*
X2816659Y-3374941D01*
X2870541Y-3374941D01*
X2874141Y-2095841D02*
X2874141Y-2041959D01*
X2820259Y-2041959D01*
X2820259Y-2095841D01*
X2874141Y-2095841D01*
X3320541Y-3374941D02*
X3320541Y-3321059D01*
X3266659Y-3321059D01*
X3266659Y-3374941D01*
X3320541Y-3374941D01*
X3324141Y-2095841D02*
X3324141Y-2041959D01*
X3270259Y-2041959D01*
X3270259Y-2095841D01*
X3324141Y-2095841D01*
X5604741Y-2077641D02*
X5604741Y-2023759D01*
X5550859Y-2023759D01*
X5550859Y-2077641D01*
X5604741Y-2077641D01*
X5604741Y-3365841D02*
X5604741Y-3311959D01*
X5550859Y-3311959D01*
X5550859Y-3365841D01*
X5604741Y-3365841D01*
X6054741Y-2077641D02*
X6054741Y-2023759D01*
X6000859Y-2023759D01*
X6000859Y-2077641D01*
X6054741Y-2077641D01*
X6054741Y-3365841D02*
X6054741Y-3311959D01*
X6000859Y-3311959D01*
X6000859Y-3365841D01*
X6054741Y-3365841D01*
D15*
X2706600Y-3183000D02*
X2766600Y-3123000D01*
X2706600Y-3063000D01*
X2646600Y-3123000D01*
X2706600Y-3183000D01*
X2710200Y-2353900D02*
X2770200Y-2293900D01*
X2710200Y-2233900D01*
X2650200Y-2293900D01*
X2710200Y-2353900D01*
X3430600Y-3183000D02*
X3490600Y-3123000D01*
X3430600Y-3063000D01*
X3370600Y-3123000D01*
X3430600Y-3183000D01*
X3434200Y-2353900D02*
X3494200Y-2293900D01*
X3434200Y-2233900D01*
X3374200Y-2293900D01*
X3434200Y-2353900D01*
X5440800Y-2335700D02*
X5500800Y-2275700D01*
X5440800Y-2215700D01*
X5380800Y-2275700D01*
X5440800Y-2335700D01*
X5440800Y-3173900D02*
X5500800Y-3113900D01*
X5440800Y-3053900D01*
X5380800Y-3113900D01*
X5440800Y-3173900D01*
X6164800Y-2335700D02*
X6224800Y-2275700D01*
X6164800Y-2215700D01*
X6104800Y-2275700D01*
X6164800Y-2335700D01*
X6164800Y-3173900D02*
X6224800Y-3113900D01*
X6164800Y-3053900D01*
X6104800Y-3113900D01*
X6164800Y-3173900D01*
D16*
X240000Y-240000D02*
X560000Y-560000D01*
X560000Y-240000D02*
X240000Y-560000D01*
X560000Y-400000D02*
G75*
G03*
X560000Y-400000I-160000J0D01*
G01*
X240000Y-4940000D02*
X560000Y-5260000D01*
X560000Y-4940000D02*
X240000Y-5260000D01*
X560000Y-5100000D02*
G75*
G03*
X560000Y-5100000I-160000J0D01*
G01*
X4840000Y-2540000D02*
X5160000Y-2860000D01*
X5160000Y-2540000D02*
X4840000Y-2860000D01*
X5160000Y-2700000D02*
G75*
G03*
X5160000Y-2700000I-160000J0D01*
G01*
X9440000Y-240000D02*
X9760000Y-560000D01*
X9760000Y-240000D02*
X9440000Y-560000D01*
X9760000Y-400000D02*
G75*
G03*
X9760000Y-400000I-160000J0D01*
G01*
X9440000Y-4940000D02*
X9760000Y-5260000D01*
X9760000Y-4940000D02*
X9440000Y-5260000D01*
X9760000Y-5100000D02*
G75*
G03*
X9760000Y-5100000I-160000J0D01*
G01*
D14*
X2805500Y-2859900D02*
X2881700Y-2936100D01*
X2881700Y-2859900D02*
X2805500Y-2936100D01*
X2843600Y-2859900D02*
X2843600Y-2936100D01*
X2805500Y-2898000D02*
X2881700Y-2898000D01*
X2809100Y-2480800D02*
X2885300Y-2557000D01*
X2885300Y-2480800D02*
X2809100Y-2557000D01*
X2847200Y-2480800D02*
X2847200Y-2557000D01*
X2809100Y-2518900D02*
X2885300Y-2518900D01*
X3030500Y-3309900D02*
X3106700Y-3386100D01*
X3106700Y-3309900D02*
X3030500Y-3386100D01*
X3068600Y-3309900D02*
X3068600Y-3386100D01*
X3030500Y-3348000D02*
X3106700Y-3348000D01*
X3034100Y-2030800D02*
X3110300Y-2107000D01*
X3110300Y-2030800D02*
X3034100Y-2107000D01*
X3072200Y-2030800D02*
X3072200Y-2107000D01*
X3034100Y-2068900D02*
X3110300Y-2068900D01*
X3255500Y-2859900D02*
X3331700Y-2936100D01*
X3331700Y-2859900D02*
X3255500Y-2936100D01*
X3293600Y-2859900D02*
X3293600Y-2936100D01*
X3255500Y-2898000D02*
X3331700Y-2898000D01*
X3259100Y-2480800D02*
X3335300Y-2557000D01*
X3335300Y-2480800D02*
X3259100Y-2557000D01*
X3297200Y-2480800D02*
X3297200Y-2557000D01*
X3259100Y-2518900D02*
X3335300Y-2518900D01*
X5539700Y-2462600D02*
X5615900Y-2538800D01*
X5615900Y-2462600D02*
X5539700Y-2538800D01*
X5577800Y-2462600D02*
X5577800Y-2538800D01*
X5539700Y-2500700D02*
X5615900Y-2500700D01*
X5539700Y-2850800D02*
X5615900Y-2927000D01*
X5615900Y-2850800D02*
X5539700Y-2927000D01*
X5577800Y-2850800D02*
X5577800Y-2927000D01*
X5539700Y-2888900D02*
X5615900Y-2888900D01*
X5764700Y-2012600D02*
X5840900Y-2088800D01*
X5840900Y-2012600D02*
X5764700Y-2088800D01*
X5802800Y-2012600D02*
X5802800Y-2088800D01*
X5764700Y-2050700D02*
X5840900Y-2050700D01*
X5764700Y-3300800D02*
X5840900Y-3377000D01*
X5840900Y-3300800D02*
X5764700Y-3377000D01*
X5802800Y-3300800D02*
X5802800Y-3377000D01*
X5764700Y-3338900D02*
X5840900Y-3338900D01*
X5989700Y-2462600D02*
X6065900Y-2538800D01*
X6065900Y-2462600D02*
X5989700Y-2538800D01*
X6027800Y-2462600D02*
X6027800Y-2538800D01*
X5989700Y-2500700D02*
X6065900Y-2500700D01*
X5989700Y-2850800D02*
X6065900Y-2927000D01*
X6065900Y-2850800D02*
X5989700Y-2927000D01*
X6027800Y-2850800D02*
X6027800Y-2927000D01*
X5989700Y-2888900D02*
X6065900Y-2888900D01*
D11*
X255777Y-5816484D02*
X255777Y-5616484D01*
X255777Y-5616484D02*
X303396Y-5616484D01*
X303396Y-5616484D02*
X331967Y-5626008D01*
X331967Y-5626008D02*
X351015Y-5645055D01*
X351015Y-5645055D02*
X360539Y-5664103D01*
X360539Y-5664103D02*
X370062Y-5702198D01*
X370062Y-5702198D02*
X370062Y-5730769D01*
X370062Y-5730769D02*
X360539Y-5768865D01*
X360539Y-5768865D02*
X351015Y-5787912D01*
X351015Y-5787912D02*
X331967Y-5806960D01*
X331967Y-5806960D02*
X303396Y-5816484D01*
X303396Y-5816484D02*
X255777Y-5816484D01*
X455777Y-5816484D02*
X455777Y-5683150D01*
X455777Y-5721246D02*
X465301Y-5702198D01*
X465301Y-5702198D02*
X474824Y-5692674D01*
X474824Y-5692674D02*
X493872Y-5683150D01*
X493872Y-5683150D02*
X512920Y-5683150D01*
X579586Y-5816484D02*
X579586Y-5683150D01*
X579586Y-5616484D02*
X570063Y-5626008D01*
X570063Y-5626008D02*
X579586Y-5635531D01*
X579586Y-5635531D02*
X589110Y-5626008D01*
X589110Y-5626008D02*
X579586Y-5616484D01*
X579586Y-5616484D02*
X579586Y-5635531D01*
X703396Y-5816484D02*
X684348Y-5806960D01*
X684348Y-5806960D02*
X674824Y-5787912D01*
X674824Y-5787912D02*
X674824Y-5616484D01*
X808158Y-5816484D02*
X789110Y-5806960D01*
X789110Y-5806960D02*
X779586Y-5787912D01*
X779586Y-5787912D02*
X779586Y-5616484D01*
X1036729Y-5816484D02*
X1036729Y-5616484D01*
X1036729Y-5616484D02*
X1103396Y-5759341D01*
X1103396Y-5759341D02*
X1170063Y-5616484D01*
X1170063Y-5616484D02*
X1170063Y-5816484D01*
X1351015Y-5816484D02*
X1351015Y-5711722D01*
X1351015Y-5711722D02*
X1341491Y-5692674D01*
X1341491Y-5692674D02*
X1322444Y-5683150D01*
X1322444Y-5683150D02*
X1284348Y-5683150D01*
X1284348Y-5683150D02*
X1265301Y-5692674D01*
X1351015Y-5806960D02*
X1331967Y-5816484D01*
X1331967Y-5816484D02*
X1284348Y-5816484D01*
X1284348Y-5816484D02*
X1265301Y-5806960D01*
X1265301Y-5806960D02*
X1255777Y-5787912D01*
X1255777Y-5787912D02*
X1255777Y-5768865D01*
X1255777Y-5768865D02*
X1265301Y-5749817D01*
X1265301Y-5749817D02*
X1284348Y-5740293D01*
X1284348Y-5740293D02*
X1331967Y-5740293D01*
X1331967Y-5740293D02*
X1351015Y-5730769D01*
X1446253Y-5683150D02*
X1446253Y-5883150D01*
X1446253Y-5692674D02*
X1465301Y-5683150D01*
X1465301Y-5683150D02*
X1503396Y-5683150D01*
X1503396Y-5683150D02*
X1522443Y-5692674D01*
X1522443Y-5692674D02*
X1531967Y-5702198D01*
X1531967Y-5702198D02*
X1541491Y-5721246D01*
X1541491Y-5721246D02*
X1541491Y-5778388D01*
X1541491Y-5778388D02*
X1531967Y-5797436D01*
X1531967Y-5797436D02*
X1522443Y-5806960D01*
X1522443Y-5806960D02*
X1503396Y-5816484D01*
X1503396Y-5816484D02*
X1465301Y-5816484D01*
X1465301Y-5816484D02*
X1446253Y-5806960D01*
X1627205Y-5797436D02*
X1636729Y-5806960D01*
X1636729Y-5806960D02*
X1627205Y-5816484D01*
X1627205Y-5816484D02*
X1617682Y-5806960D01*
X1617682Y-5806960D02*
X1627205Y-5797436D01*
X1627205Y-5797436D02*
X1627205Y-5816484D01*
X1627205Y-5692674D02*
X1636729Y-5702198D01*
X1636729Y-5702198D02*
X1627205Y-5711722D01*
X1627205Y-5711722D02*
X1617682Y-5702198D01*
X1617682Y-5702198D02*
X1627205Y-5692674D01*
X1627205Y-5692674D02*
X1627205Y-5711722D01*
D12*
X-25000Y-6135000D02*
X-5000Y-6155000D01*
X-5000Y-6135000D02*
X-25000Y-6155000D01*
D11*
X293872Y-6036484D02*
X312920Y-6036484D01*
X312920Y-6036484D02*
X331967Y-6046008D01*
X331967Y-6046008D02*
X341491Y-6055531D01*
X341491Y-6055531D02*
X351015Y-6074579D01*
X351015Y-6074579D02*
X360539Y-6112674D01*
X360539Y-6112674D02*
X360539Y-6160293D01*
X360539Y-6160293D02*
X351015Y-6198388D01*
X351015Y-6198388D02*
X341491Y-6217436D01*
X341491Y-6217436D02*
X331967Y-6226960D01*
X331967Y-6226960D02*
X312920Y-6236484D01*
X312920Y-6236484D02*
X293872Y-6236484D01*
X293872Y-6236484D02*
X274824Y-6226960D01*
X274824Y-6226960D02*
X265301Y-6217436D01*
X265301Y-6217436D02*
X255777Y-6198388D01*
X255777Y-6198388D02*
X246253Y-6160293D01*
X246253Y-6160293D02*
X246253Y-6112674D01*
X246253Y-6112674D02*
X255777Y-6074579D01*
X255777Y-6074579D02*
X265301Y-6055531D01*
X265301Y-6055531D02*
X274824Y-6046008D01*
X274824Y-6046008D02*
X293872Y-6036484D01*
X446253Y-6217436D02*
X455777Y-6226960D01*
X455777Y-6226960D02*
X446253Y-6236484D01*
X446253Y-6236484D02*
X436729Y-6226960D01*
X436729Y-6226960D02*
X446253Y-6217436D01*
X446253Y-6217436D02*
X446253Y-6236484D01*
X531967Y-6055531D02*
X541491Y-6046008D01*
X541491Y-6046008D02*
X560539Y-6036484D01*
X560539Y-6036484D02*
X608158Y-6036484D01*
X608158Y-6036484D02*
X627205Y-6046008D01*
X627205Y-6046008D02*
X636729Y-6055531D01*
X636729Y-6055531D02*
X646253Y-6074579D01*
X646253Y-6074579D02*
X646253Y-6093627D01*
X646253Y-6093627D02*
X636729Y-6122198D01*
X636729Y-6122198D02*
X522443Y-6236484D01*
X522443Y-6236484D02*
X646253Y-6236484D01*
X770062Y-6036484D02*
X789110Y-6036484D01*
X789110Y-6036484D02*
X808158Y-6046008D01*
X808158Y-6046008D02*
X817682Y-6055531D01*
X817682Y-6055531D02*
X827205Y-6074579D01*
X827205Y-6074579D02*
X836729Y-6112674D01*
X836729Y-6112674D02*
X836729Y-6160293D01*
X836729Y-6160293D02*
X827205Y-6198388D01*
X827205Y-6198388D02*
X817682Y-6217436D01*
X817682Y-6217436D02*
X808158Y-6226960D01*
X808158Y-6226960D02*
X789110Y-6236484D01*
X789110Y-6236484D02*
X770062Y-6236484D01*
X770062Y-6236484D02*
X751015Y-6226960D01*
X751015Y-6226960D02*
X741491Y-6217436D01*
X741491Y-6217436D02*
X731967Y-6198388D01*
X731967Y-6198388D02*
X722443Y-6160293D01*
X722443Y-6160293D02*
X722443Y-6112674D01*
X722443Y-6112674D02*
X731967Y-6074579D01*
X731967Y-6074579D02*
X741491Y-6055531D01*
X741491Y-6055531D02*
X751015Y-6046008D01*
X751015Y-6046008D02*
X770062Y-6036484D01*
X960539Y-6036484D02*
X979586Y-6036484D01*
X979586Y-6036484D02*
X998634Y-6046008D01*
X998634Y-6046008D02*
X1008158Y-6055531D01*
X1008158Y-6055531D02*
X1017682Y-6074579D01*
X1017682Y-6074579D02*
X1027205Y-6112674D01*
X1027205Y-6112674D02*
X1027205Y-6160293D01*
X1027205Y-6160293D02*
X1017682Y-6198388D01*
X1017682Y-6198388D02*
X1008158Y-6217436D01*
X1008158Y-6217436D02*
X998634Y-6226960D01*
X998634Y-6226960D02*
X979586Y-6236484D01*
X979586Y-6236484D02*
X960539Y-6236484D01*
X960539Y-6236484D02*
X941491Y-6226960D01*
X941491Y-6226960D02*
X931967Y-6217436D01*
X931967Y-6217436D02*
X922443Y-6198388D01*
X922443Y-6198388D02*
X912920Y-6160293D01*
X912920Y-6160293D02*
X912920Y-6112674D01*
X912920Y-6112674D02*
X922443Y-6074579D01*
X922443Y-6074579D02*
X931967Y-6055531D01*
X931967Y-6055531D02*
X941491Y-6046008D01*
X941491Y-6046008D02*
X960539Y-6036484D01*
X1112920Y-6236484D02*
X1112920Y-6103150D01*
X1112920Y-6122198D02*
X1122444Y-6112674D01*
X1122444Y-6112674D02*
X1141491Y-6103150D01*
X1141491Y-6103150D02*
X1170063Y-6103150D01*
X1170063Y-6103150D02*
X1189110Y-6112674D01*
X1189110Y-6112674D02*
X1198634Y-6131722D01*
X1198634Y-6131722D02*
X1198634Y-6236484D01*
X1198634Y-6131722D02*
X1208158Y-6112674D01*
X1208158Y-6112674D02*
X1227205Y-6103150D01*
X1227205Y-6103150D02*
X1255777Y-6103150D01*
X1255777Y-6103150D02*
X1274825Y-6112674D01*
X1274825Y-6112674D02*
X1284348Y-6131722D01*
X1284348Y-6131722D02*
X1284348Y-6236484D01*
X1379586Y-6236484D02*
X1379586Y-6103150D01*
X1379586Y-6122198D02*
X1389110Y-6112674D01*
X1389110Y-6112674D02*
X1408158Y-6103150D01*
X1408158Y-6103150D02*
X1436729Y-6103150D01*
X1436729Y-6103150D02*
X1455777Y-6112674D01*
X1455777Y-6112674D02*
X1465301Y-6131722D01*
X1465301Y-6131722D02*
X1465301Y-6236484D01*
X1465301Y-6131722D02*
X1474824Y-6112674D01*
X1474824Y-6112674D02*
X1493872Y-6103150D01*
X1493872Y-6103150D02*
X1522443Y-6103150D01*
X1522443Y-6103150D02*
X1541491Y-6112674D01*
X1541491Y-6112674D02*
X1551015Y-6131722D01*
X1551015Y-6131722D02*
X1551015Y-6236484D01*
X1941491Y-6026960D02*
X1770063Y-6284103D01*
X2198634Y-6036484D02*
X2217682Y-6036484D01*
X2217682Y-6036484D02*
X2236729Y-6046008D01*
X2236729Y-6046008D02*
X2246253Y-6055531D01*
X2246253Y-6055531D02*
X2255777Y-6074579D01*
X2255777Y-6074579D02*
X2265301Y-6112674D01*
X2265301Y-6112674D02*
X2265301Y-6160293D01*
X2265301Y-6160293D02*
X2255777Y-6198388D01*
X2255777Y-6198388D02*
X2246253Y-6217436D01*
X2246253Y-6217436D02*
X2236729Y-6226960D01*
X2236729Y-6226960D02*
X2217682Y-6236484D01*
X2217682Y-6236484D02*
X2198634Y-6236484D01*
X2198634Y-6236484D02*
X2179587Y-6226960D01*
X2179587Y-6226960D02*
X2170063Y-6217436D01*
X2170063Y-6217436D02*
X2160539Y-6198388D01*
X2160539Y-6198388D02*
X2151015Y-6160293D01*
X2151015Y-6160293D02*
X2151015Y-6112674D01*
X2151015Y-6112674D02*
X2160539Y-6074579D01*
X2160539Y-6074579D02*
X2170063Y-6055531D01*
X2170063Y-6055531D02*
X2179587Y-6046008D01*
X2179587Y-6046008D02*
X2198634Y-6036484D01*
X2351015Y-6217436D02*
X2360539Y-6226960D01*
X2360539Y-6226960D02*
X2351015Y-6236484D01*
X2351015Y-6236484D02*
X2341491Y-6226960D01*
X2341491Y-6226960D02*
X2351015Y-6217436D01*
X2351015Y-6217436D02*
X2351015Y-6236484D01*
X2484348Y-6036484D02*
X2503396Y-6036484D01*
X2503396Y-6036484D02*
X2522444Y-6046008D01*
X2522444Y-6046008D02*
X2531968Y-6055531D01*
X2531968Y-6055531D02*
X2541491Y-6074579D01*
X2541491Y-6074579D02*
X2551015Y-6112674D01*
X2551015Y-6112674D02*
X2551015Y-6160293D01*
X2551015Y-6160293D02*
X2541491Y-6198388D01*
X2541491Y-6198388D02*
X2531968Y-6217436D01*
X2531968Y-6217436D02*
X2522444Y-6226960D01*
X2522444Y-6226960D02*
X2503396Y-6236484D01*
X2503396Y-6236484D02*
X2484348Y-6236484D01*
X2484348Y-6236484D02*
X2465301Y-6226960D01*
X2465301Y-6226960D02*
X2455777Y-6217436D01*
X2455777Y-6217436D02*
X2446253Y-6198388D01*
X2446253Y-6198388D02*
X2436729Y-6160293D01*
X2436729Y-6160293D02*
X2436729Y-6112674D01*
X2436729Y-6112674D02*
X2446253Y-6074579D01*
X2446253Y-6074579D02*
X2455777Y-6055531D01*
X2455777Y-6055531D02*
X2465301Y-6046008D01*
X2465301Y-6046008D02*
X2484348Y-6036484D01*
X2674825Y-6036484D02*
X2693872Y-6036484D01*
X2693872Y-6036484D02*
X2712920Y-6046008D01*
X2712920Y-6046008D02*
X2722444Y-6055531D01*
X2722444Y-6055531D02*
X2731968Y-6074579D01*
X2731968Y-6074579D02*
X2741491Y-6112674D01*
X2741491Y-6112674D02*
X2741491Y-6160293D01*
X2741491Y-6160293D02*
X2731968Y-6198388D01*
X2731968Y-6198388D02*
X2722444Y-6217436D01*
X2722444Y-6217436D02*
X2712920Y-6226960D01*
X2712920Y-6226960D02*
X2693872Y-6236484D01*
X2693872Y-6236484D02*
X2674825Y-6236484D01*
X2674825Y-6236484D02*
X2655777Y-6226960D01*
X2655777Y-6226960D02*
X2646253Y-6217436D01*
X2646253Y-6217436D02*
X2636729Y-6198388D01*
X2636729Y-6198388D02*
X2627206Y-6160293D01*
X2627206Y-6160293D02*
X2627206Y-6112674D01*
X2627206Y-6112674D02*
X2636729Y-6074579D01*
X2636729Y-6074579D02*
X2646253Y-6055531D01*
X2646253Y-6055531D02*
X2655777Y-6046008D01*
X2655777Y-6046008D02*
X2674825Y-6036484D01*
X2808158Y-6036484D02*
X2941491Y-6036484D01*
X2941491Y-6036484D02*
X2855777Y-6236484D01*
X3027206Y-6236484D02*
X3065301Y-6236484D01*
X3065301Y-6236484D02*
X3084348Y-6226960D01*
X3084348Y-6226960D02*
X3093872Y-6217436D01*
X3093872Y-6217436D02*
X3112920Y-6188865D01*
X3112920Y-6188865D02*
X3122444Y-6150769D01*
X3122444Y-6150769D02*
X3122444Y-6074579D01*
X3122444Y-6074579D02*
X3112920Y-6055531D01*
X3112920Y-6055531D02*
X3103396Y-6046008D01*
X3103396Y-6046008D02*
X3084348Y-6036484D01*
X3084348Y-6036484D02*
X3046253Y-6036484D01*
X3046253Y-6036484D02*
X3027206Y-6046008D01*
X3027206Y-6046008D02*
X3017682Y-6055531D01*
X3017682Y-6055531D02*
X3008158Y-6074579D01*
X3008158Y-6074579D02*
X3008158Y-6122198D01*
X3008158Y-6122198D02*
X3017682Y-6141246D01*
X3017682Y-6141246D02*
X3027206Y-6150769D01*
X3027206Y-6150769D02*
X3046253Y-6160293D01*
X3046253Y-6160293D02*
X3084348Y-6160293D01*
X3084348Y-6160293D02*
X3103396Y-6150769D01*
X3103396Y-6150769D02*
X3112920Y-6141246D01*
X3112920Y-6141246D02*
X3122444Y-6122198D01*
X3198634Y-6036484D02*
X3198634Y-6074579D01*
X3274825Y-6036484D02*
X3274825Y-6074579D01*
X3570063Y-6312674D02*
X3560539Y-6303150D01*
X3560539Y-6303150D02*
X3541491Y-6274579D01*
X3541491Y-6274579D02*
X3531968Y-6255531D01*
X3531968Y-6255531D02*
X3522444Y-6226960D01*
X3522444Y-6226960D02*
X3512920Y-6179341D01*
X3512920Y-6179341D02*
X3512920Y-6141246D01*
X3512920Y-6141246D02*
X3522444Y-6093627D01*
X3522444Y-6093627D02*
X3531968Y-6065055D01*
X3531968Y-6065055D02*
X3541491Y-6046008D01*
X3541491Y-6046008D02*
X3560539Y-6017436D01*
X3560539Y-6017436D02*
X3570063Y-6007912D01*
X3655777Y-6236484D02*
X3693872Y-6236484D01*
X3693872Y-6236484D02*
X3712920Y-6226960D01*
X3712920Y-6226960D02*
X3722444Y-6217436D01*
X3722444Y-6217436D02*
X3741491Y-6188865D01*
X3741491Y-6188865D02*
X3751015Y-6150769D01*
X3751015Y-6150769D02*
X3751015Y-6074579D01*
X3751015Y-6074579D02*
X3741491Y-6055531D01*
X3741491Y-6055531D02*
X3731968Y-6046008D01*
X3731968Y-6046008D02*
X3712920Y-6036484D01*
X3712920Y-6036484D02*
X3674825Y-6036484D01*
X3674825Y-6036484D02*
X3655777Y-6046008D01*
X3655777Y-6046008D02*
X3646253Y-6055531D01*
X3646253Y-6055531D02*
X3636729Y-6074579D01*
X3636729Y-6074579D02*
X3636729Y-6122198D01*
X3636729Y-6122198D02*
X3646253Y-6141246D01*
X3646253Y-6141246D02*
X3655777Y-6150769D01*
X3655777Y-6150769D02*
X3674825Y-6160293D01*
X3674825Y-6160293D02*
X3712920Y-6160293D01*
X3712920Y-6160293D02*
X3731968Y-6150769D01*
X3731968Y-6150769D02*
X3741491Y-6141246D01*
X3741491Y-6141246D02*
X3751015Y-6122198D01*
X3989110Y-6236484D02*
X3989110Y-6036484D01*
X4074825Y-6236484D02*
X4074825Y-6131722D01*
X4074825Y-6131722D02*
X4065301Y-6112674D01*
X4065301Y-6112674D02*
X4046253Y-6103150D01*
X4046253Y-6103150D02*
X4017682Y-6103150D01*
X4017682Y-6103150D02*
X3998634Y-6112674D01*
X3998634Y-6112674D02*
X3989110Y-6122198D01*
X4198634Y-6236484D02*
X4179587Y-6226960D01*
X4179587Y-6226960D02*
X4170063Y-6217436D01*
X4170063Y-6217436D02*
X4160539Y-6198388D01*
X4160539Y-6198388D02*
X4160539Y-6141246D01*
X4160539Y-6141246D02*
X4170063Y-6122198D01*
X4170063Y-6122198D02*
X4179587Y-6112674D01*
X4179587Y-6112674D02*
X4198634Y-6103150D01*
X4198634Y-6103150D02*
X4227206Y-6103150D01*
X4227206Y-6103150D02*
X4246253Y-6112674D01*
X4246253Y-6112674D02*
X4255777Y-6122198D01*
X4255777Y-6122198D02*
X4265301Y-6141246D01*
X4265301Y-6141246D02*
X4265301Y-6198388D01*
X4265301Y-6198388D02*
X4255777Y-6217436D01*
X4255777Y-6217436D02*
X4246253Y-6226960D01*
X4246253Y-6226960D02*
X4227206Y-6236484D01*
X4227206Y-6236484D02*
X4198634Y-6236484D01*
X4379587Y-6236484D02*
X4360539Y-6226960D01*
X4360539Y-6226960D02*
X4351015Y-6207912D01*
X4351015Y-6207912D02*
X4351015Y-6036484D01*
X4531968Y-6226960D02*
X4512920Y-6236484D01*
X4512920Y-6236484D02*
X4474825Y-6236484D01*
X4474825Y-6236484D02*
X4455777Y-6226960D01*
X4455777Y-6226960D02*
X4446253Y-6207912D01*
X4446253Y-6207912D02*
X4446253Y-6131722D01*
X4446253Y-6131722D02*
X4455777Y-6112674D01*
X4455777Y-6112674D02*
X4474825Y-6103150D01*
X4474825Y-6103150D02*
X4512920Y-6103150D01*
X4512920Y-6103150D02*
X4531968Y-6112674D01*
X4531968Y-6112674D02*
X4541492Y-6131722D01*
X4541492Y-6131722D02*
X4541492Y-6150769D01*
X4541492Y-6150769D02*
X4446253Y-6169817D01*
X4617682Y-6226960D02*
X4636730Y-6236484D01*
X4636730Y-6236484D02*
X4674825Y-6236484D01*
X4674825Y-6236484D02*
X4693873Y-6226960D01*
X4693873Y-6226960D02*
X4703396Y-6207912D01*
X4703396Y-6207912D02*
X4703396Y-6198388D01*
X4703396Y-6198388D02*
X4693873Y-6179341D01*
X4693873Y-6179341D02*
X4674825Y-6169817D01*
X4674825Y-6169817D02*
X4646253Y-6169817D01*
X4646253Y-6169817D02*
X4627206Y-6160293D01*
X4627206Y-6160293D02*
X4617682Y-6141246D01*
X4617682Y-6141246D02*
X4617682Y-6131722D01*
X4617682Y-6131722D02*
X4627206Y-6112674D01*
X4627206Y-6112674D02*
X4646253Y-6103150D01*
X4646253Y-6103150D02*
X4674825Y-6103150D01*
X4674825Y-6103150D02*
X4693873Y-6112674D01*
X4770063Y-6312674D02*
X4779587Y-6303150D01*
X4779587Y-6303150D02*
X4798634Y-6274579D01*
X4798634Y-6274579D02*
X4808158Y-6255531D01*
X4808158Y-6255531D02*
X4817682Y-6226960D01*
X4817682Y-6226960D02*
X4827206Y-6179341D01*
X4827206Y-6179341D02*
X4827206Y-6141246D01*
X4827206Y-6141246D02*
X4817682Y-6093627D01*
X4817682Y-6093627D02*
X4808158Y-6065055D01*
X4808158Y-6065055D02*
X4798634Y-6046008D01*
X4798634Y-6046008D02*
X4779587Y-6017436D01*
X4779587Y-6017436D02*
X4770063Y-6007912D01*
D13*
X-5000Y-6409000D02*
G75*
G03*
X-5000Y-6409000I-20000J0D01*
G01*
D11*
X293872Y-6300484D02*
X312920Y-6300484D01*
X312920Y-6300484D02*
X331967Y-6310008D01*
X331967Y-6310008D02*
X341491Y-6319531D01*
X341491Y-6319531D02*
X351015Y-6338579D01*
X351015Y-6338579D02*
X360539Y-6376674D01*
X360539Y-6376674D02*
X360539Y-6424293D01*
X360539Y-6424293D02*
X351015Y-6462388D01*
X351015Y-6462388D02*
X341491Y-6481436D01*
X341491Y-6481436D02*
X331967Y-6490960D01*
X331967Y-6490960D02*
X312920Y-6500484D01*
X312920Y-6500484D02*
X293872Y-6500484D01*
X293872Y-6500484D02*
X274824Y-6490960D01*
X274824Y-6490960D02*
X265301Y-6481436D01*
X265301Y-6481436D02*
X255777Y-6462388D01*
X255777Y-6462388D02*
X246253Y-6424293D01*
X246253Y-6424293D02*
X246253Y-6376674D01*
X246253Y-6376674D02*
X255777Y-6338579D01*
X255777Y-6338579D02*
X265301Y-6319531D01*
X265301Y-6319531D02*
X274824Y-6310008D01*
X274824Y-6310008D02*
X293872Y-6300484D01*
X446253Y-6481436D02*
X455777Y-6490960D01*
X455777Y-6490960D02*
X446253Y-6500484D01*
X446253Y-6500484D02*
X436729Y-6490960D01*
X436729Y-6490960D02*
X446253Y-6481436D01*
X446253Y-6481436D02*
X446253Y-6500484D01*
X627205Y-6367150D02*
X627205Y-6500484D01*
X579586Y-6290960D02*
X531967Y-6433817D01*
X531967Y-6433817D02*
X655777Y-6433817D01*
X770062Y-6300484D02*
X789110Y-6300484D01*
X789110Y-6300484D02*
X808158Y-6310008D01*
X808158Y-6310008D02*
X817682Y-6319531D01*
X817682Y-6319531D02*
X827205Y-6338579D01*
X827205Y-6338579D02*
X836729Y-6376674D01*
X836729Y-6376674D02*
X836729Y-6424293D01*
X836729Y-6424293D02*
X827205Y-6462388D01*
X827205Y-6462388D02*
X817682Y-6481436D01*
X817682Y-6481436D02*
X808158Y-6490960D01*
X808158Y-6490960D02*
X789110Y-6500484D01*
X789110Y-6500484D02*
X770062Y-6500484D01*
X770062Y-6500484D02*
X751015Y-6490960D01*
X751015Y-6490960D02*
X741491Y-6481436D01*
X741491Y-6481436D02*
X731967Y-6462388D01*
X731967Y-6462388D02*
X722443Y-6424293D01*
X722443Y-6424293D02*
X722443Y-6376674D01*
X722443Y-6376674D02*
X731967Y-6338579D01*
X731967Y-6338579D02*
X741491Y-6319531D01*
X741491Y-6319531D02*
X751015Y-6310008D01*
X751015Y-6310008D02*
X770062Y-6300484D01*
X960539Y-6300484D02*
X979586Y-6300484D01*
X979586Y-6300484D02*
X998634Y-6310008D01*
X998634Y-6310008D02*
X1008158Y-6319531D01*
X1008158Y-6319531D02*
X1017682Y-6338579D01*
X1017682Y-6338579D02*
X1027205Y-6376674D01*
X1027205Y-6376674D02*
X1027205Y-6424293D01*
X1027205Y-6424293D02*
X1017682Y-6462388D01*
X1017682Y-6462388D02*
X1008158Y-6481436D01*
X1008158Y-6481436D02*
X998634Y-6490960D01*
X998634Y-6490960D02*
X979586Y-6500484D01*
X979586Y-6500484D02*
X960539Y-6500484D01*
X960539Y-6500484D02*
X941491Y-6490960D01*
X941491Y-6490960D02*
X931967Y-6481436D01*
X931967Y-6481436D02*
X922443Y-6462388D01*
X922443Y-6462388D02*
X912920Y-6424293D01*
X912920Y-6424293D02*
X912920Y-6376674D01*
X912920Y-6376674D02*
X922443Y-6338579D01*
X922443Y-6338579D02*
X931967Y-6319531D01*
X931967Y-6319531D02*
X941491Y-6310008D01*
X941491Y-6310008D02*
X960539Y-6300484D01*
X1112920Y-6500484D02*
X1112920Y-6367150D01*
X1112920Y-6386198D02*
X1122444Y-6376674D01*
X1122444Y-6376674D02*
X1141491Y-6367150D01*
X1141491Y-6367150D02*
X1170063Y-6367150D01*
X1170063Y-6367150D02*
X1189110Y-6376674D01*
X1189110Y-6376674D02*
X1198634Y-6395722D01*
X1198634Y-6395722D02*
X1198634Y-6500484D01*
X1198634Y-6395722D02*
X1208158Y-6376674D01*
X1208158Y-6376674D02*
X1227205Y-6367150D01*
X1227205Y-6367150D02*
X1255777Y-6367150D01*
X1255777Y-6367150D02*
X1274825Y-6376674D01*
X1274825Y-6376674D02*
X1284348Y-6395722D01*
X1284348Y-6395722D02*
X1284348Y-6500484D01*
X1379586Y-6500484D02*
X1379586Y-6367150D01*
X1379586Y-6386198D02*
X1389110Y-6376674D01*
X1389110Y-6376674D02*
X1408158Y-6367150D01*
X1408158Y-6367150D02*
X1436729Y-6367150D01*
X1436729Y-6367150D02*
X1455777Y-6376674D01*
X1455777Y-6376674D02*
X1465301Y-6395722D01*
X1465301Y-6395722D02*
X1465301Y-6500484D01*
X1465301Y-6395722D02*
X1474824Y-6376674D01*
X1474824Y-6376674D02*
X1493872Y-6367150D01*
X1493872Y-6367150D02*
X1522443Y-6367150D01*
X1522443Y-6367150D02*
X1541491Y-6376674D01*
X1541491Y-6376674D02*
X1551015Y-6395722D01*
X1551015Y-6395722D02*
X1551015Y-6500484D01*
X1941491Y-6290960D02*
X1770063Y-6548103D01*
X2198634Y-6300484D02*
X2217682Y-6300484D01*
X2217682Y-6300484D02*
X2236729Y-6310008D01*
X2236729Y-6310008D02*
X2246253Y-6319531D01*
X2246253Y-6319531D02*
X2255777Y-6338579D01*
X2255777Y-6338579D02*
X2265301Y-6376674D01*
X2265301Y-6376674D02*
X2265301Y-6424293D01*
X2265301Y-6424293D02*
X2255777Y-6462388D01*
X2255777Y-6462388D02*
X2246253Y-6481436D01*
X2246253Y-6481436D02*
X2236729Y-6490960D01*
X2236729Y-6490960D02*
X2217682Y-6500484D01*
X2217682Y-6500484D02*
X2198634Y-6500484D01*
X2198634Y-6500484D02*
X2179587Y-6490960D01*
X2179587Y-6490960D02*
X2170063Y-6481436D01*
X2170063Y-6481436D02*
X2160539Y-6462388D01*
X2160539Y-6462388D02*
X2151015Y-6424293D01*
X2151015Y-6424293D02*
X2151015Y-6376674D01*
X2151015Y-6376674D02*
X2160539Y-6338579D01*
X2160539Y-6338579D02*
X2170063Y-6319531D01*
X2170063Y-6319531D02*
X2179587Y-6310008D01*
X2179587Y-6310008D02*
X2198634Y-6300484D01*
X2351015Y-6481436D02*
X2360539Y-6490960D01*
X2360539Y-6490960D02*
X2351015Y-6500484D01*
X2351015Y-6500484D02*
X2341491Y-6490960D01*
X2341491Y-6490960D02*
X2351015Y-6481436D01*
X2351015Y-6481436D02*
X2351015Y-6500484D01*
X2484348Y-6300484D02*
X2503396Y-6300484D01*
X2503396Y-6300484D02*
X2522444Y-6310008D01*
X2522444Y-6310008D02*
X2531968Y-6319531D01*
X2531968Y-6319531D02*
X2541491Y-6338579D01*
X2541491Y-6338579D02*
X2551015Y-6376674D01*
X2551015Y-6376674D02*
X2551015Y-6424293D01*
X2551015Y-6424293D02*
X2541491Y-6462388D01*
X2541491Y-6462388D02*
X2531968Y-6481436D01*
X2531968Y-6481436D02*
X2522444Y-6490960D01*
X2522444Y-6490960D02*
X2503396Y-6500484D01*
X2503396Y-6500484D02*
X2484348Y-6500484D01*
X2484348Y-6500484D02*
X2465301Y-6490960D01*
X2465301Y-6490960D02*
X2455777Y-6481436D01*
X2455777Y-6481436D02*
X2446253Y-6462388D01*
X2446253Y-6462388D02*
X2436729Y-6424293D01*
X2436729Y-6424293D02*
X2436729Y-6376674D01*
X2436729Y-6376674D02*
X2446253Y-6338579D01*
X2446253Y-6338579D02*
X2455777Y-6319531D01*
X2455777Y-6319531D02*
X2465301Y-6310008D01*
X2465301Y-6310008D02*
X2484348Y-6300484D01*
X2741491Y-6500484D02*
X2627206Y-6500484D01*
X2684348Y-6500484D02*
X2684348Y-6300484D01*
X2684348Y-6300484D02*
X2665301Y-6329055D01*
X2665301Y-6329055D02*
X2646253Y-6348103D01*
X2646253Y-6348103D02*
X2627206Y-6357627D01*
X2922444Y-6300484D02*
X2827206Y-6300484D01*
X2827206Y-6300484D02*
X2817682Y-6395722D01*
X2817682Y-6395722D02*
X2827206Y-6386198D01*
X2827206Y-6386198D02*
X2846253Y-6376674D01*
X2846253Y-6376674D02*
X2893872Y-6376674D01*
X2893872Y-6376674D02*
X2912920Y-6386198D01*
X2912920Y-6386198D02*
X2922444Y-6395722D01*
X2922444Y-6395722D02*
X2931967Y-6414769D01*
X2931967Y-6414769D02*
X2931967Y-6462388D01*
X2931967Y-6462388D02*
X2922444Y-6481436D01*
X2922444Y-6481436D02*
X2912920Y-6490960D01*
X2912920Y-6490960D02*
X2893872Y-6500484D01*
X2893872Y-6500484D02*
X2846253Y-6500484D01*
X2846253Y-6500484D02*
X2827206Y-6490960D01*
X2827206Y-6490960D02*
X2817682Y-6481436D01*
X2998634Y-6300484D02*
X3131967Y-6300484D01*
X3131967Y-6300484D02*
X3046253Y-6500484D01*
X3198634Y-6300484D02*
X3198634Y-6338579D01*
X3274825Y-6300484D02*
X3274825Y-6338579D01*
X3570063Y-6576674D02*
X3560539Y-6567150D01*
X3560539Y-6567150D02*
X3541491Y-6538579D01*
X3541491Y-6538579D02*
X3531968Y-6519531D01*
X3531968Y-6519531D02*
X3522444Y-6490960D01*
X3522444Y-6490960D02*
X3512920Y-6443341D01*
X3512920Y-6443341D02*
X3512920Y-6405246D01*
X3512920Y-6405246D02*
X3522444Y-6357627D01*
X3522444Y-6357627D02*
X3531968Y-6329055D01*
X3531968Y-6329055D02*
X3541491Y-6310008D01*
X3541491Y-6310008D02*
X3560539Y-6281436D01*
X3560539Y-6281436D02*
X3570063Y-6271912D01*
X3627206Y-6300484D02*
X3760539Y-6300484D01*
X3760539Y-6300484D02*
X3674825Y-6500484D01*
X3941491Y-6500484D02*
X3827206Y-6500484D01*
X3884348Y-6500484D02*
X3884348Y-6300484D01*
X3884348Y-6300484D02*
X3865301Y-6329055D01*
X3865301Y-6329055D02*
X3846253Y-6348103D01*
X3846253Y-6348103D02*
X3827206Y-6357627D01*
X4179587Y-6500484D02*
X4179587Y-6300484D01*
X4265301Y-6500484D02*
X4265301Y-6395722D01*
X4265301Y-6395722D02*
X4255777Y-6376674D01*
X4255777Y-6376674D02*
X4236730Y-6367150D01*
X4236730Y-6367150D02*
X4208158Y-6367150D01*
X4208158Y-6367150D02*
X4189110Y-6376674D01*
X4189110Y-6376674D02*
X4179587Y-6386198D01*
X4389111Y-6500484D02*
X4370063Y-6490960D01*
X4370063Y-6490960D02*
X4360539Y-6481436D01*
X4360539Y-6481436D02*
X4351015Y-6462388D01*
X4351015Y-6462388D02*
X4351015Y-6405246D01*
X4351015Y-6405246D02*
X4360539Y-6386198D01*
X4360539Y-6386198D02*
X4370063Y-6376674D01*
X4370063Y-6376674D02*
X4389111Y-6367150D01*
X4389111Y-6367150D02*
X4417682Y-6367150D01*
X4417682Y-6367150D02*
X4436730Y-6376674D01*
X4436730Y-6376674D02*
X4446253Y-6386198D01*
X4446253Y-6386198D02*
X4455777Y-6405246D01*
X4455777Y-6405246D02*
X4455777Y-6462388D01*
X4455777Y-6462388D02*
X4446253Y-6481436D01*
X4446253Y-6481436D02*
X4436730Y-6490960D01*
X4436730Y-6490960D02*
X4417682Y-6500484D01*
X4417682Y-6500484D02*
X4389111Y-6500484D01*
X4570063Y-6500484D02*
X4551015Y-6490960D01*
X4551015Y-6490960D02*
X4541492Y-6471912D01*
X4541492Y-6471912D02*
X4541492Y-6300484D01*
X4722444Y-6490960D02*
X4703396Y-6500484D01*
X4703396Y-6500484D02*
X4665301Y-6500484D01*
X4665301Y-6500484D02*
X4646253Y-6490960D01*
X4646253Y-6490960D02*
X4636730Y-6471912D01*
X4636730Y-6471912D02*
X4636730Y-6395722D01*
X4636730Y-6395722D02*
X4646253Y-6376674D01*
X4646253Y-6376674D02*
X4665301Y-6367150D01*
X4665301Y-6367150D02*
X4703396Y-6367150D01*
X4703396Y-6367150D02*
X4722444Y-6376674D01*
X4722444Y-6376674D02*
X4731968Y-6395722D01*
X4731968Y-6395722D02*
X4731968Y-6414769D01*
X4731968Y-6414769D02*
X4636730Y-6433817D01*
X4808158Y-6490960D02*
X4827206Y-6500484D01*
X4827206Y-6500484D02*
X4865301Y-6500484D01*
X4865301Y-6500484D02*
X4884349Y-6490960D01*
X4884349Y-6490960D02*
X4893873Y-6471912D01*
X4893873Y-6471912D02*
X4893873Y-6462388D01*
X4893873Y-6462388D02*
X4884349Y-6443341D01*
X4884349Y-6443341D02*
X4865301Y-6433817D01*
X4865301Y-6433817D02*
X4836730Y-6433817D01*
X4836730Y-6433817D02*
X4817682Y-6424293D01*
X4817682Y-6424293D02*
X4808158Y-6405246D01*
X4808158Y-6405246D02*
X4808158Y-6395722D01*
X4808158Y-6395722D02*
X4817682Y-6376674D01*
X4817682Y-6376674D02*
X4836730Y-6367150D01*
X4836730Y-6367150D02*
X4865301Y-6367150D01*
X4865301Y-6367150D02*
X4884349Y-6376674D01*
X4960539Y-6576674D02*
X4970063Y-6567150D01*
X4970063Y-6567150D02*
X4989111Y-6538579D01*
X4989111Y-6538579D02*
X4998634Y-6519531D01*
X4998634Y-6519531D02*
X5008158Y-6490960D01*
X5008158Y-6490960D02*
X5017682Y-6443341D01*
X5017682Y-6443341D02*
X5017682Y-6405246D01*
X5017682Y-6405246D02*
X5008158Y-6357627D01*
X5008158Y-6357627D02*
X4998634Y-6329055D01*
X4998634Y-6329055D02*
X4989111Y-6310008D01*
X4989111Y-6310008D02*
X4970063Y-6281436D01*
X4970063Y-6281436D02*
X4960539Y-6271912D01*
D14*
X-43100Y-6634900D02*
X-43100Y-6711100D01*
X-81200Y-6673000D02*
X-5000Y-6673000D01*
D11*
X293872Y-6564484D02*
X312920Y-6564484D01*
X312920Y-6564484D02*
X331967Y-6574008D01*
X331967Y-6574008D02*
X341491Y-6583531D01*
X341491Y-6583531D02*
X351015Y-6602579D01*
X351015Y-6602579D02*
X360539Y-6640674D01*
X360539Y-6640674D02*
X360539Y-6688293D01*
X360539Y-6688293D02*
X351015Y-6726388D01*
X351015Y-6726388D02*
X341491Y-6745436D01*
X341491Y-6745436D02*
X331967Y-6754960D01*
X331967Y-6754960D02*
X312920Y-6764484D01*
X312920Y-6764484D02*
X293872Y-6764484D01*
X293872Y-6764484D02*
X274824Y-6754960D01*
X274824Y-6754960D02*
X265301Y-6745436D01*
X265301Y-6745436D02*
X255777Y-6726388D01*
X255777Y-6726388D02*
X246253Y-6688293D01*
X246253Y-6688293D02*
X246253Y-6640674D01*
X246253Y-6640674D02*
X255777Y-6602579D01*
X255777Y-6602579D02*
X265301Y-6583531D01*
X265301Y-6583531D02*
X274824Y-6574008D01*
X274824Y-6574008D02*
X293872Y-6564484D01*
X446253Y-6745436D02*
X455777Y-6754960D01*
X455777Y-6754960D02*
X446253Y-6764484D01*
X446253Y-6764484D02*
X436729Y-6754960D01*
X436729Y-6754960D02*
X446253Y-6745436D01*
X446253Y-6745436D02*
X446253Y-6764484D01*
X522443Y-6564484D02*
X655777Y-6564484D01*
X655777Y-6564484D02*
X570063Y-6764484D01*
X817682Y-6564484D02*
X779586Y-6564484D01*
X779586Y-6564484D02*
X760539Y-6574008D01*
X760539Y-6574008D02*
X751015Y-6583531D01*
X751015Y-6583531D02*
X731967Y-6612103D01*
X731967Y-6612103D02*
X722443Y-6650198D01*
X722443Y-6650198D02*
X722443Y-6726388D01*
X722443Y-6726388D02*
X731967Y-6745436D01*
X731967Y-6745436D02*
X741491Y-6754960D01*
X741491Y-6754960D02*
X760539Y-6764484D01*
X760539Y-6764484D02*
X798634Y-6764484D01*
X798634Y-6764484D02*
X817682Y-6754960D01*
X817682Y-6754960D02*
X827205Y-6745436D01*
X827205Y-6745436D02*
X836729Y-6726388D01*
X836729Y-6726388D02*
X836729Y-6678769D01*
X836729Y-6678769D02*
X827205Y-6659722D01*
X827205Y-6659722D02*
X817682Y-6650198D01*
X817682Y-6650198D02*
X798634Y-6640674D01*
X798634Y-6640674D02*
X760539Y-6640674D01*
X760539Y-6640674D02*
X741491Y-6650198D01*
X741491Y-6650198D02*
X731967Y-6659722D01*
X731967Y-6659722D02*
X722443Y-6678769D01*
X912920Y-6583531D02*
X922443Y-6574008D01*
X922443Y-6574008D02*
X941491Y-6564484D01*
X941491Y-6564484D02*
X989110Y-6564484D01*
X989110Y-6564484D02*
X1008158Y-6574008D01*
X1008158Y-6574008D02*
X1017682Y-6583531D01*
X1017682Y-6583531D02*
X1027205Y-6602579D01*
X1027205Y-6602579D02*
X1027205Y-6621627D01*
X1027205Y-6621627D02*
X1017682Y-6650198D01*
X1017682Y-6650198D02*
X903396Y-6764484D01*
X903396Y-6764484D02*
X1027205Y-6764484D01*
X1112920Y-6764484D02*
X1112920Y-6631150D01*
X1112920Y-6650198D02*
X1122444Y-6640674D01*
X1122444Y-6640674D02*
X1141491Y-6631150D01*
X1141491Y-6631150D02*
X1170063Y-6631150D01*
X1170063Y-6631150D02*
X1189110Y-6640674D01*
X1189110Y-6640674D02*
X1198634Y-6659722D01*
X1198634Y-6659722D02*
X1198634Y-6764484D01*
X1198634Y-6659722D02*
X1208158Y-6640674D01*
X1208158Y-6640674D02*
X1227205Y-6631150D01*
X1227205Y-6631150D02*
X1255777Y-6631150D01*
X1255777Y-6631150D02*
X1274825Y-6640674D01*
X1274825Y-6640674D02*
X1284348Y-6659722D01*
X1284348Y-6659722D02*
X1284348Y-6764484D01*
X1379586Y-6764484D02*
X1379586Y-6631150D01*
X1379586Y-6650198D02*
X1389110Y-6640674D01*
X1389110Y-6640674D02*
X1408158Y-6631150D01*
X1408158Y-6631150D02*
X1436729Y-6631150D01*
X1436729Y-6631150D02*
X1455777Y-6640674D01*
X1455777Y-6640674D02*
X1465301Y-6659722D01*
X1465301Y-6659722D02*
X1465301Y-6764484D01*
X1465301Y-6659722D02*
X1474824Y-6640674D01*
X1474824Y-6640674D02*
X1493872Y-6631150D01*
X1493872Y-6631150D02*
X1522443Y-6631150D01*
X1522443Y-6631150D02*
X1541491Y-6640674D01*
X1541491Y-6640674D02*
X1551015Y-6659722D01*
X1551015Y-6659722D02*
X1551015Y-6764484D01*
X1941491Y-6554960D02*
X1770063Y-6812103D01*
X2198634Y-6564484D02*
X2217682Y-6564484D01*
X2217682Y-6564484D02*
X2236729Y-6574008D01*
X2236729Y-6574008D02*
X2246253Y-6583531D01*
X2246253Y-6583531D02*
X2255777Y-6602579D01*
X2255777Y-6602579D02*
X2265301Y-6640674D01*
X2265301Y-6640674D02*
X2265301Y-6688293D01*
X2265301Y-6688293D02*
X2255777Y-6726388D01*
X2255777Y-6726388D02*
X2246253Y-6745436D01*
X2246253Y-6745436D02*
X2236729Y-6754960D01*
X2236729Y-6754960D02*
X2217682Y-6764484D01*
X2217682Y-6764484D02*
X2198634Y-6764484D01*
X2198634Y-6764484D02*
X2179587Y-6754960D01*
X2179587Y-6754960D02*
X2170063Y-6745436D01*
X2170063Y-6745436D02*
X2160539Y-6726388D01*
X2160539Y-6726388D02*
X2151015Y-6688293D01*
X2151015Y-6688293D02*
X2151015Y-6640674D01*
X2151015Y-6640674D02*
X2160539Y-6602579D01*
X2160539Y-6602579D02*
X2170063Y-6583531D01*
X2170063Y-6583531D02*
X2179587Y-6574008D01*
X2179587Y-6574008D02*
X2198634Y-6564484D01*
X2351015Y-6745436D02*
X2360539Y-6754960D01*
X2360539Y-6754960D02*
X2351015Y-6764484D01*
X2351015Y-6764484D02*
X2341491Y-6754960D01*
X2341491Y-6754960D02*
X2351015Y-6745436D01*
X2351015Y-6745436D02*
X2351015Y-6764484D01*
X2484348Y-6564484D02*
X2503396Y-6564484D01*
X2503396Y-6564484D02*
X2522444Y-6574008D01*
X2522444Y-6574008D02*
X2531968Y-6583531D01*
X2531968Y-6583531D02*
X2541491Y-6602579D01*
X2541491Y-6602579D02*
X2551015Y-6640674D01*
X2551015Y-6640674D02*
X2551015Y-6688293D01*
X2551015Y-6688293D02*
X2541491Y-6726388D01*
X2541491Y-6726388D02*
X2531968Y-6745436D01*
X2531968Y-6745436D02*
X2522444Y-6754960D01*
X2522444Y-6754960D02*
X2503396Y-6764484D01*
X2503396Y-6764484D02*
X2484348Y-6764484D01*
X2484348Y-6764484D02*
X2465301Y-6754960D01*
X2465301Y-6754960D02*
X2455777Y-6745436D01*
X2455777Y-6745436D02*
X2446253Y-6726388D01*
X2446253Y-6726388D02*
X2436729Y-6688293D01*
X2436729Y-6688293D02*
X2436729Y-6640674D01*
X2436729Y-6640674D02*
X2446253Y-6602579D01*
X2446253Y-6602579D02*
X2455777Y-6583531D01*
X2455777Y-6583531D02*
X2465301Y-6574008D01*
X2465301Y-6574008D02*
X2484348Y-6564484D01*
X2617682Y-6564484D02*
X2741491Y-6564484D01*
X2741491Y-6564484D02*
X2674825Y-6640674D01*
X2674825Y-6640674D02*
X2703396Y-6640674D01*
X2703396Y-6640674D02*
X2722444Y-6650198D01*
X2722444Y-6650198D02*
X2731968Y-6659722D01*
X2731968Y-6659722D02*
X2741491Y-6678769D01*
X2741491Y-6678769D02*
X2741491Y-6726388D01*
X2741491Y-6726388D02*
X2731968Y-6745436D01*
X2731968Y-6745436D02*
X2722444Y-6754960D01*
X2722444Y-6754960D02*
X2703396Y-6764484D01*
X2703396Y-6764484D02*
X2646253Y-6764484D01*
X2646253Y-6764484D02*
X2627206Y-6754960D01*
X2627206Y-6754960D02*
X2617682Y-6745436D01*
X2865301Y-6564484D02*
X2884348Y-6564484D01*
X2884348Y-6564484D02*
X2903396Y-6574008D01*
X2903396Y-6574008D02*
X2912920Y-6583531D01*
X2912920Y-6583531D02*
X2922444Y-6602579D01*
X2922444Y-6602579D02*
X2931967Y-6640674D01*
X2931967Y-6640674D02*
X2931967Y-6688293D01*
X2931967Y-6688293D02*
X2922444Y-6726388D01*
X2922444Y-6726388D02*
X2912920Y-6745436D01*
X2912920Y-6745436D02*
X2903396Y-6754960D01*
X2903396Y-6754960D02*
X2884348Y-6764484D01*
X2884348Y-6764484D02*
X2865301Y-6764484D01*
X2865301Y-6764484D02*
X2846253Y-6754960D01*
X2846253Y-6754960D02*
X2836729Y-6745436D01*
X2836729Y-6745436D02*
X2827206Y-6726388D01*
X2827206Y-6726388D02*
X2817682Y-6688293D01*
X2817682Y-6688293D02*
X2817682Y-6640674D01*
X2817682Y-6640674D02*
X2827206Y-6602579D01*
X2827206Y-6602579D02*
X2836729Y-6583531D01*
X2836729Y-6583531D02*
X2846253Y-6574008D01*
X2846253Y-6574008D02*
X2865301Y-6564484D01*
X3055777Y-6564484D02*
X3074825Y-6564484D01*
X3074825Y-6564484D02*
X3093872Y-6574008D01*
X3093872Y-6574008D02*
X3103396Y-6583531D01*
X3103396Y-6583531D02*
X3112920Y-6602579D01*
X3112920Y-6602579D02*
X3122444Y-6640674D01*
X3122444Y-6640674D02*
X3122444Y-6688293D01*
X3122444Y-6688293D02*
X3112920Y-6726388D01*
X3112920Y-6726388D02*
X3103396Y-6745436D01*
X3103396Y-6745436D02*
X3093872Y-6754960D01*
X3093872Y-6754960D02*
X3074825Y-6764484D01*
X3074825Y-6764484D02*
X3055777Y-6764484D01*
X3055777Y-6764484D02*
X3036729Y-6754960D01*
X3036729Y-6754960D02*
X3027206Y-6745436D01*
X3027206Y-6745436D02*
X3017682Y-6726388D01*
X3017682Y-6726388D02*
X3008158Y-6688293D01*
X3008158Y-6688293D02*
X3008158Y-6640674D01*
X3008158Y-6640674D02*
X3017682Y-6602579D01*
X3017682Y-6602579D02*
X3027206Y-6583531D01*
X3027206Y-6583531D02*
X3036729Y-6574008D01*
X3036729Y-6574008D02*
X3055777Y-6564484D01*
X3198634Y-6564484D02*
X3198634Y-6602579D01*
X3274825Y-6564484D02*
X3274825Y-6602579D01*
X3570063Y-6840674D02*
X3560539Y-6831150D01*
X3560539Y-6831150D02*
X3541491Y-6802579D01*
X3541491Y-6802579D02*
X3531968Y-6783531D01*
X3531968Y-6783531D02*
X3522444Y-6754960D01*
X3522444Y-6754960D02*
X3512920Y-6707341D01*
X3512920Y-6707341D02*
X3512920Y-6669246D01*
X3512920Y-6669246D02*
X3522444Y-6621627D01*
X3522444Y-6621627D02*
X3531968Y-6593055D01*
X3531968Y-6593055D02*
X3541491Y-6574008D01*
X3541491Y-6574008D02*
X3560539Y-6545436D01*
X3560539Y-6545436D02*
X3570063Y-6535912D01*
X3751015Y-6764484D02*
X3636729Y-6764484D01*
X3693872Y-6764484D02*
X3693872Y-6564484D01*
X3693872Y-6564484D02*
X3674825Y-6593055D01*
X3674825Y-6593055D02*
X3655777Y-6612103D01*
X3655777Y-6612103D02*
X3636729Y-6621627D01*
X3827206Y-6583531D02*
X3836729Y-6574008D01*
X3836729Y-6574008D02*
X3855777Y-6564484D01*
X3855777Y-6564484D02*
X3903396Y-6564484D01*
X3903396Y-6564484D02*
X3922444Y-6574008D01*
X3922444Y-6574008D02*
X3931968Y-6583531D01*
X3931968Y-6583531D02*
X3941491Y-6602579D01*
X3941491Y-6602579D02*
X3941491Y-6621627D01*
X3941491Y-6621627D02*
X3931968Y-6650198D01*
X3931968Y-6650198D02*
X3817682Y-6764484D01*
X3817682Y-6764484D02*
X3941491Y-6764484D01*
X4179587Y-6764484D02*
X4179587Y-6564484D01*
X4265301Y-6764484D02*
X4265301Y-6659722D01*
X4265301Y-6659722D02*
X4255777Y-6640674D01*
X4255777Y-6640674D02*
X4236730Y-6631150D01*
X4236730Y-6631150D02*
X4208158Y-6631150D01*
X4208158Y-6631150D02*
X4189110Y-6640674D01*
X4189110Y-6640674D02*
X4179587Y-6650198D01*
X4389111Y-6764484D02*
X4370063Y-6754960D01*
X4370063Y-6754960D02*
X4360539Y-6745436D01*
X4360539Y-6745436D02*
X4351015Y-6726388D01*
X4351015Y-6726388D02*
X4351015Y-6669246D01*
X4351015Y-6669246D02*
X4360539Y-6650198D01*
X4360539Y-6650198D02*
X4370063Y-6640674D01*
X4370063Y-6640674D02*
X4389111Y-6631150D01*
X4389111Y-6631150D02*
X4417682Y-6631150D01*
X4417682Y-6631150D02*
X4436730Y-6640674D01*
X4436730Y-6640674D02*
X4446253Y-6650198D01*
X4446253Y-6650198D02*
X4455777Y-6669246D01*
X4455777Y-6669246D02*
X4455777Y-6726388D01*
X4455777Y-6726388D02*
X4446253Y-6745436D01*
X4446253Y-6745436D02*
X4436730Y-6754960D01*
X4436730Y-6754960D02*
X4417682Y-6764484D01*
X4417682Y-6764484D02*
X4389111Y-6764484D01*
X4570063Y-6764484D02*
X4551015Y-6754960D01*
X4551015Y-6754960D02*
X4541492Y-6735912D01*
X4541492Y-6735912D02*
X4541492Y-6564484D01*
X4722444Y-6754960D02*
X4703396Y-6764484D01*
X4703396Y-6764484D02*
X4665301Y-6764484D01*
X4665301Y-6764484D02*
X4646253Y-6754960D01*
X4646253Y-6754960D02*
X4636730Y-6735912D01*
X4636730Y-6735912D02*
X4636730Y-6659722D01*
X4636730Y-6659722D02*
X4646253Y-6640674D01*
X4646253Y-6640674D02*
X4665301Y-6631150D01*
X4665301Y-6631150D02*
X4703396Y-6631150D01*
X4703396Y-6631150D02*
X4722444Y-6640674D01*
X4722444Y-6640674D02*
X4731968Y-6659722D01*
X4731968Y-6659722D02*
X4731968Y-6678769D01*
X4731968Y-6678769D02*
X4636730Y-6697817D01*
X4808158Y-6754960D02*
X4827206Y-6764484D01*
X4827206Y-6764484D02*
X4865301Y-6764484D01*
X4865301Y-6764484D02*
X4884349Y-6754960D01*
X4884349Y-6754960D02*
X4893873Y-6735912D01*
X4893873Y-6735912D02*
X4893873Y-6726388D01*
X4893873Y-6726388D02*
X4884349Y-6707341D01*
X4884349Y-6707341D02*
X4865301Y-6697817D01*
X4865301Y-6697817D02*
X4836730Y-6697817D01*
X4836730Y-6697817D02*
X4817682Y-6688293D01*
X4817682Y-6688293D02*
X4808158Y-6669246D01*
X4808158Y-6669246D02*
X4808158Y-6659722D01*
X4808158Y-6659722D02*
X4817682Y-6640674D01*
X4817682Y-6640674D02*
X4836730Y-6631150D01*
X4836730Y-6631150D02*
X4865301Y-6631150D01*
X4865301Y-6631150D02*
X4884349Y-6640674D01*
X4960539Y-6840674D02*
X4970063Y-6831150D01*
X4970063Y-6831150D02*
X4989111Y-6802579D01*
X4989111Y-6802579D02*
X4998634Y-6783531D01*
X4998634Y-6783531D02*
X5008158Y-6754960D01*
X5008158Y-6754960D02*
X5017682Y-6707341D01*
X5017682Y-6707341D02*
X5017682Y-6669246D01*
X5017682Y-6669246D02*
X5008158Y-6621627D01*
X5008158Y-6621627D02*
X4998634Y-6593055D01*
X4998634Y-6593055D02*
X4989111Y-6574008D01*
X4989111Y-6574008D02*
X4970063Y-6545436D01*
X4970063Y-6545436D02*
X4960539Y-6535912D01*
D14*
X-16159Y-6963941D02*
X-16159Y-6910059D01*
X-70041Y-6910059D01*
X-70041Y-6963941D01*
X-16159Y-6963941D01*
D11*
X293872Y-6828484D02*
X312920Y-6828484D01*
X312920Y-6828484D02*
X331967Y-6838008D01*
X331967Y-6838008D02*
X341491Y-6847531D01*
X341491Y-6847531D02*
X351015Y-6866579D01*
X351015Y-6866579D02*
X360539Y-6904674D01*
X360539Y-6904674D02*
X360539Y-6952293D01*
X360539Y-6952293D02*
X351015Y-6990388D01*
X351015Y-6990388D02*
X341491Y-7009436D01*
X341491Y-7009436D02*
X331967Y-7018960D01*
X331967Y-7018960D02*
X312920Y-7028484D01*
X312920Y-7028484D02*
X293872Y-7028484D01*
X293872Y-7028484D02*
X274824Y-7018960D01*
X274824Y-7018960D02*
X265301Y-7009436D01*
X265301Y-7009436D02*
X255777Y-6990388D01*
X255777Y-6990388D02*
X246253Y-6952293D01*
X246253Y-6952293D02*
X246253Y-6904674D01*
X246253Y-6904674D02*
X255777Y-6866579D01*
X255777Y-6866579D02*
X265301Y-6847531D01*
X265301Y-6847531D02*
X274824Y-6838008D01*
X274824Y-6838008D02*
X293872Y-6828484D01*
X446253Y-7009436D02*
X455777Y-7018960D01*
X455777Y-7018960D02*
X446253Y-7028484D01*
X446253Y-7028484D02*
X436729Y-7018960D01*
X436729Y-7018960D02*
X446253Y-7009436D01*
X446253Y-7009436D02*
X446253Y-7028484D01*
X522443Y-6828484D02*
X655777Y-6828484D01*
X655777Y-6828484D02*
X570063Y-7028484D01*
X817682Y-6828484D02*
X779586Y-6828484D01*
X779586Y-6828484D02*
X760539Y-6838008D01*
X760539Y-6838008D02*
X751015Y-6847531D01*
X751015Y-6847531D02*
X731967Y-6876103D01*
X731967Y-6876103D02*
X722443Y-6914198D01*
X722443Y-6914198D02*
X722443Y-6990388D01*
X722443Y-6990388D02*
X731967Y-7009436D01*
X731967Y-7009436D02*
X741491Y-7018960D01*
X741491Y-7018960D02*
X760539Y-7028484D01*
X760539Y-7028484D02*
X798634Y-7028484D01*
X798634Y-7028484D02*
X817682Y-7018960D01*
X817682Y-7018960D02*
X827205Y-7009436D01*
X827205Y-7009436D02*
X836729Y-6990388D01*
X836729Y-6990388D02*
X836729Y-6942769D01*
X836729Y-6942769D02*
X827205Y-6923722D01*
X827205Y-6923722D02*
X817682Y-6914198D01*
X817682Y-6914198D02*
X798634Y-6904674D01*
X798634Y-6904674D02*
X760539Y-6904674D01*
X760539Y-6904674D02*
X741491Y-6914198D01*
X741491Y-6914198D02*
X731967Y-6923722D01*
X731967Y-6923722D02*
X722443Y-6942769D01*
X912920Y-6847531D02*
X922443Y-6838008D01*
X922443Y-6838008D02*
X941491Y-6828484D01*
X941491Y-6828484D02*
X989110Y-6828484D01*
X989110Y-6828484D02*
X1008158Y-6838008D01*
X1008158Y-6838008D02*
X1017682Y-6847531D01*
X1017682Y-6847531D02*
X1027205Y-6866579D01*
X1027205Y-6866579D02*
X1027205Y-6885627D01*
X1027205Y-6885627D02*
X1017682Y-6914198D01*
X1017682Y-6914198D02*
X903396Y-7028484D01*
X903396Y-7028484D02*
X1027205Y-7028484D01*
X1112920Y-7028484D02*
X1112920Y-6895150D01*
X1112920Y-6914198D02*
X1122444Y-6904674D01*
X1122444Y-6904674D02*
X1141491Y-6895150D01*
X1141491Y-6895150D02*
X1170063Y-6895150D01*
X1170063Y-6895150D02*
X1189110Y-6904674D01*
X1189110Y-6904674D02*
X1198634Y-6923722D01*
X1198634Y-6923722D02*
X1198634Y-7028484D01*
X1198634Y-6923722D02*
X1208158Y-6904674D01*
X1208158Y-6904674D02*
X1227205Y-6895150D01*
X1227205Y-6895150D02*
X1255777Y-6895150D01*
X1255777Y-6895150D02*
X1274825Y-6904674D01*
X1274825Y-6904674D02*
X1284348Y-6923722D01*
X1284348Y-6923722D02*
X1284348Y-7028484D01*
X1379586Y-7028484D02*
X1379586Y-6895150D01*
X1379586Y-6914198D02*
X1389110Y-6904674D01*
X1389110Y-6904674D02*
X1408158Y-6895150D01*
X1408158Y-6895150D02*
X1436729Y-6895150D01*
X1436729Y-6895150D02*
X1455777Y-6904674D01*
X1455777Y-6904674D02*
X1465301Y-6923722D01*
X1465301Y-6923722D02*
X1465301Y-7028484D01*
X1465301Y-6923722D02*
X1474824Y-6904674D01*
X1474824Y-6904674D02*
X1493872Y-6895150D01*
X1493872Y-6895150D02*
X1522443Y-6895150D01*
X1522443Y-6895150D02*
X1541491Y-6904674D01*
X1541491Y-6904674D02*
X1551015Y-6923722D01*
X1551015Y-6923722D02*
X1551015Y-7028484D01*
X1941491Y-6818960D02*
X1770063Y-7076103D01*
X2198634Y-6828484D02*
X2217682Y-6828484D01*
X2217682Y-6828484D02*
X2236729Y-6838008D01*
X2236729Y-6838008D02*
X2246253Y-6847531D01*
X2246253Y-6847531D02*
X2255777Y-6866579D01*
X2255777Y-6866579D02*
X2265301Y-6904674D01*
X2265301Y-6904674D02*
X2265301Y-6952293D01*
X2265301Y-6952293D02*
X2255777Y-6990388D01*
X2255777Y-6990388D02*
X2246253Y-7009436D01*
X2246253Y-7009436D02*
X2236729Y-7018960D01*
X2236729Y-7018960D02*
X2217682Y-7028484D01*
X2217682Y-7028484D02*
X2198634Y-7028484D01*
X2198634Y-7028484D02*
X2179587Y-7018960D01*
X2179587Y-7018960D02*
X2170063Y-7009436D01*
X2170063Y-7009436D02*
X2160539Y-6990388D01*
X2160539Y-6990388D02*
X2151015Y-6952293D01*
X2151015Y-6952293D02*
X2151015Y-6904674D01*
X2151015Y-6904674D02*
X2160539Y-6866579D01*
X2160539Y-6866579D02*
X2170063Y-6847531D01*
X2170063Y-6847531D02*
X2179587Y-6838008D01*
X2179587Y-6838008D02*
X2198634Y-6828484D01*
X2351015Y-7009436D02*
X2360539Y-7018960D01*
X2360539Y-7018960D02*
X2351015Y-7028484D01*
X2351015Y-7028484D02*
X2341491Y-7018960D01*
X2341491Y-7018960D02*
X2351015Y-7009436D01*
X2351015Y-7009436D02*
X2351015Y-7028484D01*
X2484348Y-6828484D02*
X2503396Y-6828484D01*
X2503396Y-6828484D02*
X2522444Y-6838008D01*
X2522444Y-6838008D02*
X2531968Y-6847531D01*
X2531968Y-6847531D02*
X2541491Y-6866579D01*
X2541491Y-6866579D02*
X2551015Y-6904674D01*
X2551015Y-6904674D02*
X2551015Y-6952293D01*
X2551015Y-6952293D02*
X2541491Y-6990388D01*
X2541491Y-6990388D02*
X2531968Y-7009436D01*
X2531968Y-7009436D02*
X2522444Y-7018960D01*
X2522444Y-7018960D02*
X2503396Y-7028484D01*
X2503396Y-7028484D02*
X2484348Y-7028484D01*
X2484348Y-7028484D02*
X2465301Y-7018960D01*
X2465301Y-7018960D02*
X2455777Y-7009436D01*
X2455777Y-7009436D02*
X2446253Y-6990388D01*
X2446253Y-6990388D02*
X2436729Y-6952293D01*
X2436729Y-6952293D02*
X2436729Y-6904674D01*
X2436729Y-6904674D02*
X2446253Y-6866579D01*
X2446253Y-6866579D02*
X2455777Y-6847531D01*
X2455777Y-6847531D02*
X2465301Y-6838008D01*
X2465301Y-6838008D02*
X2484348Y-6828484D01*
X2617682Y-6828484D02*
X2741491Y-6828484D01*
X2741491Y-6828484D02*
X2674825Y-6904674D01*
X2674825Y-6904674D02*
X2703396Y-6904674D01*
X2703396Y-6904674D02*
X2722444Y-6914198D01*
X2722444Y-6914198D02*
X2731968Y-6923722D01*
X2731968Y-6923722D02*
X2741491Y-6942769D01*
X2741491Y-6942769D02*
X2741491Y-6990388D01*
X2741491Y-6990388D02*
X2731968Y-7009436D01*
X2731968Y-7009436D02*
X2722444Y-7018960D01*
X2722444Y-7018960D02*
X2703396Y-7028484D01*
X2703396Y-7028484D02*
X2646253Y-7028484D01*
X2646253Y-7028484D02*
X2627206Y-7018960D01*
X2627206Y-7018960D02*
X2617682Y-7009436D01*
X2865301Y-6828484D02*
X2884348Y-6828484D01*
X2884348Y-6828484D02*
X2903396Y-6838008D01*
X2903396Y-6838008D02*
X2912920Y-6847531D01*
X2912920Y-6847531D02*
X2922444Y-6866579D01*
X2922444Y-6866579D02*
X2931967Y-6904674D01*
X2931967Y-6904674D02*
X2931967Y-6952293D01*
X2931967Y-6952293D02*
X2922444Y-6990388D01*
X2922444Y-6990388D02*
X2912920Y-7009436D01*
X2912920Y-7009436D02*
X2903396Y-7018960D01*
X2903396Y-7018960D02*
X2884348Y-7028484D01*
X2884348Y-7028484D02*
X2865301Y-7028484D01*
X2865301Y-7028484D02*
X2846253Y-7018960D01*
X2846253Y-7018960D02*
X2836729Y-7009436D01*
X2836729Y-7009436D02*
X2827206Y-6990388D01*
X2827206Y-6990388D02*
X2817682Y-6952293D01*
X2817682Y-6952293D02*
X2817682Y-6904674D01*
X2817682Y-6904674D02*
X2827206Y-6866579D01*
X2827206Y-6866579D02*
X2836729Y-6847531D01*
X2836729Y-6847531D02*
X2846253Y-6838008D01*
X2846253Y-6838008D02*
X2865301Y-6828484D01*
X3055777Y-6828484D02*
X3074825Y-6828484D01*
X3074825Y-6828484D02*
X3093872Y-6838008D01*
X3093872Y-6838008D02*
X3103396Y-6847531D01*
X3103396Y-6847531D02*
X3112920Y-6866579D01*
X3112920Y-6866579D02*
X3122444Y-6904674D01*
X3122444Y-6904674D02*
X3122444Y-6952293D01*
X3122444Y-6952293D02*
X3112920Y-6990388D01*
X3112920Y-6990388D02*
X3103396Y-7009436D01*
X3103396Y-7009436D02*
X3093872Y-7018960D01*
X3093872Y-7018960D02*
X3074825Y-7028484D01*
X3074825Y-7028484D02*
X3055777Y-7028484D01*
X3055777Y-7028484D02*
X3036729Y-7018960D01*
X3036729Y-7018960D02*
X3027206Y-7009436D01*
X3027206Y-7009436D02*
X3017682Y-6990388D01*
X3017682Y-6990388D02*
X3008158Y-6952293D01*
X3008158Y-6952293D02*
X3008158Y-6904674D01*
X3008158Y-6904674D02*
X3017682Y-6866579D01*
X3017682Y-6866579D02*
X3027206Y-6847531D01*
X3027206Y-6847531D02*
X3036729Y-6838008D01*
X3036729Y-6838008D02*
X3055777Y-6828484D01*
X3198634Y-6828484D02*
X3198634Y-6866579D01*
X3274825Y-6828484D02*
X3274825Y-6866579D01*
X3570063Y-7104674D02*
X3560539Y-7095150D01*
X3560539Y-7095150D02*
X3541491Y-7066579D01*
X3541491Y-7066579D02*
X3531968Y-7047531D01*
X3531968Y-7047531D02*
X3522444Y-7018960D01*
X3522444Y-7018960D02*
X3512920Y-6971341D01*
X3512920Y-6971341D02*
X3512920Y-6933246D01*
X3512920Y-6933246D02*
X3522444Y-6885627D01*
X3522444Y-6885627D02*
X3531968Y-6857055D01*
X3531968Y-6857055D02*
X3541491Y-6838008D01*
X3541491Y-6838008D02*
X3560539Y-6809436D01*
X3560539Y-6809436D02*
X3570063Y-6799912D01*
X3674825Y-6914198D02*
X3655777Y-6904674D01*
X3655777Y-6904674D02*
X3646253Y-6895150D01*
X3646253Y-6895150D02*
X3636729Y-6876103D01*
X3636729Y-6876103D02*
X3636729Y-6866579D01*
X3636729Y-6866579D02*
X3646253Y-6847531D01*
X3646253Y-6847531D02*
X3655777Y-6838008D01*
X3655777Y-6838008D02*
X3674825Y-6828484D01*
X3674825Y-6828484D02*
X3712920Y-6828484D01*
X3712920Y-6828484D02*
X3731968Y-6838008D01*
X3731968Y-6838008D02*
X3741491Y-6847531D01*
X3741491Y-6847531D02*
X3751015Y-6866579D01*
X3751015Y-6866579D02*
X3751015Y-6876103D01*
X3751015Y-6876103D02*
X3741491Y-6895150D01*
X3741491Y-6895150D02*
X3731968Y-6904674D01*
X3731968Y-6904674D02*
X3712920Y-6914198D01*
X3712920Y-6914198D02*
X3674825Y-6914198D01*
X3674825Y-6914198D02*
X3655777Y-6923722D01*
X3655777Y-6923722D02*
X3646253Y-6933246D01*
X3646253Y-6933246D02*
X3636729Y-6952293D01*
X3636729Y-6952293D02*
X3636729Y-6990388D01*
X3636729Y-6990388D02*
X3646253Y-7009436D01*
X3646253Y-7009436D02*
X3655777Y-7018960D01*
X3655777Y-7018960D02*
X3674825Y-7028484D01*
X3674825Y-7028484D02*
X3712920Y-7028484D01*
X3712920Y-7028484D02*
X3731968Y-7018960D01*
X3731968Y-7018960D02*
X3741491Y-7009436D01*
X3741491Y-7009436D02*
X3751015Y-6990388D01*
X3751015Y-6990388D02*
X3751015Y-6952293D01*
X3751015Y-6952293D02*
X3741491Y-6933246D01*
X3741491Y-6933246D02*
X3731968Y-6923722D01*
X3731968Y-6923722D02*
X3712920Y-6914198D01*
X3989110Y-7028484D02*
X3989110Y-6828484D01*
X4074825Y-7028484D02*
X4074825Y-6923722D01*
X4074825Y-6923722D02*
X4065301Y-6904674D01*
X4065301Y-6904674D02*
X4046253Y-6895150D01*
X4046253Y-6895150D02*
X4017682Y-6895150D01*
X4017682Y-6895150D02*
X3998634Y-6904674D01*
X3998634Y-6904674D02*
X3989110Y-6914198D01*
X4198634Y-7028484D02*
X4179587Y-7018960D01*
X4179587Y-7018960D02*
X4170063Y-7009436D01*
X4170063Y-7009436D02*
X4160539Y-6990388D01*
X4160539Y-6990388D02*
X4160539Y-6933246D01*
X4160539Y-6933246D02*
X4170063Y-6914198D01*
X4170063Y-6914198D02*
X4179587Y-6904674D01*
X4179587Y-6904674D02*
X4198634Y-6895150D01*
X4198634Y-6895150D02*
X4227206Y-6895150D01*
X4227206Y-6895150D02*
X4246253Y-6904674D01*
X4246253Y-6904674D02*
X4255777Y-6914198D01*
X4255777Y-6914198D02*
X4265301Y-6933246D01*
X4265301Y-6933246D02*
X4265301Y-6990388D01*
X4265301Y-6990388D02*
X4255777Y-7009436D01*
X4255777Y-7009436D02*
X4246253Y-7018960D01*
X4246253Y-7018960D02*
X4227206Y-7028484D01*
X4227206Y-7028484D02*
X4198634Y-7028484D01*
X4379587Y-7028484D02*
X4360539Y-7018960D01*
X4360539Y-7018960D02*
X4351015Y-6999912D01*
X4351015Y-6999912D02*
X4351015Y-6828484D01*
X4531968Y-7018960D02*
X4512920Y-7028484D01*
X4512920Y-7028484D02*
X4474825Y-7028484D01*
X4474825Y-7028484D02*
X4455777Y-7018960D01*
X4455777Y-7018960D02*
X4446253Y-6999912D01*
X4446253Y-6999912D02*
X4446253Y-6923722D01*
X4446253Y-6923722D02*
X4455777Y-6904674D01*
X4455777Y-6904674D02*
X4474825Y-6895150D01*
X4474825Y-6895150D02*
X4512920Y-6895150D01*
X4512920Y-6895150D02*
X4531968Y-6904674D01*
X4531968Y-6904674D02*
X4541492Y-6923722D01*
X4541492Y-6923722D02*
X4541492Y-6942769D01*
X4541492Y-6942769D02*
X4446253Y-6961817D01*
X4617682Y-7018960D02*
X4636730Y-7028484D01*
X4636730Y-7028484D02*
X4674825Y-7028484D01*
X4674825Y-7028484D02*
X4693873Y-7018960D01*
X4693873Y-7018960D02*
X4703396Y-6999912D01*
X4703396Y-6999912D02*
X4703396Y-6990388D01*
X4703396Y-6990388D02*
X4693873Y-6971341D01*
X4693873Y-6971341D02*
X4674825Y-6961817D01*
X4674825Y-6961817D02*
X4646253Y-6961817D01*
X4646253Y-6961817D02*
X4627206Y-6952293D01*
X4627206Y-6952293D02*
X4617682Y-6933246D01*
X4617682Y-6933246D02*
X4617682Y-6923722D01*
X4617682Y-6923722D02*
X4627206Y-6904674D01*
X4627206Y-6904674D02*
X4646253Y-6895150D01*
X4646253Y-6895150D02*
X4674825Y-6895150D01*
X4674825Y-6895150D02*
X4693873Y-6904674D01*
X4770063Y-7104674D02*
X4779587Y-7095150D01*
X4779587Y-7095150D02*
X4798634Y-7066579D01*
X4798634Y-7066579D02*
X4808158Y-7047531D01*
X4808158Y-7047531D02*
X4817682Y-7018960D01*
X4817682Y-7018960D02*
X4827206Y-6971341D01*
X4827206Y-6971341D02*
X4827206Y-6933246D01*
X4827206Y-6933246D02*
X4817682Y-6885627D01*
X4817682Y-6885627D02*
X4808158Y-6857055D01*
X4808158Y-6857055D02*
X4798634Y-6838008D01*
X4798634Y-6838008D02*
X4779587Y-6809436D01*
X4779587Y-6809436D02*
X4770063Y-6799912D01*
D15*
X-65000Y-7261000D02*
X-5000Y-7201000D01*
X-65000Y-7141000D01*
X-125000Y-7201000D01*
X-65000Y-7261000D01*
D11*
X360539Y-7292484D02*
X246253Y-7292484D01*
X303396Y-7292484D02*
X303396Y-7092484D01*
X303396Y-7092484D02*
X284348Y-7121055D01*
X284348Y-7121055D02*
X265301Y-7140103D01*
X265301Y-7140103D02*
X246253Y-7149627D01*
X446253Y-7273436D02*
X455777Y-7282960D01*
X455777Y-7282960D02*
X446253Y-7292484D01*
X446253Y-7292484D02*
X436729Y-7282960D01*
X436729Y-7282960D02*
X446253Y-7273436D01*
X446253Y-7273436D02*
X446253Y-7292484D01*
X531967Y-7111531D02*
X541491Y-7102008D01*
X541491Y-7102008D02*
X560539Y-7092484D01*
X560539Y-7092484D02*
X608158Y-7092484D01*
X608158Y-7092484D02*
X627205Y-7102008D01*
X627205Y-7102008D02*
X636729Y-7111531D01*
X636729Y-7111531D02*
X646253Y-7130579D01*
X646253Y-7130579D02*
X646253Y-7149627D01*
X646253Y-7149627D02*
X636729Y-7178198D01*
X636729Y-7178198D02*
X522443Y-7292484D01*
X522443Y-7292484D02*
X646253Y-7292484D01*
X770062Y-7092484D02*
X789110Y-7092484D01*
X789110Y-7092484D02*
X808158Y-7102008D01*
X808158Y-7102008D02*
X817682Y-7111531D01*
X817682Y-7111531D02*
X827205Y-7130579D01*
X827205Y-7130579D02*
X836729Y-7168674D01*
X836729Y-7168674D02*
X836729Y-7216293D01*
X836729Y-7216293D02*
X827205Y-7254388D01*
X827205Y-7254388D02*
X817682Y-7273436D01*
X817682Y-7273436D02*
X808158Y-7282960D01*
X808158Y-7282960D02*
X789110Y-7292484D01*
X789110Y-7292484D02*
X770062Y-7292484D01*
X770062Y-7292484D02*
X751015Y-7282960D01*
X751015Y-7282960D02*
X741491Y-7273436D01*
X741491Y-7273436D02*
X731967Y-7254388D01*
X731967Y-7254388D02*
X722443Y-7216293D01*
X722443Y-7216293D02*
X722443Y-7168674D01*
X722443Y-7168674D02*
X731967Y-7130579D01*
X731967Y-7130579D02*
X741491Y-7111531D01*
X741491Y-7111531D02*
X751015Y-7102008D01*
X751015Y-7102008D02*
X770062Y-7092484D01*
X960539Y-7092484D02*
X979586Y-7092484D01*
X979586Y-7092484D02*
X998634Y-7102008D01*
X998634Y-7102008D02*
X1008158Y-7111531D01*
X1008158Y-7111531D02*
X1017682Y-7130579D01*
X1017682Y-7130579D02*
X1027205Y-7168674D01*
X1027205Y-7168674D02*
X1027205Y-7216293D01*
X1027205Y-7216293D02*
X1017682Y-7254388D01*
X1017682Y-7254388D02*
X1008158Y-7273436D01*
X1008158Y-7273436D02*
X998634Y-7282960D01*
X998634Y-7282960D02*
X979586Y-7292484D01*
X979586Y-7292484D02*
X960539Y-7292484D01*
X960539Y-7292484D02*
X941491Y-7282960D01*
X941491Y-7282960D02*
X931967Y-7273436D01*
X931967Y-7273436D02*
X922443Y-7254388D01*
X922443Y-7254388D02*
X912920Y-7216293D01*
X912920Y-7216293D02*
X912920Y-7168674D01*
X912920Y-7168674D02*
X922443Y-7130579D01*
X922443Y-7130579D02*
X931967Y-7111531D01*
X931967Y-7111531D02*
X941491Y-7102008D01*
X941491Y-7102008D02*
X960539Y-7092484D01*
X1112920Y-7292484D02*
X1112920Y-7159150D01*
X1112920Y-7178198D02*
X1122444Y-7168674D01*
X1122444Y-7168674D02*
X1141491Y-7159150D01*
X1141491Y-7159150D02*
X1170063Y-7159150D01*
X1170063Y-7159150D02*
X1189110Y-7168674D01*
X1189110Y-7168674D02*
X1198634Y-7187722D01*
X1198634Y-7187722D02*
X1198634Y-7292484D01*
X1198634Y-7187722D02*
X1208158Y-7168674D01*
X1208158Y-7168674D02*
X1227205Y-7159150D01*
X1227205Y-7159150D02*
X1255777Y-7159150D01*
X1255777Y-7159150D02*
X1274825Y-7168674D01*
X1274825Y-7168674D02*
X1284348Y-7187722D01*
X1284348Y-7187722D02*
X1284348Y-7292484D01*
X1379586Y-7292484D02*
X1379586Y-7159150D01*
X1379586Y-7178198D02*
X1389110Y-7168674D01*
X1389110Y-7168674D02*
X1408158Y-7159150D01*
X1408158Y-7159150D02*
X1436729Y-7159150D01*
X1436729Y-7159150D02*
X1455777Y-7168674D01*
X1455777Y-7168674D02*
X1465301Y-7187722D01*
X1465301Y-7187722D02*
X1465301Y-7292484D01*
X1465301Y-7187722D02*
X1474824Y-7168674D01*
X1474824Y-7168674D02*
X1493872Y-7159150D01*
X1493872Y-7159150D02*
X1522443Y-7159150D01*
X1522443Y-7159150D02*
X1541491Y-7168674D01*
X1541491Y-7168674D02*
X1551015Y-7187722D01*
X1551015Y-7187722D02*
X1551015Y-7292484D01*
X1941491Y-7082960D02*
X1770063Y-7340103D01*
X2198634Y-7092484D02*
X2217682Y-7092484D01*
X2217682Y-7092484D02*
X2236729Y-7102008D01*
X2236729Y-7102008D02*
X2246253Y-7111531D01*
X2246253Y-7111531D02*
X2255777Y-7130579D01*
X2255777Y-7130579D02*
X2265301Y-7168674D01*
X2265301Y-7168674D02*
X2265301Y-7216293D01*
X2265301Y-7216293D02*
X2255777Y-7254388D01*
X2255777Y-7254388D02*
X2246253Y-7273436D01*
X2246253Y-7273436D02*
X2236729Y-7282960D01*
X2236729Y-7282960D02*
X2217682Y-7292484D01*
X2217682Y-7292484D02*
X2198634Y-7292484D01*
X2198634Y-7292484D02*
X2179587Y-7282960D01*
X2179587Y-7282960D02*
X2170063Y-7273436D01*
X2170063Y-7273436D02*
X2160539Y-7254388D01*
X2160539Y-7254388D02*
X2151015Y-7216293D01*
X2151015Y-7216293D02*
X2151015Y-7168674D01*
X2151015Y-7168674D02*
X2160539Y-7130579D01*
X2160539Y-7130579D02*
X2170063Y-7111531D01*
X2170063Y-7111531D02*
X2179587Y-7102008D01*
X2179587Y-7102008D02*
X2198634Y-7092484D01*
X2351015Y-7273436D02*
X2360539Y-7282960D01*
X2360539Y-7282960D02*
X2351015Y-7292484D01*
X2351015Y-7292484D02*
X2341491Y-7282960D01*
X2341491Y-7282960D02*
X2351015Y-7273436D01*
X2351015Y-7273436D02*
X2351015Y-7292484D01*
X2484348Y-7092484D02*
X2503396Y-7092484D01*
X2503396Y-7092484D02*
X2522444Y-7102008D01*
X2522444Y-7102008D02*
X2531968Y-7111531D01*
X2531968Y-7111531D02*
X2541491Y-7130579D01*
X2541491Y-7130579D02*
X2551015Y-7168674D01*
X2551015Y-7168674D02*
X2551015Y-7216293D01*
X2551015Y-7216293D02*
X2541491Y-7254388D01*
X2541491Y-7254388D02*
X2531968Y-7273436D01*
X2531968Y-7273436D02*
X2522444Y-7282960D01*
X2522444Y-7282960D02*
X2503396Y-7292484D01*
X2503396Y-7292484D02*
X2484348Y-7292484D01*
X2484348Y-7292484D02*
X2465301Y-7282960D01*
X2465301Y-7282960D02*
X2455777Y-7273436D01*
X2455777Y-7273436D02*
X2446253Y-7254388D01*
X2446253Y-7254388D02*
X2436729Y-7216293D01*
X2436729Y-7216293D02*
X2436729Y-7168674D01*
X2436729Y-7168674D02*
X2446253Y-7130579D01*
X2446253Y-7130579D02*
X2455777Y-7111531D01*
X2455777Y-7111531D02*
X2465301Y-7102008D01*
X2465301Y-7102008D02*
X2484348Y-7092484D01*
X2722444Y-7159150D02*
X2722444Y-7292484D01*
X2674825Y-7082960D02*
X2627206Y-7225817D01*
X2627206Y-7225817D02*
X2751015Y-7225817D01*
X2808158Y-7092484D02*
X2941491Y-7092484D01*
X2941491Y-7092484D02*
X2855777Y-7292484D01*
X3008158Y-7111531D02*
X3017682Y-7102008D01*
X3017682Y-7102008D02*
X3036729Y-7092484D01*
X3036729Y-7092484D02*
X3084348Y-7092484D01*
X3084348Y-7092484D02*
X3103396Y-7102008D01*
X3103396Y-7102008D02*
X3112920Y-7111531D01*
X3112920Y-7111531D02*
X3122444Y-7130579D01*
X3122444Y-7130579D02*
X3122444Y-7149627D01*
X3122444Y-7149627D02*
X3112920Y-7178198D01*
X3112920Y-7178198D02*
X2998634Y-7292484D01*
X2998634Y-7292484D02*
X3122444Y-7292484D01*
X3198634Y-7092484D02*
X3198634Y-7130579D01*
X3274825Y-7092484D02*
X3274825Y-7130579D01*
X3570063Y-7368674D02*
X3560539Y-7359150D01*
X3560539Y-7359150D02*
X3541491Y-7330579D01*
X3541491Y-7330579D02*
X3531968Y-7311531D01*
X3531968Y-7311531D02*
X3522444Y-7282960D01*
X3522444Y-7282960D02*
X3512920Y-7235341D01*
X3512920Y-7235341D02*
X3512920Y-7197246D01*
X3512920Y-7197246D02*
X3522444Y-7149627D01*
X3522444Y-7149627D02*
X3531968Y-7121055D01*
X3531968Y-7121055D02*
X3541491Y-7102008D01*
X3541491Y-7102008D02*
X3560539Y-7073436D01*
X3560539Y-7073436D02*
X3570063Y-7063912D01*
X3674825Y-7178198D02*
X3655777Y-7168674D01*
X3655777Y-7168674D02*
X3646253Y-7159150D01*
X3646253Y-7159150D02*
X3636729Y-7140103D01*
X3636729Y-7140103D02*
X3636729Y-7130579D01*
X3636729Y-7130579D02*
X3646253Y-7111531D01*
X3646253Y-7111531D02*
X3655777Y-7102008D01*
X3655777Y-7102008D02*
X3674825Y-7092484D01*
X3674825Y-7092484D02*
X3712920Y-7092484D01*
X3712920Y-7092484D02*
X3731968Y-7102008D01*
X3731968Y-7102008D02*
X3741491Y-7111531D01*
X3741491Y-7111531D02*
X3751015Y-7130579D01*
X3751015Y-7130579D02*
X3751015Y-7140103D01*
X3751015Y-7140103D02*
X3741491Y-7159150D01*
X3741491Y-7159150D02*
X3731968Y-7168674D01*
X3731968Y-7168674D02*
X3712920Y-7178198D01*
X3712920Y-7178198D02*
X3674825Y-7178198D01*
X3674825Y-7178198D02*
X3655777Y-7187722D01*
X3655777Y-7187722D02*
X3646253Y-7197246D01*
X3646253Y-7197246D02*
X3636729Y-7216293D01*
X3636729Y-7216293D02*
X3636729Y-7254388D01*
X3636729Y-7254388D02*
X3646253Y-7273436D01*
X3646253Y-7273436D02*
X3655777Y-7282960D01*
X3655777Y-7282960D02*
X3674825Y-7292484D01*
X3674825Y-7292484D02*
X3712920Y-7292484D01*
X3712920Y-7292484D02*
X3731968Y-7282960D01*
X3731968Y-7282960D02*
X3741491Y-7273436D01*
X3741491Y-7273436D02*
X3751015Y-7254388D01*
X3751015Y-7254388D02*
X3751015Y-7216293D01*
X3751015Y-7216293D02*
X3741491Y-7197246D01*
X3741491Y-7197246D02*
X3731968Y-7187722D01*
X3731968Y-7187722D02*
X3712920Y-7178198D01*
X3989110Y-7292484D02*
X3989110Y-7092484D01*
X4074825Y-7292484D02*
X4074825Y-7187722D01*
X4074825Y-7187722D02*
X4065301Y-7168674D01*
X4065301Y-7168674D02*
X4046253Y-7159150D01*
X4046253Y-7159150D02*
X4017682Y-7159150D01*
X4017682Y-7159150D02*
X3998634Y-7168674D01*
X3998634Y-7168674D02*
X3989110Y-7178198D01*
X4198634Y-7292484D02*
X4179587Y-7282960D01*
X4179587Y-7282960D02*
X4170063Y-7273436D01*
X4170063Y-7273436D02*
X4160539Y-7254388D01*
X4160539Y-7254388D02*
X4160539Y-7197246D01*
X4160539Y-7197246D02*
X4170063Y-7178198D01*
X4170063Y-7178198D02*
X4179587Y-7168674D01*
X4179587Y-7168674D02*
X4198634Y-7159150D01*
X4198634Y-7159150D02*
X4227206Y-7159150D01*
X4227206Y-7159150D02*
X4246253Y-7168674D01*
X4246253Y-7168674D02*
X4255777Y-7178198D01*
X4255777Y-7178198D02*
X4265301Y-7197246D01*
X4265301Y-7197246D02*
X4265301Y-7254388D01*
X4265301Y-7254388D02*
X4255777Y-7273436D01*
X4255777Y-7273436D02*
X4246253Y-7282960D01*
X4246253Y-7282960D02*
X4227206Y-7292484D01*
X4227206Y-7292484D02*
X4198634Y-7292484D01*
X4379587Y-7292484D02*
X4360539Y-7282960D01*
X4360539Y-7282960D02*
X4351015Y-7263912D01*
X4351015Y-7263912D02*
X4351015Y-7092484D01*
X4531968Y-7282960D02*
X4512920Y-7292484D01*
X4512920Y-7292484D02*
X4474825Y-7292484D01*
X4474825Y-7292484D02*
X4455777Y-7282960D01*
X4455777Y-7282960D02*
X4446253Y-7263912D01*
X4446253Y-7263912D02*
X4446253Y-7187722D01*
X4446253Y-7187722D02*
X4455777Y-7168674D01*
X4455777Y-7168674D02*
X4474825Y-7159150D01*
X4474825Y-7159150D02*
X4512920Y-7159150D01*
X4512920Y-7159150D02*
X4531968Y-7168674D01*
X4531968Y-7168674D02*
X4541492Y-7187722D01*
X4541492Y-7187722D02*
X4541492Y-7206769D01*
X4541492Y-7206769D02*
X4446253Y-7225817D01*
X4617682Y-7282960D02*
X4636730Y-7292484D01*
X4636730Y-7292484D02*
X4674825Y-7292484D01*
X4674825Y-7292484D02*
X4693873Y-7282960D01*
X4693873Y-7282960D02*
X4703396Y-7263912D01*
X4703396Y-7263912D02*
X4703396Y-7254388D01*
X4703396Y-7254388D02*
X4693873Y-7235341D01*
X4693873Y-7235341D02*
X4674825Y-7225817D01*
X4674825Y-7225817D02*
X4646253Y-7225817D01*
X4646253Y-7225817D02*
X4627206Y-7216293D01*
X4627206Y-7216293D02*
X4617682Y-7197246D01*
X4617682Y-7197246D02*
X4617682Y-7187722D01*
X4617682Y-7187722D02*
X4627206Y-7168674D01*
X4627206Y-7168674D02*
X4646253Y-7159150D01*
X4646253Y-7159150D02*
X4674825Y-7159150D01*
X4674825Y-7159150D02*
X4693873Y-7168674D01*
X4770063Y-7368674D02*
X4779587Y-7359150D01*
X4779587Y-7359150D02*
X4798634Y-7330579D01*
X4798634Y-7330579D02*
X4808158Y-7311531D01*
X4808158Y-7311531D02*
X4817682Y-7282960D01*
X4817682Y-7282960D02*
X4827206Y-7235341D01*
X4827206Y-7235341D02*
X4827206Y-7197246D01*
X4827206Y-7197246D02*
X4817682Y-7149627D01*
X4817682Y-7149627D02*
X4808158Y-7121055D01*
X4808158Y-7121055D02*
X4798634Y-7102008D01*
X4798634Y-7102008D02*
X4779587Y-7073436D01*
X4779587Y-7073436D02*
X4770063Y-7063912D01*
X-205000Y-7365000D02*
X-5000Y-7565000D01*
X-5000Y-7365000D02*
X-205000Y-7565000D01*
X-5000Y-7465000D02*
G75*
G03*
X-5000Y-7465000I-100000J0D01*
G01*
X236729Y-7356484D02*
X360539Y-7356484D01*
X360539Y-7356484D02*
X293872Y-7432674D01*
X293872Y-7432674D02*
X322444Y-7432674D01*
X322444Y-7432674D02*
X341491Y-7442198D01*
X341491Y-7442198D02*
X351015Y-7451722D01*
X351015Y-7451722D02*
X360539Y-7470769D01*
X360539Y-7470769D02*
X360539Y-7518388D01*
X360539Y-7518388D02*
X351015Y-7537436D01*
X351015Y-7537436D02*
X341491Y-7546960D01*
X341491Y-7546960D02*
X322444Y-7556484D01*
X322444Y-7556484D02*
X265301Y-7556484D01*
X265301Y-7556484D02*
X246253Y-7546960D01*
X246253Y-7546960D02*
X236729Y-7537436D01*
X446253Y-7537436D02*
X455777Y-7546960D01*
X455777Y-7546960D02*
X446253Y-7556484D01*
X446253Y-7556484D02*
X436729Y-7546960D01*
X436729Y-7546960D02*
X446253Y-7537436D01*
X446253Y-7537436D02*
X446253Y-7556484D01*
X531967Y-7375531D02*
X541491Y-7366008D01*
X541491Y-7366008D02*
X560539Y-7356484D01*
X560539Y-7356484D02*
X608158Y-7356484D01*
X608158Y-7356484D02*
X627205Y-7366008D01*
X627205Y-7366008D02*
X636729Y-7375531D01*
X636729Y-7375531D02*
X646253Y-7394579D01*
X646253Y-7394579D02*
X646253Y-7413627D01*
X646253Y-7413627D02*
X636729Y-7442198D01*
X636729Y-7442198D02*
X522443Y-7556484D01*
X522443Y-7556484D02*
X646253Y-7556484D01*
X770062Y-7356484D02*
X789110Y-7356484D01*
X789110Y-7356484D02*
X808158Y-7366008D01*
X808158Y-7366008D02*
X817682Y-7375531D01*
X817682Y-7375531D02*
X827205Y-7394579D01*
X827205Y-7394579D02*
X836729Y-7432674D01*
X836729Y-7432674D02*
X836729Y-7480293D01*
X836729Y-7480293D02*
X827205Y-7518388D01*
X827205Y-7518388D02*
X817682Y-7537436D01*
X817682Y-7537436D02*
X808158Y-7546960D01*
X808158Y-7546960D02*
X789110Y-7556484D01*
X789110Y-7556484D02*
X770062Y-7556484D01*
X770062Y-7556484D02*
X751015Y-7546960D01*
X751015Y-7546960D02*
X741491Y-7537436D01*
X741491Y-7537436D02*
X731967Y-7518388D01*
X731967Y-7518388D02*
X722443Y-7480293D01*
X722443Y-7480293D02*
X722443Y-7432674D01*
X722443Y-7432674D02*
X731967Y-7394579D01*
X731967Y-7394579D02*
X741491Y-7375531D01*
X741491Y-7375531D02*
X751015Y-7366008D01*
X751015Y-7366008D02*
X770062Y-7356484D01*
X960539Y-7356484D02*
X979586Y-7356484D01*
X979586Y-7356484D02*
X998634Y-7366008D01*
X998634Y-7366008D02*
X1008158Y-7375531D01*
X1008158Y-7375531D02*
X1017682Y-7394579D01*
X1017682Y-7394579D02*
X1027205Y-7432674D01*
X1027205Y-7432674D02*
X1027205Y-7480293D01*
X1027205Y-7480293D02*
X1017682Y-7518388D01*
X1017682Y-7518388D02*
X1008158Y-7537436D01*
X1008158Y-7537436D02*
X998634Y-7546960D01*
X998634Y-7546960D02*
X979586Y-7556484D01*
X979586Y-7556484D02*
X960539Y-7556484D01*
X960539Y-7556484D02*
X941491Y-7546960D01*
X941491Y-7546960D02*
X931967Y-7537436D01*
X931967Y-7537436D02*
X922443Y-7518388D01*
X922443Y-7518388D02*
X912920Y-7480293D01*
X912920Y-7480293D02*
X912920Y-7432674D01*
X912920Y-7432674D02*
X922443Y-7394579D01*
X922443Y-7394579D02*
X931967Y-7375531D01*
X931967Y-7375531D02*
X941491Y-7366008D01*
X941491Y-7366008D02*
X960539Y-7356484D01*
X1112920Y-7556484D02*
X1112920Y-7423150D01*
X1112920Y-7442198D02*
X1122444Y-7432674D01*
X1122444Y-7432674D02*
X1141491Y-7423150D01*
X1141491Y-7423150D02*
X1170063Y-7423150D01*
X1170063Y-7423150D02*
X1189110Y-7432674D01*
X1189110Y-7432674D02*
X1198634Y-7451722D01*
X1198634Y-7451722D02*
X1198634Y-7556484D01*
X1198634Y-7451722D02*
X1208158Y-7432674D01*
X1208158Y-7432674D02*
X1227205Y-7423150D01*
X1227205Y-7423150D02*
X1255777Y-7423150D01*
X1255777Y-7423150D02*
X1274825Y-7432674D01*
X1274825Y-7432674D02*
X1284348Y-7451722D01*
X1284348Y-7451722D02*
X1284348Y-7556484D01*
X1379586Y-7556484D02*
X1379586Y-7423150D01*
X1379586Y-7442198D02*
X1389110Y-7432674D01*
X1389110Y-7432674D02*
X1408158Y-7423150D01*
X1408158Y-7423150D02*
X1436729Y-7423150D01*
X1436729Y-7423150D02*
X1455777Y-7432674D01*
X1455777Y-7432674D02*
X1465301Y-7451722D01*
X1465301Y-7451722D02*
X1465301Y-7556484D01*
X1465301Y-7451722D02*
X1474824Y-7432674D01*
X1474824Y-7432674D02*
X1493872Y-7423150D01*
X1493872Y-7423150D02*
X1522443Y-7423150D01*
X1522443Y-7423150D02*
X1541491Y-7432674D01*
X1541491Y-7432674D02*
X1551015Y-7451722D01*
X1551015Y-7451722D02*
X1551015Y-7556484D01*
X1941491Y-7346960D02*
X1770063Y-7604103D01*
X2198634Y-7356484D02*
X2217682Y-7356484D01*
X2217682Y-7356484D02*
X2236729Y-7366008D01*
X2236729Y-7366008D02*
X2246253Y-7375531D01*
X2246253Y-7375531D02*
X2255777Y-7394579D01*
X2255777Y-7394579D02*
X2265301Y-7432674D01*
X2265301Y-7432674D02*
X2265301Y-7480293D01*
X2265301Y-7480293D02*
X2255777Y-7518388D01*
X2255777Y-7518388D02*
X2246253Y-7537436D01*
X2246253Y-7537436D02*
X2236729Y-7546960D01*
X2236729Y-7546960D02*
X2217682Y-7556484D01*
X2217682Y-7556484D02*
X2198634Y-7556484D01*
X2198634Y-7556484D02*
X2179587Y-7546960D01*
X2179587Y-7546960D02*
X2170063Y-7537436D01*
X2170063Y-7537436D02*
X2160539Y-7518388D01*
X2160539Y-7518388D02*
X2151015Y-7480293D01*
X2151015Y-7480293D02*
X2151015Y-7432674D01*
X2151015Y-7432674D02*
X2160539Y-7394579D01*
X2160539Y-7394579D02*
X2170063Y-7375531D01*
X2170063Y-7375531D02*
X2179587Y-7366008D01*
X2179587Y-7366008D02*
X2198634Y-7356484D01*
X2351015Y-7537436D02*
X2360539Y-7546960D01*
X2360539Y-7546960D02*
X2351015Y-7556484D01*
X2351015Y-7556484D02*
X2341491Y-7546960D01*
X2341491Y-7546960D02*
X2351015Y-7537436D01*
X2351015Y-7537436D02*
X2351015Y-7556484D01*
X2551015Y-7556484D02*
X2436729Y-7556484D01*
X2493872Y-7556484D02*
X2493872Y-7356484D01*
X2493872Y-7356484D02*
X2474825Y-7385055D01*
X2474825Y-7385055D02*
X2455777Y-7404103D01*
X2455777Y-7404103D02*
X2436729Y-7413627D01*
X2627206Y-7375531D02*
X2636729Y-7366008D01*
X2636729Y-7366008D02*
X2655777Y-7356484D01*
X2655777Y-7356484D02*
X2703396Y-7356484D01*
X2703396Y-7356484D02*
X2722444Y-7366008D01*
X2722444Y-7366008D02*
X2731968Y-7375531D01*
X2731968Y-7375531D02*
X2741491Y-7394579D01*
X2741491Y-7394579D02*
X2741491Y-7413627D01*
X2741491Y-7413627D02*
X2731968Y-7442198D01*
X2731968Y-7442198D02*
X2617682Y-7556484D01*
X2617682Y-7556484D02*
X2741491Y-7556484D01*
X2912920Y-7356484D02*
X2874825Y-7356484D01*
X2874825Y-7356484D02*
X2855777Y-7366008D01*
X2855777Y-7366008D02*
X2846253Y-7375531D01*
X2846253Y-7375531D02*
X2827206Y-7404103D01*
X2827206Y-7404103D02*
X2817682Y-7442198D01*
X2817682Y-7442198D02*
X2817682Y-7518388D01*
X2817682Y-7518388D02*
X2827206Y-7537436D01*
X2827206Y-7537436D02*
X2836729Y-7546960D01*
X2836729Y-7546960D02*
X2855777Y-7556484D01*
X2855777Y-7556484D02*
X2893872Y-7556484D01*
X2893872Y-7556484D02*
X2912920Y-7546960D01*
X2912920Y-7546960D02*
X2922444Y-7537436D01*
X2922444Y-7537436D02*
X2931967Y-7518388D01*
X2931967Y-7518388D02*
X2931967Y-7470769D01*
X2931967Y-7470769D02*
X2922444Y-7451722D01*
X2922444Y-7451722D02*
X2912920Y-7442198D01*
X2912920Y-7442198D02*
X2893872Y-7432674D01*
X2893872Y-7432674D02*
X2855777Y-7432674D01*
X2855777Y-7432674D02*
X2836729Y-7442198D01*
X2836729Y-7442198D02*
X2827206Y-7451722D01*
X2827206Y-7451722D02*
X2817682Y-7470769D01*
X3055777Y-7356484D02*
X3074825Y-7356484D01*
X3074825Y-7356484D02*
X3093872Y-7366008D01*
X3093872Y-7366008D02*
X3103396Y-7375531D01*
X3103396Y-7375531D02*
X3112920Y-7394579D01*
X3112920Y-7394579D02*
X3122444Y-7432674D01*
X3122444Y-7432674D02*
X3122444Y-7480293D01*
X3122444Y-7480293D02*
X3112920Y-7518388D01*
X3112920Y-7518388D02*
X3103396Y-7537436D01*
X3103396Y-7537436D02*
X3093872Y-7546960D01*
X3093872Y-7546960D02*
X3074825Y-7556484D01*
X3074825Y-7556484D02*
X3055777Y-7556484D01*
X3055777Y-7556484D02*
X3036729Y-7546960D01*
X3036729Y-7546960D02*
X3027206Y-7537436D01*
X3027206Y-7537436D02*
X3017682Y-7518388D01*
X3017682Y-7518388D02*
X3008158Y-7480293D01*
X3008158Y-7480293D02*
X3008158Y-7432674D01*
X3008158Y-7432674D02*
X3017682Y-7394579D01*
X3017682Y-7394579D02*
X3027206Y-7375531D01*
X3027206Y-7375531D02*
X3036729Y-7366008D01*
X3036729Y-7366008D02*
X3055777Y-7356484D01*
X3198634Y-7356484D02*
X3198634Y-7394579D01*
X3274825Y-7356484D02*
X3274825Y-7394579D01*
X3570063Y-7632674D02*
X3560539Y-7623150D01*
X3560539Y-7623150D02*
X3541491Y-7594579D01*
X3541491Y-7594579D02*
X3531968Y-7575531D01*
X3531968Y-7575531D02*
X3522444Y-7546960D01*
X3522444Y-7546960D02*
X3512920Y-7499341D01*
X3512920Y-7499341D02*
X3512920Y-7461246D01*
X3512920Y-7461246D02*
X3522444Y-7413627D01*
X3522444Y-7413627D02*
X3531968Y-7385055D01*
X3531968Y-7385055D02*
X3541491Y-7366008D01*
X3541491Y-7366008D02*
X3560539Y-7337436D01*
X3560539Y-7337436D02*
X3570063Y-7327912D01*
X3741491Y-7356484D02*
X3646253Y-7356484D01*
X3646253Y-7356484D02*
X3636729Y-7451722D01*
X3636729Y-7451722D02*
X3646253Y-7442198D01*
X3646253Y-7442198D02*
X3665301Y-7432674D01*
X3665301Y-7432674D02*
X3712920Y-7432674D01*
X3712920Y-7432674D02*
X3731968Y-7442198D01*
X3731968Y-7442198D02*
X3741491Y-7451722D01*
X3741491Y-7451722D02*
X3751015Y-7470769D01*
X3751015Y-7470769D02*
X3751015Y-7518388D01*
X3751015Y-7518388D02*
X3741491Y-7537436D01*
X3741491Y-7537436D02*
X3731968Y-7546960D01*
X3731968Y-7546960D02*
X3712920Y-7556484D01*
X3712920Y-7556484D02*
X3665301Y-7556484D01*
X3665301Y-7556484D02*
X3646253Y-7546960D01*
X3646253Y-7546960D02*
X3636729Y-7537436D01*
X3989110Y-7556484D02*
X3989110Y-7356484D01*
X4074825Y-7556484D02*
X4074825Y-7451722D01*
X4074825Y-7451722D02*
X4065301Y-7432674D01*
X4065301Y-7432674D02*
X4046253Y-7423150D01*
X4046253Y-7423150D02*
X4017682Y-7423150D01*
X4017682Y-7423150D02*
X3998634Y-7432674D01*
X3998634Y-7432674D02*
X3989110Y-7442198D01*
X4198634Y-7556484D02*
X4179587Y-7546960D01*
X4179587Y-7546960D02*
X4170063Y-7537436D01*
X4170063Y-7537436D02*
X4160539Y-7518388D01*
X4160539Y-7518388D02*
X4160539Y-7461246D01*
X4160539Y-7461246D02*
X4170063Y-7442198D01*
X4170063Y-7442198D02*
X4179587Y-7432674D01*
X4179587Y-7432674D02*
X4198634Y-7423150D01*
X4198634Y-7423150D02*
X4227206Y-7423150D01*
X4227206Y-7423150D02*
X4246253Y-7432674D01*
X4246253Y-7432674D02*
X4255777Y-7442198D01*
X4255777Y-7442198D02*
X4265301Y-7461246D01*
X4265301Y-7461246D02*
X4265301Y-7518388D01*
X4265301Y-7518388D02*
X4255777Y-7537436D01*
X4255777Y-7537436D02*
X4246253Y-7546960D01*
X4246253Y-7546960D02*
X4227206Y-7556484D01*
X4227206Y-7556484D02*
X4198634Y-7556484D01*
X4379587Y-7556484D02*
X4360539Y-7546960D01*
X4360539Y-7546960D02*
X4351015Y-7527912D01*
X4351015Y-7527912D02*
X4351015Y-7356484D01*
X4531968Y-7546960D02*
X4512920Y-7556484D01*
X4512920Y-7556484D02*
X4474825Y-7556484D01*
X4474825Y-7556484D02*
X4455777Y-7546960D01*
X4455777Y-7546960D02*
X4446253Y-7527912D01*
X4446253Y-7527912D02*
X4446253Y-7451722D01*
X4446253Y-7451722D02*
X4455777Y-7432674D01*
X4455777Y-7432674D02*
X4474825Y-7423150D01*
X4474825Y-7423150D02*
X4512920Y-7423150D01*
X4512920Y-7423150D02*
X4531968Y-7432674D01*
X4531968Y-7432674D02*
X4541492Y-7451722D01*
X4541492Y-7451722D02*
X4541492Y-7470769D01*
X4541492Y-7470769D02*
X4446253Y-7489817D01*
X4617682Y-7546960D02*
X4636730Y-7556484D01*
X4636730Y-7556484D02*
X4674825Y-7556484D01*
X4674825Y-7556484D02*
X4693873Y-7546960D01*
X4693873Y-7546960D02*
X4703396Y-7527912D01*
X4703396Y-7527912D02*
X4703396Y-7518388D01*
X4703396Y-7518388D02*
X4693873Y-7499341D01*
X4693873Y-7499341D02*
X4674825Y-7489817D01*
X4674825Y-7489817D02*
X4646253Y-7489817D01*
X4646253Y-7489817D02*
X4627206Y-7480293D01*
X4627206Y-7480293D02*
X4617682Y-7461246D01*
X4617682Y-7461246D02*
X4617682Y-7451722D01*
X4617682Y-7451722D02*
X4627206Y-7432674D01*
X4627206Y-7432674D02*
X4646253Y-7423150D01*
X4646253Y-7423150D02*
X4674825Y-7423150D01*
X4674825Y-7423150D02*
X4693873Y-7432674D01*
X4770063Y-7632674D02*
X4779587Y-7623150D01*
X4779587Y-7623150D02*
X4798634Y-7594579D01*
X4798634Y-7594579D02*
X4808158Y-7575531D01*
X4808158Y-7575531D02*
X4817682Y-7546960D01*
X4817682Y-7546960D02*
X4827206Y-7499341D01*
X4827206Y-7499341D02*
X4827206Y-7461246D01*
X4827206Y-7461246D02*
X4817682Y-7413627D01*
X4817682Y-7413627D02*
X4808158Y-7385055D01*
X4808158Y-7385055D02*
X4798634Y-7366008D01*
X4798634Y-7366008D02*
X4779587Y-7337436D01*
X4779587Y-7337436D02*
X4770063Y-7327912D01*
D14*
X-81200Y-7746900D02*
X-5000Y-7823100D01*
X-5000Y-7746900D02*
X-81200Y-7823100D01*
X-43100Y-7746900D02*
X-43100Y-7823100D01*
X-81200Y-7785000D02*
X-5000Y-7785000D01*
D11*
X293872Y-7676484D02*
X312920Y-7676484D01*
X312920Y-7676484D02*
X331967Y-7686008D01*
X331967Y-7686008D02*
X341491Y-7695531D01*
X341491Y-7695531D02*
X351015Y-7714579D01*
X351015Y-7714579D02*
X360539Y-7752674D01*
X360539Y-7752674D02*
X360539Y-7800293D01*
X360539Y-7800293D02*
X351015Y-7838388D01*
X351015Y-7838388D02*
X341491Y-7857436D01*
X341491Y-7857436D02*
X331967Y-7866960D01*
X331967Y-7866960D02*
X312920Y-7876484D01*
X312920Y-7876484D02*
X293872Y-7876484D01*
X293872Y-7876484D02*
X274824Y-7866960D01*
X274824Y-7866960D02*
X265301Y-7857436D01*
X265301Y-7857436D02*
X255777Y-7838388D01*
X255777Y-7838388D02*
X246253Y-7800293D01*
X246253Y-7800293D02*
X246253Y-7752674D01*
X246253Y-7752674D02*
X255777Y-7714579D01*
X255777Y-7714579D02*
X265301Y-7695531D01*
X265301Y-7695531D02*
X274824Y-7686008D01*
X274824Y-7686008D02*
X293872Y-7676484D01*
X446253Y-7857436D02*
X455777Y-7866960D01*
X455777Y-7866960D02*
X446253Y-7876484D01*
X446253Y-7876484D02*
X436729Y-7866960D01*
X436729Y-7866960D02*
X446253Y-7857436D01*
X446253Y-7857436D02*
X446253Y-7876484D01*
X522443Y-7676484D02*
X655777Y-7676484D01*
X655777Y-7676484D02*
X570063Y-7876484D01*
X817682Y-7676484D02*
X779586Y-7676484D01*
X779586Y-7676484D02*
X760539Y-7686008D01*
X760539Y-7686008D02*
X751015Y-7695531D01*
X751015Y-7695531D02*
X731967Y-7724103D01*
X731967Y-7724103D02*
X722443Y-7762198D01*
X722443Y-7762198D02*
X722443Y-7838388D01*
X722443Y-7838388D02*
X731967Y-7857436D01*
X731967Y-7857436D02*
X741491Y-7866960D01*
X741491Y-7866960D02*
X760539Y-7876484D01*
X760539Y-7876484D02*
X798634Y-7876484D01*
X798634Y-7876484D02*
X817682Y-7866960D01*
X817682Y-7866960D02*
X827205Y-7857436D01*
X827205Y-7857436D02*
X836729Y-7838388D01*
X836729Y-7838388D02*
X836729Y-7790769D01*
X836729Y-7790769D02*
X827205Y-7771722D01*
X827205Y-7771722D02*
X817682Y-7762198D01*
X817682Y-7762198D02*
X798634Y-7752674D01*
X798634Y-7752674D02*
X760539Y-7752674D01*
X760539Y-7752674D02*
X741491Y-7762198D01*
X741491Y-7762198D02*
X731967Y-7771722D01*
X731967Y-7771722D02*
X722443Y-7790769D01*
X912920Y-7695531D02*
X922443Y-7686008D01*
X922443Y-7686008D02*
X941491Y-7676484D01*
X941491Y-7676484D02*
X989110Y-7676484D01*
X989110Y-7676484D02*
X1008158Y-7686008D01*
X1008158Y-7686008D02*
X1017682Y-7695531D01*
X1017682Y-7695531D02*
X1027205Y-7714579D01*
X1027205Y-7714579D02*
X1027205Y-7733627D01*
X1027205Y-7733627D02*
X1017682Y-7762198D01*
X1017682Y-7762198D02*
X903396Y-7876484D01*
X903396Y-7876484D02*
X1027205Y-7876484D01*
X1112920Y-7876484D02*
X1112920Y-7743150D01*
X1112920Y-7762198D02*
X1122444Y-7752674D01*
X1122444Y-7752674D02*
X1141491Y-7743150D01*
X1141491Y-7743150D02*
X1170063Y-7743150D01*
X1170063Y-7743150D02*
X1189110Y-7752674D01*
X1189110Y-7752674D02*
X1198634Y-7771722D01*
X1198634Y-7771722D02*
X1198634Y-7876484D01*
X1198634Y-7771722D02*
X1208158Y-7752674D01*
X1208158Y-7752674D02*
X1227205Y-7743150D01*
X1227205Y-7743150D02*
X1255777Y-7743150D01*
X1255777Y-7743150D02*
X1274825Y-7752674D01*
X1274825Y-7752674D02*
X1284348Y-7771722D01*
X1284348Y-7771722D02*
X1284348Y-7876484D01*
X1379586Y-7876484D02*
X1379586Y-7743150D01*
X1379586Y-7762198D02*
X1389110Y-7752674D01*
X1389110Y-7752674D02*
X1408158Y-7743150D01*
X1408158Y-7743150D02*
X1436729Y-7743150D01*
X1436729Y-7743150D02*
X1455777Y-7752674D01*
X1455777Y-7752674D02*
X1465301Y-7771722D01*
X1465301Y-7771722D02*
X1465301Y-7876484D01*
X1465301Y-7771722D02*
X1474824Y-7752674D01*
X1474824Y-7752674D02*
X1493872Y-7743150D01*
X1493872Y-7743150D02*
X1522443Y-7743150D01*
X1522443Y-7743150D02*
X1541491Y-7752674D01*
X1541491Y-7752674D02*
X1551015Y-7771722D01*
X1551015Y-7771722D02*
X1551015Y-7876484D01*
X1941491Y-7666960D02*
X1770063Y-7924103D01*
X2198634Y-7676484D02*
X2217682Y-7676484D01*
X2217682Y-7676484D02*
X2236729Y-7686008D01*
X2236729Y-7686008D02*
X2246253Y-7695531D01*
X2246253Y-7695531D02*
X2255777Y-7714579D01*
X2255777Y-7714579D02*
X2265301Y-7752674D01*
X2265301Y-7752674D02*
X2265301Y-7800293D01*
X2265301Y-7800293D02*
X2255777Y-7838388D01*
X2255777Y-7838388D02*
X2246253Y-7857436D01*
X2246253Y-7857436D02*
X2236729Y-7866960D01*
X2236729Y-7866960D02*
X2217682Y-7876484D01*
X2217682Y-7876484D02*
X2198634Y-7876484D01*
X2198634Y-7876484D02*
X2179587Y-7866960D01*
X2179587Y-7866960D02*
X2170063Y-7857436D01*
X2170063Y-7857436D02*
X2160539Y-7838388D01*
X2160539Y-7838388D02*
X2151015Y-7800293D01*
X2151015Y-7800293D02*
X2151015Y-7752674D01*
X2151015Y-7752674D02*
X2160539Y-7714579D01*
X2160539Y-7714579D02*
X2170063Y-7695531D01*
X2170063Y-7695531D02*
X2179587Y-7686008D01*
X2179587Y-7686008D02*
X2198634Y-7676484D01*
X2351015Y-7857436D02*
X2360539Y-7866960D01*
X2360539Y-7866960D02*
X2351015Y-7876484D01*
X2351015Y-7876484D02*
X2341491Y-7866960D01*
X2341491Y-7866960D02*
X2351015Y-7857436D01*
X2351015Y-7857436D02*
X2351015Y-7876484D01*
X2484348Y-7676484D02*
X2503396Y-7676484D01*
X2503396Y-7676484D02*
X2522444Y-7686008D01*
X2522444Y-7686008D02*
X2531968Y-7695531D01*
X2531968Y-7695531D02*
X2541491Y-7714579D01*
X2541491Y-7714579D02*
X2551015Y-7752674D01*
X2551015Y-7752674D02*
X2551015Y-7800293D01*
X2551015Y-7800293D02*
X2541491Y-7838388D01*
X2541491Y-7838388D02*
X2531968Y-7857436D01*
X2531968Y-7857436D02*
X2522444Y-7866960D01*
X2522444Y-7866960D02*
X2503396Y-7876484D01*
X2503396Y-7876484D02*
X2484348Y-7876484D01*
X2484348Y-7876484D02*
X2465301Y-7866960D01*
X2465301Y-7866960D02*
X2455777Y-7857436D01*
X2455777Y-7857436D02*
X2446253Y-7838388D01*
X2446253Y-7838388D02*
X2436729Y-7800293D01*
X2436729Y-7800293D02*
X2436729Y-7752674D01*
X2436729Y-7752674D02*
X2446253Y-7714579D01*
X2446253Y-7714579D02*
X2455777Y-7695531D01*
X2455777Y-7695531D02*
X2465301Y-7686008D01*
X2465301Y-7686008D02*
X2484348Y-7676484D01*
X2617682Y-7676484D02*
X2741491Y-7676484D01*
X2741491Y-7676484D02*
X2674825Y-7752674D01*
X2674825Y-7752674D02*
X2703396Y-7752674D01*
X2703396Y-7752674D02*
X2722444Y-7762198D01*
X2722444Y-7762198D02*
X2731968Y-7771722D01*
X2731968Y-7771722D02*
X2741491Y-7790769D01*
X2741491Y-7790769D02*
X2741491Y-7838388D01*
X2741491Y-7838388D02*
X2731968Y-7857436D01*
X2731968Y-7857436D02*
X2722444Y-7866960D01*
X2722444Y-7866960D02*
X2703396Y-7876484D01*
X2703396Y-7876484D02*
X2646253Y-7876484D01*
X2646253Y-7876484D02*
X2627206Y-7866960D01*
X2627206Y-7866960D02*
X2617682Y-7857436D01*
X2865301Y-7676484D02*
X2884348Y-7676484D01*
X2884348Y-7676484D02*
X2903396Y-7686008D01*
X2903396Y-7686008D02*
X2912920Y-7695531D01*
X2912920Y-7695531D02*
X2922444Y-7714579D01*
X2922444Y-7714579D02*
X2931967Y-7752674D01*
X2931967Y-7752674D02*
X2931967Y-7800293D01*
X2931967Y-7800293D02*
X2922444Y-7838388D01*
X2922444Y-7838388D02*
X2912920Y-7857436D01*
X2912920Y-7857436D02*
X2903396Y-7866960D01*
X2903396Y-7866960D02*
X2884348Y-7876484D01*
X2884348Y-7876484D02*
X2865301Y-7876484D01*
X2865301Y-7876484D02*
X2846253Y-7866960D01*
X2846253Y-7866960D02*
X2836729Y-7857436D01*
X2836729Y-7857436D02*
X2827206Y-7838388D01*
X2827206Y-7838388D02*
X2817682Y-7800293D01*
X2817682Y-7800293D02*
X2817682Y-7752674D01*
X2817682Y-7752674D02*
X2827206Y-7714579D01*
X2827206Y-7714579D02*
X2836729Y-7695531D01*
X2836729Y-7695531D02*
X2846253Y-7686008D01*
X2846253Y-7686008D02*
X2865301Y-7676484D01*
X3055777Y-7676484D02*
X3074825Y-7676484D01*
X3074825Y-7676484D02*
X3093872Y-7686008D01*
X3093872Y-7686008D02*
X3103396Y-7695531D01*
X3103396Y-7695531D02*
X3112920Y-7714579D01*
X3112920Y-7714579D02*
X3122444Y-7752674D01*
X3122444Y-7752674D02*
X3122444Y-7800293D01*
X3122444Y-7800293D02*
X3112920Y-7838388D01*
X3112920Y-7838388D02*
X3103396Y-7857436D01*
X3103396Y-7857436D02*
X3093872Y-7866960D01*
X3093872Y-7866960D02*
X3074825Y-7876484D01*
X3074825Y-7876484D02*
X3055777Y-7876484D01*
X3055777Y-7876484D02*
X3036729Y-7866960D01*
X3036729Y-7866960D02*
X3027206Y-7857436D01*
X3027206Y-7857436D02*
X3017682Y-7838388D01*
X3017682Y-7838388D02*
X3008158Y-7800293D01*
X3008158Y-7800293D02*
X3008158Y-7752674D01*
X3008158Y-7752674D02*
X3017682Y-7714579D01*
X3017682Y-7714579D02*
X3027206Y-7695531D01*
X3027206Y-7695531D02*
X3036729Y-7686008D01*
X3036729Y-7686008D02*
X3055777Y-7676484D01*
X3198634Y-7676484D02*
X3198634Y-7714579D01*
X3274825Y-7676484D02*
X3274825Y-7714579D01*
X3570063Y-7952674D02*
X3560539Y-7943150D01*
X3560539Y-7943150D02*
X3541491Y-7914579D01*
X3541491Y-7914579D02*
X3531968Y-7895531D01*
X3531968Y-7895531D02*
X3522444Y-7866960D01*
X3522444Y-7866960D02*
X3512920Y-7819341D01*
X3512920Y-7819341D02*
X3512920Y-7781246D01*
X3512920Y-7781246D02*
X3522444Y-7733627D01*
X3522444Y-7733627D02*
X3531968Y-7705055D01*
X3531968Y-7705055D02*
X3541491Y-7686008D01*
X3541491Y-7686008D02*
X3560539Y-7657436D01*
X3560539Y-7657436D02*
X3570063Y-7647912D01*
X3751015Y-7876484D02*
X3636729Y-7876484D01*
X3693872Y-7876484D02*
X3693872Y-7676484D01*
X3693872Y-7676484D02*
X3674825Y-7705055D01*
X3674825Y-7705055D02*
X3655777Y-7724103D01*
X3655777Y-7724103D02*
X3636729Y-7733627D01*
X3827206Y-7695531D02*
X3836729Y-7686008D01*
X3836729Y-7686008D02*
X3855777Y-7676484D01*
X3855777Y-7676484D02*
X3903396Y-7676484D01*
X3903396Y-7676484D02*
X3922444Y-7686008D01*
X3922444Y-7686008D02*
X3931968Y-7695531D01*
X3931968Y-7695531D02*
X3941491Y-7714579D01*
X3941491Y-7714579D02*
X3941491Y-7733627D01*
X3941491Y-7733627D02*
X3931968Y-7762198D01*
X3931968Y-7762198D02*
X3817682Y-7876484D01*
X3817682Y-7876484D02*
X3941491Y-7876484D01*
X4179587Y-7876484D02*
X4179587Y-7676484D01*
X4265301Y-7876484D02*
X4265301Y-7771722D01*
X4265301Y-7771722D02*
X4255777Y-7752674D01*
X4255777Y-7752674D02*
X4236730Y-7743150D01*
X4236730Y-7743150D02*
X4208158Y-7743150D01*
X4208158Y-7743150D02*
X4189110Y-7752674D01*
X4189110Y-7752674D02*
X4179587Y-7762198D01*
X4389111Y-7876484D02*
X4370063Y-7866960D01*
X4370063Y-7866960D02*
X4360539Y-7857436D01*
X4360539Y-7857436D02*
X4351015Y-7838388D01*
X4351015Y-7838388D02*
X4351015Y-7781246D01*
X4351015Y-7781246D02*
X4360539Y-7762198D01*
X4360539Y-7762198D02*
X4370063Y-7752674D01*
X4370063Y-7752674D02*
X4389111Y-7743150D01*
X4389111Y-7743150D02*
X4417682Y-7743150D01*
X4417682Y-7743150D02*
X4436730Y-7752674D01*
X4436730Y-7752674D02*
X4446253Y-7762198D01*
X4446253Y-7762198D02*
X4455777Y-7781246D01*
X4455777Y-7781246D02*
X4455777Y-7838388D01*
X4455777Y-7838388D02*
X4446253Y-7857436D01*
X4446253Y-7857436D02*
X4436730Y-7866960D01*
X4436730Y-7866960D02*
X4417682Y-7876484D01*
X4417682Y-7876484D02*
X4389111Y-7876484D01*
X4570063Y-7876484D02*
X4551015Y-7866960D01*
X4551015Y-7866960D02*
X4541492Y-7847912D01*
X4541492Y-7847912D02*
X4541492Y-7676484D01*
X4722444Y-7866960D02*
X4703396Y-7876484D01*
X4703396Y-7876484D02*
X4665301Y-7876484D01*
X4665301Y-7876484D02*
X4646253Y-7866960D01*
X4646253Y-7866960D02*
X4636730Y-7847912D01*
X4636730Y-7847912D02*
X4636730Y-7771722D01*
X4636730Y-7771722D02*
X4646253Y-7752674D01*
X4646253Y-7752674D02*
X4665301Y-7743150D01*
X4665301Y-7743150D02*
X4703396Y-7743150D01*
X4703396Y-7743150D02*
X4722444Y-7752674D01*
X4722444Y-7752674D02*
X4731968Y-7771722D01*
X4731968Y-7771722D02*
X4731968Y-7790769D01*
X4731968Y-7790769D02*
X4636730Y-7809817D01*
X4808158Y-7866960D02*
X4827206Y-7876484D01*
X4827206Y-7876484D02*
X4865301Y-7876484D01*
X4865301Y-7876484D02*
X4884349Y-7866960D01*
X4884349Y-7866960D02*
X4893873Y-7847912D01*
X4893873Y-7847912D02*
X4893873Y-7838388D01*
X4893873Y-7838388D02*
X4884349Y-7819341D01*
X4884349Y-7819341D02*
X4865301Y-7809817D01*
X4865301Y-7809817D02*
X4836730Y-7809817D01*
X4836730Y-7809817D02*
X4817682Y-7800293D01*
X4817682Y-7800293D02*
X4808158Y-7781246D01*
X4808158Y-7781246D02*
X4808158Y-7771722D01*
X4808158Y-7771722D02*
X4817682Y-7752674D01*
X4817682Y-7752674D02*
X4836730Y-7743150D01*
X4836730Y-7743150D02*
X4865301Y-7743150D01*
X4865301Y-7743150D02*
X4884349Y-7752674D01*
X4960539Y-7952674D02*
X4970063Y-7943150D01*
X4970063Y-7943150D02*
X4989111Y-7914579D01*
X4989111Y-7914579D02*
X4998634Y-7895531D01*
X4998634Y-7895531D02*
X5008158Y-7866960D01*
X5008158Y-7866960D02*
X5017682Y-7819341D01*
X5017682Y-7819341D02*
X5017682Y-7781246D01*
X5017682Y-7781246D02*
X5008158Y-7733627D01*
X5008158Y-7733627D02*
X4998634Y-7705055D01*
X4998634Y-7705055D02*
X4989111Y-7686008D01*
X4989111Y-7686008D02*
X4970063Y-7657436D01*
X4970063Y-7657436D02*
X4960539Y-7647912D01*
X5322444Y-7952674D02*
X5312920Y-7943150D01*
X5312920Y-7943150D02*
X5293873Y-7914579D01*
X5293873Y-7914579D02*
X5284349Y-7895531D01*
X5284349Y-7895531D02*
X5274825Y-7866960D01*
X5274825Y-7866960D02*
X5265301Y-7819341D01*
X5265301Y-7819341D02*
X5265301Y-7781246D01*
X5265301Y-7781246D02*
X5274825Y-7733627D01*
X5274825Y-7733627D02*
X5284349Y-7705055D01*
X5284349Y-7705055D02*
X5293873Y-7686008D01*
X5293873Y-7686008D02*
X5312920Y-7657436D01*
X5312920Y-7657436D02*
X5322444Y-7647912D01*
X5398634Y-7743150D02*
X5398634Y-7876484D01*
X5398634Y-7762198D02*
X5408158Y-7752674D01*
X5408158Y-7752674D02*
X5427206Y-7743150D01*
X5427206Y-7743150D02*
X5455777Y-7743150D01*
X5455777Y-7743150D02*
X5474825Y-7752674D01*
X5474825Y-7752674D02*
X5484349Y-7771722D01*
X5484349Y-7771722D02*
X5484349Y-7876484D01*
X5608158Y-7876484D02*
X5589111Y-7866960D01*
X5589111Y-7866960D02*
X5579587Y-7857436D01*
X5579587Y-7857436D02*
X5570063Y-7838388D01*
X5570063Y-7838388D02*
X5570063Y-7781246D01*
X5570063Y-7781246D02*
X5579587Y-7762198D01*
X5579587Y-7762198D02*
X5589111Y-7752674D01*
X5589111Y-7752674D02*
X5608158Y-7743150D01*
X5608158Y-7743150D02*
X5636730Y-7743150D01*
X5636730Y-7743150D02*
X5655777Y-7752674D01*
X5655777Y-7752674D02*
X5665301Y-7762198D01*
X5665301Y-7762198D02*
X5674825Y-7781246D01*
X5674825Y-7781246D02*
X5674825Y-7838388D01*
X5674825Y-7838388D02*
X5665301Y-7857436D01*
X5665301Y-7857436D02*
X5655777Y-7866960D01*
X5655777Y-7866960D02*
X5636730Y-7876484D01*
X5636730Y-7876484D02*
X5608158Y-7876484D01*
X5731968Y-7743150D02*
X5808158Y-7743150D01*
X5760539Y-7676484D02*
X5760539Y-7847912D01*
X5760539Y-7847912D02*
X5770063Y-7866960D01*
X5770063Y-7866960D02*
X5789111Y-7876484D01*
X5789111Y-7876484D02*
X5808158Y-7876484D01*
X6027206Y-7743150D02*
X6027206Y-7943150D01*
X6027206Y-7752674D02*
X6046253Y-7743150D01*
X6046253Y-7743150D02*
X6084349Y-7743150D01*
X6084349Y-7743150D02*
X6103396Y-7752674D01*
X6103396Y-7752674D02*
X6112920Y-7762198D01*
X6112920Y-7762198D02*
X6122444Y-7781246D01*
X6122444Y-7781246D02*
X6122444Y-7838388D01*
X6122444Y-7838388D02*
X6112920Y-7857436D01*
X6112920Y-7857436D02*
X6103396Y-7866960D01*
X6103396Y-7866960D02*
X6084349Y-7876484D01*
X6084349Y-7876484D02*
X6046253Y-7876484D01*
X6046253Y-7876484D02*
X6027206Y-7866960D01*
X6236730Y-7876484D02*
X6217682Y-7866960D01*
X6217682Y-7866960D02*
X6208158Y-7847912D01*
X6208158Y-7847912D02*
X6208158Y-7676484D01*
X6398634Y-7876484D02*
X6398634Y-7771722D01*
X6398634Y-7771722D02*
X6389111Y-7752674D01*
X6389111Y-7752674D02*
X6370063Y-7743150D01*
X6370063Y-7743150D02*
X6331968Y-7743150D01*
X6331968Y-7743150D02*
X6312920Y-7752674D01*
X6398634Y-7866960D02*
X6379587Y-7876484D01*
X6379587Y-7876484D02*
X6331968Y-7876484D01*
X6331968Y-7876484D02*
X6312920Y-7866960D01*
X6312920Y-7866960D02*
X6303396Y-7847912D01*
X6303396Y-7847912D02*
X6303396Y-7828865D01*
X6303396Y-7828865D02*
X6312920Y-7809817D01*
X6312920Y-7809817D02*
X6331968Y-7800293D01*
X6331968Y-7800293D02*
X6379587Y-7800293D01*
X6379587Y-7800293D02*
X6398634Y-7790769D01*
X6465301Y-7743150D02*
X6541492Y-7743150D01*
X6493873Y-7676484D02*
X6493873Y-7847912D01*
X6493873Y-7847912D02*
X6503396Y-7866960D01*
X6503396Y-7866960D02*
X6522444Y-7876484D01*
X6522444Y-7876484D02*
X6541492Y-7876484D01*
X6684349Y-7866960D02*
X6665301Y-7876484D01*
X6665301Y-7876484D02*
X6627206Y-7876484D01*
X6627206Y-7876484D02*
X6608158Y-7866960D01*
X6608158Y-7866960D02*
X6598634Y-7847912D01*
X6598634Y-7847912D02*
X6598634Y-7771722D01*
X6598634Y-7771722D02*
X6608158Y-7752674D01*
X6608158Y-7752674D02*
X6627206Y-7743150D01*
X6627206Y-7743150D02*
X6665301Y-7743150D01*
X6665301Y-7743150D02*
X6684349Y-7752674D01*
X6684349Y-7752674D02*
X6693873Y-7771722D01*
X6693873Y-7771722D02*
X6693873Y-7790769D01*
X6693873Y-7790769D02*
X6598634Y-7809817D01*
X6865301Y-7876484D02*
X6865301Y-7676484D01*
X6865301Y-7866960D02*
X6846254Y-7876484D01*
X6846254Y-7876484D02*
X6808158Y-7876484D01*
X6808158Y-7876484D02*
X6789111Y-7866960D01*
X6789111Y-7866960D02*
X6779587Y-7857436D01*
X6779587Y-7857436D02*
X6770063Y-7838388D01*
X6770063Y-7838388D02*
X6770063Y-7781246D01*
X6770063Y-7781246D02*
X6779587Y-7762198D01*
X6779587Y-7762198D02*
X6789111Y-7752674D01*
X6789111Y-7752674D02*
X6808158Y-7743150D01*
X6808158Y-7743150D02*
X6846254Y-7743150D01*
X6846254Y-7743150D02*
X6865301Y-7752674D01*
X6941492Y-7952674D02*
X6951015Y-7943150D01*
X6951015Y-7943150D02*
X6970063Y-7914579D01*
X6970063Y-7914579D02*
X6979587Y-7895531D01*
X6979587Y-7895531D02*
X6989111Y-7866960D01*
X6989111Y-7866960D02*
X6998634Y-7819341D01*
X6998634Y-7819341D02*
X6998634Y-7781246D01*
X6998634Y-7781246D02*
X6989111Y-7733627D01*
X6989111Y-7733627D02*
X6979587Y-7705055D01*
X6979587Y-7705055D02*
X6970063Y-7686008D01*
X6970063Y-7686008D02*
X6951015Y-7657436D01*
X6951015Y-7657436D02*
X6941492Y-7647912D01*
M02*
