M48
; DRILL file {KiCad 7.0.7} date 2023 September 24, Sunday 18:34:50
; FORMAT={-:-/ absolute / metric / decimal}
; #@! TF.CreationDate,2023-09-24T18:34:50-04:00
; #@! TF.GenerationSoftware,Kicad,Pcbnew,7.0.7
; #@! TF.FileFunction,MixedPlating,1,2
FMAT,2
METRIC
; #@! TA.AperFunction,Plated,PTH,ComponentDrill
T1C0.200
; #@! TA.AperFunction,Plated,PTH,ViaDrill
T2C0.400
; #@! TA.AperFunction,Plated,PTH,ViaDrill
T3C0.762
; #@! TA.AperFunction,Plated,PTH,ComponentDrill
T4C0.762
; #@! TA.AperFunction,Plated,PTH,ComponentDrill
T5C1.200
; #@! TA.AperFunction,Plated,PTH,ComponentDrill
T6C3.200
; #@! TA.AperFunction,NonPlated,NPTH,ComponentDrill
T7C0.762
%
G90
G05
T1
X69.897Y-14.012
X69.897Y-14.812
X69.897Y-15.612
X70.697Y-14.012
X70.697Y-14.812
X70.697Y-15.612
X71.498Y-14.012
X71.498Y-14.812
X71.498Y-15.612
T2
X1.44Y-8.66
X1.44Y-21.36
X1.44Y-32.79
X1.44Y-46.76
X9.06Y-21.36
X11.6Y-1.04
X11.6Y-11.2
X14.14Y-23.9
X14.14Y-54.38
X15.41Y-16.28
X16.68Y-8.66
X19.22Y-16.28
X19.22Y-34.06
X24.3Y-16.28
X24.3Y-31.52
X25.57Y-26.44
X29.38Y-1.04
X29.38Y-37.87
X29.38Y-41.68
X29.38Y-48.03
X29.38Y-54.38
X30.65Y-16.28
X34.46Y-1.04
X34.46Y-54.38
X37.0Y-16.28
X37.0Y-26.44
X37.0Y-37.87
X38.27Y-41.68
X42.08Y-16.28
X42.08Y-26.44
X42.08Y-45.49
X44.493Y-15.899
X45.89Y-54.38
X46.398Y-15.899
X47.16Y-6.12
X49.192Y-13.232
X49.192Y-16.534
X49.7Y-34.06
X49.7Y-37.87
X49.7Y-40.41
X49.7Y-54.38
X56.05Y-16.28
X63.543Y-13.232
X63.543Y-16.534
X64.94Y-26.44
X66.21Y-1.04
X66.21Y-7.39
X66.21Y-37.87
X68.75Y-7.644
X68.75Y-17.55
X68.75Y-35.33
X68.773Y-2.01
X71.036Y-3.961
X72.56Y-26.44
X75.481Y-7.136
X76.37Y-21.36
X77.64Y-42.95
X78.91Y-39.14
X79.418Y-5.739
X80.18Y-30.25
X82.72Y-25.17
X82.847Y-9.168
X82.974Y-4.85
X87.8Y-18.82
X87.8Y-25.17
X88.689Y-9.168
X91.229Y-9.168
X97.96Y-13.74
X97.96Y-25.17
X97.96Y-30.25
X97.96Y-35.33
T3
X10.711Y-30.631
X10.711Y-46.506
X12.362Y-36.473
X31.031Y-11.581
X44.493Y-21.614
X44.555Y-32.282
X76.624Y-14.248
X77.011Y-16.915
X81.45Y-16.915
X86.53Y-21.0
X88.435Y-32.282
X88.435Y-37.87
T4
X28.436Y-33.48
X28.472Y-20.689
X32.936Y-33.48
X32.972Y-20.689
X55.778Y-20.507
X55.778Y-33.389
X60.278Y-20.507
X60.278Y-33.389
T5
X27.066Y-31.23
X27.102Y-22.939
X34.306Y-31.23
X34.342Y-22.939
X54.408Y-22.757
X54.408Y-31.139
X61.648Y-22.757
X61.648Y-31.139
T6
X4.0Y-4.0
X4.0Y-51.0
X50.0Y-27.0
X96.0Y-4.0
X96.0Y-51.0
T7
X28.436Y-28.98
X28.472Y-25.189
X30.686Y-33.48
X30.722Y-20.689
X32.936Y-28.98
X32.972Y-25.189
X55.778Y-25.007
X55.778Y-28.889
X58.028Y-20.507
X58.028Y-33.389
X60.278Y-25.007
X60.278Y-28.889
T0
M30
