M48
; DRILL file {KiCad 7.0.1-0} date 2023 March 21, Tuesday 20:30:57
; FORMAT={-:-/ absolute / metric / decimal}
; #@! TF.CreationDate,2023-03-21T20:30:57-04:00
; #@! TF.GenerationSoftware,Kicad,Pcbnew,7.0.1-0
; #@! TF.FileFunction,MixedPlating,1,2
FMAT,2
METRIC
; #@! TA.AperFunction,Plated,PTH,ViaDrill
T1C0.400
; #@! TA.AperFunction,Plated,PTH,ViaDrill
T2C0.762
; #@! TA.AperFunction,Plated,PTH,ComponentDrill
T3C0.762
; #@! TA.AperFunction,Plated,PTH,ComponentDrill
T4C1.000
; #@! TA.AperFunction,Plated,PTH,ComponentDrill
T5C1.200
; #@! TA.AperFunction,Plated,PTH,ComponentDrill
T6C1.500
; #@! TA.AperFunction,Plated,PTH,ComponentDrill
T7C1.700
; #@! TA.AperFunction,NonPlated,NPTH,ComponentDrill
T8C1.500
%
G90
G05
T1
X1.021Y-50.744
X2.037Y-35.631
X2.037Y-43.378
X3.688Y-24.201
X5.339Y-35.631
X5.339Y-43.378
X5.466Y-50.871
X5.72Y-58.491
X6.5Y-1.6
X12.832Y-39.187
X14.61Y-46.553
X14.61Y-56.205
X14.991Y-21.153
X16.134Y-34.107
X16.134Y-39.187
X17.023Y-26.741
X19.0Y-40.5
X19.69Y-18.232
X19.817Y-45.283
X21.087Y-51.887
X24.389Y-3.881
X24.77Y-23.566
X25.0Y-11.247
X26.802Y-36.393
X29.85Y-57.094
X31.12Y-47.061
X33.025Y-4.389
X33.406Y-23.947
X35.438Y-56.967
X35.692Y-11.755
X35.819Y-33.345
X37.343Y-51.506
X38.359Y-2.23
X40.01Y-32.71
X40.137Y-21.661
X41.153Y-12.009
X42.931Y-29.789
X43.0Y-44.0
X44.5Y-40.5
X46.487Y-27.757
X46.5Y-24.0
X46.614Y-19.502
X52.5Y-43.5
X52.837Y-50.871
X54.361Y-57.475
X56.139Y-6.802
X57.282Y-18.105
X59.06Y-33.98
X61.219Y-28.011
X62.616Y-22.423
X66.045Y-2.611
X67.823Y-44.267
X69.474Y-36.393
X69.855Y-8.834
X70.744Y-28.392
X73.03Y-13.406
X73.157Y-22.55
X74.681Y-31.186
X74.681Y-36.393
X79.761Y-2.611
X79.761Y-11.628
X80.396Y-17.216
X80.777Y-31.186
X80.904Y-57.221
X84.587Y-58.745
X84.841Y-12.644
X86.873Y-34.361
X89.286Y-12.39
T2
X23.439Y-37.47
X25.639Y-41.6
T3
X8.0Y-51.2
X8.0Y-56.2
X10.0Y-56.2
X12.0Y-51.2
X12.0Y-56.2
X47.92Y-11.371
X47.92Y-13.621
X47.92Y-15.871
X50.496Y-31.766
X50.496Y-36.266
X52.42Y-11.371
X52.42Y-15.871
X52.746Y-36.266
X54.996Y-31.766
X54.996Y-36.266
X60.656Y-41.926
X60.656Y-44.176
X60.656Y-46.426
X65.156Y-41.926
X65.156Y-46.426
X81.285Y-20.974
X81.285Y-25.474
X83.535Y-25.474
X85.785Y-20.974
X85.785Y-25.474
T4
X2.926Y-54.213
X2.926Y-56.713
T5
X49.126Y-34.016
X50.17Y-10.001
X50.17Y-17.241
X56.366Y-34.016
X62.906Y-40.556
X62.906Y-47.796
X79.915Y-23.224
X87.155Y-23.224
T6
X44.0Y-54.0
X50.17Y-4.77
X64.0Y-54.0
X80.015Y-45.029
T7
X41.46Y-51.46
X41.46Y-56.54
X46.54Y-51.46
X46.54Y-56.54
X47.63Y-2.23
X47.63Y-7.31
X52.71Y-2.23
X52.71Y-7.31
X61.46Y-51.46
X61.46Y-56.54
X66.54Y-51.46
X66.54Y-56.54
X77.475Y-42.489
X77.475Y-47.569
X82.555Y-42.489
X82.555Y-47.569
T8
X10.0Y-2.0
X10.0Y-9.0
T0
M30
